<svg width="688" height="195" viewBox="0 0 688 195" fill="none" xmlns="http://www.w3.org/2000/svg">
<path d="M58.9006 44.9881L46.1496 43.1348C43.9429 42.814 41.806 43.8904 41.3767 45.5388L6.06919 181.106C5.63986 182.754 7.08067 184.35 9.28733 184.671L22.0384 186.524C24.245 186.845 26.3819 185.769 26.8113 184.12L62.1188 48.5536C62.5481 46.9051 61.1073 45.3088 58.9006 44.9881Z" fill="#353531" stroke="#353531" stroke-miterlimit="10"/>
<path d="M79.9534 68.7104H59.6523C57.5801 68.7104 55.9003 69.9653 55.9003 71.5133V183.079C55.9003 184.627 57.5801 185.882 59.6523 185.882H79.9534C82.0256 185.882 83.7054 184.627 83.7054 183.079V71.5133C83.7054 69.9653 82.0256 68.7104 79.9534 68.7104Z" fill="#353531" stroke="#353531" stroke-miterlimit="10"/>
<path d="M100.169 64.9561H87.2926C85.3146 64.9561 83.7111 66.154 83.7111 67.6317V183.202C83.7111 184.68 85.3146 185.878 87.2926 185.878H100.169C102.147 185.878 103.751 184.68 103.751 183.202V67.6317C103.751 66.154 102.147 64.9561 100.169 64.9561Z" fill="#353531" stroke="#353531" stroke-miterlimit="10"/>
<path d="M119.964 76.1849H106.94C105.175 76.1849 103.745 77.2535 103.745 78.5716V183.491C103.745 184.809 105.175 185.878 106.94 185.878H119.964C121.729 185.878 123.159 184.809 123.159 183.491V78.5716C123.159 77.2535 121.729 76.1849 119.964 76.1849Z" fill="#353531" stroke="#353531" stroke-miterlimit="10"/>
<path d="M143.724 79.3314L125.718 81.2362C124.098 81.4076 122.971 82.5273 123.2 83.7372L142.234 184.147C142.463 185.357 143.962 186.199 145.582 186.027L163.588 184.123C165.208 183.951 166.335 182.831 166.106 181.622L147.072 81.2119C146.843 80.002 145.344 79.16 143.724 79.3314Z" fill="#353531" stroke="#353531" stroke-miterlimit="10"/>
<path d="M160.51 80.9953L150.514 82.5907C148.915 82.846 147.895 84.0218 148.237 85.2168L176.6 184.39C176.942 185.585 178.516 186.347 180.115 186.091L190.111 184.496C191.711 184.241 192.731 183.065 192.389 181.87L164.026 82.6968C163.684 81.5017 162.11 80.74 160.51 80.9953Z" fill="#353531" stroke="#353531" stroke-miterlimit="10"/>
<path d="M237.665 53.0593L225.748 51.5567C223.754 51.3053 221.865 52.3089 221.528 53.7984L192.752 181.166C192.416 182.655 193.759 184.067 195.753 184.318L207.671 185.821C209.664 186.072 211.554 185.068 211.89 183.579L240.666 56.2113C241.003 54.7219 239.659 53.3107 237.665 53.0593Z" fill="#353531" stroke="#353531" stroke-miterlimit="10"/>
<path d="M437.503 75.1784H254.499C254.499 75.1784 246.875 75.6965 246.182 82.1687C246.182 82.1687 245.488 88.3819 252.765 89.1591H236.477C236.477 89.1591 242.714 90.7135 242.367 97.7038C242.367 97.7038 244.448 106.032 236.477 108.062V108.482H229.286V109.68C229.286 109.68 236.216 109.616 235.437 122.238C235.437 122.238 236.739 132.401 227.814 134.405V135.701H239.075C239.075 135.701 232.578 137.382 232.578 146.768C232.578 146.768 233.618 155.508 239.161 156.413C239.161 156.413 223.823 154.149 222.782 168.257V176.157C222.782 176.157 222.697 186.124 238.12 186.188H433.342L433.513 182.629C433.513 182.629 426.236 183.406 426.406 170.848C426.406 170.848 426.06 161.14 433.683 160.231V156.604L442.347 156.731V154.272C442.347 154.272 436.804 154.145 436.804 146.246C436.804 146.246 436.804 139.642 442.347 139.255V136.924L434.894 137.051C434.894 137.051 441.477 136.147 442.347 124.884V116.08C442.347 116.08 441.483 111.29 436.804 108.572L443.564 108.444C443.564 108.444 449.976 107.54 450.323 97.827C450.323 97.827 450.67 90.8366 443.393 88.6368L437.327 88.7642L437.157 87.4689C437.157 87.4689 431.091 88.1144 430.744 82.1603C430.744 82.1603 430.227 76.8516 437.503 76.4652V75.1699V75.1784Z" fill="#353531" stroke="#353531" stroke-miterlimit="10"/>
<path d="M456.999 68.011L447.211 69.4986C444.639 69.8895 442.978 71.7641 443.501 73.6856L473.496 183.819C474.019 185.74 476.528 186.981 479.1 186.59L488.888 185.103C491.46 184.712 493.121 182.837 492.598 180.916L462.604 70.7823C462.08 68.8608 459.571 67.62 456.999 68.011Z" fill="#353531" stroke="#353531" stroke-miterlimit="10"/>
<path d="M477.081 68.5429L467.403 70.3872C464.859 70.8718 463.324 72.805 463.972 74.7049L501.158 183.607C501.807 185.507 504.394 186.655 506.938 186.17L516.616 184.326C519.16 183.841 520.696 181.908 520.047 180.008L482.861 71.1055C482.212 69.2056 479.625 68.0582 477.081 68.5429Z" fill="#353531" stroke="#353531" stroke-miterlimit="10"/>
<path d="M347.289 13.2375V6.62089L356.237 12.0059L363.98 12.0781L368.914 6.0051C368.914 6.0051 379.511 15.7262 386.913 24.7296C386.913 24.7296 401.285 43.2715 400.995 52.3811C400.995 52.3811 398.09 73.3097 377.482 76.0192L317.392 75.4756C317.392 75.4756 311.633 83.6424 291.895 84.513C291.895 84.513 279.894 83.0691 269.831 91.0193L266.443 94.7777C266.443 94.7777 264.556 96.7313 261.071 96.2939C261.071 96.2939 253.521 96.6209 253.959 90.7644C253.959 90.7644 256.574 81.7653 271.81 76.4524C271.81 76.4524 278.779 73.6325 290.678 73.7429C290.678 73.7429 301.997 72.9827 303.884 70.0566C303.884 70.0566 297.79 67.0201 296.334 57.9105C296.334 57.9105 294.157 44.8981 319.268 35.3553C319.268 35.3553 328.415 31.342 341.621 32.1022H346.845C346.845 32.1022 350.33 32.6458 348.295 29.9321C348.295 29.9321 342.201 29.1719 342.633 21.6931C342.633 21.6931 342.195 17.4632 346.988 15.2973L347.277 13.2375H347.289Z" fill="#4F504D" stroke="#4F504D" stroke-miterlimit="10"/>
<path d="M349.176 26.8361L351.695 27.9827L353.821 26.8361H349.176Z" fill="#353531" stroke="#353531" stroke-miterlimit="10"/>
<path d="M358.465 26.8361L371.626 25.6682" stroke="#353531" stroke-miterlimit="10"/>
<path d="M358.465 28.5603C359.045 28.5603 374.531 29.2823 374.531 29.2823L358.465 28.5603Z" fill="#353531"/>
<path d="M358.465 28.5603C359.045 28.5603 374.531 29.2823 374.531 29.2823" stroke="#353531" stroke-miterlimit="10"/>
<path d="M344.918 26.8361L335.242 26.2542" stroke="#353531" stroke-miterlimit="10"/>
<path d="M347.823 29.2823H335.242" stroke="#353531" stroke-miterlimit="10"/>
<path d="M350.535 21.6931L343.025 19.3148C343.025 19.3148 342.354 24.4026 345.839 24.9462C345.839 24.9462 348.693 25.7064 350.535 21.6931Z" fill="#EA9E28" stroke="#353531" stroke-miterlimit="10"/>
<path d="M355.839 21.5869L365.049 20.3935C365.049 20.3935 365.992 24.1733 361.871 25.3879C360.694 25.7361 359.346 25.7276 358.249 25.2562C357.152 24.7848 355.981 23.7571 355.845 21.5869H355.839Z" fill="#EA9E28" stroke="#353531" stroke-miterlimit="10"/>
<path d="M346.925 22.0753C347.405 22.0753 347.795 21.7844 347.795 21.4255C347.795 21.0667 347.405 20.7758 346.925 20.7758C346.445 20.7758 346.055 21.0667 346.055 21.4255C346.055 21.7844 346.445 22.0753 346.925 22.0753Z" fill="#353531" stroke="#353531" stroke-miterlimit="10"/>
<path d="M360.131 22.3471C360.611 22.3471 361.001 22.0562 361.001 21.6973C361.001 21.3385 360.611 21.0476 360.131 21.0476C359.651 21.0476 359.261 21.3385 359.261 21.6973C359.261 22.0562 359.651 22.3471 360.131 22.3471Z" fill="#353531" stroke="#353531" stroke-miterlimit="10"/>
<path d="M560.236 189.759H615.971L626.42 144.22C626.42 144.22 636.869 148.339 664.157 145.957L647.028 128.392C647.028 128.392 641.804 123.185 630.19 122.535C630.19 122.535 624.095 124.272 618.575 116.896C618.575 116.896 619.155 114.602 624.38 114.228C624.38 114.228 633.089 113.426 642.088 101.713C642.088 101.713 650.218 86.9677 664.152 86.0971C664.152 86.0971 674.6 85.8805 679.825 86.0971C679.825 86.0971 662.696 74.605 642.958 83.7104C642.958 83.7104 626.119 93.9029 621.474 95.6399C621.474 95.6399 609.86 97.6486 600.571 104.236C600.571 104.236 603.476 98.2432 612.765 93.6906C612.765 93.6906 619.149 92.0895 618.859 80.2024C618.859 80.2024 617.12 73.5221 625.244 69.3984C625.244 69.3984 631.338 68.3154 630.178 55.303L631.338 42.9403C631.338 42.9403 610.434 53.7826 604.34 68.9652C604.34 68.9652 603.47 71.7851 603.47 74.605C603.47 74.605 604.05 79.1577 600.565 81.5445C600.565 81.5445 593.891 86.3137 592.726 91.0872C592.726 91.0872 587.211 88.4839 588.371 75.688C588.371 75.688 591.566 64.8457 582.277 58.5561C582.277 58.5561 579.059 58.3395 568.764 39.908C568.764 39.908 564.568 51.8375 566.887 65.9329C566.887 65.9329 568.604 69.4026 568.764 79.8117C568.764 79.8117 563.113 78.5122 552.954 69.6192C552.954 69.6192 532.636 58.5603 519.282 70.9188C519.282 70.9188 539.895 68.0988 545.99 76.9918C545.99 76.9918 552.959 87.8341 557.308 90.654C557.308 90.654 550.049 89.7877 538.73 86.5345C538.73 86.5345 509.413 79.8117 491.994 104.749C491.994 104.749 512.545 95.2067 524.768 96.5105C524.768 96.5105 532.926 97.1603 536.7 99.1138C536.7 99.1138 543.085 101.934 552.669 102.15C552.669 102.15 559.344 101.501 560.219 105.187C560.219 105.187 546.865 100.851 537.286 112.993C537.286 112.993 530.902 117.762 525.671 120.798C525.671 120.798 513.477 127.521 516.672 138.797C516.672 138.797 523.056 133.59 530.026 132.94C530.026 132.94 541.055 133.157 544.25 131.857L543.67 143.566L548.735 143.893L560.213 189.759H560.236Z" fill="#353531" stroke="#353531" stroke-miterlimit="10"/>
</svg>
