<svg width="7557" height="6739" viewBox="0 0 7557 6739" fill="none" xmlns="http://www.w3.org/2000/svg">
<path d="M2992.55 527.23L3067.07 663.845C3068.13 665.784 3069.71 667.388 3071.63 668.477L3246.41 767.447C3249.02 768.925 3252.1 769.357 3255.01 768.655L3365.78 741.989C3367.73 741.521 3369.52 740.568 3371 739.22L3494.95 625.961C3495.5 625.454 3496.01 624.896 3496.45 624.293L3568.3 527.814C3570.86 524.385 3575.06 522.6 3579.3 523.143L3824.82 554.618C3827.33 554.941 3829.68 556.064 3831.51 557.823L4046.17 764.052C4049.73 767.477 4055.05 768.326 4059.5 766.181L4108.8 742.447C4110.4 741.676 4112.15 741.276 4113.93 741.276H4255C4259.5 741.276 4263.62 738.72 4265.61 734.683L4352.58 558.684C4353.72 556.369 4354.08 553.742 4353.59 551.206L4332.76 442.896C4332.55 441.79 4332.18 440.72 4331.66 439.718L4296.97 372.252C4294.61 367.677 4295.48 362.107 4299.12 358.469L4357.45 300.142C4363.34 294.259 4361.47 284.302 4353.86 280.943L4302.27 258.182C4297.98 256.289 4295.21 252.042 4295.21 247.353V171.047C4295.21 168.71 4294.52 166.426 4293.22 164.481L4255.41 107.773C4251.15 101.376 4242.01 100.68 4236.82 106.358L4204.05 142.252C4202.1 144.384 4199.44 145.732 4196.57 146.039L4140.99 151.995C4140.13 152.086 4139.27 152.084 4138.42 151.99L4091.06 146.728C4085.08 146.064 4079.56 149.993 4078.22 155.86L4054.61 259.386C4053.2 265.549 4047.2 269.52 4040.97 268.403L3973.27 256.251C3969.18 255.517 3965.77 252.691 3964.3 248.806L3926.48 149.284C3925.56 146.869 3923.88 144.821 3921.68 143.451L3786.3 58.8417C3785.36 58.2547 3784.35 57.8024 3783.28 57.4981L3636.86 15.6661C3633.51 14.7075 3629.9 15.2783 3627.01 17.226L3515.32 92.3576C3512.63 94.1656 3510.8 96.9962 3510.26 100.189L3479.15 282.664C3478.58 286.006 3476.61 288.944 3473.73 290.732L3436.96 313.554C3428.31 318.922 3417.37 311.592 3419.04 301.552L3430.33 233.789C3431.4 227.381 3427.11 221.31 3420.71 220.186L3275.36 194.654C3272.07 194.075 3269.17 192.128 3267.39 189.295L3229.61 129.187C3225.66 122.905 3216.97 121.764 3211.53 126.812L3195.12 142.05C3192.71 144.289 3191.34 147.432 3191.34 150.723V234.114C3191.34 237.672 3189.74 241.042 3186.98 243.289L3136.56 284.368C3133.8 286.615 3132.2 289.985 3132.2 293.543V346.063C3132.2 350.673 3129.53 354.864 3125.34 356.802L3046.6 393.293C3043.9 394.542 3041.77 396.76 3040.64 399.506L2992 517.036C2990.63 520.342 2990.84 524.089 2992.55 527.23Z" fill="#EC4E20"/>
<path d="M4188.6 1951.77C4181.46 1987.46 4185.03 2007.09 4195.74 1999.96C4195.74 1999.96 4185.03 2013.98 4185.03 2024.69C4185.03 2028.2 4187.52 2030.1 4189.56 2031.64C4192.7 2034.03 4194.76 2035.59 4185.03 2041C4174.91 2046.48 4168.08 2055.94 4164.21 2067.29L4188.6 1951.77Z" fill="#353531"/>
<path d="M3309.82 3085.75C3293.94 3066.97 3286.68 3021.08 3271.26 2906.55L3309.82 3085.75Z" fill="#353531"/>
<path fill-rule="evenodd" clip-rule="evenodd" d="M3928.03 527.634C3907.89 527.634 3857.39 500.867 3850.59 491.601C3800.89 473.782 3715.94 455.057 3625 461.672C3595.37 487.986 3585.32 491.583 3585.58 466.16C3523.21 475.931 3460.03 499.057 3405.11 543.695C3389.05 574.034 3383.7 595.449 3392.62 590.095C3414.04 575.818 3465.79 600.803 3453.3 618.649C3447.95 627.573 3424.74 634.711 3399.76 634.711C3369.42 634.711 3356.93 643.634 3356.93 670.404C3356.93 716.804 3330.15 715.02 3296.25 666.835C3282.8 648.352 3275.69 638.57 3271.92 639.723C3267.69 641.02 3267.69 656.135 3267.69 688.244V688.25C3265.91 748.928 3265.91 748.928 3239.13 715.02C3224.86 695.389 3214.15 657.912 3219.5 631.142C3224.86 590.096 3217.72 582.957 3164.18 572.249C3130.27 566.895 3098.14 565.111 3092.79 570.465C3087.43 575.818 3096.36 581.172 3114.21 581.172C3130.27 581.172 3139.19 588.311 3133.84 599.018C3107.07 643.634 3051.74 615.08 3017.83 540.126C2994.63 491.941 2982.14 477.664 2982.14 502.649C2982.14 522.28 2958.94 561.541 2928.6 590.095C2898.26 618.65 2875.05 659.696 2875.05 682.897C2875.05 706.097 2864.35 747.143 2850.07 773.912C2832.22 809.605 2826.87 880.99 2832.22 1043.39C2837.58 1284.32 2848.28 1309.3 2991.06 1473.49C3021.4 1509.18 3057.09 1577 3069.59 1625.18C3082.08 1675.15 3107.07 1751.89 3124.91 1796.51C3133.83 1820.28 3146.24 1834.24 3157.31 1846.69C3172.83 1864.14 3185.7 1878.62 3182.58 1912.99C3125.63 2088.2 3130.27 2160.57 3174.89 2165.93C3201.66 2169.49 3214.15 2162.36 3215.93 2139.16C3216.06 2137.83 3216.18 2136.57 3216.3 2135.36L3216.31 2135.26C3217.09 2127.13 3217.65 2121.36 3217.81 2115.58C3217.83 2114.79 3217.85 2113.99 3217.88 2113.17C3218.4 2095.93 3219.07 2073.54 3203.44 1994.6C3195.72 1935.71 3198.09 1901.8 3210.58 1901.8C3221.29 1901.8 3252.1 1883.95 3259.24 1901.8C3264.59 1921.43 3271.26 1999.95 3296.25 2037.43C3339.08 2099.89 3374.77 2139.3 3364.06 2267.79C3353.36 2396.29 3312.31 2389 3249.84 2460.39C3212.36 2503.22 3130.27 2563.9 3067.8 2597.81C3005.34 2629.93 2937.52 2670.98 2917.89 2690.61C2896.47 2710.24 2805.45 2753.07 2712.65 2786.98C2503.84 2863.72 2416.39 2915.47 2332.5 3010.06C2245.05 3106.43 2196.87 3215.29 2114.77 3499.05C2034.46 3777.45 1970.21 3939.85 1875.62 4100.47C1795.31 4234.31 1788.17 4289.64 1841.71 4375.3C1861.34 4409.21 1873.84 4441.33 1868.48 4450.26C1864.91 4457.39 1888.11 4460.96 1922.02 4457.39C1996.98 4448.47 2125.48 4493.09 2196.87 4555.55C2243.27 4593.03 2250.41 4612.66 2250.41 4687.61C2250.41 4808.97 2189.73 4962.44 2120.13 5014.2C2054.09 5064.17 1775.68 5205.15 1640.04 5256.91C1541.88 5296.17 1209.93 5381.83 1161.74 5381.83C1143.89 5381.83 1126.04 5353.28 1111.77 5303.31C1067.15 5137.34 938.651 5058.82 845.846 5144.48C808.367 5181.95 788.735 5185.52 726.271 5176.6C687.007 5171.25 629.897 5156.97 603.126 5146.26C519.277 5130.29 512.707 5163.14 604.911 5183.74C745.903 5255.12 840.492 5363.99 840.492 5453.22C840.492 5483.56 811.937 5504.97 706.639 5553.16C585.279 5608.48 554.939 5615.62 419.302 5615.62C319.358 5615.62 256.893 5606.7 237.262 5592.42C215.845 5574.57 212.276 5574.57 222.984 5590.64C240.831 5622.76 226.554 5619.19 142.672 5576.36C105.327 5550.79 76.2864 5548.84 83.4252 5559.55C97.9991 5610.96 203.352 5631.68 363.976 5653.1L531.738 5674.51L488.905 5758.39C422.871 5885.1 417.517 6020.73 471.058 6188.49C538.877 6402.64 606.695 6490.09 863.693 6711.38C890.464 6734.59 1229.56 6738.15 3701.37 6738.15H6506.93L6606.87 6661.42C6828.18 6495.44 6981.66 6279.5 7008.43 6099.26C7020.92 6013.59 6994.15 5890.45 6940.61 5779.81C6919.2 5736.98 6906.7 5699.5 6912.06 5694.14C6917.41 5688.79 6987.01 5672.73 7067.33 5658.45C7224.38 5631.68 7419.91 5561.17 7435.97 5520.13C7448.46 5486.22 7440.33 5481.77 7317.18 5544.24L7310.64 5547.41L7310.62 5547.42C7253.21 5575.26 7187.7 5607.03 7161.92 5615.62L7115.51 5633.47C7101.39 5641.41 7081.6 5639.31 7058.72 5636.89C7035.33 5634.42 7008.73 5631.6 6981.66 5638.82C6892.43 5663.81 6881.72 5662.02 6821.04 5629.9C6785.34 5612.05 6738.94 5595.99 6715.74 5595.99C6626.5 5595.99 6515.85 5506.76 6515.85 5435.37C6515.85 5380.05 6571.08 5320.34 6678.16 5250.74C6719.21 5223.97 6744.29 5194.45 6740.73 5189.09C6735.37 5183.74 6709.71 5189.09 6684.73 5205.16L6683 5206.31C6641.71 5233.85 6634.58 5238.6 6572.96 5205.16C6465.88 5148.05 6342.74 5114.14 6362.37 5148.05C6367.72 5155.19 6357.01 5176.6 6337.38 5194.45C6317.75 5212.29 6292.76 5260.48 6280.27 5299.74C6269.56 5340.79 6257.07 5360.42 6253.5 5344.36C6249.93 5330.08 6257.07 5292.6 6267.78 5264.05C6280.27 5235.49 6290.98 5208.72 6290.98 5203.37C6298.12 5173.03 6324.89 5151.62 6342.74 5162.32C6355.23 5169.46 6353.44 5160.54 6339.17 5142.69C6315.97 5115.92 6310.61 5119.49 6264.21 5196.23C6237.44 5242.63 6210.67 5308.66 6203.53 5340.79C6194.61 5394.33 6189.25 5397.9 6135.71 5387.19C5951.89 5353.28 5473.59 5167.68 5327.24 5074.88C5223.73 5008.85 5170.19 4892.84 5170.19 4737.58C5171.97 4601.95 5202.31 4525.21 5268.34 4494.87C5332.59 4464.53 5534.26 4437.76 5534.26 4459.18C5534.26 4468.1 5559.25 4428.84 5587.81 4373.52C5618.15 4318.19 5641.35 4264.65 5641.35 4255.73C5641.35 4248.59 5609.22 4191.48 5569.96 4130.81C5484.29 3996.96 5418.26 3829.2 5320.1 3490.12C5186.25 3026.12 5102.37 2929.75 4713.3 2803.04C4629.42 2774.49 4533.05 2731.65 4499.14 2704.88C4465.23 2678.12 4417.04 2645.99 4393.84 2633.5C4334.94 2603.16 4160.04 2458.61 4120.78 2410.42C4101.15 2385.44 4049.39 2360.27 4042.25 2285.31C4031.54 2165.74 4057.93 2096.32 4122.18 1985.68C4165.98 1834.15 4197.52 1901.8 4188.6 1951.77C4181.46 1987.46 4185.03 2007.09 4195.74 1999.96C4195.74 1999.96 4185.03 2013.98 4185.03 2024.69C4185.03 2028.2 4187.52 2030.1 4189.56 2031.64C4192.7 2034.03 4194.76 2035.59 4185.03 2041C4174.91 2046.48 4168.08 2055.94 4164.21 2067.29C4162.44 2072.48 4161.28 2078.05 4160.72 2083.82C4157.26 2118.93 4175.45 2161.24 4208.23 2165.93C4261.77 2173.06 4272.48 2123.09 4243.92 1998.17C4222.51 1905.37 4222.51 1887.52 4245.71 1851.83C4270.69 1814.35 4311.74 1662.66 4333.16 1530.6C4340.3 1485.98 4356.36 1466.35 4399.19 1448.5C4470.58 1418.16 4484.86 1398.53 4531.26 1268.26C4559.82 1184.38 4566.95 1130.84 4561.6 1018.41C4558.03 939.883 4554.46 857.79 4554.46 834.59C4550.89 761.42 4461.66 577.603 4399.19 518.71C4338.51 461.602 4338.51 461.602 4338.51 504.433C4338.51 554.403 4279.62 691.819 4245.71 718.589C4210.01 747.143 4102.93 725.728 4094.01 686.466C4088.65 666.835 4077.95 652.558 4069.02 652.558C4060.1 652.558 4058.31 673.973 4063.67 700.743L4076.16 750.712L4036.9 715.02C4002.99 686.466 3997.63 666.835 4006.56 615.08C4017.27 545.48 4001.2 527.634 3928.03 527.634ZM3981.57 563.326C4001.2 575.819 3992.28 581.172 3945.88 581.172C3899.48 581.172 3890.55 575.819 3910.18 563.326C3924.46 554.403 3940.52 545.48 3945.88 545.48C3951.23 545.48 3967.29 554.403 3981.57 563.326ZM3713.87 673.973C3713.87 698.958 3719.22 734.651 3724.57 750.712C3738.85 786.405 3824.52 831.021 3881.63 831.021C3942.31 831.021 4069.02 882.775 4111.86 925.606C4131.49 945.237 4142.2 973.791 4136.84 993.422C4131.49 1011.27 4135.06 1032.68 4145.76 1038.04C4163.61 1048.75 4158.26 1104.07 4133.27 1179.02C4124.35 1207.58 4124.35 1209.36 4138.63 1187.95C4167.18 1148.69 4195.74 1239.7 4195.74 1373.55C4195.74 1489.55 4188.6 1507.4 4069.02 1668.01C4047.61 1696.57 4022.62 1762.6 4015.48 1814.35C4010.59 1931.78 4003.54 1996.87 3924.46 2101.68C3910.18 2124.88 3878.06 2153.43 3854.86 2164.14C3794.18 2196.26 3580.01 2192.7 3517.55 2160.57C3506.7 2155.15 3496.87 2148.48 3488.27 2141C3400.67 2074.79 3380.77 1979.67 3351.57 1816.14C3326.59 1744.75 3280.18 1651.95 3248.06 1610.91C3198.09 1550.23 3187.38 1519.89 3187.38 1452.07C3187.38 1403.89 3182.02 1366.41 3174.89 1366.41C3155.25 1366.41 3157.04 1216.5 3176.67 1195.09C3185.59 1186.16 3196.3 1146.9 3198.09 1107.64C3201.66 1068.38 3214.15 1025.55 3226.64 1013.05C3239.13 1000.56 3249.84 975.576 3249.84 957.73C3249.84 918.468 3412.25 838.159 3522.9 823.882C3662.11 806.036 3678.17 791.759 3678.17 673.973C3678.17 602.588 3683.53 579.388 3696.02 599.018C3704.94 613.296 3713.87 647.204 3713.87 673.973ZM3187.38 638.281C3167.75 702.528 3142.76 718.589 3142.76 668.619C3142.76 620.434 3155.25 599.018 3182.02 599.018C3190.95 599.018 3192.73 616.865 3187.38 638.281ZM3149.9 822.098C3132.05 848.867 3108.85 907.76 3096.36 952.376C3078.51 1016.62 3073.16 1025.55 3073.16 986.284C3071.37 936.314 3155.25 748.928 3171.32 764.989C3176.67 770.343 3167.75 795.328 3149.9 822.098ZM4258.2 848.867C4283.19 897.052 4302.82 955.945 4301.03 977.361C4301.03 1005.92 4293.9 996.992 4277.83 947.022C4265.34 907.76 4242.14 848.867 4224.29 816.744C4208.23 786.405 4199.31 759.635 4204.66 759.635C4208.23 759.635 4233.22 798.897 4258.2 848.867ZM3066.02 1137.98C3062.45 1161.18 3058.88 1146.9 3058.88 1107.64C3057.09 1068.38 3060.66 1050.53 3066.02 1066.59C3069.59 1084.44 3069.59 1116.56 3066.02 1137.98ZM4302.82 1129.05C4292.67 1144.73 4287.77 1152.31 4286.63 1151.78C4285.57 1151.29 4287.8 1143.71 4292.11 1129.05C4297.46 1111.21 4304.6 1082.65 4304.6 1066.59C4306.39 1039.82 4308.17 1039.82 4315.31 1066.59C4318.88 1084.44 4313.53 1111.21 4302.82 1129.05ZM3465.79 2469.31C3492.56 2515.71 3526.47 2594.24 3542.53 2645.99C3574.66 2742.36 3654.97 2829.81 3712.08 2829.81C3763.84 2829.81 3828.09 2740.58 3899.48 2571.04C3936.95 2481.81 3970.86 2408.64 3972.65 2405.07C3976.22 2401.5 4006.56 2430.05 4042.25 2467.53C4094.01 2522.85 4106.5 2549.62 4106.5 2610.3C4106.5 2654.92 4095.79 2695.96 4077.95 2712.02C4063.67 2728.09 4056.53 2740.58 4063.67 2740.58C4070.81 2740.58 4045.82 2765.56 4004.77 2794.12C3963.72 2824.46 3926.25 2860.15 3920.89 2876.21C3913.75 2892.27 3897.69 2901.19 3883.41 2894.06C3865.57 2888.7 3856.64 2895.84 3854.86 2915.47C3854.86 2933.32 3849.5 2936.89 3844.15 2922.61C3840.58 2911.9 3828.09 2901.19 3819.16 2901.19C3808.46 2901.19 3804.89 2908.33 3810.24 2917.26C3822.73 2938.67 3758.48 2954.73 3669.25 2952.95C3610.35 2952.95 3605 2949.38 3633.55 2935.1C3662.11 2922.61 3656.76 2920.83 3610.35 2927.96C3569.31 2933.32 3555.03 2929.75 3563.95 2915.47C3572.87 2902.98 3567.52 2899.41 3547.89 2906.55C3531.83 2911.9 3515.76 2904.76 3510.41 2888.7C3503.27 2872.64 3487.21 2865.5 3471.15 2872.64C3456.87 2877.99 3449.73 2876.21 3455.08 2865.5C3460.44 2856.58 3449.73 2842.3 3431.88 2831.59C3414.04 2822.67 3383.7 2786.98 3365.85 2751.29C3348 2717.38 3328.37 2692.39 3323.02 2695.96C3315.88 2699.53 3312.31 2672.76 3312.31 2637.07C3312.31 2578.18 3387.27 2385.44 3410.47 2383.65C3415.82 2383.65 3440.81 2421.13 3465.79 2469.31ZM4274.26 2863.72C4292.11 2936.89 4308.17 3074.3 4313.53 3167.1L4320.67 3338.43L4259.99 3388.4C4226.08 3415.17 4170.75 3449.08 4136.84 3463.35L4074.38 3488.34L4099.36 3368.77C4111.86 3302.74 4138.63 3172.46 4158.26 3079.66C4177.89 2986.86 4195.74 2849.44 4195.74 2776.27C4197.52 2653.13 4199.31 2645.99 4220.72 2687.04C4235 2712.02 4258.2 2790.55 4274.26 2863.72ZM3267.69 3263.47C3296.25 3381.26 3319.45 3481.2 3315.88 3482.98C3305.17 3493.69 3165.96 3413.38 3119.56 3368.77C3069.59 3322.37 3067.8 3317.01 3078.51 3195.66C3089.22 3076.09 3121.34 2915.47 3164.18 2767.35C3185.48 2698.12 3185.59 2699.51 3199.64 2869.86L3199.87 2872.64C3208.79 2970.79 3239.13 3145.69 3267.69 3263.47ZM3364.06 2797.69C3348 2822.67 3442.59 2919.04 3512.19 2947.59C3544.32 2961.87 3590.72 2972.58 3613.92 2972.58C3647.83 2972.58 3662.11 2985.07 3671.03 3017.2C3678.17 3045.75 3694.23 3061.81 3715.65 3061.81C3737.07 3061.81 3753.13 3045.75 3760.27 3017.2C3767.41 2988.64 3783.47 2972.58 3806.67 2972.58C3826.3 2972.58 3858.43 2963.66 3879.84 2952.95C3931.6 2926.18 4035.11 2828.02 4026.19 2811.96C4022.62 2806.61 4035.11 2799.47 4054.74 2799.47C4072.59 2797.69 4088.65 2799.47 4088.65 2804.82C4088.65 2820.89 4029.76 2908.33 3965.51 2990.43C3929.82 3033.26 3901.26 3077.87 3901.26 3086.8C3901.26 3095.72 3856.64 3131.41 3803.1 3163.54C3729.93 3208.15 3715.65 3222.43 3744.21 3222.43C3810.24 3222.43 3995.85 3029.69 4099.36 2854.79C4122.56 2815.53 4067.24 3188.52 4020.84 3374.12C3992.28 3495.48 3988.71 3499.05 3919.11 3524.03C3828.09 3556.15 3567.52 3556.15 3472.93 3524.03L3401.54 3499.05L3362.28 3329.51L3362.28 3329.5C3341.51 3241.99 3329.37 3190.84 3325.87 3160.31L3309.82 3085.75C3293.94 3066.97 3286.68 3021.08 3271.26 2906.55C3260.55 2824.46 3260.55 2794.12 3276.61 2786.98C3289.11 2783.41 3298.03 2792.33 3296.25 2806.61C3296.25 2822.67 3305.17 2838.73 3319.45 2844.09C3337.29 2849.44 3340.86 2844.09 3333.72 2820.89C3319.45 2785.19 3333.72 2753.07 3358.71 2769.13C3367.63 2774.49 3371.2 2786.98 3364.06 2797.69ZM3737.07 3665.02C3751.35 3695.36 3726.68 3806.72 3710.62 3822.78C3674.93 3858.47 3678.17 3718.56 3690.67 3641.82C3697.8 3602.56 3704.94 3582.92 3708.51 3597.2C3709.14 3598.88 3709.85 3600.79 3710.62 3602.88C3716.41 3618.53 3726.05 3644.55 3737.07 3665.02ZM3124.91 3675.73C3124.91 3702.49 3137.41 3722.13 3157.04 3727.48C3183.81 3734.62 3183.81 3736.4 3157.04 3738.19C3077.45 3855.63 3057.09 3682.86 3087.43 3672.16C3098.14 3668.59 3103.5 3657.88 3096.36 3648.96C3091 3640.03 3096.36 3632.89 3105.28 3632.89C3115.99 3632.89 3124.91 3652.52 3124.91 3675.73ZM4192.27 3864.9C4176.2 3880.96 4010.13 3898.8 4002.99 3893.45C3997.63 3886.31 4092.79 3767.01 4107.06 3758.08C4149.9 3731.31 4224.39 3834.56 4192.27 3864.9ZM3442.59 4455.61C3465.79 4453.82 3524.69 4471.67 3572.87 4491.3C3622.08 4508.26 3644.88 4524.88 3673.18 4565.23C3673.44 4565.49 3673.68 4565.75 3673.93 4566C3676.3 4568.42 3678.17 4570.34 3678.17 4573.4C3678.17 4600.16 3613.92 4651.92 3601.43 4637.64C3594.29 4632.29 3588.94 4659.06 3588.94 4698.32C3588.94 4789.34 3653.19 4891.06 3712.08 4891.06C3767.41 4891.06 3815.59 4823.24 3828.09 4730.44C3835.23 4691.18 3833.44 4669.77 3828.09 4682.26C3820.95 4696.53 3799.53 4682.26 3763.84 4637.64C3721.01 4582.32 3719.18 4571.8 3738.85 4564.47C3744.29 4520.85 3770.57 4499.97 3819.45 4487.93C3853.36 4477.97 3897.89 4471.67 3945.88 4471.67C4185.03 4471.67 4301.03 4603.73 4256.42 4825.03C4245.71 4876.78 4240.35 4878.57 4113.64 4898.2C3972.65 4919.61 3269.47 4924.97 3157.04 4907.12L3089.22 4894.63V4771.49C3089.22 4703.67 3096.36 4632.29 3107.07 4614.44C3146.33 4539.49 3317.66 4459.18 3442.59 4455.61ZM3687.1 4632.29C3681.74 4641.21 3685.31 4650.13 3697.8 4650.13C3731.71 4650.13 3706.73 4667.98 3660.33 4676.9C3641.37 4680.35 3631.57 4682.13 3629.91 4679.24C3628.13 4676.14 3635.71 4667.67 3651.4 4650.13C3685.31 4612.66 3704.94 4601.95 3687.1 4632.29ZM2398.54 4999.92C2453.86 5133.77 2500.27 5185.52 2562.73 5185.52C2659.11 5185.52 2662.68 5196.23 2612.7 5333.65C2582.36 5417.53 2544.88 5481.77 2505.62 5519.25C2450.3 5571 2439.59 5574.57 2389.62 5556.73C2357.49 5544.24 2268.26 5542.45 2162.96 5547.8C2045.17 5554.94 1950.58 5551.37 1857.77 5533.53C1784.6 5517.47 1627.55 5492.48 1509.76 5474.63L1295.59 5444.3L1482.99 5394.33C1647.18 5349.71 2063.01 5174.82 2175.45 5103.43C2198.65 5087.37 2237.92 5028.48 2262.9 4969.58C2287.89 4910.69 2318.23 4866.07 2327.15 4869.64C2337.86 4873.21 2369.98 4930.32 2398.54 4999.92ZM5400.41 5212.29C5498.57 5260.48 5689.53 5337.22 5825.17 5383.62L6071.46 5465.71L5860.87 5476.42C5744.86 5483.56 5607.44 5501.4 5555.68 5515.68C5498.57 5533.53 5437.89 5538.88 5398.63 5531.74C5362.93 5524.6 5257.64 5533.53 5154.12 5551.37L4972.08 5581.71L4906.05 5540.67C4854.29 5506.76 4831.09 5472.85 4795.4 5374.7C4770.41 5306.88 4752.56 5246.2 4757.92 5242.63C4763.27 5237.28 4800.75 5230.14 4841.8 5226.57C4947.1 5215.86 5030.98 5176.6 5052.4 5128.42C5061.32 5105.22 5080.95 5055.25 5097.01 5015.98L5125.57 4944.6L5173.75 5033.83C5218.37 5115.92 5236.22 5130.2 5400.41 5212.29ZM1026.1 5189.09L1060.01 5247.99L1013.61 5198.02C963.636 5146.26 956.498 5131.99 979.699 5131.99C986.838 5131.99 1008.25 5158.75 1026.1 5189.09ZM929.727 5189.09C929.727 5198.02 936.866 5201.59 947.574 5194.45C970.775 5180.17 1060.01 5319.37 1049.3 5358.63C1043.95 5383.62 1036.81 5378.26 1015.39 5331.86C1001.12 5299.74 983.268 5280.11 976.129 5287.25C968.991 5294.39 968.991 5287.25 974.345 5271.19C981.483 5255.12 976.129 5237.28 963.636 5228.36C949.359 5219.43 945.789 5223 954.713 5240.85C961.852 5255.12 952.928 5247.99 933.296 5226.57C913.665 5205.16 894.033 5192.66 886.894 5198.02C881.54 5205.16 876.186 5196.23 876.186 5180.17C876.186 5162.32 885.109 5155.19 902.957 5160.54C917.234 5167.68 929.727 5178.39 929.727 5189.09ZM6462.31 5189.09C6462.31 5199.8 6456.96 5203.37 6451.6 5198.02C6433.76 5180.17 6371.29 5269.4 6351.66 5342.57C6340.95 5378.26 6328.46 5397.9 6324.89 5385.4C6310.61 5346.14 6335.6 5280.11 6383.78 5223C6431.97 5165.89 6462.31 5151.62 6462.31 5189.09ZM838.707 5215.86C833.353 5251.56 842.277 5274.76 860.124 5269.4C870.832 5267.62 883.325 5281.89 886.894 5301.53C888.679 5321.16 901.172 5339 911.88 5342.57C920.804 5346.14 924.373 5356.85 919.019 5365.77C913.665 5374.7 886.894 5349.71 858.339 5306.88C829.784 5265.83 811.937 5224.79 815.506 5217.65C826.214 5199.8 840.492 5199.8 838.707 5215.86ZM6515.85 5255.12C6515.85 5265.83 6506.93 5278.32 6498.01 5283.68C6487.3 5289.03 6464.1 5324.73 6442.68 5360.42C6410.55 5421.1 6408.77 5422.88 6417.69 5374.7C6433.76 5296.17 6515.85 5198.02 6515.85 5255.12ZM3506.84 6122.46C3553.24 6136.73 3662.11 6158.15 3747.78 6167.07C3854.86 6181.35 3924.46 6200.98 3979.79 6233.1L4060.1 6279.5L3917.32 6331.26C3812.02 6368.74 3722.79 6386.58 3562.17 6399.07C3532.42 6401.44 3505.76 6403.66 3481.89 6405.65L3481.88 6405.65C3348.04 6416.81 3301.66 6420.68 3288.8 6401.76C3281.98 6391.73 3284.59 6375.3 3288.57 6350.15C3289.89 6341.86 3291.35 6332.61 3292.68 6322.33C3298.03 6272.37 3312.31 6199.2 3321.23 6161.72C3344.43 6084.98 3367.63 6079.62 3506.84 6122.46ZM4213.58 6418.71C4271.11 6400.56 4397.41 6438.34 4624.07 6415.14C4791.83 6399.07 4822.17 6399.07 4909.62 6429.41C4963.16 6447.26 4985.12 6466.26 5002.42 6475.81C5024.27 6480.21 5032.65 6496.08 5038.76 6507.64C5043.73 6517.06 5047.2 6523.63 5055.21 6518.83C5062.35 6515.26 5070.24 6531.14 5070.24 6541.84C5070.24 6556.12 5057.75 6557.91 5039.9 6550.77C5022.05 6543.63 4964.94 6525.78 4913.19 6511.51C4820.38 6482.95 4818.6 6482.95 4699.02 6538.28C4438.46 6657.85 4322.45 6677.48 4188.6 6622.15C4108.29 6588.25 4029.76 6588.25 3917.32 6622.15C3808.46 6654.28 3462.22 6670.34 3385.48 6645.35C3370.96 6641.08 3355.21 6635.99 3341.17 6631.46C3325.88 6626.51 3312.61 6622.23 3305.17 6620.37C3287.32 6615.01 3301.6 6590.03 3355.14 6534.71C3426.53 6461.54 3437.24 6457.97 3558.6 6447.26C3599.19 6443.92 3663.87 6447.86 3738.12 6452.39C3902.14 6462.38 4112.84 6475.22 4213.58 6418.71Z" fill="#353531"/>
<path d="M6984.79 5290.17C6944.88 5405.58 6882.6 5447.55 6667.21 5384.34" stroke="#353531" stroke-width="27.6171" stroke-linecap="round"/>
<path fill-rule="evenodd" clip-rule="evenodd" d="M3885.15 1245.33C3924.41 1239.97 3960.1 1232.83 3963.67 1229.27C4001.15 1193.57 4179.62 1256.03 4179.62 1304.22C4179.62 1364.9 4129.65 1429.14 4051.12 1470.19C4003.22 1484.94 3976.13 1490.47 3926.19 1480.9C3904.78 1473.76 3870.87 1470.19 3854.81 1471.98C3836.96 1473.76 3822.68 1464.84 3822.68 1452.34C3822.68 1439.85 3817.33 1436.28 3810.19 1441.64C3803.88 1447.95 3782.22 1437.52 3758.79 1416.52C3755.71 1413.77 3752.61 1410.83 3749.51 1407.73C3703.11 1363.11 3701.32 1363.11 3676.34 1397.02C3663.84 1416.65 3624.58 1439.85 3590.67 1448.78C3554.98 1457.7 3528.21 1477.33 3528.21 1491.61C3528.21 1530.87 3380.07 1536.22 3365.8 1498.74C3358.66 1482.68 3335.46 1461.27 3312.26 1452.34C3287.27 1443.42 3269.42 1422.01 3269.42 1400.59C3269.42 1380.96 3262.28 1364.9 3251.58 1364.9C3215.88 1364.9 3235.51 1293.51 3276.56 1264.96C3355.09 1214.99 3644.21 1245.33 3692.4 1309.57C3706.68 1327.42 3713.81 1330.99 3715.6 1314.93C3715.6 1288.16 3786.99 1259.6 3885.15 1245.33ZM4056.48 1359.54C4092.17 1348.84 4093.96 1343.48 4072.54 1329.2C4058.26 1320.28 4042.2 1313.14 4036.85 1313.14C3988.66 1323.85 3965.46 1334.56 3965.46 1347.05C3965.46 1354.19 3947.61 1364.9 3926.19 1370.25C3872.65 1384.53 3888.72 1393.45 3988.66 1404.16C4058.26 1413.08 4068.97 1409.51 4043.98 1391.67C4017.21 1372.04 4017.21 1368.47 4056.48 1359.54ZM3481.8 1402.37C3522.85 1391.67 3522.85 1389.88 3494.3 1359.54C3460.39 1327.42 3376.51 1316.71 3376.51 1347.05C3376.51 1355.97 3385.43 1364.9 3397.92 1364.9C3408.63 1364.9 3403.28 1377.39 3383.64 1391.67C3351.52 1416.65 3351.52 1416.65 3394.35 1416.65C3419.34 1414.87 3458.6 1409.51 3481.8 1402.37Z" fill="#353531"/>
<path d="M3758.79 1416.52C3782.22 1437.52 3803.88 1447.95 3810.19 1441.64C3817.33 1436.28 3822.68 1439.85 3822.68 1452.34C3822.68 1464.84 3836.96 1473.76 3854.81 1471.98C3828.36 1477.52 3803.64 1458.76 3758.79 1416.52Z" fill="#353531"/>
<path d="M3572.87 1684.05C3531.82 1698.33 3556.81 1741.16 3626.41 1776.85C3708.51 1819.68 3744.2 1814.33 3804.88 1748.3C3838.79 1710.82 3842.36 1700.11 3820.94 1687.62C3795.96 1673.34 3615.7 1669.77 3572.87 1684.05Z" fill="#353531"/>
<path fill-rule="evenodd" clip-rule="evenodd" d="M3473.76 1907.94C3461.87 1897.2 3467.06 1877.52 3482.7 1874.04L3524.25 1864.81C3616.24 1836.34 3737.06 1826.82 3838.79 1871.44C3906.61 1901.78 3916.3 1891.09 3898.78 1919.56C3879.07 1934.89 3835.22 1948.18 3820.94 1964.24C3801.4 1986.79 3796.97 2004.92 3794.75 2014C3794.33 2015.7 3793.99 2017.09 3793.65 2018.12C3784.49 2038.15 3767.96 2047.5 3732.92 2051.28C3710.41 2051.95 3674.6 2053.47 3674.6 2053.47C3647.12 2050.84 3625.47 2047.49 3608.42 2043.89C3563.93 2034.52 3550.24 1990.19 3522.72 1954.01C3519.17 1949.34 3515.09 1944.94 3510.41 1941.04L3473.76 1907.94Z" fill="#353531"/>
<path d="M3732.92 2051.28C3710.41 2051.95 3674.6 2053.47 3674.6 2053.47C3698.3 2053.54 3717.42 2052.95 3732.92 2051.28Z" fill="#353531"/>
<path d="M3355.14 2915.47C3426.53 3017.2 3638.91 3222.43 3672.82 3222.43C3701.37 3220.65 3701.37 3218.86 3669.25 3202.8C3622.84 3176.03 3421.17 2967.23 3426.53 2949.38C3427.55 2944.26 3425.64 2941.49 3421.79 2941.41C3418.94 2941.35 3415.03 2942.77 3410.46 2945.81C3392.62 2956.52 3383.69 2929.75 3392.62 2892.27C3394.4 2881.57 3389.05 2879.78 3381.91 2886.92C3374.77 2894.06 3356.92 2890.49 3340.86 2878C3326.58 2867.29 3331.94 2883.35 3355.14 2915.47Z" fill="#353531"/>
<path d="M3421.79 2941.41C3418.94 2941.35 3415.03 2942.77 3410.46 2945.81C3392.62 2956.52 3383.69 2929.75 3392.62 2892.27L3421.79 2941.41Z" fill="#353531"/>
<path d="M3672.81 3108.21C3665.67 3115.35 3660.32 3136.77 3660.32 3154.61C3660.32 3181.38 3671.03 3188.52 3710.29 3183.17C3744.2 3179.6 3758.48 3167.1 3758.48 3142.12C3758.48 3106.43 3699.58 3083.23 3672.81 3108.21Z" fill="#353531"/>
<path d="M3662.11 3299.17C3633.55 3370.55 3638.91 3481.2 3669.25 3507.97C3704.94 3538.31 3765.62 3513.32 3778.11 3461.57C3792.39 3402.68 3772.76 3302.74 3740.64 3275.97C3719.22 3258.12 3713.86 3258.12 3713.86 3277.75C3713.86 3297.38 3710.3 3297.38 3696.02 3275.97C3683.52 3256.34 3676.39 3259.91 3662.11 3299.17Z" fill="#353531"/>
<path d="M4157.39 252.738C4152.03 297.354 4148.46 334.831 4148.46 336.616C4150.25 336.616 4166.31 316.985 4184.16 292C4203.79 267.015 4209.14 252.738 4198.43 259.877C4187.73 267.015 4177.02 252.738 4173.45 222.399C4168.09 183.138 4164.53 190.276 4157.39 252.738Z" fill="#353531"/>
<path d="M3552.67 156.589C3536.53 198.525 3523.86 233.978 3523.43 235.708C3525.16 236.146 3545.55 221.06 3568.98 201.223C3594.15 181.823 3602.85 169.298 3590.71 173.588C3578.58 177.879 3571.71 161.41 3575.7 131.124C3580.15 91.749 3574.93 97.7925 3552.67 156.589Z" fill="#353531"/>
<path d="M3230.2 245.641C3224.84 283.119 3226.63 313.457 3233.77 313.457C3256.97 313.457 3262.32 288.472 3249.83 233.149L3239.12 179.61L3230.2 245.641Z" fill="#353531"/>
<path d="M3290.88 411.606C3274.82 429.452 3274.82 440.16 3287.32 447.298C3312.3 463.36 3326.58 447.298 3317.66 415.175C3314.09 391.975 3308.73 391.975 3290.88 411.606Z" fill="#353531"/>
<path d="M3133.83 420.53C3128.47 431.238 3135.61 433.023 3149.89 427.669C3169.52 420.53 3178.45 427.669 3178.45 447.3C3178.45 472.284 3183.8 474.069 3205.22 456.223C3219.49 443.73 3226.63 427.669 3221.28 418.745C3208.79 397.33 3148.11 399.115 3133.83 420.53Z" fill="#353531"/>
<path d="M3707.82 285.187C3702.46 295.895 3709.6 297.68 3723.88 292.326C3743.51 285.187 3752.43 292.326 3752.43 311.957C3752.43 336.942 3757.79 338.726 3779.2 320.88C3793.48 308.387 3800.62 292.326 3795.27 283.403C3782.77 261.987 3722.09 263.772 3707.82 285.187Z" fill="#353531"/>
<path d="M4094.01 461.581C4092.22 484.781 4097.57 490.135 4111.85 477.643C4124.35 466.935 4152.9 456.227 4177.89 452.658C4215.36 447.304 4211.8 443.735 4158.25 436.596C4106.5 429.457 4095.79 434.811 4094.01 461.581Z" fill="#353531"/>
<path d="M3513.76 321.304C3492.45 330.635 3490.24 337.877 3507.97 344.606C3523.3 350.599 3546.17 370.767 3561.07 391.142C3583.41 421.703 3584.89 416.875 3566.02 366.264C3547.99 317.229 3538.23 310.295 3513.76 321.304Z" fill="#353531"/>
<path d="M3231.99 477.637C3231.99 493.699 3217.71 511.545 3201.65 515.114C3183.8 520.468 3194.51 524.037 3226.63 525.822C3256.97 525.822 3289.1 518.683 3296.24 506.191C3303.38 495.483 3301.59 491.914 3289.1 499.052C3278.39 504.406 3262.33 495.483 3251.62 479.422C3235.56 450.867 3233.77 450.867 3231.99 477.637Z" fill="#353531"/>
<path d="M3692.41 331.874C3692.41 347.936 3678.13 365.782 3662.07 369.352C3644.23 374.705 3654.93 378.275 3687.06 380.059C3717.4 380.059 3749.52 372.921 3756.66 360.428C3763.8 349.721 3762.02 346.151 3749.52 353.29C3738.81 358.644 3722.75 349.721 3712.04 333.659C3695.98 305.105 3694.2 305.105 3692.41 331.874Z" fill="#353531"/>
<path d="M3335.5 550.812C3276.61 598.997 3271.26 616.843 3321.23 604.351C3342.64 598.997 3353.35 590.074 3348 584.72C3342.64 579.366 3351.57 559.735 3369.41 541.889C3408.68 499.058 3394.4 502.627 3335.5 550.812Z" fill="#353531"/>
<path d="M3867.26 219.944C3843.31 147.717 3828.56 136.337 3822.36 187.47C3819.71 209.384 3824.21 222.575 3831.13 219.489C3838.04 216.402 3853.18 231.754 3863.47 254.801C3889.44 306.78 3891.21 292.171 3867.26 219.944Z" fill="#353531"/>
<path d="M3666.73 219.358C3607.83 267.543 3602.48 285.39 3652.45 272.897C3673.87 267.543 3684.57 258.62 3679.22 253.266C3673.87 247.912 3682.79 228.281 3700.64 210.435C3739.9 167.604 3725.62 171.173 3666.73 219.358Z" fill="#353531"/>
<path d="M4090.43 529.395C4088.65 563.303 4136.83 609.704 4154.68 591.858C4160.04 586.504 4156.47 581.15 4143.97 581.15C4133.26 581.15 4115.42 563.303 4106.49 540.103C4095.79 513.334 4090.43 509.765 4090.43 529.395Z" fill="#353531"/>
<path d="M3445.33 1834.7C3416.41 1852.49 3405.6 1918.51 3430.43 1923.06C3437.87 1924.42 3445.93 1916.7 3438.83 1906.42C3432.75 1897.61 3437.95 1878.76 3451.97 1858.24C3467.92 1834.22 3461.49 1823.55 3445.33 1834.7Z" fill="#353531"/>
<path d="M3956.08 1934.56C3972.89 1905.06 3950.66 1841.97 3926.7 1849.91C3919.51 1852.29 3916.16 1862.93 3927.32 1868.54C3936.89 1873.34 3941.38 1892.37 3938.94 1917.11C3936.5 1945.83 3947.26 1952.11 3956.08 1934.56Z" fill="#353531"/>
<path d="M3714.12 406.508C3742.4 425.304 3806.86 407.446 3800.59 383C3798.7 375.667 3792.28 376.014 3785.92 386.767C3780.47 395.984 3756.02 402.261 3731.51 398.133C3703.02 393.724 3697.22 396.516 3714.12 406.508Z" fill="#353531"/>
<path d="M1892.54 4451.35C1886.64 4532.75 1868.3 4583.09 1844.54 4635.63C1829.28 4669.36 1801.09 4695.45 1767.13 4710.19C1552.68 4803.23 1374.39 4918.97 1033.98 5167.52" stroke="#353531" stroke-width="27.6171"/>
<path d="M567.463 5156.57L368.153 5097.43L89.1388 5056.66C86.3912 5056.26 84.1174 5058.79 84.874 5061.46C117.022 5174.98 302.974 5176.74 335.3 5204.75C368.153 5233.22 267.815 5386.16 210.458 5439.09C153.1 5492.02 -12.5615 5397.79 17.7191 5463.19L111.898 5574.88" stroke="#353531" stroke-width="27.6171"/>
<path d="M5521.73 4425.07C5552.24 4510 5578.05 4578.31 5601.7 4650.04C5610.98 4678.17 5631.57 4701.26 5658.41 4713.81C5920.27 4836.26 6065.05 4965.13 6310.2 5145.62" stroke="#353531" stroke-width="27.6171"/>
<path d="M6708.82 5209.13C6959.08 5122.9 7047.09 5120.25 7172.23 5122.77C7184.38 5123.01 7188.34 5139.34 7177.72 5145.22C7074.32 5202.45 7020.43 5237.97 6985.43 5284.44C6981.36 5289.84 6983.09 5297.49 6988.81 5301.09C7067.36 5350.65 7100.9 5395.45 7150.54 5474.75C7153.51 5479.49 7159.39 5481.53 7164.66 5479.61L7335.17 5417.42C7339.25 5415.93 7342.18 5412.28 7342.91 5408C7359.28 5311.73 7410.4 5286.2 7529.76 5274.6C7539.21 5273.68 7545.7 5283.81 7541.01 5292.07L7407.5 5526.7" stroke="#353531" stroke-width="27.6171"/>
<path d="M341.872 5222.27C377.901 5361.46 444.812 5419.38 589.366 5395.29" stroke="#353531" stroke-width="27.6171" stroke-linecap="round"/>
<path d="M2994.22 533.214C3001.66 404.347 3056.07 361.711 3147.54 350.965M3147.54 350.965C3213.57 343.208 3302.79 345.838 3404.19 350.135C3413.02 350.509 3419.47 341.119 3418.83 332.3C3413.86 263.78 3523.38 185.628 3285.65 205.704C3278.7 206.291 3272.43 200.815 3271.9 193.858C3263.34 79.5337 3141.88 114.843 3192.82 231.175C3195.44 237.173 3193.13 244.31 3187.41 247.493C3134.4 276.98 3132.33 302.621 3147.54 350.965Z" stroke="#353531" stroke-width="27.6171" stroke-linecap="round"/>
<path d="M4360.91 520.07C4351.91 448.825 4325.18 399.544 4286.45 375.428M3971.06 537.591C4093.41 375.61 4212.06 329.117 4286.45 375.428M4117.8 384.285C4085.17 339.279 4067.45 296.459 4060.46 259.448M4286.45 375.428C4367.43 322.63 4416.1 287.8 4304.52 253.437C4299.15 251.783 4295.53 246.632 4295.84 241.022C4302.5 119.252 4257.87 36.3218 4177.61 156.978C4172.97 163.958 4162.68 164.484 4156.83 158.486C4101.31 101.638 4041.55 159.255 4060.46 259.448M4060.46 259.448C3879.17 226.548 3905.35 439.038 3861.54 520.07" stroke="#353531" stroke-width="27.6171"/>
<path d="M3478.26 517.88C3478.26 517.88 3307.42 436.846 3388.46 364.572C3459.55 301.17 3476.79 303.051 3472.48 269.377C3471.44 261.267 3478.01 253.993 3486.07 255.37C3489.37 255.934 3492.61 256.532 3495.78 257.167M3653.47 467.508C3621.72 319.384 3582.08 274.444 3495.78 257.167M3495.78 257.167C3449.67 116.521 3596.53 -86.5915 3808.98 73.2879C3893.38 136.801 3960.25 141.484 3971.06 274.779" stroke="#353531" stroke-width="27.6171"/>
</svg>
