<svg width="10001" height="10001" viewBox="0 0 10001 10001" fill="none" xmlns="http://www.w3.org/2000/svg">
<path d="M4210.49 2152.08L4285.01 2288.69C4286.07 2290.63 4287.65 2292.23 4289.57 2293.32L4464.36 2392.29C4466.97 2393.77 4470.04 2394.2 4472.96 2393.5L4583.73 2366.83C4585.67 2366.37 4587.47 2365.41 4588.94 2364.07L4712.89 2250.81C4713.45 2250.3 4713.95 2249.74 4714.4 2249.14L4786.25 2152.66C4788.8 2149.23 4793.01 2147.45 4797.25 2147.99L5042.76 2179.46C5045.28 2179.79 5047.62 2180.91 5049.46 2182.67L5264.11 2388.9C5267.68 2392.32 5272.99 2393.17 5277.45 2391.03L5326.74 2367.29C5328.34 2366.52 5330.1 2366.12 5331.88 2366.12H5472.95C5477.45 2366.12 5481.56 2363.57 5483.56 2359.53L5570.52 2183.53C5571.67 2181.21 5572.02 2178.59 5571.54 2176.05L5550.71 2067.74C5550.49 2066.64 5550.12 2065.57 5549.61 2064.56L5514.91 1997.1C5512.56 1992.52 5513.43 1986.95 5517.07 1983.32L5575.4 1924.99C5581.28 1919.1 5579.42 1909.15 5571.81 1905.79L5520.21 1883.03C5515.92 1881.14 5513.15 1876.89 5513.15 1872.2V1795.89C5513.15 1793.56 5512.46 1791.27 5511.16 1789.33L5473.36 1732.62C5469.09 1726.22 5459.95 1725.53 5454.77 1731.2L5422 1767.1C5420.05 1769.23 5417.39 1770.58 5414.52 1770.89L5358.93 1776.84C5358.08 1776.93 5357.22 1776.93 5356.36 1776.84L5309.01 1771.57C5303.03 1770.91 5297.5 1774.84 5296.16 1780.71L5272.55 1884.23C5271.14 1890.4 5265.14 1894.37 5258.92 1893.25L5191.21 1881.1C5187.12 1880.36 5183.72 1877.54 5182.24 1873.65L5144.42 1774.13C5143.5 1771.71 5141.82 1769.67 5139.63 1768.3L5004.25 1683.69C5003.31 1683.1 5002.29 1682.65 5001.23 1682.34L4854.81 1640.51C4851.45 1639.55 4847.85 1640.12 4844.95 1642.07L4733.26 1717.2C4730.58 1719.01 4728.75 1721.84 4728.2 1725.04L4697.1 1907.51C4696.53 1910.85 4694.55 1913.79 4691.67 1915.58L4654.9 1938.4C4646.25 1943.77 4635.31 1936.44 4636.99 1926.4L4648.28 1858.64C4649.35 1852.23 4645.05 1846.16 4638.65 1845.03L4493.31 1819.5C4490.01 1818.92 4487.12 1816.97 4485.34 1814.14L4447.55 1754.03C4443.6 1747.75 4434.91 1746.61 4429.48 1751.66L4413.07 1766.9C4410.66 1769.13 4409.28 1772.28 4409.28 1775.57V1858.96C4409.28 1862.52 4407.68 1865.89 4404.93 1868.14L4354.51 1909.21C4351.75 1911.46 4350.15 1914.83 4350.15 1918.39V1970.91C4350.15 1975.52 4347.47 1979.71 4343.29 1981.65L4264.54 2018.14C4261.85 2019.39 4259.72 2021.61 4258.58 2024.35L4209.95 2141.88C4208.58 2145.19 4208.78 2148.93 4210.49 2152.08Z" fill="#EC4E20"/>
<path d="M5406.54 3576.62C5399.4 3612.31 5402.97 3631.94 5413.68 3624.8C5413.68 3624.8 5402.97 3638.83 5402.97 3649.53C5402.97 3653.05 5405.47 3654.94 5407.51 3656.49C5410.64 3658.87 5412.71 3660.44 5402.97 3665.85C5392.86 3671.33 5386.03 3680.79 5382.15 3692.14L5406.54 3576.62Z" fill="#353531"/>
<path d="M4527.77 4710.59C4511.89 4691.82 4504.62 4645.92 4489.2 4531.39L4527.77 4710.59Z" fill="#353531"/>
<path fill-rule="evenodd" clip-rule="evenodd" d="M5145.98 2152.48C5125.83 2152.48 5075.34 2125.71 5068.54 2116.45C5018.84 2098.63 4933.89 2079.9 4842.95 2086.52C4813.31 2112.83 4803.27 2116.43 4803.52 2091.01C4741.16 2100.78 4677.97 2123.9 4623.06 2168.54C4607 2198.88 4601.64 2220.3 4610.56 2214.94C4631.98 2200.66 4683.74 2225.65 4671.24 2243.5C4665.89 2252.42 4642.69 2259.56 4617.7 2259.56C4587.36 2259.56 4574.87 2268.48 4574.87 2295.25C4574.87 2341.65 4548.1 2339.87 4514.19 2291.68C4500.75 2273.2 4493.63 2263.42 4489.87 2264.57C4485.64 2265.87 4485.64 2280.98 4485.64 2313.09V2313.1C4483.85 2373.77 4483.85 2373.77 4457.08 2339.87C4442.8 2320.23 4432.09 2282.76 4437.45 2255.99C4442.8 2214.94 4435.66 2207.8 4382.12 2197.1C4348.21 2191.74 4316.09 2189.96 4310.73 2195.31C4305.38 2200.66 4314.3 2206.02 4332.15 2206.02C4348.21 2206.02 4357.14 2213.16 4351.78 2223.86C4325.01 2268.48 4269.69 2239.93 4235.78 2164.97C4212.58 2116.79 4200.08 2102.51 4200.08 2127.49C4200.08 2147.13 4176.88 2186.39 4146.54 2214.94C4116.2 2243.5 4093 2284.54 4093 2307.74C4093 2330.94 4082.29 2371.99 4068.01 2398.76C4050.17 2434.45 4044.81 2505.84 4050.17 2668.24C4055.52 2909.16 4066.23 2934.15 4209.01 3098.33C4239.35 3134.03 4275.04 3201.84 4287.53 3250.03C4300.03 3300 4325.01 3376.74 4342.86 3421.35C4351.77 3445.13 4364.19 3459.09 4375.26 3471.54C4390.78 3488.99 4403.65 3503.46 4400.52 3537.84C4343.58 3713.05 4348.21 3785.42 4392.83 3790.77C4419.6 3794.34 4432.09 3787.2 4433.88 3764C4434.01 3762.68 4434.13 3761.41 4434.24 3760.2L4434.25 3760.11C4435.04 3751.98 4435.59 3746.21 4435.75 3740.43C4435.77 3739.63 4435.8 3738.83 4435.82 3738.02C4436.34 3720.77 4437.02 3698.38 4421.39 3619.45C4413.66 3560.55 4416.03 3526.65 4428.52 3526.65C4439.23 3526.65 4470.04 3508.8 4477.18 3526.65C4482.54 3546.28 4489.2 3624.8 4514.19 3662.28C4557.02 3724.74 4592.72 3764.14 4582.01 3892.64C4571.3 4021.13 4530.25 4013.85 4467.79 4085.24C4430.31 4128.07 4348.21 4188.74 4285.75 4222.65C4223.28 4254.78 4155.46 4295.82 4135.83 4315.45C4114.42 4335.08 4023.4 4377.92 3930.59 4411.82C3721.78 4488.56 3634.33 4540.32 3550.45 4634.9C3463 4731.27 3414.81 4840.14 3332.72 5123.89C3252.4 5402.29 3188.16 5564.7 3093.57 5725.31C3013.25 5859.16 3006.12 5914.48 3059.66 6000.15C3079.29 6034.05 3091.78 6066.18 3086.43 6075.1C3082.86 6082.24 3106.06 6085.81 3139.97 6082.24C3214.93 6073.32 3343.42 6117.93 3414.81 6180.39C3461.21 6217.87 3468.35 6237.5 3468.35 6312.46C3468.35 6433.81 3407.67 6587.29 3338.07 6639.04C3272.04 6689.01 2993.62 6830 2857.98 6881.76C2759.83 6921.02 2427.87 7006.68 2379.68 7006.68C2361.84 7006.68 2343.99 6978.13 2329.71 6928.16C2285.09 6762.18 2156.6 6683.66 2063.79 6769.32C2026.31 6806.8 2006.68 6810.37 1944.22 6801.45C1904.95 6796.09 1847.84 6781.82 1821.07 6771.11C1737.22 6755.13 1730.65 6787.98 1822.86 6808.59C1963.85 6879.97 2058.44 6988.83 2058.44 7078.06C2058.44 7108.4 2029.88 7129.82 1924.58 7178C1803.22 7233.33 1772.88 7240.47 1637.25 7240.47C1537.3 7240.47 1474.84 7231.54 1455.21 7217.27C1433.79 7199.42 1430.22 7199.42 1440.93 7215.48C1458.78 7247.6 1444.5 7244.04 1360.62 7201.2C1323.27 7175.64 1294.23 7173.69 1301.37 7184.4C1315.94 7235.81 1421.3 7256.53 1581.92 7277.94L1749.68 7299.36L1706.85 7383.24C1640.82 7509.95 1635.46 7645.58 1689 7813.33C1756.82 8027.49 1824.64 8114.94 2081.64 8336.23C2108.41 8359.43 2447.5 8363 4919.32 8363H7724.87L7824.82 8286.26C8046.12 8120.29 8199.61 7904.35 8226.38 7724.1C8238.87 7638.44 8212.1 7515.3 8158.56 7404.65C8137.14 7361.82 8124.65 7324.34 8130 7318.99C8135.36 7313.64 8204.96 7297.57 8285.27 7283.3C8442.33 7256.53 8637.85 7186.02 8653.92 7144.97C8666.41 7111.07 8658.27 7106.62 8535.13 7169.08L8528.58 7172.26L8528.57 7172.26C8471.15 7200.1 8405.64 7231.87 8379.86 7240.47L8333.46 7258.31C8319.34 7266.25 8299.54 7264.16 8276.67 7261.74C8253.28 7259.26 8226.67 7256.45 8199.61 7263.67C8110.37 7288.65 8099.66 7286.87 8038.98 7254.74C8003.29 7236.9 7956.89 7220.84 7933.68 7220.84C7844.45 7220.84 7733.8 7131.6 7733.8 7060.22C7733.8 7004.89 7789.02 6945.19 7896.1 6875.59C7937.15 6848.82 7962.24 6819.29 7958.67 6813.94C7953.32 6808.59 7927.66 6813.94 7902.67 6830L7900.95 6831.15C7859.65 6858.69 7852.53 6863.45 7790.91 6830C7683.83 6772.89 7560.68 6738.98 7580.31 6772.89C7585.67 6780.03 7574.96 6801.45 7555.33 6819.29C7535.7 6837.14 7510.71 6885.32 7498.22 6924.59C7487.51 6965.63 7475.02 6985.26 7471.45 6969.2C7467.88 6954.92 7475.02 6917.45 7485.72 6888.89C7498.22 6860.34 7508.93 6833.57 7508.93 6828.22C7516.06 6797.88 7542.83 6776.46 7560.68 6787.17C7573.17 6794.31 7571.39 6785.38 7557.11 6767.54C7533.91 6740.77 7528.56 6744.34 7482.15 6821.08C7455.38 6867.48 7428.61 6933.51 7421.47 6965.63C7412.55 7019.17 7407.2 7022.74 7353.66 7012.03C7169.83 6978.13 6691.53 6792.52 6545.18 6699.72C6441.67 6633.69 6388.13 6517.69 6388.13 6362.43C6389.92 6226.79 6420.26 6150.06 6486.29 6119.72C6550.54 6089.38 6752.21 6062.61 6752.21 6084.02C6752.21 6092.95 6777.2 6053.69 6805.75 5998.36C6836.09 5943.04 6859.29 5889.5 6859.29 5880.58C6859.29 5873.44 6827.17 5816.33 6787.9 5755.65C6702.24 5621.8 6636.2 5454.05 6538.05 5114.97C6404.19 4650.96 6320.31 4554.59 5931.25 4427.89C5847.37 4399.33 5750.99 4356.5 5717.08 4329.73C5683.17 4302.96 5634.99 4270.84 5611.78 4258.35C5552.89 4228.01 5377.99 4083.45 5338.72 4035.27C5319.09 4010.28 5267.34 3985.11 5260.2 3910.16C5249.49 3790.59 5275.88 3721.17 5340.13 3610.52C5383.93 3458.99 5415.47 3526.65 5406.54 3576.62C5399.4 3612.31 5402.97 3631.94 5413.68 3624.8C5413.68 3624.8 5402.97 3638.83 5402.97 3649.53C5402.97 3653.05 5405.47 3654.94 5407.51 3656.49C5410.64 3658.87 5412.71 3660.44 5402.97 3665.85C5392.86 3671.33 5386.03 3680.79 5382.15 3692.14C5380.38 3697.32 5379.23 3702.9 5378.66 3708.67C5375.2 3743.78 5393.39 3786.09 5426.17 3790.77C5479.72 3797.91 5490.42 3747.94 5461.87 3623.02C5440.45 3530.22 5440.45 3512.37 5463.65 3476.68C5488.64 3439.2 5529.69 3287.51 5551.1 3155.44C5558.24 3110.83 5574.31 3091.2 5617.14 3073.35C5688.53 3043.01 5702.8 3023.38 5749.21 2893.1C5777.76 2809.22 5784.9 2755.68 5779.55 2643.25C5775.98 2564.73 5772.41 2482.64 5772.41 2459.44C5768.84 2386.27 5679.6 2202.45 5617.14 2143.56C5556.46 2086.45 5556.46 2086.45 5556.46 2129.28C5556.46 2179.25 5497.56 2316.67 5463.65 2343.43C5427.96 2371.99 5320.88 2350.57 5311.95 2311.31C5306.6 2291.68 5295.89 2277.4 5286.97 2277.4C5278.04 2277.4 5276.26 2298.82 5281.61 2325.59L5294.11 2375.56L5254.84 2339.87C5220.93 2311.31 5215.58 2291.68 5224.5 2239.93C5235.21 2170.33 5219.15 2152.48 5145.98 2152.48ZM5199.52 2188.17C5219.15 2200.66 5210.23 2206.02 5163.82 2206.02C5117.42 2206.02 5108.5 2200.66 5128.13 2188.17C5142.41 2179.25 5158.47 2170.33 5163.82 2170.33C5169.18 2170.33 5185.24 2179.25 5199.52 2188.17ZM4931.81 2298.82C4931.81 2323.8 4937.17 2359.5 4942.52 2375.56C4956.8 2411.25 5042.46 2455.87 5099.57 2455.87C5160.25 2455.87 5286.97 2507.62 5329.8 2550.45C5349.43 2570.08 5360.14 2598.64 5354.79 2618.27C5349.43 2636.11 5353 2657.53 5363.71 2662.88C5381.56 2673.59 5376.2 2728.92 5351.22 2803.87C5342.29 2832.42 5342.29 2834.21 5356.57 2812.79C5385.13 2773.53 5413.68 2864.55 5413.68 2998.39C5413.68 3114.4 5406.54 3132.24 5286.97 3292.86C5265.55 3321.41 5240.57 3387.44 5233.43 3439.2C5228.53 3556.62 5221.49 3621.72 5142.41 3726.52C5128.13 3749.72 5096 3778.28 5072.8 3788.99C5012.12 3821.11 4797.96 3817.54 4735.49 3785.42C4724.64 3779.99 4714.82 3773.32 4706.21 3765.85C4618.61 3699.63 4598.71 3604.52 4569.52 3440.98C4544.53 3369.6 4498.13 3276.8 4466 3235.75C4416.03 3175.07 4405.32 3144.73 4405.32 3076.92C4405.32 3028.73 4399.97 2991.26 4392.83 2991.26C4373.2 2991.26 4374.98 2841.35 4394.62 2819.93C4403.54 2811.01 4414.25 2771.75 4416.03 2732.48C4419.6 2693.22 4432.09 2650.39 4444.59 2637.9C4457.08 2625.41 4467.79 2600.42 4467.79 2582.58C4467.79 2543.31 4630.2 2463 4740.85 2448.73C4880.06 2430.88 4896.12 2416.6 4896.12 2298.82C4896.12 2227.43 4901.47 2204.23 4913.96 2223.86C4922.89 2238.14 4931.81 2272.05 4931.81 2298.82ZM4405.32 2263.13C4385.69 2327.37 4360.71 2343.43 4360.71 2293.46C4360.71 2245.28 4373.2 2223.86 4399.97 2223.86C4408.89 2223.86 4410.68 2241.71 4405.32 2263.13ZM4367.84 2446.94C4350 2473.71 4326.8 2532.61 4314.3 2577.22C4296.46 2641.47 4291.1 2650.39 4291.1 2611.13C4289.32 2561.16 4373.2 2373.77 4389.26 2389.84C4394.62 2395.19 4385.69 2420.17 4367.84 2446.94ZM5476.15 2473.71C5501.13 2521.9 5520.76 2580.79 5518.98 2602.21C5518.98 2630.76 5511.84 2621.84 5495.78 2571.87C5483.29 2532.61 5460.08 2473.71 5442.24 2441.59C5426.17 2411.25 5417.25 2384.48 5422.61 2384.48C5426.17 2384.48 5451.16 2423.74 5476.15 2473.71ZM4283.96 2762.82C4280.39 2786.02 4276.83 2771.75 4276.83 2732.48C4275.04 2693.22 4278.61 2675.38 4283.96 2691.44C4287.53 2709.28 4287.53 2741.41 4283.96 2762.82ZM5520.76 2753.9C5510.62 2769.58 5505.72 2777.16 5504.58 2776.63C5503.52 2776.13 5505.74 2768.56 5510.06 2753.9C5515.41 2736.05 5522.55 2707.5 5522.55 2691.44C5524.33 2664.67 5526.12 2664.67 5533.26 2691.44C5536.83 2709.28 5531.47 2736.05 5520.76 2753.9ZM4683.74 4094.16C4710.51 4140.56 4744.42 4219.08 4760.48 4270.84C4792.6 4367.21 4872.92 4454.65 4930.03 4454.65C4981.78 4454.65 5046.03 4365.42 5117.42 4195.88C5154.9 4106.65 5188.81 4033.48 5190.59 4029.91C5194.16 4026.34 5224.5 4054.9 5260.2 4092.37C5311.95 4147.7 5324.45 4174.47 5324.45 4235.15C5324.45 4279.76 5313.74 4320.81 5295.89 4336.87C5281.61 4352.93 5274.47 4365.42 5281.61 4365.42C5288.75 4365.42 5263.77 4390.41 5222.72 4418.96C5181.67 4449.3 5144.19 4484.99 5138.84 4501.06C5131.7 4517.12 5115.64 4526.04 5101.36 4518.9C5083.51 4513.55 5074.59 4520.69 5072.8 4540.32C5072.8 4558.16 5067.45 4561.73 5062.1 4547.46C5058.53 4536.75 5046.03 4526.04 5037.11 4526.04C5026.4 4526.04 5022.83 4533.18 5028.19 4542.1C5040.68 4563.52 4976.43 4579.58 4887.19 4577.79C4828.3 4577.79 4822.94 4574.23 4851.5 4559.95C4880.06 4547.46 4874.7 4545.67 4828.3 4552.81C4787.25 4558.16 4772.97 4554.59 4781.9 4540.32C4790.82 4527.82 4785.47 4524.26 4765.83 4531.39C4749.77 4536.75 4733.71 4529.61 4728.36 4513.55C4721.22 4497.49 4705.15 4490.35 4689.09 4497.49C4674.81 4502.84 4667.68 4501.06 4673.03 4490.35C4678.38 4481.42 4667.68 4467.15 4649.83 4456.44C4631.98 4447.52 4601.64 4411.82 4583.79 4376.13C4565.95 4342.22 4546.32 4317.24 4540.96 4320.81C4533.82 4324.38 4530.25 4297.61 4530.25 4261.91C4530.25 4203.02 4605.21 4010.28 4628.41 4008.5C4633.77 4008.5 4658.75 4045.97 4683.74 4094.16ZM5492.21 4488.56C5510.06 4561.73 5526.12 4699.15 5531.47 4791.95L5538.61 4963.28L5477.93 5013.25C5444.02 5040.01 5388.7 5073.92 5354.79 5088.2L5292.32 5113.18L5317.31 4993.61C5329.8 4927.58 5356.57 4797.3 5376.2 4704.5C5395.83 4611.7 5413.68 4474.29 5413.68 4401.12C5415.47 4277.98 5417.25 4270.84 5438.67 4311.88C5452.95 4336.87 5476.15 4415.39 5492.21 4488.56ZM4485.64 4888.32C4514.19 5006.11 4537.39 5106.05 4533.82 5107.83C4523.11 5118.54 4383.91 5038.23 4337.5 4993.61C4287.53 4947.21 4285.75 4941.86 4296.46 4820.5C4307.16 4700.93 4339.29 4540.32 4382.12 4392.19C4403.42 4322.97 4403.54 4324.36 4417.59 4494.71L4417.82 4497.49C4426.74 4595.64 4457.08 4770.53 4485.64 4888.32ZM4582.01 4422.53C4565.95 4447.52 4660.54 4543.89 4730.14 4572.44C4762.26 4586.72 4808.67 4597.43 4831.87 4597.43C4865.78 4597.43 4880.06 4609.92 4888.98 4642.04C4896.12 4670.6 4912.18 4686.66 4933.6 4686.66C4955.01 4686.66 4971.08 4670.6 4978.21 4642.04C4985.35 4613.49 5001.42 4597.43 5024.62 4597.43C5044.25 4597.43 5076.37 4588.5 5097.79 4577.79C5149.55 4551.02 5253.06 4452.87 5244.13 4436.81C5240.57 4431.45 5253.06 4424.32 5272.69 4424.32C5290.54 4422.53 5306.6 4424.32 5306.6 4429.67C5306.6 4445.73 5247.7 4533.18 5183.45 4615.27C5147.76 4658.1 5119.21 4702.72 5119.21 4711.64C5119.21 4720.57 5074.59 4756.26 5021.05 4788.38C4947.87 4833 4933.6 4847.27 4962.15 4847.27C5028.19 4847.27 5213.79 4654.53 5317.31 4479.64C5340.51 4440.38 5285.18 4813.37 5238.78 4998.97C5210.23 5120.32 5206.66 5123.89 5137.05 5148.88C5046.03 5181 4785.47 5181 4690.88 5148.88L4619.49 5123.89L4580.22 4954.35L4580.22 4954.35C4559.46 4866.83 4547.32 4815.69 4543.81 4785.16L4527.77 4710.59C4511.89 4691.82 4504.62 4645.92 4489.2 4531.39C4478.5 4449.3 4478.5 4418.96 4494.56 4411.82C4507.05 4408.25 4515.98 4417.18 4514.19 4431.45C4514.19 4447.52 4523.11 4463.58 4537.39 4468.93C4555.24 4474.29 4558.81 4468.93 4551.67 4445.73C4537.39 4410.04 4551.67 4377.92 4576.66 4393.98C4585.58 4399.33 4589.15 4411.82 4582.01 4422.53ZM4955.01 5289.86C4969.29 5320.2 4944.63 5431.57 4928.57 5447.63C4892.87 5483.32 4896.12 5343.4 4908.61 5266.66C4915.75 5227.4 4922.89 5207.77 4926.46 5222.05C4927.09 5223.73 4927.79 5225.63 4928.57 5227.72C4934.36 5243.37 4943.99 5269.4 4955.01 5289.86ZM4342.86 5300.57C4342.86 5327.34 4355.35 5346.97 4374.98 5352.33C4401.75 5359.46 4401.75 5361.25 4374.98 5363.03C4295.39 5480.48 4275.04 5307.71 4305.38 5297C4316.09 5293.43 4321.44 5282.72 4314.3 5273.8C4308.95 5264.88 4314.3 5257.74 4323.23 5257.74C4333.94 5257.74 4342.86 5277.37 4342.86 5300.57ZM5410.21 5489.74C5394.15 5505.8 5228.07 5523.65 5220.93 5518.3C5215.58 5511.16 5310.73 5391.85 5325.01 5382.93C5367.84 5356.16 5442.34 5459.4 5410.21 5489.74ZM4660.54 6080.46C4683.74 6078.67 4742.63 6096.52 4790.82 6116.15C4840.03 6133.11 4862.82 6149.72 4891.13 6190.08C4891.38 6190.34 4891.63 6190.59 4891.87 6190.84C4894.24 6193.27 4896.12 6195.19 4896.12 6198.24C4896.12 6225.01 4831.87 6276.76 4819.38 6262.49C4812.24 6257.13 4806.88 6283.9 4806.88 6323.16C4806.88 6414.18 4871.13 6515.91 4930.03 6515.91C4985.35 6515.91 5033.54 6448.09 5046.03 6355.29C5053.17 6316.03 5051.39 6294.61 5046.03 6307.1C5038.89 6321.38 5017.48 6307.1 4981.78 6262.49C4938.95 6207.16 4937.12 6196.65 4956.8 6189.32C4962.24 6145.69 4988.51 6124.81 5037.4 6112.77C5071.31 6102.82 5115.83 6096.52 5163.82 6096.52C5402.97 6096.52 5518.98 6228.58 5474.36 6449.87C5463.65 6501.63 5458.3 6503.41 5331.59 6523.04C5190.59 6544.46 4487.42 6549.81 4374.98 6531.97L4307.16 6519.47V6396.33C4307.16 6328.52 4314.3 6257.13 4325.01 6239.29C4364.28 6164.33 4535.61 6084.02 4660.54 6080.46ZM4905.04 6257.13C4899.69 6266.06 4903.26 6274.98 4915.75 6274.98C4949.66 6274.98 4924.67 6292.83 4878.27 6301.75C4859.32 6305.2 4849.51 6306.98 4847.85 6304.09C4846.08 6300.99 4853.65 6292.52 4869.35 6274.98C4903.26 6237.5 4922.89 6226.79 4905.04 6257.13ZM3616.48 6624.77C3671.81 6758.62 3718.21 6810.37 3780.68 6810.37C3877.05 6810.37 3880.62 6821.08 3830.65 6958.49C3800.31 7042.37 3762.83 7106.62 3723.57 7144.1C3668.24 7195.85 3657.53 7199.42 3607.56 7181.57C3575.44 7169.08 3486.2 7167.3 3380.9 7172.65C3263.11 7179.79 3168.52 7176.22 3075.72 7158.37C3002.55 7142.31 2845.49 7117.33 2727.7 7099.48L2513.54 7069.14L2700.93 7019.17C2865.12 6974.56 3280.96 6799.66 3393.4 6728.28C3416.6 6712.21 3455.86 6653.32 3480.85 6594.43C3505.83 6535.54 3536.17 6490.92 3545.1 6494.49C3555.8 6498.06 3587.93 6555.17 3616.48 6624.77ZM6618.36 6837.14C6716.52 6885.32 6907.48 6962.06 7043.12 7008.46L7289.41 7090.56L7078.81 7101.26C6962.81 7108.4 6825.38 7126.25 6773.63 7140.53C6716.52 7158.37 6655.84 7163.73 6616.57 7156.59C6580.88 7149.45 6475.58 7158.37 6372.07 7176.22L6190.03 7206.56L6123.99 7165.51C6072.24 7131.6 6049.04 7097.7 6013.34 6999.54C5988.36 6931.72 5970.51 6871.05 5975.86 6867.48C5981.22 6862.12 6018.7 6854.99 6059.75 6851.42C6165.04 6840.71 6248.92 6801.45 6270.34 6753.26C6279.26 6730.06 6298.9 6680.09 6314.96 6640.83L6343.51 6569.44L6391.7 6658.68C6436.32 6740.77 6454.16 6755.05 6618.36 6837.14ZM2244.05 6813.94L2277.96 6872.83L2231.55 6822.86C2181.58 6771.11 2174.44 6756.83 2197.64 6756.83C2204.78 6756.83 2226.2 6783.6 2244.05 6813.94ZM2147.67 6813.94C2147.67 6822.86 2154.81 6826.43 2165.52 6819.29C2188.72 6805.02 2277.96 6944.22 2267.25 6983.48C2261.89 7008.46 2254.75 7003.11 2233.34 6956.71C2219.06 6924.59 2201.21 6904.96 2194.07 6912.09C2186.94 6919.23 2186.94 6912.09 2192.29 6896.03C2199.43 6879.97 2194.07 6862.12 2181.58 6853.2C2167.3 6844.28 2163.73 6847.85 2172.66 6865.69C2179.8 6879.97 2170.87 6872.83 2151.24 6851.42C2131.61 6830 2111.98 6817.51 2104.84 6822.86C2099.49 6830 2094.13 6821.08 2094.13 6805.02C2094.13 6787.17 2103.05 6780.03 2120.9 6785.38C2135.18 6792.52 2147.67 6803.23 2147.67 6813.94ZM7680.26 6813.94C7680.26 6824.65 7674.9 6828.22 7669.55 6822.86C7651.7 6805.02 7589.24 6894.25 7569.6 6967.42C7558.9 7003.11 7546.4 7022.74 7542.83 7010.25C7528.56 6970.99 7553.54 6904.96 7601.73 6847.85C7649.92 6790.74 7680.26 6776.46 7680.26 6813.94ZM2056.65 6840.71C2051.3 6876.4 2060.22 6899.6 2078.07 6894.25C2088.78 6892.46 2101.27 6906.74 2104.84 6926.37C2106.62 6946 2119.12 6963.85 2129.83 6967.42C2138.75 6970.99 2142.32 6981.69 2136.96 6990.62C2131.61 6999.54 2104.84 6974.56 2076.28 6931.72C2047.73 6890.68 2029.88 6849.63 2033.45 6842.49C2044.16 6824.65 2058.44 6824.65 2056.65 6840.71ZM7733.8 6879.97C7733.8 6890.68 7724.87 6903.17 7715.95 6908.52C7705.24 6913.88 7682.04 6949.57 7660.62 6985.26C7628.5 7045.94 7626.72 7047.73 7635.64 6999.54C7651.7 6921.02 7733.8 6822.86 7733.8 6879.97ZM4724.79 7747.3C4771.19 7761.58 4880.06 7782.99 4965.72 7791.92C5072.8 7806.19 5142.41 7825.83 5197.73 7857.95L5278.04 7904.35L5135.27 7956.1C5029.97 7993.58 4940.74 8011.43 4780.11 8023.92C4750.36 8026.29 4723.71 8028.51 4699.83 8030.5L4699.82 8030.5C4565.98 8041.66 4519.61 8045.52 4506.75 8026.61C4499.93 8016.58 4502.53 8000.14 4506.52 7975C4507.83 7966.7 4509.3 7957.46 4510.62 7947.18C4515.98 7897.21 4530.25 7824.04 4539.18 7786.56C4562.38 7709.82 4585.58 7704.47 4724.79 7747.3ZM5431.53 8043.55C5489.06 8025.4 5615.35 8063.18 5842.01 8039.98C6009.77 8023.92 6040.11 8023.92 6127.56 8054.26C6181.1 8072.1 6203.07 8091.11 6220.37 8100.66C6242.22 8105.05 6250.6 8120.92 6256.7 8132.49C6261.68 8141.91 6265.14 8148.48 6273.15 8143.67C6280.29 8140.1 6288.19 8155.98 6288.19 8166.69C6288.19 8180.97 6275.69 8182.75 6257.85 8175.61C6240 8168.48 6182.89 8150.63 6131.13 8136.35C6038.33 8107.8 6036.54 8107.8 5916.97 8163.12C5656.4 8282.69 5540.4 8302.32 5406.54 8247C5326.23 8213.09 5247.7 8213.09 5135.27 8247C5026.4 8279.12 4680.17 8295.18 4603.43 8270.2C4588.9 8265.93 4573.15 8260.84 4559.11 8256.3C4543.82 8251.36 4530.56 8247.07 4523.11 8245.21C4505.27 8239.86 4519.54 8214.88 4573.09 8159.55C4644.47 8086.38 4655.18 8082.81 4776.54 8072.1C4817.14 8068.77 4881.82 8072.71 4956.06 8077.23C5120.09 8087.23 5330.78 8100.06 5431.53 8043.55Z" fill="#353531"/>
<path d="M8202.74 6915.01C8162.82 7030.42 8100.54 7072.4 7885.15 7009.19" stroke="#353531" stroke-width="27.6171" stroke-linecap="round"/>
<path fill-rule="evenodd" clip-rule="evenodd" d="M5103.09 2870.17C5142.35 2864.82 5178.05 2857.68 5181.62 2854.11C5219.1 2818.42 5397.57 2880.88 5397.57 2929.07C5397.57 2989.74 5347.6 3053.99 5269.07 3095.04C5221.16 3109.79 5194.08 3115.32 5144.14 3105.74C5122.72 3098.61 5088.81 3095.04 5072.75 3096.82C5054.9 3098.61 5040.63 3089.68 5040.63 3077.19C5040.63 3064.7 5035.27 3061.13 5028.13 3066.48C5021.82 3072.79 5000.17 3062.37 4976.73 3041.37C4973.66 3038.61 4970.56 3035.68 4967.45 3032.57C4921.05 2987.96 4919.27 2987.96 4894.28 3021.87C4881.79 3041.5 4842.52 3064.7 4808.62 3073.62C4772.92 3082.54 4746.15 3102.18 4746.15 3116.45C4746.15 3155.71 4598.02 3161.07 4583.74 3123.59C4576.6 3107.53 4553.4 3086.11 4530.2 3077.19C4505.22 3068.27 4487.37 3046.85 4487.37 3025.44C4487.37 3005.8 4480.23 2989.74 4469.52 2989.74C4433.83 2989.74 4453.46 2918.36 4494.51 2889.8C4573.03 2839.83 4862.16 2870.17 4910.34 2934.42C4924.62 2952.27 4931.76 2955.84 4933.54 2939.77C4933.54 2913 5004.93 2884.45 5103.09 2870.17ZM5274.42 2984.39C5310.12 2973.68 5311.9 2968.33 5290.49 2954.05C5276.21 2945.13 5260.15 2937.99 5254.79 2937.99C5206.6 2948.7 5183.4 2959.4 5183.4 2971.9C5183.4 2979.04 5165.56 2989.74 5144.14 2995.1C5090.6 3009.37 5106.66 3018.3 5206.6 3029.01C5276.21 3037.93 5286.92 3034.36 5261.93 3016.51C5235.16 2996.88 5235.16 2993.31 5274.42 2984.39ZM4699.75 3027.22C4740.8 3016.51 4740.8 3014.73 4712.24 2984.39C4678.33 2952.27 4594.45 2941.56 4594.45 2971.9C4594.45 2980.82 4603.37 2989.74 4615.87 2989.74C4626.58 2989.74 4621.22 3002.24 4601.59 3016.51C4569.46 3041.5 4569.46 3041.5 4612.3 3041.5C4637.28 3039.71 4676.55 3034.36 4699.75 3027.22Z" fill="#353531"/>
<path d="M4976.73 3041.37C5000.17 3062.37 5021.82 3072.79 5028.13 3066.48C5035.27 3061.13 5040.63 3064.7 5040.63 3077.19C5040.63 3089.68 5054.9 3098.61 5072.75 3096.82C5046.3 3102.36 5021.59 3083.6 4976.73 3041.37Z" fill="#353531"/>
<path d="M4790.81 3308.9C4749.76 3323.17 4774.75 3366 4844.35 3401.7C4926.45 3444.53 4962.14 3439.17 5022.82 3373.14C5056.73 3335.67 5060.3 3324.96 5038.89 3312.46C5013.9 3298.19 4833.65 3294.62 4790.81 3308.9Z" fill="#353531"/>
<path fill-rule="evenodd" clip-rule="evenodd" d="M4691.7 3532.78C4679.81 3522.05 4685.01 3502.36 4700.65 3498.89L4742.2 3489.66C4834.19 3461.18 4955.01 3451.67 5056.74 3496.29C5124.56 3526.62 5134.25 3515.94 5116.72 3544.41C5097.01 3559.74 5053.17 3573.02 5038.89 3589.09C5019.35 3611.64 5014.91 3629.77 5012.69 3638.85C5012.28 3640.55 5011.94 3641.93 5011.59 3642.97C5002.43 3662.99 4985.9 3672.35 4950.86 3676.13C4928.36 3676.8 4892.54 3678.32 4892.54 3678.32C4865.07 3675.69 4843.42 3672.33 4826.37 3668.74C4781.88 3659.36 4768.19 3615.04 4740.66 3578.85C4737.12 3574.19 4733.04 3569.79 4728.35 3565.89L4691.7 3532.78Z" fill="#353531"/>
<path d="M4950.86 3676.13C4928.36 3676.8 4892.54 3678.32 4892.54 3678.32C4916.25 3678.38 4935.37 3677.8 4950.86 3676.13Z" fill="#353531"/>
<path d="M4573.08 4540.32C4644.47 4642.04 4856.85 4847.28 4890.76 4847.28C4919.32 4845.49 4919.32 4843.71 4887.19 4827.65C4840.79 4800.88 4639.12 4592.07 4644.47 4574.23C4645.5 4569.11 4643.58 4566.34 4639.74 4566.26C4636.89 4566.2 4632.97 4567.62 4628.41 4570.66C4610.56 4581.37 4601.64 4554.6 4610.56 4517.12C4612.35 4506.41 4606.99 4504.63 4599.85 4511.77C4592.72 4518.9 4574.87 4515.33 4558.81 4502.84C4544.53 4492.13 4549.88 4508.2 4573.08 4540.32Z" fill="#353531"/>
<path d="M4639.74 4566.26C4636.89 4566.2 4632.97 4567.62 4628.41 4570.66C4610.56 4581.37 4601.64 4554.6 4610.56 4517.12L4639.74 4566.26Z" fill="#353531"/>
<path d="M4890.76 4733.06C4883.62 4740.2 4878.26 4761.61 4878.26 4779.46C4878.26 4806.23 4888.97 4813.37 4928.24 4808.01C4962.15 4804.44 4976.42 4791.95 4976.42 4766.97C4976.42 4731.27 4917.53 4708.07 4890.76 4733.06Z" fill="#353531"/>
<path d="M4880.05 4924.01C4851.5 4995.4 4856.85 5106.05 4887.19 5132.82C4922.89 5163.15 4983.57 5138.17 4996.06 5086.41C5010.34 5027.52 4990.71 4927.58 4958.58 4900.81C4937.16 4882.97 4931.81 4882.97 4931.81 4902.6C4931.81 4922.23 4928.24 4922.23 4913.96 4900.81C4901.47 4881.18 4894.33 4884.75 4880.05 4924.01Z" fill="#353531"/>
<path d="M5375.33 1877.58C5369.98 1922.2 5366.41 1959.68 5366.41 1961.46C5368.19 1961.46 5384.26 1941.83 5402.1 1916.85C5421.73 1891.86 5427.09 1877.58 5416.38 1884.72C5405.67 1891.86 5394.96 1877.58 5391.39 1847.25C5386.04 1807.98 5382.47 1815.12 5375.33 1877.58Z" fill="#353531"/>
<path d="M4770.62 1781.44C4754.47 1823.37 4741.81 1858.82 4741.37 1860.55C4743.1 1860.99 4763.49 1845.91 4786.93 1826.07C4812.1 1806.67 4820.79 1794.14 4808.66 1798.43C4796.52 1802.72 4789.65 1786.26 4793.64 1755.97C4798.09 1716.59 4792.88 1722.64 4770.62 1781.44Z" fill="#353531"/>
<path d="M4448.14 1870.49C4442.79 1907.96 4444.57 1938.3 4451.71 1938.3C4474.91 1938.3 4480.27 1913.32 4467.77 1857.99L4457.07 1804.46L4448.14 1870.49Z" fill="#353531"/>
<path d="M4508.83 2036.45C4492.77 2054.3 4492.77 2065.01 4505.26 2072.14C4530.25 2088.21 4544.52 2072.14 4535.6 2040.02C4532.03 2016.82 4526.68 2016.82 4508.83 2036.45Z" fill="#353531"/>
<path d="M4351.77 2045.38C4346.42 2056.08 4353.56 2057.87 4367.84 2052.51C4387.47 2045.38 4396.39 2052.51 4396.39 2072.15C4396.39 2097.13 4401.74 2098.91 4423.16 2081.07C4437.44 2068.58 4444.58 2052.51 4439.22 2043.59C4426.73 2022.18 4366.05 2023.96 4351.77 2045.38Z" fill="#353531"/>
<path d="M4925.76 1910.03C4920.41 1920.74 4927.55 1922.53 4941.82 1917.17C4961.46 1910.03 4970.38 1917.17 4970.38 1936.8C4970.38 1961.79 4975.73 1963.57 4997.15 1945.73C5011.43 1933.23 5018.57 1917.17 5013.21 1908.25C5000.72 1886.83 4940.04 1888.62 4925.76 1910.03Z" fill="#353531"/>
<path d="M5311.95 2086.43C5310.17 2109.63 5315.52 2114.98 5329.8 2102.49C5342.29 2091.78 5370.85 2081.07 5395.83 2077.5C5433.31 2072.15 5429.74 2068.58 5376.2 2061.44C5324.44 2054.3 5313.73 2059.66 5311.95 2086.43Z" fill="#353531"/>
<path d="M4731.71 1946.15C4710.39 1955.48 4708.18 1962.72 4725.92 1969.45C4741.24 1975.44 4764.12 1995.61 4779.01 2015.99C4801.36 2046.55 4802.83 2041.72 4783.96 1991.11C4765.93 1942.08 4756.17 1935.14 4731.71 1946.15Z" fill="#353531"/>
<path d="M4449.93 2102.48C4449.93 2118.54 4435.66 2136.39 4419.59 2139.96C4401.75 2145.31 4412.46 2148.88 4444.58 2150.67C4474.92 2150.67 4507.04 2143.53 4514.18 2131.04C4521.32 2120.33 4519.54 2116.76 4507.04 2123.9C4496.34 2129.25 4480.27 2120.33 4469.57 2104.27C4453.5 2075.71 4451.72 2075.71 4449.93 2102.48Z" fill="#353531"/>
<path d="M4910.36 1956.72C4910.36 1972.78 4896.08 1990.63 4880.02 1994.2C4862.17 1999.55 4872.88 2003.12 4905 2004.91C4935.34 2004.91 4967.47 1997.77 4974.61 1985.27C4981.75 1974.57 4979.96 1971 4967.47 1978.14C4956.76 1983.49 4940.7 1974.57 4929.99 1958.5C4913.93 1929.95 4912.14 1929.95 4910.36 1956.72Z" fill="#353531"/>
<path d="M4553.45 2175.66C4494.55 2223.84 4489.2 2241.69 4539.17 2229.2C4560.59 2223.84 4571.3 2214.92 4565.94 2209.57C4560.59 2204.21 4569.51 2184.58 4587.36 2166.73C4626.62 2123.9 4612.35 2127.47 4553.45 2175.66Z" fill="#353531"/>
<path d="M5085.21 1844.79C5061.26 1772.56 5046.51 1761.18 5040.31 1812.32C5037.65 1834.23 5042.16 1847.42 5049.07 1844.33C5055.99 1841.25 5071.13 1856.6 5081.42 1879.65C5107.38 1931.63 5109.15 1917.02 5085.21 1844.79Z" fill="#353531"/>
<path d="M4884.67 1844.2C4825.78 1892.39 4820.42 1910.24 4870.39 1897.74C4891.81 1892.39 4902.52 1883.47 4897.17 1878.11C4891.81 1872.76 4900.73 1853.13 4918.58 1835.28C4957.84 1792.45 4943.57 1796.02 4884.67 1844.2Z" fill="#353531"/>
<path d="M5308.38 2154.24C5306.59 2188.15 5354.78 2234.55 5372.63 2216.7C5377.98 2211.35 5374.41 2206 5361.92 2206C5351.21 2206 5333.36 2188.15 5324.44 2164.95C5313.73 2138.18 5308.38 2134.61 5308.38 2154.24Z" fill="#353531"/>
<path d="M4663.28 3459.54C4634.36 3477.34 4623.55 3543.35 4648.37 3547.9C4655.82 3549.27 4663.87 3541.55 4656.77 3531.27C4650.69 3522.46 4655.89 3503.61 4669.92 3483.09C4685.86 3459.07 4679.43 3448.39 4663.28 3459.54Z" fill="#353531"/>
<path d="M5174.02 3559.41C5190.84 3529.91 5168.6 3466.82 5144.64 3474.76C5137.46 3477.14 5134.1 3487.77 5145.27 3493.38C5154.83 3498.19 5159.33 3517.22 5156.89 3541.95C5154.44 3570.68 5165.21 3576.95 5174.02 3559.41Z" fill="#353531"/>
<path d="M4932.06 2031.35C4960.34 2050.15 5024.81 2032.29 5018.53 2007.85C5016.65 2000.51 5010.22 2000.86 5003.86 2011.61C4998.41 2020.83 4973.97 2027.11 4949.45 2022.98C4920.96 2018.57 4915.16 2021.36 4932.06 2031.35Z" fill="#353531"/>
<path d="M3110.49 6076.19C3104.59 6157.6 3086.25 6207.93 3062.48 6260.47C3047.23 6294.2 3019.03 6320.3 2985.07 6335.03C2770.62 6428.07 2592.34 6543.82 2251.93 6792.36" stroke="#353531" stroke-width="27.6171"/>
<path d="M1785.41 6781.41L1586.1 6722.28L1307.08 6681.5C1304.34 6681.1 1302.06 6683.64 1302.82 6686.31C1334.97 6799.82 1520.92 6801.58 1553.25 6829.6C1586.1 6858.07 1485.76 7011.01 1428.4 7063.94C1371.05 7116.87 1205.38 7022.63 1235.66 7088.03L1329.84 7199.73" stroke="#353531" stroke-width="27.6171"/>
<path d="M6739.67 6049.91C6770.18 6134.85 6795.99 6203.16 6819.65 6274.89C6828.93 6303.02 6849.52 6326.1 6876.36 6338.65C7138.22 6461.11 7283 6589.98 7528.15 6770.46" stroke="#353531" stroke-width="27.6171"/>
<path d="M7926.77 6833.98C8177.03 6747.74 8265.04 6745.09 8390.18 6747.61C8402.32 6747.86 8406.29 6764.18 8395.66 6770.07C8292.27 6827.3 8238.38 6862.82 8203.37 6909.28C8199.3 6914.68 8201.04 6922.33 8206.75 6925.94C8285.31 6975.5 8318.85 7020.3 8368.48 7099.59C8371.46 7104.34 8377.34 7106.37 8382.6 7104.45L8553.12 7042.27C8557.2 7040.78 8560.12 7037.13 8560.85 7032.84C8577.23 6936.57 8628.34 6911.05 8747.7 6899.45C8757.16 6898.53 8763.65 6908.66 8758.95 6916.91L8625.45 7151.54" stroke="#353531" stroke-width="27.6171"/>
<path d="M1559.82 6847.12C1595.85 6986.31 1662.76 7044.23 1807.31 7020.14" stroke="#353531" stroke-width="27.6171" stroke-linecap="round"/>
<path d="M4212.17 2158.06C4219.6 2029.19 4274.01 1986.56 4365.48 1975.81M4365.48 1975.81C4431.52 1968.05 4520.74 1970.68 4622.13 1974.98C4630.96 1975.36 4637.41 1965.96 4636.77 1957.15C4631.8 1888.63 4741.32 1810.47 4503.6 1830.55C4496.65 1831.14 4490.37 1825.66 4489.85 1818.7C4481.28 1704.38 4359.82 1739.69 4410.76 1856.02C4413.39 1862.02 4411.08 1869.16 4405.36 1872.34C4352.35 1901.83 4350.28 1927.47 4365.48 1975.81Z" stroke="#353531" stroke-width="27.6171" stroke-linecap="round"/>
<path d="M5578.86 2144.92C5569.86 2073.67 5543.13 2024.39 5504.39 2000.27M5189 2162.44C5311.35 2000.46 5430.01 1953.96 5504.39 2000.27M5335.75 2009.13C5303.11 1964.12 5285.4 1921.3 5278.41 1884.29M5504.39 2000.27C5585.38 1947.48 5634.05 1912.65 5522.47 1878.28C5517.1 1876.63 5513.48 1871.48 5513.78 1865.87C5520.45 1744.1 5475.82 1661.17 5395.55 1781.82C5390.91 1788.8 5380.63 1789.33 5374.77 1783.33C5319.25 1726.48 5259.5 1784.1 5278.41 1884.29M5278.41 1884.29C5097.11 1851.39 5123.29 2063.88 5079.49 2144.92" stroke="#353531" stroke-width="27.6171"/>
<path d="M4696.2 2142.73C4696.2 2142.73 4525.36 2061.69 4606.4 1989.42C4677.49 1926.02 4694.74 1927.9 4690.43 1894.22C4689.39 1886.11 4695.96 1878.84 4704.02 1880.22C4707.32 1880.78 4710.55 1881.38 4713.72 1882.01M4871.42 2092.35C4839.67 1944.23 4800.02 1899.29 4713.72 1882.01M4713.72 1882.01C4667.61 1741.37 4814.47 1538.25 5026.93 1698.13C5111.32 1761.65 5178.19 1766.33 5189 1899.62" stroke="#353531" stroke-width="27.6171"/>
</svg>
