<svg width="474" height="426" viewBox="0 0 474 426" fill="none" xmlns="http://www.w3.org/2000/svg">
<path d="M277.792 11.0014C281.644 14.273 284.49 17.6032 286.558 22.0029C287.309 21.9525 288.059 21.902 288.833 21.8501C298.337 21.8955 306.893 28.827 313.278 34.5714C315.202 36.3992 316.902 38.3792 318.569 40.4007C319.509 41.6277 319.509 41.6277 320.945 42.1722C321.484 42.9795 321.984 43.809 322.462 44.648C324.177 47.5282 326.189 50.0707 328.361 52.677C350.097 79.4659 358.489 108.582 362.744 141.01C365.503 161.907 370.501 179.315 386.655 195.013C399.256 207.285 415.482 224.762 418.037 242.032C417.923 243.166 417.809 244.301 417.683 245.434C417.08 252.541 420.468 256.445 424.98 261.954C426.941 264.464 428.597 267.123 430.258 269.803C430.763 270.618 430.763 270.618 431.279 271.449C432.265 273.05 433.242 274.654 434.219 276.258C434.649 276.953 434.649 276.953 435.087 277.662C446.771 296.602 455.084 317.321 460.983 338.311C462.171 342.477 463.677 346.212 465.675 350.119C467.363 353.7 468.33 357.426 469.28 361.214C469.433 361.815 469.586 362.416 469.744 363.035C471.923 372.982 471.524 383.786 465.717 392.654C462.281 397.301 458.432 400.394 453.219 403.369C451.07 404.611 449.042 405.954 446.988 407.32C435.105 414.789 421.311 418.637 407.249 421.11C406.506 421.243 405.763 421.375 404.997 421.512C391.712 423.536 378.204 423.016 364.847 422.011C360.429 421.666 360.429 421.666 356.006 421.722C355.561 422.125 355.116 422.528 354.657 422.944C352.314 423.027 350.668 422.84 348.768 421.521C343.295 416.286 335.778 404.756 335.778 397.274C335.189 397.185 335.189 397.185 334.588 397.094C330.601 396.465 326.651 395.727 322.704 394.922C322.183 394.816 321.661 394.71 321.125 394.601C320.015 394.375 318.905 394.149 317.795 393.922C303.228 390.96 288.592 388.37 273.916 385.887C273.371 385.794 272.825 385.702 272.263 385.607C271.733 385.519 271.204 385.431 270.659 385.341C269.507 385.136 268.362 384.906 267.221 384.659C266.629 384.534 266.037 384.409 265.426 384.28C264.895 384.16 264.363 384.041 263.815 383.917C261.397 383.776 259.95 384.808 258.097 386.113C253.404 389.112 244.279 387.986 238.947 387.253C234.695 386.487 230.532 385.422 226.359 384.363C225.006 384.031 223.653 383.701 222.299 383.373C218.716 382.499 215.139 381.607 211.562 380.711C207.861 379.788 204.154 378.881 200.448 377.974C194.566 376.532 188.687 375.081 182.81 373.624C175.66 371.853 168.501 370.112 161.336 368.393C160.604 368.217 160.604 368.217 159.857 368.038C157.552 367.484 155.247 366.931 152.942 366.379C148.905 365.411 144.869 364.44 140.835 363.465C140.166 363.305 139.498 363.145 138.81 362.979C138.211 362.834 137.612 362.689 136.995 362.54C136.22 362.353 136.22 362.353 135.43 362.163C134.176 361.825 134.176 361.825 132.828 361.214C132.176 359.44 132.005 358.109 131.891 356.255C131.851 355.618 131.81 354.982 131.769 354.327C131.728 353.641 131.687 352.955 131.645 352.249C131.601 351.546 131.557 350.843 131.512 350.119C131.372 347.871 131.236 345.623 131.1 343.375C131.006 341.852 130.912 340.329 130.817 338.806C130.585 335.07 130.357 331.334 130.131 327.598C126.232 327.244 126.232 327.244 122.727 328.431C122.459 328.825 122.19 329.218 121.913 329.623C121.439 330.296 121.439 330.296 120.955 330.984C120.645 331.48 120.336 331.976 120.017 332.488C119.694 332.997 119.37 333.506 119.037 334.03C117.984 335.743 116.975 337.474 115.972 339.211C107.378 353.801 98.4204 367.739 86.3044 380.161C85.769 380.721 85.2336 381.281 84.682 381.858C81.6148 385.024 78.4604 387.906 74.8421 390.551C73.9725 391.201 73.9725 391.201 73.0853 391.864C69.2989 394.578 65.49 396.795 61.1885 398.764C60.7508 398.965 60.3132 399.167 59.8623 399.375C53.0765 402.361 44.3299 403.638 36.9575 401.629C24.3737 396.239 12.7777 383.9 8.03308 372.251C3.53653 360.471 4.37591 347.962 10.1559 336.652C14.4166 329.491 20.3978 323.654 26.5482 317.798C30.3344 314.191 33.9125 310.452 37.4507 306.645C38.4493 305.577 39.4583 304.518 40.471 303.461C44.7785 298.96 48.9153 294.367 52.9371 289.654C54.0098 288.401 55.0898 287.153 56.1711 285.906C66.4791 274.051 66.4791 274.051 75.8535 261.59C81.4797 253.489 87.8046 245.92 95.0697 238.976C95.8181 238.176 96.5628 237.374 97.3031 236.569C104.861 228.76 113.77 222.711 124.063 218.195C123.924 217.789 123.786 217.384 123.644 216.966C123.462 216.426 123.28 215.886 123.093 215.33C122.913 214.798 122.733 214.267 122.548 213.719C119.924 205.275 120.924 196.441 124.063 188.247C124.382 187.383 124.382 187.383 124.708 186.502C126.439 182.335 128.881 178.592 131.353 174.762C135.162 168.843 138.279 162.882 140.919 156.465C141.09 156.073 141.261 155.681 141.437 155.276C144.233 148.762 144.809 142.083 145.417 135.173C146.894 118.387 149.664 101.203 157.151 85.6721C157.902 84.0739 158.609 82.4614 159.316 80.8467C164.414 69.2986 170.518 59.9313 179.393 50.4686C181.022 48.5072 182.248 46.4333 183.523 44.2731C187.72 37.3586 192.918 31.4014 198.905 25.67C199.473 25.1154 200.042 24.5607 200.627 23.9892C219.033 6.57933 254.198 -5.1426 277.792 11.0014Z" fill="#F58F3A"/>
<path d="M124.737 243.254C129.853 243.633 134.634 244.644 139.597 245.811C140.469 246.013 141.342 246.215 142.215 246.417C144.089 246.85 145.961 247.286 147.834 247.723C150.826 248.422 153.819 249.116 156.812 249.809C160.501 250.663 164.189 251.518 167.877 252.375C174.804 253.985 181.735 255.584 188.667 257.178C189.184 257.297 189.701 257.415 190.234 257.538C195.865 258.832 201.496 260.125 207.128 261.417C207.62 261.53 208.112 261.643 208.619 261.76C211.531 262.428 211.531 262.428 214.442 263.095C219.844 264.334 225.245 265.578 230.643 266.832C233.202 267.426 235.762 268.016 238.323 268.605C239.444 268.864 240.564 269.125 241.683 269.387C243.169 269.736 244.656 270.078 246.145 270.419C246.945 270.605 247.746 270.791 248.57 270.982C252.748 271.699 255.727 271.731 259.329 269.509C263.514 266.394 267.857 262.797 270.934 258.744C273.712 256.026 276.738 255.029 280.783 254.649C283.134 254.568 285.475 254.529 287.827 254.526C290.671 254.52 293.514 254.466 296.358 254.415C297.28 254.4 297.28 254.4 298.22 254.384C332.316 253.759 367.869 252.135 401.181 245.088C400.75 251.602 400.251 258.11 399.687 264.617C399.607 265.546 399.527 266.474 399.448 267.403C399.234 269.89 399.019 272.377 398.804 274.864C398.579 277.476 398.354 280.088 398.129 282.7C397.705 287.631 397.28 292.561 396.854 297.492C396.369 303.112 395.885 308.731 395.401 314.351C394.407 325.898 393.412 337.444 392.415 348.99C392.01 349.026 391.605 349.062 391.188 349.099C386.912 349.477 382.636 349.856 378.36 350.235C376.772 350.376 375.183 350.516 373.594 350.657C363.746 351.528 353.9 352.414 344.063 353.389C340.385 353.752 336.781 354.077 333.081 353.879C332.636 353.476 332.191 353.073 331.733 352.657C330.843 352.657 329.953 352.657 329.036 352.657C328.813 354.876 328.591 357.094 328.361 359.38C321.216 359.639 313.609 359.385 307.936 354.968C304.135 351.373 302.398 347.659 300.796 342.954C298.225 336.435 293.91 331.588 287.822 327.56C283.315 324.547 281.558 321.816 279.802 317.067C278.898 314.753 277.708 312.654 276.444 310.485C275.776 310.485 275.109 310.485 274.421 310.485C271.422 314.222 270.99 317.537 271.724 322.098C273.012 325.594 275.241 328.428 277.624 331.38C279.621 333.866 280.416 335.534 280.489 338.6C272.935 337.672 266.609 330.602 261.303 326.038C259.989 324.922 258.637 323.849 257.27 322.785C255.611 321.489 254.044 320.15 252.508 318.736C250.038 316.467 247.445 314.368 244.754 312.319C244.324 311.975 243.893 311.631 243.45 311.278C240.055 308.726 236.972 307.898 232.617 307.429C232.801 313.925 236.535 317.243 241.383 321.486C242.563 322.555 243.743 323.625 244.922 324.695C245.47 325.187 246.018 325.678 246.582 326.185C255.542 334.39 255.542 334.39 255.542 338.6C250.717 338.422 247.215 336.37 243.11 334.207C242.373 333.826 241.636 333.446 240.877 333.053C237.121 331.107 233.389 329.128 229.665 327.133C220.682 322.302 220.682 322.302 211.42 317.934C210.987 317.739 210.553 317.543 210.106 317.342C206.923 316.002 203.753 315.39 200.253 315.374C200.031 315.576 199.808 315.778 199.579 315.986C199.579 319.432 200.685 321.312 203.277 323.8C206.231 326.158 209.499 328.084 212.772 330.057C215.793 331.88 218.729 333.797 221.661 335.735C228.174 340.028 234.773 344.209 241.383 348.379C240.938 348.58 240.493 348.782 240.034 348.99C238.152 348.23 236.368 347.427 234.556 346.545C233.996 346.276 233.437 346.007 232.861 345.73C227.357 343.034 222.067 340.039 216.798 336.983C207.888 331.341 207.888 331.341 197.556 330.043C196.685 330.706 196.685 330.706 196.671 332.297C196.966 335.128 198.286 336.986 200.686 338.846C201.926 339.674 203.185 340.462 204.467 341.235C205.996 342.177 207.511 343.13 209.018 344.1C209.018 344.302 209.018 344.504 209.018 344.712C207.906 344.913 206.793 345.115 205.647 345.323C206.637 350.267 211.845 353.378 216.114 356.086C216.475 356.31 216.837 356.535 217.209 356.767C218.679 357.685 220.141 358.613 221.603 359.543C223.932 361.023 226.263 362.502 228.596 363.978C231.462 365.796 234.321 367.623 237.169 369.465C237.745 369.837 237.745 369.837 238.334 370.216C240.277 371.476 242.17 372.775 244.037 374.125C249.397 377.808 255.908 380.718 262.284 382.605C261.358 384.665 260.565 385.514 258.323 386.425C247.883 389.694 236.583 386.959 226.359 384.363C225.006 384.031 223.653 383.701 222.299 383.373C218.716 382.499 215.139 381.607 211.562 380.711C207.861 379.788 204.154 378.881 200.448 377.974C194.566 376.532 188.687 375.081 182.81 373.624C175.66 371.853 168.501 370.112 161.336 368.393C160.848 368.276 160.36 368.158 159.857 368.038C157.552 367.484 155.247 366.931 152.942 366.379C148.905 365.411 144.869 364.44 140.835 363.465C140.166 363.305 139.498 363.145 138.81 362.979C137.911 362.762 137.911 362.762 136.995 362.54C136.478 362.415 135.962 362.291 135.43 362.163C134.176 361.825 134.176 361.825 132.828 361.214C132.241 359.618 132.026 358.515 131.913 356.867C131.877 356.358 131.84 355.848 131.803 355.324C131.749 354.492 131.749 354.492 131.693 353.643C131.652 353.061 131.612 352.479 131.571 351.88C131.439 349.962 131.312 348.043 131.184 346.125C131.094 344.787 131.003 343.449 130.912 342.112C130.327 333.421 129.826 324.729 129.381 316.032C128.925 307.193 128.234 298.379 127.41 289.562C126.82 283.076 126.654 276.654 126.76 270.146C127.555 269.836 128.35 269.525 129.169 269.205C129.643 269.02 130.117 268.835 130.606 268.644C131.589 268.26 132.573 267.877 133.557 267.496C138.275 265.904 138.275 265.904 141.593 262.812C142.261 262.61 142.928 262.409 143.616 262.201C143.348 260.437 143.083 259.865 141.551 258.687C141.12 258.434 140.689 258.182 140.245 257.923C140.829 257.683 141.413 257.444 142.015 257.197C144.465 256.004 146.257 254.693 148.336 253.033C148.002 251.52 148.002 251.52 147.661 249.977C142.527 248.821 137.681 248.603 132.406 248.678C131.665 248.684 130.924 248.689 130.16 248.695C128.352 248.709 126.544 248.729 124.737 248.755C124.737 246.939 124.737 245.124 124.737 243.254Z" fill="#CE4C28"/>
<path d="M277.792 11.0014C281.644 14.273 284.49 17.6032 286.558 22.0029C287.309 21.9525 288.06 21.902 288.833 21.8501C298.337 21.8955 306.893 28.827 313.278 34.5714C315.202 36.3992 316.902 38.3792 318.569 40.4007C319.509 41.6277 319.509 41.6277 320.945 42.1722C321.484 42.9795 321.984 43.809 322.462 44.648C324.177 47.5282 326.189 50.0707 328.361 52.677C350.097 79.4659 358.489 108.582 362.744 141.01C365.503 161.907 370.501 179.315 386.655 195.013C400.11 208.116 418.274 227.593 418.079 246.501C418.073 247.267 418.067 248.034 418.061 248.824C418.049 249.697 418.049 249.697 418.037 250.588C417.369 250.79 416.702 250.992 416.014 251.199C415.695 250.792 415.376 250.385 415.048 249.965C412.221 246.393 409.286 242.946 406.188 239.565C404.667 237.881 403.191 236.173 401.724 234.451C395.121 226.726 388.96 221.544 378.172 219.15C373.582 218.127 370.66 216.862 367.102 213.95C356.874 206.197 342.47 205.002 329.71 205.971C328.394 206.163 327.081 206.369 325.77 206.587C321.404 207.295 317.154 207.375 312.727 207.346C311.978 207.351 311.23 207.356 310.458 207.361C301.443 207.341 293.183 205.742 286.5 199.941C282.825 196.229 282.059 192.529 281.838 187.636C282.67 187.136 282.67 187.136 283.518 186.626C288.486 183.6 293.01 180.394 297.346 176.634C297.8 176.261 298.255 175.887 298.723 175.502C308.988 166.773 316.424 154.121 320.12 141.897C320.945 140.574 320.945 140.574 322.804 139.87C323.928 139.632 323.928 139.632 325.074 139.39C331.023 137.896 334.627 135.691 337.796 130.871C340.322 126.042 340.931 120.4 339.36 115.205C338.722 113.975 338.014 112.941 337.127 111.848C336.848 111.474 336.57 111.099 336.284 110.714C334.37 108.402 332.589 107.271 329.668 106.118C326.407 104.773 325.286 103.41 323.839 100.491C322.952 98.9866 322.033 98.069 320.697 96.8809C317.596 93.746 316.551 90.2307 315.256 86.2543C310.044 71.2757 302.446 56.9762 292.626 44.0057C292.511 44.5667 292.396 45.1277 292.278 45.7056C290.823 52.3836 288.99 56.7705 283.861 61.7303C283.416 61.5286 282.971 61.3269 282.512 61.1191C282.788 60.6905 283.065 60.2619 283.35 59.8203C286.273 55.154 288.209 51.3233 287.906 45.8393C287.766 46.2396 287.626 46.6398 287.482 47.0521C282.003 61.7638 269.846 71.4365 254.868 78.2324C248.221 81.0151 241.374 82.5112 234.134 80.6008C229.451 78.9679 226.524 76.3077 224.342 72.2566C223.674 70.4053 223.439 68.5486 223.178 66.6198C222.81 67.0712 222.443 67.5227 222.064 67.9878C218.514 72.3166 214.864 76.5416 211.041 80.6772C210.751 80.9935 210.46 81.3098 210.16 81.6358C204.428 87.8577 198.374 93.7939 192.162 99.6241C191.674 100.085 191.186 100.546 190.683 101.021C189.96 101.694 189.96 101.694 189.223 102.379C188.566 102.993 188.566 102.993 187.896 103.619C186.768 104.514 186.768 104.514 185.42 104.514C185.434 105.308 185.447 106.102 185.462 106.92C185.467 109.827 185.149 112.633 184.745 115.515C178.901 114.68 173.454 112.999 167.889 111.237C169.244 112.465 171.478 112.768 173.283 113.3C173.739 113.436 174.196 113.572 174.666 113.712C175.58 113.984 176.494 114.256 177.408 114.527C179.055 115.016 180.699 115.513 182.343 116.012C183.136 116.251 183.929 116.491 184.745 116.737C185.395 119.219 185.531 121.562 185.546 124.11C185.556 124.848 185.565 125.586 185.575 126.347C185.43 128.22 185.16 129.23 184.071 130.795C183.626 130.795 183.181 130.795 182.723 130.795C182.269 128.911 181.821 127.026 181.374 125.141C181.245 124.608 181.117 124.075 180.984 123.525C180.863 123.009 180.741 122.493 180.616 121.961C180.503 121.488 180.39 121.014 180.273 120.526C180.026 119.182 180.026 119.182 180.026 116.737C173.434 117.281 168.022 118.37 163.275 122.783C159.101 127.493 157.769 132.129 158.45 138.129C159.478 142.948 162.258 146.471 166.035 149.895C171.076 152.802 176.06 154.22 182.048 153.409C183.876 152.847 185.581 152.208 187.313 151.439C188.791 150.964 188.791 150.964 190.195 151.007C192.074 151.833 192.642 152.965 193.679 154.593C196.033 158.116 198.693 161.254 201.602 164.41C201.949 164.8 202.295 165.19 202.653 165.592C205.169 168.367 207.993 170.68 211.041 172.967C211.579 173.372 212.117 173.777 212.672 174.194C213.512 174.816 213.512 174.816 214.37 175.45C215.211 176.073 215.211 176.073 216.069 176.708C217.735 177.889 217.735 177.889 219.562 178.68C221.34 179.508 222.549 180.143 223.852 181.524C225.279 187.627 223.555 193.881 219.975 199.095C216.006 204.096 211.187 206.934 204.47 208.136C202.219 208.423 200.1 208.481 197.828 208.466C196.957 208.462 196.086 208.458 195.188 208.454C194.497 208.449 194.497 208.449 193.792 208.443C192.337 208.433 190.883 208.426 189.428 208.421C185.293 208.407 181.158 208.385 177.024 208.357C174.488 208.341 171.952 208.331 169.416 208.324C168.455 208.32 167.495 208.314 166.535 208.306C157.2 208.177 157.2 208.177 148.546 211.052C148.042 211.317 147.538 211.581 147.019 211.854C145.745 212.629 144.745 213.439 143.658 214.413C141.074 216.087 139.412 216.071 136.315 216.037C134.851 215.75 134.851 215.75 133.502 213.917C131.072 214.111 129.793 214.685 128.024 216.132C127.064 216.851 127.064 216.851 126.085 217.584C124.063 216.973 124.063 216.973 123.275 215.583C119.942 206.392 120.584 197.329 124.063 188.247C124.276 187.671 124.488 187.095 124.708 186.502C126.439 182.335 128.881 178.592 131.353 174.762C135.162 168.843 138.279 162.882 140.919 156.465C141.09 156.073 141.261 155.681 141.437 155.276C144.233 148.762 144.809 142.083 145.417 135.173C146.894 118.387 149.664 101.203 157.151 85.6721C157.902 84.0739 158.609 82.4614 159.316 80.8467C164.414 69.2986 170.518 59.9313 179.394 50.4686C181.022 48.5072 182.248 46.4333 183.523 44.2731C187.72 37.3586 192.918 31.4014 198.905 25.67C199.473 25.1154 200.042 24.5607 200.627 23.9892C219.033 6.57933 254.198 -5.1426 277.792 11.0014Z" fill="#373632"/>
<path d="M291.952 43.3945C294.21 45.2728 295.802 47.32 297.346 49.6974C297.73 50.2851 297.73 50.2851 298.121 50.8846C305.705 62.6678 312.287 74.6888 316.562 87.7823C318 92.1678 319.366 95.4388 323.146 98.6333C324.739 99.9827 325.553 101.466 326.339 103.291C326.339 103.695 326.339 104.098 326.339 104.514C326.784 104.539 327.229 104.564 327.687 104.59C332.783 105.937 336.465 109.66 339.149 113.681C341.44 117.862 341.163 123.206 340.058 127.691C337.837 133.256 334.013 136.82 328.174 139.347C326.339 139.963 326.339 139.963 324.995 140.138C323.501 140.35 322.305 140.582 320.945 141.185C319.8 142.734 319.399 144.391 318.922 146.189C318.602 147.196 318.276 148.201 317.942 149.205C317.775 149.708 317.607 150.211 317.435 150.73C313.932 160.251 306.244 168.889 298.694 176.023C298.202 176.5 297.71 176.978 297.203 177.47C293.173 181.277 288.747 184.275 283.734 186.948C282.299 188.473 282.313 188.864 282.428 190.806C283.318 195.347 285.82 199.239 289.826 202.092C297.107 206.224 304.279 206.693 312.643 206.697C313.39 206.705 314.137 206.712 314.907 206.72C319.324 206.727 323.435 206.369 327.775 205.644C341.828 203.58 355.773 206.153 367.529 213.36C370.882 215.65 370.882 215.65 372.188 216.973C372.188 219.417 372.188 219.417 371.147 220.425C368.989 221.501 366.982 221.843 364.56 222.244C363.701 222.391 362.841 222.537 361.955 222.688C361.105 222.819 360.254 222.95 359.377 223.085C358.695 223.192 358.012 223.299 357.309 223.41C353.994 223.767 350.741 223.782 347.406 223.778C346.683 223.779 345.96 223.78 345.215 223.782C342.795 223.786 340.375 223.785 337.955 223.785C336.218 223.786 334.481 223.788 332.744 223.791C328.515 223.796 324.287 223.798 320.058 223.798C316.615 223.798 313.171 223.799 309.728 223.801C299.943 223.807 290.159 223.81 280.374 223.809C279.847 223.809 279.32 223.809 278.777 223.809C278.249 223.809 277.721 223.809 277.178 223.809C268.649 223.809 260.12 223.815 251.591 223.823C242.812 223.832 234.033 223.836 225.254 223.836C220.334 223.835 215.414 223.837 210.494 223.844C205.857 223.85 201.22 223.85 196.583 223.845C194.892 223.845 193.201 223.846 191.51 223.85C154.778 223.925 154.778 223.925 142.267 216.973C142.267 214.528 142.267 214.528 143.234 213.573C149.306 209.625 154.677 207.705 162.223 207.755C163.094 207.759 163.965 207.763 164.863 207.767C165.554 207.772 165.554 207.772 166.259 207.778C167.714 207.788 169.169 207.795 170.624 207.8C174.758 207.814 178.893 207.836 183.028 207.863C185.564 207.88 188.1 207.89 190.635 207.897C191.596 207.901 192.556 207.907 193.517 207.915C201.793 207.988 209.929 207.613 216.467 202.433C221.53 197.51 223.083 192.186 223.557 185.611C223.614 184.844 223.67 184.078 223.728 183.288C223.769 182.706 223.81 182.124 223.852 181.524C223.157 181.317 223.157 181.317 222.448 181.106C220.005 180.107 218.043 178.721 215.972 177.207C215.558 176.907 215.143 176.608 214.717 176.299C207.369 170.941 201.255 165.315 195.66 158.451C195.336 158.054 195.012 157.656 194.678 157.246C193.208 155.417 191.819 153.661 190.814 151.575C188.675 151.878 187.004 152.358 184.998 153.141C179.989 154.851 175.37 154.46 170.418 152.759C164.552 150.304 160.982 146.553 158.45 141.185C156.898 135.568 157.396 130.383 160.472 125.294C163.414 121.094 168.116 118.299 173.283 116.737C174.448 116.696 175.615 116.686 176.781 116.699C177.692 116.707 177.692 116.707 178.622 116.716C179.085 116.723 179.548 116.73 180.026 116.737C180.48 118.506 180.928 120.276 181.374 122.047C181.503 122.546 181.631 123.045 181.764 123.56C182.377 126.011 182.905 128.263 182.723 130.795C183.168 130.593 183.613 130.391 184.071 130.184C184.706 128.458 184.824 127.415 184.811 125.631C184.809 125.113 184.807 124.595 184.805 124.061C184.799 123.522 184.793 122.984 184.788 122.429C184.785 121.884 184.781 121.338 184.778 120.776C184.77 119.43 184.759 118.084 184.745 116.737C184.034 116.592 184.034 116.592 183.307 116.444C177.771 115.258 172.535 113.653 167.215 111.848C167.437 111.445 167.66 111.041 167.889 110.626C173.452 112.239 179.014 113.853 184.745 115.515C184.756 111.969 184.756 111.969 184.703 108.424C184.773 106.392 184.952 105.015 186.428 103.432C187.334 102.727 188.263 102.044 189.207 101.381C193.605 98.244 197.415 94.3707 201.043 90.5207C202.485 89.0155 203.982 87.5623 205.479 86.1015C210.097 81.5093 214.227 76.5827 218.379 71.643C218.69 71.2742 219 70.9054 219.321 70.5254C219.916 69.8181 220.508 69.1092 221.098 68.3987C221.776 67.5911 222.475 66.7981 223.178 66.0086C223.4 66.0086 223.623 66.0086 223.852 66.0086C223.928 66.6515 223.928 66.6515 224.005 67.3074C224.654 71.5557 225.722 74.6505 229.246 77.6212C234.657 80.8659 240.518 81.4413 246.832 80.3023C262.092 76.4306 275.261 67.1485 283.23 54.8191C284.626 52.5296 285.652 50.1504 286.558 47.6729C286.836 46.9417 287.114 46.2106 287.4 45.4573C287.651 44.7388 287.651 44.7388 287.906 44.0057C288.129 44.0057 288.351 44.0057 288.58 44.0057C288.932 50.5851 286.949 55.5377 283.186 61.1191C289.353 55.8399 290.717 50.7555 291.952 43.3945Z" fill="#F6A181"/>
<path d="M116.646 223.696C116.01 224.275 116.01 224.275 115.36 224.866C107.781 232.047 101.913 240.547 101.644 250.779C101.479 253.634 100.934 254.804 98.6095 256.738C98.1245 257.118 97.6395 257.498 97.1398 257.889C91.4717 262.988 90.9023 271.095 90.7713 277.901C90.2971 290.35 85.1996 301.76 75.3662 310.611C72.9867 312.606 70.7946 314.189 67.8889 315.489C64.7091 317.222 64.1356 319.69 63.2481 322.826C60.9436 332.713 59.9136 342.328 59.6292 352.428C59.6001 353.401 59.5707 354.374 59.541 355.348C59.4696 357.71 59.4011 360.073 59.3343 362.436C62.9495 360.626 62.9495 360.626 66.3191 358.475C66.6916 358.208 67.0641 357.941 67.4479 357.666C67.8298 357.387 68.2117 357.108 68.6052 356.821C69.2192 356.377 69.2192 356.377 69.8456 355.924C70.6752 355.323 71.5035 354.721 72.3304 354.117C73.3651 353.362 74.4048 352.613 75.4452 351.864C84.2342 345.472 92.4289 339.028 97.6824 329.814C101.871 322.544 108.394 316.36 114.623 310.485C114.969 310.158 115.314 309.831 115.671 309.495C116.734 308.495 117.805 307.502 118.879 306.512C119.203 306.211 119.526 305.91 119.859 305.6C121.984 303.669 124.177 302.106 126.76 300.706C127.205 300.706 127.65 300.706 128.108 300.706C127.886 300.302 127.663 299.899 127.434 299.483C127.386 298.032 127.377 296.58 127.392 295.129C127.398 294.346 127.404 293.562 127.41 292.756C127.422 291.85 127.422 291.85 127.434 290.927C127.656 290.927 127.879 290.927 128.108 290.927C128.572 295.815 129.022 300.705 129.457 305.595C129.5 306.076 129.542 306.557 129.587 307.053C130.181 313.907 130.201 320.727 130.131 327.598C129.74 327.542 129.349 327.485 128.946 327.426C125.698 327.143 125.698 327.143 122.901 328.451C121.808 329.748 120.903 331.066 120.017 332.488C119.694 332.997 119.37 333.506 119.037 334.03C117.984 335.743 116.975 337.474 115.972 339.211C107.378 353.801 98.4204 367.739 86.3044 380.161C85.769 380.721 85.2336 381.281 84.682 381.858C81.6148 385.024 78.4604 387.906 74.8421 390.551C73.9725 391.201 73.9725 391.201 73.0853 391.864C69.2989 394.578 65.49 396.795 61.1885 398.764C60.7508 398.965 60.3132 399.167 59.8623 399.375C53.0765 402.361 44.3299 403.638 36.9575 401.629C24.3737 396.239 12.7777 383.9 8.03308 372.251C3.53653 360.471 4.37591 347.962 10.1559 336.652C14.4166 329.491 20.3978 323.654 26.5482 317.798C30.3344 314.191 33.9125 310.452 37.4507 306.645C38.4493 305.577 39.4583 304.518 40.471 303.461C44.7785 298.96 48.9153 294.367 52.9371 289.654C54.0098 288.401 55.0898 287.153 56.1711 285.906C66.4791 274.051 66.4791 274.051 75.8535 261.59C81.4797 253.488 87.8046 245.92 95.0697 238.976C95.8181 238.176 96.5628 237.374 97.3031 236.569C111.256 222.067 111.256 222.067 116.646 223.696Z" fill="#F6913D"/>
<path d="M232.617 307.429C233.629 307.433 234.641 307.464 235.652 307.505C236.496 307.527 236.496 307.527 237.358 307.548C242.508 308.814 246.524 313.101 250.274 316.368C251.28 317.235 252.286 318.101 253.293 318.968C253.786 319.393 254.279 319.819 254.787 320.257C258.148 323.148 261.56 325.989 264.982 328.821C265.477 329.234 265.972 329.646 266.483 330.072C270.683 333.499 275.135 336.832 280.489 338.6C279.47 335.078 278.193 332.581 275.77 329.661C272.166 325.32 270.633 322.04 270.755 316.571C271.198 313.855 272.52 311.967 274.421 309.874C275.619 309.907 275.619 309.907 277.118 310.485C278.051 311.943 278.799 313.299 279.52 314.84C279.716 315.238 279.912 315.637 280.114 316.048C280.889 317.632 281.651 319.218 282.345 320.833C283.333 323.087 284.25 324.559 286.347 326.07C286.821 326.426 287.296 326.781 287.785 327.147C288.512 327.673 288.512 327.673 289.255 328.209C295.441 332.698 300.208 338.129 302.234 345.17C303.837 350.162 306.919 354.238 311.869 356.92C314.505 357.916 317.137 357.999 319.963 358.186C329.476 358.85 329.476 358.85 332.34 360.916C334.281 363.184 335.23 365.74 336.058 368.485C336.648 370.407 337.501 372.232 338.307 374.087C344.874 391.805 344.874 391.805 342.521 398.496C340.741 398.295 338.961 398.093 337.127 397.885C336.904 398.692 336.682 399.499 336.452 400.33C336.23 399.322 336.007 398.313 335.778 397.274C335.385 397.215 334.993 397.155 334.588 397.094C330.601 396.465 326.651 395.727 322.704 394.922C322.183 394.816 321.662 394.71 321.125 394.601C320.016 394.375 318.906 394.149 317.797 393.923C309.315 392.196 300.828 390.538 292.281 389.095C291.23 388.916 291.23 388.916 290.158 388.735C286.761 388.161 283.363 387.598 279.961 387.05C269.932 385.399 259.845 383.288 250.864 378.747C250.154 378.397 250.154 378.397 249.429 378.04C245.995 376.296 243.036 374.257 240.066 371.912C237.441 369.957 234.672 368.246 231.859 366.524C231.038 366.02 231.038 366.02 230.2 365.506C229.086 364.822 227.972 364.139 226.858 363.456C209.015 352.475 209.015 352.475 204.973 347.156C205.099 345.705 205.099 345.705 205.647 344.712C206.982 344.409 206.982 344.409 208.344 344.1C207.694 343.702 207.044 343.303 206.374 342.892C205.514 342.353 204.653 341.814 203.793 341.274C203.365 341.013 202.938 340.752 202.497 340.483C199.722 338.728 197.866 337.065 196.208 334.321C195.955 332.335 195.955 332.335 196.208 330.654C197.556 329.432 197.556 329.432 200.127 329.088C207.348 329.285 214.308 334.78 220.213 338.208C224.056 340.428 227.958 342.518 231.943 344.521C232.455 344.779 232.967 345.036 233.495 345.302C235.453 346.275 237.235 347.125 239.36 347.768C233.412 343.856 227.456 339.956 221.45 336.117C220.986 335.819 220.521 335.521 220.043 335.214C217.596 333.648 215.137 332.099 212.661 330.571C199.884 322.642 199.884 322.642 198.863 317.896C198.905 315.986 198.905 315.986 200.253 314.763C204.557 314.541 208.321 315.927 212.095 317.628C212.64 317.868 213.184 318.108 213.746 318.355C219.68 321.025 225.359 324.094 231.056 327.154C235.523 329.552 240.023 331.892 244.543 334.207C245.256 334.576 245.969 334.946 246.703 335.327C247.37 335.667 248.036 336.007 248.723 336.358C249.309 336.659 249.894 336.96 250.497 337.269C252.192 337.998 253.695 338.344 255.542 338.6C254.337 334.777 252.726 332.736 249.537 330.033C248.237 328.916 247.087 327.769 245.934 326.529C243.483 323.937 240.822 321.554 238.129 319.171C234.512 315.947 232.66 314.051 232.575 309.415C232.589 308.76 232.603 308.104 232.617 307.429Z" fill="#F7A281"/>
<path d="M291.952 43.3945C294.21 45.2728 295.802 47.32 297.346 49.6974C297.73 50.2851 297.73 50.2851 298.121 50.8846C305.512 62.3683 311.842 74.2105 316.604 86.7891C316.782 87.2538 316.96 87.7185 317.144 88.1972C318.329 91.4562 318.329 91.4562 317.573 93.5122C317.198 93.3128 316.822 93.1135 316.435 92.9081C307.852 88.4525 299.368 86.523 289.55 88.9282C282.506 91.1074 276.986 95.1242 273.073 100.846C272.731 101.329 272.389 101.812 272.037 102.31C268.378 108.621 269.4 115.93 269.701 122.849C269.108 122.879 268.514 122.909 267.902 122.94C266.728 123.009 266.728 123.009 265.529 123.079C264.368 123.142 264.368 123.142 263.183 123.207C261.071 123.445 259.484 123.877 257.565 124.683C257.547 124.187 257.53 123.692 257.512 123.181C257.022 114.502 253.849 107.324 246.869 101.238C244.015 99.2516 239.684 96.5681 235.989 96.5681C236.607 96.8202 237.226 97.0724 237.864 97.3321C246.702 101.048 251.519 105.425 255.542 113.681C257.512 119.989 257.012 127.686 253.843 133.519C250.049 139.427 245.106 144.106 238.011 146.686C237.412 146.905 236.812 147.124 236.194 147.349C229.796 148.954 221.07 148.748 215.087 146.075C207.599 142.221 202.214 136.81 199.524 129.396C197.542 122.134 198.75 114.632 202.655 108.104C206.544 102.629 211.91 99.0813 218.458 96.5681C217.664 96.6 217.664 96.6 216.854 96.6326C212.544 96.7333 209.453 96.6163 205.647 94.7346C205.31 93.3976 205.31 93.3976 205.647 91.6786C208.066 89.7203 210.95 88.6016 213.991 87.6677C216.709 86.6906 216.708 86.5751 217.784 84.3443C218.935 82.818 220.196 81.3712 221.45 79.9132C221.781 79.5161 222.111 79.119 222.452 78.7099C223.32 77.6998 224.256 76.7392 225.201 75.7876C227.605 75.7876 227.962 76.1884 229.752 77.5448C234.345 80.7485 239.102 81.1962 244.754 80.6772C258.382 78.1939 272.42 69.6608 280.187 59.2598C282.854 55.5628 285.018 51.8823 286.558 47.6729C286.836 46.9417 287.114 46.2106 287.4 45.4573C287.651 44.7388 287.651 44.7388 287.906 44.0057C288.129 44.0057 288.351 44.0057 288.58 44.0057C288.932 50.5851 286.949 55.5377 283.186 61.1191C289.353 55.8399 290.716 50.7555 291.952 43.3945Z" fill="#F6A281"/>
<path d="M132.965 213.52C133.565 213.717 133.565 213.717 134.176 213.917C135.028 216.541 134.601 218.121 133.502 220.64C134.156 220.627 134.809 220.615 135.483 220.602C137.548 220.64 137.548 220.64 138.222 221.251C138.599 225.147 138.086 227.84 135.525 231.03C134.066 232.404 132.571 233.731 131.048 235.046C126.378 239.152 122.821 244.052 120.017 249.366C120.509 249.278 121.001 249.189 121.508 249.098C129.652 247.786 139.708 246.759 147.661 249.366C148.106 249.769 148.551 250.173 149.01 250.588C148.951 252.741 148.505 253.494 146.795 255.012C146.177 255.431 145.559 255.849 144.922 256.28C144.303 256.706 143.683 257.132 143.044 257.572C142.565 257.889 142.087 258.207 141.593 258.534C142.483 259.139 143.373 259.744 144.29 260.367C143.956 261.577 143.956 261.577 143.616 262.812C142.948 262.812 142.281 262.812 141.593 262.812C141.259 263.72 141.259 263.72 140.919 264.646C139.187 265.567 137.497 266.381 135.693 267.167C135.21 267.387 134.727 267.606 134.229 267.833C131.716 268.951 129.521 269.672 126.76 270.146C126.79 270.521 126.82 270.896 126.852 271.282C127.162 275.187 127.428 279.093 127.669 283.001C127.765 284.459 127.871 285.916 127.99 287.373C128.158 289.469 128.286 291.564 128.406 293.663C128.467 294.312 128.527 294.962 128.59 295.631C128.673 297.476 128.673 298.931 128.108 300.706C126.313 302.354 124.289 303.31 122.04 304.373C120.381 305.607 120.381 305.607 119.053 306.837C118.563 307.278 118.072 307.718 117.567 308.173C117.068 308.633 116.57 309.094 116.056 309.568C115.529 310.051 115.002 310.534 114.459 311.032C107.615 317.392 101.561 324.281 96.8896 332.127C92.7476 338.939 86.2151 344.752 79.5618 349.601C79.2057 349.864 78.8496 350.127 78.4826 350.397C75.4932 352.602 72.4789 354.777 69.448 356.935C68.8457 357.365 68.8457 357.365 68.2312 357.804C67.1245 358.59 66.0122 359.368 64.8968 360.144C64.2606 360.589 63.6244 361.033 62.9689 361.491C61.357 362.436 61.357 362.436 59.3342 362.436C58.801 334.291 58.801 334.291 63.3798 320.875C63.6162 320.106 63.8526 319.337 64.0962 318.545C65.7503 316.078 67.7054 314.983 70.3356 313.412C80.174 307.467 86.619 297.431 89.3069 287.076C89.795 284.083 89.9035 281.113 90.0128 278.092C90.2679 271.051 90.9734 264.38 95.7439 258.534C96.5637 257.913 97.3927 257.301 98.2302 256.7C101.149 254.26 101.048 251.241 101.343 247.866C102.25 238.195 108.783 230.507 115.972 223.696C115.638 223.091 115.638 223.091 115.297 222.473C116.013 222.119 116.73 221.764 117.468 221.399C118.43 220.918 119.392 220.435 120.354 219.952C121.096 219.58 121.096 219.58 121.853 219.199C124.933 217.629 127.758 215.982 130.415 213.855C131.479 213.306 131.479 213.306 132.965 213.52Z" fill="#F7A280"/>
<path d="M172.216 236.371C174.604 236.378 176.992 236.374 179.38 236.367C193.2 236.333 206.949 236.563 220.523 239.167C221.23 239.299 221.936 239.431 222.664 239.568C227.796 240.569 232.59 241.793 237.337 243.865C238.086 244.19 238.086 244.19 238.849 244.522C243.143 246.553 247.112 249.124 251.123 251.577C253.681 253.139 256.282 254.629 258.913 256.089C258.991 255.734 259.068 255.378 259.148 255.012C260.741 250.057 265.725 246.989 270.376 244.476C288.782 235.449 311.212 237.616 331.039 240.515C334.785 241.054 338.403 241.496 342.202 241.517C343.468 241.526 343.468 241.526 344.759 241.536C345.426 241.539 345.426 241.539 346.106 241.542C347.513 241.549 348.92 241.561 350.327 241.575C354.324 241.612 358.321 241.645 362.318 241.666C364.772 241.679 367.225 241.7 369.679 241.727C370.607 241.736 371.536 241.741 372.464 241.743C379.665 241.76 385.224 242.372 391.067 246.31C390.844 246.713 390.622 247.117 390.393 247.532C389.055 247.855 389.055 247.855 387.19 248.105C386.061 248.258 386.061 248.258 384.909 248.413C383.618 248.582 383.618 248.582 382.302 248.755C381.404 248.887 380.507 249.02 379.61 249.153C352.234 253.108 324.02 254.574 296.334 255.029C295.738 255.039 295.141 255.05 294.526 255.06C291.781 255.106 289.038 255.136 286.292 255.139C280.111 255.181 274.935 255.493 270.373 259.594C269.519 260.506 269.519 260.506 268.648 261.437C268.02 262.089 267.391 262.741 266.762 263.392C266.31 263.868 266.31 263.868 265.849 264.353C259.784 270.671 259.784 270.671 255.542 271.98C251.421 272.239 247.835 271.45 243.88 270.533C243.197 270.379 242.514 270.225 241.811 270.066C239.555 269.556 237.302 269.038 235.048 268.52C233.465 268.16 231.881 267.801 230.297 267.441C226.969 266.685 223.643 265.926 220.317 265.164C216.107 264.2 211.894 263.241 207.682 262.284C203.613 261.36 199.546 260.433 195.478 259.505C194.726 259.334 193.973 259.163 193.198 258.986C184.306 256.96 175.435 254.877 166.589 252.693C158.82 250.778 151.008 249.021 143.195 247.265C141.715 246.931 140.236 246.597 138.757 246.263C135.208 245.462 131.658 244.663 128.108 243.865C128.108 243.462 128.108 243.058 128.108 242.643C140.663 235.056 157.798 236.329 172.216 236.371Z" fill="#FEF9EE"/>
<path d="M223.852 184.58C225.461 186.42 226.673 188.321 227.898 190.386C235.158 201.69 247.004 208.9 260.852 212.274C272.695 215.022 285.519 214.795 297.346 212.083C297.877 211.965 298.408 211.847 298.956 211.726C305.991 210.195 305.991 210.195 312.827 208.079C326.456 203.322 345.154 203.621 358.574 208.748C363.459 210.759 368.576 213.314 372.188 216.973C372.188 219.418 372.188 219.418 371.147 220.425C368.989 221.501 366.982 221.843 364.56 222.244C363.701 222.391 362.841 222.537 361.955 222.688C361.105 222.819 360.254 222.95 359.377 223.085C358.695 223.192 358.012 223.299 357.309 223.41C353.994 223.767 350.741 223.782 347.406 223.778C346.683 223.779 345.96 223.78 345.215 223.782C342.795 223.786 340.375 223.785 337.955 223.785C336.218 223.786 334.481 223.789 332.744 223.791C328.515 223.796 324.287 223.798 320.058 223.798C316.615 223.798 313.171 223.799 309.728 223.801C299.943 223.807 290.159 223.81 280.374 223.809C279.847 223.809 279.32 223.809 278.777 223.809C278.249 223.809 277.721 223.809 277.178 223.809C268.649 223.809 260.12 223.815 251.591 223.823C242.812 223.832 234.033 223.836 225.254 223.836C220.334 223.836 215.414 223.837 210.494 223.844C205.857 223.85 201.22 223.85 196.583 223.845C194.892 223.845 193.201 223.846 191.51 223.85C154.778 223.925 154.778 223.925 142.267 216.973C142.267 214.528 142.267 214.528 143.234 213.573C149.306 209.625 154.677 207.705 162.223 207.755C163.53 207.761 163.53 207.761 164.863 207.767C165.554 207.772 165.554 207.772 166.259 207.778C167.714 207.788 169.169 207.795 170.624 207.8C174.758 207.814 178.893 207.836 183.028 207.864C185.564 207.88 188.1 207.89 190.635 207.897C191.596 207.901 192.556 207.907 193.517 207.915C201.793 207.988 209.929 207.613 216.467 202.433C221.878 197.172 223.017 191.582 223.852 184.58Z" fill="#F7A281"/>
<path d="M358.029 352.046C358.681 352.848 359.298 353.674 359.893 354.512C360.252 355.011 360.61 355.51 360.98 356.024C361.341 356.526 361.702 357.029 362.074 357.547C362.714 358.401 363.357 359.253 364.002 360.104C376.288 376.426 384.667 393.852 389.676 413.089C389.827 413.659 389.978 414.23 390.134 414.819C390.267 415.355 390.4 415.892 390.538 416.445C390.657 416.919 390.776 417.392 390.898 417.88C391.093 419.489 390.821 420.77 390.393 422.333C381.197 423.398 372.095 422.538 362.896 421.844C360.581 421.714 358.324 421.621 356.006 421.722C355.561 422.125 355.116 422.528 354.657 422.944C352.314 423.027 350.668 422.84 348.768 421.521C343.497 416.48 337.02 406.708 336.958 399.642C337.014 399.063 337.069 398.483 337.127 397.885C338.907 398.087 340.687 398.289 342.521 398.496C342.994 385.839 338.266 374.212 332.313 362.981C331.733 361.825 331.733 361.825 331.058 359.991C329.501 359.991 327.943 359.991 326.339 359.991C327.006 359.79 327.674 359.588 328.361 359.38C328.361 357.162 328.361 354.943 328.361 352.657C329.474 352.455 330.586 352.254 331.733 352.046C332.178 352.449 332.623 352.853 333.081 353.268C334.926 353.29 336.682 353.237 338.517 353.115C339.053 353.085 339.588 353.054 340.14 353.023C344.479 352.755 348.792 352.323 353.101 351.785C356.541 351.372 356.541 351.372 358.029 352.046Z" fill="#F58F3A"/>
<path d="M315.4 92.7554C321.63 96.9419 325.296 101.969 327.013 108.792C327.135 109.184 327.258 109.577 327.384 109.981C329.153 117.313 326.471 124.438 322.132 130.599C317.627 135.978 311.908 139 304.762 140.574C294.943 141.498 287.097 139.919 279.141 134.462C273.677 130.127 270.227 123.04 269.556 116.561C269.257 109.722 271.522 103.975 275.769 98.4017C276.159 97.8597 276.548 97.3176 276.949 96.7591C287.235 87.1764 303.011 85.6316 315.4 92.7554Z" fill="#F48D72"/>
<path d="M245.341 100.997C250.738 105.027 255.198 110.332 256.216 116.737C256.977 125.133 255.971 132.109 249.919 138.857C246.443 142.29 242.804 144.943 238.011 146.686C237.412 146.905 236.812 147.124 236.194 147.35C229.796 148.954 221.07 148.748 215.087 146.075C207.599 142.221 202.214 136.81 199.524 129.396C197.542 122.134 198.75 114.632 202.655 108.104C206.42 102.804 211.901 98.7157 218.458 96.5681C228.185 94.6726 237.194 95.7253 245.341 100.997Z" fill="#F38C72"/>
<path d="M382.976 356.324C383.444 356.697 383.913 357.07 384.395 357.454C397.971 368.998 407.45 387.146 408.597 403.997C408.67 406.761 408.662 409.522 408.64 412.286C408.637 413.019 408.634 413.753 408.63 414.508C408.623 416.301 408.611 418.095 408.597 419.888C409.933 420.191 409.933 420.191 411.295 420.499C397.139 422.626 397.139 422.626 390.393 422.333C390.356 421.992 390.319 421.65 390.281 421.299C387.612 397.979 375.992 375.582 360.789 356.885C359.542 355.311 358.421 353.723 357.354 352.046C359.794 350.94 362.63 350.991 365.319 350.747C365.928 350.686 366.537 350.626 367.164 350.563C367.755 350.509 368.347 350.455 368.956 350.399C369.495 350.348 370.034 350.298 370.589 350.245C376.082 350.132 379.063 353.188 382.976 356.324Z" fill="#F6913D"/>
<path d="M223.852 182.135C224.194 182.285 224.536 182.436 224.889 182.591C242.004 190.1 258.346 195.202 277.273 189.414C278.819 188.859 280.335 188.281 281.838 187.636C282.849 188.552 282.612 189.412 282.681 190.692C283.168 194.902 285.255 198.316 288.622 201.235C294.941 205.734 302.373 206.56 310.114 206.926C310.902 206.966 310.902 206.966 311.706 207.006C312.988 207.07 314.269 207.132 315.55 207.194C314.876 208.416 314.876 208.416 313.639 208.862C313.105 208.998 312.571 209.133 312.021 209.273C311.429 209.425 310.837 209.578 310.227 209.735C309.592 209.892 308.957 210.049 308.302 210.211C307.659 210.374 307.016 210.536 306.353 210.704C285.325 215.962 264.925 216.725 245.302 207.079C236.133 201.985 227.541 193.856 223.852 184.58C223.852 183.773 223.852 182.966 223.852 182.135Z" fill="#CD6D55"/>
<path d="M68.7739 307.429C70.2877 309.03 70.7426 310.271 71.2602 312.319C71.1072 312.924 70.9542 313.529 70.7966 314.152C69.6825 314.785 69.6825 314.785 68.2682 315.413C65.5388 316.796 64.7832 318.033 63.8434 320.722C60.877 331.204 59.9328 341.645 59.6293 352.428C59.6001 353.401 59.5707 354.374 59.5411 355.348C59.4696 357.711 59.4011 360.073 59.3343 362.436C62.9496 360.626 62.9496 360.626 66.3192 358.475C66.6917 358.208 67.0641 357.941 67.4479 357.666C67.8299 357.387 68.2118 357.108 68.6053 356.821C69.0146 356.525 69.424 356.229 69.8457 355.924C70.6752 355.323 71.5035 354.721 72.3305 354.117C73.3651 353.362 74.4049 352.613 75.4453 351.864C85.0816 344.856 93.3478 337.899 98.9204 327.708C99.7895 326.376 99.7895 326.376 101.812 325.154C101.444 328.35 100.601 331.07 99.1574 334.016C98.8489 334.648 98.8489 334.648 98.5342 335.292C96.1428 340.002 93.0482 344.206 89.6757 348.379C89.2446 348.919 88.8135 349.46 88.3694 350.017C80.6442 359.08 68.7088 372.269 55.9631 375.271C53.2868 375.223 52.2906 374.989 50.3583 373.285C42.9541 362.347 49.5385 338.512 52.4838 326.679C54.3532 319.799 56.9118 312.076 63.0427 307.353C65.2887 306.64 66.5287 306.721 68.7739 307.429Z" fill="#EB8425"/>
<path d="M141.593 215.75C141.992 215.799 142.39 215.849 142.8 215.899C144.729 216.134 146.659 216.362 148.589 216.591C149.213 216.668 149.838 216.745 150.482 216.825C164.597 218.476 178.716 218.989 192.935 218.964C194.618 218.966 196.3 218.968 197.983 218.971C202.029 218.976 206.076 218.975 210.123 218.972C213.419 218.969 216.715 218.969 220.012 218.97C220.485 218.97 220.959 218.97 221.447 218.97C222.41 218.971 223.373 218.971 224.336 218.972C233.312 218.975 242.288 218.971 251.264 218.965C258.924 218.959 266.585 218.96 274.246 218.966C283.196 218.972 292.147 218.975 301.097 218.971C302.056 218.971 303.015 218.97 303.973 218.97C304.445 218.97 304.916 218.97 305.402 218.969C308.685 218.968 311.968 218.97 315.251 218.973C319.689 218.977 324.127 218.974 328.565 218.967C330.179 218.965 331.794 218.966 333.408 218.968C342.216 218.982 350.92 218.76 359.693 218.011C364.098 217.639 368.439 217.515 372.862 217.584C371.603 220.172 370.398 220.801 367.468 221.862C365.595 222.278 363.809 222.615 361.911 222.879C361.357 222.957 360.803 223.034 360.232 223.114C352.533 224.079 344.791 223.947 337.036 223.923C335.298 223.925 333.56 223.927 331.822 223.93C327.621 223.936 323.421 223.932 319.22 223.924C314.31 223.916 309.399 223.917 304.489 223.918C295.714 223.92 286.94 223.913 278.166 223.901C269.689 223.89 261.212 223.885 252.734 223.889C243.465 223.892 234.195 223.892 224.925 223.885C223.932 223.885 222.94 223.884 221.948 223.883C221.46 223.883 220.972 223.882 220.469 223.882C217.062 223.88 213.654 223.88 210.247 223.881C205.643 223.883 201.039 223.877 196.435 223.868C194.757 223.865 193.079 223.865 191.401 223.866C153.262 223.899 153.262 223.899 142.267 216.973C142.045 216.569 141.822 216.166 141.593 215.75Z" fill="#FEFAF7"/>
<path d="M291.952 43.3945C292.619 43.9996 292.619 43.9996 293.3 44.6169C293.134 46.2951 292.89 47.8581 292.542 49.5064C292.444 49.9781 292.347 50.4497 292.246 50.9356C289.606 63.0365 280.827 73.1502 269.701 80.066C264.778 82.89 259.643 85.5103 254.193 87.4003C253.573 87.6209 252.952 87.8415 252.313 88.0688C249.84 88.7015 247.74 88.7429 245.175 88.6991C244.336 88.688 243.496 88.677 242.631 88.6656C241.997 88.6514 241.362 88.6373 240.708 88.6227C240.842 88.9993 240.976 89.3759 241.114 89.7639C241.247 90.4091 241.247 90.4091 241.383 91.0674C239.661 93.1085 237.989 93.988 235.314 94.7346C233.098 94.938 230.882 94.9899 228.656 95.0402C224.55 95.1336 221.064 95.4541 217.11 96.5681C212.779 97.0179 209.501 96.5571 205.647 94.7346C205.31 93.3976 205.31 93.3976 205.647 91.6786C208.066 89.7203 210.95 88.6016 213.991 87.6677C216.709 86.6906 216.708 86.5751 217.784 84.3443C218.935 82.8181 220.196 81.3712 221.45 79.9132C221.781 79.5161 222.111 79.119 222.452 78.7099C223.32 77.6998 224.256 76.7392 225.201 75.7876C227.605 75.7876 227.962 76.1884 229.752 77.5448C234.345 80.7485 239.102 81.1962 244.754 80.6772C258.382 78.1939 272.42 69.6608 280.187 59.2598C282.854 55.5628 285.018 51.8823 286.558 47.6729C286.836 46.9417 287.114 46.2106 287.4 45.4573C287.651 44.7388 287.651 44.7388 287.906 44.0057C288.129 44.0057 288.351 44.0057 288.58 44.0057C288.932 50.5851 286.949 55.5377 283.186 61.1191C289.353 55.8399 290.717 50.7555 291.952 43.3945Z" fill="#CC6C55"/>
<path d="M329.036 352.046C331.655 352.303 333.128 352.939 335.104 354.491C336.258 355.926 336.258 355.926 337.38 357.585C337.746 358.121 338.113 358.658 338.491 359.211C338.931 359.872 339.371 360.533 339.824 361.214C340.293 361.87 340.293 361.87 340.773 362.54C343.514 366.465 345.288 370.402 346.861 374.813C347.117 375.52 347.373 376.227 347.637 376.956C350.553 385.239 352.662 393.664 354.657 402.164C354.788 402.704 354.918 403.244 355.053 403.801C358.194 416.881 358.194 416.881 355.669 421.569C355.335 422.023 355.001 422.476 354.657 422.944C352.26 422.944 350.699 422.856 348.763 421.526C343.506 416.453 337.02 406.728 336.958 399.642C337.014 399.063 337.069 398.483 337.127 397.885C338.907 398.087 340.687 398.289 342.521 398.496C342.994 385.839 338.266 374.212 332.313 362.981C331.733 361.825 331.733 361.825 331.058 359.991C329.501 359.991 327.943 359.991 326.339 359.991C327.006 359.79 327.674 359.588 328.361 359.38C328.354 358.902 328.346 358.424 328.338 357.931C328.332 357.313 328.326 356.694 328.319 356.057C328.311 355.44 328.304 354.823 328.296 354.187C328.361 352.657 328.361 352.657 329.036 352.046Z" fill="#EB8529"/>
<path d="M55.2888 311.707C55.9563 312.01 55.9563 312.01 56.6373 312.319C56.3844 312.682 56.1315 313.045 55.8709 313.419C48.8884 323.671 46.1199 334.006 44.3322 345.858C44.2222 346.579 44.1122 347.3 43.9988 348.043C42.2828 360.265 42.3252 372.635 42.0987 384.936C42.0695 386.438 42.0401 387.94 42.0105 389.442C41.9394 393.071 41.8706 396.701 41.8037 400.33C41.5812 400.33 41.3587 400.33 41.1295 400.33C40.8165 398.446 40.5083 396.561 40.2024 394.676C40.1172 394.167 40.032 393.657 39.9443 393.132C38.2843 382.825 37.5213 372.641 37.5454 362.225C37.5475 360.299 37.5316 358.373 37.5146 356.446C37.4879 348.503 38.1681 340.906 39.781 333.099C39.9234 332.404 40.0658 331.71 40.2126 330.994C40.5007 329.655 40.8108 328.32 41.1295 326.987C25.3921 339.352 13.1416 357.403 10.7881 376.494C10.3431 376.292 9.89807 376.09 9.43958 375.882C11.2929 358.221 16.9847 341.637 30.3414 328.209C30.8455 327.695 31.3496 327.181 31.869 326.65C36.4087 322.27 41.5962 319.124 47.1978 315.986C47.6009 315.757 48.0041 315.529 48.4195 315.293C53.1868 312.606 53.1868 312.606 55.2888 311.707Z" fill="#FEFBF8"/>
<path d="M223.178 66.0086C223.4 66.0086 223.623 66.0086 223.852 66.0086C223.934 66.4656 224.015 66.9225 224.1 67.3933C224.269 68.2962 224.269 68.2962 224.442 69.2174C224.606 70.1108 224.606 70.1108 224.774 71.0223C225.166 72.5927 225.678 73.7834 226.549 75.1765C225.866 75.9175 225.866 75.9175 225.169 76.6734C224.561 77.3331 223.954 77.9929 223.346 78.6526C222.898 79.1389 222.898 79.1389 222.44 79.6351C221.845 80.2814 221.252 80.9291 220.661 81.5782C219.864 82.4485 219.051 83.3074 218.237 84.1653C216.911 85.5246 216.911 85.5246 217.109 87.4003C216.5 87.6067 215.891 87.8131 215.263 88.0258C214.07 88.4347 214.07 88.4347 212.853 88.8519C212.063 89.1213 211.273 89.3908 210.459 89.6684C208.287 90.4042 208.287 90.4042 206.321 91.6786C205.829 93.245 205.829 93.245 205.647 94.7346C209.24 95.7741 212.68 96.2749 216.435 96.5681C215.316 97.2443 214.193 97.9149 213.053 98.5617C205.962 102.663 202.009 107.17 198.905 114.293C198.42 116.603 198.42 116.603 198.23 118.571C196.17 119.169 194.958 119.187 192.91 118.573C192.193 118.364 192.193 118.364 191.462 118.15C190.97 117.999 190.478 117.848 189.971 117.692C189.468 117.544 188.966 117.395 188.448 117.242C187.212 116.876 185.978 116.502 184.745 116.126C184.703 114.088 184.717 112.053 184.745 110.014C184.732 109.526 184.719 109.037 184.706 108.534C184.765 106.453 184.914 105.055 186.428 103.434C187.334 102.728 188.262 102.044 189.207 101.381C193.605 98.244 197.415 94.3708 201.043 90.5207C202.485 89.0155 203.982 87.5623 205.479 86.1015C210.097 81.5093 214.227 76.5827 218.379 71.643C218.69 71.2742 219 70.9054 219.321 70.5254C219.915 69.8181 220.508 69.1092 221.098 68.3988C221.776 67.5911 222.475 66.7981 223.178 66.0086Z" fill="#CB6C54"/>
<path d="M273.958 150.086C276.444 150.353 276.444 150.353 278.256 151.614C279.955 153.57 281.228 155.489 282.512 157.687C279.618 162.549 276.861 165.806 271.598 168.612C266.32 170.024 261.213 169.924 256.279 167.631C252.456 165.53 249.162 163.079 246.102 160.132C246.756 159.956 247.41 159.779 248.083 159.597C251.359 158.358 253.294 155.994 255.531 153.578C256.89 152.187 256.89 152.187 258.913 150.964C262.397 150.801 265.664 151.072 269.106 151.561C269.525 151.566 269.944 151.57 270.376 151.575C271.724 150.353 271.724 150.353 273.958 150.086Z" fill="#A33C32"/>
<path d="M315.551 91.6786C322.895 96.7552 327.405 103.023 328.909 111.313C329.571 118.607 327.864 125.381 322.959 131.174C317.866 136.597 311.415 141.134 303.366 141.935C293.637 142.545 286.055 140.882 278.467 135.073C275.381 132.343 272.637 129.592 271.05 125.905C271.05 125.502 271.05 125.099 271.05 124.683C266.324 124.04 263.159 123.821 258.913 125.905C258.246 126.107 257.578 126.309 256.891 126.516C256.786 127.443 256.786 127.443 256.68 128.388C255.518 134.418 251.528 140.009 246.271 143.859C238.789 148.511 230.687 149.815 221.829 149.131C214.467 147.727 207.544 143.501 202.95 138.129C199.857 133.516 197.442 129.074 197.514 123.613C197.52 123.011 197.526 122.409 197.533 121.789C197.54 121.332 197.548 120.875 197.556 120.405C196.346 120.197 196.346 120.197 195.112 119.984C191.514 119.263 188.139 118.113 184.685 116.962C181.329 115.871 177.908 114.989 174.479 114.109C171.994 113.467 169.592 112.768 167.215 111.848C167.437 111.445 167.66 111.041 167.889 110.626C170.851 111.462 173.813 112.299 176.774 113.136C177.779 113.42 178.784 113.704 179.789 113.988C181.244 114.398 182.698 114.81 184.153 115.221C184.622 115.354 185.091 115.487 185.575 115.623C188.086 116.335 190.583 117.075 193.071 117.852C195.423 118.665 195.423 118.665 197.556 118.571C197.607 118.208 197.657 117.845 197.709 117.47C199.023 109.963 203.259 104.411 209.693 99.6241C213.189 97.4959 216.166 95.6901 220.481 95.9569C218.674 97.049 216.888 97.9225 214.96 98.8219C207.629 102.46 202.914 107.097 200.338 114.407C198.231 122.49 199.354 129.728 204.13 136.754C208.501 142.333 214.384 146.036 221.829 147.297C229.958 148.059 237.391 147.497 244.248 143.171C248.653 139.915 252.069 136.206 254.194 131.406C254.435 130.863 254.677 130.32 254.926 129.761C255.693 127.244 255.774 124.951 255.753 122.353C255.747 121.617 255.747 121.617 255.741 120.867C255.662 117.362 255.31 114.391 253.519 111.237C253.112 110.489 253.112 110.489 252.698 109.725C248.6 102.885 242.47 98.9493 234.319 96.7233C233.086 96.437 231.841 96.1914 230.595 95.9569C230.595 95.7552 230.595 95.5536 230.595 95.3458C236.038 94.7851 240.943 96.7551 245.283 99.6575C251.05 104.215 256.135 109.725 257.565 116.737C257.611 118.112 257.622 119.488 257.607 120.863C257.601 121.578 257.595 122.294 257.588 123.031C257.577 123.849 257.577 123.849 257.565 124.683C258.026 124.383 258.488 124.083 258.963 123.773C261.334 122.663 262.88 122.662 265.529 122.735C266.704 122.76 266.704 122.76 267.902 122.785C268.496 122.806 269.09 122.827 269.701 122.849C269.54 122.326 269.54 122.326 269.376 121.793C267.644 114.896 268.346 106.892 272.398 100.846C276.877 94.459 283.243 90.2355 291.109 87.8587C299.18 86.2724 308.628 87.4623 315.551 91.6786ZM280.489 94.1234C279.925 94.4992 279.361 94.875 278.78 95.2622C273.142 99.6925 270.234 106.568 269.57 113.154C269.188 120.313 272.159 127.12 277.118 132.628C283.962 138.729 290.909 140.751 300.319 140.768C307.812 140.65 314.056 137.948 319.554 133.376C325.291 127.895 328.02 120.615 327.856 113.144C327.237 106.138 323.894 99.5844 318.248 94.7346C306.947 86.3954 292.011 86.198 280.489 94.1234Z" fill="#FBEBE5"/>
<path d="M373.536 350.212C387.513 355.966 397.71 371.069 403.191 383.495C406.979 392.751 408.729 401.496 408.64 411.37C408.637 412.015 408.633 412.661 408.63 413.326C408.622 414.902 408.611 416.478 408.597 418.055C408.152 418.055 407.707 418.055 407.249 418.055C407.117 417.445 406.985 416.835 406.849 416.207C401.578 392.856 391.118 372.201 375.652 353.014C374.924 352.095 374.229 351.154 373.536 350.212Z" fill="#FEFBF7"/>
<path d="M357.354 352.046C372.232 358.099 382.018 374.435 387.588 387.614C390.917 395.997 391.96 404.156 391.825 413.05C391.819 413.831 391.813 414.611 391.807 415.415C391.791 417.314 391.769 419.212 391.741 421.11C390.49 419.409 390.146 418.657 389.737 416.737C389.621 416.221 389.505 415.706 389.385 415.174C389.259 414.612 389.132 414.05 389.002 413.471C384.039 392.803 374.608 373.88 360.789 356.885C359.542 355.311 358.421 353.723 357.354 352.046Z" fill="#FEFBF8"/>
<path d="M274.421 266.479C274.866 266.479 275.311 266.479 275.77 266.479C275.927 269.242 276.022 272.003 276.107 274.768C276.174 275.939 276.174 275.939 276.244 277.133C276.374 282.806 276.374 282.806 274.651 285.049C268.624 289.946 261.393 291.538 253.519 291.538C253.519 287.706 253.519 283.874 253.519 279.925C254.812 279.522 256.106 279.119 257.438 278.703C264.108 276.372 271.106 272.49 274.421 266.479Z" fill="#FDF6EC"/>
<path d="M240.034 88.6227C240.948 89.931 240.948 89.931 241.383 91.0674C239.132 93.3339 237.269 94.556 233.854 94.868C232.121 94.9484 230.391 95.001 228.656 95.0402C224.55 95.1336 221.064 95.4541 217.11 96.5681C212.779 97.0179 209.501 96.5571 205.647 94.7346C205.31 93.3976 205.31 93.3976 205.647 91.6786C214.093 84.676 230.287 84.1706 240.034 88.6227Z" fill="#121529"/>
<path d="M294.775 79.7604C295.808 79.7435 295.808 79.7435 296.862 79.7262C301.419 79.7601 304.814 80.5123 308.808 82.5108C308.682 83.9241 308.682 83.9241 308.134 85.5667C305.389 87.527 303.132 87.6157 299.706 87.6677C295.213 87.8066 291.346 88.5318 287.076 89.8832C283.649 90.9348 281.52 91.1828 278.003 90.2652C277.361 90.1037 276.718 89.9422 276.057 89.7758C274.421 89.2339 274.421 89.2339 273.073 88.0115C273.31 85.8838 273.787 85.5341 275.643 84.0387C281.815 80.4392 287.574 79.8303 294.775 79.7604Z" fill="#131729"/>
<path d="M246.479 259.625C246.8 259.87 247.12 260.115 247.451 260.367C245.042 260.367 243.643 259.772 241.427 258.913C240.621 258.604 239.815 258.295 238.985 257.977C238.558 257.812 238.132 257.647 237.692 257.477C213.25 248.067 187.858 241.561 161.146 240.809C161.146 240.607 161.146 240.406 161.146 240.198C190.038 236.885 223.499 242.707 246.479 259.625Z" fill="#F0E0CC"/>
<path d="M273.958 150.086C276.444 150.353 276.444 150.353 278.298 151.652C279.8 153.392 280.855 155.059 281.838 157.076C279.239 158.628 276.496 158.498 273.494 158.566C268.797 158.73 264.489 159.325 259.906 160.311C255.828 161.064 251.614 161.458 247.451 161.354C247.006 160.951 246.561 160.548 246.102 160.132C246.756 159.956 247.41 159.779 248.083 159.597C251.359 158.358 253.294 155.994 255.531 153.578C256.89 152.187 256.89 152.187 258.913 150.964C262.397 150.801 265.664 151.072 269.106 151.561C269.525 151.566 269.944 151.57 270.376 151.575C271.724 150.353 271.724 150.353 273.958 150.086Z" fill="#CD6051"/>
<path d="M234.337 104.392C239.701 107.227 243.812 112.204 246.102 117.349C245.88 117.752 245.657 118.155 245.428 118.571C245.02 118.246 244.611 117.922 244.19 117.587C240.314 114.625 236.762 112.655 231.943 111.237C231.276 111.035 230.608 110.833 229.92 110.626C224.142 109.997 219.457 111.101 214.412 113.681C213.225 114.536 212.058 115.414 210.915 116.317C208.625 118.111 207.271 118.89 204.214 118.877C203.352 118.776 202.49 118.675 201.602 118.571C201.602 118.369 201.602 118.168 201.602 117.96C202.001 117.935 202.4 117.911 202.811 117.886C206.193 117.494 206.193 117.494 208.705 115.56C209.259 114.6 209.79 113.63 210.301 112.65C212.355 108.728 215.683 106.476 219.807 104.514C224.06 103.228 230.055 103.173 234.337 104.392Z" fill="#CA554A"/>
<path d="M311.842 106.118C312.856 106.597 313.869 107.079 314.876 107.57C313.605 110.188 311.937 111.329 309.482 113.07C309.093 112.503 308.703 111.936 308.302 111.351C306.919 109.575 306.096 108.671 304.088 107.57C300.531 107.029 297.509 107.197 294.269 108.639C291.709 110.781 291.127 112.557 290.856 115.668C290.806 116.213 290.755 116.758 290.703 117.32C290.67 117.733 290.637 118.146 290.603 118.571C289.212 118.397 287.821 118.218 286.431 118.036C285.657 117.937 284.882 117.838 284.084 117.735C282.049 117.385 280.351 116.892 278.467 116.126C280.068 110.965 284.734 107.806 289.639 105.263C297.086 101.856 304.576 102.862 311.842 106.118Z" fill="#F7CBC6"/>
<path d="M305.057 98.4781C311.992 102.134 311.992 102.134 313.48 105.189C314.094 106.448 314.094 106.448 315.514 106.853C316.241 106.981 316.241 106.981 316.983 107.111C317.845 107.262 318.708 107.414 319.596 107.57C319.596 107.771 319.596 107.973 319.596 108.181C315.27 108.715 312.533 107.265 308.784 105.376C304.468 103.515 299.342 103.358 294.649 103.902C287.449 106.251 282.79 109.915 278.467 115.515C277.214 113.245 278.796 110.727 279.617 108.427C281.716 103.422 284.558 100.116 289.929 97.7905C294.746 96.3349 300.471 96.4824 305.057 98.4781Z" fill="#CB554B"/>
<path d="M237.337 112.459C239.25 113.573 240.988 114.807 242.731 116.126C243.627 116.741 244.525 117.354 245.428 117.96C244.754 119.793 244.754 119.793 242.773 120.825C240.708 121.627 240.708 121.627 239.36 121.627C239.156 121.207 238.951 120.787 238.741 120.354C237.046 117.009 237.046 117.009 234.472 114.216C230.786 113.153 227.754 113.135 224.273 114.713C220.987 117.337 220.231 119.539 219.807 123.461C216.706 123.131 214.502 122.381 211.8 120.978C211.148 120.643 210.496 120.308 209.824 119.963C209.336 119.705 208.848 119.448 208.344 119.182C208.344 118.577 208.344 117.972 208.344 117.349C216.897 110.171 226.663 107.665 237.337 112.459Z" fill="#F8CBC6"/>
<path d="M207.67 95.3458C209.719 95.4938 209.719 95.4938 212.137 95.8806C213.339 96.0673 213.339 96.0673 214.565 96.2578C215.491 96.4114 215.491 96.4114 216.435 96.5681C215.316 97.2443 214.193 97.9149 213.053 98.5617C205.962 102.663 202.009 107.17 198.905 114.293C198.42 116.603 198.42 116.603 198.23 118.571C196.17 119.169 194.958 119.187 192.91 118.573C192.432 118.434 191.954 118.294 191.462 118.15C190.97 117.999 190.478 117.848 189.971 117.692C189.468 117.544 188.966 117.395 188.448 117.242C187.212 116.876 185.978 116.502 184.745 116.126C184.745 115.723 184.745 115.319 184.745 114.904C185.656 114.361 186.568 113.82 187.485 113.285C194.252 109.006 199.717 103.029 205.285 97.5734C206.064 96.8174 206.863 96.0774 207.67 95.3458Z" fill="#F6A383"/>
<path d="M232.617 113.07C234.988 114.1 236.743 115.4 238.306 117.31C238.809 118.981 238.772 120.517 238.686 122.238C234.529 123.938 231.117 124.771 226.507 124.798C225.818 124.806 225.128 124.815 224.418 124.824C222.517 124.684 221.421 124.348 219.807 123.461C219.498 119.964 219.998 118.205 222.504 115.515C225.659 112.988 228.537 112.319 232.617 113.07Z" fill="#171427"/>
<path d="M304.088 106.958C306.062 107.897 307.539 108.959 308.808 110.626C309.266 112.28 309.266 112.28 309.482 113.682C303.322 116.597 298.307 118.795 291.277 118.571C290.464 116.359 290.386 114.786 290.603 112.459C293.602 107.223 297.841 105.955 304.088 106.958Z" fill="#161326"/>
<path d="M275.77 291.538C276.103 295.471 276.103 295.471 276.444 299.484C269.143 303.454 261.77 303.39 253.519 303.151C253.519 301.134 253.519 299.117 253.519 297.039C254.374 296.979 255.228 296.919 256.108 296.857C262.414 296.368 270.802 291.538 275.77 291.538Z" fill="#FDF4E9"/>
<path d="M333.068 246.795C335.669 246.814 338.269 246.822 340.869 246.832C345.915 246.851 350.96 246.882 356.006 246.921C356.006 247.123 356.006 247.324 356.006 247.532C354.77 247.592 354.77 247.592 353.51 247.652C334.544 248.574 315.638 249.811 296.728 251.428C295.953 251.494 295.177 251.559 294.378 251.627C292.933 251.75 291.487 251.875 290.042 252.003C286.388 252.315 282.811 252.484 279.141 252.422C289.264 243.246 319.392 246.683 333.068 246.795Z" fill="#F0E0CD"/>
<path d="M161.146 244.476C183.127 245.106 204.512 250.997 225.201 257.311C226.754 257.781 228.308 258.251 229.862 258.72C231.005 259.065 232.149 259.411 233.292 259.756C231.053 260.428 229.626 260.293 227.36 259.754C226.722 259.605 226.084 259.457 225.427 259.304C224.74 259.138 224.054 258.972 223.346 258.801C221.878 258.457 220.409 258.113 218.94 257.77C217.812 257.503 217.812 257.503 216.661 257.23C213.178 256.409 209.687 255.618 206.195 254.828C205.518 254.675 204.842 254.522 204.145 254.364C197.466 252.853 190.772 251.406 184.071 249.977C183.121 249.774 182.171 249.571 181.222 249.369C174.53 247.94 167.839 246.513 161.146 245.088C161.146 244.886 161.146 244.684 161.146 244.476Z" fill="#F0E0CD"/>
<path d="M225.875 75.1765C228.167 76.5618 228.312 77.066 229.162 79.3402C230.279 82.0403 231.496 83.6812 233.966 85.5667C234.411 85.9701 234.856 86.3735 235.314 86.7891C229.084 86.7891 222.854 86.7891 216.435 86.7891C217.418 85.0076 218.191 83.766 219.514 82.2553C219.841 81.8799 220.169 81.5045 220.506 81.1177C220.845 80.7328 221.185 80.3479 221.534 79.9514C222.047 79.3635 222.047 79.3635 222.571 78.7636C225.073 75.9029 225.073 75.9029 225.875 75.1765Z" fill="#F49F7F"/>
<path d="M202.234 314.725C206.083 315.302 209.25 317.682 212.39 319.653C211.95 321.985 211.399 323.338 209.693 325.154C205.984 324.901 203.083 323.63 200.253 321.486C198.977 319.584 198.646 318.216 198.905 315.986C200.253 314.763 200.253 314.763 202.234 314.725Z" fill="#FEFCFB"/>
<path d="M207.67 237.753C208.78 237.823 209.89 237.901 210.999 237.982C211.617 238.025 212.235 238.068 212.872 238.111C213.634 238.237 213.634 238.237 214.412 238.364C214.635 238.768 214.857 239.171 215.087 239.587C216.304 240.07 216.304 240.07 217.8 240.449C218.656 240.69 218.656 240.69 219.53 240.935C220.459 241.194 220.459 241.194 221.408 241.459C234.469 245.273 246.822 250.429 256.216 259.756C253.77 259.756 253.253 259.27 251.328 257.961C237.953 249.273 223.266 243.553 207.67 238.976C207.67 238.572 207.67 238.169 207.67 237.753Z" fill="#F0E1CE"/>
<path d="M178.003 124.072C177.637 124.338 177.271 124.604 176.894 124.879C174.024 127.045 171.978 128.785 170.586 132.017C170.977 131.989 171.368 131.96 171.771 131.931C175.563 131.772 177.765 132.055 180.7 134.462C181.964 136.448 181.964 136.448 182.723 138.129C179.932 137.133 177.175 136.072 174.421 134.997C173.986 134.827 173.551 134.658 173.103 134.483C172.039 134.069 170.975 133.654 169.912 133.24C169.689 136.063 169.467 138.887 169.238 141.796C166.684 138.71 166.36 136.43 166.541 132.628C167.638 128.773 170.463 126.326 173.957 124.072C175.637 123.311 176.257 123.597 178.003 124.072Z" fill="#B24436"/>
<path d="M236.465 109.764C239.821 111.635 243.478 113.88 244.754 117.349C242.755 116.498 241.027 115.495 239.233 114.331C234.004 111.168 228.804 109.823 222.504 110.626C217.96 111.778 214.463 113.514 210.915 116.317C208.625 118.111 207.271 118.89 204.214 118.877C203.352 118.776 202.49 118.675 201.602 118.571C201.602 118.369 201.602 118.168 201.602 117.96C201.985 117.921 202.368 117.883 202.763 117.843C206.691 117.278 208.492 116.268 211.112 113.61C217.745 107.635 228.012 106.183 236.465 109.764Z" fill="#211A2C"/>
<path d="M312.179 105.125C314.715 106.593 316.586 107.252 319.596 107.57C319.596 107.771 319.596 107.973 319.596 108.181C315.27 108.715 312.534 107.265 308.784 105.375C304.468 103.515 299.342 103.358 294.649 103.902C287.449 106.251 282.79 109.915 278.467 115.515C278.467 112.379 280.5 110.037 282.512 107.57C290.978 99.9523 302.416 99.0318 312.179 105.125Z" fill="#21192A"/>
<path d="M124.737 243.254C130.198 243.636 135.33 244.803 140.624 246.043C141.506 246.246 142.388 246.45 143.27 246.653C145.409 247.146 147.547 247.643 149.684 248.143C149.239 248.345 148.794 248.547 148.336 248.755C148.113 249.158 147.891 249.561 147.661 249.977C147.273 249.89 146.885 249.802 146.486 249.712C141.747 248.739 137.251 248.609 132.406 248.678C131.665 248.684 130.924 248.689 130.16 248.695C128.352 248.709 126.544 248.729 124.737 248.755C124.737 246.939 124.737 245.124 124.737 243.254Z" fill="#D15532"/>
<path d="M222.504 110.014C230.632 109.501 236.522 111.425 242.731 116.126C243.627 116.741 244.525 117.354 245.428 117.96C244.754 119.793 244.754 119.793 242.773 120.825C240.708 121.627 240.708 121.627 239.36 121.627C239.053 120.997 239.053 120.997 238.741 120.354C237.057 117 237.057 117 234.429 114.254C232.012 113.49 229.775 113.266 227.223 113.07C227.223 112.264 227.223 111.457 227.223 110.626C225.666 110.626 224.108 110.626 222.504 110.626C222.504 110.424 222.504 110.222 222.504 110.014Z" fill="#F6D5D2"/>
<path d="M198.905 329.776C202.436 329.782 204.97 331.846 207.67 333.71C206.912 335.527 206.171 336.971 204.973 338.6C201.343 338.213 198.764 336.638 196.208 334.321C196.081 332.45 196.081 332.45 196.208 330.654C196.882 330.043 196.882 330.043 198.905 329.776Z" fill="#FEFBFA"/>
<path d="M137.548 248.755C138.952 248.705 140.357 248.67 141.762 248.64C142.935 248.608 142.935 248.608 144.132 248.576C146.463 248.767 147.335 249.156 149.01 250.588C148.787 251.597 148.565 252.605 148.336 253.644C144.948 254.904 141.84 255.163 138.222 254.867C137.548 254.255 137.548 254.255 137.482 252.992C137.49 252.489 137.497 251.986 137.506 251.467C137.512 250.962 137.518 250.457 137.524 249.936C137.532 249.546 137.54 249.156 137.548 248.755Z" fill="#FDF9F7"/>
<path d="M232.617 307.429C235.091 307.221 236.302 307.205 238.385 308.499C239.16 309.179 239.16 309.179 239.95 309.874C240.477 310.328 241.003 310.781 241.546 311.249C241.937 311.602 242.328 311.955 242.731 312.318C242.253 314.273 241.9 315.407 240.034 316.597C237.21 316.597 235.257 314.553 233.292 312.93C232.295 311.123 232.577 309.42 232.617 307.429Z" fill="#FEFBFA"/>
<path d="M314.202 90.8573C321.197 95.1178 325.406 100.433 328.193 107.565C328.409 109.137 327.908 109.906 327.013 111.237C326.906 110.815 326.799 110.394 326.689 109.959C324.677 102.614 321.109 96.622 313.86 92.5285C306.716 88.9151 298.672 87.9432 290.716 89.8546C290.012 90.0531 289.307 90.2517 288.58 90.4562C286.6 90.5326 286.6 90.5326 285.209 90.4562C293.623 85.3717 305.631 86.584 314.202 90.8573Z" fill="#E1DAD9"/>
<path d="M184.745 116.737C185.522 119.173 185.531 121.587 185.546 124.11C185.556 124.848 185.565 125.586 185.575 126.347C185.43 128.22 185.16 129.23 184.071 130.795C183.626 130.795 183.181 130.795 182.723 130.795C182.269 128.911 181.821 127.026 181.374 125.141C181.181 124.341 181.181 124.341 180.984 123.525C180.863 123.009 180.741 122.493 180.616 121.961C180.503 121.488 180.39 121.014 180.273 120.526C180.026 119.182 180.026 119.182 180.026 116.737C179.136 116.536 178.246 116.334 177.329 116.126C180.038 115.308 182.201 115.584 184.745 116.737Z" fill="#48403A"/>
<path d="M312.179 242.032C312.179 242.233 312.179 242.435 312.179 242.643C311.447 242.73 311.447 242.73 310.701 242.819C298.506 244.295 286.778 245.925 275.485 250.519C273.589 251.261 271.668 251.851 269.701 252.422C272.661 249.184 276.24 247.855 280.489 246.31C280.96 246.133 281.432 245.957 281.917 245.775C291.336 242.586 302.225 241.881 312.179 242.032Z" fill="#F0E1CE"/>
<path d="M133.07 213.461C134.176 213.917 134.176 213.917 134.724 215.216C134.851 216.973 134.851 216.973 133.334 218.921C131.479 220.64 131.479 220.64 129.457 221.862C127.434 221.862 127.434 221.862 126.499 221.06C125.687 220.105 124.875 219.15 124.063 218.195C125.235 217.358 126.416 216.533 127.602 215.712C128.26 215.251 128.917 214.79 129.594 214.316C131.479 213.306 131.479 213.306 133.07 213.461Z" fill="#F9F7F6"/>
<path d="M137.548 220.64C138.096 221.939 138.096 221.939 138.222 223.696C136.599 225.78 135.17 227.17 132.828 228.585C131.479 228.547 131.479 228.547 130.131 227.974C128.951 226.408 128.951 226.408 128.108 224.918C128.865 224.318 129.624 223.72 130.384 223.123C131.017 222.623 131.017 222.623 131.664 222.113C133.681 220.619 134.991 220.579 137.548 220.64Z" fill="#FEFAF8"/>
<path d="M274.421 309.874C275.696 309.96 275.696 309.96 277.118 310.485C278.119 311.774 278.119 311.774 278.972 313.388C279.261 313.914 279.549 314.441 279.847 314.983C280.514 316.658 280.615 317.887 280.489 319.653C279.154 319.854 277.819 320.056 276.444 320.264C274.031 316.841 273.577 314.566 273.747 310.485C273.969 310.283 274.192 310.082 274.421 309.874Z" fill="#FDF8F7"/>
<path d="M134.851 258.534C138.063 258.417 140.682 258.49 143.616 259.756C144.206 261.055 144.206 261.055 144.29 262.201C142.248 263.272 140.785 263.577 138.433 263.538C137.636 263.532 137.636 263.532 136.823 263.526C135.525 263.423 135.525 263.423 134.851 262.812C134.823 261.386 134.822 259.96 134.851 258.534Z" fill="#FEFAF9"/>
<path d="M221.155 110.626C223.158 110.626 225.16 110.626 227.223 110.626C227.139 112.001 227.139 112.001 226.549 113.682C225.219 114.52 223.869 115.334 222.504 116.126C220.496 118.448 220.121 120.555 219.807 123.461C219.362 123.461 218.916 123.461 218.458 123.461C218.65 122.008 218.847 120.557 219.048 119.106C219.101 118.699 219.154 118.293 219.209 117.874C219.566 115.329 220.172 113.03 221.155 110.626Z" fill="#F9D8D4"/>
<path d="M307.459 105.125C310.242 105.496 312.403 106.37 314.876 107.57C313.809 110.182 311.838 111.399 309.482 113.07C307.533 110.875 306.749 109.906 306.954 107.035C307.121 106.404 307.288 105.774 307.459 105.125Z" fill="#F5D4D0"/>
<path d="M294.649 103.291C299.398 103.162 303.577 103.243 308.134 104.514C307.689 105.925 307.244 107.337 306.785 108.792C306.406 108.598 306.027 108.404 305.637 108.205C303.986 107.528 302.683 107.331 300.886 107.188C300.077 107.119 300.077 107.119 299.253 107.049C298.846 107.019 298.439 106.989 298.02 106.958C298.02 105.95 298.02 104.941 298.02 103.902C296.907 103.902 295.795 103.902 294.649 103.902C294.649 103.701 294.649 103.499 294.649 103.291Z" fill="#E6BDBA"/>
<path d="M292.626 103.902C293.938 103.723 293.938 103.723 295.407 103.788C296.269 103.826 297.132 103.863 298.02 103.902C298.357 105.239 298.357 105.239 298.02 106.958C296.747 107.881 295.434 108.57 294.003 109.274C292.636 110.009 291.673 110.79 290.603 111.848C290.68 110.867 290.766 109.887 290.856 108.907C290.903 108.361 290.95 107.815 290.998 107.252C291.277 105.736 291.277 105.736 292.626 103.902Z" fill="#F5D5D1"/>
<path d="M222.504 110.014C227.433 109.789 231.412 110.127 235.989 111.848C235.989 112.856 235.989 113.865 235.989 114.904C235.544 114.715 235.099 114.526 234.64 114.331C232.142 113.529 229.858 113.313 227.223 113.07C227.223 112.264 227.223 111.457 227.223 110.626C225.666 110.626 224.108 110.626 222.504 110.626C222.504 110.424 222.504 110.222 222.504 110.014Z" fill="#E7BDBA"/>
<path d="M220.481 95.957C218.674 97.049 216.888 97.9225 214.96 98.8219C208.342 102.11 204.698 105.941 200.927 111.848C200.253 110.014 200.253 110.014 200.883 108.804C205.254 102.988 211.853 95.3933 220.481 95.957Z" fill="#FEF1ED"/>
<path d="M108.555 226.752C109 226.953 109.445 227.155 109.903 227.363C104.563 232.204 99.2231 237.044 93.7212 242.032C93.2762 241.83 92.8312 241.628 92.3727 241.42C97.5448 236.284 102.702 231.263 108.555 226.752Z" fill="#F8B47A"/>
<path d="M314.876 92.2898C320.26 93.8707 323.779 98.3899 326.339 102.795C327.563 105.234 328.3 107.329 328.361 110.014C327.916 110.418 327.471 110.821 327.013 111.237C326.906 110.815 326.799 110.394 326.689 109.959C324.664 102.567 320.838 97.54 314.876 92.2898Z" fill="#EEE4E0"/>
<path d="M285.883 138.129C286.309 138.254 286.735 138.38 287.174 138.509C291.726 139.751 295.989 140.228 300.738 140.385C302.74 140.574 302.74 140.574 304.762 141.796C297.754 142.048 291.666 142.239 285.209 139.352C285.432 138.948 285.654 138.545 285.883 138.129Z" fill="#FCE4DC"/>
<path d="M329.036 114.904C330.76 116.263 331.314 117.161 331.733 119.182C331.81 120.212 331.85 121.244 331.859 122.276C331.869 122.8 331.878 123.324 331.888 123.864C331.733 125.294 331.733 125.294 330.384 127.128C330.048 125.465 329.714 123.802 329.383 122.138C329.124 120.845 328.851 119.555 328.572 118.265C328.361 116.737 328.361 116.737 329.036 114.904Z" fill="#B04436"/>
<path d="M205.647 344.712C208.556 345.005 209.804 345.779 211.715 347.768C211.048 348.675 211.048 348.675 210.367 349.601C208.104 349.235 206.741 348.473 204.973 347.156C205.195 346.35 205.418 345.543 205.647 344.712Z" fill="#FCF4F1"/>
<path d="M319.596 97.1794C322.036 98.7936 323.633 100.219 324.99 102.68C324.99 103.083 324.99 103.487 324.99 103.902C324.1 103.902 323.21 103.902 322.293 103.902C322.07 104.709 321.848 105.516 321.619 106.347C321.277 105.279 320.941 104.209 320.607 103.138C320.42 102.543 320.232 101.947 320.038 101.334C319.596 99.6241 319.596 99.6241 319.596 97.1794Z" fill="#56403A"/>
<path d="M207.67 237.753C208.78 237.823 209.89 237.901 210.999 237.982C211.617 238.025 212.235 238.068 212.872 238.111C213.634 238.237 213.634 238.237 214.412 238.364C214.635 238.768 214.857 239.171 215.087 239.587C216.512 240.141 216.512 240.141 218.163 240.58C218.72 240.739 219.277 240.898 219.851 241.062C220.281 241.18 220.712 241.299 221.155 241.42C220.71 241.824 220.265 242.227 219.806 242.643C215.801 241.433 211.796 240.222 207.67 238.976C207.67 238.572 207.67 238.169 207.67 237.753Z" fill="#F7E7D3"/>
<path d="M215.087 110.626C215.532 110.827 215.977 111.029 216.435 111.237C215.665 113.331 215.118 113.659 213.19 114.904C212.727 115.206 212.264 115.509 211.787 115.821C211.318 116.123 210.85 116.426 210.367 116.737C209.93 117.075 209.493 117.413 209.042 117.762C207.376 118.744 206.432 118.764 204.467 118.686C203.928 118.669 203.39 118.653 202.834 118.635C202.428 118.614 202.021 118.593 201.602 118.571C201.602 118.369 201.602 118.168 201.602 117.96C201.985 117.921 202.368 117.883 202.763 117.843C207.364 117.181 209.358 115.535 212.39 112.459C213.269 111.825 214.157 111.198 215.087 110.626Z" fill="#291D2D"/>
<path d="M297.219 88.5845C297.877 88.59 298.535 88.5955 299.213 88.6012C299.958 88.6118 299.958 88.6118 300.717 88.6227C296.281 90.74 292.16 91.227 287.232 91.0674C290.343 88.665 293.233 88.5409 297.219 88.5845Z" fill="#241D2D"/>
<path d="M312.179 242.032C312.179 242.233 312.179 242.435 312.179 242.643C310.017 242.953 307.853 243.257 305.69 243.56C305.08 243.647 304.471 243.734 303.843 243.825C297.506 244.705 297.506 244.705 294.649 244.476C294.204 244.073 293.759 243.67 293.3 243.254C295.308 243.047 297.317 242.843 299.326 242.643C299.886 242.584 300.447 242.526 301.024 242.466C304.766 242.096 308.414 241.976 312.179 242.032Z" fill="#F3E7D6"/>
<path d="M322.293 110.626C326.17 111.695 326.17 111.695 327.687 113.07C327.771 114.98 327.771 114.98 327.687 116.737C326.908 116.184 326.137 115.622 325.369 115.057C324.724 114.589 324.724 114.589 324.066 114.111C322.84 112.95 322.56 112.193 322.293 110.626Z" fill="#AF4034"/>
<path d="M256.89 119.793C257.113 119.793 257.335 119.793 257.565 119.793C257.565 121.407 257.565 123.02 257.565 124.683C258.455 124.481 259.345 124.28 260.262 124.072C259.335 125.294 259.335 125.294 258.239 126.516C257.794 126.516 257.349 126.516 256.89 126.516C256.807 127.197 256.724 127.878 256.638 128.579C256.216 130.795 256.216 130.795 254.868 132.017C255.496 127.936 256.195 123.865 256.89 119.793Z" fill="#FEF4F0"/>
<path d="M226.718 94.6964C227.995 94.7047 227.995 94.7047 229.299 94.7131C229.949 94.7202 230.599 94.7273 231.269 94.7346C231.046 95.138 230.824 95.5414 230.595 95.957C228.9 96.1819 227.284 96.3269 225.58 96.4154C224.878 96.4662 224.878 96.4662 224.162 96.518C222.937 96.5889 221.708 96.5833 220.481 96.5682C220.036 96.1648 219.591 95.7614 219.132 95.3458C221.663 94.6099 224.076 94.6742 226.718 94.6964Z" fill="#BDBDC0"/>
<path d="M275.77 131.406C276.104 131.635 276.439 131.865 276.784 132.101C279.786 134.151 282.816 136.159 285.883 138.129C285.216 138.331 284.548 138.533 283.861 138.74C282.407 137.929 282.407 137.929 280.826 136.754C280.305 136.373 279.783 135.991 279.246 135.598C276.769 133.662 276.769 133.662 275.77 132.628C275.77 132.225 275.77 131.822 275.77 131.406Z" fill="#FEF0EC"/>
<path d="M220.481 95.957C218.607 97.0896 216.717 98.0969 214.75 99.0893C214.103 99.4186 213.456 99.748 212.79 100.087C211.041 100.846 211.041 100.846 209.019 100.846C211.881 97.8189 215.947 95.4433 220.481 95.957Z" fill="#F5E9E5"/>
<path d="M327.013 117.349C327.013 117.954 327.013 118.559 327.013 119.182C324.166 121.016 324.166 121.016 322.293 121.016C322.293 120.007 322.293 118.999 322.293 117.96C323.954 117.207 325.178 117.305 327.013 117.349Z" fill="#B74639"/>
<path d="M242.057 116.126C243.169 116.731 244.282 117.336 245.428 117.96C245.206 118.565 244.983 119.17 244.754 119.793C243.026 120.519 243.026 120.519 241.383 121.016C241.605 119.402 241.828 117.789 242.057 116.126Z" fill="#F5C8C3"/>
<path d="M308.808 103.902C310.615 104.511 312.195 105.134 313.823 106.08C315.765 107.068 317.398 107.338 319.596 107.57C319.596 107.771 319.596 107.973 319.596 108.181C315.042 108.63 312.054 107.127 308.134 105.125C308.356 104.721 308.579 104.318 308.808 103.902Z" fill="#302332"/>
<path d="M209.018 115.515C209.463 115.918 209.908 116.322 210.367 116.737C209.044 117.989 208.056 118.54 206.14 118.693C204.623 118.686 203.116 118.65 201.602 118.571C201.602 118.369 201.602 118.168 201.602 117.96C202.024 117.886 202.447 117.812 202.882 117.735C203.433 117.633 203.984 117.531 204.552 117.425C205.099 117.326 205.647 117.227 206.211 117.124C207.796 116.819 207.796 116.819 209.018 115.515Z" fill="#593C40"/>
<path d="M199.579 111.237C200.024 111.64 200.469 112.043 200.927 112.459C200.764 113.782 200.764 113.782 200.337 115.286C200.2 115.785 200.063 116.285 199.921 116.8C199.808 117.182 199.695 117.565 199.579 117.96C198.23 116.126 198.23 116.126 198.441 114.254C198.905 112.459 198.905 112.459 199.579 111.237Z" fill="#FCDED4"/>
<path d="M287.906 44.0057C288.129 44.0057 288.351 44.0057 288.58 44.0057C288.58 45.821 288.58 47.6362 288.58 49.5065C287.913 49.5065 287.245 49.5065 286.558 49.5065C287.003 47.6912 287.448 45.876 287.906 44.0057Z" fill="#AE614D"/>
</svg>
