<svg width="474" height="426" viewBox="0 0 474 426" fill="none" xmlns="http://www.w3.org/2000/svg">
<path d="M130.28 223.864C130.28 223.864 110.492 208.755 129.012 178.75C129.012 178.75 141.518 160.915 144.869 144.528C144.869 144.528 146.15 104.426 159.236 81.952C159.236 81.952 169.524 48.2984 202.161 36.7219C202.161 36.7219 300.68 29.2589 313.955 38.2072C313.955 38.2072 327.23 47.1554 313.955 38.2072C313.955 38.2072 347.887 67.8451 358.215 116.021C358.215 116.021 360.622 138.722 364.512 158.275C366.757 169.57 371.935 180.236 379.735 189.276C379.789 189.343 379.85 189.41 379.904 189.471C379.904 189.471 423.227 228.736 416.539 251.002C409.851 273.269 130.273 223.858 130.273 223.858" fill="#353531"/>
<path d="M378.663 223.43C378.663 223.43 135.612 225.203 136.145 222.825C136.684 220.442 141.12 215.515 141.12 215.515C150.647 204.978 169.288 206.842 174.142 207.539C175.059 207.673 175.976 207.759 176.899 207.789C190.909 208.309 199.734 207.728 199.734 207.728C221.78 206.75 223.688 190.755 223.445 183.714C223.378 181.709 223.135 180.425 223.135 180.425H282.147C282.093 180.712 282.039 180.994 281.998 181.269C278.122 204.22 298.846 207.649 315.633 206.818C320.238 206.591 324.553 206.041 327.978 205.491C341.057 203.389 354.595 205.754 365.611 212.484C374.166 217.716 378.663 223.43 378.663 223.43Z" fill="#F8A382"/>
<path opacity="0.5" d="M315.634 206.818C264.031 225.038 232.87 205.008 223.445 183.194C223.405 181.947 223.297 180.981 223.216 180.425C223.169 180.089 223.135 179.906 223.135 179.906H280.205L280.886 180.425L281.998 181.269C278.122 204.22 298.846 207.649 315.634 206.818Z" fill="#AE3D32"/>
<path d="M282.005 42.6752C287.527 58.3285 296.972 72.8327 309.424 84.7819C314.319 89.4761 321.344 94.1152 327.978 91.762C331.807 90.4113 334.349 86.9212 335.219 83.2783C336.088 79.6355 335.515 75.8459 334.646 72.2031C330.405 54.4411 318.903 38.1766 302.871 27.2664C298.152 24.0575 289.152 19.5284 283.563 23.4463C277.643 27.6026 280.144 37.4004 282.005 42.6691V42.6752Z" fill="#353531"/>
<path d="M340.073 119.493C338.913 109.316 328.868 101.92 317.643 102.972C306.418 104.023 298.26 113.13 299.419 123.307C300.579 133.484 310.624 140.879 321.85 139.828C333.075 138.777 341.233 129.67 340.066 119.493H340.073Z" fill="#F8A382"/>
<path d="M329.03 116.877C326.158 116.229 323.104 117.109 320.737 118.649C318.398 120.226 316.551 122.604 316.369 125.281C318.492 123.478 320.286 121.968 322.335 120.63C324.364 119.255 326.495 118.167 329.03 116.877Z" fill="#AE3D32"/>
<path d="M317.306 109.768C321.411 111.18 324.695 113.369 326.886 116.302C329.077 119.242 330.095 122.818 330.021 126.797C332.246 123.264 331.753 118.448 329.124 114.927C326.495 111.407 321.749 109.212 317.299 109.768H317.306Z" fill="#AE3D32"/>
<path d="M184.699 152.222C195.367 148.884 201.031 138.338 197.349 128.666C193.667 118.994 182.034 113.859 171.366 117.197C160.698 120.535 155.034 131.081 158.716 140.753C162.398 150.425 174.031 155.56 184.699 152.222Z" fill="#F8A382"/>
<path d="M167.926 132.005C170.596 130.837 173.778 131.131 176.448 132.2C179.098 133.306 181.444 135.293 182.226 137.878C179.738 136.509 177.648 135.36 175.329 134.431C173.037 133.459 170.697 132.793 167.926 131.998V132.005Z" fill="#AE3D32"/>
<path d="M177.796 122.867C174.095 125.006 171.378 127.763 169.895 131.045C168.418 134.327 168.223 138.019 169.194 141.9C166.214 138.856 165.607 134.052 167.394 130.116C169.173 126.186 173.32 123.148 177.796 122.867Z" fill="#AE3D32"/>
<path d="M321.236 86.8478C321.344 87.783 321.445 88.6937 321.492 89.6105C321.688 92.3549 321.708 95.0871 321.526 97.7825L321.593 106.767C321.667 118.356 323.495 129.016 320.198 140.531C315.485 157.144 302.662 174.124 286.987 183.934C273.834 192.191 257.431 194.098 242.289 189.471C222.515 183.438 202.431 168.837 191.759 152.59C185.475 143.031 183.534 131.357 181.228 120.556L180.399 116.877C180.277 116.547 180.149 116.217 180.055 115.887C178.376 111.076 177.203 105.924 176.576 100.435C173.623 74.6052 186.385 50.7127 207.622 37.0948C217.27 30.9276 228.643 26.863 241.122 25.6956C257.134 24.192 272.445 27.7004 285.376 34.821C287.668 36.0802 289.886 37.4737 292.024 38.959C307.88 50.0404 318.957 67.0383 321.223 86.8601L321.236 86.8478Z" fill="#F8A382"/>
<path opacity="0.5" d="M292.037 38.9467C292.718 44.1421 292.172 49.5025 290.412 54.4533C285.767 67.35 274.07 77.4412 260.775 83.6878C255.847 86.0166 250.528 87.9114 244.972 88.0642C239.424 88.2414 233.558 86.4261 230.147 82.4593C227.207 79.0548 226.54 73.9878 228.846 70.3266C217.418 84.7819 204.487 98.2776 190.323 110.624C187.471 113.1 183.669 115.612 180.048 115.875C178.369 111.064 177.196 105.912 176.569 100.423C173.616 74.5929 186.379 50.7005 207.616 37.0825C217.263 30.9154 228.637 26.8508 241.116 25.6833C257.128 24.1797 272.439 27.6881 285.369 34.8088C287.662 36.0679 289.88 37.4615 292.017 38.9467H292.037Z" fill="#AE3D32"/>
<path d="M207.157 37.1436C206.274 38.4089 205.384 39.6313 204.703 40.8293C201.164 47.0576 198.049 53.5182 195.433 60.1499C190.174 73.2727 186.763 87.0617 185.3 101.04C184.457 108.888 184.248 116.804 184.673 124.682C184.774 126.718 184.444 129.364 182.873 130.403L180.594 120.624L179.751 116.932C177.904 111.828 176.59 106.352 175.922 100.49C172.969 74.6663 185.812 50.7677 207.164 37.1436H207.157Z" fill="#353531"/>
<path d="M322.167 85.9799C322.274 86.909 322.113 89.8306 322.167 90.7413C322.349 93.4857 321.742 95.087 321.573 97.7886L321.62 106.761C320.346 100.667 318.654 94.6347 316.625 88.7059C312.034 75.2958 305.548 62.4419 297.464 50.566C293.723 45.0956 289.664 39.8269 285.268 34.8149C309.923 39.4724 319.591 63.4749 322.167 85.9738V85.9799Z" fill="#353531"/>
<path d="M168.648 77.9057C167.657 81.573 166.982 85.3015 166.888 89.1582C166.8 92.85 167.252 96.4562 167.926 100.087C168.445 102.88 169.443 105.893 172.066 107.428C176.704 110.129 182.597 106.56 186.574 103.1C201.299 90.2768 214.681 76.1882 226.479 61.0789C222.637 64.7218 222.953 70.9745 226.385 74.9413C229.817 78.902 235.662 80.7112 241.21 80.5462C246.766 80.3812 252.085 78.4864 257.02 76.1699C270.315 69.911 282.012 59.832 286.644 46.9231C291.282 34.0142 287.507 18.2448 275.479 10.1523C269.014 5.80045 260.829 3.94235 252.773 3.69175C231.664 3.02552 211.29 12.9639 197.119 27.1747C192.399 31.9055 188.273 37.107 184.68 42.5835C181.073 48.0844 177.999 53.8727 175.342 59.8015C174.007 62.7781 172.78 65.7914 171.641 68.8353C170.515 71.8486 169.463 74.8619 168.634 77.918L168.648 77.9057Z" fill="#353531"/>
<path d="M286.104 30.9153C290.19 35.0961 291.754 41.1166 291.087 46.7336C290.406 52.3507 287.432 57.925 282.443 61.2012C285.673 56.5376 287.608 51.605 288.221 46.4525C288.862 41.2999 288.147 36.0985 286.104 30.9153Z" fill="#353531"/>
<path d="M205.93 90.8269C204.494 91.7009 204.541 93.449 206.018 94.103C208.398 95.1543 210.764 95.7533 213.13 96.1811C216.4 96.7312 219.663 96.8596 222.913 96.6212C226.162 96.3828 229.405 95.7716 232.635 94.7326C234.927 93.9685 237.212 93.0334 239.484 91.6642C240.988 90.7596 240.941 88.926 239.39 88.2475C237.05 87.2207 234.718 86.6339 232.399 86.2183C229.129 85.6682 225.866 85.5398 222.616 85.7904C219.367 86.041 216.124 86.6523 212.894 87.6913C210.568 88.4737 208.243 89.4211 205.93 90.8269Z" fill="#0F1528"/>
<path d="M307.018 81.3347C308.622 81.9214 308.973 83.639 307.671 84.5558C305.581 86.0288 303.397 87.0496 301.179 87.9114C298.098 89.0605 294.936 89.7878 291.7 90.1606C288.464 90.5335 285.154 90.5335 281.756 90.1179C279.342 89.7939 276.888 89.305 274.353 88.382C272.674 87.7769 272.31 85.9738 273.672 85.0203C275.729 83.584 277.879 82.5754 280.057 81.732C283.138 80.5829 286.3 79.8555 289.536 79.501C292.772 79.1465 296.082 79.1404 299.48 79.556C301.934 79.8861 304.429 80.3873 307.011 81.3286L307.018 81.3347Z" fill="#0F1528"/>
<path d="M264.793 173.745C267.645 172.687 270.787 172.284 273.848 172.571" stroke="#AE3D32" stroke-miterlimit="10"/>
<path d="M281.506 156.698C281.533 156.906 281.021 157.419 280.663 158.366C276.16 170.218 258.914 172.394 248.114 161.349C247.426 160.646 247.008 160.145 246.988 159.937L246.974 159.797L264.227 158.317L281.506 156.698Z" fill="#AE3D32"/>
<path d="M277.677 151.172C276.14 149.767 273.477 149.064 271.575 150.121C270.726 150.592 270.106 151.362 269.182 151.716C267.011 152.554 264.786 150.757 262.46 150.359C259.231 149.815 256.271 152.065 254.235 154.32C252.199 156.576 250.184 159.204 246.988 159.937C250.838 161.099 255.092 160.701 259.11 159.98C263.121 159.265 267.112 158.232 271.205 158.171C272.951 158.146 274.704 158.293 276.436 158.128C278.311 157.951 281.513 156.692 281.513 156.692C281.513 156.692 278.836 152.224 277.684 151.166L277.677 151.172Z" fill="#CC5F50"/>
<path d="M286.509 154.919C283.549 156.087 280.603 157.327 277.495 158.152C275.203 158.544 272.85 158.232 270.578 158.421C268.757 158.538 266.944 158.813 265.15 159.143C259.015 160.341 252.098 161.826 245.99 159.803C245.12 159.515 244.271 159.167 243.529 158.666C244.305 159.124 245.168 159.424 246.037 159.674C252.314 161.41 258.833 159.846 265.036 158.617C266.849 158.299 268.69 158.042 270.551 157.945C272.863 157.761 275.162 158.195 277.427 157.865C280.535 157.113 283.515 155.958 286.509 154.913V154.919Z" fill="#0F1528"/>
<path d="M277.212 131.87C268.751 125.709 257.964 127.671 252.51 136.356" stroke="#AE3D32" stroke-linecap="round" stroke-linejoin="round"/>
<path d="M270.632 138.257C271.825 137.524 273.308 137.188 274.744 137.322" stroke="#AE3D32" stroke-linecap="round" stroke-linejoin="round"/>
<path d="M264.031 138.875C262.697 138.38 261.166 138.325 259.791 138.722" stroke="#AE3D32" stroke-linecap="round" stroke-linejoin="round"/>
<g style="mix-blend-mode:multiply" opacity="0.74">
<path d="M319.369 106.04C319.193 105.802 318.977 105.588 318.715 105.423C317.427 104.591 313.159 102.085 306.849 101.004C306.849 101.004 295.819 98.9438 288.545 104.182C288.545 104.182 284.25 106.193 277.657 115.19C277.657 115.19 280.69 114.64 283.252 115.489C285.814 116.339 295.684 117.806 295.684 117.806C295.684 117.806 306.91 116.516 306.647 115.489C306.384 114.463 313.045 109.94 313.045 109.94L316.112 108.173L319.375 106.04H319.369Z" fill="#CC5F50"/>
</g>
<g style="mix-blend-mode:multiply" opacity="0.74">
<path d="M202.781 116.388C202.903 116.125 203.078 115.881 203.301 115.673C204.4 114.646 208.094 111.48 214.088 109.371C214.088 109.371 224.524 105.533 232.729 109.487C232.729 109.487 237.354 110.759 245.64 118.521C245.64 118.521 242.545 118.478 240.199 119.737C237.853 120.99 228.434 124.059 228.434 124.059C228.434 124.059 217.142 124.633 217.196 123.582C217.25 122.531 209.793 119.175 209.793 119.175L206.429 117.94L202.788 116.382L202.781 116.388Z" fill="#CC5F50"/>
</g>
<path d="M244.938 109.628C242.768 107.024 240.037 104.928 237.017 103.54" stroke="#AE3D32" stroke-miterlimit="10"/>
<path d="M275.418 106.859C276.962 103.913 279.174 101.358 281.816 99.445" stroke="#AE3D32" stroke-miterlimit="10"/>
<path d="M276.942 115.489C276.942 115.489 279.302 114.016 284.587 115.489C284.587 115.489 293.857 117.396 298.125 116.895C298.125 116.895 304.179 117.018 308.716 112.653C308.716 112.653 314.562 107.788 315.802 107.415C315.802 107.415 319.106 105.796 320.825 105.484C320.825 105.484 316.834 107.232 315.6 108.723L313.8 110.361C313.294 110.826 312.809 111.309 312.357 111.816C311.036 113.301 308.103 117.274 300.896 118.338C300.586 118.387 300.269 118.423 299.959 118.478C298.482 118.723 292.698 119.138 283.259 116.143C283.259 116.143 280.111 114.701 276.949 115.483L276.942 115.489Z" fill="#0F1528"/>
<path d="M246.395 118.704C246.395 118.704 243.779 117.647 238.877 119.964C238.877 119.964 230.14 123.362 225.845 123.576C225.845 123.576 219.919 124.694 214.587 121.149C214.587 121.149 207.865 117.329 206.57 117.164C206.57 117.164 202.997 116.113 201.244 116.088C201.244 116.088 205.519 117.152 207.036 118.417L209.132 119.731C209.726 120.104 210.299 120.495 210.845 120.923C212.443 122.164 216.117 125.593 223.418 125.452C223.735 125.452 224.052 125.434 224.369 125.434C225.872 125.434 231.643 124.89 240.32 120.391C240.32 120.391 243.125 118.454 246.395 118.704Z" fill="#0F1528"/>
<g style="mix-blend-mode:multiply" opacity="0.21">
<path d="M255.702 128.159C259.793 113.871 250.333 99.2813 234.572 95.5728C218.812 91.8643 202.72 100.441 198.629 114.729C194.538 129.018 203.999 143.607 219.759 147.315C235.519 151.024 251.612 142.447 255.702 128.159Z" fill="#F16571"/>
</g>
<path d="M255.702 128.159C259.793 113.871 250.333 99.2813 234.572 95.5728C218.812 91.8643 202.72 100.441 198.629 114.729C194.538 129.018 203.999 143.607 219.759 147.315C235.519 151.024 251.612 142.447 255.702 128.159Z" stroke="white" stroke-width="1.56" stroke-linecap="round" stroke-linejoin="round"/>
<g style="mix-blend-mode:multiply" opacity="0.21">
<path d="M316.571 135.04C329.338 125.879 331.497 109.069 321.392 97.4937C311.287 85.9186 292.745 83.9618 279.977 93.1229C267.21 102.284 265.051 119.094 275.156 130.669C285.261 142.244 303.803 144.201 316.571 135.04Z" fill="#F16571"/>
</g>
<path d="M316.571 135.04C329.338 125.879 331.497 109.069 321.392 97.4937C311.287 85.9186 292.745 83.9618 279.977 93.1229C267.21 102.284 265.051 119.094 275.156 130.669C285.261 142.244 303.803 144.201 316.571 135.04Z" stroke="white" stroke-width="1.56" stroke-linecap="round" stroke-linejoin="round"/>
<path d="M256.966 125.507C258.786 123.869 261.234 122.824 263.775 122.58C266.324 122.341 268.953 122.91 271.104 124.175" stroke="white" stroke-width="1.56" stroke-linecap="round" stroke-linejoin="round"/>
<path d="M197.739 119.597L166.875 110.698" stroke="white" stroke-width="1.56" stroke-linecap="round" stroke-linejoin="round"/>
<path d="M141.121 215.515C141.121 215.515 160.571 218.889 189.487 219.158H337.902C337.902 219.158 362.456 217.856 367.121 217.337C367.121 217.337 387.785 214.745 401.215 233.943C401.215 233.943 443.122 273.581 461.157 342.716C461.157 342.716 486.371 386.656 450.767 403C450.767 403 420.213 429.704 352.619 419.527L330.095 353.95C330.095 353.95 373.87 352.795 386.342 347.893L147.862 355.38C147.862 355.38 133.192 316.042 120.976 328.364C120.976 328.364 112.892 342.025 100.494 361.333C100.494 361.333 66.7578 410.573 35.7722 399.974C35.7722 399.974 -9.66795 376.571 10.2947 336.781C10.2947 336.781 12.3577 331.047 28.1943 316.207C28.1943 316.207 50.3683 294.24 73.021 265.653C73.021 265.653 107.364 212.282 141.114 215.521L141.121 215.515Z" fill="#F78F3A"/>
<path d="M63.4879 307.027C63.4879 307.027 49.0266 312.314 48.5142 362.311C48.5142 362.311 45.4129 382.903 63.4879 370.691C63.4879 370.691 101.148 345.851 102.712 318.218L73.0209 337.954C73.0209 337.954 73.8097 300.523 63.4811 307.027H63.4879Z" fill="#EA8325"/>
<path d="M126.659 244.065C126.659 244.065 128.952 234.292 185.496 236.015C185.496 236.015 230.167 236.596 243.138 247.133L258.153 255.886C258.153 255.886 261.82 240.416 297.518 238.118C297.518 238.118 314.926 236.932 339.217 241.681C339.217 241.681 351.44 241.926 367.115 241.681C367.115 241.681 381.819 239.481 390.394 245.85C398.97 252.219 246.867 278.409 246.867 278.409L126.653 244.071L126.659 244.065Z" fill="#FFFBF0"/>
<path d="M246.867 260.317C246.867 260.317 219.137 235.386 160.396 239.927C160.396 239.927 197.456 239.029 246.867 260.317Z" fill="#EDDDC9"/>
<path d="M256.137 260.317C256.137 260.317 243.974 244.218 203.907 237.519C203.907 237.519 229.318 241.742 256.137 260.317Z" fill="#EDDDC9"/>
<path d="M234.381 260.317C234.381 260.317 197.273 246.449 160.396 244.065L234.381 260.317Z" fill="#EDDDC9"/>
<path d="M269.169 252.072C269.169 252.072 277.556 242.189 311.582 241.81C311.582 241.81 288.437 242.739 269.169 252.072Z" fill="#EDDDC9"/>
<path d="M357.083 246.767C357.083 246.767 298.934 243.833 277.535 252.072C277.535 252.072 327.567 247.072 357.083 246.767Z" fill="#EDDDC9"/>
<path d="M132.518 360.282L124.367 242.482L250.44 271.154C250.44 271.154 256.103 273.349 262.467 266.454L270.288 259.064C270.288 259.064 273.153 253.117 289.576 254.468C289.576 254.468 362.806 253.117 400.507 244.866L391.729 348.351L261.699 382.506C261.699 382.506 254.835 391.24 231.367 384.156L132.525 360.282H132.518Z" fill="#CC4B27"/>
<path d="M65.0319 316.201C65.0319 316.201 86.7204 307.73 89.8217 281.606C89.8217 281.606 88.1025 260.372 101.182 253.667C101.182 253.667 97.5546 239.787 115.205 224.072L126.774 216.261C130.792 213.657 132.343 214.213 132.909 214.427C133.981 214.831 134.898 216.359 131.675 221.78C131.675 221.78 138.046 217.563 137.568 223.846C137.332 226.951 135.7 229.83 133.172 231.945C129.012 235.435 121.63 242.341 118.738 249.56L119.54 249.395C120.571 249.187 136.812 245.654 145.59 249.872C145.59 249.872 150.256 254.969 137.851 258.27C137.851 258.27 150.276 260.635 131.668 268.129L125.473 269.932L125.688 273.067L127.569 300.23L124.933 300.902C124.933 300.902 117.187 306.868 112.023 312.075C112.023 312.075 101.175 322.448 96.0174 331.335C96.0174 331.335 93.6376 340.252 59.3552 362.323C59.3552 362.323 56.7731 335.735 65.0386 316.213L65.0319 316.201Z" fill="#F8A382"/>
<path d="M330.088 353.95L391.729 348.351L345.716 373.649L330.088 353.95Z" fill="#F78F3A"/>
<path d="M328.025 355.374C328.025 355.374 328.524 394.486 347.051 418.617C347.051 418.617 358.269 431.195 355.323 409.46C355.323 409.46 348.952 374.829 339.709 361.358C340.693 363.417 337.194 357.452 333.439 353.95C333.439 353.95 327.546 347.648 328.018 355.374H328.025Z" fill="#EA8325"/>
<path d="M341.974 398.141C341.974 398.141 318.479 392.053 277.313 385.397C277.313 385.397 253.035 382.463 239.788 371.076C239.188 370.563 238.385 370.068 237.725 369.621C235.567 368.191 229.486 364.695 217.162 356.596C216.589 356.217 216.049 355.948 215.112 355.447C213.413 354.543 208.519 351.132 206.193 348.107C205.667 347.428 205.613 346.951 205.694 346.31C205.809 345.368 207.703 343.663 210.811 344.898L201.217 339.048C199.202 337.636 197.165 335.858 196.822 333.572C196.822 333.529 196.808 333.48 196.801 333.437C196.437 330.675 199.107 328.639 202.121 329.153C204.487 329.562 208.317 331.524 212.834 334.22C212.834 334.22 234.428 346.939 243.206 349.531L206.955 326.194C206.955 326.194 197.145 321.231 199.808 316.219C199.808 316.219 200.031 311.195 216.225 319.63C232.419 328.065 249.664 336.799 249.664 336.799C249.664 336.799 256.48 340.98 254.788 335.858C254.269 334.293 253.312 332.875 252.064 331.689L237.59 317.925C237.59 317.925 229.25 311.8 234.448 307.057C234.448 307.057 239.666 306.587 245.855 312.858C246.671 313.689 247.554 314.465 248.505 315.168L260.296 325.131L270.497 333.327C270.497 333.327 275 336.768 279.531 338.737C279.531 338.737 282.517 336.658 275.027 328.383C275.027 328.383 270.369 324.043 270.497 316.225C270.497 316.225 271.811 309.221 277.158 312.087C277.158 312.087 280.697 317.698 281.081 319.838C281.466 321.977 283.812 325.045 288.841 327.961C288.841 327.961 297.242 333.058 300.72 342.734C300.72 342.734 302.952 353.956 313.388 357.397C313.388 357.397 321.519 359.096 330.155 359.5C330.155 359.5 344.509 381.155 341.981 398.135L341.974 398.141Z" fill="#F8A382"/>
<path d="M253.426 279.662V291.153C253.426 291.153 268.744 291.129 275.337 282.431L274.96 265.647C274.96 265.647 269.344 275.757 253.426 279.662Z" fill="#FFFBF0"/>
<path d="M253.426 296.721C253.426 296.721 269.539 297.333 274.96 291.153L275.776 299.02C275.776 299.02 267.793 303.463 253.433 302.883V296.728L253.426 296.721Z" fill="#FFFBF0"/>
<path d="M407.552 419.527C403.682 400.469 396.799 382.145 385.601 365.661C381.906 360.196 377.733 354.983 373.337 349.671C397.23 363.955 411.59 393.917 407.552 419.527Z" fill="white"/>
<path d="M390.879 421.049C387.01 401.991 380.126 383.667 368.928 367.183C365.233 361.718 361.06 356.505 356.665 351.193C380.558 365.477 394.918 395.439 390.879 421.049Z" fill="white"/>
<path d="M9.60708 375.012C10.5847 357.483 17.8726 339.825 31.1945 326.891C37.7341 320.18 47.5166 315.394 56.1124 311.11C54.3865 314.074 49.8155 320.797 48.7503 323.89C46.8693 328.517 45.5884 333.541 44.6513 338.413C41.1388 356.945 41.1118 376.021 41.2871 394.773C41.2871 396.503 41.3006 398.239 41.2736 399.974C40.3163 395.079 39.2645 389.498 38.705 384.541C36.7026 369.01 36.2307 353.027 38.833 337.532C39.0286 336.218 39.5477 333.602 39.8646 332.307C41.0983 327.093 42.6422 321.824 45.521 317.112C45.5884 317.002 45.7098 316.831 45.8041 316.696L49.7346 320.614C41.7051 324.569 34.6396 330.082 29.0102 336.603C19.3221 347.77 13.1331 361.168 9.60034 375.012H9.60708Z" fill="white"/>
<path d="M131.675 221.768C122.614 227.862 114.767 235.966 110.802 245.63L110.357 246.657L110.014 247.714L109.312 249.835C111.699 238.106 120.72 228.033 131.682 221.762L131.675 221.768Z" fill="#AE3D32"/>
<path d="M137.858 258.264C129.653 257.567 121.273 259.168 114.126 262.909C114.976 262.377 115.812 261.809 116.722 261.35C123.019 258.068 130.738 256.895 137.858 258.27V258.264Z" fill="#AE3D32"/>
<path d="M210.805 344.904C215.092 346.884 219.427 349.188 223.297 351.615L234.374 357.379C230.457 355.838 226.675 354.029 222.953 352.128C219.084 349.732 214.722 347.263 210.798 344.904H210.805Z" fill="#AE3D32"/>
<path d="M203.071 337.973L197.833 335.314C197.833 335.314 196.876 334.751 196.073 333.749C194.044 331.231 197.341 327.967 200.274 329.593C200.307 329.611 200.348 329.629 200.381 329.654L206.739 333.395C206.739 333.395 207.238 333.651 206.739 334.525L204.231 337.661C204.231 337.661 203.82 338.358 203.065 337.973H203.071Z" fill="white"/>
<path d="M207.541 324.782L201.622 321.775C201.622 321.775 197.604 319.398 198.541 315.712C198.541 315.712 199.836 312.913 204.501 315.376L211.688 319.599C211.688 319.599 212.254 319.887 211.688 320.877L208.856 324.416C208.856 324.416 208.398 325.204 207.541 324.77V324.782Z" fill="white"/>
<path d="M238.102 315.938L233.774 312.778C233.774 312.778 230.888 310.364 232.196 307.503L232.284 307.369C232.284 307.369 234.145 305.596 237.057 307.968L242.222 312.265C242.222 312.265 242.633 312.564 242.033 313.298L239.215 315.81C239.215 315.81 238.722 316.39 238.095 315.932L238.102 315.938Z" fill="white"/>
<path d="M208.802 348.999L206.065 347.489C206.065 347.489 205.445 347.092 205.02 346.42C204.197 345.118 205.789 343.608 207.231 344.341C207.332 344.39 207.434 344.451 207.541 344.519L210.852 346.621C210.852 346.621 211.115 346.768 210.825 347.226L209.422 348.852C209.422 348.852 209.193 349.219 208.795 348.999H208.802Z" fill="white"/>
<path d="M277.893 319.52L280.657 318.566C280.657 318.566 280.657 318.566 280.657 318.475L276.652 310.364C276.477 310.113 276.302 309.936 276.302 309.936C276.012 309.624 274.313 308.371 273.234 311.47C273.234 311.47 273.012 312.601 273.625 314.532C273.625 314.532 274.522 317.02 275.216 318.114C275.216 318.114 276.106 320.443 277.879 319.52H277.893Z" fill="white"/>
<path d="M124.738 217.398L130.077 213.798C130.077 213.798 132.026 212.759 132.949 213.174C132.949 213.174 137.177 214.317 131.331 219.415L128.817 221.077C128.817 221.077 127.9 221.493 127.441 221.077L124.684 217.887L124.448 217.587L124.738 217.392V217.398Z" fill="white"/>
<path d="M127.826 224.292L133.165 220.692C133.165 220.692 135.113 219.653 136.037 220.069C136.037 220.069 140.264 221.212 134.419 226.309L131.904 227.972C131.904 227.972 130.987 228.387 130.529 227.972L127.772 224.781L127.536 224.482L127.826 224.286V224.292Z" fill="white"/>
<path d="M137.804 248.056L145.26 248.582C145.26 248.582 147.755 249.01 148.179 249.976C148.179 249.976 150.768 253.783 141.646 254.193L138.161 253.918C138.161 253.918 137.049 253.655 137.008 252.995L137.345 248.435L137.399 248.026L137.804 248.056Z" fill="white"/>
<path d="M134.958 257.94L140.972 258.49C140.972 258.49 142.988 258.875 143.352 259.657C143.352 259.657 145.509 262.75 138.188 262.921L135.376 262.646C135.376 262.646 134.473 262.42 134.433 261.888L134.608 258.245L134.642 257.915L134.965 257.946L134.958 257.94Z" fill="white"/>
<path d="M141.593 215.75C141.992 215.799 142.39 215.849 142.801 215.899C144.729 216.134 146.659 216.362 148.589 216.591C149.214 216.668 149.838 216.745 150.482 216.825C164.597 218.476 178.717 218.989 192.935 218.964C194.618 218.966 196.3 218.968 197.983 218.971C202.03 218.976 206.076 218.975 210.123 218.972C213.419 218.969 216.716 218.969 220.012 218.97C220.485 218.97 220.959 218.97 221.447 218.97C222.41 218.971 223.373 218.971 224.336 218.972C233.312 218.975 242.288 218.971 251.264 218.965C258.925 218.959 266.585 218.96 274.246 218.966C283.196 218.972 292.147 218.975 301.097 218.971C302.056 218.971 303.015 218.97 303.973 218.97C304.445 218.97 304.916 218.97 305.402 218.969C308.685 218.968 311.968 218.97 315.251 218.973C319.689 218.977 324.127 218.974 328.566 218.967C330.18 218.965 331.794 218.966 333.408 218.968C342.216 218.982 350.92 218.76 359.694 218.011C364.098 217.639 368.439 217.515 372.862 217.584C371.603 220.172 370.398 220.801 367.468 221.862C365.595 222.278 363.809 222.615 361.911 222.879C361.357 222.957 360.803 223.034 360.232 223.114C352.533 224.079 344.792 223.947 337.036 223.923C335.298 223.925 333.56 223.927 331.822 223.93C327.621 223.936 323.421 223.932 319.22 223.924C314.31 223.916 309.399 223.917 304.489 223.918C295.715 223.92 286.941 223.913 278.167 223.901C269.689 223.89 261.212 223.885 252.735 223.889C243.465 223.892 234.195 223.892 224.925 223.885C223.933 223.885 222.94 223.884 221.948 223.883C221.46 223.883 220.972 223.882 220.469 223.882C217.062 223.88 213.655 223.88 210.247 223.881C205.643 223.883 201.039 223.877 196.435 223.868C194.757 223.865 193.079 223.865 191.401 223.866C153.262 223.899 153.262 223.899 142.268 216.973C142.045 216.569 141.823 216.166 141.593 215.75Z" fill="#FEFAF7"/>
</svg>
