<svg width="1440" height="160" viewBox="0 0 1440 160" fill="none" xmlns="http://www.w3.org/2000/svg">
<path d="M111.3 96.2004C112.009 95.0033 112.801 93.8572 113.67 92.7704C114.533 91.6423 115.542 90.6335 116.67 89.7704C117.024 89.5137 117.42 89.3208 117.84 89.2004C117.985 89.1722 118.132 89.1555 118.28 89.1504H118.6C118.8 89.1504 118.98 89.1504 119.17 89.2204C119.91 89.3504 120.59 89.5304 121.28 89.7204C122.64 90.1104 123.93 90.6004 125.28 91.1104L124.21 91.3504C125.187 90.2833 126.232 89.2811 127.34 88.3504C127.911 87.8756 128.513 87.438 129.14 87.0404C129.46 86.8301 129.794 86.6429 130.14 86.4804C130.342 86.3985 130.549 86.3284 130.76 86.2704C130.991 86.2284 131.225 86.2017 131.46 86.1904C132.243 86.2285 133.015 86.3871 133.75 86.6604C134.432 86.9019 135.1 87.1823 135.75 87.5004C137.041 88.1223 138.282 88.8445 139.46 89.6604C138.1 89.2204 136.76 88.7604 135.41 88.3804C134.753 88.1763 134.086 88.0093 133.41 87.8804C132.792 87.7291 132.156 87.6652 131.52 87.6904C130.969 87.8237 130.453 88.0763 130.01 88.4304C129.471 88.8292 128.957 89.2599 128.47 89.7204C127.47 90.6404 126.47 91.6504 125.57 92.6504L125.1 93.1504L124.49 92.8904C123.26 92.3704 121.98 91.8904 120.72 91.4504C120.104 91.2267 119.477 91.0364 118.84 90.8804L118.4 90.7904H118.2C118.2 90.7904 118.2 90.7904 118.13 90.7904C117.882 90.8355 117.644 90.9271 117.43 91.0604C116.305 91.7595 115.253 92.5703 114.29 93.4804C113.31 94.3004 112.32 95.2604 111.3 96.2004Z" fill="#DBDBDB"/>
<path d="M428.07 99.7299L469.9 59.1099L455.43 60.1399L450.75 39.1699L414.09 90.4599L428.07 99.7299Z" fill="#292926"/>
<path opacity="0.2" d="M414.09 90.46L424.6 75.73L435.8 92.22L428.07 99.73L414.09 90.46Z" fill="#292926"/>
<g opacity="0.1">
<path d="M426.07 98.3999C434.61 88.6732 443.523 79.2832 452.81 70.2299C444.27 79.9632 435.357 89.3532 426.07 98.3999Z" fill="#292926"/>
<path d="M416 91.7199C423.72 80.7199 431.853 70.0199 440.4 59.6199C432.673 70.6199 424.54 81.3199 416 91.7199Z" fill="#292926"/>
<path d="M421.12 95.1198C429.287 84.5798 437.847 74.3598 446.8 64.4598C438.627 74.9998 430.067 85.2198 421.12 95.1198Z" fill="#292926"/>
<path d="M418.49 93.3798C426.59 82.5532 435.093 72.0398 444 61.8398C435.9 72.6598 427.407 83.1732 418.52 93.3798H418.49Z" fill="#292926"/>
<path d="M423.62 96.7698C432.14 86.4965 441.04 76.5598 450.32 66.9598C441.8 77.2332 432.9 87.1698 423.62 96.7698Z" fill="#292926"/>
</g>
<path d="M341.83 123.69C341.83 123.69 327.58 114.52 334.16 98.3299C340.74 82.1399 360.05 84.2199 360.05 84.2199C360.05 84.2199 395.81 68.2199 418.05 89.3499C437.4 107.73 432.23 131.48 415.56 144.35C399.35 156.85 375.65 155.4 359.5 142.35C346.27 131.61 341.83 123.69 341.83 123.69Z" fill="#292926"/>
<path opacity="0.3" d="M385.87 140.29C380.34 144.71 370.52 146.19 363.34 145.12C362.03 144.25 360.75 143.33 359.52 142.33C354.755 138.537 350.343 134.32 346.34 129.73C346.305 129.702 346.274 129.668 346.25 129.63C343.87 126.69 342.45 124.63 341.98 123.93L341.9 123.8L341.84 123.72L341.38 123.39L340.93 123.04L340.67 122.85C339.907 122.232 339.185 121.564 338.51 120.85L337.92 120.21C337.258 119.466 336.643 118.681 336.08 117.86C335.91 117.61 335.73 117.34 335.56 117.06C335.39 116.78 335.19 116.45 335.01 116.14C334.86 115.87 334.72 115.59 334.57 115.3C334.42 115.01 334.21 114.55 334.04 114.15C334.04 114.05 333.95 113.95 333.91 113.84L333.78 113.53C333.784 113.5 333.784 113.47 333.78 113.44C333.64 113.05 333.51 112.65 333.38 112.24V112.13C333.32 111.923 333.26 111.703 333.2 111.47C333.06 110.91 332.93 110.32 332.84 109.72C332.831 109.63 332.831 109.54 332.84 109.45C332.84 109.28 332.84 109.1 332.79 108.93C332.74 108.76 332.79 108.63 332.74 108.48C332.69 108.33 332.74 108.13 332.69 107.95C332.685 107.87 332.685 107.79 332.69 107.71C332.69 107.41 332.69 107.1 332.69 106.8C332.69 106.5 332.69 106.17 332.69 105.8C332.685 105.717 332.685 105.633 332.69 105.55C332.71 105.057 332.76 104.566 332.84 104.08C332.844 104.013 332.844 103.947 332.84 103.88C332.84 103.69 332.91 103.51 332.94 103.32C332.97 103.13 333.03 102.82 333.08 102.58L333.23 101.92C333.31 101.6 333.4 101.28 333.5 100.92C333.6 100.56 333.66 100.38 333.75 100.1C333.84 99.8199 333.94 99.5599 334.04 99.2699C334.037 99.2266 334.037 99.1832 334.04 99.1399L334.31 98.4299C335.069 96.5716 336.079 94.8255 337.31 93.2399C337.64 92.8099 337.97 92.4099 338.31 92.0299C338.979 91.2752 339.708 90.5762 340.49 89.9399C340.87 89.6199 341.26 89.3399 341.64 89.0499L342.24 88.6399C342.62 88.3799 343.02 88.1299 343.43 87.8899L344.04 87.5499C347.378 85.8053 351.028 84.7382 354.78 84.4099C355.3 84.3499 355.78 84.3199 356.25 84.2899H356.91H358.34H359.42C359.513 84.2995 359.607 84.2995 359.7 84.2899H359.93H360.24C371.25 86.1455 381.346 91.5626 388.98 99.7099C402.1 113.63 397.33 131.11 385.87 140.29Z" fill="#292926"/>
<path opacity="0.5" d="M367.34 98.9899C368.577 100.403 369.524 102.046 370.126 103.825C370.728 105.603 370.974 107.484 370.85 109.357C370.725 111.231 370.233 113.062 369.401 114.746C368.569 116.43 367.413 117.933 366 119.17C363.005 121.555 359.298 122.868 355.47 122.9C351.88 122.96 341.83 123.68 341.83 123.68C341.83 123.68 334.49 118.96 332.78 110.3L347.16 97.6699C350.011 95.1689 353.739 93.903 357.523 94.1505C361.308 94.3981 364.839 96.1388 367.34 98.9899Z" fill="#292926"/>
<path d="M352.08 106.64C352.644 107.282 353.005 108.076 353.118 108.923C353.23 109.77 353.089 110.631 352.712 111.397C352.335 112.164 351.74 112.802 351.001 113.23C350.262 113.658 349.412 113.858 348.56 113.803C347.707 113.749 346.89 113.443 346.211 112.924C345.533 112.405 345.023 111.696 344.747 110.888C344.471 110.08 344.441 109.208 344.66 108.382C344.88 107.556 345.339 106.815 345.98 106.25C346.406 105.875 346.902 105.587 347.439 105.404C347.976 105.22 348.544 105.144 349.111 105.181C349.677 105.217 350.231 105.364 350.741 105.615C351.25 105.865 351.705 106.214 352.08 106.64Z" fill="#FF693D"/>
<path d="M341.23 115.6L334.12 114.48L325.1 124.4L341.23 115.6Z" fill="#FF693D"/>
<path d="M341.23 115.6L331.87 120.7L337.49 119.72L341.23 115.6Z" fill="#FF693D"/>
<path d="M360.05 84.2199L434.93 120.61C434.93 120.61 441.3 90.5499 416.74 78.6099C392.18 66.6699 360.05 84.2199 360.05 84.2199Z" fill="#292926"/>
<path opacity="0.1" d="M360.05 84.2199L434.93 120.61C434.93 120.61 441.3 90.5499 416.74 78.6099C392.18 66.6699 360.05 84.2199 360.05 84.2199Z" fill="#292926"/>
<path opacity="0.1" d="M435.42 117.13C435.425 117.223 435.425 117.317 435.42 117.41C420.3 110.41 404.3 102.63 389.81 95.09C404.63 101.82 420.63 109.55 435.42 117.13Z" fill="#292926"/>
<path opacity="0.1" d="M435.67 112.47V112.84C421.02 106.07 405.67 98.5299 391.67 91.2599C406 97.7399 421.34 105.15 435.67 112.47Z" fill="#292926"/>
<path opacity="0.1" d="M435.48 107.57C435.48 107.75 435.48 107.91 435.48 108.07C421.48 101.55 406.81 94.3499 393.48 87.4199C407.14 93.5999 421.74 100.61 435.48 107.57Z" fill="#292926"/>
<path d="M378.54 159.6C377.553 159.437 376.627 159.016 375.854 158.38C375.082 157.745 374.49 156.917 374.14 155.98C373.64 154.69 373.52 152.28 374.82 150.98C375.46 150.33 376.66 149.73 378.74 150.52L378.03 152.39C377.44 152.16 376.64 151.98 376.23 152.39C375.976 152.819 375.823 153.301 375.783 153.798C375.743 154.296 375.817 154.796 376 155.26C376.226 155.868 376.606 156.407 377.105 156.823C377.603 157.239 378.201 157.517 378.84 157.63L378.54 159.6Z" fill="#292926"/>
<path d="M381.48 159.71C380.493 159.546 379.568 159.125 378.795 158.489C378.023 157.854 377.431 157.026 377.08 156.09C376.58 154.8 376.46 152.39 377.76 151.09C378.4 150.44 379.6 149.84 381.68 150.63L381 152.5C380.41 152.27 379.61 152.09 379.21 152.5C378.954 152.929 378.8 153.41 378.76 153.908C378.72 154.406 378.795 154.906 378.98 155.37C379.203 155.979 379.584 156.518 380.083 156.932C380.581 157.346 381.181 157.622 381.82 157.73L381.48 159.71Z" fill="#292926"/>
<path d="M384.43 159.82C383.443 159.657 382.517 159.236 381.744 158.6C380.972 157.965 380.38 157.137 380.03 156.2C379.53 154.91 379.41 152.5 380.71 151.2C381.35 150.55 382.55 149.95 384.63 150.73L383.92 152.6C383.33 152.38 382.53 152.2 382.12 152.6C381.866 153.029 381.713 153.511 381.673 154.008C381.633 154.506 381.708 155.006 381.89 155.47C382.115 156.078 382.496 156.615 382.995 157.03C383.493 157.444 384.091 157.72 384.73 157.83L384.43 159.82Z" fill="#292926"/>
<path d="M409.13 158.9C408.148 158.716 407.231 158.278 406.471 157.628C405.711 156.979 405.135 156.142 404.8 155.2C404.32 153.89 404.25 151.48 405.57 150.2C406.22 149.56 407.44 148.98 409.5 149.81L408.76 151.66C408.17 151.43 407.38 151.23 406.96 151.66C406.697 152.085 406.535 152.565 406.487 153.062C406.438 153.56 406.504 154.062 406.68 154.53C406.891 155.143 407.259 155.69 407.749 156.115C408.239 156.54 408.833 156.828 409.47 156.95L409.13 158.9Z" fill="#292926"/>
<path d="M412.07 159.06C411.087 158.878 410.169 158.44 409.409 157.791C408.649 157.141 408.073 156.303 407.74 155.36C407.27 154.06 407.19 151.65 408.51 150.36C409.17 149.73 410.38 149.15 412.44 149.97L411.7 151.83C411.11 151.59 410.32 151.39 409.9 151.83C409.637 152.255 409.475 152.735 409.427 153.232C409.378 153.73 409.444 154.232 409.62 154.7C409.832 155.312 410.202 155.856 410.691 156.28C411.181 156.703 411.774 156.989 412.41 157.11L412.07 159.06Z" fill="#292926"/>
<path d="M415 159.23C414.015 159.046 413.096 158.606 412.334 157.955C411.572 157.304 410.995 156.464 410.66 155.52C410.19 154.22 410.12 151.81 411.44 150.52C412.09 149.89 413.3 149.31 415.37 150.14L414.62 151.99C414.03 151.76 413.24 151.56 412.83 151.99C412.565 152.414 412.402 152.894 412.351 153.391C412.301 153.889 412.366 154.391 412.54 154.86C412.755 155.472 413.126 156.016 413.618 156.439C414.109 156.862 414.703 157.149 415.34 157.27L415 159.23Z" fill="#292926"/>
<path d="M414.139 136.793L411.056 153.581L413.016 153.941L416.099 137.153L414.139 136.793Z" fill="#292926"/>
<path d="M159.52 99.14L137 19C137 19 110.31 34.22 117.71 60.5C125.11 86.78 159.52 99.14 159.52 99.14Z" fill="#292926"/>
<path opacity="0.1" d="M134 20.95L134.23 20.78C139.1 36.7 143.89 53.9 147.88 69.7C143 54.13 138.19 37.03 134 20.95Z" fill="#292926"/>
<path opacity="0.1" d="M130.37 23.9L130.66 23.65C135.33 39.1 139.92 55.65 143.78 70.89C139.11 55.9 134.43 39.43 130.37 23.9Z" fill="#292926"/>
<path opacity="0.1" d="M126.84 27.25L127.18 26.89C131.64 41.71 135.98 57.43 139.67 72.01C135.23 57.72 130.76 42.15 126.84 27.25Z" fill="#292926"/>
<path d="M101.59 132.45L48.8699 157.35L54.9099 144.16L36.9299 132.41L97.8199 116.1L101.59 132.45Z" fill="#292926"/>
<path opacity="0.1" d="M97.8299 116.1L92.2399 117.59L98.6299 133.82L101.59 132.45L97.8299 116.1Z" fill="#292926"/>
<g opacity="0.1">
<path d="M101.05 130.11C89.3299 135.617 77.4066 140.663 65.2799 145.25C76.9999 139.743 88.9233 134.697 101.05 130.11Z" fill="#292926"/>
<path d="M98.3399 118.33C85.6133 122.67 72.7366 126.527 59.7099 129.9C72.4299 125.56 85.3066 121.703 98.3399 118.33Z" fill="#292926"/>
<path d="M99.7199 124.32C87.3199 129.22 74.7466 133.647 61.9999 137.6C74.3999 132.7 86.9766 128.273 99.7299 124.32H99.7199Z" fill="#292926"/>
<path d="M98.9999 121.25C86.3333 125.99 73.5066 130.25 60.5199 134.03C73.1866 129.277 86.0133 125.017 98.9999 121.25Z" fill="#292926"/>
<path d="M100.39 127.24C88.1499 132.573 75.7199 137.417 63.0999 141.77C75.3399 136.437 87.7699 131.593 100.39 127.24Z" fill="#292926"/>
</g>
<path d="M183.64 107.66C183.64 107.66 195.18 95.25 184.79 81.2C174.4 67.15 156.21 73.9 156.21 73.9C156.21 73.9 117.6 67.26 101.28 93.24C87.0799 115.83 98.5299 136.34 117.28 145.89C135.85 155.34 153.57 155.63 166.11 139.07C178.65 122.51 183.64 107.66 183.64 107.66Z" fill="#292926"/>
<path opacity="0.2" d="M170.89 132.37C167.282 134.421 163.249 135.612 159.106 135.851C154.963 136.09 150.82 135.371 147 133.75C133.63 127.75 122.74 112.83 132.16 95.9799C137.537 86.2178 145.968 78.4892 156.16 73.98H156.26L156.42 73.9199L156.63 73.8499L156.9 73.77C160.51 72.66 175.6 68.9699 184.71 81.2799C185.83 82.7886 186.77 84.4231 187.51 86.1499C187.74 86.6799 187.93 87.21 188.1 87.73C188.349 88.483 188.549 89.2513 188.7 90.0299C188.8 90.5299 188.87 91.03 188.94 91.52C189.029 92.4705 189.059 93.4257 189.03 94.38C189.03 94.84 188.97 95.2999 188.92 95.7299L188.83 96.3999C188.401 99.091 187.489 101.682 186.14 104.05C185.606 105 185.008 105.912 184.35 106.78L183.99 107.24L183.63 107.67C180.359 116.371 176.084 124.661 170.89 132.37Z" fill="#292926"/>
<path opacity="0.5" d="M152.8 90.04C151.948 91.7137 151.435 93.5387 151.288 95.4109C151.142 97.2831 151.366 99.1658 151.947 100.951C152.529 102.737 153.456 104.391 154.676 105.818C155.897 107.245 157.386 108.418 159.06 109.27C162.566 110.846 166.5 111.198 170.23 110.27C173.72 109.44 183.64 107.65 183.64 107.65C183.64 107.65 189.58 101.26 189.09 92.45L172 83.78C168.622 82.0722 164.706 81.7721 161.107 82.9454C157.509 84.1186 154.522 86.6696 152.8 90.04Z" fill="#292926"/>
<path d="M169.49 93.68C169.101 94.4415 168.947 95.3012 169.048 96.1503C169.148 96.9994 169.498 97.7996 170.053 98.4497C170.608 99.0998 171.344 99.5704 172.167 99.8021C172.99 100.034 173.863 100.016 174.676 99.7512C175.489 99.4863 176.205 98.9861 176.734 98.3141C177.262 97.642 177.579 96.8282 177.645 95.9758C177.711 95.1233 177.522 94.2706 177.103 93.5254C176.684 92.7803 176.053 92.1763 175.29 91.79C174.785 91.5328 174.235 91.3776 173.67 91.3334C173.105 91.2892 172.537 91.3568 171.998 91.5324C171.459 91.7079 170.961 91.988 170.53 92.3565C170.1 92.725 169.746 93.1747 169.49 93.68Z" fill="#FF693D"/>
<path d="M180.31 100.28L188.16 99.51L196.68 108.61L180.31 100.28Z" fill="#FF693D"/>
<path d="M180.31 100.28L190.45 105.43L185.64 104.95L180.31 100.28Z" fill="#FF693D"/>
<path d="M145.13 88.02L90.6699 25.02C90.6699 25.02 72.9999 50.16 90.8299 70.81C108.66 91.46 145.13 88.02 145.13 88.02Z" fill="#292926"/>
<path opacity="0.1" d="M145.13 88.02L90.6699 25.02C90.6699 25.02 72.9999 50.16 90.8299 70.81C108.66 91.46 145.13 88.02 145.13 88.02Z" fill="#292926"/>
<path opacity="0.1" d="M88.8499 28.0601C88.8905 27.9735 88.9373 27.8899 88.9899 27.8101C100.14 40.1601 111.76 53.6601 122.1 66.3101C111.1 54.2701 99.4499 40.9001 88.8499 28.0601Z" fill="#292926"/>
<path opacity="0.1" d="M86.7799 32.24L86.9299 31.9C97.7199 43.9 108.88 56.9 118.88 69.09C108.27 57.49 97.0599 44.62 86.7799 32.24Z" fill="#292926"/>
<path opacity="0.1" d="M84.9999 36.82L85.1599 36.34C95.5099 47.9 106.11 60.25 115.65 71.9C105.56 60.83 94.8999 48.63 84.9999 36.82Z" fill="#292926"/>
<path d="M142.33 147.43H142.16L142.23 145.43C142.879 145.44 143.519 145.278 144.086 144.962C144.653 144.647 145.127 144.187 145.46 143.63C145.725 143.206 145.891 142.727 145.943 142.23C145.995 141.732 145.932 141.23 145.76 140.76C145.44 140.29 144.62 140.32 144 140.43L143.65 138.43C145.83 138.04 146.91 138.86 147.42 139.61C148.42 141.13 147.89 143.47 147.16 144.61C146.664 145.454 145.959 146.157 145.113 146.651C144.267 147.144 143.309 147.413 142.33 147.43Z" fill="#292926"/>
<path d="M139.41 146.99H139.25L139.32 144.99C139.968 145.002 140.608 144.842 141.173 144.525C141.739 144.209 142.211 143.748 142.54 143.19C142.807 142.769 142.974 142.292 143.027 141.796C143.081 141.3 143.02 140.799 142.85 140.33C142.52 139.85 141.71 139.88 141.08 139.99L140.73 137.99C142.92 137.6 143.99 138.42 144.5 139.17C145.5 140.69 144.97 143.04 144.24 144.17C143.747 145.017 143.042 145.722 142.196 146.216C141.35 146.71 140.39 146.977 139.41 146.99Z" fill="#292926"/>
<path d="M136.5 146.55H136.33L136.4 144.55C137.049 144.56 137.689 144.398 138.256 144.082C138.823 143.766 139.297 143.307 139.63 142.75C139.895 142.328 140.06 141.851 140.112 141.355C140.164 140.859 140.102 140.358 139.93 139.89C139.61 139.41 138.8 139.44 138.17 139.55L137.82 137.55C140.01 137.15 141.08 137.97 141.59 138.72C142.59 140.24 142.06 142.59 141.33 143.72C140.836 144.567 140.131 145.272 139.286 145.768C138.44 146.263 137.48 146.533 136.5 146.55Z" fill="#292926"/>
<path d="M157 151.36H156.83L156.9 149.36C157.549 149.369 158.188 149.207 158.755 148.891C159.322 148.575 159.796 148.116 160.13 147.56C160.395 147.138 160.56 146.661 160.612 146.165C160.664 145.669 160.602 145.168 160.43 144.7C160.11 144.22 159.29 144.25 158.67 144.36L158.32 142.36C160.51 141.97 161.58 142.79 162.09 143.54C163.09 145.06 162.56 147.41 161.83 148.54C161.335 149.385 160.631 150.089 159.785 150.583C158.939 151.077 157.979 151.345 157 151.36Z" fill="#292926"/>
<path d="M154 150.9H153.84L153.91 148.9C154.557 148.912 155.195 148.753 155.761 148.438C156.326 148.124 156.799 147.666 157.13 147.11C157.396 146.687 157.563 146.208 157.617 145.711C157.67 145.214 157.61 144.71 157.44 144.24C157.11 143.76 156.3 143.8 155.67 143.9L155.32 141.9C157.52 141.51 158.58 142.32 159.09 143.07C160.09 144.59 159.56 146.94 158.83 148.12C158.332 148.959 157.625 149.656 156.779 150.143C155.933 150.63 154.976 150.891 154 150.9Z" fill="#292926"/>
<path d="M151.13 150.49H151L151.06 148.49C151.708 148.502 152.348 148.342 152.915 148.028C153.482 147.714 153.956 147.256 154.29 146.7C154.555 146.276 154.721 145.797 154.773 145.3C154.825 144.802 154.762 144.3 154.59 143.83C154.27 143.35 153.45 143.39 152.83 143.5L152.48 141.5C154.67 141.11 155.74 141.92 156.25 142.68C157.25 144.2 156.72 146.54 155.99 147.68C155.49 148.527 154.78 149.23 153.928 149.722C153.077 150.215 152.113 150.479 151.13 150.49Z" fill="#292926"/>
<path d="M500 154.901V156.541C459.56 156.301 419.12 155.391 378.72 153.541L371.33 153.191C330.38 151.191 289.49 148.271 248.7 144.081C206.9 139.671 164.89 132.851 123.31 126.541C82.37 119.961 41 112.801 0 104.741V103.061C68.72 116.201 137.6 128.561 206.89 138.281C265.77 145.331 324.89 149.341 384.16 151.761L391.67 152.061C427.76 153.451 463.88 154.281 500 154.901Z" fill="#292926"/>
<path d="M498 154.84V156.48C538.44 156.24 578.88 155.33 619.28 153.48L626.67 153.13C667.62 151.13 708.51 148.21 749.3 144.02C791.1 139.61 833.11 132.79 874.69 126.48C915.63 119.9 957 112.74 998 104.68V103C929.28 116.14 860.4 128.5 791.11 138.22C732.23 145.27 673.11 149.28 613.84 151.7L606.33 152C570.24 153.39 534.12 154.22 498 154.84Z" fill="#292926"/>
<path d="M994.579 103.781L994.913 105.386C1034.45 96.8992 1073.86 87.7559 1113.03 77.7007L1120.19 75.85C1159.87 65.5356 1199.31 54.3329 1238.38 41.9073C1278.4 29.0602 1318.14 13.811 1357.55 -0.851267C1396.29 -15.6472 1435.33 -31.0987 1473.82 -47.3557L1473.48 -49.0004C1408.89 -22.1136 1343.98 4.04231 1278.13 27.6974C1221.93 46.6144 1164.87 62.6043 1107.34 77.0682L1100.05 78.8945C1065 87.6199 1029.81 95.8032 994.579 103.781Z" fill="#292926"/>
</svg>
