<?xml version="1.0" encoding="UTF-8"?>
<svg width="441" height="250" viewBox="0 0 441 250" fill="none" xmlns="http://www.w3.org/2000/svg">
<path d="M75.5137 57.6769L59.1663 55.3009C56.3372 54.8896 53.5975 56.2696 53.0472 58.3829L7.78111 232.187C7.23069 234.3 9.07788 236.346 11.9069 236.758L28.2545 239.133C31.0834 239.545 33.823 238.165 34.3736 236.051L79.6396 62.2481C80.19 60.1346 78.3428 58.0881 75.5137 57.6769Z" fill="#292926" stroke="#292926" stroke-width="1.28205" stroke-miterlimit="10"/>
<path d="M102.504 88.0897H76.4773C73.8206 88.0897 71.667 89.6985 71.667 91.6831V234.716C71.667 236.701 73.8206 238.31 76.4773 238.31H102.504C105.161 238.31 107.315 236.701 107.315 234.716V91.6831C107.315 89.6985 105.161 88.0897 102.504 88.0897Z" fill="#292926" stroke="#292926" stroke-width="1.28205" stroke-miterlimit="10"/>
<path d="M128.421 83.277H111.913C109.377 83.277 107.321 84.8128 107.321 86.7072V234.874C107.321 236.769 109.377 238.305 111.913 238.305H128.421C130.957 238.305 133.013 236.769 133.013 234.874V86.7072C133.013 84.8128 130.957 83.277 128.421 83.277Z" fill="#292926" stroke="#292926" stroke-width="1.28205" stroke-miterlimit="10"/>
<path d="M153.8 97.6725H137.103C134.84 97.6725 133.006 99.0425 133.006 100.732V235.244C133.006 236.934 134.84 238.305 137.103 238.305H153.8C156.063 238.305 157.896 236.934 157.896 235.244V100.732C157.896 99.0425 156.063 97.6725 153.8 97.6725Z" fill="#292926" stroke="#292926" stroke-width="1.28205" stroke-miterlimit="10"/>
<path d="M184.261 101.707L161.177 104.149C159.1 104.369 157.655 105.805 157.949 107.356L182.351 236.086C182.645 237.638 184.566 238.717 186.643 238.497L209.728 236.056C211.805 235.835 213.25 234.399 212.956 232.849L188.554 104.118C188.26 102.567 186.338 101.488 184.261 101.707Z" fill="#292926" stroke="#292926" stroke-width="1.28205" stroke-miterlimit="10"/>
<path d="M205.782 103.84L192.966 105.886C190.916 106.213 189.609 107.721 190.047 109.253L226.41 236.398C226.848 237.93 228.866 238.907 230.916 238.579L243.732 236.534C245.783 236.207 247.091 234.699 246.652 233.167L210.289 106.022C209.851 104.49 207.833 103.513 205.782 103.84Z" fill="#292926" stroke="#292926" stroke-width="1.28205" stroke-miterlimit="10"/>
<path d="M304.699 68.0253L289.42 66.0989C286.864 65.7766 284.442 67.0633 284.01 68.9729L247.118 232.265C246.687 234.174 248.409 235.984 250.965 236.306L266.245 238.233C268.8 238.554 271.223 237.267 271.654 235.358L308.546 72.0663C308.978 70.1568 307.255 68.3476 304.699 68.0253Z" fill="#292926" stroke="#292926" stroke-width="1.28205" stroke-miterlimit="10"/>
<path d="M560.902 96.3826H326.281C326.281 96.3826 316.507 97.0468 315.618 105.345C315.618 105.345 314.728 113.31 324.058 114.307H303.176C303.176 114.307 311.172 116.299 310.727 125.261C310.727 125.261 313.395 135.938 303.176 138.541V139.08H293.957V140.615C293.957 140.615 302.841 140.533 301.843 156.715C301.843 156.715 303.512 169.745 292.069 172.314V173.976H306.507C306.507 173.976 298.177 176.131 298.177 188.164C298.177 188.164 299.51 199.369 306.617 200.53C306.617 200.53 286.953 197.627 285.618 215.714V225.842C285.618 225.842 285.509 238.621 305.282 238.703H555.567L555.786 234.14C555.786 234.14 546.457 235.136 546.675 219.036C546.675 219.036 546.231 206.59 556.004 205.424V200.774L567.112 200.937V197.785C567.112 197.785 560.005 197.622 560.005 187.495C560.005 187.495 560.005 179.028 567.112 178.532V175.544L557.557 175.706C557.557 175.706 565.996 174.547 567.112 160.108V148.821C567.112 148.821 566.004 142.68 560.005 139.195L568.672 139.031C568.672 139.031 576.893 137.872 577.337 125.419C577.337 125.419 577.782 116.457 568.453 113.637L560.676 113.8L560.458 112.14C560.458 112.14 552.681 112.967 552.236 105.334C552.236 105.334 551.573 98.5277 560.902 98.0323V96.3717V96.3826Z" fill="#292926" stroke="#292926" stroke-width="1.28205" stroke-miterlimit="10"/>
<path d="M445.242 16.9709V8.48805L456.714 15.3919L466.641 15.4845L472.966 7.69857C472.966 7.69857 486.552 20.1615 496.042 31.7043C496.042 31.7043 514.467 55.476 514.096 67.155C514.096 67.155 510.371 93.9865 483.951 97.4603L406.912 96.7633C406.912 96.7633 399.529 107.234 374.224 108.35C374.224 108.35 358.838 106.499 345.937 116.691L341.593 121.51C341.593 121.51 339.174 124.014 334.706 123.453C334.706 123.453 325.026 123.873 325.588 116.364C325.588 116.364 328.941 104.827 348.474 98.0156C348.474 98.0156 357.408 94.4004 372.664 94.5419C372.664 94.5419 387.175 93.5673 389.594 89.8159C389.594 89.8159 381.782 85.9229 379.915 74.244C379.915 74.244 377.124 57.5614 409.317 45.327C409.317 45.327 421.044 40.1818 437.975 41.1564H444.673C444.673 41.1564 449.141 41.8533 446.532 38.3742C446.532 38.3742 438.719 37.3996 439.273 27.8114C439.273 27.8114 438.711 22.3884 444.856 19.6116L445.226 16.9709H445.242Z" fill="#1E293B" stroke="#1E293B" stroke-width="1.28205" stroke-miterlimit="10"/>
<path d="M442.202 34.4049L429.797 33.6589" stroke="#292926" stroke-width="1.28205" stroke-miterlimit="10"/>
<path d="M445.927 37.5413H429.797" stroke="#292926" stroke-width="1.28205" stroke-miterlimit="10"/>
<path d="M449.404 27.8112L439.775 24.7621C439.775 24.7621 438.915 31.2849 443.383 31.9819C443.383 31.9819 447.042 32.9565 449.404 27.8112Z" fill="#FF693D" stroke="#292926" stroke-width="1.28205" stroke-miterlimit="10"/>
</svg>
