<?xml version="1.0" encoding="UTF-8"?>
<svg width="922" height="246" viewBox="0 0 922 246" fill="none" xmlns="http://www.w3.org/2000/svg">
<path d="M78.9334 56.7541L61.8456 54.4161C58.8883 54.0114 56.0246 55.3693 55.4493 57.4488L8.13316 228.472C7.55781 230.551 9.48866 232.564 12.4458 232.969L29.5338 235.307C32.4909 235.712 35.3546 234.355 35.93 232.274L83.2462 61.2521C83.8215 59.1725 81.8906 57.1587 78.9334 56.7541Z" fill="#292926" stroke="#292926" stroke-width="1.28205" stroke-miterlimit="10"/>
<path d="M107.147 86.6803H79.9407C77.1637 86.6803 74.9126 88.2634 74.9126 90.2163V230.961C74.9126 232.914 77.1637 234.497 79.9407 234.497H107.147C109.924 234.497 112.175 232.914 112.175 230.961V90.2163C112.175 88.2634 109.924 86.6803 107.147 86.6803Z" fill="#292926" stroke="#292926" stroke-width="1.28205" stroke-miterlimit="10"/>
<path d="M134.238 81.9446H116.982C114.331 81.9446 112.182 83.4558 112.182 85.3199V231.116C112.182 232.981 114.331 234.492 116.982 234.492H134.238C136.888 234.492 139.038 232.981 139.038 231.116V85.3199C139.038 83.4558 136.888 81.9446 134.238 81.9446Z" fill="#292926" stroke="#292926" stroke-width="1.28205" stroke-miterlimit="10"/>
<path d="M160.766 96.1097H143.312C140.947 96.1097 139.03 97.4578 139.03 99.1207V231.48C139.03 233.143 140.947 234.492 143.312 234.492H160.766C163.131 234.492 165.047 233.143 165.047 231.48V99.1207C165.047 97.4578 163.131 96.1097 160.766 96.1097Z" fill="#292926" stroke="#292926" stroke-width="1.28205" stroke-miterlimit="10"/>
<path d="M192.607 100.08L168.477 102.483C166.306 102.699 164.795 104.112 165.102 105.638L190.61 232.309C190.917 233.835 192.926 234.898 195.097 234.681L219.227 232.279C221.398 232.062 222.908 230.649 222.601 229.124L197.093 102.452C196.786 100.926 194.778 99.8638 192.607 100.08Z" fill="#292926" stroke="#292926" stroke-width="1.28205" stroke-miterlimit="10"/>
<path d="M215.102 102.179L201.706 104.192C199.563 104.514 198.196 105.997 198.654 107.505L236.664 232.615C237.122 234.123 239.232 235.084 241.375 234.761L254.77 232.749C256.915 232.427 258.282 230.944 257.823 229.436L219.814 104.326C219.355 102.818 217.246 101.857 215.102 102.179Z" fill="#292926" stroke="#292926" stroke-width="1.28205" stroke-miterlimit="10"/>
<path d="M318.499 66.9369L302.529 65.0413C299.857 64.7241 297.325 65.9902 296.873 67.8693L258.31 228.548C257.86 230.427 259.66 232.208 262.332 232.525L278.303 234.421C280.974 234.737 283.507 233.471 283.957 231.592L322.521 70.9132C322.972 69.0343 321.171 67.254 318.499 66.9369Z" fill="#292926" stroke="#292926" stroke-width="1.28205" stroke-miterlimit="10"/>
<path d="M586.305 94.8404H341.058C341.058 94.8404 330.841 95.494 329.912 103.659C329.912 103.659 328.982 111.497 338.734 112.478H316.907C316.907 112.478 325.265 114.439 324.8 123.257C324.8 123.257 327.589 133.763 316.907 136.324V136.854H307.27V138.365C307.27 138.365 316.557 138.285 315.513 154.208C315.513 154.208 317.258 167.029 305.297 169.557V171.192H320.388C320.388 171.192 311.682 173.313 311.682 185.153C311.682 185.153 313.075 196.179 320.503 197.321C320.503 197.321 299.949 194.465 298.554 212.263V222.229C298.554 222.229 298.44 234.803 319.108 234.883H580.729L580.958 230.393C580.958 230.393 571.206 231.374 571.434 215.531C571.434 215.531 570.97 203.284 581.186 202.138V197.562L592.796 197.722V194.62C592.796 194.62 585.368 194.46 585.368 184.495C585.368 184.495 585.368 176.164 592.796 175.675V172.735L582.808 172.895C582.808 172.895 591.63 171.755 592.796 157.546V146.439C592.796 146.439 591.638 140.397 585.368 136.968L594.427 136.806C594.427 136.806 603.02 135.666 603.485 123.412C603.485 123.412 603.95 114.594 594.198 111.819L586.069 111.979L585.841 110.345C585.841 110.345 577.712 111.16 577.247 103.648C577.247 103.648 576.554 96.9512 586.305 96.4637V94.8297V94.8404Z" fill="#292926" stroke="#292926" stroke-width="1.28205" stroke-miterlimit="10"/>
<path d="M612.432 85.7991L599.315 87.6757C595.868 88.1689 593.642 90.5338 594.343 92.9578L634.54 231.895C635.241 234.319 638.603 235.884 642.05 235.391L655.167 233.515C658.613 233.022 660.839 230.656 660.139 228.233L619.943 89.2952C619.241 86.8711 615.878 85.3058 612.432 85.7991Z" fill="#292926" stroke="#292926" stroke-width="1.28205" stroke-miterlimit="10"/>
<path d="M639.344 86.4692L626.374 88.7959C622.965 89.4072 620.908 91.846 621.776 94.2428L671.61 231.627C672.48 234.024 675.947 235.472 679.356 234.86L692.326 232.534C695.735 231.922 697.793 229.484 696.923 227.087L647.09 89.702C646.22 87.3052 642.753 85.8578 639.344 86.4692Z" fill="#292926" stroke="#292926" stroke-width="1.28205" stroke-miterlimit="10"/>
<path d="M465.407 16.6993V8.35222L477.399 15.1456L487.775 15.2367L494.387 7.57538C494.387 7.57538 508.588 19.8389 518.508 31.1971C518.508 31.1971 537.768 54.5884 537.379 66.0805C537.379 66.0805 533.486 92.4827 505.869 95.9009L425.342 95.2151C425.342 95.2151 417.624 105.518 391.173 106.616C391.173 106.616 375.09 104.795 361.604 114.824L357.064 119.565C357.064 119.565 354.535 122.03 349.865 121.478C349.865 121.478 339.747 121.891 340.334 114.502C340.334 114.502 343.839 103.15 364.257 96.4473C364.257 96.4473 373.596 92.8899 389.542 93.0292C389.542 93.0292 404.711 92.0702 407.239 88.3788C407.239 88.3788 399.073 84.5481 397.122 73.056C397.122 73.056 394.204 56.6404 427.856 44.6018C427.856 44.6018 440.114 39.5388 457.811 40.4979H464.812C464.812 40.4979 469.483 41.1836 466.755 37.7602C466.755 37.7602 458.589 36.8012 459.168 27.3664C459.168 27.3664 458.581 22.0302 465.004 19.2978L465.391 16.6993H465.407Z" fill="#1A1A18" stroke="#1A1A18" stroke-width="1.28205" stroke-miterlimit="10"/>
<path d="M467.936 33.8546L471.312 35.301L474.161 33.8546H467.936Z" fill="#292926" stroke="#292926" stroke-width="1.28205" stroke-miterlimit="10"/>
<path d="M480.384 33.8545L498.022 32.3811" stroke="#292926" stroke-width="1.28205" stroke-miterlimit="10"/>
<path d="M480.384 36.0302C481.162 36.0302 501.915 36.941 501.915 36.941L480.384 36.0302Z" fill="#292926"/>
<path d="M480.384 36.0302C481.162 36.0302 501.915 36.941 501.915 36.941" stroke="#292926" stroke-width="1.28205" stroke-miterlimit="10"/>
<path d="M462.23 33.8544L449.263 33.1203" stroke="#292926" stroke-width="1.28205" stroke-miterlimit="10"/>
<path d="M466.124 36.9407H449.263" stroke="#292926" stroke-width="1.28205" stroke-miterlimit="10"/>
<path d="M469.757 27.3662L459.693 24.3659C459.693 24.3659 458.794 30.7844 463.464 31.4701C463.464 31.4701 467.289 32.4292 469.757 27.3662Z" fill="#FF693D" stroke="#292926" stroke-width="1.28205" stroke-miterlimit="10"/>
<path d="M476.865 27.2328L489.208 25.7272C489.208 25.7272 490.471 30.4956 484.949 32.0279C483.372 32.4671 481.565 32.4564 480.095 31.8617C478.625 31.267 477.056 29.9705 476.873 27.2328H476.865Z" fill="#FF693D" stroke="#292926" stroke-width="1.28205" stroke-miterlimit="10"/>
<path d="M464.92 27.8484C465.563 27.8484 466.086 27.4814 466.086 27.0286C466.086 26.576 465.563 26.209 464.92 26.209C464.277 26.209 463.754 26.576 463.754 27.0286C463.754 27.4814 464.277 27.8484 464.92 27.8484Z" fill="#292926" stroke="#292926" stroke-width="1.28205" stroke-miterlimit="10"/>
<path d="M482.617 28.192C483.26 28.192 483.783 27.8251 483.783 27.3723C483.783 26.9197 483.26 26.5527 482.617 26.5527C481.974 26.5527 481.451 26.9197 481.451 27.3723C481.451 27.8251 481.974 28.192 482.617 28.192Z" fill="#292926" stroke="#292926" stroke-width="1.28205" stroke-miterlimit="10"/>
<path d="M750.781 239.389H825.473L839.476 181.939C839.476 181.939 853.478 187.136 890.048 184.131L867.093 161.972C867.093 161.972 860.092 155.403 844.528 154.583C844.528 154.583 836.36 156.774 828.962 147.469C828.962 147.469 829.74 144.575 836.742 144.103C836.742 144.103 848.413 143.091 860.473 128.315C860.473 128.315 871.368 109.713 890.041 108.615C890.041 108.615 904.042 108.342 911.045 108.615C911.045 108.615 888.09 94.1173 861.638 105.604C861.638 105.604 839.072 118.462 832.847 120.654C832.847 120.654 817.283 123.188 804.835 131.498C804.835 131.498 808.728 123.938 821.176 118.195C821.176 118.195 829.732 116.175 829.343 101.179C829.343 101.179 827.013 92.7512 837.9 87.549C837.9 87.549 846.066 86.1827 844.512 69.7671L846.066 54.1711C846.066 54.1711 818.053 67.849 809.886 87.0025C809.886 87.0025 808.72 90.5599 808.72 94.1173C808.72 94.1173 809.497 99.8607 804.827 102.872C804.827 102.872 795.883 108.888 794.322 114.91C794.322 114.91 786.931 111.626 788.485 95.4836C788.485 95.4836 792.767 81.8056 780.319 73.871C780.319 73.871 776.006 73.5978 762.21 50.3457C762.21 50.3457 756.587 65.3952 759.694 83.1771C759.694 83.1771 761.995 87.5543 762.21 100.686C762.21 100.686 754.637 99.0464 741.023 87.8275C741.023 87.8275 713.794 73.8763 695.898 89.467C695.898 89.467 723.522 85.9095 731.69 97.1283C731.69 97.1283 741.029 110.806 746.857 114.364C746.857 114.364 737.13 113.271 721.961 109.167C721.961 109.167 682.673 100.686 659.329 132.145C659.329 132.145 686.87 120.107 703.25 121.752C703.25 121.752 714.183 122.572 719.24 125.036C719.24 125.036 727.797 128.594 740.641 128.866C740.641 128.866 749.586 128.048 750.759 132.698C750.759 132.698 732.863 127.228 720.026 142.545C720.026 142.545 711.47 148.562 704.46 152.392C704.46 152.392 688.119 160.873 692.401 175.098C692.401 175.098 700.956 168.529 710.296 167.709C710.296 167.709 725.077 167.983 729.358 166.343L728.581 181.114L735.369 181.527L750.751 239.389H750.781Z" fill="#292926" stroke="#292926" stroke-width="1.28205" stroke-miterlimit="10"/>
</svg>
