<svg width="512" height="512" viewBox="0 0 512 512" fill="none" xmlns="http://www.w3.org/2000/svg">
<path d="M130.801 7.68437C133.876 7.68898 136.951 7.68214 140.026 7.66386C239.241 7.08058 239.241 7.08058 263 27C264.489 29.9784 264.17 33.0089 264.158 36.274C264.155 37.402 264.155 37.402 264.152 38.5529C264.059 48.2707 263.244 57.9349 262.469 67.6172C262.311 69.6516 262.154 71.686 261.998 73.7205C261.589 79.0266 261.173 84.3321 260.755 89.6374C260.085 98.1462 259.422 106.656 258.766 115.165C258.537 118.114 258.302 121.062 258.068 124.011C257.389 132.682 256.72 141.293 257 150C257.863 149.686 258.725 149.371 259.614 149.047C294.647 136.765 332.851 135.817 369.599 135.399C373.047 135.358 376.494 135.308 379.942 135.258C386.628 135.163 393.314 135.078 400 135C408.315 117.516 416.595 100.02 424.563 82.375C430.019 70.2936 435.6 58.2772 441.264 46.292C447.275 33.5724 453.181 20.8086 459 8.00004C463.707 8.56993 467.331 9.90051 471.578 11.9844C472.19 12.2819 472.801 12.5794 473.431 12.8858C475.375 13.8334 477.312 14.7915 479.25 15.75C480.535 16.3783 481.82 17.006 483.106 17.6329C490.092 21.0459 497.053 24.5083 504 28C503.428 32.6245 502.162 36.233 500.149 40.4258C499.858 41.0372 499.568 41.6485 499.269 42.2783C498.64 43.5997 498.008 44.9195 497.374 46.2379C495.645 49.8307 493.942 53.4358 492.235 57.0391C491.881 57.7841 491.527 58.529 491.163 59.2965C487.564 66.8882 484.086 74.5323 480.625 82.1875C479.395 84.9053 478.165 87.6227 476.934 90.3399C476.623 91.027 476.311 91.7141 475.991 92.422C473.461 97.9993 470.908 103.566 468.348 109.129C467.959 109.975 467.569 110.821 467.168 111.693C465.266 115.824 463.363 119.954 461.458 124.083C460.767 125.581 460.077 127.08 459.387 128.578C458.916 129.596 458.916 129.596 458.436 130.635C456.861 134.056 455.36 137.488 454 141C454.926 140.955 455.851 140.91 456.805 140.863C462.043 140.87 467.033 142.057 472.125 143.188C473.145 143.412 474.164 143.637 475.215 143.869C484.974 146.098 495.057 148.601 503 155C504.553 158.105 504.167 161.379 504.154 164.786C504.152 165.586 504.15 166.387 504.148 167.212C504.059 176.981 503.296 186.693 502.535 196.428C502.377 198.518 502.219 200.607 502.062 202.697C501.636 208.34 501.201 213.982 500.765 219.625C500.302 225.631 499.848 231.638 499.392 237.646C498.523 249.092 497.647 260.538 496.768 271.984C495.697 285.945 494.633 299.906 493.571 313.867C492.444 328.663 491.317 343.459 490.182 358.255C488.553 379.493 486.934 400.731 485.392 421.975C485.181 424.89 484.968 427.805 484.755 430.72C484.687 431.65 484.619 432.581 484.548 433.54C484.415 435.372 484.281 437.205 484.146 439.037C483.768 444.224 483.396 449.411 483.031 454.599C482.81 457.714 482.582 460.828 482.353 463.943C482.25 465.361 482.15 466.778 482.053 468.196C481.922 470.11 481.78 472.023 481.637 473.935C481.562 474.995 481.486 476.054 481.409 477.145C480.742 481.805 479.524 485.112 475.75 488C453.796 503.372 417.422 504.143 391.817 504.168C390.6 504.171 389.383 504.175 388.129 504.178C385.569 504.183 383.008 504.185 380.448 504.185C376.604 504.188 372.76 504.206 368.916 504.225C350.178 504.268 331.6 503.552 313.125 500.188C312.178 500.018 311.231 499.848 310.255 499.674C279.326 493.874 279.326 493.874 272 484C271.144 481.198 270.8 478.494 270.583 475.579C270.516 474.695 270.448 473.81 270.379 472.899C270.308 471.932 270.238 470.965 270.165 469.968C270.088 468.937 270.01 467.906 269.93 466.844C269.669 463.379 269.414 459.914 269.158 456.448C268.973 453.968 268.787 451.488 268.601 449.008C268.201 443.661 267.803 438.314 267.406 432.967C266.833 425.227 266.255 417.488 265.675 409.749C264.735 397.181 263.798 384.613 262.862 372.044C262.806 371.292 262.75 370.54 262.692 369.765C262.579 368.242 262.466 366.72 262.352 365.198C262.268 364.065 262.268 364.065 262.182 362.91C262.126 362.155 262.07 361.4 262.012 360.622C261.388 352.24 260.763 343.859 260.138 335.477C260.055 334.352 260.055 334.352 259.969 333.204C259.036 320.688 258.101 308.171 257.165 295.655C256.588 287.938 256.013 280.22 255.44 272.503C255 266.586 254.559 260.668 254.117 254.751C253.936 252.326 253.756 249.901 253.576 247.476C253.331 244.164 253.083 240.852 252.835 237.54C252.765 236.582 252.694 235.623 252.622 234.636C252.226 229.398 251.698 224.207 251 219C250.926 220.021 250.926 220.021 250.85 221.063C249.64 237.631 248.421 254.198 247.192 270.764C246.598 278.775 246.007 286.787 245.424 294.799C244.915 301.783 244.4 308.766 243.879 315.748C243.603 319.445 243.33 323.143 243.064 326.84C242.766 330.969 242.456 335.096 242.145 339.223C242.059 340.449 241.973 341.675 241.884 342.938C241.753 344.626 241.753 344.627 241.62 346.35C241.548 347.326 241.477 348.302 241.403 349.308C240.718 353.891 239.461 357.161 235.75 360C213.602 375.507 176.606 376.36 150.817 375.922C148.832 375.902 146.847 375.881 144.862 375.863C140.032 375.818 135.203 375.764 130.374 375.678C127.639 375.63 124.905 375.595 122.171 375.576C119.612 375.557 117.053 375.519 114.495 375.459C107.43 375.258 107.43 375.258 101.395 378.415C100.604 379.268 99.8143 380.121 99.0003 381C94.8485 383.112 91.6813 384.426 87.0003 384C87.6603 385.98 88.3203 387.96 89.0003 390C89.4012 389.613 89.802 389.227 90.2151 388.828C98.2944 381.427 105.309 379.244 116.332 379.543C123.458 380.431 129.916 383.916 135 389C135.621 391.121 135.621 391.121 136 393C128.406 400.367 122.32 404.151 111.563 404.563C102.361 404.313 95.8041 401.123 89.0003 395C88.3403 396.65 87.6803 398.3 87.0003 400C88.1553 400.062 89.3103 400.124 90.5003 400.188C98.1838 401.19 103.707 405.922 108.524 411.762C112.629 417.985 113.405 424.712 113 432C103.082 432.679 95.5068 431.077 87.6253 424.813C82.9797 420.44 80.2711 415.319 79.7503 408.938C79.8328 408.298 79.9153 407.659 80.0003 407C78.0203 407.66 76.0403 408.32 74.0003 409C74.387 409.401 74.7737 409.802 75.1721 410.215C82.5736 418.294 84.7558 425.308 84.4573 436.332C83.5694 443.458 80.0845 449.916 75.0003 455C72.8792 455.621 72.8792 455.621 71.0003 456C63.7121 448.487 58.8511 440.755 59.0003 430C59.8022 421.622 63.8761 415.473 69.0003 409C67.3503 408.34 65.7003 407.68 64.0003 407C63.9384 408.155 63.8765 409.31 63.8128 410.5C62.8098 418.185 58.0776 423.701 52.2424 428.523C46.444 432.342 39.8411 433.57 33.0003 433C32.3403 432.67 31.6803 432.34 31.0003 432C32.2559 420.237 33.5057 412.136 42.9143 404.477C47.3161 401.361 51.4795 399.498 57.0003 400C56.3403 398.02 55.6803 396.04 55.0003 394C54.5994 394.387 54.1985 394.773 53.7854 395.172C45.7061 402.573 38.6918 404.756 27.6682 404.457C20.5425 403.569 14.0845 400.084 9.00025 395C8.37916 392.879 8.37916 392.879 8.00025 391C15.5948 383.633 21.6804 379.849 32.4378 379.438C41.6399 379.687 48.1964 382.877 55.0003 389C55.6603 387.35 56.3203 385.7 57.0003 384C55.8453 383.938 54.6903 383.876 53.5003 383.813C45.7728 382.804 40.6966 378.071 35.5432 372.551C30.7003 364.545 30.4784 355.481 30.1121 346.373C29.9631 343.304 29.8002 340.235 29.6353 337.166C29.59 336.313 29.5447 335.46 29.4981 334.581C28.8427 322.618 27.9073 310.674 26.9991 298.728C26.8442 296.69 26.6899 294.651 26.5357 292.613C25.9925 285.432 25.447 278.251 24.8997 271.07C24.1983 261.868 23.5024 252.665 22.8073 243.462C22.5677 240.291 22.328 237.12 22.0884 233.949C22.0285 233.158 21.9687 232.366 21.9071 231.551C21.2315 222.614 20.5546 213.677 19.8772 204.74C19.8155 203.926 19.7539 203.113 19.6903 202.274C18.687 189.038 17.6808 175.802 16.6741 162.566C15.6343 148.893 14.5994 135.219 13.5686 121.546C12.9357 113.154 12.2988 104.762 11.6565 96.3699C11.2173 90.6264 10.7827 84.8827 10.3517 79.1386C10.1038 75.8368 9.85314 72.5353 9.59822 69.2341C9.00113 61.4928 8.4456 53.7516 8.00025 46C7.94784 45.1028 7.89543 44.2055 7.84143 43.2811C7.71748 40.8935 7.63323 38.5091 7.56925 36.1192C7.52835 34.8439 7.48745 33.5685 7.44531 32.2546C8.16007 28.0627 9.75794 26.6505 13.0003 24C26.4908 16.0122 44.4624 14.0531 59.6878 11.8125C60.7229 11.6578 61.758 11.503 62.8245 11.3435C85.4129 8.22305 108.039 7.64747 130.801 7.68437ZM63.0003 370C63.3303 372.31 63.6603 374.62 64.0003 377C67.4653 376.505 67.4653 376.505 71.0003 376C70.2371 375.01 69.474 374.02 68.6878 373C68.2585 372.443 67.8292 371.886 67.387 371.313C65.9553 369.656 65.9553 369.656 63.0003 370ZM76.0003 372C74.2949 373.94 74.2949 373.94 73.0003 376C75.3103 376.33 77.6203 376.66 80.0003 377C79.6703 375.35 79.3403 373.7 79.0003 372C78.0103 372 77.0203 372 76.0003 372Z" fill="#DCEBFE"/>
<path d="M13 104C13.99 104 14.98 104 16 104C16.4473 104.762 16.8946 105.524 17.3555 106.309C19.3317 109.543 20.9288 110.419 24.3125 112.062C25.2368 112.528 26.161 112.993 27.1133 113.473C79.3389 135.68 151.709 129.974 206.52 122.684C212.331 121.92 218.157 121.449 224 121C223.257 139.179 221.874 157.314 220.541 175.457C220.212 179.943 219.886 184.43 219.559 188.916C218.94 197.411 218.319 205.907 217.696 214.402C216.995 223.975 216.297 233.547 215.599 243.12C214.744 254.846 213.888 266.572 213.031 278.297C212.97 279.123 212.91 279.949 212.848 280.8C212.555 284.798 212.262 288.796 211.966 292.794C211.487 299.262 211.012 305.731 210.584 312.203C210.456 314.131 210.325 316.06 210.194 317.988C210.037 320.291 209.887 322.594 209.745 324.898C209.676 325.903 209.606 326.907 209.535 327.942C209.479 328.805 209.424 329.668 209.366 330.557C208.953 333.313 208.249 335.509 207 338C202.013 340.016 196.322 340.335 191 341C189.966 341.137 188.933 341.274 187.868 341.415C154.453 345.677 115.055 348.612 82 341C82.3197 341.7 82.6394 342.4 82.9688 343.121C85.2189 349.403 85.0514 356.134 82.7617 362.375C80.5302 366.894 78.11 371.031 75 375C76.65 375.66 78.3 376.32 80 377C80.0413 376.051 80.0825 375.103 80.125 374.125C81.1783 367.011 85.4553 360.843 91.0625 356.5C96.0495 352.992 100.202 351.741 106.312 351.875C107.381 351.893 108.45 351.911 109.551 351.93C110.359 351.953 111.167 351.976 112 352C112.536 361.645 110.359 369.518 104.098 377.016C99.9661 380.924 94.95 383.873 89.1953 384.121C88.4709 384.081 87.7464 384.041 87 384C87.66 385.98 88.32 387.96 89 390C89.4009 389.613 89.8018 389.227 90.2148 388.828C98.2942 381.427 105.308 379.244 116.332 379.543C123.458 380.431 129.916 383.916 135 389C135.621 391.121 135.621 391.121 136 393C128.405 400.367 122.32 404.151 111.562 404.562C102.36 404.313 95.8038 401.123 89 395C88.34 396.65 87.68 398.3 87 400C88.155 400.062 89.31 400.124 90.5 400.188C98.1835 401.19 103.707 405.922 108.523 411.762C112.629 417.985 113.405 424.712 113 432C103.082 432.679 95.5065 431.077 87.625 424.812C82.9794 420.44 80.2709 415.319 79.75 408.938C79.8325 408.298 79.915 407.659 80 407C78.02 407.66 76.04 408.32 74 409C74.3867 409.401 74.7734 409.802 75.1719 410.215C82.5733 418.294 84.7556 425.308 84.457 436.332C83.5692 443.458 80.0842 449.916 75 455C72.8789 455.621 72.8789 455.621 71 456C63.7119 448.487 58.8509 440.755 59 430C59.802 421.622 63.8759 415.473 69 409C67.35 408.34 65.7 407.68 64 407C63.9381 408.155 63.8762 409.31 63.8125 410.5C62.8096 418.185 58.0774 423.701 52.2422 428.523C46.4437 432.342 39.8409 433.57 33 433C32.34 432.67 31.68 432.34 31 432C32.2557 420.236 33.5054 412.136 42.9141 404.477C47.3159 401.361 51.4793 399.498 57 400C56.34 398.02 55.68 396.04 55 394C54.5991 394.387 54.1982 394.773 53.7852 395.172C45.7058 402.573 38.6916 404.756 27.668 404.457C20.5422 403.569 14.0842 400.084 9 395C8.37891 392.879 8.37891 392.879 8 391C15.5945 383.633 21.6801 379.849 32.4375 379.438C41.6397 379.687 48.1962 382.877 55 389C55.66 387.35 56.32 385.7 57 384C55.845 383.938 54.69 383.876 53.5 383.812C45.7726 382.804 40.6963 378.071 35.543 372.551C30.9214 364.911 30.4917 356.295 30.131 347.574C29.973 343.814 29.7675 340.057 29.5679 336.3C29.5254 335.482 29.4828 334.665 29.439 333.822C28.8844 323.411 28.0896 313.018 27.3042 302.623C27.145 300.503 26.9858 298.384 26.8267 296.265C26.4944 291.849 26.1604 287.433 25.8254 283.018C25.2928 275.998 24.7647 268.978 24.2371 261.958C23.0244 245.83 21.8064 229.703 20.5879 213.575C19.4639 198.698 18.3411 183.821 17.2232 168.943C16.699 161.969 16.1719 154.995 15.6426 148.021C15.3151 143.698 14.9901 139.375 14.6658 135.053C14.5153 133.053 14.3638 131.054 14.2111 129.054C14.0026 126.322 13.7978 123.59 13.594 120.858C13.5331 120.071 13.4722 119.285 13.4094 118.475C13.0532 113.636 12.9477 108.852 13 104ZM63 370C63.33 372.31 63.66 374.62 64 377C67.465 376.505 67.465 376.505 71 376C70.2369 375.01 69.4737 374.02 68.6875 373C68.2582 372.443 67.829 371.886 67.3867 371.312C65.9551 369.656 65.9551 369.656 63 370Z" fill="#D99C64"/>
<path d="M425 198C425.33 198.66 425.66 199.32 426 200C425.223 202.164 425.223 202.164 424.063 204.625C423.683 205.442 423.302 206.26 422.911 207.102C422.61 207.728 422.31 208.355 422 209C422.839 209.09 423.677 209.18 424.541 209.272C483.924 215.775 483.924 215.775 494.852 228.086C496 230 496 230 496 232C496.99 232 497.98 232 499 232C498.413 245.494 497.638 258.956 496.618 272.423C496.481 274.256 496.344 276.088 496.208 277.92C495.843 282.823 495.474 287.725 495.105 292.627C494.716 297.786 494.331 302.946 493.945 308.106C493.298 316.751 492.649 325.395 491.998 334.04C491.247 344.019 490.5 353.998 489.754 363.977C489.034 373.618 488.311 383.259 487.587 392.901C487.28 396.989 486.974 401.076 486.668 405.164C486.309 409.97 485.948 414.776 485.585 419.582C485.452 421.341 485.32 423.101 485.189 424.86C485.01 427.267 484.828 429.673 484.645 432.08C484.594 432.77 484.544 433.46 484.491 434.171C484.136 438.805 483.605 443.393 483 448C482.01 448 481.02 448 480 448C479.892 448.599 479.784 449.199 479.672 449.816C478.439 453.824 475.415 455.766 472 458C443.609 472.323 407.637 472.22 376.625 472.188C375.559 472.187 374.493 472.186 373.394 472.186C349.774 472.149 327.224 470.513 304 466C302.211 450.322 300.994 434.615 299.836 418.879C299.688 416.879 299.539 414.879 299.391 412.878C298.926 406.62 298.464 400.361 298.004 394.102C297.533 387.684 297.056 381.267 296.576 374.85C296.161 369.293 295.749 363.736 295.34 358.178C295.097 354.879 294.853 351.581 294.606 348.282C294.331 344.608 294.062 340.934 293.795 337.26C293.714 336.192 293.633 335.124 293.549 334.024C293.046 327.005 292.911 320.036 293 313C293.54 313.683 294.081 314.366 294.637 315.07C301.988 324.183 309.721 332.907 318 341.188C318.623 341.811 319.245 342.434 319.886 343.076C323.119 346.27 326.423 349.187 330 352C330.169 334.641 329.564 317.347 328.855 300.005C328.234 284.659 327.86 269.359 328 254C333.94 254 339.88 254 346 254C348.597 248.399 351.193 242.798 353.788 237.197C354.669 235.297 355.549 233.398 356.43 231.498C357.706 228.745 358.982 225.991 360.258 223.238C360.643 222.409 361.027 221.579 361.424 220.724C364.623 213.819 367.811 206.91 371 200C388.82 199.34 406.64 198.68 425 198Z" fill="#E3A56C"/>
<path d="M130.8 7.68437C133.876 7.68898 136.951 7.68214 140.026 7.66386C239.24 7.08058 239.24 7.08058 263 27C264.467 29.9355 264.169 32.8815 264.156 36.0989C264.154 36.8463 264.152 37.5937 264.15 38.3637C264.047 49.0691 263.247 59.7425 262.496 70.418C262.416 71.5534 262.337 72.6887 262.255 73.8584C261.834 79.8442 261.403 85.8292 260.966 91.8138C260.608 96.7482 260.269 101.683 259.946 106.62C259.553 112.62 259.129 118.617 258.681 124.614C258.517 126.888 258.363 129.164 258.221 131.44C258.021 134.613 257.78 137.78 257.529 140.95C257.479 141.884 257.43 142.817 257.378 143.779C256.82 150.068 256.82 150.068 254.37 152.851C252.451 154.446 252.451 154.446 250.551 155.757C248.692 156.993 248.692 156.993 248.246 159.91C248.341 161.471 248.341 161.471 248.437 163.063C248.498 164.297 248.558 165.532 248.621 166.805C248.934 170.536 249.328 174.259 249.719 177.983C252.163 201.523 250.872 224.886 249.046 248.43C248.766 252.069 248.496 255.709 248.224 259.349C247.769 265.428 247.306 271.507 246.837 277.586C246.297 284.599 245.77 291.613 245.249 298.628C244.744 305.432 244.23 312.234 243.711 319.037C243.492 321.913 243.276 324.789 243.063 327.666C242.766 331.662 242.456 335.657 242.145 339.652C242.058 340.835 241.972 342.018 241.883 343.237C241.796 344.324 241.709 345.411 241.62 346.531C241.548 347.472 241.476 348.413 241.402 349.383C240.703 353.93 239.431 357.183 235.75 360C213.595 375.512 176.924 376.144 151.113 376.168C149.217 376.173 149.217 376.173 147.282 376.178C144.638 376.183 141.993 376.185 139.349 376.185C135.958 376.185 132.568 376.199 129.177 376.216C125.927 376.23 122.676 376.229 119.426 376.23C118.208 376.238 116.99 376.245 115.736 376.252C114.617 376.249 113.498 376.246 112.345 376.243C110.865 376.245 110.865 376.245 109.355 376.247C107 376 107 376 105 374C105.624 373.183 106.248 372.365 106.89 371.523C109.402 367.756 110.071 364.042 110.75 359.625C110.875 358.889 111 358.153 111.129 357.395C111.432 355.599 111.718 353.8 112 352C101.762 352.341 94.6813 354.031 86.9998 361C85.1418 363.996 85.1418 363.996 83.6873 367.25C83.1755 368.328 82.6637 369.405 82.1365 370.516C81.7614 371.335 81.3862 372.155 80.9998 373C79.6798 372.34 78.3598 371.68 76.9998 371C77.4329 370.285 77.866 369.569 78.3123 368.832C83.6159 359.342 84.1838 351.532 81.9998 341C82.6624 341.061 83.3251 341.121 84.0078 341.184C124.306 344.709 167.33 346.2 207 337C208.227 333.012 208.393 328.92 208.683 324.784C208.744 323.948 208.806 323.112 208.869 322.251C209.074 319.447 209.274 316.643 209.474 313.839C209.62 311.83 209.767 309.821 209.913 307.812C210.229 303.483 210.542 299.155 210.853 294.826C211.345 287.981 211.843 281.136 212.341 274.291C213.308 260.993 214.27 247.695 215.232 234.396C216.455 217.48 217.681 200.564 218.911 183.648C219.405 176.844 219.898 170.04 220.388 163.236C220.693 159.001 221.001 154.766 221.309 150.531C221.451 148.568 221.593 146.605 221.733 144.643C221.926 141.961 222.121 139.279 222.317 136.598C222.372 135.823 222.426 135.048 222.483 134.25C222.812 129.796 223.318 125.415 224 121C223.297 121.111 222.594 121.221 221.87 121.335C209.82 123.218 197.775 125.081 185.625 126.188C184.858 126.259 184.09 126.33 183.3 126.404C140.882 129.989 97.6896 129.321 55.6873 122.188C55.004 122.075 54.3208 121.962 53.6169 121.846C41.3817 119.79 26.3609 116.676 16.9998 108C16.3396 105.852 16.3396 105.852 15.9998 104C15.0098 104 14.0198 104 12.9998 104C12.2672 100.606 11.79 97.2974 11.519 93.837C11.399 92.3282 11.399 92.3282 11.2766 90.7889C11.1943 89.7088 11.1119 88.6286 11.0271 87.5157C10.9397 86.3867 10.8524 85.2577 10.7623 84.0945C10.5784 81.7007 10.3961 79.3067 10.2153 76.9126C9.94139 73.3045 9.65738 69.6972 9.3728 66.0899C8.85479 59.3967 8.39377 52.7017 7.99976 46C7.94588 45.0875 7.892 44.1749 7.83649 43.2347C7.71263 40.8592 7.62873 38.4872 7.56616 36.1094C7.50537 34.1985 7.50537 34.1985 7.44336 32.2491C8.16037 28.0622 9.76126 26.6483 12.9998 24C26.4903 16.0122 44.4619 14.0531 59.6873 11.8125C60.7224 11.6578 61.7575 11.503 62.824 11.3435C85.4124 8.22305 108.038 7.64747 130.8 7.68437Z" fill="#E8AA70"/>
<path d="M367 208C365.068 214.19 362.756 220.06 360.024 225.938C359.468 227.147 359.468 227.147 358.9 228.381C358.124 230.066 357.346 231.749 356.566 233.432C355.367 236.019 354.175 238.609 352.985 241.199C352.227 242.842 351.47 244.483 350.711 246.125C350.354 246.901 349.997 247.677 349.629 248.477C347.117 253.884 347.117 253.884 346 255C344.234 255.022 344.234 255.022 341.965 254.879C341.156 254.831 340.347 254.782 339.514 254.733C338.239 254.648 338.239 254.648 336.938 254.563C336.084 254.51 335.23 254.458 334.35 254.404C332.233 254.274 330.117 254.138 328 254C328.038 254.916 328.076 255.832 328.114 256.775C328.472 265.51 328.825 274.244 329.174 282.979C329.353 287.467 329.534 291.955 329.719 296.443C331.285 334.565 331.285 334.565 331 353C324.923 348.547 319.499 343.848 314.188 338.5C313.407 337.718 312.626 336.936 311.821 336.13C305.299 329.5 299.479 322.506 294 315C293.853 322.854 294.317 330.604 294.918 338.433C295.016 339.741 295.113 341.05 295.214 342.398C295.425 345.224 295.638 348.05 295.852 350.876C296.192 355.347 296.527 359.819 296.86 364.291C297.449 372.167 298.042 380.043 298.636 387.918C299.531 399.786 300.423 411.654 301.31 423.523C301.642 427.965 301.977 432.408 302.314 436.85C302.472 438.947 302.63 441.044 302.787 443.141C302.978 445.693 303.171 448.245 303.366 450.797C303.45 451.927 303.534 453.057 303.621 454.221C303.731 455.686 303.731 455.686 303.844 457.181C304.007 460.127 304.027 463.051 304 466C304.599 466.055 305.198 466.11 305.814 466.166C313 466.851 320.124 467.827 327.262 468.895C342.293 471.036 357.353 471.187 372.507 471.185C375.6 471.188 378.693 471.206 381.786 471.225C431.408 471.713 431.408 471.713 476.25 453.875C479.155 451.248 479.155 451.248 480 448C480.99 448 481.98 448 483 448C482.686 454.335 482.353 460.668 482 467C481.928 468.314 481.856 469.627 481.782 470.981C481.709 472.101 481.637 473.221 481.563 474.375C481.502 475.352 481.442 476.329 481.379 477.336C480.723 481.952 479.491 485.138 475.75 488C453.796 503.372 417.422 504.143 391.817 504.168C390.6 504.171 389.383 504.175 388.13 504.178C385.569 504.183 383.008 504.186 380.448 504.185C376.604 504.188 372.76 504.206 368.916 504.225C350.178 504.268 331.6 503.553 313.125 500.188C312.178 500.018 311.231 499.848 310.255 499.674C279.326 493.874 279.326 493.874 272 484C271.169 481.264 270.81 478.628 270.596 475.782C270.532 474.943 270.467 474.104 270.4 473.24C270.333 472.323 270.266 471.406 270.197 470.462C270.122 469.484 270.048 468.506 269.971 467.499C269.722 464.213 269.478 460.928 269.234 457.642C269.057 455.29 268.88 452.938 268.702 450.585C268.22 444.189 267.741 437.792 267.264 431.395C266.966 427.399 266.666 423.404 266.366 419.409C266.316 418.745 266.267 418.082 266.215 417.399C266.114 416.051 266.013 414.704 265.912 413.357C264.962 400.717 264.017 388.077 263.073 375.437C262.264 364.599 261.451 353.761 260.636 342.923C259.689 330.335 258.744 317.747 257.802 305.158C257.702 303.814 257.601 302.471 257.501 301.127C257.451 300.466 257.402 299.805 257.351 299.124C257.003 294.473 256.653 289.822 256.303 285.171C255.832 278.903 255.363 272.636 254.897 266.368C254.726 264.069 254.553 261.769 254.38 259.47C254.143 256.329 253.909 253.188 253.677 250.047C253.573 248.685 253.573 248.685 253.467 247.296C253.093 242.181 252.936 237.129 253 232C253.99 232 254.98 232 256 232C256.165 231.278 256.33 230.556 256.5 229.813C260.087 223.087 269.087 220.247 276 218C305.209 209.613 336.733 207.329 367 208Z" fill="#D99C64"/>
<path d="M130.8 7.68437C133.876 7.68898 136.951 7.68214 140.026 7.66386C239.24 7.08058 239.24 7.08058 263 27C268.242 37.484 263.236 58.3714 262.346 69.6519C262.06 73.2843 261.784 76.9175 261.51 80.5508C261.331 82.8725 261.152 85.1941 260.972 87.5157C260.849 89.1359 260.849 89.1359 260.723 90.7889C260.643 91.7948 260.563 92.8006 260.48 93.837C260.377 95.1557 260.377 95.1557 260.272 96.5011C259.995 99.0444 259.539 101.5 259 104C258.01 104 257.02 104 256 104C255.546 103.134 255.092 102.268 254.625 101.375C248.458 91.8218 231.595 89.6497 221.316 87.3868C207.718 84.6452 193.808 83.2388 180 82C178.54 81.8689 178.54 81.8689 177.051 81.7351C169.583 81.1088 162.183 80.8527 154.691 80.8672C153.563 80.8663 152.435 80.8653 151.273 80.8643C148.901 80.8637 146.528 80.8655 144.156 80.8697C140.602 80.875 137.048 80.8697 133.494 80.8633C113.74 80.8558 94.1163 81.2936 74.4998 83.75C73.8048 83.8359 73.1099 83.9217 72.394 84.0101C43.5204 87.2045 43.5204 87.2045 17.9998 100C16.6111 102.1 16.6111 102.1 15.9998 104C15.0098 104 14.0198 104 12.9998 104C12.2672 100.606 11.79 97.2974 11.519 93.837C11.399 92.3282 11.399 92.3282 11.2766 90.7889C11.1943 89.7088 11.1119 88.6286 11.0271 87.5157C10.9397 86.3867 10.8524 85.2577 10.7623 84.0945C10.5784 81.7007 10.3961 79.3067 10.2153 76.9126C9.94139 73.3045 9.65738 69.6972 9.3728 66.0899C8.85479 59.3967 8.39377 52.7017 7.99976 46C7.94588 45.0875 7.892 44.1749 7.83649 43.2347C7.71263 40.8592 7.62873 38.4872 7.56616 36.1094C7.50537 34.1985 7.50537 34.1985 7.44336 32.2491C8.16037 28.0622 9.76126 26.6483 12.9998 24C26.4903 16.0122 44.4619 14.0531 59.6873 11.8125C60.7224 11.6578 61.7575 11.503 62.824 11.3435C85.4124 8.22305 108.038 7.64747 130.8 7.68437Z" fill="#B8D0FF"/>
<path d="M224 121C223.257 139.179 221.874 157.314 220.541 175.457C220.212 179.943 219.886 184.429 219.559 188.916C218.94 197.411 218.319 205.906 217.696 214.402C216.995 223.974 216.297 233.547 215.599 243.12C214.744 254.846 213.888 266.571 213.031 278.297C212.94 279.536 212.94 279.536 212.848 280.8C212.555 284.798 212.262 288.796 211.966 292.794C211.487 299.262 211.012 305.73 210.584 312.202C210.456 314.131 210.325 316.059 210.194 317.988C210.037 320.291 209.887 322.594 209.745 324.898C209.676 325.903 209.606 326.907 209.535 327.942C209.452 329.237 209.452 329.237 209.366 330.557C208.953 333.313 208.249 335.509 207 338C197.493 341.843 185.579 341.668 175.438 342.687C173.534 342.885 173.534 342.885 171.591 343.086C159.593 344.2 148.22 344 136 344C136 272.72 136 201.44 136 128C148.87 127.34 161.74 126.68 175 126C195.23 124.35 195.23 124.35 215.275 121.385C218.216 120.969 221.033 120.975 224 121Z" fill="#E8A970"/>
<path d="M421 210C428.964 209.761 436.516 210.422 444.375 211.688C445.503 211.868 446.63 212.048 447.792 212.233C486.386 218.598 486.386 218.598 494.867 228.09C496 230 496 230 496 232C496.99 232 497.98 232 499 232C498.319 249.547 497.032 267.042 495.71 284.55C495.406 288.588 495.105 292.627 494.803 296.666C494.297 303.427 493.789 310.189 493.28 316.95C492.692 324.748 492.108 332.545 491.526 340.343C490.963 347.892 490.397 355.44 489.83 362.988C489.59 366.183 489.351 369.378 489.112 372.572C488.832 376.328 488.549 380.083 488.265 383.839C488.113 385.862 487.962 387.886 487.811 389.909C487.351 395.966 486.831 401.983 486 408C474.805 408.25 464.075 407.67 453 406C452.825 395.531 453.362 385.242 454.172 374.813C454.296 373.163 454.42 371.512 454.543 369.862C454.872 365.478 455.207 361.094 455.543 356.711C455.891 352.162 456.233 347.613 456.575 343.065C456.988 337.584 457.401 332.103 457.818 326.623C458.644 315.739 459.458 304.855 460.254 293.969C460.346 292.707 460.439 291.444 460.534 290.144C460.876 285.474 461.218 280.804 461.557 276.134C461.783 273.037 462.01 269.941 462.238 266.844C462.302 265.966 462.365 265.089 462.43 264.185C462.831 258.772 463.372 253.391 464 248C462.182 248.399 462.182 248.399 460.328 248.805C458.636 249.162 456.943 249.519 455.25 249.875C454.464 250.049 453.677 250.223 452.867 250.403C443.346 252.38 433.671 253.119 424 254C423.972 254.87 423.972 254.87 423.944 255.757C422.837 290.612 421.641 325.463 420.375 360.313C420.324 361.723 420.324 361.723 420.271 363.162C419.849 374.775 419.426 386.388 419 398C413.485 397.11 408.421 395.691 403.125 393.938C401.748 393.482 401.748 393.482 400.343 393.018C391.764 390.084 383.999 386.261 376 382C375.67 373.09 375.34 364.18 375 355C373.02 356.65 371.04 358.3 369 360C362.747 360.908 358.145 359.677 353 356C347.356 350.789 344.522 346.18 343.562 338.5C344.151 333.794 345.68 332.321 349 329C352.658 327.171 356.331 327.538 360.215 328.614C366.32 330.982 370.294 334.629 374 340C374.33 340.99 374.66 341.98 375 343C375.33 314.29 375.66 285.58 376 256C383.92 255.67 391.84 255.34 400 255C401.013 252.757 402.026 250.514 403.07 248.203C404.073 245.989 405.076 243.774 406.079 241.56C406.766 240.042 407.453 238.524 408.139 237.005C412.247 227.906 416.442 218.885 421 210Z" fill="#FEBA7B"/>
<path d="M13 104C13.99 104 14.98 104 16 104C16.4512 104.763 16.9023 105.526 17.3672 106.312C22.7818 115.225 38.453 117.444 48 120C49.0166 124.403 49.3653 128.81 49.683 133.306C49.7444 134.139 49.8058 134.972 49.869 135.83C50.0739 138.619 50.2742 141.409 50.4746 144.199C50.6206 146.2 50.767 148.201 50.9135 150.201C51.2285 154.509 51.5416 158.817 51.8531 163.125C52.3458 169.937 52.8431 176.748 53.3412 183.559C54.308 196.788 55.2703 210.018 56.2318 223.248C57.4555 240.084 58.6803 256.92 59.9111 273.756C60.4059 280.527 60.898 287.299 61.388 294.07C61.6933 298.283 62.0009 302.495 62.3092 306.707C62.4516 308.66 62.5931 310.614 62.7336 312.567C62.9255 315.234 63.1208 317.901 63.317 320.567C63.3718 321.34 63.4266 322.113 63.483 322.91C63.787 326.988 64.2562 330.978 65 335C66.98 332.69 68.96 330.38 71 328C77.1735 331.087 79.5044 336.408 82.875 342.25C85.3565 350.522 85.0076 357.789 81.1875 365.562C79.3459 368.914 77.358 371.991 75 375C76.65 375.66 78.3 376.32 80 377C80.0413 376.051 80.0825 375.103 80.125 374.125C81.1783 367.011 85.4553 360.843 91.0625 356.5C96.0495 352.992 100.202 351.741 106.312 351.875C107.381 351.893 108.45 351.911 109.551 351.93C110.359 351.953 111.167 351.976 112 352C112.536 361.645 110.359 369.518 104.098 377.016C99.9661 380.924 94.95 383.873 89.1953 384.121C88.4709 384.081 87.7464 384.041 87 384C87.66 385.98 88.32 387.96 89 390C89.4009 389.613 89.8018 389.227 90.2148 388.828C98.2942 381.427 105.308 379.244 116.332 379.543C123.458 380.431 129.916 383.916 135 389C135.621 391.121 135.621 391.121 136 393C128.405 400.367 122.32 404.151 111.562 404.562C102.36 404.313 95.8038 401.123 89 395C88.34 396.65 87.68 398.3 87 400C88.155 400.062 89.31 400.124 90.5 400.188C98.1835 401.19 103.707 405.922 108.523 411.762C112.629 417.985 113.405 424.712 113 432C103.082 432.679 95.5065 431.077 87.625 424.812C82.9794 420.44 80.2709 415.319 79.75 408.938C79.8325 408.298 79.915 407.659 80 407C78.02 407.66 76.04 408.32 74 409C74.3867 409.401 74.7734 409.802 75.1719 410.215C82.5733 418.294 84.7556 425.308 84.457 436.332C83.5692 443.458 80.0842 449.916 75 455C72.8789 455.621 72.8789 455.621 71 456C63.7119 448.487 58.8509 440.755 59 430C59.802 421.622 63.8759 415.473 69 409C67.35 408.34 65.7 407.68 64 407C63.9381 408.155 63.8762 409.31 63.8125 410.5C62.8096 418.185 58.0774 423.701 52.2422 428.523C46.4437 432.342 39.8409 433.57 33 433C32.34 432.67 31.68 432.34 31 432C32.2557 420.236 33.5054 412.136 42.9141 404.477C47.3159 401.361 51.4793 399.498 57 400C56.34 398.02 55.68 396.04 55 394C54.5991 394.387 54.1982 394.773 53.7852 395.172C45.7058 402.573 38.6916 404.756 27.668 404.457C20.5422 403.569 14.0842 400.084 9 395C8.37891 392.879 8.37891 392.879 8 391C15.5945 383.633 21.6801 379.849 32.4375 379.438C41.6397 379.687 48.1962 382.877 55 389C55.66 387.35 56.32 385.7 57 384C55.845 383.938 54.69 383.876 53.5 383.812C45.7726 382.804 40.6963 378.071 35.543 372.551C30.9214 364.911 30.4917 356.295 30.131 347.574C29.973 343.814 29.7675 340.057 29.5679 336.3C29.5254 335.482 29.4828 334.665 29.439 333.822C28.8844 323.411 28.0896 313.018 27.3042 302.623C27.145 300.503 26.9858 298.384 26.8267 296.265C26.4944 291.849 26.1604 287.433 25.8254 283.018C25.2928 275.998 24.7647 268.978 24.2371 261.958C23.0244 245.83 21.8064 229.703 20.5879 213.575C19.4639 198.698 18.3411 183.821 17.2232 168.943C16.699 161.969 16.1719 154.995 15.6426 148.021C15.3151 143.698 14.9901 139.375 14.6658 135.053C14.5153 133.053 14.3638 131.054 14.2111 129.054C14.0026 126.322 13.7978 123.59 13.594 120.858C13.5331 120.071 13.4722 119.285 13.4094 118.475C13.0532 113.636 12.9477 108.852 13 104ZM63 370C63.33 372.31 63.66 374.62 64 377C67.465 376.505 67.465 376.505 71 376C70.2369 375.01 69.4737 374.02 68.6875 373C68.2582 372.443 67.829 371.886 67.3867 371.312C65.9551 369.656 65.9551 369.656 63 370Z" fill="#D99C64"/>
<path d="M464 248C463.38 263.624 462.403 279.198 461.223 294.789C461.049 297.112 460.876 299.435 460.703 301.758C460.251 307.82 459.796 313.882 459.339 319.943C458.881 326.036 458.426 332.129 457.971 338.223C457.792 340.611 457.614 342.999 457.435 345.387C457.305 347.135 457.305 347.135 457.172 348.918C456.913 352.378 456.654 355.838 456.394 359.298C455.229 374.863 454.086 390.429 453 406C463.998 406.694 474.998 407.36 486 408C485.419 421.384 484.366 434.674 483 448C482.01 448 481.02 448 480 448C479.892 448.599 479.783 449.199 479.672 449.816C478.439 453.824 475.415 455.766 472 458C443.586 472.334 406.63 472 376 472C376 442.3 376 412.6 376 382C383.92 385.3 391.84 388.6 400 392C406.335 394.088 412.605 396.145 419 398C418.99 397.411 418.98 396.823 418.969 396.217C418.593 369.908 419.788 343.635 420.796 317.352C420.986 312.34 421.17 307.329 421.353 302.317C421.531 297.468 421.713 292.619 421.896 287.771C421.983 285.465 422.069 283.16 422.153 280.855C422.272 277.653 422.395 274.451 422.519 271.249C422.57 269.84 422.57 269.84 422.622 268.403C422.816 263.532 423.209 258.811 424 254C424.66 253.902 425.32 253.804 426 253.703C431.709 252.841 437.408 251.937 443.102 250.977C444.71 250.705 444.71 250.705 446.352 250.429C448.521 250.062 450.69 249.693 452.859 249.321C453.867 249.151 454.875 248.98 455.914 248.805C457.275 248.572 457.275 248.572 458.663 248.335C461 248 461 248 464 248Z" fill="#E9AA70"/>
<path d="M459 8C463.706 8.56989 467.331 9.90047 471.578 11.9844C472.495 12.4306 472.495 12.4306 473.431 12.8858C475.374 13.8333 477.312 14.7915 479.25 15.75C480.535 16.3783 481.82 17.0059 483.105 17.6328C490.091 21.0459 497.053 24.5082 504 28C503.427 32.6244 502.161 36.233 500.148 40.4258C499.713 41.3428 499.713 41.3428 499.268 42.2783C498.64 43.5997 498.008 44.9195 497.373 46.2379C495.644 49.8307 493.941 53.4357 492.234 57.0391C491.704 58.1565 491.704 58.1565 491.163 59.2965C487.564 66.8882 484.086 74.5327 480.625 82.1875C479.387 84.9195 478.149 87.6512 476.91 90.3828C476.598 91.0722 476.285 91.7615 475.963 92.4718C472.379 100.375 468.778 108.269 465.164 116.158C464.445 117.728 463.727 119.298 463.01 120.869C459.137 129.357 455.146 137.756 450.919 146.074C448.603 150.677 446.514 155.344 444.508 160.09C443.662 162.051 442.813 164.01 441.964 165.969C441.396 167.303 440.84 168.642 440.296 169.986C435.735 181.195 435.735 181.195 431.685 183.074C429.038 183.36 426.65 183.24 424 183C422.338 183.081 420.678 183.187 419.02 183.316C417.284 183.403 415.548 183.485 413.812 183.562C412.884 183.605 411.955 183.647 410.998 183.691C400.334 184.134 389.671 184.096 379 184C381.897 176.424 385.201 169.068 388.636 161.722C389.501 159.872 390.362 158.02 391.223 156.168C393.527 151.222 395.828 146.288 398.344 141.445C400.056 138.277 400.056 138.277 400.412 135.708C401.16 132.262 402.546 129.415 404.07 126.234C404.383 125.577 404.696 124.92 405.018 124.242C405.694 122.821 406.373 121.401 407.054 119.982C408.895 116.145 410.717 112.299 412.539 108.453C412.914 107.663 413.289 106.873 413.675 106.059C417.373 98.2463 420.945 90.3789 424.5 82.5C429.976 70.3768 435.58 58.3195 441.264 46.2925C447.275 33.5727 453.18 20.8087 459 8Z" fill="#A55C4E"/>
<path d="M253 98.0002C255.199 100.513 255.956 101.5 256.25 104.875C253.886 110.785 248.569 112.896 242.945 115.313C186.807 135.68 113.849 132.066 55.6872 122.188C55.004 122.075 54.3208 121.963 53.6168 121.847C41.628 119.832 25.9851 116.766 16.9997 108C15.8122 105 15.8122 105 15.9997 102C22.6337 91.9548 36.9619 89.4929 47.9997 87.0002C49.174 86.7346 50.3484 86.4691 51.5583 86.1955C60.0223 84.4579 68.5436 83.3667 77.1247 82.3752C78.6856 82.1904 78.6856 82.1904 80.278 82.0019C126.973 76.894 212.298 68.2735 253 98.0002Z" fill="#FEC7A1"/>
<path d="M8.00048 34C8.99048 34.495 8.99048 34.495 10.0005 35C10.0005 35.66 10.0005 36.32 10.0005 37C11.0736 37.4215 11.0736 37.4215 12.1684 37.8516C13.9762 38.5847 15.7724 39.3476 17.5513 40.1484C77.1545 66.62 186.786 64.0727 248.753 42.8828C254.389 40.669 259.771 38.3993 264 34C264.112 42.2428 263.801 50.3732 263.161 58.5898C263.074 59.7374 262.988 60.8849 262.899 62.0673C262.717 64.4699 262.533 66.8724 262.346 69.2747C262.062 72.9516 261.786 76.629 261.51 80.3066C261.332 82.6511 261.153 84.9955 260.973 87.3398C260.85 88.9836 260.85 88.9836 260.724 90.6606C260.644 91.6826 260.564 92.7046 260.481 93.7576C260.378 95.0989 260.378 95.0989 260.273 96.4674C259.998 99.0233 259.544 101.489 259 104C258.01 104 257.02 104 256 104C255.547 103.134 255.093 102.267 254.625 101.375C248.458 91.8217 231.595 89.6496 221.317 87.3867C207.719 84.6452 193.808 83.2388 180 82C178.541 81.8688 178.541 81.8688 177.052 81.735C169.584 81.1087 162.184 80.8527 154.692 80.8672C153.564 80.8662 152.436 80.8653 151.274 80.8643C148.901 80.8636 146.529 80.8654 144.157 80.8696C140.603 80.8749 137.049 80.8697 133.495 80.8633C113.74 80.8557 94.1171 81.2935 74.5005 83.75C73.8056 83.8358 73.1106 83.9216 72.3947 84.01C43.5212 87.2044 43.5212 87.2044 18.0005 100C16.6118 102.1 16.6118 102.1 16.0005 104C15.0105 104 14.0205 104 13.0005 104C12.2604 100.579 11.7883 97.2461 11.5198 93.7576C11.4398 92.7356 11.3597 91.7136 11.2773 90.6606C11.195 89.5648 11.1126 88.4689 11.0278 87.3398C10.9404 86.199 10.8531 85.0581 10.7631 83.8827C10.5792 81.4679 10.3969 79.053 10.2161 76.6379C9.94079 72.975 9.65748 69.3127 9.37352 65.6504C9.19529 63.2969 9.01755 60.9434 8.84032 58.5898C8.75596 57.5082 8.6716 56.4265 8.58469 55.312C8.0608 48.1952 7.90394 41.1351 8.00048 34Z" fill="#CDE1FE"/>
<path d="M224 121C223.257 139.179 221.874 157.314 220.541 175.457C220.212 179.943 219.886 184.43 219.559 188.916C218.94 197.411 218.319 205.907 217.696 214.402C216.995 223.975 216.297 233.548 215.599 243.12C214.744 254.846 213.888 266.572 213.031 278.297C212.94 279.536 212.94 279.536 212.848 280.8C212.555 284.798 212.262 288.796 211.966 292.794C211.487 299.262 211.012 305.731 210.584 312.203C210.456 314.131 210.325 316.06 210.194 317.988C210.037 320.291 209.887 322.595 209.745 324.898C209.676 325.903 209.606 326.907 209.535 327.942C209.452 329.237 209.452 329.237 209.366 330.557C208.951 333.329 208.288 335.509 207 338C204.465 338.888 202.43 339.377 199.812 339.75C198.52 339.972 197.227 340.194 195.895 340.422C191.675 340.992 187.441 341.266 183.194 341.536C182.501 341.581 181.807 341.626 181.093 341.673C179.395 341.783 177.698 341.892 176 342C176.658 319.183 177.434 296.372 178.28 273.562C178.443 269.164 178.605 264.766 178.767 260.369C178.97 254.862 179.173 249.356 179.377 243.85C179.795 232.558 180.21 221.265 180.623 209.972C180.859 203.516 181.095 197.06 181.332 190.604C181.493 186.217 181.654 181.831 181.814 177.444C183.08 142.675 183.08 142.675 184 126C188.331 125.32 192.665 124.654 197 124C197.851 123.872 198.703 123.743 199.58 123.611C202.365 123.194 205.151 122.784 207.938 122.375C209.287 122.172 209.287 122.172 210.663 121.966C211.526 121.84 212.388 121.715 213.277 121.586C214.043 121.473 214.809 121.36 215.597 121.244C218.409 120.959 221.176 120.985 224 121Z" fill="#D99C64"/>
<path d="M47.9996 120C48.7296 120.116 49.4596 120.232 50.2118 120.351C53.578 120.884 56.945 121.411 60.3121 121.938C61.46 122.12 62.6079 122.302 63.7906 122.49C70.1157 123.476 76.3958 124.293 82.7816 124.756C84.9996 125 84.9996 125 87.9996 126C89.071 135.798 89.4007 145.609 89.7557 155.452C89.8246 157.301 89.8937 159.151 89.9631 161C90.1496 165.996 90.3325 170.992 90.5145 175.988C90.7062 181.237 90.9009 186.485 91.0951 191.734C91.4208 200.55 91.744 209.366 92.0658 218.183C92.4367 228.343 92.8117 238.504 93.1889 248.664C93.5529 258.473 93.9137 268.282 94.2733 278.091C94.4257 282.248 94.5793 286.406 94.7338 290.563C94.9161 295.471 95.0956 300.38 95.2731 305.288C95.3383 307.078 95.4043 308.869 95.4715 310.659C95.8627 321.112 96.0878 331.538 95.9996 342C93.7901 342.039 91.5884 342.058 89.3785 342.027C87.5229 342.006 85.6664 342.052 83.8121 342.125C79.6273 340.451 78.4842 337.259 76.4918 333.348C74.8751 330.804 73.7787 330.044 70.9996 329C70.5781 329.505 70.1566 330.011 69.7223 330.531C68.9005 331.506 68.9005 331.506 68.0621 332.5C67.2442 333.475 67.2442 333.475 66.4098 334.469C65.9444 334.974 65.4791 335.479 64.9996 336C64.6696 336 64.3396 336 63.9996 336C62.662 322.428 61.4809 308.855 60.4874 295.254C60.3494 293.387 60.2111 291.52 60.0727 289.653C59.703 284.659 59.3361 279.664 58.9698 274.669C58.5842 269.415 58.1963 264.162 57.8087 258.909C57.16 250.111 56.5131 241.312 55.8673 232.514C55.1211 222.347 54.3719 212.181 53.6212 202.014C52.8965 192.2 52.1739 182.386 51.4523 172.571C51.146 168.405 50.8389 164.24 50.5312 160.074C50.17 155.182 49.8106 150.29 49.4527 145.398C49.3211 143.603 49.1888 141.809 49.056 140.015C48.8748 137.568 48.696 135.12 48.5177 132.673C48.4645 131.963 48.4114 131.252 48.3567 130.52C48.1031 127.006 47.9431 123.524 47.9996 120Z" fill="#E8A970"/>
<path d="M191 376C196.898 378.509 199.636 383.772 202.875 389.062C205.417 395.738 205.2 404.318 203.016 411.02C200.876 415.425 198.285 419.35 195 423C196.65 423.66 198.3 424.32 200 425C200.093 423.268 200.093 423.268 200.188 421.5C201.19 413.815 205.923 408.299 211.758 403.477C217.556 399.658 224.159 398.43 231 399C231.66 399.33 232.32 399.66 233 400C231.744 411.764 230.495 419.864 221.086 427.523C216.684 430.639 212.521 432.502 207 432C207.99 434.97 207.99 434.97 209 438C209.401 437.613 209.802 437.227 210.215 436.828C218.294 429.427 225.308 427.244 236.332 427.543C243.458 428.431 249.916 431.916 255 437C255.621 439.121 255.621 439.121 256 441C248.405 448.367 242.32 452.151 231.562 452.562C222.36 452.313 215.804 449.123 209 443C208.34 444.65 207.68 446.3 207 448C208.155 448.062 209.31 448.124 210.5 448.188C218.184 449.19 223.707 453.922 228.523 459.762C232.629 465.985 233.405 472.712 233 480C223.082 480.679 215.507 479.077 207.625 472.812C202.979 468.44 200.271 463.319 199.75 456.938C199.833 456.298 199.915 455.659 200 455C198.02 455.66 196.04 456.32 194 457C194.387 457.401 194.773 457.802 195.172 458.215C202.573 466.294 204.756 473.308 204.457 484.332C203.569 491.458 200.084 497.916 195 503C192.879 503.621 192.879 503.621 191 504C183.712 496.487 178.851 488.755 179 478C179.802 469.622 183.876 463.473 189 457C187.35 456.34 185.7 455.68 184 455C183.907 456.732 183.907 456.732 183.812 458.5C182.81 466.185 178.077 471.701 172.242 476.523C166.444 480.342 159.841 481.57 153 481C152.34 480.67 151.68 480.34 151 480C152.256 468.236 153.505 460.136 162.914 452.477C167.316 449.361 171.479 447.498 177 448C176.34 446.02 175.68 444.04 175 442C174.599 442.387 174.198 442.773 173.785 443.172C165.706 450.573 158.692 452.756 147.668 452.457C140.542 451.569 134.084 448.084 129 443C128.379 440.879 128.379 440.879 128 439C135.595 431.633 141.68 427.849 152.438 427.438C161.64 427.687 168.196 430.877 175 437C175.66 435.35 176.32 433.7 177 432C175.845 431.938 174.69 431.876 173.5 431.812C165.816 430.81 160.293 426.078 155.477 420.238C151.371 414.015 150.595 407.288 151 400C160.918 399.321 168.493 400.923 176.375 407.188C181.021 411.56 183.729 416.681 184.25 423.062C184.167 423.702 184.085 424.341 184 425C185.98 424.34 187.96 423.68 190 423C189.613 422.599 189.227 422.198 188.828 421.785C182.566 414.949 178.87 407.407 179 398C179.876 388.845 184.332 382.096 191 376Z" fill="#7D4537"/>
<path d="M71 328C77.1792 330.522 79.6847 336.72 82.875 342.25C85.3565 350.522 85.0076 357.789 81.1875 365.562C79.3459 368.914 77.358 371.991 75 375C76.65 375.66 78.3 376.32 80 377C80.0413 376.051 80.0825 375.103 80.125 374.125C81.1783 367.011 85.4553 360.843 91.0625 356.5C96.0495 352.992 100.202 351.741 106.312 351.875C107.381 351.893 108.45 351.911 109.551 351.93C110.359 351.953 111.167 351.976 112 352C112.536 361.645 110.359 369.518 104.098 377.016C99.9661 380.924 94.95 383.873 89.1953 384.121C88.4709 384.081 87.7464 384.041 87 384C87.99 386.97 87.99 386.97 89 390C89.4009 389.613 89.8018 389.227 90.2148 388.828C98.2942 381.427 105.308 379.244 116.332 379.543C123.458 380.431 129.916 383.916 135 389C135.621 391.121 135.621 391.121 136 393C128.405 400.367 122.32 404.151 111.562 404.562C102.36 404.313 95.8038 401.123 89 395C88.34 396.65 87.68 398.3 87 400C88.155 400.062 89.31 400.124 90.5 400.188C98.1835 401.19 103.707 405.922 108.523 411.762C112.629 417.985 113.405 424.712 113 432C103.082 432.679 95.5065 431.077 87.625 424.812C82.9794 420.44 80.2709 415.319 79.75 408.938C79.8325 408.298 79.915 407.659 80 407C78.02 407.66 76.04 408.32 74 409C74.3867 409.401 74.7734 409.802 75.1719 410.215C82.5733 418.294 84.7556 425.308 84.457 436.332C83.5692 443.458 80.0842 449.916 75 455C72.8789 455.621 72.8789 455.621 71 456C63.7119 448.487 58.8509 440.755 59 430C59.802 421.622 63.8759 415.473 69 409C67.35 408.34 65.7 407.68 64 407C63.9072 408.732 63.9072 408.732 63.8125 410.5C62.8096 418.185 58.0774 423.701 52.2422 428.523C46.4437 432.342 39.8409 433.57 33 433C32.34 432.67 31.68 432.34 31 432C32.2557 420.236 33.5054 412.136 42.9141 404.477C47.3159 401.361 51.4793 399.498 57 400C56.34 398.02 55.68 396.04 55 394C54.5991 394.387 54.1982 394.773 53.7852 395.172C45.7058 402.573 38.6916 404.756 27.668 404.457C20.5422 403.569 14.0842 400.084 9 395C8.37891 392.879 8.37891 392.879 8 391C15.5945 383.633 21.6801 379.849 32.4375 379.438C41.6397 379.687 48.1962 382.877 55 389C55.66 387.35 56.32 385.7 57 384C55.845 383.938 54.69 383.876 53.5 383.812C45.8165 382.81 40.2934 378.078 35.4766 372.238C31.3709 366.015 30.5951 359.288 31 352C40.1331 351.287 48.4676 352.969 55.875 358.625C60.2737 362.79 63.8481 368.689 64.1289 374.809C64.0864 375.532 64.0438 376.255 64 377C65.98 376.34 67.96 375.68 70 375C69.2781 374.237 68.5562 373.474 67.8125 372.688C61.8808 365.434 59.0652 357.666 59.4453 348.285C60.7843 340.355 64.7856 333.118 71 328Z" fill="#7D4437"/>
<path d="M269 448C269.99 448 270.98 448 272 448C272.413 448.722 272.825 449.444 273.25 450.188C277.1 456.375 283.51 458.95 290.188 461.062C290.962 461.313 291.736 461.563 292.533 461.821C318.441 469.899 345.566 471.187 372.507 471.185C375.6 471.187 378.692 471.206 381.785 471.225C431.408 471.713 431.408 471.713 476.25 453.875C479.155 451.248 479.155 451.248 480 448C480.99 448 481.98 448 483 448C482.686 454.334 482.352 460.668 482 467C481.928 468.314 481.856 469.627 481.782 470.98C481.709 472.101 481.637 473.221 481.563 474.375C481.502 475.352 481.442 476.329 481.379 477.336C480.723 481.952 479.491 485.138 475.75 488C453.796 503.372 417.422 504.143 391.817 504.168C389.992 504.173 389.992 504.173 388.129 504.178C385.569 504.183 383.008 504.185 380.448 504.185C376.604 504.187 372.76 504.206 368.916 504.225C350.178 504.268 331.6 503.552 313.125 500.188C312.178 500.018 311.231 499.848 310.255 499.674C279.326 493.874 279.326 493.874 272 484C270.97 480.75 270.724 477.522 270.465 474.133C270.378 473 270.291 471.867 270.202 470.699C270.114 469.52 270.027 468.34 269.938 467.125C269.802 465.367 269.802 465.367 269.662 463.574C269.269 458.366 268.95 453.226 269 448Z" fill="#80A6EF"/>
<path d="M367 208C365.068 214.19 362.756 220.06 360.023 225.938C359.467 227.147 359.467 227.147 358.9 228.381C358.124 230.065 357.346 231.749 356.565 233.432C355.366 236.019 354.175 238.609 352.984 241.199C352.227 242.842 351.469 244.483 350.711 246.125C350.354 246.901 349.996 247.677 349.628 248.476C347.116 253.884 347.116 253.884 346 255C344.234 255.022 344.234 255.022 341.965 254.879C341.156 254.831 340.347 254.782 339.514 254.733C338.238 254.648 338.238 254.648 336.938 254.563C336.083 254.51 335.229 254.458 334.35 254.404C332.233 254.274 330.116 254.138 328 254C328.038 254.916 328.075 255.832 328.114 256.775C328.472 265.51 328.825 274.244 329.173 282.979C329.353 287.467 329.534 291.955 329.718 296.443C331.285 334.565 331.285 334.565 331 353C324.923 348.547 319.497 343.85 314.188 338.5C313.405 337.712 312.623 336.924 311.816 336.112C307.169 331.367 302.669 326.548 298.5 321.375C298.062 320.845 297.624 320.314 297.173 319.768C291.686 312.674 291.563 303.95 290.93 295.344C290.801 293.691 290.801 293.691 290.669 292.005C290.49 289.686 290.313 287.366 290.14 285.047C289.876 281.511 289.601 277.976 289.324 274.442C289.15 272.18 288.977 269.918 288.805 267.656C288.683 266.083 288.683 266.083 288.559 264.477C288.151 258.966 287.915 253.526 288 248C286.763 247.815 286.763 247.815 285.5 247.625C278.138 246.31 271.916 244.346 265.25 241C264.559 240.656 263.868 240.312 263.156 239.957C259.867 238.24 258.093 237.14 256 234C256.076 230.418 256.445 228.61 258.875 225.938C288.762 207.408 332.958 207.246 367 208Z" fill="#FEC6A1"/>
<path d="M496 232C496.99 232 497.98 232 499 232C498.319 249.547 497.032 267.042 495.71 284.549C495.406 288.588 495.105 292.627 494.803 296.666C494.297 303.427 493.789 310.189 493.28 316.95C492.692 324.747 492.108 332.545 491.526 340.343C490.963 347.892 490.397 355.44 489.83 362.988C489.59 366.183 489.351 369.377 489.112 372.572C488.832 376.328 488.549 380.083 488.265 383.838C488.113 385.862 487.962 387.885 487.811 389.909C487.351 395.966 486.831 401.982 486 408C474.805 408.249 464.075 407.669 453 406C452.825 395.531 453.362 385.241 454.172 374.812C454.296 373.162 454.42 371.512 454.543 369.862C454.872 365.478 455.207 361.094 455.543 356.711C455.891 352.162 456.233 347.613 456.575 343.064C456.988 337.584 457.401 332.103 457.818 326.622C458.644 315.739 459.458 304.855 460.254 293.969C460.393 292.075 460.393 292.075 460.534 290.144C460.876 285.474 461.218 280.804 461.557 276.134C461.783 273.037 462.01 269.94 462.238 266.844C462.302 265.966 462.365 265.089 462.43 264.184C462.831 258.772 463.372 253.391 464 248C464.588 247.822 465.176 247.645 465.782 247.462C468.191 246.733 470.595 245.991 473 245.25C473.839 244.997 474.678 244.745 475.543 244.484C480.38 242.984 484.84 241.249 489.309 238.858C491 238 491 238 494 237C495.219 234.496 495.219 234.496 496 232Z" fill="#FEB97A"/>
<path d="M376 382C387.88 386.95 387.88 386.95 400 392C411.132 395.869 421.85 398.994 433.312 401.5C434.843 401.838 434.843 401.838 436.404 402.184C441.591 403.317 446.73 404.346 452 405C452.08 411.744 451.864 418.411 451.379 425.137C451.283 426.522 451.283 426.522 451.184 427.936C451.049 429.871 450.912 431.806 450.773 433.741C450.562 436.69 450.358 439.639 450.154 442.588C450.021 444.479 449.888 446.37 449.754 448.262C449.693 449.135 449.633 450.008 449.571 450.907C449.227 455.645 448.735 460.307 448 465C443.042 466.843 438.207 467.747 433 468.5C432.127 468.627 431.254 468.753 430.354 468.884C412.178 471.437 394.465 472 376 472C376 442.3 376 412.6 376 382Z" fill="#E8AA70"/>
<path d="M240 320C240.99 320 241.98 320 243 320C242.686 326.334 242.352 332.668 242 339C241.928 340.314 241.856 341.627 241.781 342.98C241.709 344.101 241.637 345.221 241.562 346.375C241.502 347.352 241.441 348.329 241.379 349.336C240.722 353.952 239.49 357.138 235.75 360C213.596 375.512 176.924 376.144 151.113 376.168C149.849 376.171 148.585 376.175 147.282 376.178C144.638 376.183 141.993 376.185 139.349 376.185C135.958 376.185 132.568 376.199 129.177 376.216C125.927 376.23 122.676 376.229 119.426 376.23C118.208 376.238 116.991 376.245 115.736 376.252C114.058 376.248 114.058 376.248 112.345 376.243C110.865 376.245 110.865 376.245 109.355 376.247C107 376 107 376 105 374C105.624 373.183 106.248 372.365 106.891 371.523C109.402 367.756 110.071 364.042 110.75 359.625C110.938 358.521 110.938 358.521 111.129 357.395C111.432 355.598 111.718 353.799 112 352C101.762 352.341 94.6815 354.031 87 361C85.142 363.996 85.142 363.996 83.6875 367.25C83.1757 368.328 82.664 369.405 82.1367 370.516C81.7616 371.335 81.3865 372.155 81 373C79.68 372.34 78.36 371.68 77 371C77.6497 369.927 77.6497 369.927 78.3125 368.832C83.6161 359.342 84.1841 351.532 82 341C82.994 341.091 82.994 341.091 84.0081 341.184C163.671 349.507 163.671 349.507 236.688 325.492C238.187 323.788 239.078 322.066 240 320Z" fill="#B7CFFD"/>
<path d="M8.00036 34C8.99036 34.495 8.99036 34.495 10.0004 35C10.0004 35.66 10.0004 36.32 10.0004 37C11.0735 37.4215 11.0735 37.4215 12.1683 37.8516C13.9761 38.5847 15.7723 39.3476 17.5511 40.1484C77.1543 66.62 186.786 64.0727 248.753 42.8828C257.124 39.5962 257.124 39.5962 264 34C264.416 48.0678 264.416 48.0678 262 53C254.117 60.1777 241.878 62.5334 231.75 64.5625C230.712 64.773 229.673 64.9835 228.603 65.2004C198.42 71.1434 167.757 72.4197 137.063 72.375C136.376 72.3749 135.69 72.3748 134.982 72.3747C29.7778 72.3566 29.7778 72.3566 9.00036 52C7.93786 49.375 7.93786 49.375 8.00036 46C7.99005 44.9945 7.97973 43.9891 7.96911 42.9531C7.94107 39.967 7.95688 36.9858 8.00036 34Z" fill="#E5F0FF"/>
<path d="M115.984 7.79703C117.09 7.79279 117.09 7.79279 118.217 7.78846C122.135 7.7736 126.053 7.76429 129.97 7.75992C133.121 7.75559 136.271 7.74188 139.422 7.71891C234.611 7.0397 234.611 7.0397 261.426 25.4298C263 27.0002 263 27.0002 264.437 30.5627C263.871 35.0132 262.496 36.2807 259 39.0002C256.687 40.3127 256.687 40.3127 255 41.0002C255 40.3402 255 39.6802 255 39.0002C185.754 17.6087 96.9364 17.1088 26.9998 36.0002C26.0802 36.2475 25.1606 36.4948 24.2132 36.7497C23.3036 37.0064 22.394 37.263 21.4568 37.5275C20.6277 37.7607 19.7986 37.994 18.9444 38.2343C16.8088 38.8252 16.8088 38.8252 15.9998 41.0002C10.2498 37.3752 10.2498 37.3752 7.99978 34.0002C7.74978 30.6877 7.74978 30.6877 8.99978 27.0002C31.6875 5.50923 87.2502 7.87377 115.984 7.79703Z" fill="#C9D8FF"/>
<path d="M486 20C490.36 21.3485 494.313 23.0491 498.375 25.125C499.435 25.6638 500.494 26.2027 501.586 26.7578C502.383 27.1677 503.179 27.5777 504 28C503.427 32.6244 502.161 36.233 500.148 40.4258C499.713 41.3428 499.713 41.3428 499.268 42.2783C498.64 43.5997 498.008 44.9195 497.373 46.2379C495.644 49.8307 493.941 53.4357 492.234 57.0391C491.704 58.1565 491.704 58.1565 491.163 59.2965C487.564 66.8882 484.086 74.5327 480.625 82.1875C479.387 84.9195 478.149 87.6512 476.91 90.3828C476.598 91.0722 476.285 91.7615 475.963 92.4718C472.379 100.375 468.778 108.269 465.164 116.158C464.445 117.728 463.727 119.298 463.01 120.869C459.137 129.357 455.146 137.756 450.919 146.074C448.603 150.677 446.514 155.344 444.508 160.09C443.662 162.051 442.813 164.01 441.964 165.969C441.396 167.303 440.84 168.642 440.296 169.986C435.723 181.223 435.723 181.223 431.578 183.092C428.946 183.381 426.627 183.289 424 183C422.109 183.048 422.109 183.048 420.18 183.098C419.089 183.086 417.999 183.074 416.875 183.062C415.759 183.053 414.642 183.044 413.492 183.035C412.67 183.024 411.847 183.012 411 183C412.28 178.973 413.756 175.17 415.547 171.344C416.055 170.255 416.562 169.166 417.085 168.044C417.635 166.874 418.184 165.705 418.75 164.5C419.332 163.254 419.915 162.007 420.497 160.761C421.716 158.15 422.937 155.541 424.159 152.932C425.926 149.16 427.687 145.385 429.445 141.609C435.781 128.011 442.143 114.425 448.516 100.844C453.369 90.4985 458.19 80.1382 462.992 69.7688C466.072 63.126 469.174 56.4941 472.297 49.8711C472.662 49.0966 473.027 48.322 473.403 47.524C475.199 43.7163 476.996 39.9095 478.797 36.104C479.452 34.7165 480.107 33.329 480.762 31.9414C481.209 30.998 481.209 30.998 481.666 30.0355C483.225 26.7296 484.684 23.41 486 20Z" fill="#915041"/>
<path d="M269 448C269.99 448 270.98 448 272 448C272.412 448.722 272.825 449.444 273.25 450.188C277.1 456.375 283.509 458.95 290.188 461.062C290.961 461.313 291.735 461.563 292.533 461.821C318.44 469.899 345.566 471.187 372.506 471.185C375.599 471.187 378.692 471.206 381.785 471.225C431.408 471.713 431.408 471.713 476.25 453.875C479.155 451.248 479.155 451.248 480 448C480.99 448 481.98 448 483 448C482.67 453.28 482.34 458.56 482 464C481.34 464 480.68 464 480 464C479.835 464.701 479.67 465.402 479.5 466.125C475.491 473.809 467.393 476.364 459.587 478.884C449.56 481.901 439.357 483.574 429 485C427.945 485.151 426.89 485.302 425.803 485.458C408.846 487.793 392.031 488.288 374.938 488.312C373.954 488.316 372.971 488.32 371.958 488.323C358.967 488.349 346.196 487.677 333.285 486.248C330.993 485.999 328.701 485.776 326.407 485.561C309.566 483.953 287.199 481.168 274.172 469.527C272.792 467.729 272.4 466.213 272 464C271.34 464 270.68 464 270 464C269.67 458.72 269.34 453.44 269 448Z" fill="#B7CFFE"/>
<path d="M288 248C289.162 248.193 290.325 248.387 291.523 248.586C300.762 250.097 309.98 251.429 319.298 252.353C322.36 252.664 325.068 253.023 328 254C328.396 263.659 328.788 273.319 329.173 282.979C329.352 287.467 329.533 291.955 329.718 296.442C331.285 334.564 331.285 334.564 331 353C324.922 348.547 319.497 343.85 314.187 338.5C313.405 337.712 312.622 336.924 311.816 336.112C307.168 331.367 302.669 326.548 298.5 321.375C298.062 320.845 297.624 320.314 297.172 319.768C291.686 312.673 291.562 303.95 290.929 295.344C290.843 294.242 290.757 293.14 290.669 292.005C290.489 289.686 290.313 287.366 290.14 285.046C289.875 281.511 289.601 277.976 289.324 274.441C289.15 272.18 288.977 269.918 288.804 267.656C288.723 266.607 288.642 265.558 288.558 264.477C288.15 258.966 287.915 253.526 288 248Z" fill="#FEB97A"/>
<path d="M393 152C390.786 159.096 387.988 165.755 384.875 172.5C384.42 173.5 383.965 174.501 383.496 175.531C380.141 182.859 380.141 182.859 379 184C341.915 186.725 290.737 185.049 257 169C257 168.34 257 167.68 257 167C298.377 149.366 348.866 151.57 393 152Z" fill="#B8D0FE"/>
<path d="M425 198C425.495 198.99 425.495 198.99 426 200C424.881 202.784 423.693 205.458 422.406 208.164C421.83 209.401 421.83 209.401 421.242 210.664C420.002 213.321 418.751 215.973 417.5 218.625C415.882 222.074 414.269 225.525 412.656 228.977C412.261 229.82 411.866 230.663 411.459 231.531C408.563 237.729 405.781 243.969 403.093 250.26C401.1 254.9 401.1 254.9 400 256C397.038 256.101 394.099 256.14 391.137 256.133C390.234 256.134 389.332 256.135 388.402 256.136C386.481 256.136 384.56 256.135 382.639 256.13C379.738 256.125 376.837 256.13 373.936 256.137C364.574 256.14 355.311 256.072 346 255C353.871 236.437 362.392 218.233 371 200C388.82 199.34 406.64 198.68 425 198Z" fill="#A65D4E"/>
<path d="M425.789 209.832C432.087 209.894 438.165 210.687 444.375 211.687C445.503 211.867 446.63 212.047 447.792 212.233C486.252 218.575 486.252 218.575 494.871 228.058C496 230 496 230 495.938 232.5C494.023 237.604 490.229 239.76 485.402 242.004C467.456 249.445 447.381 251.869 428.188 253.812C426.967 253.936 425.747 254.06 424.49 254.188C416.64 254.917 408.882 255.14 401 255C401.656 249.914 403.851 245.609 406 241.015C406.594 239.731 406.594 239.731 407.199 238.421C408.034 236.618 408.871 234.816 409.711 233.015C411.001 230.248 412.282 227.478 413.562 224.707C414.375 222.955 415.187 221.204 416 219.453C416.385 218.621 416.771 217.788 417.168 216.931C417.525 216.166 417.882 215.402 418.25 214.614C418.565 213.939 418.879 213.263 419.203 212.567C420.823 209.381 422.349 209.846 425.789 209.832Z" fill="#FEC6A1"/>
<path d="M370.062 135.863C373.57 135.884 377.078 135.892 380.586 135.902C387.39 135.923 394.195 135.957 401 136C399.748 139.989 398.284 143.657 396.375 147.375C395.929 148.249 395.483 149.123 395.023 150.024C394.685 150.676 394.348 151.328 394 152C392.895 152.02 391.79 152.04 390.652 152.06C328.251 152.983 328.251 152.983 267 164C266.08 164.247 265.161 164.495 264.213 164.75C263.304 165.006 262.394 165.263 261.457 165.527C260.628 165.761 259.799 165.994 258.944 166.234C256.809 166.825 256.809 166.825 256 169C254.02 167.68 252.04 166.36 250 165C249.67 166.98 249.34 168.96 249 171C248.67 171 248.34 171 248 171C246.962 158.97 246.962 158.97 249.101 154.91C250.959 153.185 252.726 152.127 255 151C255.842 150.577 256.683 150.154 257.551 149.719C291.518 134.962 333.732 135.621 370.062 135.863Z" fill="#C9D8FE"/>
<path d="M240 336C240.66 336 241.32 336 242 336C241.886 338.563 241.759 341.125 241.625 343.688C241.594 344.409 241.563 345.13 241.531 345.873C241.267 350.704 240.907 354.867 237.547 358.625C215.508 375.49 177.476 376.143 151.113 376.168C149.849 376.171 148.585 376.175 147.282 376.178C144.638 376.183 141.993 376.185 139.349 376.185C135.958 376.185 132.568 376.199 129.177 376.216C125.927 376.23 122.676 376.229 119.426 376.23C118.208 376.238 116.991 376.245 115.736 376.252C114.058 376.248 114.058 376.248 112.345 376.243C110.865 376.245 110.865 376.245 109.355 376.247C107 376 107 376 105 374C105.619 373.175 106.238 372.35 106.875 371.5C108.581 368.974 109.452 366.749 110.133 363.781C110.562 361.91 110.562 361.91 111 360C112.297 359.985 113.594 359.971 114.93 359.956C152.063 359.535 152.063 359.535 189 356C190.048 355.857 191.097 355.714 192.177 355.566C217.133 352.577 217.133 352.577 238 340C239.178 337.906 239.178 337.906 240 336Z" fill="#80A6EF"/>
<path d="M419.001 399C435.501 402 435.501 402 452.001 405C452.081 411.744 451.864 418.411 451.379 425.137C451.315 426.06 451.251 426.984 451.185 427.936C451.049 429.871 450.912 431.806 450.774 433.741C450.563 436.69 450.358 439.639 450.155 442.588C450.022 444.479 449.888 446.37 449.754 448.262C449.664 449.571 449.664 449.571 449.571 450.907C449.228 455.645 448.736 460.307 448.001 465C442.744 466.989 437.532 467.828 432.001 468.625C431.124 468.759 430.247 468.893 429.344 469.031C424.839 469.696 420.565 470.062 416.001 470C415.801 457.336 416.328 444.691 416.8 432.037C416.939 428.284 417.071 424.529 417.202 420.775C417.289 418.388 417.377 416.001 417.465 413.613C417.504 412.491 417.543 411.37 417.582 410.214C417.622 409.178 417.662 408.143 417.703 407.075C417.737 406.165 417.77 405.255 417.804 404.317C418.001 402 418.001 402 419.001 399Z" fill="#D99C64"/>
<path d="M503 180C502.502 191.492 501.834 202.965 501 214.438C500.917 215.604 500.834 216.77 500.749 217.972C500.626 219.624 500.626 219.624 500.5 221.309C500.392 222.775 500.392 222.775 500.281 224.271C500.01 226.899 499.564 229.421 499 232C498.01 232 497.02 232 496 232C495.546 231.134 495.093 230.267 494.625 229.375C488.448 219.806 471.589 217.668 461.301 215.391C448.018 212.695 434.47 211.392 421 210C421.645 208.375 422.291 206.75 422.938 205.125C423.297 204.22 423.657 203.315 424.027 202.383C425 200 425 200 426 198C428.822 197.501 428.822 197.501 432.621 197.141C434.034 196.997 435.446 196.852 436.859 196.707C437.606 196.633 438.353 196.559 439.122 196.483C451.018 195.285 462.716 193.765 474.375 191.062C475.381 190.834 476.387 190.606 477.424 190.37C484.72 188.591 496.644 180 503 180Z" fill="#CDE1FE"/>
<path d="M453 140C468.033 141.34 491.49 144.224 503 155C504.438 158.562 504.438 158.562 504 162C498.76 169.269 489.411 171.773 481.125 174C479.72 174.38 479.72 174.38 478.286 174.768C470.654 176.744 462.976 178.166 455.188 179.375C453.57 179.626 453.57 179.626 451.92 179.883C445.88 180.758 440.102 181.166 434 181C434.551 179.776 435.102 178.552 435.652 177.328C436.193 176.127 436.193 176.127 436.744 174.902C437.546 173.12 438.348 171.339 439.15 169.557C441.296 164.793 443.437 160.026 445.566 155.254C445.974 154.342 446.383 153.429 446.803 152.489C447.593 150.722 448.381 148.955 449.168 147.187C449.525 146.389 449.882 145.591 450.25 144.77C450.565 144.064 450.879 143.359 451.203 142.632C452 141 452 141 453 140Z" fill="#B8CFFE"/>
<path d="M425 198C425.495 198.99 425.495 198.99 426 200C424.881 202.784 423.693 205.458 422.406 208.164C422.022 208.989 421.638 209.814 421.242 210.664C420.002 213.321 418.751 215.973 417.5 218.625C415.882 222.074 414.269 225.525 412.656 228.977C412.261 229.82 411.866 230.663 411.459 231.531C408.563 237.729 405.781 243.969 403.093 250.26C401.1 254.9 401.1 254.9 400 256C398.292 256.087 396.581 256.107 394.871 256.098C393.319 256.093 393.319 256.093 391.736 256.088C390.648 256.08 389.559 256.071 388.438 256.062C386.799 256.056 386.799 256.056 385.127 256.049C382.418 256.037 379.709 256.021 377 256C381.088 245.76 385.733 235.789 390.385 225.797C391.697 222.979 393.006 220.16 394.314 217.34C395.151 215.539 395.987 213.738 396.824 211.938C397.214 211.099 397.603 210.26 398.005 209.396C398.369 208.615 398.733 207.833 399.108 207.027C399.426 206.344 399.744 205.661 400.072 204.957C401.02 202.958 402.011 200.979 403 199C410.26 198.67 417.52 198.34 425 198Z" fill="#925142"/>
<path d="M260 238C260.848 238.387 261.696 238.773 262.57 239.172C263.743 239.693 264.916 240.213 266.125 240.75C267.83 241.516 267.83 241.516 269.57 242.297C275.518 244.754 281.802 246.307 288 248C290.047 269.316 291.748 290.622 293 312C289.604 308.721 287.134 305.305 284.75 301.25C284.166 300.263 284.166 300.263 283.571 299.255C273.572 282.11 260 258.356 260 238Z" fill="#E8AA70"/>
<path d="M453 140C493.788 146.375 493.788 146.375 503 155C504.438 158.562 504.438 158.562 504 162C501.442 165.289 498.861 167.427 495 169C495 168.34 495 167.68 495 167C494.368 166.83 493.737 166.66 493.086 166.484C492.191 166.242 491.297 166 490.375 165.75C489.355 165.475 488.336 165.201 487.285 164.918C485.179 164.329 483.081 163.71 480.996 163.051C469.557 159.5 457.817 157.812 446 156C447.74 150.187 449.811 145.168 453 140Z" fill="#C9D8FE"/>
<path d="M247.973 431.637C255.075 436.413 255.075 436.413 256 441C248.405 448.367 242.32 452.151 231.562 452.562C222.721 452.323 215.319 449.319 209 443C208.379 440.879 208.379 440.879 208 439C219.212 428.124 233.383 423.019 247.973 431.637Z" fill="#914F40"/>
<path d="M167.973 431.637C175.075 436.413 175.075 436.413 176 441C168.405 448.367 162.32 452.151 151.562 452.562C142.721 452.323 135.319 449.319 129 443C128.379 440.879 128.379 440.879 128 439C139.212 428.124 153.383 423.019 167.973 431.637Z" fill="#914F40"/>
<path d="M47.9727 383.637C55.0749 388.413 55.0749 388.413 56 393C48.4055 400.367 42.3199 404.151 31.5625 404.562C22.7209 404.323 15.319 401.319 9 395C8.37891 392.879 8.37891 392.879 8 391C19.2124 380.124 33.3827 375.019 47.9727 383.637Z" fill="#914F40"/>
<path d="M350.999 64C356.897 66.5094 359.635 71.7721 362.874 77.0625C365.416 83.7384 365.2 92.3182 363.015 99.0195C360.908 103.357 358.421 107.578 354.999 111C352.878 111.621 352.878 111.621 350.999 112C344.136 104.925 338.847 97.2089 338.999 87C339.868 77.301 343.906 70.4849 350.999 64Z" fill="#915041"/>
<path d="M71.0002 328C77.1794 330.522 79.6849 336.72 82.8752 342.25C85.3329 350.442 85.0161 357.759 81.3127 365.5C78.9904 369.67 76.6812 372.969 73.0002 376C67.3532 373.782 64.9252 369.177 62.2502 364C59.0287 356.523 58.4285 349.418 61.1798 341.684C63.7245 336.311 66.3932 331.794 71.0002 328Z" fill="#A55D4E"/>
<path d="M28.9998 320C29.9898 320 30.9798 320 31.9998 320C32.4123 320.722 32.8248 321.444 33.2498 322.188C37.6943 329.33 45.3092 331.451 52.9373 333.812C54.3924 334.279 54.3924 334.279 55.8768 334.756C58.2479 335.515 60.6219 336.263 62.9998 337C62.4772 339.763 61.8911 342.326 60.9998 345C60.0453 354.477 61.734 361.545 65.9998 370C64.1717 369.766 64.1717 369.766 61.9998 369C60.578 367.109 60.578 367.109 59.2498 364.75C55.4818 358.78 51.1534 356.168 44.6248 353.75C41.6346 353.131 38.8044 352.741 35.7733 352.453C34.8779 352.367 33.9825 352.281 33.0599 352.192C32.3801 352.129 31.7003 352.065 30.9998 352C30.6627 347.792 30.3308 343.584 29.9998 339.375C29.9045 338.185 29.8091 336.995 29.7108 335.77C29.6205 334.616 29.5303 333.462 29.4373 332.273C29.3536 331.216 29.2698 330.158 29.1834 329.068C29.0021 326.037 28.968 323.036 28.9998 320Z" fill="#B7CFFD"/>
<path d="M360.215 328.613C367.278 331.354 371.759 336.005 375.438 342.562C376.459 346.987 376.65 350.57 374.75 354.75C372.881 357.153 371.716 358.605 369 360C362.704 360.734 358.182 359.703 353 356C347.356 350.789 344.522 346.18 343.562 338.5C344.151 333.793 345.68 332.32 349 329C352.658 327.171 356.331 327.538 360.215 328.613Z" fill="#F5F8FA"/>
<path d="M192.215 88.6133C199.279 91.3542 203.76 96.0056 207.438 102.563C208.455 106.968 208.623 110.559 206.813 114.75C203.832 118.45 201.411 119.814 196.688 120.438C188.994 119.525 184.235 115.957 179.411 110.012C176.119 105.316 175.294 100.648 176 95.0001C180 88.3685 184.649 86.5182 192.215 88.6133Z" fill="#F6F8FB"/>
<path d="M328 8.00004C328.556 17.1156 328.247 24.1587 322.047 31.2266C315.507 37.5156 309.478 40.1239 300.438 40.1875C298.958 40.1402 297.478 40.0834 296 40C294.174 34.3884 295.753 28.3892 297.746 22.9727C301.003 16.5894 306.693 11.5817 313.375 9.06254C318.228 7.67357 322.993 7.71781 328 8.00004Z" fill="#A45B4C"/>
<path d="M233 400C231.745 411.757 230.501 419.881 221.078 427.524C216.056 431.092 211.269 432.929 205 432C202 430.125 202 430.125 200 427C199.317 420.962 200.956 415.787 204.43 410.883C210.762 403.29 222.643 394.822 233 400Z" fill="#915041"/>
<path d="M212.445 448.301C219.965 450.359 225.755 455.565 230 462C232.671 467.958 233.359 473.533 233 480C223.082 480.679 215.507 479.077 207.625 472.813C202.635 468.096 200.446 462.972 199.438 456.25C200 453 200 453 201.875 450C205.799 447.489 207.939 447.572 212.445 448.301Z" fill="#924F41"/>
<path d="M179 448C182 449.875 182 449.875 184 453C184.684 459.038 183.045 464.213 179.57 469.117C173.563 476.32 167.343 480.283 157.879 481.207C155.274 481.266 153.351 481.175 151 480C152.255 468.243 153.499 460.119 162.922 452.476C167.944 448.908 172.731 447.071 179 448Z" fill="#A45B4C"/>
<path d="M92.4453 400.301C99.9649 402.359 105.755 407.565 110 414C112.671 419.958 113.359 425.533 113 432C103.082 432.679 95.5065 431.077 87.625 424.813C82.6354 420.096 80.4458 414.972 79.4375 408.25C80 405 80 405 81.875 402C85.7992 399.489 87.9387 399.572 92.4453 400.301Z" fill="#924F41"/>
<path d="M59 400C62 401.875 62 401.875 64 405C64.6835 411.038 63.0445 416.213 59.5703 421.117C53.5625 428.32 47.3427 432.283 37.8789 433.207C35.2741 433.266 33.3509 433.175 31 432C32.2549 420.243 33.4993 412.119 42.9219 404.476C47.9437 400.908 52.7308 399.071 59 400Z" fill="#A45B4C"/>
<path d="M151 400C160.919 399.321 168.494 400.923 176.375 407.187C181.365 411.904 183.555 417.028 184.563 423.75C184 427 184 427 182.125 430C178.201 432.511 176.062 432.428 171.555 431.699C164.035 429.641 158.245 424.435 154 418C151.329 412.042 150.641 406.467 151 400Z" fill="#915041"/>
<path d="M31.0003 352C40.1334 351.287 48.4679 352.969 55.8753 358.625C60.7786 363.292 63.5404 369.195 64.6253 375.813C64.0003 379 64.0003 379 62.1253 382C58.2011 384.512 56.0616 384.428 51.555 383.699C44.0353 381.641 38.2453 376.435 34.0003 370C31.3292 364.042 30.641 358.467 31.0003 352Z" fill="#915041"/>
<path d="M106.312 351.875C107.381 351.893 108.449 351.911 109.55 351.93C110.359 351.953 111.167 351.976 112 352C112.535 361.64 110.366 369.532 104.089 377.016C99.4869 381.386 94.4005 383.606 88.187 384.625C84.9995 384 84.9995 384 81.9995 382.063C79.5997 378.388 79.4736 376.693 80.2339 372.469C82.7632 364.313 87.6003 358.22 94.9995 354C98.9092 352.091 101.978 351.78 106.312 351.875Z" fill="#915042"/>
<path d="M192 456C199.225 462.02 203.172 467.338 204.551 476.766C204.905 486.759 202.458 493.016 196.875 501.062C195 503 195 503 192 504C192 488.16 192 472.32 192 456Z" fill="#A55C4D"/>
<path d="M245.625 430.25C254.491 435.472 254.491 435.472 256 440C240.16 440 224.32 440 208 440C217.524 428.571 231.423 423.466 245.625 430.25Z" fill="#A45C4D"/>
<path d="M165.625 430.25C174.491 435.472 174.491 435.472 176 440C160.16 440 144.32 440 128 440C137.524 428.571 151.423 423.466 165.625 430.25Z" fill="#A45C4D"/>
<path d="M72 408C79.2246 414.02 83.1719 419.338 84.5508 428.766C84.9048 438.759 82.4582 445.016 76.875 453.062C75 455 75 455 72 456C72 440.16 72 424.32 72 408Z" fill="#A55C4D"/>
<path d="M125.625 382.25C134.491 387.472 134.491 387.472 136 392C120.16 392 104.32 392 88 392C97.524 380.571 111.423 375.466 125.625 382.25Z" fill="#A45C4D"/>
<path d="M45.625 382.25C54.4907 387.472 54.4907 387.472 56 392C40.16 392 24.32 392 8 392C17.524 380.571 31.4233 375.466 45.625 382.25Z" fill="#A45C4D"/>
<path d="M192 376C199.225 382.02 203.172 387.338 204.551 396.766C204.905 406.759 202.458 413.016 196.875 421.062C195 423 195 423 192 424C192 408.16 192 392.32 192 376Z" fill="#A55C4D"/>
<path d="M352 64C359.225 70.0205 363.172 75.3382 364.551 84.7656C364.905 94.7589 362.458 101.016 356.875 109.062C355 111 355 111 352 112C352 96.16 352 80.32 352 64Z" fill="#A55C4D"/>
<path d="M71.9997 329C71.9997 344.51 71.9997 360.02 71.9997 376C64.7055 369.921 61.0763 364.094 59.4138 354.684C58.9495 345.498 61.9623 337.546 68.0779 330.66C69.9997 329 69.9997 329 71.9997 329Z" fill="#915042"/>
<path d="M60 403C61.32 403.66 62.64 404.32 64 405C63.7854 414.519 61.133 420.213 54.3125 426.812C48.1601 431.897 40.8684 433.656 33 433C32.34 432.67 31.68 432.34 31 432C31 431.34 31 430.68 31 430C31.7119 429.776 32.4238 429.553 33.1572 429.322C36.5844 427.728 38.8849 425.511 41.4844 422.844C41.9854 422.341 42.4865 421.838 43.0027 421.32C44.055 420.261 45.1037 419.198 46.1489 418.132C47.7517 416.498 49.365 414.875 50.9805 413.254C52.0032 412.222 53.0254 411.189 54.0469 410.156C54.5291 409.67 55.0114 409.183 55.5082 408.682C58.0722 406.078 58.0722 406.078 60 403Z" fill="#914F41"/>
<path d="M233 400C232 402 232 402 229.266 403.798C225.967 406.022 223.483 408.363 220.742 411.238C219.778 412.233 218.813 413.227 217.848 414.221C216.35 415.774 214.857 417.331 213.372 418.896C211.923 420.417 210.459 421.922 208.992 423.426C208.13 424.327 207.267 425.229 206.378 426.157C204 428 204 428 201.688 427.786C201.131 427.526 200.574 427.267 200 427C200.215 417.481 202.867 411.787 209.688 405.187C215.492 400.39 225.691 396.345 233 400Z" fill="#A45C4D"/>
<path d="M180 451C181.32 451.66 182.64 452.32 184 453C183.785 462.519 181.133 468.213 174.312 474.812C168.089 479.956 160.93 481.517 153 481C154.598 477.013 157.391 474.37 160.41 471.43C160.938 470.907 161.465 470.385 162.009 469.847C163.689 468.185 165.375 466.53 167.062 464.875C168.753 463.212 170.441 461.549 172.127 459.882C173.175 458.846 174.225 457.813 175.279 456.783C177.984 454.154 177.984 454.154 180 451Z" fill="#914F40"/>
<path d="M328 9C328.503 16.4732 328.308 22.6654 324 29C318.989 34.7225 313.595 38.751 306 40C302.647 40.2019 299.352 40.189 296 40C296.698 39.3024 297.397 38.6048 298.116 37.886C300.584 35.4184 303.045 32.9446 305.505 30.4694C307.812 28.1493 310.121 25.8318 312.431 23.5144C313.652 22.2884 314.872 21.0615 316.091 19.8337C317.855 18.0574 319.623 16.2843 321.391 14.5117C321.938 13.9587 322.486 13.4057 323.051 12.8359C326.886 9 326.886 9 328 9Z" fill="#914F40"/>
<path d="M205 448C213.451 448.19 218.898 449.994 224.981 455.934C230.075 461.49 232.294 465.624 232.125 473.312C232.107 474.381 232.089 475.45 232.071 476.551C232.047 477.359 232.024 478.167 232 479C226.217 474.197 220.794 469.076 215.445 463.795C214.473 462.839 213.495 461.889 212.513 460.944C211.08 459.566 209.665 458.17 208.25 456.773C207.41 455.953 206.569 455.132 205.703 454.287C204 452 204 452 204.235 449.702C204.487 449.14 204.74 448.579 205 448Z" fill="#A55C4D"/>
<path d="M85.0003 400C93.4512 400.19 98.8977 401.994 104.981 407.934C110.075 413.49 112.294 417.624 112.125 425.312C112.107 426.381 112.089 427.45 112.071 428.551C112.047 429.359 112.024 430.167 112 431C106.217 426.197 100.794 421.076 95.4451 415.795C94.4728 414.839 93.4952 413.889 92.5125 412.944C91.0799 411.566 89.6648 410.17 88.2503 408.773C87.4098 407.953 86.5694 407.132 85.7034 406.287C84.0003 404 84.0003 404 84.2347 401.702C84.4873 401.14 84.74 400.579 85.0003 400Z" fill="#A55C4D"/>
<path d="M153 400C162.127 399.411 169.158 401.43 176.375 407.188C180.726 411.301 183.572 416.108 184.234 422.129C184.25 424.063 184.25 424.063 184 427C182.183 427.647 182.183 427.647 180 428C177.689 426.148 175.743 424.348 173.703 422.227C173.109 421.628 172.516 421.03 171.904 420.413C170.008 418.495 168.129 416.56 166.25 414.625C164.969 413.327 163.686 412.03 162.402 410.734C153 401.195 153 401.195 153 400Z" fill="#A45C4D"/>
<path d="M105.812 351.875C107.276 351.902 107.276 351.902 108.77 351.93C109.506 351.953 110.242 351.976 111 352C106.197 357.783 101.076 363.206 95.7949 368.555C94.8394 369.527 93.8892 370.505 92.9443 371.488C91.5662 372.92 90.1701 374.335 88.7734 375.75C87.5425 377.011 87.5425 377.011 86.2866 378.297C84 380 84 380 81.7017 379.766C81.1401 379.513 80.5786 379.26 80 379C80.2722 370.562 82.7623 364.014 89 358.105C94.3564 353.936 98.9128 351.709 105.812 351.875Z" fill="#A55D4F"/>
<path d="M33 352C41.3498 351.37 49.155 353.472 55.875 358.625C60.1692 362.712 63.4843 368.278 64.3047 374.199C64.3125 376.125 64.3125 376.125 64 379C62.1833 379.647 62.1833 379.647 60 380C57.6885 378.149 55.743 376.348 53.7031 374.227C53.1095 373.628 52.5159 373.03 51.9042 372.414C50.0075 370.495 48.1292 368.56 46.25 366.625C44.9685 365.327 43.686 364.03 42.4023 362.735C33 353.195 33 353.195 33 352Z" fill="#A45D4F"/>
<path d="M30 336C30.66 336 31.32 336 32 336C32.8353 337.361 32.8353 337.361 33.6875 338.75C39.1955 346.491 50.996 350.006 60 352C60.147 352.818 60.147 352.818 60.2969 353.652C61.46 359.518 63.3854 364.631 66 370C64.1719 369.766 64.1719 369.766 62 369C60.5781 367.109 60.5781 367.109 59.25 364.75C55.4819 358.78 51.1535 356.168 44.625 353.75C40.0815 352.81 35.6245 352.38 31 352C30.67 346.72 30.34 341.44 30 336Z" fill="#80A5ED"/>
<path d="M193.125 431.937C195.702 432.473 196.934 432.95 199.062 434.562C200.465 438.209 200.265 441.314 199 445C196.875 447.062 196.875 447.062 194 448C190.223 447.935 187.951 447.828 185.062 445.312C183.639 442.213 183.448 440.378 184 437C186.619 433.153 188.5 431.579 193.125 431.937Z" fill="#8F4E40"/>
<path d="M73.1249 383.937C75.7018 384.473 76.9336 384.95 79.0624 386.562C80.4652 390.209 80.2651 393.314 78.9999 397C76.8749 399.062 76.8749 399.062 73.9999 400C70.2234 399.935 67.9508 399.828 65.0624 397.312C63.6386 394.213 63.4484 392.378 63.9999 389C66.6187 385.153 68.5001 383.579 73.1249 383.937Z" fill="#8F4E40"/>
<path d="M402 361C405.608 363.667 406.803 365.286 408 369.625C408 373 408 373 406.937 374.938C404.021 376.537 402.288 376.516 399 376C395.628 373.964 393.605 372.729 392.297 368.992C391.792 366.016 391.667 363.686 393 360.938C396.312 359.385 398.538 360.045 402 361Z" fill="#F6F7F8"/>
<path d="M222.375 96C226.715 97.1971 228.334 98.3923 231 102C232.62 107.87 232.62 107.87 230.938 110.938C228.073 112.508 226.223 112.451 223 112C219.614 109.845 217.284 107.851 216 104C215.654 101.158 215.645 99.6266 217.063 97.125C219 96 219 96 222.375 96Z" fill="#F6F8F9"/>
<path d="M84 357C86.31 357 88.62 357 91 357C90.6133 357.401 90.2266 357.802 89.8281 358.215C85.6733 362.75 83.206 367.277 81 373C79.68 372.34 78.36 371.68 77 371C79.31 366.38 81.62 361.76 84 357Z" fill="#82A2E7"/>
<path d="M475 272C479.75 272.75 479.75 272.75 482 275C481.625 277.625 481.625 277.625 481 280C476.25 279.25 476.25 279.25 474 277C474.375 274.375 474.375 274.375 475 272Z" fill="#F6F4F2"/>
<path d="M270 464C270.66 464 271.32 464 272 464C272.66 465.65 273.32 467.3 274 469C273.34 469 272.68 469 272 469C272 472.63 272 476.26 272 480C271.67 480 271.34 480 271 480C270.67 474.72 270.34 469.44 270 464Z" fill="#8DAFF3"/>
<path d="M30 336C30.66 336 31.32 336 32 336C32.66 337.65 33.32 339.3 34 341C33.34 341 32.68 341 32 341C32 344.63 32 348.26 32 352C31.67 352 31.34 352 31 352C30.67 346.72 30.34 341.44 30 336Z" fill="#8DAFF3"/>
<path d="M480 464C480.66 464 481.32 464 482 464C481.67 469.28 481.34 474.56 481 480C480.67 480 480.34 480 480 480C479.805 477.709 479.619 475.417 479.437 473.125C479.281 471.211 479.281 471.211 479.121 469.258C479 466 479 466 480 464Z" fill="#8EB0F3"/>
<path d="M240 336C240.66 336 241.32 336 242 336C241.67 341.28 241.34 346.56 241 352C240.67 352 240.34 352 240 352C239.805 349.709 239.619 347.417 239.437 345.125C239.281 343.211 239.281 343.211 239.121 341.258C239 338 239 338 240 336Z" fill="#8EB0F3"/>
</svg>
