<svg width="268" height="239" viewBox="0 0 268 239" fill="none" xmlns="http://www.w3.org/2000/svg">
<path d="M149.77 180.78L221.38 238.52H217.35L134.64 180.78H149.77Z" fill="#292926"/>
<path d="M143.051 180.78L178.431 238.52H174.391L131.031 180.78H143.051Z" fill="#292926"/>
<path d="M125.7 180.78L90.3197 238.52H94.3497L137.72 180.78H125.7Z" fill="#292926"/>
<path d="M119.522 180.78L47.9116 238.52H51.9416L134.642 180.78H119.522Z" fill="#292926"/>
<path d="M0 159.6V142.71L98.34 138.67L150.28 0H269.29L227.18 159.6L126.58 187.84H120.27L0 159.6Z" fill="#292926"/>
<path opacity="0.1" d="M269.29 0H255.67L211.8 145.48L122.8 170.69L0 142.71V159.6L120.27 187.84H126.58L227.18 159.6L269.29 0Z" fill="#292926"/>
</svg>
