<svg width="390" height="331" viewBox="0 0 390 331" fill="none" xmlns="http://www.w3.org/2000/svg">
<path d="M91.9898 147.35C91.9398 148.53 88.9298 149.82 88.0498 150.42C85.4298 152.23 80.3298 157.11 76.9498 154.19C75.4598 152.92 75.2998 150.47 75.0698 148.65C74.6498 145.43 74.4598 142.2 73.9498 138.99C73.8998 138.71 74.2798 138.5 74.4298 138.78C74.5798 139.06 74.5398 139.04 74.6098 139.16C74.6955 139.142 74.7841 139.142 74.8698 139.16C77.6098 140.11 80.5298 140.11 83.2598 141.03C85.3745 141.757 87.3545 142.828 89.1198 144.2C89.9698 144.89 92.0298 146.08 91.9898 147.35Z" fill="#292926"/>
<path d="M141.739 238.71C141.799 239.55 140.609 239.6 140.359 238.89C139.099 235.42 138.809 231.75 138.169 228.14C137.909 229.94 137.619 231.72 137.389 233.52C137.309 234.09 136.389 234.38 136.259 233.68C135.609 229.18 136.039 224.58 135.759 220.06C135.529 216.38 135.539 209.15 132.219 206.43H53.1094C50.8994 206.89 48.8394 207.81 46.6394 208.26C45.6394 208.46 43.8994 208.53 43.3194 207.42C42.7394 206.31 43.9594 204.94 44.5594 204.17C45.9394 202.42 47.6994 201.01 49.0294 199.17C49.0294 199.17 49.0994 199.17 49.1294 199.11L76.1294 153.11L78.8994 155.11L50.1394 203.63H132.139C138.609 203.63 141.379 212.2 141.639 214.86C142.449 222.77 141.189 230.78 141.739 238.71Z" fill="#292926"/>
<g opacity="0.4">
<path d="M91.9898 147.35C91.9398 148.53 88.9298 149.82 88.0498 150.42C85.4298 152.23 80.3298 157.11 76.9498 154.19C75.4598 152.92 75.2998 150.47 75.0698 148.65C74.6498 145.43 74.4598 142.2 73.9498 138.99C73.8998 138.71 74.2798 138.5 74.4298 138.78C74.5798 139.06 74.5398 139.04 74.6098 139.16C74.6955 139.142 74.7841 139.142 74.8698 139.16C77.6098 140.11 80.5298 140.11 83.2598 141.03C85.3745 141.757 87.3545 142.828 89.1198 144.2C89.9698 144.89 92.0298 146.08 91.9898 147.35Z" fill="#292926"/>
<path d="M141.739 238.71C141.799 239.55 140.609 239.6 140.359 238.89C139.099 235.42 138.809 231.75 138.169 228.14C137.909 229.94 137.619 231.72 137.389 233.52C137.309 234.09 136.389 234.38 136.259 233.68C135.609 229.18 136.039 224.58 135.759 220.06C135.529 216.38 135.539 209.15 132.219 206.43H53.1094C50.8994 206.89 48.8394 207.81 46.6394 208.26C45.6394 208.46 43.8994 208.53 43.3194 207.42C42.7394 206.31 43.9594 204.94 44.5594 204.17C45.9394 202.42 47.6994 201.01 49.0294 199.17C49.0294 199.17 49.0994 199.17 49.1294 199.11L76.1294 153.11L78.8994 155.11L50.1394 203.63H132.139C138.609 203.63 141.379 212.2 141.639 214.86C142.449 222.77 141.189 230.78 141.739 238.71Z" fill="#292926"/>
</g>
<path d="M51.5 86.7601C51.11 86.9001 50.7001 87.0201 50.3101 87.1401C50.2712 87.194 50.2239 87.2412 50.17 87.2801C45.6104 90.7669 40.6766 93.7352 35.46 96.1301C35.4573 96.2379 35.4198 96.3418 35.3531 96.4265C35.2864 96.5112 35.1941 96.5721 35.09 96.6001C30.57 98.0201 25.72 94.9901 21.99 92.8201C21.9466 92.798 21.9108 92.7633 21.8876 92.7204C21.8644 92.6775 21.8548 92.6286 21.86 92.5801C21.8191 92.5723 21.7803 92.5559 21.7463 92.5318C21.7123 92.5077 21.6839 92.4765 21.663 92.4405C21.6422 92.4044 21.6293 92.3643 21.6253 92.3228C21.6214 92.2813 21.6264 92.2395 21.64 92.2001C22.28 90.6801 23.38 87.3301 25.05 86.6601C25.5846 86.5395 26.1423 86.5706 26.66 86.7501C28.47 87.0401 30.22 87.4201 32.05 87.5601C38.69 88.1101 44.86 86.5601 51.37 85.8001C51.95 85.7201 51.99 86.5901 51.5 86.7601Z" fill="#292926"/>
<path opacity="0.1" d="M51.5 86.7601C51.11 86.9001 50.7001 87.0201 50.3101 87.1401C50.2712 87.194 50.2239 87.2412 50.17 87.2801C45.6104 90.7669 40.6766 93.7352 35.46 96.1301C35.4573 96.2379 35.4198 96.3418 35.3531 96.4265C35.2864 96.5112 35.1941 96.5721 35.09 96.6001C30.57 98.0201 25.72 94.9901 21.99 92.8201C21.9466 92.798 21.9108 92.7633 21.8876 92.7204C21.8644 92.6775 21.8548 92.6286 21.86 92.5801C21.8191 92.5723 21.7803 92.5559 21.7463 92.5318C21.7123 92.5077 21.6839 92.4765 21.663 92.4405C21.6422 92.4044 21.6293 92.3643 21.6253 92.3228C21.6214 92.2813 21.6264 92.2395 21.64 92.2001C22.28 90.6801 23.38 87.3301 25.05 86.6601C25.5846 86.5395 26.1423 86.5706 26.66 86.7501C28.47 87.0401 30.22 87.4201 32.05 87.5601C38.69 88.1101 44.86 86.5601 51.37 85.8001C51.95 85.7201 51.99 86.5901 51.5 86.7601Z" fill="#292926"/>
<path d="M181.65 24.8701C180.23 25.4501 167.47 34.9601 167.47 34.9601C163.814 35.8481 160.011 35.9537 156.31 35.2701C148.39 33.6601 142.72 25.7901 140.25 25.2701C138.62 24.9401 129.73 37.9101 130.2 46.0401C131.08 61.1301 166.46 89.8101 154.01 113.99C147.33 126.99 129.57 126.26 117.73 133.22C117.73 133.22 129.24 99.9201 122.81 91.9401C123.57 92.6201 130.44 104.75 135.29 100.27C140.74 95.1901 116.74 68.9501 112.59 44.9601C110.89 35.0601 124.97 12.8601 127.21 9.8201C132.05 3.2501 147.12 -0.0199088 157.52 9.11849e-05C166.21 9.11849e-05 169.96 8.8601 174.65 15.4101C177.51 19.4101 181.65 24.8701 181.65 24.8701Z" fill="#292926"/>
<path d="M131.85 121.6C121.66 133.37 103.22 140.87 102.74 141.19C102.05 141.61 98.0699 148.88 97.1099 149.71C96.1499 150.54 94.6299 151.21 92.0199 150.4C89.4099 149.59 82.5499 142.97 80.0799 141.75C77.6099 140.53 71.6999 138.03 71.6999 138.03C71.6999 138.03 66.4799 140.23 62.6399 139.55C58.0483 138.49 53.6167 136.83 49.4599 134.61C45.4599 132.54 35.9199 138.61 31.2299 138.61C30.0099 138.61 26.6899 134.21 26.6899 134.21C24.0072 134.4 21.3367 134.734 18.6899 135.21C17.5299 135.47 14.1599 131.36 14.1599 131.36C14.1599 131.36 2.89989 135.47 1.92989 135.2C0.959887 134.93 -1.07011 131.49 0.699891 129.3C2.46989 127.11 12.1099 119.41 12.1099 119.41C12.1099 119.41 13.0599 111.59 14.1099 110.76C14.6499 110.35 31.1099 96.3901 45.2299 86.6801C59.5099 76.8201 68.4399 66.3601 90.3799 67.6801C118.89 69.4401 134.15 110.6 131.85 121.6Z" fill="#292926"/>
<g opacity="0.2">
<path d="M30.3103 101.08C26.3603 103.85 22.0703 106.57 19.3103 110.62C16.5503 114.67 14.3103 118.99 11.9503 123.28L11.6103 122.99L24.4703 113.58L24.8403 114C21.9303 117.3 18.4003 120.3 16.3903 124.26C15.7703 125.61 15.2003 126.99 14.6503 128.37L14.2503 127.95L31.9303 121.95C34.7799 120.74 37.5607 119.375 40.2603 117.86C42.987 116.387 45.7003 114.87 48.4003 113.31L48.8303 114.02L38.5703 120.5L33.4303 123.74C31.6078 124.684 29.7273 125.513 27.8003 126.22L27.9003 125.39C31.0778 127.305 34.7557 128.224 38.4603 128.03C46.9034 127.344 55.2596 125.837 63.4103 123.53C67.2628 122.01 71.2073 120.734 75.2203 119.71C69.8003 122.57 64.4003 125.71 58.7203 128.05C55.9332 128.973 53.0993 129.747 50.2303 130.37V129.66L57.8603 130.31C62.0703 130.74 66.2903 129.89 70.4503 129.23C72.108 128.938 73.7169 128.417 75.2303 127.68C79.9203 125.68 84.5203 123.44 89.0503 121.1L89.3203 121.54C89.3203 121.54 83.7503 125.54 83.7103 125.54L77.1303 128.64L77.0203 128.28C81.5003 127.66 86.0203 127.36 90.2403 125.67C92.6263 124.863 94.9636 123.918 97.2403 122.84C99.1765 122.428 101.151 122.22 103.13 122.22C100.94 122.49 98.5103 122.22 96.5303 123.3C94.4803 124.24 92.3803 125.08 90.2503 125.85C85.6303 127.76 80.5903 128.03 75.7103 128.85L76.9203 128.26C76.9203 128.26 83.5903 124.99 83.4103 125.09L88.9703 121.09L89.2403 121.54C86.2203 123.127 83.167 124.647 80.0803 126.1C76.9603 127.46 73.9103 129.23 70.5203 129.83C66.3303 130.51 62.0203 131.39 57.7603 130.98L50.1103 130.36L47.8003 130.17L50.0703 129.65C52.9024 129.012 55.6995 128.228 58.4503 127.3C62.9203 125.47 67.1603 123.05 71.4503 120.78L71.7603 121.55C68.0803 122.46 64.6203 124.19 60.9903 125.18C57.3603 126.17 53.5703 126.83 49.8303 127.5C41.8303 128.84 33.8303 130.68 26.5903 125.67C28.7613 124.879 30.8878 123.971 32.9603 122.95L48.4003 113.3L48.8303 114.01C43.3503 117.01 38.0103 120.22 32.1903 122.62L14.4603 128.54L13.8003 128.76C14.5903 126.76 15.3803 124.85 16.3303 122.96C18.6103 119.5 21.6503 116.62 24.4403 113.59L24.8103 114.01L11.8903 123.34L11.0703 123.94L11.5603 123.05C13.9503 118.77 16.3503 114.5 19.1103 110.45C21.8703 106.4 26.3003 103.78 30.3203 101.06L30.3103 101.08Z" fill="#292926"/>
<path d="M47.6504 106.05C45.8104 107.39 43.9604 108.74 42.2304 110.21C40.5729 111.765 39.2168 113.612 38.2304 115.66L37.9804 115.29C45.1704 114.6 51.9803 112.29 58.9203 110.37L61.4404 109.68L59.3204 111.19L50.8104 117.05L50.5504 116.18C51.8204 116.18 57.8304 116.18 58.9604 116.18C60.5919 116.054 62.1924 115.665 63.7004 115.03C67.8804 113.48 71.9704 111.59 75.9904 109.63L76.4304 110.37L68.8204 115.5L68.7204 114.86C70.5753 115.405 72.4969 115.691 74.4304 115.71C80.1904 115.24 85.8004 111.71 91.7104 112.83C85.7104 112.04 80.3504 115.71 74.4504 116.29C72.1932 116.312 69.9453 115.999 67.7803 115.36L68.4203 114.91L75.9404 109.66L76.3804 110.4C72.3804 112.4 68.2703 114.33 64.0303 115.93C62.4391 116.605 60.752 117.026 59.0303 117.18H57.3404H49.0404L58.8604 110.51L59.2304 111.3C55.7504 112.3 52.2804 113.18 48.7904 114.09C45.1179 114.994 41.3795 115.606 37.6104 115.92C38.733 113.715 40.2516 111.735 42.0904 110.08C43.8904 108.65 45.7804 107.38 47.6904 106.13L47.6504 106.05Z" fill="#292926"/>
</g>
<path opacity="0.7" d="M162.26 35.66C162.417 34.8817 162.408 34.0792 162.236 33.3042C162.064 32.5292 161.732 31.7988 161.26 31.16C160.65 30.32 158.45 30.23 156.59 29.04C156.01 28.6334 155.519 28.1134 155.146 27.5117C154.773 26.9099 154.526 26.2387 154.419 25.5387C154.312 24.8387 154.349 24.1243 154.526 23.4388C154.703 22.7532 155.018 22.1107 155.45 21.55C155.9 21.0104 156.458 20.5716 157.089 20.2622C157.719 19.9528 158.408 19.7797 159.11 19.7543C159.812 19.7288 160.511 19.8515 161.163 20.1144C161.814 20.3773 162.403 20.7744 162.89 21.28C164.33 22.95 163.96 24.17 164.56 24.87C165.16 25.57 166.89 24.87 166.89 24.87L162.26 35.66Z" fill="#292926"/>
<path d="M161.85 26.0104C161.553 26.5582 161.1 27.0058 160.549 27.2965C159.998 27.5871 159.374 27.7079 158.754 27.6435C158.134 27.579 157.548 27.3323 157.068 26.9344C156.589 26.5366 156.238 26.0055 156.06 25.4084C155.883 24.8112 155.886 24.1748 156.07 23.5796C156.254 22.9844 156.611 22.4572 157.095 22.0646C157.578 21.672 158.168 21.4316 158.788 21.3739C159.408 21.3162 160.032 21.4437 160.58 21.7404C160.943 21.9374 161.265 22.2041 161.525 22.5252C161.786 22.8464 161.981 23.2158 162.099 23.6123C162.217 24.0089 162.256 24.4247 162.213 24.8362C162.17 25.2476 162.047 25.6466 161.85 26.0104Z" fill="#292926"/>
<path d="M176.74 68.0297C175.74 67.6997 178.74 57.2397 177.82 54.8297C175.362 48.2567 171.245 42.4313 165.87 37.9197C164.722 37.0927 163.523 36.3379 162.28 35.6597C162.28 35.6597 163.62 27.0497 167.14 24.6597C169.04 23.3797 180.45 24.5097 181.67 24.8597C181.67 24.8597 190.37 45.5697 189.44 51.9697C188.28 59.8197 177.74 68.3497 176.74 68.0297Z" fill="#292926"/>
<path opacity="0.7" d="M176.74 68.0297C175.74 67.6997 178.74 57.2397 177.82 54.8297C175.362 48.2567 171.245 42.4313 165.87 37.9197C164.722 37.0927 163.523 36.3379 162.28 35.6597C162.28 35.6597 163.62 27.0497 167.14 24.6597C169.04 23.3797 180.45 24.5097 181.67 24.8597C181.67 24.8597 190.37 45.5697 189.44 51.9697C188.28 59.8197 177.74 68.3497 176.74 68.0297Z" fill="#292926"/>
<path d="M176.74 68.03C175.74 67.7 178.74 57.25 177.82 54.83C176.835 52.244 175.602 49.7592 174.14 47.41C175.686 48.7128 177.013 50.2559 178.07 51.98C178.91 53.42 179.99 55.87 181.2 56.98C183.81 59.29 186.55 56.72 188.2 52.83C188.78 51.0411 189.071 49.1708 189.06 47.29C189.413 48.8402 189.528 50.4353 189.4 52.02C188.29 59.83 177.74 68.36 176.74 68.03Z" fill="#292926"/>
<path d="M164.63 31.75C165.088 33.3533 165.761 34.8872 166.63 36.31C168.76 38.84 171.71 40.69 173.63 43.46C176.061 46.9162 177.949 50.7235 179.23 54.75C179.38 57.34 178.11 59.68 177.55 62.14C177.026 63.7288 176.667 65.3675 176.48 67.03C176.53 62.9 178.83 58.73 178.81 54.83C177.48 50.897 175.616 47.1654 173.27 43.74C171.35 40.97 168.46 39.06 166.4 36.44C165.59 34.9646 164.981 33.3872 164.59 31.75H164.63Z" fill="#292926"/>
<path d="M133.649 305.8C129.858 306.582 125.989 306.918 122.119 306.8C123.495 308.032 124.732 309.41 125.809 310.91C125.873 311.014 125.904 311.134 125.898 311.255C125.891 311.376 125.849 311.492 125.775 311.589C125.701 311.685 125.6 311.757 125.485 311.795C125.37 311.832 125.246 311.834 125.129 311.8C113.709 307.44 101.559 302.02 89.0095 302.8C88.8969 302.793 88.7885 302.755 88.6963 302.69C88.6041 302.625 88.5317 302.536 88.4871 302.432C88.4426 302.329 88.4276 302.215 88.4439 302.103C88.4602 301.992 88.5071 301.887 88.5794 301.8C90.5794 299.95 92.5794 298.17 93.3294 295.49L91.9795 150.49H95.9095V233.71C96.9095 235.71 98.0595 237.6 98.2395 239.85C98.4495 242.47 96.9095 244.7 95.9095 247.05V296.33C106.119 301.6 124.419 301.14 130.579 300.54C130.693 300.547 130.802 300.59 130.891 300.662C130.98 300.733 131.044 300.831 131.074 300.941C131.105 301.051 131.101 301.167 131.063 301.275C131.024 301.382 130.953 301.475 130.859 301.54C129.496 302.286 128.075 302.922 126.609 303.44C128.959 303.78 131.309 304.16 133.609 304.53C134.339 304.57 134.279 305.66 133.649 305.8Z" fill="#292926"/>
<path opacity="0.3" d="M133.649 305.8C129.858 306.582 125.989 306.918 122.119 306.8C123.495 308.032 124.732 309.41 125.809 310.91C125.873 311.014 125.904 311.134 125.898 311.255C125.891 311.376 125.849 311.492 125.775 311.589C125.701 311.685 125.6 311.757 125.485 311.795C125.37 311.832 125.246 311.834 125.129 311.8C113.709 307.44 101.559 302.02 89.0095 302.8C88.8969 302.793 88.7885 302.755 88.6963 302.69C88.6041 302.625 88.5317 302.536 88.4871 302.432C88.4426 302.329 88.4276 302.215 88.4439 302.103C88.4602 301.992 88.5071 301.887 88.5794 301.8C90.5794 299.95 92.5794 298.17 93.3294 295.49L91.9795 150.49H95.9095V233.71C96.9095 235.71 98.0595 237.6 98.2395 239.85C98.4495 242.47 96.9095 244.7 95.9095 247.05V296.33C106.119 301.6 124.419 301.14 130.579 300.54C130.693 300.547 130.802 300.59 130.891 300.662C130.98 300.733 131.044 300.831 131.074 300.941C131.105 301.051 131.101 301.167 131.063 301.275C131.024 301.382 130.953 301.475 130.859 301.54C129.496 302.286 128.075 302.922 126.609 303.44C128.959 303.78 131.309 304.16 133.609 304.53C134.339 304.57 134.279 305.66 133.649 305.8Z" fill="#292926"/>
<path opacity="0.1" d="M156.63 101.82C154.9 88.6301 132.08 58.9501 127.63 50.6801C125.84 47.3601 125.41 41.14 130.32 30.97C135.23 20.8 136.96 21.1601 140.22 25.2901C138.6 24.9501 129.72 37.92 130.22 46.06C130.94 58.68 155.74 80.8001 156.63 101.82Z" fill="#292926"/>
<path opacity="0.1" d="M146.129 122.19C137.809 127.19 126.249 128.19 117.739 133.19C112.931 136.201 107.919 138.875 102.739 141.19C102.049 141.61 98.0695 148.88 97.1095 149.71C96.1495 150.54 94.6295 151.21 92.0195 150.4C89.4095 149.59 82.5495 142.97 80.0795 141.75C77.6095 140.53 71.6995 138.03 71.6995 138.03C71.6995 138.03 66.4794 140.23 62.6395 139.55C58.0479 138.49 53.6163 136.829 49.4595 134.61C45.4595 132.54 35.9195 138.61 31.2295 138.61C30.0095 138.61 26.6895 134.22 26.6895 134.22C24.0068 134.41 21.3363 134.744 18.6895 135.22C17.5895 135.47 14.5595 131.85 14.1895 131.41C15.2382 132.719 16.7625 133.561 18.4295 133.75C19.3295 133.81 25.9195 132.14 26.8995 132.09C27.8795 132.04 30.2295 137.53 31.1895 137.59C32.1495 137.65 48.3095 131.43 49.2695 131.37C50.2295 131.31 62.3395 138.93 63.8795 138.64C65.4195 138.35 71.4494 135.87 72.6694 135.8C73.8894 135.73 90.4495 141.8 92.5595 141.95C94.6695 142.1 102.279 138.49 103.149 137.95C104.019 137.41 111.579 135.57 112.459 135C112.899 134.71 115.519 133 118.359 131.35C120.623 129.913 123.009 128.678 125.489 127.66C128.379 126.82 139.439 126.13 146.129 122.19Z" fill="#292926"/>
<path d="M292.917 194.136C292.97 195.082 296.147 196.116 297.076 196.597C299.841 198.048 305.223 201.96 308.79 199.619C310.363 198.601 310.531 196.637 310.774 195.178C311.217 192.596 311.418 190.007 311.956 187.433C312.009 187.209 311.608 187.04 311.45 187.265C311.291 187.489 311.334 187.473 311.26 187.569C311.169 187.555 311.076 187.555 310.985 187.569C308.094 188.331 305.012 188.331 302.131 189.069C299.899 189.651 297.809 190.51 295.946 191.61C295.049 192.163 292.875 193.117 292.917 194.136Z" fill="#292926"/>
<path d="M335.648 145.558C336.059 145.671 336.492 145.767 336.904 145.863C336.945 145.906 336.995 145.944 337.051 145.975C341.863 148.771 347.07 151.151 352.576 153.071C352.579 153.157 352.618 153.24 352.689 153.308C352.759 153.376 352.856 153.425 352.966 153.448C357.736 154.586 362.855 152.157 366.791 150.417C366.837 150.399 366.875 150.371 366.9 150.337C366.924 150.303 366.934 150.263 366.929 150.225C366.972 150.218 367.013 150.205 367.049 150.186C367.085 150.166 367.115 150.142 367.137 150.113C367.159 150.084 367.172 150.052 367.176 150.018C367.181 149.985 367.175 149.951 367.161 149.92C366.485 148.701 365.325 146.015 363.562 145.478C362.998 145.382 362.409 145.407 361.863 145.55C359.953 145.783 358.106 146.088 356.175 146.2C349.167 146.641 342.655 145.398 335.785 144.789C335.173 144.725 335.131 145.422 335.648 145.558Z" fill="#292926"/>
<path opacity="0.1" d="M335.648 145.558C336.059 145.671 336.492 145.767 336.904 145.863C336.945 145.906 336.995 145.944 337.051 145.975C341.863 148.771 347.07 151.151 352.576 153.071C352.579 153.157 352.618 153.24 352.689 153.308C352.759 153.376 352.856 153.425 352.966 153.448C357.736 154.586 362.855 152.157 366.791 150.417C366.837 150.399 366.875 150.371 366.9 150.337C366.924 150.303 366.934 150.263 366.929 150.225C366.972 150.218 367.013 150.205 367.049 150.186C367.085 150.166 367.115 150.142 367.137 150.113C367.159 150.084 367.172 150.052 367.176 150.018C367.181 149.985 367.175 149.951 367.161 149.92C366.485 148.701 365.325 146.015 363.562 145.478C362.998 145.382 362.409 145.407 361.863 145.55C359.953 145.783 358.106 146.088 356.175 146.2C349.167 146.641 342.655 145.398 335.785 144.789C335.173 144.725 335.131 145.422 335.648 145.558Z" fill="#292926"/>
<path d="M198.295 95.9392C199.794 96.4042 213.26 104.029 213.26 104.029C217.119 104.741 221.133 104.825 225.038 104.277C233.396 102.986 239.38 96.6768 241.987 96.2599C243.707 95.9953 253.089 106.394 252.593 112.912C251.665 125.01 214.326 148.004 227.465 167.39C234.515 177.812 253.258 177.227 265.754 182.807C265.754 182.807 253.606 156.109 260.392 149.711C259.59 150.257 252.34 159.982 247.222 156.39C241.47 152.317 266.799 131.28 271.178 112.046C272.972 104.109 258.113 86.3104 255.749 83.8731C250.641 78.6057 234.737 75.984 223.761 76.0001C214.59 76.0001 210.632 83.1034 205.683 88.3548C202.664 91.5617 198.295 95.9392 198.295 95.9392Z" fill="#292926"/>
<path d="M250.851 173.491C261.605 182.928 281.066 188.941 281.572 189.197C282.301 189.534 286.501 195.362 287.514 196.028C288.527 196.693 290.131 197.23 292.886 196.581C295.64 195.932 302.88 190.624 305.487 189.646C308.094 188.668 314.331 186.664 314.331 186.664C314.331 186.664 319.84 188.427 323.892 187.882C328.738 187.033 333.415 185.701 337.802 183.922C342.023 182.262 352.092 187.129 357.041 187.129C358.329 187.129 361.833 183.601 361.833 183.601C364.664 183.753 367.482 184.021 370.275 184.403C371.5 184.611 375.056 181.316 375.056 181.316C375.056 181.316 386.94 184.611 387.963 184.395C388.987 184.178 391.129 181.42 389.261 179.664C387.393 177.909 377.22 171.735 377.22 171.735C377.22 171.735 376.217 165.466 375.109 164.8C374.539 164.472 357.168 153.279 342.266 145.495C327.196 137.59 317.771 129.203 294.617 130.262C264.528 131.673 248.424 164.672 250.851 173.491Z" fill="#292926"/>
<g opacity="0.2">
<path d="M358.012 157.039C362.181 159.26 366.708 161.44 369.621 164.688C372.534 167.935 374.898 171.398 377.389 174.837L377.747 174.605L364.176 167.061L363.785 167.397C366.856 170.043 370.582 172.448 372.703 175.623C373.357 176.706 373.959 177.812 374.539 178.918L374.961 178.582L356.303 173.771C353.295 172.801 350.36 171.707 347.511 170.492C344.634 169.311 341.77 168.095 338.921 166.844L338.467 167.413L349.295 172.609L354.72 175.206C356.643 175.963 358.627 176.628 360.661 177.195L360.556 176.529C357.202 178.064 353.321 178.801 349.411 178.646C340.501 178.096 331.682 176.888 323.08 175.038C319.014 173.819 314.851 172.796 310.616 171.975C316.336 174.268 322.035 176.786 328.029 178.662C330.971 179.401 333.962 180.022 336.989 180.522V179.953L328.937 180.474C324.494 180.818 320.04 180.137 315.65 179.608C313.901 179.374 312.203 178.956 310.605 178.365C305.656 176.762 300.801 174.966 296.02 173.09L295.735 173.442C295.735 173.442 301.614 176.649 301.656 176.649L308.6 179.135L308.716 178.846C303.988 178.349 299.218 178.109 294.764 176.754C292.246 176.106 289.78 175.349 287.377 174.485C285.334 174.154 283.25 173.987 281.161 173.988C283.472 174.204 286.037 173.988 288.126 174.853C290.29 175.607 292.506 176.281 294.754 176.898C299.63 178.429 304.949 178.646 310.099 179.303L308.822 178.83C308.822 178.83 301.783 176.208 301.973 176.289L296.105 173.082L295.82 173.442C299.007 174.715 302.229 175.933 305.487 177.098C308.78 178.189 311.999 179.608 315.576 180.089C319.998 180.634 324.547 181.34 329.043 181.011L337.116 180.514L339.554 180.361L337.158 179.944C334.169 179.433 331.218 178.804 328.314 178.06C323.597 176.593 319.122 174.653 314.595 172.833L314.268 173.45C318.151 174.18 321.803 175.567 325.634 176.361C329.465 177.154 333.465 177.684 337.412 178.221C345.854 179.295 354.297 180.77 361.938 176.754C359.647 176.12 357.403 175.392 355.216 174.573L338.921 166.836L338.467 167.405C344.25 169.811 349.886 172.384 356.028 174.308L374.74 179.055L375.436 179.231C374.603 177.627 373.769 176.096 372.766 174.581C370.36 171.807 367.152 169.498 364.207 167.069L363.817 167.405L377.452 174.886L378.317 175.367L377.8 174.653C375.278 171.222 372.745 167.798 369.832 164.551C366.919 161.304 362.244 159.204 358.002 157.023L358.012 157.039Z" fill="#292926"/>
<path d="M339.712 161.023C341.654 162.098 343.606 163.18 345.432 164.359C347.181 165.605 348.612 167.087 349.653 168.728L349.917 168.431C342.329 167.878 335.142 166.026 327.818 164.487L325.158 163.934L327.396 165.144L336.377 169.843L336.651 169.145C335.311 169.145 328.968 169.145 327.776 169.145C326.054 169.044 324.365 168.733 322.773 168.223C318.362 166.98 314.045 165.465 309.803 163.894L309.339 164.487L317.37 168.6L317.475 168.087C315.518 168.524 313.49 168.753 311.449 168.768C305.37 168.391 299.45 165.561 293.213 166.459C299.545 165.826 305.201 168.768 311.428 169.233C313.81 169.251 316.183 169 318.467 168.488L317.792 168.127L309.856 163.918L309.391 164.511C313.613 166.114 317.95 167.662 322.425 168.945C324.104 169.486 325.885 169.824 327.702 169.947H329.485H338.245L327.881 164.599L327.491 165.233C331.163 166.034 334.825 166.74 338.509 167.469C342.384 168.194 346.33 168.685 350.308 168.937C349.123 167.169 347.52 165.582 345.58 164.254C343.68 163.108 341.685 162.09 339.67 161.088L339.712 161.023Z" fill="#292926"/>
</g>
<path opacity="0.7" d="M218.759 104.59C218.593 103.966 218.602 103.322 218.784 102.701C218.965 102.08 219.316 101.494 219.814 100.982C220.458 100.308 222.779 100.236 224.742 99.2823C225.354 98.9563 225.873 98.5394 226.266 98.057C226.66 97.5745 226.921 97.0364 227.034 96.4752C227.146 95.9139 227.108 95.3412 226.921 94.7916C226.734 94.242 226.402 93.7268 225.946 93.2773C225.471 92.8447 224.882 92.4929 224.216 92.2448C223.551 91.9968 222.824 91.858 222.083 91.8376C221.342 91.8172 220.604 91.9155 219.917 92.1263C219.229 92.3371 218.608 92.6555 218.094 93.0608C216.574 94.3997 216.964 95.3778 216.331 95.939C215.698 96.5003 213.872 95.939 213.872 95.939L218.759 104.59Z" fill="#292926"/>
<path d="M219.19 96.8531C219.503 97.2923 219.98 97.6511 220.562 97.8842C221.144 98.1172 221.803 98.214 222.457 98.1624C223.111 98.1107 223.73 97.9129 224.236 97.5939C224.742 97.275 225.112 96.8492 225.3 96.3704C225.487 95.8917 225.483 95.3814 225.289 94.9043C225.095 94.4271 224.719 94.0044 224.208 93.6896C223.698 93.3748 223.076 93.1821 222.421 93.1359C221.766 93.0896 221.108 93.1918 220.53 93.4297C220.146 93.5876 219.807 93.8014 219.532 94.0589C219.257 94.3164 219.051 94.6126 218.927 94.9305C218.802 95.2484 218.761 95.5818 218.807 95.9117C218.852 96.2415 218.982 96.5614 219.19 96.8531Z" fill="#292926"/>
<path d="M203.477 130.541C204.532 130.277 201.366 121.891 202.337 119.958C204.931 114.689 209.276 110.018 214.949 106.401C216.161 105.738 217.426 105.133 218.737 104.589C218.737 104.589 217.323 97.6863 213.608 95.7702C211.603 94.744 199.561 95.6499 198.274 95.9305C198.274 95.9305 189.092 112.534 190.074 117.666C191.298 123.959 202.421 130.798 203.477 130.541Z" fill="#292926"/>
<path opacity="0.7" d="M203.477 130.541C204.532 130.277 201.366 121.891 202.337 119.958C204.931 114.689 209.276 110.018 214.949 106.401C216.161 105.738 217.426 105.133 218.737 104.589C218.737 104.589 217.323 97.6863 213.608 95.7702C211.603 94.744 199.561 95.6499 198.274 95.9305C198.274 95.9305 189.092 112.534 190.074 117.666C191.298 123.959 202.421 130.798 203.477 130.541Z" fill="#292926"/>
<path d="M203.476 130.542C204.531 130.277 201.365 121.899 202.336 119.959C203.376 117.886 204.676 115.894 206.22 114.01C204.588 115.055 203.187 116.292 202.072 117.674C201.186 118.829 200.046 120.793 198.769 121.683C196.014 123.535 193.123 121.474 191.381 118.356C190.769 116.921 190.462 115.422 190.474 113.914C190.101 115.157 189.98 116.436 190.115 117.706C191.286 123.968 202.42 130.807 203.476 130.542Z" fill="#292926"/>
<path d="M216.256 101.455C215.772 102.74 215.062 103.97 214.145 105.111C211.897 107.139 208.784 108.623 206.757 110.843C204.192 113.614 202.199 116.667 200.847 119.895C200.689 121.971 202.029 123.847 202.62 125.82C203.174 127.094 203.552 128.407 203.75 129.74C203.697 126.429 201.27 123.086 201.291 119.959C202.694 116.806 204.661 113.814 207.137 111.068C209.164 108.847 212.214 107.316 214.388 105.215C215.243 104.032 215.885 102.768 216.298 101.455H216.256Z" fill="#292926"/>
<path d="M248.952 321.17C252.953 321.797 257.037 322.066 261.12 321.972C259.669 322.959 258.363 324.064 257.226 325.267C257.159 325.35 257.127 325.446 257.133 325.543C257.14 325.64 257.185 325.734 257.262 325.811C257.34 325.888 257.447 325.946 257.568 325.976C257.69 326.006 257.821 326.008 257.944 325.98C269.996 322.485 282.819 318.139 296.063 318.765C296.182 318.759 296.297 318.729 296.394 318.677C296.491 318.624 296.568 318.553 296.615 318.47C296.662 318.387 296.677 318.295 296.66 318.206C296.643 318.117 296.594 318.032 296.517 317.963C294.406 316.48 292.296 315.053 291.504 312.904L292.929 196.653H288.781V263.373C287.726 264.977 286.512 266.492 286.322 268.296C286.101 270.396 287.726 272.184 288.781 274.068V313.578C278.006 317.803 258.693 317.434 252.192 316.953C252.072 316.959 251.957 316.993 251.863 317.05C251.77 317.108 251.702 317.186 251.67 317.274C251.637 317.362 251.642 317.456 251.682 317.542C251.723 317.628 251.798 317.702 251.897 317.755C253.335 318.353 254.835 318.862 256.382 319.278C253.902 319.55 251.422 319.855 248.994 320.152C248.224 320.184 248.287 321.058 248.952 321.17Z" fill="#292926"/>
<path opacity="0.3" d="M248.952 321.17C252.953 321.797 257.037 322.066 261.12 321.972C259.669 322.959 258.363 324.064 257.226 325.267C257.159 325.35 257.127 325.446 257.133 325.543C257.14 325.64 257.185 325.734 257.262 325.811C257.34 325.888 257.447 325.946 257.568 325.976C257.69 326.006 257.821 326.008 257.944 325.98C269.996 322.485 282.819 318.139 296.063 318.765C296.182 318.759 296.297 318.729 296.394 318.677C296.491 318.624 296.568 318.553 296.615 318.47C296.662 318.387 296.677 318.295 296.66 318.206C296.643 318.117 296.594 318.032 296.517 317.963C294.406 316.48 292.296 315.053 291.504 312.904L292.929 196.653H288.781V263.373C287.726 264.977 286.512 266.492 286.322 268.296C286.101 270.396 287.726 272.184 288.781 274.068V313.578C278.006 317.803 258.693 317.434 252.192 316.953C252.072 316.959 251.957 316.993 251.863 317.05C251.77 317.108 251.702 317.186 251.67 317.274C251.637 317.362 251.642 317.456 251.682 317.542C251.723 317.628 251.798 317.702 251.897 317.755C253.335 318.353 254.835 318.862 256.382 319.278C253.902 319.55 251.422 319.855 248.994 320.152C248.224 320.184 248.287 321.058 248.952 321.17Z" fill="#292926"/>
<path opacity="0.1" d="M224.698 157.632C226.523 147.057 250.607 123.262 255.303 116.631C257.192 113.97 257.646 108.983 252.464 100.829C247.282 92.6756 245.456 92.9643 242.016 96.2754C243.726 96.0028 253.097 106.401 252.57 112.927C251.81 123.045 225.637 140.78 224.698 157.632Z" fill="#292926"/>
<path opacity="0.1" d="M235.781 173.964C244.562 177.973 256.762 178.774 265.743 182.783C270.817 185.197 276.107 187.34 281.573 189.197C282.301 189.534 286.502 195.362 287.515 196.028C288.528 196.693 290.132 197.23 292.887 196.581C295.641 195.931 302.881 190.624 305.488 189.646C308.094 188.668 314.332 186.663 314.332 186.663C314.332 186.663 319.841 188.427 323.893 187.882C328.739 187.032 333.416 185.701 337.803 183.921C342.024 182.262 352.092 187.128 357.042 187.128C358.33 187.128 361.833 183.609 361.833 183.609C364.665 183.761 367.483 184.028 370.276 184.41C371.437 184.611 374.635 181.709 375.025 181.356C373.919 182.406 372.31 183.08 370.551 183.232C369.601 183.28 362.646 181.941 361.612 181.901C360.577 181.861 358.097 186.262 357.084 186.311C356.071 186.359 339.016 181.372 338.003 181.324C336.99 181.276 324.21 187.385 322.585 187.152C320.959 186.92 314.595 184.932 313.308 184.875C312.02 184.819 294.544 189.686 292.317 189.806C290.09 189.926 282.059 187.032 281.14 186.599C280.222 186.166 272.244 184.691 271.315 184.234C270.851 184.002 268.086 182.631 265.088 181.308C262.699 180.156 260.181 179.166 257.564 178.349C254.514 177.676 242.841 177.123 235.781 173.964Z" fill="#292926"/>
<path opacity="0.3" d="M273.418 324.183C276.653 324.808 279.956 325.077 283.257 324.983C282.083 325.968 281.028 327.07 280.108 328.269C280.054 328.352 280.028 328.448 280.033 328.545C280.039 328.641 280.075 328.734 280.138 328.812C280.201 328.889 280.287 328.946 280.385 328.976C280.484 329.006 280.589 329.008 280.689 328.981C290.434 325.494 300.802 321.161 311.512 321.784C311.608 321.779 311.7 321.748 311.779 321.696C311.858 321.644 311.92 321.573 311.958 321.49C311.996 321.407 312.008 321.316 311.995 321.227C311.981 321.138 311.941 321.054 311.879 320.985C310.172 319.506 308.465 318.082 307.825 315.939L308.977 200H305.624V266.541C304.77 268.14 303.789 269.652 303.635 271.451C303.456 273.546 304.77 275.329 305.624 277.208V316.611C296.911 320.825 281.295 320.457 276.038 319.977C275.941 319.983 275.848 320.017 275.772 320.074C275.697 320.132 275.642 320.21 275.616 320.298C275.589 320.385 275.593 320.479 275.626 320.565C275.659 320.651 275.719 320.725 275.799 320.777C276.963 321.374 278.175 321.882 279.426 322.296C277.42 322.568 275.415 322.872 273.452 323.168C272.829 323.2 272.881 324.071 273.418 324.183Z" fill="#292926"/>
<path opacity="0.3" d="M248.952 321.17C252.953 321.797 257.037 322.066 261.12 321.972C259.669 322.959 258.363 324.064 257.226 325.267C257.159 325.35 257.127 325.446 257.133 325.543C257.14 325.64 257.185 325.734 257.262 325.811C257.34 325.888 257.447 325.946 257.568 325.976C257.69 326.006 257.821 326.008 257.944 325.98C269.996 322.485 282.819 318.139 296.063 318.765C296.182 318.759 296.297 318.729 296.394 318.677C296.491 318.624 296.568 318.553 296.615 318.47C296.662 318.387 296.677 318.295 296.66 318.206C296.643 318.117 296.594 318.032 296.517 317.963C294.406 316.48 292.296 315.053 291.504 312.904L292.929 196.653H288.781V263.373C287.726 264.977 286.512 266.492 286.322 268.296C286.101 270.396 287.726 272.184 288.781 274.068V313.578C278.006 317.803 258.693 317.434 252.192 316.953C252.072 316.959 251.957 316.993 251.863 317.05C251.77 317.108 251.702 317.186 251.67 317.274C251.637 317.362 251.642 317.456 251.682 317.542C251.723 317.628 251.798 317.702 251.897 317.755C253.335 318.353 254.835 318.862 256.382 319.278C253.902 319.55 251.422 319.855 248.994 320.152C248.224 320.184 248.287 321.058 248.952 321.17Z" fill="#292926"/>
<path d="M266.49 324.31C270.281 325.092 274.151 325.428 278.02 325.31C276.645 326.542 275.407 327.92 274.33 329.42C274.267 329.523 274.236 329.643 274.242 329.765C274.248 329.886 274.291 330.002 274.365 330.099C274.438 330.195 274.539 330.267 274.655 330.304C274.77 330.342 274.894 330.344 275.01 330.31C286.43 325.95 298.58 320.53 311.13 321.31C311.243 321.303 311.351 321.265 311.443 321.2C311.536 321.135 311.608 321.046 311.653 320.942C311.697 320.839 311.712 320.725 311.696 320.613C311.679 320.501 311.633 320.397 311.56 320.31C309.56 318.46 307.56 316.68 306.81 314L308.16 169H304.23V252.22C303.23 254.22 302.08 256.11 301.9 258.36C301.69 260.98 303.23 263.21 304.23 265.56V314.84C294.02 320.11 275.72 319.65 269.56 319.05C269.446 319.057 269.338 319.1 269.249 319.171C269.16 319.243 269.096 319.341 269.065 319.451C269.034 319.56 269.039 319.677 269.077 319.785C269.116 319.892 269.187 319.985 269.28 320.05C270.644 320.796 272.065 321.432 273.53 321.95C271.18 322.29 268.83 322.67 266.53 323.04C265.8 323.08 265.86 324.17 266.49 324.31Z" fill="#292926"/>
<path opacity="0.3" d="M265.517 324.517C269.519 325.144 273.602 325.413 277.686 325.319C276.234 326.307 274.928 327.411 273.792 328.614C273.724 328.697 273.692 328.793 273.699 328.89C273.705 328.987 273.75 329.081 273.828 329.158C273.905 329.235 274.012 329.293 274.134 329.323C274.255 329.353 274.386 329.355 274.509 329.328C286.561 325.832 299.384 321.487 312.629 322.112C312.748 322.106 312.862 322.076 312.959 322.024C313.057 321.972 313.133 321.9 313.18 321.817C313.227 321.734 313.243 321.643 313.226 321.553C313.208 321.464 313.159 321.38 313.083 321.31C310.972 319.827 308.861 318.4 308.07 316.251L309.494 200H305.347V266.72C304.291 268.324 303.078 269.839 302.888 271.643C302.666 273.743 304.291 275.531 305.347 277.415L305.347 316.925C294.572 321.15 275.258 320.781 268.757 320.3C268.637 320.306 268.522 320.34 268.429 320.397C268.335 320.455 268.268 320.533 268.235 320.621C268.203 320.709 268.207 320.803 268.248 320.889C268.288 320.975 268.363 321.049 268.462 321.102C269.901 321.7 271.401 322.209 272.947 322.625C270.467 322.898 267.987 323.202 265.56 323.499C264.789 323.531 264.853 324.405 265.517 324.517Z" fill="#292926"/>
</svg>
