<svg width="215" height="149" viewBox="0 0 215 149" fill="none" xmlns="http://www.w3.org/2000/svg">
<path d="M214.396 114.343H0V131.226H214.396V114.343Z" fill="#292926"/>
<path d="M143.597 70.1292L112.187 70.8969L80.7761 70.1292C80.7761 70.1292 69.4649 107.366 75.8748 116.968C81.2161 124.97 97.3898 126.492 109.029 126.778V126.844C110.002 126.844 111.063 126.841 112.188 126.831C113.312 126.841 114.375 126.844 115.348 126.844V126.778C126.987 126.492 143.16 124.97 148.502 116.968C154.911 107.366 143.6 70.1292 143.6 70.1292H143.597Z" fill="#292926"/>
<path opacity="0.3" d="M143.597 70.1292L112.187 70.8969L80.7761 70.1292C80.7761 70.1292 69.4649 107.366 75.8748 116.968C81.2161 124.97 97.3898 126.492 109.029 126.778V126.844C110.002 126.844 111.063 126.841 112.188 126.831C113.312 126.841 114.375 126.844 115.348 126.844V126.778C126.987 126.492 143.16 124.97 148.502 116.968C154.911 107.366 143.6 70.1292 143.6 70.1292H143.597Z" fill="#292926"/>
<path d="M143.049 70.4032C143.049 71.7471 129.01 72.8351 111.693 72.8351C94.3755 72.8351 80.3359 71.7456 80.3359 70.4032C80.3359 69.0607 94.3755 67.9712 111.693 67.9712C129.01 67.9712 143.049 69.0607 143.049 70.4032Z" fill="#292926"/>
<path d="M95.9147 97.6905C96.0434 97.8761 96.443 97.3643 96.3771 97.1338C96.3682 97.1039 96.3487 97.1862 96.2469 97.0874C96.0958 96.9407 95.7052 96.845 95.5181 96.7477C94.671 96.3047 93.8644 95.7809 93.0742 95.2451C90.7694 93.6812 88.5918 91.8987 86.6403 89.9097C84.7396 87.9716 82.8045 85.6804 82.0712 83.0074C81.1343 79.5877 83.5064 77.25 85.9384 75.1488C90.5973 71.1259 97.4771 69.1115 102.95 72.7917C103.552 73.1957 104.113 72.2245 103.517 71.8219C98.3766 68.3662 91.7287 69.5366 86.9067 72.9698C83.909 75.1039 80.2124 78.1944 80.7811 82.2801C81.2271 85.4828 83.5004 88.2754 85.675 90.5248C87.9827 92.9104 90.6242 95.0371 93.4258 96.8165C94.1981 97.3074 95.1275 97.9943 96.0404 98.1979C96.7498 98.355 97.3754 97.8252 96.886 97.1233C96.4759 96.5352 95.5016 97.0949 95.9162 97.6905H95.9147Z" fill="#292926"/>
<path d="M116.424 71.4283C114.313 58.5681 127.501 49.7995 137.855 45.8141C148.564 41.6925 160.724 41.2644 171.214 46.281C176.692 48.9001 181.449 52.8331 184.863 57.8677C185.266 58.4618 186.238 57.9006 185.833 57.3005C171.602 36.3122 139.679 37.5648 122.302 53.8942C117.41 58.4918 114.225 64.9136 115.343 71.7247C115.46 72.4355 116.542 72.1347 116.425 71.4268L116.424 71.4283Z" fill="#292926"/>
<path d="M111.083 71.1588C111.42 51.7135 122.196 33.1034 138.89 23.1286C139.51 22.7589 138.946 21.7876 138.323 22.1588C121.289 32.3371 110.304 51.3184 109.961 71.1588C109.949 71.8817 111.072 71.8817 111.083 71.1588Z" fill="#292926"/>
<path d="M107.939 10.5482C113.913 11.2636 121.198 12.3681 124.054 18.4892C126.812 24.4022 124.217 31.0186 121.972 36.6234C121.704 37.2939 122.789 37.5857 123.054 36.9212C125.477 30.872 128.053 23.82 124.837 17.5418C121.656 11.3339 114.164 10.1711 107.939 9.42577C107.223 9.34046 107.229 10.4629 107.939 10.5482Z" fill="#292926"/>
<path d="M80.6079 30.218C95.2312 38.4882 105.492 53.5888 107.711 70.2549C107.806 70.9598 108.93 70.9703 108.834 70.2549C106.56 53.1863 96.174 37.7324 81.1751 29.2497C80.5451 28.8935 79.9793 29.8618 80.6079 30.218Z" fill="#292926"/>
<path d="M107.684 71.2203C99.1956 60.6887 86.717 53.8508 73.2941 52.2644C72.5787 52.1791 72.5847 53.303 73.2941 53.3868C86.4252 54.9388 98.5985 61.7274 106.89 72.0135C107.343 72.5762 108.133 71.777 107.683 71.2203H107.684Z" fill="#292926"/>
<path d="M113.898 71.4836C116.713 67.2332 121.675 65.0557 126.687 65.0003C131.88 64.9419 136.666 67.2452 140.378 70.7906C149.08 79.1057 150.64 91.6038 151.647 102.976C151.71 103.69 152.834 103.696 152.769 102.976C151.678 90.6609 149.826 76.804 139.511 68.5427C131.696 62.284 118.922 61.8664 112.929 70.9149C112.529 71.5195 113.5 72.0822 113.898 71.4821V71.4836Z" fill="#292926"/>
<path d="M80.6539 82.5883C72.5079 93.7859 59.5638 101.065 45.7667 102.222C45.0529 102.282 45.0454 103.404 45.7667 103.345C59.9934 102.152 73.2233 94.6988 81.6222 83.1555C82.0472 82.5704 81.0744 82.0106 80.6524 82.5883H80.6539Z" fill="#292926"/>
<path d="M12.9282 50.0643C10.4035 52.0922 7.91314 54.7277 7.83981 57.9648C7.7575 61.6 10.9138 64.6636 14.3949 65.7112C17.876 66.7588 22.264 67.6253 25.8633 67.1135C19.612 69.5874 14.3784 72.9846 8.99217 77.009C7.49857 78.1254 5.92865 79.4993 5.74157 81.3551C5.45871 84.1642 8.40101 86.1487 11.0365 87.1634C27.7475 93.5988 48.4664 87.2292 58.6762 72.5162C62.5299 66.9638 70.417 56.7151 75.9469 52.8315C58.7899 42.1697 28.6784 37.4165 12.9282 50.0643Z" fill="#292926"/>
<path d="M170.716 44.9983C173.721 45.6897 177.146 48.4195 177.746 51.6686C178.346 54.9177 177.012 58.2402 175.161 60.9759C173.31 63.7117 170.936 66.0629 169.063 68.7837C165.107 74.5276 163.597 82.1408 166.004 88.6869C168.41 95.233 175.068 100.247 182.032 99.8515C188.996 99.4564 195.317 92.9956 194.753 86.0439C197.106 87.7605 199.659 89.3305 202.514 89.9096C205.37 90.4888 208.594 89.9231 210.642 87.8518C214.329 84.1223 212.661 77.8097 210.086 73.2435C201.738 58.4467 188.738 44.9384 170.718 44.9998" fill="#292926"/>
<path d="M150.585 91.6815C143.319 95.1102 137.785 102.004 136.008 109.838C134.86 114.9 135.29 120.452 137.952 124.907C140.615 129.361 145.712 132.479 150.883 132.054C156.055 131.629 160.82 127.2 160.937 122.013C164.17 123.3 167.531 124.494 171.011 124.49C174.49 124.485 178.152 123.07 180.01 120.127C182.7 115.865 180.776 110.169 177.896 106.032C172.066 97.653 162.423 92.0407 152.257 91.1099" fill="#292926"/>
<path d="M50.7218 100.112C44.457 94.6149 36.0641 91.6082 27.7341 91.8761C19.404 92.144 11.2221 95.6834 5.32255 101.571C3.13902 103.75 1.15005 106.655 1.71127 109.687C2.23957 112.546 4.97535 114.579 7.81439 115.199C10.6534 115.819 13.6032 115.308 16.4647 114.798C11.9779 117.348 10.8839 123.867 13.3039 128.426C15.7239 132.985 20.7674 135.662 25.8499 136.558C34.9432 138.164 44.8671 134.456 50.385 127.052C55.903 119.648 56.548 108.837 51.6407 101.016" fill="#292926"/>
<path d="M92.9865 95.2659C83.5594 96.2536 77.2139 102.42 73.1207 110.968C69.0275 119.517 69.7024 130.169 74.8433 138.133C78.492 143.786 84.5367 148.138 91.2474 148.612C97.9582 149.086 105.055 145.059 107.093 138.648C112.258 144.164 122.019 143.658 127.461 138.416C132.904 133.173 134.099 124.463 131.482 117.374C128.866 110.284 122.974 104.76 116.294 101.227C109.615 97.6934 102.262 93.4191 92.988 95.2659" fill="#292926"/>
<path d="M26.4923 67.7691C34.8268 65.1845 42.8351 61.6855 51.0813 58.8494C58.9624 56.1391 67.1638 53.6143 75.5791 53.7026C76.302 53.7101 76.302 52.5876 75.5791 52.5802C67.282 52.4934 59.1839 54.8999 51.4031 57.5533C42.9428 60.4403 34.737 64.0366 26.1945 66.6856C25.506 66.8996 25.8009 67.9846 26.4923 67.7691Z" fill="#292926"/>
<path opacity="0.2" d="M37.4892 62.2361C29.855 56.8514 21.1523 53.1263 11.9857 51.3199C11.2808 51.1808 10.9785 52.2628 11.6878 52.402C20.7707 54.1919 29.3581 57.869 36.9234 63.2044C37.5146 63.622 38.0758 62.6492 37.4906 62.2346L37.4892 62.2361Z" fill="#292926"/>
<path opacity="0.2" d="M54.14 56.4309C48.6206 50.4774 41.8021 45.8664 34.2398 42.9196C33.5663 42.6577 33.2745 43.7427 33.942 44.0017C41.3217 46.8766 47.9636 51.4188 53.3469 57.2241C53.8392 57.7554 54.6309 56.9592 54.14 56.4309Z" fill="#292926"/>
<path opacity="0.2" d="M36.5943 64.1548C30.7111 74.7687 20.6016 82.6961 8.88928 85.8689C8.19336 86.0575 8.4882 87.141 9.18711 86.9509C21.1689 83.7033 31.5448 75.5798 37.5641 64.7205C37.9143 64.0874 36.946 63.5217 36.5943 64.1533V64.1548Z" fill="#292926"/>
<path opacity="0.2" d="M52.4837 57.0788C48.1197 68.67 41.5855 79.3452 33.257 88.5103C32.7721 89.0446 33.5638 89.8393 34.0502 89.3035C42.5149 79.9887 49.1313 69.1548 53.5658 57.3766C53.8202 56.7002 52.7367 56.4069 52.4837 57.0788Z" fill="#292926"/>
<path opacity="0.2" d="M62.2591 54.9716C62.4297 57.9648 62.096 60.9475 61.2594 63.8285C61.0573 64.5229 62.1408 64.8207 62.3414 64.1263C63.2034 61.1585 63.5566 58.0576 63.3815 54.9716C63.3411 54.2532 62.2172 54.2488 62.2591 54.9716Z" fill="#292926"/>
<path d="M15.8478 114.827C26.4527 107.813 38.6934 103.612 51.3755 102.674C52.0909 102.622 52.0969 101.498 51.3755 101.552C38.4988 102.504 26.0531 106.733 15.2821 113.857C14.682 114.253 15.2432 115.226 15.8493 114.827H15.8478Z" fill="#292926"/>
<path opacity="0.2" d="M27.7014 107.634C20.398 103.639 11.9886 101.986 3.71844 102.961C3.00906 103.045 3.00157 104.168 3.71844 104.084C11.7986 103.131 19.9939 104.697 27.1357 108.604C27.7702 108.951 28.336 107.981 27.7014 107.634Z" fill="#292926"/>
<path opacity="0.2" d="M26.994 108.911C27.1691 117.544 27.2663 126.699 22.4653 134.258C22.0762 134.871 23.0475 135.433 23.4351 134.826C28.3424 127.099 28.296 117.74 28.1164 108.911C28.1014 108.189 26.979 108.186 26.994 108.911Z" fill="#292926"/>
<path opacity="0.2" d="M36.3195 105.473C41.5067 114.146 42.258 125.08 38.2306 134.36C37.9463 135.016 38.9131 135.589 39.2004 134.927C43.3909 125.271 42.698 113.951 37.2893 104.906C36.9181 104.286 35.9483 104.85 36.3195 105.473Z" fill="#292926"/>
<path opacity="0.2" d="M38.0411 103.563C32.6159 98.6318 25.8049 95.4934 18.5404 94.5371C17.8265 94.4428 17.834 95.5668 18.5404 95.6596C25.4906 96.5755 32.0637 99.645 37.2479 104.356C37.7807 104.841 38.5768 104.049 38.0411 103.563Z" fill="#292926"/>
<path opacity="0.2" d="M46.4613 103.776C50.6413 107.477 52.4313 113.45 50.9437 118.836C50.7506 119.533 51.8342 119.831 52.0257 119.134C53.6151 113.384 51.7249 106.939 47.256 102.982C46.7173 102.505 45.9196 103.297 46.4629 103.776H46.4613Z" fill="#292926"/>
<path d="M107.486 138.747C107.824 130.895 108.423 122.883 106.632 115.153C104.665 106.672 99.5783 99.874 92.5323 94.8724C91.9426 94.4533 91.3814 95.4261 91.9651 95.8422C99.0679 100.886 103.99 107.813 105.753 116.393C107.263 123.74 106.683 131.316 106.362 138.748C106.331 139.471 107.453 139.469 107.485 138.748L107.486 138.747Z" fill="#292926"/>
<path opacity="0.2" d="M105.167 121.194C94.0618 124.53 85.3172 134.203 83.1695 145.607C83.0363 146.313 84.1184 146.616 84.2516 145.905C86.3273 134.879 94.7098 125.508 105.464 122.277C106.154 122.068 105.861 120.985 105.167 121.194Z" fill="#292926"/>
<path opacity="0.2" d="M107.098 122.679C115.978 123.052 124.459 127.003 130.483 133.532C130.973 134.065 131.765 133.269 131.276 132.739C125.053 125.993 116.265 121.941 107.098 121.557C106.375 121.527 106.377 122.649 107.098 122.679Z" fill="#292926"/>
<path opacity="0.2" d="M104.63 108.821C110.424 106.814 116.61 106.229 122.668 107.21C123.375 107.324 123.678 106.244 122.966 106.128C116.706 105.114 110.324 105.663 104.33 107.739C103.652 107.974 103.946 109.059 104.63 108.821Z" fill="#292926"/>
<path opacity="0.2" d="M103.234 107.719C96.6759 108.216 89.582 110.017 84.079 113.736C78.2004 117.708 74.0908 124.3 72.2814 131.077C72.0943 131.776 73.1778 132.073 73.3634 131.374C75.1264 124.768 79.1702 118.245 84.992 114.475C90.2884 111.045 96.9887 109.315 103.232 108.842C103.948 108.788 103.954 107.664 103.232 107.719H103.234Z" fill="#292926"/>
<path d="M195.38 86.9046C198.122 77.1303 196.486 66.2231 190.636 57.8647C185.183 50.0749 176.674 46.2331 167.832 43.5782C167.139 43.3701 166.843 44.4537 167.534 44.6602C176.071 47.2224 184.396 50.8965 189.667 58.4304C195.353 66.5584 196.966 77.0974 194.299 86.6053C194.103 87.3012 195.187 87.599 195.381 86.9031L195.38 86.9046Z" fill="#292926"/>
<path d="M151.388 91.6847C159.383 99.8127 155.619 112.888 161.053 122.29C161.414 122.916 162.385 122.351 162.023 121.723C156.515 112.194 160.353 99.1976 152.183 90.89C151.675 90.3737 150.882 91.1683 151.39 91.6832L151.388 91.6847Z" fill="#292926"/>
<path opacity="0.2" d="M141.148 127.488C144.783 120.775 150.792 115.485 157.934 112.778C158.603 112.525 158.313 111.438 157.636 111.696C150.219 114.506 143.959 119.942 140.178 126.921C139.834 127.555 140.802 128.124 141.148 127.488Z" fill="#292926"/>
<path opacity="0.2" d="M158.446 112.505C165.634 113.556 172.334 116.881 177.493 122C178.007 122.508 178.801 121.715 178.286 121.206C173.003 115.964 166.112 112.499 158.744 111.423C158.038 111.32 157.732 112.402 158.446 112.505Z" fill="#292926"/>
<path opacity="0.2" d="M157.356 103.388C163.01 102.158 168.861 102.14 174.521 103.337C175.226 103.487 175.526 102.405 174.819 102.255C168.955 101.016 162.913 101.032 157.057 102.306C156.352 102.46 156.65 103.542 157.355 103.388H157.356Z" fill="#292926"/>
<path opacity="0.2" d="M136.481 117.119C140.559 109.627 148.507 104.593 157.033 104.153C157.752 104.115 157.756 102.993 157.033 103.03C148.12 103.49 139.782 108.707 135.511 116.552C135.165 117.187 136.135 117.754 136.481 117.119Z" fill="#292926"/>
<path opacity="0.2" d="M144.637 96.2882C147.715 95.1358 151.179 95.2122 154.178 96.5831C154.83 96.8809 155.4 95.9141 154.745 95.6133C151.478 94.1197 147.712 93.9416 144.339 95.2047C143.669 95.4561 143.959 96.5426 144.637 96.2882Z" fill="#292926"/>
<path opacity="0.2" d="M155.783 95.6222C155.878 95.474 155.975 95.3304 156.08 95.1897C156.083 95.1852 156.186 95.052 156.119 95.1358C156.146 95.1014 156.172 95.067 156.201 95.034C156.256 94.9667 156.312 94.8993 156.37 94.8335C156.605 94.5641 156.861 94.3112 157.133 94.0777C157.199 94.0208 157.268 93.9655 157.335 93.9101C157.413 93.8472 157.319 93.922 157.367 93.8846C157.401 93.8577 157.437 93.8323 157.472 93.8068C157.612 93.7036 157.757 93.6048 157.906 93.512C158.217 93.3159 158.542 93.1453 158.878 92.9987C159.148 92.8804 159.232 92.4659 159.08 92.2309C158.901 91.951 158.601 91.9032 158.313 92.0289C156.877 92.6589 155.658 93.735 154.817 95.055C154.658 95.3034 154.757 95.6851 155.019 95.8227C155.295 95.9694 155.617 95.8856 155.786 95.6207L155.783 95.6222Z" fill="#292926"/>
<path opacity="0.2" d="M195.453 74.17C184.509 76.9851 175.534 85.8075 172.521 96.6982C172.328 97.3957 173.41 97.6935 173.603 96.9961C176.514 86.472 185.179 77.9713 195.753 75.252C196.452 75.0724 196.155 73.9889 195.455 74.17H195.453Z" fill="#292926"/>
<path opacity="0.2" d="M196.831 75.3207C203.312 75.5796 209.007 79.8689 211.033 86.0289C211.258 86.7113 212.343 86.4195 212.115 85.731C209.929 79.0832 203.827 74.4781 196.831 74.1983C196.108 74.1698 196.109 75.2923 196.831 75.3207Z" fill="#292926"/>
<path opacity="0.2" d="M165.919 80.5261C170.831 70.6261 180.171 63.3137 190.962 60.9252C191.667 60.7695 191.369 59.6875 190.664 59.8431C179.614 62.2886 169.981 69.8224 164.951 79.9604C164.631 80.6054 165.599 81.1741 165.921 80.5276L165.919 80.5261Z" fill="#292926"/>
<path opacity="0.2" d="M192.631 60.6915C195.515 60.1947 198.48 60.4701 201.237 61.4413C201.919 61.6823 202.212 60.5973 201.535 60.3593C198.582 59.3177 195.415 59.0767 192.333 59.6095C191.623 59.7322 191.925 60.8143 192.631 60.6915Z" fill="#292926"/>
<path opacity="0.2" d="M180.035 49.3835C178.867 50.669 178.064 52.2704 177.77 53.984C177.72 54.2818 177.85 54.5886 178.163 54.6739C178.432 54.7488 178.802 54.5826 178.853 54.2818C179.114 52.7538 179.785 51.3276 180.828 50.1767C181.032 49.9522 181.05 49.605 180.828 49.3835C180.621 49.1769 180.238 49.1575 180.035 49.3835Z" fill="#292926"/>
<path opacity="0.2" d="M181.993 49.6348C182.722 49.5705 183.452 49.4912 184.185 49.4957C184.919 49.5001 185.543 49.6019 186.261 49.7546C186.557 49.8174 186.867 49.6663 186.951 49.3625C187.027 49.0826 186.857 48.7354 186.559 48.6725C185.797 48.5109 185.023 48.3837 184.244 48.3747C183.491 48.3657 182.741 48.448 181.993 48.5139C181.691 48.5408 181.432 48.7533 181.432 49.0751C181.432 49.358 181.689 49.6618 181.993 49.6348Z" fill="#292926"/>
<path d="M133.768 25.5934C133.768 16.0227 140.381 5.42232 149.084 1.43838C151.197 0.471578 153.521 -0.219849 155.827 0.0645047C158.134 0.348858 160.404 1.78559 161.148 3.98709C161.892 6.18858 160.625 9.01415 158.349 9.48258C161.705 9.51401 165.109 9.92857 168.188 11.262C171.268 12.594 174.008 14.9272 175.328 18.0117C176.648 21.0962 176.341 24.9514 174.144 27.4881C172.07 29.8842 168.77 30.7777 165.636 31.2521C154.777 32.8968 143.397 30.8764 133.768 25.5934Z" fill="#292926"/>
<path opacity="0.2" d="M152.807 12.4744C158.268 17.3009 166.307 18.5161 172.96 15.5573C173.618 15.264 173.048 14.2972 172.393 14.5875C166.228 17.3293 158.649 16.1425 153.6 11.6797C153.061 11.2022 152.263 11.9954 152.807 12.4744Z" fill="#292926"/>
<path opacity="0.2" d="M144.908 16.7038C151.85 24.4487 162.02 28.9055 172.418 28.7783C173.14 28.7693 173.143 27.6469 172.418 27.6559C162.297 27.7786 152.457 23.4459 145.701 15.9106C145.218 15.3718 144.426 16.168 144.908 16.7038Z" fill="#292926"/>
<path opacity="0.2" d="M138.891 20.9809C138.95 24.4126 141.037 27.6961 144.154 29.1553C144.805 29.4591 145.375 28.4923 144.721 28.1855C141.956 26.8909 140.068 24.0444 140.015 20.9809C140.003 20.2595 138.88 20.2565 138.892 20.9809H138.891Z" fill="#292926"/>
<path opacity="0.2" d="M145.524 14.6937C144.833 10.834 145.74 6.81709 147.953 3.59193C148.363 2.99479 147.39 2.43357 146.983 3.02472C144.592 6.5073 143.697 10.8429 144.44 14.9915C144.568 15.7009 145.65 15.4001 145.522 14.6937H145.524Z" fill="#292926"/>
<path opacity="0.2" d="M153.277 10.8041C153.466 7.15387 155.563 3.73265 158.71 1.88436C159.332 1.51919 158.768 0.547893 158.143 0.914559C154.645 2.96789 152.363 6.75727 152.153 10.8026C152.116 11.5239 153.238 11.5224 153.276 10.8026L153.277 10.8041Z" fill="#292926"/>
<path d="M159.282 9.04566C148.655 11.5734 139.057 17.681 132.285 26.255C131.842 26.8162 132.631 27.6154 133.078 27.0482C139.743 18.6119 149.119 12.6165 159.58 10.1277C160.282 9.96008 159.986 8.87804 159.282 9.04566Z" fill="#292926"/>
<path opacity="0.2" d="M139.098 19.5069C137.83 17.8427 137.694 15.502 138.812 13.724C139.198 13.1104 138.227 12.5462 137.842 13.1568C136.533 15.2386 136.631 18.1091 138.128 20.0726C138.312 20.3135 138.611 20.4408 138.896 20.2746C139.132 20.1355 139.282 19.7493 139.098 19.5069Z" fill="#292926"/>
<path d="M121.408 14.8179C121.785 12.9307 120.769 10.9672 119.271 9.75946C117.773 8.5517 115.866 7.97551 113.982 7.5834C104.878 5.68721 95.0411 7.61333 87.3261 12.8035C86.6212 13.2779 85.9118 13.8018 85.4988 14.5441C85.0857 15.2864 85.0498 16.3041 85.6334 16.9207C86.1588 17.4744 87.0014 17.5597 87.7646 17.5567C90.4076 17.5462 93.0461 16.8847 95.3823 15.6501C94.4873 16.2547 93.5699 16.8818 92.9698 17.7797C92.3696 18.6777 92.1586 19.9243 92.7468 20.8313C93.317 21.7113 94.4933 22.039 95.5289 21.8744C96.5631 21.7098 97.485 21.1411 98.3455 20.5424C101.607 18.2751 104.471 15.3911 108.049 13.6671C111.626 11.943 118.548 12.0627 121.41 14.8179" fill="#292926"/>
<path d="M122.489 14.4454C119.159 10.7323 113.714 10.0933 109 10.2175C103.442 10.3641 98.0824 12.2528 93.6585 15.6187C93.0913 16.0497 93.6495 17.0255 94.2257 16.5885C98.3623 13.4411 103.331 11.5704 108.536 11.3549C113.087 11.1663 118.466 11.6362 121.696 15.2385C122.179 15.7773 122.971 14.9811 122.489 14.4454Z" fill="#292926"/>
<path opacity="0.2" d="M88.7889 12.6104C91.9213 11.6885 95.2542 11.8247 98.3073 12.9786C98.9837 13.2345 99.2755 12.1494 98.6051 11.8965C95.3784 10.6768 91.797 10.5541 88.4896 11.5284C87.7981 11.7319 88.093 12.8154 88.7874 12.6104H88.7889Z" fill="#292926"/>
<path opacity="0.2" d="M108.424 10.2025C107.282 8.35873 105.194 7.19587 103.023 7.21533C102.301 7.22131 102.298 8.34376 103.023 8.33778C104.793 8.32131 106.517 9.25519 107.454 10.7682C107.834 11.3819 108.805 10.8191 108.424 10.2025Z" fill="#292926"/>
<path opacity="0.2" d="M98.9532 13.4335C99.8497 15.3626 99.6955 17.6898 98.6105 19.5067C98.2394 20.1278 99.2091 20.6935 99.5803 20.0739C100.884 17.8904 100.99 15.1636 99.923 12.8678C99.7958 12.5924 99.3992 12.5236 99.1552 12.6658C98.8739 12.8304 98.826 13.1581 98.9532 13.4335Z" fill="#292926"/>
<path opacity="0.2" d="M107.4 11.3236C107.422 11.4118 107.443 11.5002 107.461 11.5899C107.468 11.6289 107.476 11.6663 107.482 11.7052L107.491 11.7635C107.497 11.8069 107.495 11.789 107.485 11.7112C107.513 11.7755 107.504 11.8953 107.509 11.9641C107.515 12.0494 107.516 12.1332 107.516 12.2185C107.516 12.2963 107.515 12.3757 107.51 12.4535C107.506 12.5253 107.516 12.6615 107.485 12.7259L107.494 12.654L107.482 12.7318C107.476 12.7708 107.468 12.8097 107.461 12.8471C107.443 12.9369 107.422 13.0252 107.4 13.1135C107.325 13.3978 107.494 13.7361 107.792 13.8034C108.085 13.8708 108.402 13.7151 108.482 13.4113C108.687 12.6301 108.687 11.804 108.482 11.0212C108.407 10.7369 108.078 10.5363 107.792 10.6291C107.5 10.7234 107.32 11.0153 107.4 11.3191V11.3236Z" fill="#292926"/>
<path d="M93.1381 39.5148C79.5071 39.5118 65.6381 38.5675 52.8782 33.7754C49.234 32.406 45.0973 29.748 45.482 25.8748C45.7349 23.3291 48.0441 21.3731 50.5135 20.7086C52.9829 20.0441 55.599 20.3958 58.1312 20.7535C55.617 18.6478 57.0552 14.1101 60.014 12.6943C62.9727 11.2785 66.5047 12.1121 69.5383 13.3588C80.2329 17.7498 89.904 28.4161 93.1381 39.5148Z" fill="#292926"/>
<path opacity="0.2" d="M46.6032 29.5041C54.4573 30.1686 63.2707 30.3946 69.4307 24.6222C69.959 24.1268 69.1643 23.3351 68.6375 23.829C62.7185 29.3754 54.125 29.0177 46.6046 28.3817C45.8848 28.3203 45.8878 29.4442 46.6032 29.5041Z" fill="#292926"/>
<path opacity="0.2" d="M72.3329 38.3458C76.4844 37.6739 80.0538 34.766 81.6746 30.9077C81.7929 30.6264 81.5474 30.2926 81.2825 30.2178C80.9593 30.125 80.7093 30.3316 80.5926 30.6099C79.12 34.1179 75.7691 36.6577 72.035 37.2638C71.3242 37.379 71.625 38.4611 72.3329 38.3458Z" fill="#292926"/>
<path opacity="0.2" d="M81.133 30.6982C83.3555 30.8434 85.5615 29.6716 86.7243 27.7814C87.1044 27.1648 86.1331 26.6005 85.7545 27.2141C84.7877 28.7856 82.9649 29.694 81.1315 29.5758C80.8292 29.5563 80.5703 29.8482 80.5703 30.137C80.5703 30.4573 80.8277 30.6788 81.1315 30.6982H81.133Z" fill="#292926"/>
<path opacity="0.2" d="M69.4457 24.2735C71.062 23.6898 72.4524 22.5884 73.3413 21.1112C74.3156 19.4934 74.591 17.5343 74.1944 15.698C74.0418 14.9916 72.9597 15.291 73.1123 15.9958C73.7678 19.022 72.0617 22.1364 69.1479 23.19C68.4744 23.4339 68.7648 24.5205 69.4457 24.2735Z" fill="#292926"/>
<path opacity="0.2" d="M50.7375 21.7307C53.9926 22.9758 57.6712 22.7648 60.7901 21.2293C61.4382 20.9105 60.8695 19.9422 60.2229 20.2595C57.3614 21.6678 54.0061 21.7831 51.0339 20.6471C50.3589 20.3882 50.067 21.4733 50.736 21.7292L50.7375 21.7307Z" fill="#292926"/>
<path opacity="0.2" d="M62.8613 20.4585C61.8795 18.3423 60.4323 16.4447 58.6529 14.9346C58.4224 14.7385 58.0857 14.7086 57.8597 14.9346C57.6591 15.1351 57.6277 15.5317 57.8597 15.7278C59.5748 17.184 60.9441 18.9829 61.893 21.0242C62.0202 21.2996 62.4168 21.3684 62.6607 21.2263C62.9421 21.0616 62.99 20.7339 62.8628 20.4585H62.8613Z" fill="#292926"/>
<path d="M93.649 39.1422C83.8134 29.9336 71.8736 23.2049 58.8996 19.5697C58.2022 19.3751 57.9058 20.4572 58.6017 20.6517C71.3931 24.2346 83.1594 30.8555 92.8558 39.9354C93.3826 40.4292 94.1788 39.636 93.649 39.1422Z" fill="#292926"/>
</svg>
