<svg width="512" height="371" viewBox="0 0 512 371" fill="none" xmlns="http://www.w3.org/2000/svg">
<path d="M245.188 58.4422C252.315 65.5702 257.373 74.8452 262.75 83.3172C264.172 85.5479 265.593 87.7784 267.016 90.0086C267.701 91.0839 268.386 92.1591 269.092 93.2669C271.544 97.1072 274.018 100.933 276.5 104.755C280.346 110.679 284.157 116.626 287.957 122.581C293.23 130.841 298.501 139.1 303.938 147.255C304.344 147.865 304.751 148.476 305.17 149.105C306.921 151.81 306.921 151.81 309 154.255C309.606 153.274 310.212 152.293 310.836 151.282C313.535 146.926 316.265 142.589 319 138.255C319.656 137.207 319.656 137.207 320.326 136.138C327.613 124.559 334.303 115.722 347.977 111.669C357.418 109.737 366.562 111.922 374.688 116.88C383.109 123.022 388.282 132.571 393.75 141.255C395.165 143.484 396.58 145.713 397.996 147.942C398.68 149.022 399.365 150.103 400.07 151.216C402.628 155.244 405.215 159.252 407.812 163.255C408.25 163.93 408.688 164.606 409.139 165.302C410.425 167.286 411.713 169.271 413 171.255C419.326 181.004 425.617 190.774 431.875 200.567C436.721 208.149 441.586 215.717 446.5 223.255C452.112 231.862 457.655 240.513 463.188 249.171C468.76 257.887 474.369 266.577 480 275.255C483.125 280.07 486.245 284.888 489.357 289.711C490.563 291.578 491.77 293.444 492.979 295.31C495.136 298.643 497.287 301.98 499.438 305.317C500.124 306.376 500.811 307.435 501.518 308.526C509.448 320.859 513.283 330.491 512 345.255C509.797 354.904 502.354 361.72 494.406 367.028C488.786 369.893 483.235 370.548 477.017 370.512C476.239 370.515 475.461 370.519 474.659 370.523C472.054 370.532 469.45 370.527 466.845 370.522C464.957 370.526 463.07 370.53 461.183 370.536C455.998 370.548 450.813 370.548 445.628 370.545C440.036 370.545 434.443 370.556 428.851 370.566C417.894 370.582 406.938 370.588 395.982 370.589C387.076 370.59 378.17 370.594 369.265 370.6C348.126 370.615 326.987 370.627 305.848 370.626C305.172 370.626 304.496 370.626 303.799 370.626C300.374 370.626 296.948 370.626 293.522 370.626C292.842 370.626 292.162 370.625 291.461 370.625C290.085 370.625 288.709 370.625 287.333 370.625C265.93 370.624 244.527 370.639 223.124 370.666C199.072 370.697 175.02 370.714 150.967 370.712C138.234 370.712 125.502 370.717 112.769 370.739C101.928 370.757 91.0871 370.761 80.2462 370.748C74.7157 370.741 69.1854 370.741 63.655 370.758C58.5894 370.774 53.5241 370.771 48.4584 370.754C46.6287 370.751 44.799 370.754 42.9693 370.766C30.5724 370.836 18.5485 370.277 9 361.255C1.12313 352.596 -0.331283 344.713 -0.398438 333.352C0.150664 324.607 3.93025 318.291 9.1875 311.505C9.80045 310.693 10.4134 309.882 11.0449 309.046C13.0181 306.439 15.008 303.847 17 301.255C18.3303 299.511 19.6597 297.766 20.9883 296.02C23.0018 293.376 25.0165 290.733 27.0359 288.094C31.4196 282.358 35.7346 276.578 40 270.755C45.5866 263.127 51.2928 255.598 57.0391 248.091C61.4206 242.356 65.7354 236.577 70 230.755C75.5866 223.127 81.2928 215.598 87.0391 208.091C91.4206 202.356 95.7354 196.577 100 190.755C105.587 183.127 111.293 175.598 117.039 168.091C121.421 162.356 125.735 156.577 130 150.755C135.587 143.127 141.293 135.598 147.039 128.091C151.421 122.356 155.735 116.577 160 110.755C165.629 103.071 171.369 95.4779 177.156 87.9127C181.85 81.7745 186.504 75.6086 191.108 69.4024C198.425 59.5828 204.477 53.4118 216.852 50.7C227.969 49.1276 236.133 52.228 245.188 58.4422ZM222 85.2547C220.93 86.5346 219.903 87.8514 218.895 89.1805C218.248 90.03 217.602 90.8795 216.936 91.7547C216.235 92.6828 215.534 93.611 214.812 94.5672C213.729 95.9961 213.729 95.9961 212.623 97.4539C207.455 104.284 202.361 111.165 197.301 118.075C192.858 124.13 188.316 130.105 183.75 136.067C176.786 145.18 176.786 145.18 169.938 154.38C169.514 154.941 169.09 155.503 168.653 156.082C167.393 157.77 167.393 157.77 166 160.255C167.296 164.144 168.575 164.387 172.152 166.259C173.231 166.83 174.309 167.402 175.42 167.991C176.581 168.594 177.742 169.196 178.938 169.817C181.323 171.065 183.707 172.317 186.09 173.571C186.683 173.882 187.276 174.193 187.888 174.514C191.454 176.395 194.936 178.372 198.379 180.47C199.17 180.944 199.961 181.418 200.776 181.907C202.211 182.777 203.633 183.668 205.039 184.585C208.902 186.889 211.387 187.526 215.855 186.704C217.58 186.256 219.295 185.772 221 185.255C222.281 184.879 222.281 184.879 223.588 184.495C227.055 183.446 230.499 182.335 233.939 181.202C242.148 178.617 242.148 178.617 246 180.255C248.395 182.075 248.395 182.075 250.812 184.38C251.685 185.197 252.558 186.014 253.457 186.856C254.296 187.648 255.135 188.439 256 189.255C257.327 190.429 258.659 191.596 260 192.755C263.895 196.147 267.728 199.607 271.562 203.067C274.335 205.555 277.138 208.005 279.949 210.45C282.261 212.484 284.535 214.557 286.812 216.63C290.189 219.683 293.632 222.599 297.188 225.442C303.24 230.334 308.856 235.653 314.516 240.989C318.257 244.512 322.084 247.927 326 251.255C331.328 249.651 335.174 246.178 339.438 242.755C365.397 222.216 365.397 222.216 378.951 223.544C382.034 223.918 385.111 224.327 388.188 224.755C397.56 226.047 397.56 226.047 407 226.255C403.407 219.866 399.665 213.641 395.562 207.567C390.952 200.741 386.494 193.824 382.062 186.88C377.374 179.533 372.68 172.191 367.938 164.88C363.925 158.692 359.944 152.486 356 146.255C353.366 148.669 351.57 151.299 349.664 154.313C348.696 155.836 348.696 155.836 347.709 157.39C347.021 158.48 346.333 159.569 345.625 160.692C344.538 162.405 343.45 164.116 342.361 165.827C341.627 166.982 340.893 168.137 340.159 169.292C336.951 174.342 333.704 179.367 330.438 184.38C329.928 185.162 329.419 185.944 328.894 186.75C327.264 189.252 325.632 191.753 324 194.255C322.62 196.372 321.24 198.489 319.859 200.606C316.241 206.157 312.621 211.706 309 217.255C306.277 213.933 303.799 210.555 301.453 206.958C300.781 205.929 300.109 204.9 299.417 203.84C298.702 202.74 297.987 201.639 297.25 200.505C296.495 199.347 295.741 198.188 294.986 197.03C288.485 187.046 282.063 177.012 275.652 166.97C270.803 159.375 265.905 151.813 261 144.255C254.633 134.443 248.301 124.609 242 114.755C239.97 111.583 237.94 108.411 235.91 105.24C234.681 103.319 233.454 101.398 232.227 99.4769C230.675 97.0466 229.12 94.619 227.562 92.1922C227.108 91.4781 226.654 90.7639 226.186 90.0281C225.15 88.4195 224.08 86.8339 223 85.2547C222.67 85.2547 222.34 85.2547 222 85.2547Z" fill="#292926"/>
<path d="M402 17.2549C419.013 31.0177 431.239 50.2177 434 72.2549C435.048 90.6202 433.769 107.68 425 124.255C423.348 126.079 423.348 126.079 422 127.255C421.371 126.3 420.742 125.344 420.094 124.36C417.418 120.31 414.713 116.28 412 112.255C411.309 111.222 410.618 110.19 409.906 109.126C399.049 93.4848 384.896 85.1132 366.586 80.6689C349.296 77.9004 332.731 82.1726 318 91.2549C315.534 93.1492 313.304 95.1649 311 97.2549C307.244 96.003 306.802 94.809 304.734 91.4971C304.098 90.4893 303.462 89.4815 302.807 88.4431C302.128 87.3497 301.449 86.2564 300.75 85.1299C299.682 83.4319 298.615 81.7339 297.545 80.037C296.81 78.87 296.075 77.7024 295.342 76.5342C292.823 72.5302 290.251 68.5661 287.645 64.6182C286.615 63.059 286.615 63.059 285.565 61.4683C284.251 59.4823 282.933 57.4988 281.61 55.5181C281.018 54.6204 280.426 53.7227 279.816 52.7978C279.295 52.0143 278.774 51.2308 278.237 50.4236C277.028 48.3042 276.334 46.6655 276 44.2549C283.96 26.1971 302.197 12.4253 320 5.25488C347.784 -4.39706 378.53 -0.954294 402 17.2549Z" fill="#292926"/>
</svg>
