<svg width="512" height="512" viewBox="0 0 512 512" fill="none" xmlns="http://www.w3.org/2000/svg">
<g clip-path="url(#clip0_4399_1372)">
<path d="M510.247 1.56977C512.658 4.91199 512.503 7.17448 512.508 11.2786C512.514 12.0133 512.52 12.7481 512.527 13.5052C512.543 15.9687 512.53 18.4313 512.518 20.8949C512.523 22.6609 512.53 24.4268 512.539 26.1928C512.557 30.9928 512.55 35.7925 512.537 40.5926C512.527 45.6203 512.537 50.648 512.543 55.6757C512.55 64.1269 512.541 72.578 512.522 81.0292C512.5 90.7823 512.507 100.535 512.529 110.288C512.547 118.67 512.55 127.051 512.539 135.433C512.533 140.435 512.532 145.437 512.545 150.439C512.557 155.15 512.549 159.86 512.526 164.57C512.52 166.293 512.522 168.015 512.531 169.738C512.603 185.176 509.552 197.064 498.813 208.625C486.464 220.322 470.588 225.351 453.79 225.03C436.926 224.313 421.875 217.978 410.078 205.672C400.963 193.952 398.837 181.495 400 167C402.342 155.162 410.305 144.913 420 138C434.727 129.227 446.192 128 464 128C464 115.13 464 102.26 464 89.0001C437.93 94.2801 411.86 99.5601 385 105C384.767 120.299 384.767 120.299 384.609 135.598C384.562 141.848 384.506 148.097 384.397 154.346C384.309 159.391 384.262 164.435 384.241 169.48C384.226 171.394 384.198 173.309 384.154 175.223C383.869 188.314 385.483 196.176 393 207C401.053 221.443 406.711 237.128 410.813 253.125C410.995 253.826 411.178 254.527 411.366 255.249C415.217 271.248 416.556 287.275 416.438 303.688C416.434 304.6 416.431 305.512 416.427 306.452C416.348 321.257 415.498 335.557 412 350C411.764 350.98 411.528 351.959 411.285 352.968C402.639 387.535 386.313 417.322 363 444C362.277 444.847 361.554 445.694 360.809 446.566C356.532 451.513 352.001 455.8 347 460C346.089 460.811 345.177 461.622 344.238 462.457C310.552 492.211 264.491 511.779 219.285 512.238C218.48 512.248 217.676 512.258 216.847 512.268C160.496 512.815 110.577 496.531 68.0001 459C66.7355 457.919 66.7355 457.919 65.4454 456.816C60.4927 452.539 56.2031 448.005 52.0001 443C51.1892 442.089 50.3784 441.177 49.543 440.238C41.7619 431.429 35.2392 421.949 29.0001 412C28.3852 411.028 28.3852 411.028 27.7579 410.037C16.3953 391.83 8.84022 370.843 4.00006 350C3.79123 349.122 3.5824 348.243 3.36725 347.338C-8.23327 296.118 2.17304 238.315 30.0001 194C36.8978 183.351 44.6183 173.509 53.0001 164C53.7206 163.157 54.4412 162.314 55.1837 161.445C59.461 156.493 63.9956 152.203 69.0001 148C69.9114 147.189 70.8228 146.378 71.7618 145.543C80.5715 137.762 90.0509 131.239 100 125C100.648 124.59 101.296 124.18 101.963 123.758C145.854 96.3662 203.816 88.5154 254 100C281.133 106.389 307.187 117.677 329.737 134.154C330.724 134.875 331.711 135.595 332.727 136.337C333.477 136.886 334.227 137.435 335 138C335.004 136.731 335.007 135.462 335.011 134.155C335.048 122.206 335.106 110.258 335.184 98.3099C335.223 92.1669 335.256 86.0241 335.271 79.881C335.286 73.9545 335.321 68.0284 335.368 62.1022C335.383 59.8392 335.391 57.5761 335.392 55.313C335.394 52.1474 335.421 48.9829 335.454 45.8175C335.449 44.8781 335.444 43.9387 335.439 42.9708C335.453 42.1071 335.467 41.2433 335.481 40.3534C335.485 39.6049 335.488 38.8564 335.492 38.0853C336.226 35.0725 337.588 33.9035 340 32.0001C342.535 31.0948 342.535 31.0948 345.432 30.5175C347.068 30.1795 347.068 30.1795 348.738 29.8346C350.513 29.4918 350.513 29.4918 352.324 29.1422C353.567 28.8894 354.81 28.6367 356.091 28.3763C358.73 27.8412 361.37 27.3114 364.012 26.7904C367.834 26.0359 371.65 25.2559 375.465 24.4701C383.246 22.8696 391.033 21.2954 398.82 19.7267C399.514 19.587 400.207 19.4472 400.921 19.3033C407.491 17.9794 414.061 16.6566 420.631 15.3374C428.927 13.6716 437.222 11.9993 445.515 10.3181C451.416 9.12231 457.319 7.9339 463.224 6.75094C466.724 6.04932 470.225 5.3446 473.723 4.6318C477.605 3.84107 481.49 3.06571 485.376 2.2916C486.511 2.05791 487.647 1.82422 488.817 1.58344C505.55 -1.71108 505.55 -1.71108 510.247 1.56977Z" fill="#8CC8FE"/>
<path d="M510.247 1.56977C512.658 4.91199 512.503 7.17448 512.508 11.2786C512.514 12.0133 512.521 12.7481 512.527 13.5052C512.543 15.9687 512.53 18.4313 512.518 20.8949C512.523 22.6609 512.53 24.4268 512.539 26.1928C512.557 30.9928 512.55 35.7925 512.537 40.5926C512.527 45.6203 512.537 50.648 512.543 55.6757C512.55 64.1269 512.541 72.578 512.522 81.0292C512.5 90.7823 512.507 100.535 512.529 110.288C512.547 118.67 512.55 127.051 512.539 135.433C512.533 140.435 512.532 145.437 512.545 150.439C512.557 155.15 512.549 159.86 512.526 164.57C512.52 166.293 512.522 168.015 512.531 169.738C512.603 185.176 509.552 197.064 498.813 208.625C486.464 220.322 470.588 225.351 453.79 225.03C436.926 224.313 421.875 217.978 410.078 205.672C400.963 193.952 398.837 181.495 400 167C402.342 155.162 410.305 144.913 420 138C434.727 129.227 446.192 128 464 128C464 115.13 464 102.26 464 89.0001C437.93 94.2801 411.86 99.5601 385 105C384.974 112.14 384.949 119.28 384.922 126.637C384.897 131.18 384.87 135.724 384.84 140.268C384.792 147.468 384.748 154.667 384.729 161.868C384.714 167.677 384.679 173.487 384.632 179.296C384.617 181.504 384.609 183.713 384.608 185.921C384.594 204.657 382.922 218.454 369.688 232.75C356.616 245.097 339.854 248.468 322.512 248.211C306.017 247.654 293.029 239.7 282 228C274.53 219.075 271.227 209.164 271.621 197.555C273.114 183.552 279.568 173.167 290.137 164.106C301.463 155.777 313.887 151.769 327.887 151.934C328.67 151.938 329.453 151.943 330.259 151.948C332.173 151.961 334.087 151.98 336 152C335.996 151.406 335.993 150.812 335.989 150.2C335.901 135.744 335.834 121.289 335.793 106.834C335.772 99.8432 335.744 92.8528 335.698 85.8624C335.654 79.1192 335.631 72.3761 335.621 65.6327C335.613 63.057 335.599 60.4814 335.577 57.9057C335.548 54.3045 335.544 50.704 335.546 47.1026C335.532 46.0323 335.517 44.962 335.502 43.8593C335.508 42.8778 335.513 41.8962 335.519 40.8849C335.515 40.0332 335.512 39.1815 335.508 38.3039C336.189 35.115 337.442 33.9797 340 32.0001C342.535 31.0948 342.535 31.0948 345.432 30.5175C346.523 30.2921 347.614 30.0668 348.738 29.8346C349.921 29.6061 351.105 29.3776 352.324 29.1422C353.567 28.8894 354.81 28.6367 356.091 28.3763C358.73 27.8412 361.37 27.3114 364.012 26.7904C367.834 26.0359 371.65 25.2559 375.465 24.4701C383.246 22.8696 391.033 21.2954 398.82 19.7267C399.514 19.587 400.207 19.4472 400.921 19.3033C407.491 17.9794 414.061 16.6566 420.631 15.3374C428.927 13.6716 437.222 11.9993 445.515 10.3181C451.416 9.12231 457.319 7.9339 463.224 6.75094C466.725 6.04932 470.225 5.3446 473.723 4.6318C477.605 3.84107 481.49 3.06571 485.376 2.2916C486.511 2.05791 487.647 1.82422 488.817 1.58344C505.551 -1.71108 505.551 -1.71108 510.247 1.56977Z" fill="#FECC5F"/>
<path d="M266.344 237.57C285.367 254.97 294.754 276.431 296.286 302.023C296.866 326.112 287.62 348.375 271.292 365.802C259.285 378.072 244.558 385.803 228 390C227.123 390.225 226.245 390.451 225.34 390.683C202.926 395.585 178.887 390.424 159.688 378.25C138.07 362.85 126.776 342.92 120.383 317.551C116.723 293.164 123.684 269.629 138 250C151.339 233.071 170.524 220.452 192 217C193.019 216.834 193.019 216.834 194.059 216.664C220.387 213.089 246.167 220.35 266.344 237.57Z" fill="#66AFFE"/>
<path d="M449.019 418.832C451 420 451 420 453.121 421.672C454.051 422.329 454.051 422.329 455 423C457.409 422.491 457.409 422.491 460 421C461.374 420.31 462.749 419.623 464.125 418.937C464.787 418.596 465.45 418.254 466.133 417.902C473.475 414.354 483.847 414.718 491.543 417.094C500.581 421.401 507.228 427.175 511.117 436.523C514.873 451.314 512.024 467.034 504.812 480.25C494.321 497.001 479.606 506.349 461 512C449.644 514.087 436.621 507.718 427.297 501.68C413.03 491.246 403.264 477.571 400 460C398.576 446.972 399.556 436.624 407.57 425.898C417.802 414.282 435.385 412.534 449.019 418.832Z" fill="#F95C76"/>
<path d="M113.019 2.83198C115 3.99995 115 3.99995 117.121 5.67182C118.051 6.32924 118.051 6.32924 119 6.99995C121.409 6.49108 121.409 6.49108 124 4.99995C125.374 4.31029 126.749 3.62293 128.125 2.93745C128.787 2.59584 129.45 2.25424 130.133 1.90229C137.475 -1.64601 147.847 -1.28219 155.543 1.0937C164.581 5.40086 171.228 11.1747 175.117 20.5234C178.873 35.3141 176.024 51.0337 168.812 64.2499C158.321 81.0008 143.606 90.3494 125 95.9999C113.644 98.0865 100.621 91.7183 91.2966 85.6796C77.0297 75.2464 67.2638 61.571 63.9998 43.9999C62.5762 30.9722 63.556 20.6237 71.5701 9.89838C81.802 -1.71758 99.3855 -3.46613 113.019 2.83198Z" fill="#F95C76"/>
<path d="M361.125 295.938C361.788 296.029 362.45 296.121 363.133 296.215C365.729 297.307 366.617 298.565 368 301C370.318 315.977 366.275 333.644 362 348C361.789 348.721 361.577 349.441 361.359 350.183C352.032 381.427 333.092 410.232 307 430C306.163 430.652 305.327 431.305 304.465 431.977C290.46 442.581 275.488 450.083 259 456C257.826 456.422 256.651 456.843 255.441 457.277C240.074 462.362 221.155 465.862 205 464C202.508 462.628 201.32 461.762 200.215 459.133C200.123 458.47 200.032 457.808 199.938 457.125C199.823 456.468 199.708 455.81 199.59 455.133C200.303 451.423 201.981 450.198 205 448C208.604 447.171 212.188 447.032 215.875 446.875C217.968 446.735 220.06 446.589 222.152 446.438C223.164 446.367 224.176 446.296 225.218 446.223C250.139 444.228 275.535 433.494 295 418C295.923 417.28 296.846 416.559 297.797 415.817C324.896 394.22 344.571 362.094 349.652 327.512C349.955 324.451 350.18 321.401 350.379 318.332C350.488 316.79 350.488 316.79 350.599 315.216C350.739 313.148 350.858 311.078 350.952 309.007C351.263 304.3 351.49 301.702 354.316 297.813C357.043 295.971 357.953 295.384 361.125 295.938Z" fill="#66AFFF"/>
<path d="M222.504 275.188C231.085 279.894 236.866 286.823 239.687 296.313C241.002 307.616 238.955 316.854 232 326C224.541 333.087 216.362 336.359 206.062 336.145C197.525 335.546 189.81 331.986 183.879 325.781C179.419 320.218 176.795 315.155 176 308C175.899 307.229 175.799 306.458 175.695 305.664C175.015 296.391 178.842 287.969 184.742 280.918C195.262 271.344 209.662 269.097 222.504 275.188Z" fill="#509CEF"/>
<path d="M201.812 143.625C202.56 143.611 203.307 143.597 204.076 143.583C208.526 143.622 211.528 144.143 215 147C216.172 150.955 216.405 153.069 214.75 156.875C212.644 159.432 211.099 159.881 207.85 160.234C206.609 160.314 206.609 160.314 205.344 160.395C166.571 163.145 132.711 176.14 105 204C104.117 204.883 103.234 205.766 102.324 206.676C92.6914 216.788 85.454 228.548 79.0427 240.897C77.613 243.57 76.459 245.672 73.9648 247.453C70.6769 248.369 68.2555 247.888 65 247C63 244.875 63 244.875 62 242C62.3066 235.844 64.4943 231.529 67.5 226.313C67.9507 225.52 68.4014 224.727 68.8657 223.909C72.7634 217.175 77.0562 211.021 82 205C82.451 204.444 82.902 203.887 83.3667 203.314C109.902 170.723 147.86 149.389 189.693 144.227C193.731 143.83 197.756 143.674 201.812 143.625Z" fill="#66AFFF"/>
<path d="M59.9996 280C62.8746 281.813 62.8746 281.813 64.9996 285C65.607 288.726 65.3461 292.254 64.9996 296C64.9042 297.155 64.8088 298.31 64.7105 299.5C63.6918 308.449 63.6918 308.449 60.6441 310.875C56.9744 312.436 54.7929 312.124 50.9996 311C46.3629 305.228 47.578 297.974 47.9996 291C48.4664 287.087 49.0827 284.048 51.7496 281C54.8175 279.637 56.673 279.457 59.9996 280Z" fill="#67AFFF"/>
</g>
<defs>
<clipPath id="clip0_4399_1372">
<rect width="512" height="512" fill="white"/>
</clipPath>
</defs>
</svg>
