<svg width="237" height="382" viewBox="0 0 237 382" fill="none" xmlns="http://www.w3.org/2000/svg">
<path d="M39.1378 114.342C33.9148 106.158 21.4787 104.831 13.2602 110C5.04179 115.169 0.809725 125.111 0.121958 134.795C-0.565809 144.479 1.77667 154.095 4.10358 163.521C5.45395 142.367 20.1499 122.654 40.0376 115.321L39.1378 114.342Z" fill="#292926"/>
<g opacity="0.3">
<path d="M39.1378 114.342C33.9148 106.158 21.4787 104.831 13.2602 110C5.04179 115.169 0.809725 125.111 0.121958 134.795C-0.565809 144.479 1.77667 154.095 4.10358 163.521C5.45395 142.367 20.1499 122.654 40.0376 115.321L39.1378 114.342Z" fill="#292926"/>
</g>
<path d="M6.7168 134.99C7.39977 126.361 11.143 119.121 16.7709 115.58C18.8726 114.258 21.5194 113.531 24.2237 113.531C25.4758 113.531 26.6705 113.681 27.7752 113.967C19.25 119.146 11.9973 126.469 6.718 134.99H6.7168Z" fill="#292926"/>
<path d="M207.186 158.412C202.941 153.719 195.252 151.89 190.055 155.499L188.979 155.569C197.682 167.433 203.051 181.718 204.314 196.379C208.826 190.602 211.601 183.487 212.191 176.18C212.701 169.872 211.433 163.105 207.186 158.412Z" fill="#292926"/>
<g opacity="0.3">
<path d="M207.184 158.412C202.939 153.719 195.25 151.89 190.053 155.499L188.977 155.569C197.68 167.433 203.049 181.718 204.312 196.379C208.824 190.602 211.599 183.487 212.189 176.18C212.699 169.872 211.431 163.105 207.184 158.412Z" fill="#292926"/>
</g>
<path d="M205.693 172.771C204.228 168.85 202.48 165.033 200.465 161.354C201.154 161.761 201.778 162.262 202.297 162.835C204.37 165.127 205.558 168.656 205.694 172.771H205.693Z" fill="#292926"/>
<path d="M57.7888 160.954L57.2832 160.212C67.3792 153.337 81.7229 152.965 92.1593 159.307L91.6932 160.075C81.5432 153.909 67.6045 154.271 57.7888 160.954Z" fill="#292926"/>
<path d="M113.454 230.537C110.298 206.309 107.035 181.257 95.9062 158.952C83.6773 134.439 62.3553 117.717 40.2617 115.312L40.36 114.419C62.7531 116.856 84.3471 133.767 96.7114 158.551C107.906 180.992 111.178 206.12 114.345 230.419L113.454 230.537Z" fill="#292926"/>
<path d="M115.657 199.95C111.485 180.061 109.879 159.714 108.326 140.036C105.998 110.53 103.59 80.0188 92.3555 51.516L93.1906 51.1865C104.475 79.8151 106.888 110.393 109.221 139.966C110.773 159.615 112.376 179.936 116.536 199.767L115.657 199.952V199.95Z" fill="#292926"/>
<path d="M115.877 233.152L114.979 233.15C115.233 164.263 117.734 94.4833 122.416 25.7473L123.312 25.8084C118.633 94.5253 116.131 164.286 115.877 233.152Z" fill="#292926"/>
<path d="M118.625 230.215C113.423 192.175 118.189 148.222 133.194 95.8411L134.058 96.0891C119.088 148.346 114.331 192.179 119.514 230.092L118.625 230.215Z" fill="#292926"/>
<path d="M123.11 232.081L122.211 232.044C123.54 199.93 124.914 166.722 130.81 134.524C137.41 98.4796 149.181 67.9015 165.797 43.6367L166.538 44.1448C149.994 68.3041 138.27 98.7659 131.695 134.684C125.809 166.823 124.436 199.997 123.11 232.081Z" fill="#292926"/>
<path d="M124.203 211.989L123.332 211.763C127.103 197.088 131.378 180.452 138.753 165.524C146.855 149.121 157.972 136.675 170.902 129.53C186.305 121.016 204.357 120.385 218.01 127.882L217.578 128.669C204.191 121.321 186.472 121.951 171.337 130.316C158.568 137.372 147.579 149.685 139.558 165.921C132.225 180.767 127.963 197.353 124.203 211.987V211.989Z" fill="#292926"/>
<path d="M129.659 190.926L128.861 190.513C133.236 182.058 137.312 174.509 142.882 167.722C149.237 159.983 156.705 154.619 164.48 152.208C173.662 149.362 183.562 150.818 190.323 156.009L189.775 156.722C183.243 151.706 173.651 150.304 164.746 153.067C157.139 155.425 149.818 160.69 143.575 168.294C138.06 175.01 134.01 182.518 129.658 190.926H129.659Z" fill="#292926"/>
<path d="M77.1737 90.4837C79.9907 86.9382 83.4978 83.7714 87.7742 82.2844C92.0506 80.7974 97.1873 81.2563 100.581 84.2554C104.092 87.3588 105.115 92.6345 103.998 97.1864C102.881 101.738 99.9347 105.642 96.5678 108.904C89.9945 115.271 81.752 119.577 74.2297 124.788C66.7074 129.999 59.5422 136.63 56.8834 145.386C48.7704 130.773 44.2496 114.182 43.8278 97.4728C43.6193 89.2292 44.8702 80.009 51.2662 74.804C56.3933 70.6319 64.2727 70.2664 69.7652 73.9449C75.2566 77.6246 77.9166 85.051 76.0079 91.3799L77.1725 90.4849L77.1737 90.4837Z" fill="#292926"/>
<g opacity="0.3">
<path d="M77.1718 90.4837C79.9887 86.9382 83.4959 83.7714 87.7723 82.2844C92.0486 80.7974 97.1853 81.2563 100.579 84.2554C104.091 87.3588 105.113 92.6345 103.996 97.1864C102.879 101.738 99.9328 105.642 96.5658 108.904C89.9925 115.271 81.7501 119.577 74.2278 124.788C66.7055 129.999 59.5402 136.63 56.8814 145.386C48.7684 130.773 44.2476 114.182 43.8258 97.4728C43.6174 89.2292 44.8682 80.009 51.2642 74.804C56.3913 70.6319 64.2707 70.2664 69.7633 73.9449C75.2547 77.6246 77.9146 85.051 76.0059 91.3799L77.1705 90.4849L77.1718 90.4837Z" fill="#292926"/>
</g>
<path d="M57.3705 131.07C53.0894 120.344 50.7097 108.864 50.4174 97.3062C50.1981 88.6516 51.8852 82.7996 55.427 79.9167C56.9236 78.7017 59.0073 78.0044 61.1509 78.0044C62.9757 78.0044 64.7311 78.5064 66.0958 79.4207C69.1896 81.4936 70.77 85.9089 69.6952 89.4736L66.8459 106.045L80.3413 94.7037L80.8493 94.0675C83.3475 90.9222 87.3915 89.3945 89.9376 88.5114C90.7967 88.2119 91.7301 88.0537 92.6348 88.0537C94.1122 88.0537 95.3835 88.4587 96.215 89.1932C97.6181 90.4357 98.2016 93.1365 97.5929 95.612C96.9267 98.3259 95.0396 101.203 91.9818 104.162C87.8839 108.132 82.9258 111.293 77.6753 114.641C75.2549 116.186 72.8297 117.733 70.4765 119.363C65.0426 123.127 60.6896 127.008 57.3705 131.067V131.07Z" fill="#292926"/>
<path d="M61.6286 118.912C61.5818 118.912 61.5339 118.905 61.486 118.888C61.2511 118.81 61.1241 118.555 61.2032 118.32C64.515 108.399 69.4828 99.209 75.9698 91.0037C76.1268 90.8084 76.4096 90.7772 76.6001 90.9294C76.7954 91.0828 76.8278 91.3656 76.6744 91.5597C70.2532 99.6835 65.3334 108.783 62.0551 118.604C61.9928 118.792 61.8179 118.911 61.6298 118.911L61.6286 118.912Z" fill="#292926"/>
<path d="M56.6552 98.4049C56.5617 98.4049 56.467 98.3762 56.3856 98.315C56.1867 98.1665 56.1459 97.8849 56.2945 97.686C58.2428 95.0823 61.1712 93.1508 64.3308 92.3875C67.4881 91.6255 70.976 92.0065 73.8973 93.436C74.1201 93.545 74.2124 93.8146 74.1033 94.0375C73.9919 94.2603 73.7271 94.3502 73.5019 94.2435C70.7688 92.9052 67.5001 92.5481 64.5405 93.261C61.581 93.9752 58.8371 95.7832 57.0146 98.224C56.9259 98.3426 56.7906 98.4037 56.654 98.4037L56.6552 98.4049Z" fill="#292926"/>
<path d="M74.0238 117.105C73.9818 117.105 73.9375 117.099 73.8955 117.086C73.6583 117.014 73.5217 116.764 73.5936 116.527C75.2363 111.052 73.8632 104.735 70.0961 100.436C69.9319 100.249 69.9511 99.9651 70.138 99.8021C70.3249 99.6392 70.6089 99.6571 70.7718 99.8441C74.7379 104.371 76.1841 111.021 74.4539 116.785C74.3952 116.98 74.2167 117.105 74.0238 117.105Z" fill="#292926"/>
<path d="M53.8383 111.476C53.7484 111.476 53.6573 111.45 53.5783 111.393C53.3758 111.25 53.3278 110.969 53.4716 110.767C56.1915 106.929 61.2827 105.039 65.8454 106.171C66.0863 106.23 66.2336 106.474 66.1737 106.715C66.1138 106.954 65.8766 107.105 65.6298 107.042C61.4109 105.997 56.7152 107.741 54.2037 111.286C54.1163 111.409 53.9785 111.475 53.8371 111.475L53.8383 111.476Z" fill="#292926"/>
<path d="M129.895 137.798C125.611 134.67 119.216 134.847 115.112 138.208L115.498 137.204C115.91 133.583 113.384 130.046 110.062 128.548C106.739 127.05 102.838 127.32 99.3855 128.489C89.2979 131.904 82.9103 142.343 81.2112 152.856C79.5122 163.37 81.6474 174.083 83.7754 184.518C92.6037 175.767 103.328 168.936 114.991 164.634C122.369 161.913 131.115 159.319 134.008 152.005C135.958 147.072 134.18 140.928 129.897 137.799L129.895 137.798Z" fill="#292926"/>
<g opacity="0.3">
<path d="M129.893 137.798C125.609 134.669 119.214 134.847 115.11 138.208L115.496 137.204C115.908 133.583 113.382 130.045 110.06 128.548C106.737 127.05 102.836 127.32 99.3836 128.489C89.2959 131.904 82.9083 142.343 81.2093 152.856C79.5102 163.37 81.6454 174.083 83.7734 184.518C92.6018 175.766 103.326 168.935 114.989 164.634C122.367 161.913 131.113 159.319 134.006 152.005C135.956 147.072 134.178 140.928 129.895 137.799L129.893 137.798Z" fill="#292926"/>
</g>
<path d="M85.8569 178.1C84.2896 169.874 83.1525 161.512 84.4657 153.382C86.166 142.868 92.4362 134.322 100.443 131.612C101.985 131.091 103.555 130.815 104.985 130.815C106.366 130.815 107.619 131.063 108.707 131.554C110.806 132.501 112.27 134.567 112.245 136.476L107.506 148.693L117.199 140.759C118.694 139.535 120.679 138.861 122.795 138.861C124.707 138.861 126.539 139.429 127.952 140.46C131.03 142.709 132.343 147.247 130.943 150.793C128.838 156.114 122.177 158.523 115.738 160.854L113.852 161.542C103.666 165.297 94.0885 170.971 85.8569 178.098V178.1Z" fill="#292926"/>
<path d="M89.9584 167.993C89.8961 167.993 89.8338 167.979 89.7751 167.954C89.5498 167.852 89.4479 167.586 89.5486 167.36C94.9573 155.27 104.108 144.727 115.32 137.676C115.526 137.543 115.805 137.606 115.939 137.817C116.071 138.027 116.008 138.305 115.798 138.437C104.737 145.396 95.7062 155.797 90.3706 167.728C90.2963 167.894 90.1321 167.994 89.9596 167.994L89.9584 167.993Z" fill="#292926"/>
<path d="M101.621 160.577C101.384 160.577 101.185 160.391 101.172 160.152C101.032 157.39 100.495 154.666 99.5747 152.057C99.492 151.823 99.6142 151.567 99.8491 151.484C100.087 151.4 100.34 151.523 100.423 151.758C101.372 154.449 101.926 157.258 102.072 160.105C102.084 160.353 101.893 160.565 101.646 160.578H101.622L101.621 160.577Z" fill="#292926"/>
<path d="M86.7622 149.767C86.6256 149.767 86.489 149.705 86.4015 149.586C86.2529 149.386 86.2949 149.106 86.4938 148.957C91.8054 145.014 99.0605 143.67 105.428 145.451C105.667 145.518 105.806 145.766 105.74 146.005C105.673 146.243 105.422 146.382 105.187 146.316C99.0785 144.607 92.1229 145.897 87.0306 149.678C86.9503 149.738 86.8556 149.767 86.7622 149.767Z" fill="#292926"/>
<path d="M114.311 154.955C114.291 154.955 114.272 154.955 114.25 154.952C114.004 154.918 113.832 154.692 113.867 154.446C114.527 149.621 114.282 144.772 113.142 140.036C113.083 139.796 113.232 139.552 113.472 139.494C113.72 139.435 113.956 139.586 114.014 139.826C115.183 144.67 115.433 149.63 114.756 154.567C114.726 154.792 114.532 154.955 114.311 154.955Z" fill="#292926"/>
<path d="M172.576 143.275C170.574 141.165 167.831 139.491 164.929 139.696C162.22 139.887 159.656 142.248 159.74 144.892C158.122 141.999 153.03 140.571 149.802 141.198C146.31 141.876 143.613 145.4 143.871 148.946C144.069 151.681 145.786 154.1 147.851 155.904C149.915 157.709 152.345 159.034 154.582 160.619C162.465 166.208 167.823 175.228 168.955 184.824C172.642 178.323 176.287 171.621 177.642 164.271C178.998 156.922 177.717 148.699 172.575 143.276L172.576 143.275Z" fill="#292926"/>
<g opacity="0.3">
<path d="M172.574 143.275C170.572 141.165 167.829 139.491 164.927 139.696C162.218 139.887 159.654 142.248 159.738 144.892C158.12 141.999 153.028 140.571 149.8 141.198C146.308 141.876 143.611 145.4 143.869 148.946C144.067 151.681 145.785 154.1 147.849 155.904C149.914 157.709 152.343 159.034 154.581 160.619C162.463 166.208 167.821 175.228 168.953 184.824C172.64 178.323 176.285 171.621 177.64 164.271C178.996 156.922 177.715 148.699 172.573 143.276L172.574 143.275Z" fill="#292926"/>
</g>
<path d="M162.197 147.219C162.197 147.219 162.806 145.878 165.395 146.273C165.769 146.273 166.727 146.691 167.79 147.812C170.983 151.177 172.271 157.026 171.157 163.074C170.865 164.658 170.443 166.223 169.911 167.782C166.978 162.866 163.054 158.542 158.393 155.238C157.536 154.631 156.654 154.058 155.772 153.485C154.436 152.619 153.174 151.802 152.189 150.94C151.037 149.931 150.483 148.973 150.447 148.474C150.447 148.225 150.821 147.735 151.062 147.668C151.171 147.647 151.297 147.644 151.429 147.644C152.662 147.644 161.893 146.945 162.196 147.217" fill="#292926"/>
<path d="M171.253 171.132C171.007 171.132 170.806 170.934 170.803 170.688C170.701 161.011 166.371 151.34 159.22 144.818C159.038 144.652 159.024 144.368 159.192 144.183C159.36 144.001 159.642 143.986 159.827 144.155C167.157 150.841 171.597 160.756 171.702 170.678C171.704 170.926 171.505 171.13 171.257 171.132H171.253Z" fill="#292926"/>
<path d="M159.567 158.592C159.551 158.592 159.536 158.592 159.519 158.589C159.272 158.563 159.093 158.341 159.12 158.095C159.496 154.607 160.488 151.249 162.064 148.118C162.174 147.897 162.444 147.807 162.668 147.918C162.889 148.03 162.978 148.299 162.867 148.521C161.339 151.556 160.379 154.809 160.014 158.189C159.988 158.419 159.793 158.591 159.567 158.591V158.592Z" fill="#292926"/>
<path d="M173.724 159.345C173.571 159.345 173.421 159.268 173.337 159.124C171.837 156.584 169.518 154.545 166.807 153.384C166.58 153.286 166.474 153.023 166.571 152.795C166.668 152.565 166.935 152.462 167.161 152.559C170.046 153.794 172.516 155.964 174.113 158.669C174.237 158.882 174.168 159.157 173.953 159.284C173.881 159.326 173.804 159.347 173.726 159.347L173.724 159.345Z" fill="#292926"/>
<path d="M231.719 124.584C230.058 122.833 227.78 121.443 225.37 121.613C223.121 121.771 220.992 123.732 221.061 125.926C219.718 123.525 215.491 122.339 212.811 122.86C209.912 123.423 207.673 126.348 207.887 129.293C208.053 131.564 209.477 133.572 211.192 135.07C212.905 136.568 214.924 137.667 216.782 138.984C223.326 143.624 227.774 151.112 228.714 159.08C231.776 153.683 234.801 148.119 235.926 142.017C237.051 135.914 235.99 129.088 231.719 124.585V124.584Z" fill="#292926"/>
<g opacity="0.3">
<path d="M231.719 124.584C230.058 122.833 227.78 121.443 225.37 121.613C223.121 121.771 220.992 123.732 221.061 125.926C219.718 123.525 215.491 122.339 212.811 122.86C209.912 123.423 207.673 126.348 207.887 129.293C208.053 131.564 209.477 133.572 211.192 135.07C212.905 136.568 214.924 137.667 216.782 138.984C223.326 143.624 227.774 151.112 228.714 159.08C231.776 153.683 234.801 148.119 235.926 142.017C237.051 135.914 235.99 129.088 231.719 124.585V124.584Z" fill="#292926"/>
</g>
<path d="M226.987 126.027H224.93C223.245 126.419 223.532 128.337 223.532 128.337C223.532 128.337 219.379 126.151 216.542 126.397C213.705 126.644 214.86 129.418 214.86 129.418C215.024 129.618 215.243 129.851 215.535 130.106C216.291 130.768 217.306 131.426 218.379 132.121C219.125 132.605 219.869 133.09 220.593 133.603C223.916 135.958 226.803 138.92 229.128 142.275C229.246 141.791 229.353 141.305 229.443 140.818C230.306 136.144 229.4 128.571 226.985 126.027H226.987Z" fill="#292926"/>
<path d="M231.065 147.79C230.833 147.79 230.636 147.611 230.617 147.375C230 139.451 226.446 131.662 220.863 126.004C220.688 125.828 220.689 125.543 220.866 125.369C221.044 125.196 221.329 125.197 221.501 125.374C227.231 131.179 230.88 139.174 231.512 147.306C231.532 147.554 231.346 147.77 231.099 147.789H231.064L231.065 147.79Z" fill="#292926"/>
<path d="M221.698 136.494C221.473 136.494 221.279 136.326 221.253 136.097C220.952 133.537 221.701 130.914 223.308 128.9C223.463 128.706 223.746 128.675 223.938 128.828C224.132 128.983 224.163 129.266 224.01 129.46C222.553 131.288 221.873 133.669 222.144 135.992C222.173 136.239 221.997 136.462 221.751 136.491C221.733 136.492 221.715 136.493 221.698 136.493V136.494Z" fill="#292926"/>
<path d="M233.53 137.529C233.393 137.529 233.255 137.465 233.168 137.346C231.777 135.464 229.651 134.177 227.339 133.817C227.093 133.778 226.925 133.548 226.965 133.304C227.002 133.059 227.227 132.893 227.478 132.929C230.024 133.327 232.361 134.742 233.893 136.813C234.04 137.013 233.998 137.294 233.798 137.441C233.719 137.5 233.624 137.529 233.531 137.529H233.53Z" fill="#292926"/>
<path d="M68.531 158.627C65.6193 157.46 60.8229 159.287 57.9449 159.564C57.9856 154.856 50.7077 151.139 46.0779 152C41.448 152.861 37.8726 156.569 35.2893 160.506C28.6524 170.62 26.558 183.599 29.6793 195.286C31.1147 189.678 35.0592 184.929 39.8412 181.664C44.6233 178.399 50.2081 176.495 55.8444 175.167C59.0376 174.416 62.3231 173.818 65.2215 172.282C68.12 170.746 70.6362 168.045 70.9621 164.781C71.2736 161.66 71.4438 159.795 68.5322 158.627H68.531Z" fill="#292926"/>
<g opacity="0.3">
<path d="M68.531 158.627C65.6193 157.46 60.8229 159.287 57.9449 159.564C57.9856 154.856 50.7077 151.139 46.0779 152C41.448 152.861 37.8726 156.569 35.2893 160.506C28.6524 170.62 26.558 183.599 29.6793 195.286C31.1147 189.678 35.0592 184.929 39.8412 181.664C44.6233 178.399 50.2081 176.495 55.8444 175.167C59.0376 174.416 62.3231 173.818 65.2215 172.282C68.12 170.746 70.6362 168.045 70.9621 164.781C71.2736 161.66 71.4438 159.795 68.5322 158.627H68.531Z" fill="#292926"/>
</g>
<path d="M63.836 165.149C63.4598 165.579 62.8966 166.053 62.1358 166.455C60.4331 167.359 58.1733 167.872 55.7841 168.414L54.3319 168.749C46.7569 170.534 40.972 172.906 36.124 176.217C35.9731 176.321 35.8221 176.428 35.6699 176.532C36.6033 172.123 38.3323 167.885 40.8018 164.12C42.9394 160.862 45.2412 158.86 47.2853 158.48H47.314C48.9041 158.48 50.4569 158.25 50.9853 160.383L50.6966 162.403L59.5752 161.449C59.5752 161.449 65.8035 161.969 63.836 165.148V165.149Z" fill="#292926"/>
<path d="M31.8126 184.766C31.7707 184.766 31.7275 184.76 31.6844 184.747C31.4472 184.676 31.3106 184.426 31.3825 184.188C35.0118 171.982 45.3787 162.265 57.7932 159.432C58.0317 159.373 58.2749 159.53 58.33 159.77C58.3863 160.011 58.2341 160.252 57.9921 160.307C45.8891 163.07 35.7823 172.544 32.2428 184.444C32.1853 184.639 32.0055 184.766 31.8126 184.766Z" fill="#292926"/>
<path d="M51.593 171.967C51.569 171.967 51.5463 171.965 51.5211 171.961C51.2767 171.921 51.1089 171.69 51.1485 171.446C51.6002 168.642 51.3941 165.726 50.5518 163.009C50.4775 162.772 50.6117 162.52 50.8477 162.446C51.0838 162.372 51.3366 162.506 51.4109 162.742C52.2927 165.59 52.5096 168.649 52.0351 171.588C52.0004 171.81 51.8099 171.966 51.5918 171.966L51.593 171.967Z" fill="#292926"/>
<path d="M45.7268 165.645C45.6118 165.645 45.498 165.602 45.4093 165.515C44.3585 164.47 42.9087 163.799 41.4301 163.674C41.1821 163.653 40.9988 163.436 41.0191 163.189C41.0395 162.942 41.2384 162.761 41.5044 162.778C43.1903 162.921 44.845 163.686 46.0432 164.879C46.2181 165.054 46.2193 165.338 46.0432 165.514C45.9557 165.601 45.8407 165.645 45.7244 165.645H45.7268Z" fill="#292926"/>
<path d="M39.838 176.658C39.6343 176.658 39.4509 176.52 39.4018 176.313C38.974 174.526 38.9705 172.638 39.3898 170.848C39.4474 170.606 39.6858 170.457 39.9302 170.514C40.1711 170.571 40.3208 170.812 40.2645 171.054C39.8763 172.706 39.8799 174.453 40.2741 176.104C40.3328 176.345 40.1843 176.587 39.9422 176.645C39.9075 176.654 39.8715 176.658 39.838 176.658Z" fill="#292926"/>
<path d="M159.668 23.3339C159.078 15.1394 156.454 6.16008 149.338 2.05504C140.418 -3.09243 128.624 2.11135 122.159 10.1285C116.68 6.43087 110.058 2.56668 103.852 4.84446C96.8905 7.39902 94.687 16.9726 97.8491 23.679C101.012 30.3865 107.845 34.5718 114.693 37.4115C121.544 40.2513 128.856 42.1828 135.065 46.2375C141.273 50.2922 146.352 57.2286 145.494 64.5951C154.353 51.3227 160.811 39.2496 159.667 23.3339H159.668Z" fill="#292926"/>
<g opacity="0.3">
<path d="M159.668 23.3339C159.078 15.1394 156.454 6.16008 149.338 2.05504C140.418 -3.09243 128.624 2.11135 122.159 10.1285C116.68 6.43087 110.058 2.56668 103.852 4.84446C96.8905 7.39902 94.687 16.9726 97.8491 23.679C101.012 30.3865 107.845 34.5718 114.693 37.4115C121.544 40.2513 128.856 42.1828 135.065 46.2375C141.273 50.2922 146.352 57.2286 145.494 64.5951C154.353 51.3227 160.811 39.2496 159.667 23.3339H159.668Z" fill="#292926"/>
</g>
<path d="M151.287 23.9319C151.042 20.4643 149.942 12.1009 145.136 9.32822C144.054 8.70036 142.847 8.39722 141.454 8.39722C137.267 8.39722 134.741 11.0596 131.415 15.1826C129.409 13.8275 117.857 11.3352 114.86 11.3352C114.479 11.3352 110.8 10.7445 106.744 12.7275C106.042 13.0714 105.547 13.8958 105.337 14.4062C104.62 16.1556 104.665 18.4417 105.444 20.0965C107.15 23.715 111.345 26.931 117.907 29.6509C119.846 30.4549 121.831 31.181 123.808 31.9083C129.065 33.8398 134.503 35.8384 139.658 39.2042C142.183 40.8553 144.718 42.9869 146.932 45.5175C150.245 38.4373 151.844 31.6675 151.287 23.9319Z" fill="#292926"/>
<path d="M148.456 51.9244C148.442 51.9244 148.427 51.9244 148.412 51.922C148.165 51.8968 147.985 51.6776 148.009 51.4308C148.873 42.7642 146.75 33.9574 142.031 26.634C137.162 19.0745 129.867 13.2141 122.017 10.5529C121.782 10.4738 121.655 10.2186 121.735 9.98258C121.815 9.74774 122.068 9.62192 122.305 9.7022C130.345 12.4269 137.81 18.4203 142.789 26.1475C147.616 33.6411 149.79 42.6515 148.904 51.5194C148.88 51.7507 148.685 51.9244 148.457 51.9244H148.456Z" fill="#292926"/>
<path d="M126.468 33.345C126.241 33.345 126.045 33.1737 126.021 32.9424C125.409 27.1036 126.719 19.8832 129.438 14.0971C129.545 13.8719 129.817 13.776 130.035 13.8814C130.261 13.9869 130.358 14.2553 130.252 14.4793C127.598 20.1241 126.321 27.1623 126.917 32.8478C126.942 33.0946 126.763 33.3163 126.516 33.3414C126.5 33.3426 126.485 33.3438 126.47 33.3438L126.468 33.345Z" fill="#292926"/>
<path d="M150.881 26.3954C150.75 26.3954 150.619 26.3379 150.53 26.2265C147.821 22.8332 143.281 20.9916 138.982 21.5343C138.724 21.5667 138.51 21.3894 138.48 21.1449C138.45 20.8981 138.624 20.674 138.869 20.6429C143.473 20.0605 148.33 22.034 151.231 25.6657C151.386 25.8598 151.355 26.1414 151.16 26.2972C151.078 26.3631 150.978 26.3954 150.88 26.3954H150.881Z" fill="#292926"/>
<path d="M226.043 49.1645C219.252 37.3898 207.608 28.5135 194.453 25.0878C192.306 19.4371 185.15 16.7939 179.335 18.4486C173.52 20.1033 169.148 25.131 166.778 30.6918C164.409 36.2539 163.744 42.3683 163.105 48.3797C175.878 43.6731 197.481 48.7128 209.17 55.6875C220.86 62.661 229.136 75.09 231.063 88.5661C234.684 75.4638 232.832 60.9404 226.042 49.1657L226.043 49.1645Z" fill="#292926"/>
<g opacity="0.3">
<path d="M226.043 49.1645C219.252 37.3898 207.608 28.5135 194.453 25.0878C192.306 19.4371 185.15 16.7939 179.335 18.4486C173.52 20.1033 169.148 25.131 166.778 30.6918C164.409 36.2539 163.744 42.3683 163.105 48.3797C175.878 43.6731 197.481 48.7128 209.17 55.6875C220.86 62.661 229.136 75.09 231.063 88.5661C234.684 75.4638 232.832 60.9404 226.042 49.1657L226.043 49.1645Z" fill="#292926"/>
</g>
<path d="M223.198 58.4686C220.046 55.219 216.472 52.3661 212.548 50.026C202.452 44.0015 187.383 39.9528 175.056 39.9528C173.614 39.9528 172.214 40.0079 170.861 40.1133C171.321 37.7133 171.94 35.4008 172.844 33.2752C174.705 28.9101 177.805 25.7373 181.141 24.7895C181.688 24.6338 182.28 24.5547 182.902 24.5547C185.352 24.5547 187.666 25.7912 188.292 27.4292L189.498 30.6092L192.792 31.4671C204.163 34.4291 214.461 42.2761 220.333 52.4584C221.44 54.3755 222.396 56.3885 223.198 58.4686Z" fill="#292926"/>
<path d="M163.692 48.5824C163.606 48.5824 163.517 48.5573 163.441 48.5057C163.235 48.3679 163.18 48.0876 163.318 47.8815C170.597 37.0557 182.059 29.1452 194.764 26.1773C195.001 26.1198 195.247 26.2707 195.303 26.5128C195.359 26.7548 195.209 26.9956 194.967 27.0532C182.482 29.9696 171.219 37.7435 164.065 48.3835C163.978 48.5117 163.836 48.5824 163.691 48.5824H163.692Z" fill="#292926"/>
<path d="M197.391 36.3272C197.319 36.3272 197.248 36.3104 197.181 36.2756C191.316 33.1915 184.061 32.5972 177.773 34.688C177.535 34.7659 177.282 34.6377 177.205 34.4028C177.127 34.168 177.254 33.9128 177.489 33.8349C184.006 31.6697 191.522 32.2844 197.599 35.48C197.818 35.5963 197.903 35.8671 197.787 36.0863C197.707 36.2397 197.551 36.3272 197.389 36.3272H197.391Z" fill="#292926"/>
<path d="M200.37 85.7231C197.674 77.6664 191.775 70.3262 183.713 67.647C175.65 64.9691 166.036 69.4443 162.199 77.0254C155.092 71.5939 144.733 70.1441 137.016 74.6673C129.301 79.1905 125.582 90.0606 130.02 97.8249C133.877 104.572 141.995 107.335 149.299 109.989C166.979 116.416 183.77 125.282 199.049 136.256C199.421 127.768 201.114 119.399 202.033 110.952C202.952 102.506 203.066 93.7774 200.37 85.7207V85.7231Z" fill="#292926"/>
<g opacity="0.3">
<path d="M200.37 85.7231C197.674 77.6664 191.775 70.3262 183.713 67.647C175.65 64.9691 166.036 69.4443 162.199 77.0254C155.092 71.5939 144.733 70.1441 137.016 74.6673C129.301 79.1905 125.582 90.0606 130.02 97.8249C133.877 104.572 141.995 107.335 149.299 109.989C166.979 116.416 183.77 125.282 199.049 136.256C199.421 127.768 201.114 119.399 202.033 110.952C202.952 102.506 203.066 93.7774 200.37 85.7207V85.7231Z" fill="#292926"/>
</g>
<path d="M193.554 124.559C180.371 116.115 166.29 109.148 151.554 103.793L150.827 103.529C144.655 101.292 138.278 98.9775 135.748 94.5526C133.263 90.2067 135.545 83.1744 140.355 80.3539C142.344 79.188 144.758 78.5722 147.334 78.5722C151.169 78.5722 155.129 79.9177 158.196 82.2626L177.824 93.038L169.025 76.6443C171.044 74.5774 174.26 73.2881 177.702 73.2881C179.083 73.2881 180.406 73.4942 181.635 73.9028C187.069 75.7085 191.854 81.0381 194.119 87.8139C196.102 93.739 196.52 100.655 195.48 110.243C195.149 113.282 194.715 116.314 194.28 119.347C194.032 121.066 193.785 122.805 193.554 124.559Z" fill="#292926"/>
<path d="M188.779 112.792C188.607 112.792 188.443 112.692 188.368 112.523C180.748 95.2237 170.455 84.6088 161.392 76.5054C161.207 76.34 161.191 76.056 161.357 75.8703C161.524 75.6846 161.809 75.6702 161.991 75.8344C171.125 84.0013 181.5 94.7036 189.189 112.159C189.29 112.387 189.187 112.651 188.96 112.752C188.9 112.777 188.839 112.79 188.779 112.79V112.792Z" fill="#292926"/>
<path d="M165.108 99.1357C164.882 99.1357 164.688 98.968 164.662 98.7391C163.995 93.1255 165.001 87.24 167.495 82.168C167.606 81.9463 167.878 81.8529 168.096 81.9631C168.32 82.0721 168.411 82.3417 168.302 82.5646C165.883 87.4832 164.908 93.1903 165.553 98.6325C165.582 98.8793 165.407 99.1034 165.16 99.1321C165.142 99.1333 165.126 99.1345 165.108 99.1345V99.1357Z" fill="#292926"/>
<path d="M193.866 96.4146C193.768 96.4146 193.668 96.3822 193.587 96.3163C188.637 92.3682 182.175 90.3433 175.857 90.7459C175.58 90.7579 175.394 90.5733 175.38 90.3265C175.363 90.0785 175.552 89.8652 175.799 89.8496C182.349 89.4255 189.026 91.5283 194.146 95.6154C194.34 95.7699 194.371 96.0527 194.218 96.2468C194.129 96.3583 193.999 96.4158 193.867 96.4158L193.866 96.4146Z" fill="#292926"/>
<path d="M183.282 115.623C183.094 115.623 182.919 115.504 182.857 115.316C181.736 111.97 182.089 108.127 183.798 105.039C183.918 104.821 184.193 104.743 184.41 104.864C184.628 104.985 184.705 105.259 184.584 105.475C182.994 108.346 182.666 111.919 183.709 115.031C183.786 115.267 183.661 115.521 183.426 115.6C183.378 115.616 183.33 115.624 183.283 115.624L183.282 115.623Z" fill="#292926"/>
<path d="M85.4369 29.7972C77.1884 24.5922 65.4449 25.8036 58.433 32.5842C49.1062 29.7133 38.562 31.0817 30.2765 36.2375C21.9909 41.3946 16.1077 50.2505 14.5645 59.8864C25.4621 51.4427 39.2079 46.7445 52.9932 46.7529C66.7785 46.7601 83.6527 46.9147 94.5408 55.3716C97.6441 46.1251 93.6841 35.0034 85.4356 29.7972H85.4369Z" fill="#292926"/>
<g opacity="0.3">
<path d="M85.4369 29.7972C77.1884 24.5922 65.4449 25.8036 58.433 32.5842C49.1062 29.7133 38.562 31.0817 30.2765 36.2375C21.9909 41.3946 16.1077 50.2505 14.5645 59.8864C25.4621 51.4427 39.2079 46.7445 52.9932 46.7529C66.7785 46.7601 83.6527 46.9147 94.5408 55.3716C97.6441 46.1251 93.6841 35.0034 85.4356 29.7972H85.4369Z" fill="#292926"/>
</g>
<path d="M88.4077 44.5494C76.9181 40.1724 63.4875 40.1664 52.9948 40.1604C45.536 40.1604 38.1383 41.3825 31.1133 43.7154C31.9568 43.0361 32.8387 42.407 33.7589 41.8355C38.0437 39.1683 43.2714 37.7005 48.4872 37.7005C51.2467 37.7005 53.9378 38.0995 56.4936 38.8855L60.2152 40.0298L63.0154 37.3242C65.7485 34.681 69.7109 33.1653 73.8867 33.1653C76.8486 33.1653 79.6261 33.9285 81.9158 35.3736C85.0935 37.3794 87.388 40.8074 88.4065 44.5506L88.4077 44.5494Z" fill="#292926"/>
<path d="M94.5417 55.8208C94.362 55.8208 94.1907 55.7105 94.1212 55.532C91.2275 47.9642 88.6682 44.4319 82.7143 39.79C76.8299 35.2009 66.511 32.2018 58.6856 32.8249C58.4483 32.8429 58.2219 32.6595 58.2027 32.4127C58.1823 32.1647 58.3681 31.949 58.6161 31.9286C66.6368 31.3008 77.2265 34.3718 83.2667 39.0819C89.3739 43.8448 91.9968 47.4621 94.9611 55.2121C95.0486 55.4433 94.9335 55.7034 94.7011 55.792C94.6484 55.8124 94.5945 55.822 94.5405 55.822L94.5417 55.8208Z" fill="#292926"/>
<path d="M60.2405 41.7276C60.098 41.7276 59.9589 41.6593 59.8703 41.5334C59.7301 41.3298 59.7804 41.0494 59.9853 40.908C64.8165 37.5698 70.7092 35.5736 76.5756 35.2908C76.856 35.2717 77.0357 35.4705 77.0477 35.7174C77.0597 35.9654 76.868 36.1763 76.6211 36.1883C70.9189 36.4639 65.1927 38.4038 60.4969 41.6485C60.4203 41.7024 60.3304 41.7276 60.2417 41.7276H60.2405Z" fill="#292926"/>
<path d="M71.776 34.0889C71.5424 34.0889 71.3458 33.908 71.3278 33.6719C71.1865 31.7021 70.8821 29.7251 70.4244 27.7948C70.3669 27.5527 70.5167 27.3119 70.7575 27.2544C71.002 27.1957 71.2416 27.3466 71.2991 27.5875C71.7676 29.5633 72.0779 31.5895 72.2229 33.6072C72.2409 33.8553 72.054 34.0697 71.8072 34.0877H71.7748L71.776 34.0889Z" fill="#292926"/>
<path d="M157.443 203.268H80.8539C78.7331 203.268 77.0137 201.549 77.0137 199.428C77.0137 197.307 78.7331 195.588 80.8539 195.588H157.443C159.564 195.588 161.283 197.307 161.283 199.428C161.283 201.549 159.564 203.268 157.443 203.268Z" fill="#292926"/>
<path d="M123.062 201.553H83.6797C83.6797 201.553 88.9626 208.142 89.2454 218.04C89.5054 227.1 87.0478 255.916 114.627 260.737H123.062C150.64 255.917 148.184 227.1 148.442 218.04C148.726 208.142 154.009 201.553 154.009 201.553H123.062Z" fill="#292926"/>
<path opacity="0.1" d="M84.8438 203.268H152.848L150.877 207.107H86.4913L84.8438 203.268Z" fill="#292926"/>
<path d="M134.306 255.3H103.73V260.736H134.306V255.3Z" fill="#292926"/>
<path d="M12.8535 114.009C16.2864 108.435 25.0512 106.891 30.1699 110.98C24.0879 110.35 18.3569 111.339 12.8535 114.009Z" fill="#292926"/>
<path d="M173.205 41.1872C193.003 37.2571 215.029 45.5318 227.318 61.5494C212.638 48.1199 193.099 40.7546 173.205 41.1872Z" fill="#292926"/>
<path d="M107.893 8.71241C106.144 8.97362 104.909 10.2185 104.198 11.6348C102.027 16.043 103.797 21.2947 106.555 25.0786C110.485 30.5484 116.882 33.4744 122.594 36.936C119.244 36.053 115.956 34.9338 112.832 33.2959C106.482 30.0967 100.891 23.7067 101.388 16.1832C101.513 12.7456 103.964 8.28106 107.893 8.71241Z" fill="#292926"/>
<path d="M23.9863 48.7766C30.7861 42.4381 41.2344 39.9351 50.1622 42.5388C41.0787 43.3523 32.4564 45.3941 23.9863 48.7766Z" fill="#292926"/>
<path d="M59.9497 73.9832C52.5964 76.9739 50.1089 85.0438 49.8896 92.3504C49.7542 94.8822 49.7674 97.4727 49.5529 100.1C48.0168 95.0248 47.268 89.6161 48.6303 84.3632C49.9987 79.2421 54.3493 74.0227 59.9497 73.9832Z" fill="#292926"/>
<path d="M53.4639 157.578C50.1545 156.228 47.244 155.592 43.6758 155.397C46.2399 152.08 52.5437 153.494 53.4639 157.578Z" fill="#292926"/>
<path d="M112.167 135.553C104.853 132.004 96.1146 135.125 91.9281 141.829C90.4831 144.001 89.4023 146.453 88.6031 149.108C88.2245 143.423 91.1528 137.545 96.0379 134.435C100.881 131.355 108.082 131.342 112.167 135.553Z" fill="#292926"/>
<path d="M150.569 144.023C149.183 146.645 149.057 149.004 150.118 151.772C145.762 151.239 146.187 144.055 150.569 144.023Z" fill="#292926"/>
<path d="M194.338 158.278C197.051 158.75 198.868 161.774 197.986 164.388C195.801 162.971 194.56 160.869 194.338 158.278Z" fill="#292926"/>
<path d="M212.758 125.417C212.692 128.256 213.3 130.299 214.876 132.66C210.912 133.37 209.047 126.959 212.758 125.417Z" fill="#292926"/>
<path d="M143.355 79.676C136.442 82.6823 135.1 91.4555 139.068 97.3303C140.32 99.3097 142.006 101.064 143.964 102.668C141.532 101.945 139.28 100.464 137.566 98.4434C131.893 92.3063 134.207 80.3914 143.355 79.676Z" fill="#292926"/>
<path opacity="0.3" d="M92.7734 210.263C92.7734 210.263 94.4198 214.137 94.548 220.702C94.621 224.446 92.9939 232.988 96.2962 241.339C99.5984 249.691 106.396 253.77 106.396 253.77H112.223C112.223 253.77 101.929 246.777 99.7925 234.929C97.6561 223.081 98.8076 216.069 92.7734 210.262V210.263Z" fill="#292926"/>
<path d="M177.84 275.991H89.5301H64.1582V260.434H177.84V275.991Z" fill="#292926"/>
<path d="M64.1582 381.585L83.5607 268.556H103.741L73.2454 381.885L64.1582 381.585Z" fill="#292926"/>
<path d="M181.571 381.585L162.168 268.556H141.988L172.484 381.885L181.571 381.585Z" fill="#292926"/>
<path opacity="0.2" d="M81.0371 286.945L82.2832 275.991H101.738L98.7908 286.945H81.0371Z" fill="#292926"/>
<path opacity="0.2" d="M143.99 275.991H163.445L165.159 285.972H146.675L143.99 275.991Z" fill="#292926"/>
</svg>
