<svg width="564" height="90" viewBox="0 0 564 90" fill="none" xmlns="http://www.w3.org/2000/svg">
<path d="M563.845 85.132C563.845 87.722 437.625 89.816 281.923 89.816C126.22 89.816 0 87.722 0 85.132C0 82.542 126.22 80.449 281.923 80.449C437.625 80.449 563.845 82.542 563.845 85.132Z" fill="#292926"/>
<path d="M532.41 48.903C531.728 45.954 518.604 49.308 518.604 49.308C518.604 49.308 541.054 38.841 535.068 35.709C529.082 32.577 514.77 44.021 514.77 44.021C514.77 44.021 540.819 19.978 530.776 17.786C520.733 15.593 507.173 42.035 507.173 42.035C507.173 42.035 514.806 22.209 507.432 23.095C500.058 23.982 498.024 42.784 498.024 42.784C498.024 42.784 493.438 34.066 490.65 37.176C487.863 40.285 499.247 57.987 499.247 57.987C511.783 56.322 533.128 51.86 532.41 48.903Z" fill="#292926"/>
<path opacity="0.3" d="M499.104 58.2472H499.045C499.01 58.2362 498.983 58.2162 498.97 58.1912C498.957 58.1672 498.958 58.1412 498.975 58.1172C499.069 58.0032 507.83 46.5432 514.075 39.0172C514.102 39.0022 514.138 38.9932 514.175 38.9932C514.211 38.9932 514.247 39.0022 514.275 39.0172C514.292 39.0232 514.308 39.0312 514.32 39.0412C514.333 39.0502 514.342 39.0622 514.348 39.0742C514.354 39.0862 514.355 39.0992 514.353 39.1112C514.35 39.1242 514.344 39.1362 514.333 39.1472C508.101 46.7032 499.328 58.1552 499.234 58.2472C499.214 58.2552 499.192 58.2582 499.169 58.2582C499.146 58.2582 499.124 58.2552 499.104 58.2472Z" fill="#292926"/>
<path opacity="0.3" d="M504.914 50.6529C504.877 50.6529 504.842 50.6429 504.815 50.6259C504.789 50.6089 504.773 50.5859 504.773 50.5609L504.645 42.3869C504.645 42.3619 504.658 42.3389 504.685 42.3219C504.711 42.3049 504.748 42.2949 504.786 42.2949C504.823 42.2949 504.858 42.3049 504.885 42.3219C504.911 42.3389 504.927 42.3619 504.927 42.3869L505.055 50.5539C505.057 50.5659 505.055 50.5789 505.049 50.5909C505.043 50.6029 505.032 50.6139 505.018 50.6239C505.005 50.6329 504.989 50.6399 504.971 50.6449C504.953 50.6499 504.934 50.6529 504.914 50.6529Z" fill="#292926"/>
<path d="M79.1787 42.02C75.9094 40.453 70.9467 47.887 70.9467 47.887C70.9467 47.887 74.8628 32.225 68.1126 32.699C61.3623 33.173 63.4086 46.168 63.4086 46.168C63.4086 46.168 56.4702 20.551 48.1206 23.248C39.771 25.945 56.7877 47.987 56.7877 47.987C56.7877 47.987 42.4287 32.538 38.6773 36.091C34.9259 39.644 51.7897 52.219 51.7897 52.219C51.7897 52.219 40.5119 48.644 41.7702 51.722C43.0285 54.801 67.2188 61.211 67.2188 61.211C73.4399 55.061 82.4598 43.586 79.1787 42.02Z" fill="#292926"/>
<path d="M383 10.925L316.332 0L172.813 38.184L38.7021 64.871L23.9668 85.132L554.484 83.902L524.955 64.871L383 10.925Z" fill="#292926"/>
<path opacity="0.5" d="M383 10.925L316.332 0L172.813 38.184L38.7021 64.871L23.9668 85.132L554.484 83.902L524.955 64.871L383 10.925Z" fill="#292926"/>
<path opacity="0.5" d="M172.812 38.184L275.325 22.224L316.331 0L172.812 38.184Z" fill="#292926"/>
<path opacity="0.3" d="M383 10.925L429.793 38.185L524.955 64.871L383 10.925Z" fill="#292926"/>
<path opacity="0.3" d="M38.7021 64.8711L172.813 38.1851L275.325 22.2251L333.114 84.4141L23.9668 85.1321L38.7021 64.8711Z" fill="#292926"/>
</svg>
