<svg width="640" height="512" viewBox="0 0 640 512" fill="none" xmlns="http://www.w3.org/2000/svg">
<path fill-rule="evenodd" clip-rule="evenodd" d="M374.459 209.965C374.459 213.261 376.864 215.93 379.827 215.93C380.061 215.93 380.284 215.885 380.51 215.849L388.77 230.733C384.587 233.703 381.794 238.233 381.794 244.19C381.794 244.222 381.798 244.254 381.798 244.254L371.968 244.282C369.269 244.282 367.083 247.397 367 250.412C367.083 253.43 369.272 255.85 371.968 255.85H421.532C424.231 255.85 426.417 253.43 426.5 250.412C426.417 247.397 424.228 244.282 421.532 244.282H411.702C411.702 244.282 411.71 244.222 411.71 244.194C411.71 234.949 405.009 228.145 396.75 228.145C395.584 228.145 394.459 228.305 393.371 228.587L384.568 212.69C384.953 211.87 385.187 210.954 385.187 209.965C385.187 206.669 382.783 204 379.82 204C376.856 204 374.459 206.665 374.459 209.965Z" fill="#292926"/>
<path d="M585.24 0H546.661C540.221 0 535 5.24051 535 11.705V31.1951C535 37.6596 540.221 42.9001 546.661 42.9001H585.24C591.68 42.9001 596.901 37.6596 596.901 31.1951V11.705C596.901 5.24051 591.68 0 585.24 0Z" fill="#292926"/>
<path d="M628.24 59H589.661C583.221 59 578 64.2405 578 70.705V90.1951C578 96.6596 583.221 101.9 589.661 101.9H628.24C634.68 101.9 639.901 96.6596 639.901 90.1951V70.705C639.901 64.2405 634.68 59 628.24 59Z" fill="#292926"/>
<path d="M602.24 118H563.661C557.221 118 552 123.241 552 129.705V149.195C552 155.66 557.221 160.9 563.661 160.9H602.24C608.68 160.9 613.901 155.66 613.901 149.195V129.705C613.901 123.241 608.68 118 602.24 118Z" fill="#292926"/>
<path d="M557.299 59H505.661C499.221 59 494 64.2405 494 70.705V90.1951C494 96.6596 499.221 101.9 505.661 101.9H557.299C563.74 101.9 568.96 96.6596 568.96 90.1951V70.705C568.96 64.2405 563.74 59 557.299 59Z" fill="#292926"/>
<path d="M533.156 190C551.57 190 569.129 204.969 572.383 223.438L578.454 258.079H511.798L505.708 223.438L533.156 190Z" fill="#1E293B"/>
<path d="M501 223.438C501 214.569 504.512 206.064 510.764 199.794C517.016 193.523 525.496 190 534.337 190C543.179 190 551.658 193.523 557.91 199.794C564.162 206.064 567.675 214.569 567.675 223.438V258.079H501V223.438Z" fill="#FF693D"/>
<path d="M501 223.438C501 214.569 504.512 206.064 510.764 199.794C517.016 193.523 525.496 190 534.337 190C543.179 190 551.658 193.523 557.91 199.794C564.162 206.064 567.675 214.569 567.675 223.438V258.079H501V223.438Z" fill="#292926"/>
<path d="M559.652 229.416C562.956 215.373 554.285 201.301 540.283 197.987C526.282 194.672 512.253 203.369 508.948 217.413C505.644 231.456 514.315 245.528 528.316 248.842C542.318 252.157 556.347 243.459 559.652 229.416Z" fill="#292926"/>
<path d="M559.652 229.416C562.956 215.373 554.285 201.301 540.283 197.987C526.282 194.672 512.253 203.369 508.948 217.413C505.644 231.456 514.315 245.528 528.316 248.842C542.318 252.157 556.347 243.459 559.652 229.416Z" fill="#FF693D"/>
<path opacity="0.2" d="M534.337 201.45C540.883 201.452 547.188 203.929 551.996 208.386C556.803 212.842 559.759 218.953 560.276 225.498C560.276 224.823 560.385 224.131 560.385 223.438C560.385 216.509 557.641 209.863 552.756 204.964C547.871 200.064 541.245 197.311 534.337 197.311C527.429 197.311 520.803 200.064 515.918 204.964C511.033 209.863 508.289 216.509 508.289 223.438C508.289 224.131 508.289 224.823 508.398 225.498C508.914 218.953 511.871 212.842 516.678 208.386C521.486 203.929 527.791 201.452 534.337 201.45Z" fill="#292926"/>
<path opacity="0.1" d="M550.788 223.42H537.1V209.692C536.994 209.043 536.662 208.453 536.162 208.028C535.663 207.602 535.029 207.368 534.373 207.368C533.718 207.368 533.084 207.602 532.585 208.028C532.085 208.453 531.753 209.043 531.647 209.692V226.192C531.647 226.927 531.938 227.632 532.456 228.151C532.974 228.671 533.677 228.963 534.41 228.963H550.86C551.507 228.857 552.095 228.523 552.519 228.022C552.944 227.521 553.176 226.885 553.176 226.228C553.176 225.571 552.944 224.935 552.519 224.434C552.095 223.933 551.507 223.6 550.86 223.493L550.788 223.42Z" fill="#292926"/>
<path d="M550.787 226.21C551.434 226.103 552.022 225.77 552.446 225.269C552.871 224.768 553.104 224.132 553.104 223.475C553.104 222.818 552.871 222.182 552.446 221.681C552.022 221.18 551.434 220.846 550.787 220.74H534.337C533.941 220.675 533.537 220.697 533.151 220.805C532.765 220.912 532.407 221.103 532.101 221.363C531.796 221.623 531.551 221.947 531.382 222.311C531.214 222.676 531.127 223.073 531.127 223.475C531.127 223.877 531.214 224.274 531.382 224.638C531.551 225.003 531.796 225.327 532.101 225.587C532.407 225.847 532.765 226.038 533.151 226.145C533.537 226.253 533.941 226.275 534.337 226.21H550.787Z" fill="#FF693D"/>
<path opacity="0.3" d="M550.787 226.21C551.434 226.103 552.022 225.77 552.446 225.269C552.871 224.768 553.104 224.132 553.104 223.475C553.104 222.818 552.871 222.182 552.446 221.681C552.022 221.18 551.434 220.846 550.787 220.74H534.337C533.941 220.675 533.537 220.697 533.151 220.805C532.765 220.912 532.407 221.103 532.101 221.363C531.796 221.623 531.551 221.947 531.382 222.311C531.214 222.676 531.127 223.073 531.127 223.475C531.127 223.877 531.214 224.274 531.382 224.638C531.551 225.003 531.796 225.327 532.101 225.587C532.407 225.847 532.765 226.038 533.151 226.145C533.537 226.253 533.941 226.275 534.337 226.21H550.787Z" fill="#292926"/>
<path d="M537.1 206.936C536.994 206.288 536.662 205.698 536.162 205.272C535.663 204.847 535.029 204.613 534.373 204.613C533.718 204.613 533.084 204.847 532.585 205.272C532.085 205.698 531.753 206.288 531.647 206.936V223.345C531.753 223.994 532.085 224.584 532.585 225.009C533.084 225.435 533.718 225.668 534.373 225.668C535.029 225.668 535.663 225.435 536.162 225.009C536.662 224.584 536.994 223.994 537.1 223.345V206.936Z" fill="#FF693D"/>
<path opacity="0.6" d="M537.1 206.936C536.994 206.288 536.662 205.698 536.162 205.272C535.663 204.847 535.029 204.613 534.373 204.613C533.718 204.613 533.084 204.847 532.585 205.272C532.085 205.698 531.753 206.288 531.647 206.936V223.345C531.753 223.994 532.085 224.584 532.585 225.009C533.084 225.435 533.718 225.668 534.373 225.668C535.029 225.668 535.663 225.435 536.162 225.009C536.662 224.584 536.994 223.994 537.1 223.345V206.936Z" fill="#292926"/>
<path d="M530.24 118H491.661C485.221 118 480 123.241 480 129.705V149.195C480 155.66 485.221 160.9 491.661 160.9H530.24C536.68 160.9 541.901 155.66 541.901 149.195V129.705C541.901 123.241 536.68 118 530.24 118Z" fill="#292926"/>
<path d="M609.103 256H362V486.836H609.103V256Z" fill="#292926"/>
<path opacity="0.2" d="M525.56 256H362V486.836H525.56V256Z" fill="#292926"/>
<path opacity="0.6" d="M609.103 256H362V486.836H609.103V256Z" fill="#292926"/>
<path d="M507.801 273.812H379.778V331.298H507.801V273.812Z" fill="#292926"/>
<path opacity="0.5" d="M507.801 273.812H379.778V331.298H507.801V273.812Z" fill="#292926"/>
<g opacity="0.4">
<path d="M494.913 325.317H392.684V323.95C392.686 323.206 392.542 322.469 392.26 321.782C391.978 321.094 391.563 320.469 391.04 319.942C390.516 319.415 389.894 318.997 389.209 318.712C388.524 318.427 387.79 318.28 387.049 318.28H385.685V286.775H387.049C387.79 286.775 388.524 286.628 389.209 286.343C389.894 286.058 390.516 285.64 391.04 285.113C391.563 284.586 391.978 283.961 392.26 283.273C392.542 282.585 392.686 281.848 392.684 281.105V279.737H494.913V281.105C494.913 282.609 495.509 284.051 496.569 285.114C497.629 286.177 499.067 286.775 500.566 286.775H501.929V318.353H500.566C499.067 318.353 497.629 318.95 496.569 320.014C495.509 321.077 494.913 322.519 494.913 324.023V325.317ZM395.337 322.583H492.295C492.585 320.851 493.406 319.252 494.644 318.011C495.883 316.769 497.476 315.945 499.203 315.655V289.4C497.476 289.11 495.883 288.286 494.644 287.044C493.406 285.802 492.585 284.204 492.295 282.472H395.301C395.015 284.203 394.197 285.8 392.962 287.042C391.727 288.285 390.137 289.109 388.412 289.4V315.727C390.137 316.019 391.727 316.843 392.962 318.085C394.197 319.327 395.015 320.925 395.301 322.656L395.337 322.583Z" fill="#292926"/>
</g>
<path d="M448.906 304.371H438.654C436.423 304.367 434.285 303.476 432.708 301.894C431.131 300.312 430.242 298.167 430.238 295.93V293.614H429.147C428.424 293.614 427.73 293.326 427.219 292.813C426.708 292.301 426.42 291.605 426.42 290.88C426.42 290.154 426.708 289.459 427.219 288.946C427.73 288.433 428.424 288.145 429.147 288.145H431.71C432.234 288.145 432.753 288.249 433.238 288.45C433.722 288.652 434.161 288.948 434.531 289.321C434.901 289.693 435.194 290.136 435.393 290.622C435.592 291.109 435.693 291.63 435.691 292.156V295.93C435.691 296.32 435.767 296.707 435.916 297.067C436.065 297.428 436.284 297.755 436.559 298.031C436.834 298.307 437.16 298.526 437.52 298.675C437.879 298.825 438.265 298.902 438.654 298.902H448.906C449.692 298.902 450.445 298.589 451.001 298.031C451.557 297.474 451.869 296.718 451.869 295.93V292.156C451.869 291.092 452.29 290.072 453.04 289.32C453.79 288.567 454.807 288.145 455.868 288.145H458.413C459.136 288.145 459.829 288.433 460.341 288.946C460.852 289.459 461.139 290.154 461.139 290.88C461.139 291.605 460.852 292.301 460.341 292.813C459.829 293.326 459.136 293.614 458.413 293.614H457.322V295.93C457.322 298.169 456.435 300.316 454.857 301.899C453.279 303.482 451.138 304.371 448.906 304.371Z" fill="#292926"/>
<path d="M507.801 341.562H379.778V399.047H507.801V341.562Z" fill="#292926"/>
<path opacity="0.5" d="M507.801 341.562H379.778V399.047H507.801V341.562Z" fill="#292926"/>
<g opacity="0.4">
<path d="M494.913 393.125H392.684V391.758C392.684 390.257 392.09 388.817 391.034 387.755C389.978 386.692 388.545 386.092 387.049 386.087H385.685V354.491H387.049C388.543 354.491 389.976 353.896 391.033 352.836C392.09 351.776 392.684 350.338 392.684 348.839V347.472H494.913V348.839C494.913 349.583 495.059 350.32 495.344 351.006C495.628 351.693 496.045 352.317 496.57 352.842C497.095 353.367 497.718 353.783 498.404 354.066C499.09 354.349 499.825 354.494 500.566 354.491H501.929V386.069H500.566C499.824 386.069 499.089 386.216 498.403 386.501C497.717 386.786 497.094 387.203 496.569 387.73C496.044 388.257 495.627 388.882 495.343 389.57C495.059 390.257 494.913 390.995 494.913 391.739V393.125ZM395.337 390.39H492.295C492.585 388.658 493.406 387.06 494.644 385.818C495.883 384.576 497.476 383.753 499.203 383.462V357.135C497.477 356.848 495.885 356.028 494.646 354.789C493.408 353.55 492.586 351.955 492.295 350.225H395.301C395.014 351.953 394.196 353.548 392.961 354.787C391.725 356.026 390.135 356.847 388.412 357.135V383.462C390.137 383.754 391.727 384.578 392.962 385.82C394.197 387.062 395.015 388.66 395.301 390.39H395.337Z" fill="#292926"/>
</g>
<path d="M448.906 372.1H438.654C436.422 372.1 434.281 371.211 432.703 369.628C431.124 368.045 430.238 365.898 430.238 363.659V361.343H429.147C428.424 361.343 427.73 361.055 427.219 360.542C426.708 360.029 426.42 359.334 426.42 358.609C426.42 357.883 426.708 357.188 427.219 356.675C427.73 356.162 428.424 355.874 429.147 355.874H431.71C432.767 355.879 433.78 356.303 434.526 357.055C435.272 357.807 435.691 358.824 435.691 359.885V363.604C435.691 364.392 436.003 365.148 436.559 365.706C437.114 366.263 437.868 366.576 438.654 366.576H448.906C449.692 366.576 450.445 366.263 451.001 365.706C451.557 365.148 451.869 364.392 451.869 363.604V359.958C451.873 358.895 452.296 357.878 453.045 357.127C453.794 356.376 454.809 355.951 455.868 355.947H458.413C459.136 355.947 459.829 356.235 460.341 356.748C460.852 357.261 461.139 357.956 461.139 358.681C461.139 359.407 460.852 360.102 460.341 360.615C459.829 361.128 459.136 361.416 458.413 361.416H457.322V363.604C457.329 364.717 457.117 365.821 456.697 366.851C456.277 367.882 455.658 368.819 454.876 369.609C454.094 370.398 453.164 371.025 452.139 371.453C451.114 371.88 450.016 372.1 448.906 372.1Z" fill="#292926"/>
<path d="M507.801 409.295H379.778V466.781H507.801V409.295Z" fill="#292926"/>
<path opacity="0.5" d="M507.801 409.295H379.778V466.781H507.801V409.295Z" fill="#292926"/>
<g opacity="0.4">
<path d="M494.913 460.857H392.684V459.489C392.684 457.99 392.09 456.553 391.033 455.493C389.976 454.433 388.543 453.837 387.049 453.837H385.685V422.259H387.049C388.545 422.254 389.978 421.655 391.034 420.592C392.09 419.529 392.684 418.09 392.684 416.589V415.222H494.913V416.589C494.913 418.093 495.509 419.535 496.569 420.598C497.629 421.662 499.067 422.259 500.566 422.259H501.929V453.837H500.566C499.825 453.835 499.09 453.979 498.404 454.262C497.718 454.545 497.095 454.961 496.57 455.486C496.045 456.011 495.628 456.635 495.344 457.322C495.059 458.009 494.913 458.745 494.913 459.489V460.857ZM395.337 458.122H492.295C492.586 456.392 493.408 454.796 494.646 453.558C495.885 452.319 497.477 451.499 499.203 451.212V424.885C497.476 424.594 495.883 423.77 494.644 422.529C493.406 421.287 492.585 419.689 492.295 417.956H395.301C395.015 419.687 394.197 421.285 392.962 422.527C391.727 423.769 390.137 424.593 388.412 424.885V451.212C390.135 451.5 391.725 452.32 392.961 453.559C394.196 454.798 395.014 456.393 395.301 458.122H395.337Z" fill="#292926"/>
</g>
<path d="M448.906 439.852H438.654C436.42 439.847 434.279 438.954 432.702 437.368C431.124 435.782 430.238 433.633 430.238 431.393V429.095H429.147C428.424 429.095 427.73 428.807 427.219 428.294C426.708 427.781 426.42 427.086 426.42 426.361C426.42 425.635 426.708 424.94 427.219 424.427C427.73 423.914 428.424 423.626 429.147 423.626H431.71C432.766 423.626 433.778 424.046 434.525 424.795C435.271 425.544 435.691 426.56 435.691 427.619V431.393C435.691 432.182 436.002 432.94 436.558 433.5C437.113 434.061 437.866 434.378 438.654 434.383H448.906C449.693 434.378 450.447 434.061 451.002 433.5C451.557 432.94 451.869 432.182 451.869 431.393V427.619C451.874 426.558 452.297 425.542 453.046 424.794C453.796 424.046 454.81 423.626 455.868 423.626H458.413C459.136 423.626 459.829 423.914 460.341 424.427C460.852 424.94 461.139 425.635 461.139 426.361C461.139 427.086 460.852 427.781 460.341 428.294C459.829 428.807 459.136 429.095 458.413 429.095H457.322V431.393C457.324 432.503 457.108 433.602 456.686 434.629C456.265 435.655 455.645 436.588 454.863 437.373C454.082 438.159 453.153 438.783 452.131 439.208C451.108 439.633 450.013 439.852 448.906 439.852Z" fill="#292926"/>
<path d="M226.401 295.201C226.401 295.201 233.688 302.792 249.951 298.224C266.214 293.656 300.077 282.009 310.736 283.257C321.395 284.506 336.014 277.144 344.932 278.106C353.849 279.069 350.131 282.77 350.131 282.77C350.131 282.77 361.275 284.112 356.035 290.328C356.035 290.328 359.725 294.81 353.063 296.306C346.4 297.801 324.18 301.763 318.233 299.86C318.233 299.86 283.502 315.465 265.912 322.528C248.322 329.591 238.066 327.235 223.236 355.321C208.406 383.406 226.401 295.201 226.401 295.201Z" fill="#FF693D"/>
<path opacity="0.2" d="M267.335 240.76C264.257 241.032 261.165 240.46 258.389 239.106C258.389 239.106 263.854 328.968 270.91 298.001C276.381 274.303 283.764 268.504 293.758 261.979C276.98 269.445 269.398 248.066 267.335 240.76Z" fill="#292926"/>
<path d="M142.316 397.784C142.316 397.784 135.344 440.184 97.1942 433.716C59.0447 427.247 27.3991 431.636 31.9877 392.933C37.2523 348.473 12.2319 369.417 9.62612 398.885C7.02037 428.353 19.4832 441.035 55.4841 450.75C91.485 460.465 132.165 462.84 140.979 439.371L142.316 397.784Z" fill="#FF693D"/>
<path opacity="0.3" d="M32.4812 387.564C34.7208 355.803 18.3067 365.973 11.9054 387.155C15.1745 385.775 18.6951 385.099 22.2395 385.169C25.7839 385.24 29.2731 386.055 32.4812 387.564Z" fill="#292926"/>
<path opacity="0.3" d="M31.9133 393.74C26.1213 392.89 17.1047 392.754 9.72473 397.973C9.6509 398.293 9.58117 398.595 9.61772 398.922C9.27044 402.568 9.19708 406.235 9.39826 409.892C13.3751 405.515 20.3212 400.963 31.678 402.275C31.5227 399.429 31.6015 396.574 31.9133 393.74Z" fill="#292926"/>
<g opacity="0.3">
<path d="M41.0128 421.475C38.3457 419.573 36.1508 417.082 34.5974 414.193C28.7935 416.465 20.3534 421.589 18.338 432.5C20.9933 435.304 24.016 437.733 27.3234 439.721C29.3361 432.082 34.2498 425.533 41.0128 421.475Z" fill="#292926"/>
<path d="M62.0178 452.428C61.9838 446.919 62.5674 437.361 66.2674 429.496C62.2617 428.908 58.5012 428.227 55.0421 427.372C50.6947 433.621 48.3316 441.04 48.2632 448.654C50.5778 449.375 52.9715 450.078 55.5014 450.755C57.6063 451.335 59.8257 451.903 62.0178 452.428Z" fill="#292926"/>
<path d="M122.109 429.795C118.421 431.975 114.338 433.398 110.098 433.983C111.526 440.244 114.427 447.556 120.489 448.769C129.067 450.562 123.785 439.425 122.109 429.795Z" fill="#292926"/>
<path d="M86.5175 452.488C92.1554 453.602 92.9723 441.741 94.0811 433.221C89.9596 432.569 85.9415 432.034 82.0256 431.542C81.2762 438.666 80.7734 451.349 86.5175 452.488Z" fill="#292926"/>
</g>
<path opacity="0.1" d="M120.459 455.608C130.385 453.016 137.776 447.911 140.993 439.391L142.329 397.804C140.721 405.939 137.38 413.631 132.534 420.355C131.124 427.331 130.564 434.453 130.865 441.563C131.225 449.055 125.966 453.249 120.459 455.608Z" fill="#292926"/>
<path d="M182.991 353.396C182.991 353.396 234.503 348.448 250.87 377.188C267.237 405.928 216.809 462.34 232.226 468.613C247.642 474.885 297.332 474.681 302.006 486.594C303.261 489.726 303.964 493.054 304.082 496.429C304.101 497.738 303.821 499.035 303.265 500.22C302.708 501.405 301.889 502.448 300.87 503.268C299.851 504.089 298.659 504.666 297.385 504.955C296.111 505.244 294.789 505.238 293.518 504.936L197.717 482.819C197.717 482.819 191.943 481.486 197.566 474.663C197.495 474.647 119.121 431.348 182.991 353.396Z" fill="#FF693D"/>
<path opacity="0.2" d="M182.991 353.396C182.991 353.396 234.503 348.448 250.87 377.188C267.237 405.928 216.809 462.34 232.226 468.613C247.642 474.885 297.332 474.681 302.006 486.594C303.261 489.726 303.964 493.054 304.082 496.429C304.101 497.738 303.821 499.035 303.265 500.22C302.708 501.405 301.889 502.448 300.87 503.268C299.851 504.089 298.659 504.666 297.385 504.955C296.111 505.244 294.789 505.238 293.518 504.936L197.717 482.819C197.717 482.819 191.943 481.486 197.566 474.663C197.495 474.647 119.121 431.348 182.991 353.396Z" fill="#292926"/>
<path d="M247.019 177.957C247.019 177.957 254.148 160.573 257.799 159.545C261.45 158.517 257.99 174.876 259.854 177.795L247.019 177.957Z" fill="#FF693D"/>
<path opacity="0.2" d="M247.019 177.957C247.019 177.957 254.148 160.573 257.799 159.545C261.45 158.517 257.99 174.876 259.854 177.795L247.019 177.957Z" fill="#292926"/>
<path d="M287.324 188.742C287.207 188.028 287.267 187.296 287.499 186.611C288.223 184.608 290.429 184.182 292.325 184.133C293.017 184.124 292.971 183.028 292.279 183.037C291.157 182.921 290.025 183.131 289.018 183.641C288.01 184.152 287.17 184.941 286.596 185.916C286.173 186.908 286.063 188.006 286.28 189.062C286.438 189.753 287.485 189.34 287.324 188.742Z" fill="#FF693D"/>
<path d="M289.343 192.443C290.888 189.226 295.131 189.27 298.021 190.087C298.694 190.242 298.932 189.212 298.267 189.021C294.903 188.076 290.139 188.267 288.381 191.922C288.084 192.564 289.045 193.085 289.343 192.443Z" fill="#FF693D"/>
<path d="M290.614 195.34C292.212 193.669 295.002 195.08 296.48 196.114C297.06 196.51 297.563 195.541 297.001 195.149C295.055 193.801 291.8 192.545 289.82 194.576C289.719 194.682 289.664 194.824 289.667 194.97C289.67 195.116 289.731 195.255 289.836 195.356C289.941 195.458 290.082 195.513 290.228 195.51C290.374 195.506 290.513 195.445 290.614 195.34Z" fill="#FF693D"/>
<g opacity="0.5">
<path d="M287.325 188.74C287.207 188.027 287.267 187.295 287.499 186.61C288.223 184.607 290.429 184.18 292.325 184.132C293.017 184.123 292.972 183.027 292.279 183.036C291.157 182.92 290.025 183.13 289.018 183.64C288.01 184.151 287.17 184.94 286.596 185.915C286.174 186.907 286.063 188.005 286.281 189.061C286.438 189.752 287.485 189.339 287.325 188.74Z" fill="#292926"/>
<path d="M289.343 192.442C290.888 189.225 295.131 189.269 298.021 190.086C298.694 190.241 298.932 189.211 298.267 189.02C294.903 188.075 290.139 188.266 288.381 191.921C288.084 192.563 289.046 193.084 289.343 192.442Z" fill="#292926"/>
<path d="M290.614 195.34C292.213 193.669 295.002 195.081 296.48 196.114C297.06 196.51 297.564 195.541 297.001 195.149C295.055 193.802 291.801 192.545 289.821 194.577C289.719 194.682 289.664 194.824 289.667 194.97C289.67 195.116 289.731 195.256 289.836 195.357C289.942 195.458 290.083 195.513 290.229 195.51C290.374 195.507 290.513 195.446 290.614 195.34Z" fill="#292926"/>
</g>
<path d="M281.257 220.758C273.238 228.262 284.651 238.382 290.114 270.312C295.577 302.241 268.769 339.575 255.851 388.986C242.932 438.396 219.328 440.843 219.328 440.843L187.653 475.5C187.653 475.5 130.797 468.605 134.642 427.709C138.487 386.814 161.543 351.589 178.868 325.032C196.192 298.476 222.197 280.136 219.659 261.474C218.228 248.437 218.343 235.273 220.001 222.259C220.001 222.259 209.793 209.91 211.948 189.825C211.948 189.825 207.648 162.636 213.607 158.398C219.567 154.16 234.712 180.111 234.712 180.111C234.712 180.111 254.488 172.832 260.534 174.845C266.58 176.859 271.767 189.302 285.395 186.835C285.399 186.817 301.058 202.22 281.257 220.758Z" fill="#FF693D"/>
<path opacity="0.2" d="M255.85 388.987C268.769 339.577 295.638 302.22 290.113 270.313C284.589 238.407 273.269 228.29 281.257 220.76C301.058 202.222 285.359 186.828 285.359 186.828C284.563 186.963 283.797 187.048 283.057 187.102C280.495 188.101 278.12 189.498 277.865 191.329C277.249 195.453 278.703 199.419 269.119 207.479C256.109 218.416 265.433 242.592 272.943 259.033C280.452 275.474 285.31 273.583 280.787 297.781C275.583 325.9 248.051 355.377 236.612 375.995C226.997 393.403 210.781 427.925 209.214 451.683L219.169 440.883C219.169 440.883 242.932 438.398 255.85 388.987Z" fill="#292926"/>
<path opacity="0.6" d="M284.969 188.683C284.969 188.683 280.719 188.749 281.378 190.417C282.038 192.085 290.016 196.154 284.969 188.683Z" fill="#292926"/>
<path opacity="0.2" d="M221.925 188.388L231.093 183.02C231.093 183.02 220.319 159.95 215.064 161.543C209.808 163.137 223.734 169.402 221.925 188.388Z" fill="#292926"/>
<path opacity="0.2" d="M257.34 182.379C258.264 180.721 254.394 176.797 250.089 180.013C245.783 183.229 256.413 184.055 257.34 182.379Z" fill="#292926"/>
<path opacity="0.2" d="M262.84 180.617C261.76 180.929 259.847 177.419 261.889 176.169C263.931 174.919 263.941 180.291 262.84 180.617Z" fill="#292926"/>
<g opacity="0.6">
<path d="M274.044 197.295C269.256 195.572 263.902 197.835 260.278 200.927C259.739 201.402 260.541 202.129 261.071 201.691C264.422 198.815 269.391 196.763 273.798 198.36C274.471 198.516 274.701 197.521 274.044 197.295Z" fill="#292926"/>
<path d="M273.941 200.489C268.046 200.812 263.582 206.087 261.451 211.115C261.176 211.744 262.133 212.283 262.413 211.636C264.387 206.965 268.416 201.795 273.969 201.58C274.108 201.569 274.237 201.505 274.331 201.401C274.424 201.296 274.474 201.161 274.47 201.021C274.467 200.881 274.41 200.748 274.312 200.649C274.213 200.55 274.081 200.493 273.941 200.489Z" fill="#292926"/>
<path d="M276.472 203.26C274.872 204.463 273.525 205.972 272.511 207.701C271.497 209.43 270.836 211.343 270.566 213.329C270.41 214.005 271.491 214.254 271.629 213.575C271.869 211.723 272.472 209.936 273.403 208.318C274.334 206.699 275.574 205.28 277.052 204.143C277.641 203.773 277.074 202.838 276.481 203.225L276.472 203.26Z" fill="#292926"/>
</g>
<path opacity="0.2" d="M181.781 378.435L175.309 385.942L179.976 396.674L196.789 416.779C196.789 416.779 205.793 433.939 215.842 444.548L219.261 440.809C219.261 440.809 230.729 439.621 241.999 422.239C240.875 378.625 181.781 378.435 181.781 378.435Z" fill="#292926"/>
<path opacity="0.1" d="M276.278 332.103L248.135 309.196L239.332 293.429L235.51 301.902C235.51 301.902 225.567 343.841 251.414 354.224C257.384 356.65 262.374 356.287 266.467 356.577C269.741 348.052 273.114 339.905 276.278 332.103Z" fill="#292926"/>
<g opacity="0.3">
<path d="M218.801 236.746C232.919 239.593 258.294 228.181 242.139 227.37C234.574 227.022 227.086 225.696 219.861 223.425C219.59 225.57 219.071 230.484 218.801 236.746Z" fill="#292926"/>
<path d="M239.887 261.691C232.852 261.912 225.846 260.727 219.276 258.205C219.378 259.296 219.517 260.394 219.659 261.475C220.134 266.09 219.248 270.745 217.109 274.864C235.266 276.455 254.629 261.352 239.887 261.691Z" fill="#292926"/>
<path d="M198.539 355.133C182.202 352.69 173.84 344.061 170.072 338.644C166.965 343.54 163.775 348.791 160.662 354.191C191.472 370.96 221.382 358.573 198.539 355.133Z" fill="#292926"/>
<path d="M222.609 311.967C213.783 309.965 205.806 305.245 199.794 298.467C195.947 302.93 191.879 307.623 187.938 312.57C209.909 328.271 240.301 316.463 222.609 311.967Z" fill="#292926"/>
</g>
<path d="M264.323 188.335C264.786 190.126 264.185 191.84 262.955 192.079C261.724 192.319 260.509 191.197 260.054 189.37C259.599 187.544 260.213 185.852 261.444 185.612C262.675 185.372 263.889 186.495 264.323 188.335Z" fill="#292926"/>
<path d="M254.205 190.058C254.381 190.052 254.553 189.999 254.702 189.906C254.851 189.812 254.974 189.68 255.056 189.524C255.747 188.308 256.705 187.265 257.858 186.474C259.01 185.683 260.326 185.165 261.707 184.96C261.848 184.929 261.982 184.869 262.101 184.785C262.22 184.702 262.321 184.595 262.398 184.472C262.475 184.348 262.527 184.211 262.55 184.067C262.574 183.924 262.568 183.777 262.535 183.635C262.478 183.414 262.355 183.215 262.183 183.065C262.012 182.915 261.798 182.821 261.572 182.796C259.848 183.009 258.196 183.622 256.749 184.588C255.302 185.553 254.099 186.843 253.236 188.356C253.159 188.475 253.107 188.609 253.083 188.75C253.058 188.89 253.063 189.034 253.095 189.172C253.128 189.311 253.188 189.441 253.272 189.556C253.356 189.671 253.462 189.767 253.584 189.839C253.757 189.988 253.978 190.065 254.205 190.058Z" fill="#292926"/>
<path opacity="0.2" d="M283.917 312.348C280.738 305.028 281.947 278.213 281.947 278.213L280.913 272.997L273.684 282.087L271.665 309.015L280.166 322.373C281.492 318.974 282.765 315.638 283.917 312.348Z" fill="#292926"/>
<path d="M257.667 265.892C257.667 265.892 278.659 255.769 281.878 271.481C285.098 287.194 271.96 321.715 290.537 327.875C309.113 334.035 333.14 347.534 333.14 347.534C333.14 347.534 356.751 358.393 349.197 365.013C349.197 365.013 355.068 375.462 346.045 376.729C346.045 376.729 342.128 384.563 333.184 374.901C333.184 374.901 329.752 381.687 317.509 365.463C317.509 365.463 297.468 349.085 261.399 349.927C225.33 350.768 227.824 279.117 257.667 265.892Z" fill="#FF693D"/>
<path opacity="0.4" d="M349.213 364.942C356.838 358.339 333.156 347.464 333.156 347.464C322.632 341.658 311.816 336.401 300.75 331.712C296.848 331.728 292.293 332.547 289.921 335.873C285.987 341.439 293.838 349.37 294.172 354.144C309.392 358.762 317.525 365.392 317.525 365.392C329.75 381.612 333.2 374.83 333.2 374.83C342.161 384.496 346.06 376.658 346.06 376.658C355.083 375.392 349.213 364.942 349.213 364.942Z" fill="#292926"/>
<g opacity="0.2">
<path d="M336.52 366.427C336.52 366.427 343.407 369.888 344.687 374.525C344.617 374.509 345.961 366.829 336.52 366.427Z" fill="#292926"/>
<path d="M336.108 358.921C336.108 358.921 343.942 359.494 347.148 363.546C347.148 363.546 344.007 355.411 336.108 358.921Z" fill="#292926"/>
</g>
<path d="M161.373 378.346C161.373 378.346 211.115 372.989 227.482 401.729C243.849 430.469 211.971 463.096 227.387 469.369C242.804 475.641 282.276 471.207 286.951 483.12C288.206 486.252 288.908 489.58 289.027 492.955C289.046 494.265 288.766 495.561 288.209 496.746C287.652 497.932 286.834 498.974 285.815 499.795C284.796 500.615 283.604 501.192 282.33 501.481C281.056 501.77 279.733 501.764 278.463 501.463L182.59 479.329C182.59 479.329 176.817 477.996 182.44 471.173C182.44 471.173 97.503 456.298 161.373 378.346Z" fill="#FF693D"/>
<path opacity="0.3" d="M193.675 399.314C170.845 394.043 162.683 387.219 156.515 384.523C153.396 383.014 150.599 380.913 148.279 378.336C145.598 384.356 143.23 390.511 141.186 396.776C147.13 400.768 147.155 398.641 147.155 398.641C162.905 409.93 216.506 404.585 193.675 399.314Z" fill="#292926"/>
<g opacity="0.1">
<path d="M180.767 462.741C171.141 459.994 146.154 455.741 138.181 435.732C143.499 464.334 182.44 471.173 182.44 471.173C182.44 471.173 190.39 465.505 180.767 462.741Z" fill="#292926"/>
</g>
</svg>
