<svg width="643" height="515" viewBox="0 0 643 515" fill="none" xmlns="http://www.w3.org/2000/svg">
<path fill-rule="evenodd" clip-rule="evenodd" d="M421.171 209.965C421.171 213.261 418.766 215.93 415.803 215.93C415.569 215.93 415.346 215.885 415.12 215.849L406.86 230.733C411.043 233.703 413.836 238.233 413.836 244.19C413.836 244.222 413.832 244.254 413.832 244.254L423.662 244.282C426.361 244.282 428.547 247.397 428.63 250.412C428.547 253.43 426.357 255.85 423.662 255.85H374.098C371.399 255.85 369.213 253.43 369.13 250.412C369.213 247.397 371.402 244.282 374.098 244.282H383.927C383.927 244.282 383.92 244.222 383.92 244.194C383.92 234.949 390.62 228.145 398.88 228.145C400.046 228.145 401.171 228.305 402.258 228.587L411.061 212.69C410.676 211.87 410.442 210.954 410.442 209.965C410.442 206.669 412.847 204 415.81 204C418.774 204 421.171 206.665 421.171 209.965Z" fill="#292926"/>
<path d="M587.37 0H548.791C542.351 0 537.13 5.24051 537.13 11.705V31.1951C537.13 37.6596 542.351 42.9001 548.791 42.9001H587.37C593.81 42.9001 599.031 37.6596 599.031 31.1951V11.705C599.031 5.24051 593.81 0 587.37 0Z" fill="#292926"/>
<path d="M630.37 59H591.791C585.351 59 580.13 64.2405 580.13 70.705V90.1951C580.13 96.6596 585.351 101.9 591.791 101.9H630.37C636.81 101.9 642.031 96.6596 642.031 90.1951V70.705C642.031 64.2405 636.81 59 630.37 59Z" fill="#292926"/>
<path d="M604.37 118H565.791C559.351 118 554.13 123.241 554.13 129.705V149.195C554.13 155.66 559.351 160.9 565.791 160.9H604.37C610.81 160.9 616.031 155.66 616.031 149.195V129.705C616.031 123.241 610.81 118 604.37 118Z" fill="#292926"/>
<path d="M559.429 59H507.791C501.351 59 496.13 64.2405 496.13 70.705V90.1951C496.13 96.6596 501.351 101.9 507.791 101.9H559.429C565.869 101.9 571.09 96.6596 571.09 90.1951V70.705C571.09 64.2405 565.869 59 559.429 59Z" fill="#292926"/>
<path d="M535.286 190C553.699 190 571.259 204.969 574.512 223.438L580.584 258.079H513.927L507.838 223.438L535.286 190Z" fill="#1E293B"/>
<path d="M503.13 223.438C503.13 214.569 506.642 206.064 512.894 199.794C519.146 193.523 527.626 190 536.467 190C545.309 190 553.788 193.523 560.04 199.794C566.292 206.064 569.804 214.569 569.804 223.438V258.079H503.13V223.438Z" fill="#FF693D"/>
<path d="M503.13 223.438C503.13 214.569 506.642 206.064 512.894 199.794C519.146 193.523 527.626 190 536.467 190C545.309 190 553.788 193.523 560.04 199.794C566.292 206.064 569.804 214.569 569.804 223.438V258.079H503.13V223.438Z" fill="#292926"/>
<path d="M561.781 229.416C565.086 215.373 556.415 201.301 542.413 197.987C528.412 194.672 514.383 203.369 511.078 217.413C507.774 231.456 516.445 245.528 530.446 248.842C544.448 252.157 558.477 243.459 561.781 229.416Z" fill="#292926"/>
<path d="M561.781 229.416C565.086 215.373 556.415 201.301 542.413 197.987C528.412 194.672 514.383 203.369 511.078 217.413C507.774 231.456 516.445 245.528 530.446 248.842C544.448 252.157 558.477 243.459 561.781 229.416Z" fill="#FF693D"/>
<path opacity="0.2" d="M536.467 201.45C543.013 201.452 549.318 203.929 554.126 208.386C558.933 212.842 561.89 218.953 562.406 225.498C562.406 224.823 562.515 224.131 562.515 223.438C562.515 216.509 559.771 209.863 554.886 204.964C550.001 200.064 543.375 197.311 536.467 197.311C529.559 197.311 522.933 200.064 518.048 204.964C513.163 209.863 510.419 216.509 510.419 223.438C510.419 224.131 510.419 224.823 510.528 225.498C511.045 218.953 514.001 212.842 518.808 208.386C523.616 203.929 529.921 201.452 536.467 201.45Z" fill="#292926"/>
<path opacity="0.1" d="M552.918 223.42H539.23V209.692C539.124 209.043 538.792 208.453 538.292 208.028C537.793 207.602 537.159 207.368 536.503 207.368C535.848 207.368 535.214 207.602 534.715 208.028C534.215 208.453 533.883 209.043 533.777 209.692V226.192C533.777 226.927 534.068 227.632 534.586 228.151C535.104 228.671 535.807 228.963 536.54 228.963H552.99C553.637 228.857 554.225 228.523 554.649 228.022C555.074 227.521 555.307 226.885 555.307 226.228C555.307 225.571 555.074 224.935 554.649 224.434C554.225 223.933 553.637 223.6 552.99 223.493L552.918 223.42Z" fill="#292926"/>
<path d="M552.918 226.21C553.564 226.103 554.152 225.77 554.576 225.269C555.001 224.768 555.234 224.132 555.234 223.475C555.234 222.818 555.001 222.182 554.576 221.681C554.152 221.18 553.564 220.846 552.918 220.74H536.467C536.072 220.675 535.667 220.697 535.281 220.805C534.895 220.912 534.537 221.103 534.231 221.363C533.926 221.623 533.681 221.947 533.513 222.311C533.344 222.676 533.257 223.073 533.257 223.475C533.257 223.877 533.344 224.274 533.513 224.638C533.681 225.003 533.926 225.327 534.231 225.587C534.537 225.847 534.895 226.038 535.281 226.145C535.667 226.253 536.072 226.275 536.467 226.21H552.918Z" fill="#FF693D"/>
<path opacity="0.3" d="M552.918 226.21C553.564 226.103 554.152 225.77 554.576 225.269C555.001 224.768 555.234 224.132 555.234 223.475C555.234 222.818 555.001 222.182 554.576 221.681C554.152 221.18 553.564 220.846 552.918 220.74H536.467C536.072 220.675 535.667 220.697 535.281 220.805C534.895 220.912 534.537 221.103 534.231 221.363C533.926 221.623 533.681 221.947 533.513 222.311C533.344 222.676 533.257 223.073 533.257 223.475C533.257 223.877 533.344 224.274 533.513 224.638C533.681 225.003 533.926 225.327 534.231 225.587C534.537 225.847 534.895 226.038 535.281 226.145C535.667 226.253 536.072 226.275 536.467 226.21H552.918Z" fill="#292926"/>
<path d="M539.23 206.936C539.124 206.288 538.792 205.698 538.292 205.272C537.793 204.847 537.159 204.613 536.503 204.613C535.848 204.613 535.214 204.847 534.715 205.272C534.215 205.698 533.883 206.288 533.777 206.936V223.345C533.883 223.994 534.215 224.584 534.715 225.009C535.214 225.435 535.848 225.668 536.503 225.668C537.159 225.668 537.793 225.435 538.292 225.009C538.792 224.584 539.124 223.994 539.23 223.345V206.936Z" fill="#FF693D"/>
<path opacity="0.6" d="M539.23 206.936C539.124 206.288 538.792 205.698 538.292 205.272C537.793 204.847 537.159 204.613 536.503 204.613C535.848 204.613 535.214 204.847 534.715 205.272C534.215 205.698 533.883 206.288 533.777 206.936V223.345C533.883 223.994 534.215 224.584 534.715 225.009C535.214 225.435 535.848 225.668 536.503 225.668C537.159 225.668 537.793 225.435 538.292 225.009C538.792 224.584 539.124 223.994 539.23 223.345V206.936Z" fill="#292926"/>
<path d="M532.37 118H493.791C487.351 118 482.13 123.241 482.13 129.705V149.195C482.13 155.66 487.351 160.9 493.791 160.9H532.37C538.81 160.9 544.031 155.66 544.031 149.195V129.705C544.031 123.241 538.81 118 532.37 118Z" fill="#292926"/>
<path d="M611.233 256H364.13V486.836H611.233V256Z" fill="#292926"/>
<path opacity="0.2" d="M527.689 256H364.13V486.836H527.689V256Z" fill="#292926"/>
<path opacity="0.6" d="M611.233 256H364.13V486.836H611.233V256Z" fill="#292926"/>
<path d="M509.93 273.812H381.907V331.298H509.93V273.812Z" fill="#292926"/>
<path opacity="0.5" d="M509.93 273.812H381.907V331.298H509.93V273.812Z" fill="#292926"/>
<g opacity="0.4">
<path d="M497.043 325.317H394.813V323.95C394.816 323.206 394.672 322.469 394.39 321.782C394.107 321.094 393.693 320.469 393.169 319.942C392.646 319.415 392.024 318.997 391.339 318.712C390.654 318.427 389.92 318.28 389.178 318.28H387.815V286.775H389.178C389.92 286.775 390.654 286.628 391.339 286.343C392.024 286.058 392.646 285.64 393.169 285.113C393.693 284.586 394.107 283.961 394.39 283.273C394.672 282.585 394.816 281.848 394.813 281.105V279.737H497.043V281.105C497.043 282.609 497.638 284.051 498.698 285.114C499.759 286.177 501.196 286.775 502.696 286.775H504.059V318.353H502.696C501.196 318.353 499.759 318.95 498.698 320.014C497.638 321.077 497.043 322.519 497.043 324.023V325.317ZM397.467 322.583H494.425C494.715 320.851 495.536 319.252 496.774 318.011C498.012 316.769 499.606 315.945 501.332 315.655V289.4C499.606 289.11 498.012 288.286 496.774 287.044C495.536 285.802 494.715 284.204 494.425 282.472H397.431C397.145 284.203 396.327 285.8 395.092 287.042C393.857 288.285 392.266 289.109 390.542 289.4V315.727C392.266 316.019 393.857 316.843 395.092 318.085C396.327 319.327 397.145 320.925 397.431 322.656L397.467 322.583Z" fill="#292926"/>
</g>
<path d="M451.036 304.371H440.784C438.553 304.367 436.415 303.476 434.838 301.894C433.261 300.312 432.372 298.167 432.368 295.93V293.614H431.277C430.554 293.614 429.86 293.326 429.349 292.813C428.838 292.301 428.55 291.605 428.55 290.88C428.55 290.154 428.838 289.459 429.349 288.946C429.86 288.433 430.554 288.145 431.277 288.145H433.84C434.364 288.145 434.883 288.249 435.368 288.45C435.852 288.652 436.291 288.948 436.661 289.321C437.031 289.693 437.324 290.136 437.523 290.622C437.722 291.109 437.823 291.63 437.821 292.156V295.93C437.821 296.32 437.897 296.707 438.046 297.067C438.195 297.428 438.413 297.755 438.689 298.031C438.964 298.307 439.29 298.526 439.65 298.675C440.009 298.825 440.395 298.902 440.784 298.902H451.036C451.821 298.902 452.575 298.589 453.131 298.031C453.686 297.474 453.999 296.718 453.999 295.93V292.156C453.999 291.092 454.42 290.072 455.17 289.32C455.92 288.567 456.937 288.145 457.998 288.145H460.542C461.266 288.145 461.959 288.433 462.47 288.946C462.982 289.459 463.269 290.154 463.269 290.88C463.269 291.605 462.982 292.301 462.47 292.813C461.959 293.326 461.266 293.614 460.542 293.614H459.452V295.93C459.452 298.169 458.565 300.316 456.987 301.899C455.408 303.482 453.268 304.371 451.036 304.371Z" fill="#292926"/>
<path d="M509.93 341.562H381.907V399.048H509.93V341.562Z" fill="#292926"/>
<path opacity="0.5" d="M509.93 341.562H381.907V399.048H509.93V341.562Z" fill="#292926"/>
<g opacity="0.4">
<path d="M497.043 393.125H394.813V391.757C394.813 390.257 394.22 388.817 393.164 387.754C392.108 386.692 390.674 386.092 389.178 386.087H387.815V354.491H389.178C390.673 354.491 392.106 353.896 393.163 352.836C394.22 351.776 394.813 350.338 394.813 348.839V347.472H497.043V348.839C497.043 349.583 497.189 350.319 497.473 351.006C497.758 351.693 498.174 352.317 498.7 352.842C499.225 353.367 499.848 353.783 500.534 354.066C501.22 354.349 501.954 354.493 502.696 354.491H504.059V386.069H502.696C501.953 386.069 501.218 386.216 500.532 386.501C499.847 386.786 499.223 387.203 498.698 387.73C498.173 388.256 497.757 388.881 497.473 389.569C497.189 390.257 497.043 390.995 497.043 391.739V393.125ZM397.467 390.39H494.425C494.715 388.658 495.536 387.06 496.774 385.818C498.012 384.576 499.606 383.752 501.332 383.462V357.135C499.607 356.848 498.014 356.028 496.776 354.789C495.538 353.55 494.716 351.955 494.425 350.225H397.431C397.144 351.953 396.325 353.548 395.09 354.787C393.855 356.026 392.265 356.847 390.542 357.135V383.462C392.266 383.753 393.857 384.578 395.092 385.82C396.327 387.062 397.145 388.659 397.431 390.39H397.467Z" fill="#292926"/>
</g>
<path d="M451.036 372.101H440.784C438.552 372.101 436.411 371.211 434.833 369.628C433.254 368.045 432.368 365.898 432.368 363.659V361.344H431.277C430.554 361.344 429.86 361.055 429.349 360.543C428.838 360.03 428.55 359.334 428.55 358.609C428.55 357.884 428.838 357.188 429.349 356.675C429.86 356.162 430.554 355.874 431.277 355.874H433.84C434.897 355.879 435.91 356.304 436.656 357.055C437.402 357.807 437.821 358.824 437.821 359.885V363.604C437.821 364.393 438.133 365.148 438.689 365.706C439.244 366.263 439.998 366.576 440.784 366.576H451.036C451.821 366.576 452.575 366.263 453.131 365.706C453.686 365.148 453.999 364.393 453.999 363.604V359.958C454.003 358.896 454.426 357.878 455.175 357.127C455.924 356.376 456.938 355.952 457.998 355.947H460.542C461.266 355.947 461.959 356.235 462.47 356.748C462.982 357.261 463.269 357.956 463.269 358.682C463.269 359.407 462.982 360.103 462.47 360.616C461.959 361.128 461.266 361.417 460.542 361.417H459.452V363.604C459.459 364.718 459.247 365.821 458.827 366.852C458.407 367.882 457.788 368.819 457.006 369.609C456.224 370.398 455.294 371.025 454.269 371.453C453.244 371.88 452.145 372.101 451.036 372.101Z" fill="#292926"/>
<path d="M509.93 409.295H381.907V466.781H509.93V409.295Z" fill="#292926"/>
<path opacity="0.5" d="M509.93 409.295H381.907V466.781H509.93V409.295Z" fill="#292926"/>
<g opacity="0.4">
<path d="M497.043 460.857H394.813V459.489C394.813 457.99 394.22 456.553 393.163 455.493C392.106 454.433 390.673 453.837 389.178 453.837H387.815V422.259H389.178C390.674 422.254 392.108 421.655 393.164 420.592C394.22 419.529 394.813 418.09 394.813 416.589V415.222H497.043V416.589C497.043 418.093 497.638 419.535 498.698 420.598C499.759 421.662 501.196 422.259 502.696 422.259H504.059V453.837H502.696C501.954 453.835 501.22 453.979 500.534 454.262C499.848 454.545 499.225 454.961 498.7 455.486C498.174 456.011 497.758 456.635 497.473 457.322C497.189 458.009 497.043 458.745 497.043 459.489V460.857ZM397.467 458.122H494.425C494.716 456.392 495.538 454.796 496.776 453.558C498.014 452.319 499.607 451.499 501.332 451.212V424.885C499.606 424.594 498.012 423.77 496.774 422.529C495.536 421.287 494.715 419.689 494.425 417.956H397.431C397.145 419.687 396.327 421.285 395.092 422.527C393.857 423.769 392.266 424.593 390.542 424.885V451.212C392.265 451.5 393.855 452.32 395.09 453.559C396.325 454.798 397.144 456.393 397.431 458.122H397.467Z" fill="#292926"/>
</g>
<path d="M451.036 439.853H440.784C438.55 439.848 436.409 438.954 434.831 437.368C433.254 435.782 432.368 433.633 432.368 431.393V429.096H431.277C430.554 429.096 429.86 428.807 429.349 428.295C428.838 427.782 428.55 427.086 428.55 426.361C428.55 425.635 428.838 424.94 429.349 424.427C429.86 423.914 430.554 423.626 431.277 423.626H433.84C434.896 423.626 435.908 424.047 436.655 424.795C437.401 425.544 437.821 426.56 437.821 427.619V431.393C437.821 432.183 438.132 432.94 438.687 433.501C439.243 434.061 439.996 434.378 440.784 434.383H451.036C451.823 434.378 452.577 434.061 453.132 433.501C453.687 432.94 453.999 432.183 453.999 431.393V427.619C454.003 426.558 454.427 425.543 455.176 424.794C455.926 424.046 456.94 423.626 457.998 423.626H460.542C461.266 423.626 461.959 423.914 462.47 424.427C462.982 424.94 463.269 425.635 463.269 426.361C463.269 427.086 462.982 427.782 462.47 428.295C461.959 428.807 461.266 429.096 460.542 429.096H459.452V431.393C459.454 432.503 459.238 433.603 458.816 434.629C458.394 435.655 457.775 436.588 456.993 437.374C456.211 438.159 455.283 438.783 454.261 439.208C453.238 439.634 452.142 439.853 451.036 439.853Z" fill="#292926"/>
<path d="M259.484 274.134C259.484 274.134 268.487 279.58 283.014 270.959C297.541 262.337 327.235 242.322 337.854 240.77C348.473 239.217 360.689 228.322 369.551 226.943C378.414 225.565 375.78 230.103 375.78 230.103C375.78 230.103 386.893 228.514 383.44 235.876C383.44 235.876 388.164 239.249 382.116 242.418C376.067 245.588 355.63 255.165 349.393 254.866C349.393 254.866 319.884 278.928 304.722 290.303C289.559 301.678 279.043 302.057 271.987 333.024C264.931 363.991 259.484 274.134 259.484 274.134Z" fill="#FF693D"/>
<path opacity="0.2" d="M270.738 242.007C267.656 242.225 264.575 241.6 261.822 240.198C261.822 240.198 265.718 330.141 273.313 299.302C279.197 275.703 286.681 270.034 296.787 263.685C279.881 270.856 272.673 249.348 270.738 242.007Z" fill="#292926"/>
<path d="M142.998 396.825C142.998 396.825 135.287 439.098 97.2562 431.964C59.2254 424.831 27.508 428.667 32.7713 390.05C38.8111 345.689 13.4289 366.193 10.3093 395.611C7.18966 425.029 19.4293 437.927 55.2552 448.268C91.081 458.61 131.714 461.694 140.936 438.383L142.998 396.825Z" fill="#FF693D"/>
<path opacity="0.3" d="M33.3585 384.69C36.152 352.973 19.5629 362.855 12.7929 383.922C16.0856 382.599 19.6175 381.984 23.1601 382.117C26.7027 382.249 30.1771 383.126 33.3585 384.69Z" fill="#292926"/>
<path opacity="0.3" d="M32.6829 390.855C26.9066 389.904 17.8937 389.611 10.4238 394.701C10.3444 395.019 10.2694 395.32 10.3002 395.647C9.88937 399.287 9.75203 402.952 9.88935 406.612C13.9419 402.305 20.9665 397.874 32.2986 399.384C32.1931 396.536 32.3216 393.683 32.6829 390.855Z" fill="#292926"/>
<g opacity="0.3">
<path d="M41.2966 418.745C38.6631 416.797 36.512 414.268 35.0093 411.353C29.1666 413.522 20.6384 418.499 18.4329 429.373C21.0388 432.223 24.0186 434.704 27.2909 436.749C29.4365 429.147 34.4638 422.684 41.2966 418.745Z" fill="#292926"/>
<path d="M61.7581 450.06C61.8203 444.551 62.5706 435.005 66.4074 427.206C62.4125 426.548 58.6645 425.801 55.2208 424.886C50.765 431.058 48.2728 438.435 48.0716 446.047C50.3732 446.808 52.7543 447.552 55.272 448.274C57.3664 448.89 59.5755 449.497 61.7581 450.06Z" fill="#292926"/>
<path d="M122.235 428.479C118.509 430.594 114.402 431.946 110.153 432.456C111.471 438.741 114.244 446.103 120.285 447.422C128.83 449.364 123.743 438.137 122.235 428.479Z" fill="#292926"/>
<path d="M86.2532 450.547C91.8707 451.76 92.8945 439.914 94.1518 431.415C90.0423 430.691 86.0342 430.086 82.1275 429.526C81.2539 436.636 80.5298 449.308 86.2532 450.547Z" fill="#292926"/>
</g>
<path opacity="0.1" d="M120.135 454.259C130.105 451.84 137.584 446.865 140.949 438.403L143.011 396.846C141.261 404.951 137.786 412.584 132.824 419.222C131.292 426.173 130.608 433.283 130.785 440.397C131.014 447.895 125.682 451.997 120.135 454.259Z" fill="#292926"/>
<path d="M184.441 353.154C184.441 353.154 236.032 349.106 251.895 378.127C267.758 407.149 216.353 462.672 231.658 469.212C246.963 475.753 296.648 476.416 301.114 488.409C302.314 491.563 302.958 494.902 303.018 498.279C303.014 499.588 302.712 500.88 302.134 502.055C301.557 503.23 300.72 504.258 299.687 505.061C298.654 505.864 297.452 506.419 296.173 506.686C294.894 506.953 293.572 506.924 292.307 506.6L196.906 482.814C196.906 482.814 191.156 481.381 196.898 474.657C196.827 474.64 119.22 429.98 184.441 353.154Z" fill="#FF693D"/>
<path opacity="0.2" d="M184.441 353.154C184.441 353.154 236.032 349.106 251.895 378.127C267.758 407.149 216.353 462.672 231.658 469.212C246.963 475.753 296.648 476.416 301.114 488.409C302.314 491.563 302.958 494.902 303.018 498.279C303.014 499.588 302.712 500.88 302.134 502.055C301.557 503.23 300.72 504.258 299.687 505.061C298.654 505.864 297.452 506.419 296.173 506.686C294.894 506.953 293.572 506.924 292.307 506.6L196.906 482.814C196.906 482.814 191.156 481.381 196.898 474.657C196.827 474.64 119.22 429.98 184.441 353.154Z" fill="#292926"/>
<path d="M251.521 178.859C251.521 178.859 258.953 161.602 262.621 160.638C266.29 159.674 262.545 175.971 264.357 178.922L251.521 178.859Z" fill="#FF693D"/>
<path opacity="0.2" d="M251.521 178.859C251.521 178.859 258.953 161.602 262.621 160.638C266.29 159.674 262.545 175.971 264.357 178.922L251.521 178.859Z" fill="#292926"/>
<path d="M291.633 190.346C291.527 189.63 291.6 188.9 291.844 188.219C292.603 186.228 294.816 185.841 296.713 185.825C297.405 185.828 297.378 184.732 296.686 184.728C295.566 184.593 294.431 184.783 293.414 185.276C292.398 185.769 291.544 186.543 290.954 187.508C290.514 188.493 290.384 189.588 290.583 190.648C290.728 191.342 291.782 190.947 291.633 190.346Z" fill="#FF693D"/>
<path d="M293.586 194.082C295.187 190.892 299.429 191.01 302.304 191.877C302.974 192.044 303.23 191.018 302.569 190.816C299.222 189.812 294.455 189.92 292.634 193.544C292.325 194.181 293.278 194.719 293.586 194.082Z" fill="#FF693D"/>
<path d="M294.806 197C296.434 195.358 299.198 196.817 300.658 197.876C301.231 198.282 301.751 197.322 301.196 196.921C299.273 195.54 296.041 194.226 294.026 196.223C293.923 196.327 293.865 196.467 293.866 196.614C293.866 196.76 293.925 196.9 294.028 197.003C294.132 197.106 294.272 197.164 294.418 197.163C294.564 197.163 294.703 197.104 294.806 197Z" fill="#FF693D"/>
<g opacity="0.5">
<path d="M291.633 190.344C291.528 189.629 291.601 188.898 291.845 188.217C292.603 186.227 294.817 185.839 296.713 185.823C297.405 185.827 297.379 184.731 296.687 184.727C295.567 184.592 294.431 184.782 293.415 185.274C292.399 185.767 291.545 186.542 290.954 187.507C290.514 188.491 290.385 189.587 290.584 190.646C290.729 191.34 291.783 190.945 291.633 190.344Z" fill="#292926"/>
<path d="M293.586 194.081C295.187 190.891 299.429 191.009 302.304 191.876C302.974 192.043 303.23 191.017 302.569 190.815C299.222 189.811 294.455 189.919 292.634 193.543C292.325 194.18 293.278 194.718 293.586 194.081Z" fill="#292926"/>
<path d="M294.807 197C296.434 195.358 299.199 196.818 300.658 197.877C301.232 198.283 301.752 197.323 301.196 196.921C299.274 195.54 296.042 194.227 294.027 196.223C293.924 196.327 293.866 196.468 293.867 196.614C293.867 196.76 293.925 196.901 294.029 197.004C294.132 197.107 294.272 197.164 294.418 197.164C294.564 197.163 294.704 197.104 294.807 197Z" fill="#292926"/>
</g>
<path d="M285.008 222.251C276.859 229.614 288.093 239.931 292.998 271.952C297.904 303.972 270.448 340.832 256.669 390.01C242.89 439.187 219.247 441.221 219.247 441.221L186.972 475.321C186.972 475.321 130.245 467.434 134.803 426.612C139.361 385.79 163.029 350.973 180.814 324.723C198.599 298.473 224.92 280.589 222.708 261.886C221.505 248.826 221.85 235.666 223.734 222.682C223.734 222.682 213.743 210.157 216.249 190.113C216.249 190.113 212.424 162.853 218.456 158.72C224.489 154.587 239.179 180.798 239.179 180.798C239.179 180.798 259.079 173.865 265.089 175.984C271.099 178.102 276.068 190.634 289.737 188.405C289.742 188.388 305.129 204.062 285.008 222.251Z" fill="#FF693D"/>
<path opacity="0.2" d="M256.668 390.012C270.447 340.835 297.965 303.952 292.998 271.954C288.031 239.956 276.889 229.643 285.007 222.253C305.129 204.064 289.701 188.399 289.701 188.399C288.903 188.519 288.136 188.591 287.395 188.632C284.815 189.586 282.417 190.942 282.13 192.768C281.442 196.881 282.826 200.871 273.103 208.762C259.904 219.471 268.805 243.806 276.027 260.375C283.248 276.945 288.138 275.139 283.193 299.254C277.499 327.279 249.457 356.27 237.66 376.685C227.742 393.923 210.927 428.157 208.945 451.883L219.087 441.259C219.087 441.259 242.89 439.189 256.668 390.012Z" fill="#292926"/>
<path opacity="0.6" d="M289.278 190.246C289.278 190.246 285.028 190.238 285.658 191.917C286.288 193.596 294.194 197.804 289.278 190.246Z" fill="#292926"/>
<path opacity="0.2" d="M226.249 188.851L235.51 183.644C235.51 183.644 225.14 160.389 219.858 161.89C214.575 163.392 228.389 169.899 226.249 188.851Z" fill="#292926"/>
<path opacity="0.2" d="M261.764 183.461C262.717 181.819 258.916 177.828 254.555 180.968C250.194 184.109 260.807 185.12 261.764 183.461Z" fill="#292926"/>
<path opacity="0.2" d="M267.293 181.795C266.208 182.088 264.357 178.545 266.42 177.331C268.484 176.117 268.4 181.489 267.293 181.795Z" fill="#292926"/>
<g opacity="0.6">
<path d="M278.205 198.666C273.448 196.859 268.055 199.028 264.377 202.057C263.83 202.522 264.62 203.264 265.158 202.835C268.557 200.018 273.562 198.053 277.941 199.727C278.611 199.894 278.858 198.903 278.205 198.666Z" fill="#292926"/>
<path d="M278.046 201.858C272.147 202.078 267.591 207.274 265.373 212.264C265.086 212.888 266.034 213.444 266.325 212.802C268.381 208.166 272.499 203.068 278.055 202.95C278.194 202.941 278.325 202.878 278.42 202.776C278.515 202.673 278.567 202.538 278.566 202.399C278.565 202.259 278.51 202.125 278.414 202.024C278.317 201.924 278.186 201.864 278.046 201.858Z" fill="#292926"/>
<path d="M280.529 204.673C278.908 205.847 277.535 207.333 276.491 209.044C275.447 210.755 274.752 212.656 274.448 214.637C274.28 215.31 275.356 215.578 275.506 214.901C275.779 213.054 276.413 211.278 277.372 209.676C278.331 208.074 279.595 206.677 281.093 205.565C281.689 205.206 281.138 204.261 280.538 204.637L280.529 204.673Z" fill="#292926"/>
</g>
<path opacity="0.2" d="M182.794 378.168L176.193 385.561L180.672 396.373L197.131 416.768C197.131 416.768 205.834 434.083 215.697 444.866L219.181 441.187C219.181 441.187 230.667 440.199 242.239 423.016C241.876 379.389 182.794 378.168 182.794 378.168Z" fill="#292926"/>
<path opacity="0.1" d="M278.085 333.492L250.347 310.097L241.821 294.18L237.852 302.585C237.852 302.585 227.178 344.344 252.84 355.177C258.766 357.706 263.762 357.43 267.849 357.791C271.272 349.325 274.787 341.238 278.085 333.492Z" fill="#292926"/>
<g opacity="0.3">
<path d="M222.282 237.147C236.348 240.24 261.919 229.272 245.781 228.18C238.222 227.7 230.759 226.243 223.575 223.846C223.266 225.986 222.662 230.89 222.282 237.147Z" fill="#292926"/>
<path d="M242.93 262.457C235.892 262.554 228.907 261.247 222.382 258.611C222.466 259.703 222.585 260.804 222.708 261.887C223.103 266.51 222.135 271.149 219.925 275.229C238.052 277.137 257.675 262.375 242.93 262.457Z" fill="#292926"/>
<path d="M199.957 355.163C183.665 352.435 175.455 343.661 171.782 338.179C168.59 343.02 165.309 348.215 162.103 353.56C192.615 370.863 222.736 359.001 199.957 355.163Z" fill="#292926"/>
<path d="M224.776 312.423C215.986 310.267 208.093 305.408 202.201 298.527C198.276 302.922 194.127 307.543 190.1 312.421C211.794 328.503 242.387 317.227 224.776 312.423Z" fill="#292926"/>
</g>
<path d="M268.642 189.538C269.074 191.336 268.443 193.039 267.208 193.258C265.974 193.476 264.779 192.332 264.356 190.498C263.932 188.664 264.576 186.983 265.811 186.765C267.046 186.547 268.24 187.69 268.642 189.538Z" fill="#292926"/>
<path d="M258.496 191.084C258.672 191.081 258.844 191.031 258.995 190.94C259.146 190.849 259.27 190.72 259.356 190.565C260.068 189.361 261.044 188.335 262.21 187.564C263.376 186.794 264.701 186.299 266.085 186.117C266.227 186.089 266.362 186.032 266.482 185.95C266.602 185.868 266.705 185.763 266.784 185.641C266.864 185.519 266.918 185.383 266.944 185.24C266.97 185.096 266.967 184.949 266.936 184.807C266.883 184.585 266.764 184.384 266.595 184.231C266.425 184.079 266.214 183.981 265.988 183.951C264.26 184.134 262.598 184.719 261.135 185.659C259.671 186.599 258.446 187.868 257.557 189.365C257.477 189.483 257.423 189.616 257.396 189.756C257.369 189.896 257.371 190.04 257.401 190.179C257.431 190.318 257.489 190.45 257.571 190.566C257.653 190.682 257.758 190.78 257.878 190.854C258.048 191.006 258.268 191.087 258.496 191.084Z" fill="#292926"/>
<path opacity="0.2" d="M286.068 313.874C283.017 306.499 284.695 279.709 284.695 279.709L283.752 274.476L276.365 283.439L273.876 310.327L282.143 323.831C283.528 320.456 284.86 317.143 286.068 313.874Z" fill="#292926"/>
<path d="M260.633 266.966C260.633 266.966 281.799 257.211 284.743 272.978C287.688 288.744 273.95 323.031 292.416 329.514C310.882 335.997 334.67 349.914 334.67 349.914C334.67 349.914 358.088 361.183 350.419 367.67C350.419 367.67 356.107 378.22 347.063 379.329C347.063 379.329 343.01 387.093 334.236 377.277C334.236 377.277 330.686 384.002 318.729 367.567C318.729 367.567 298.976 350.842 262.898 351.054C226.82 351.266 230.564 279.669 260.633 266.966Z" fill="#FF693D"/>
<path opacity="0.4" d="M350.436 367.6C358.175 361.13 334.687 349.843 334.687 349.843C324.266 343.855 313.543 338.409 302.561 333.528C298.659 333.476 294.091 334.216 291.661 337.5C287.63 342.996 295.342 351.063 295.593 355.842C310.73 360.725 318.746 367.496 318.746 367.496C330.685 383.927 334.253 377.206 334.253 377.206C343.045 387.027 347.08 379.258 347.08 379.258C356.124 378.15 350.436 367.6 350.436 367.6Z" fill="#292926"/>
<g opacity="0.2">
<path d="M337.72 368.863C337.72 368.863 344.545 372.444 345.745 377.102C345.674 377.085 347.152 369.43 337.72 368.863Z" fill="#292926"/>
<path d="M337.439 361.35C337.439 361.35 345.261 362.06 348.396 366.168C348.396 366.168 345.398 357.979 337.439 361.35Z" fill="#292926"/>
</g>
<path d="M162.392 377.723C162.392 377.723 212.219 373.235 228.082 402.257C243.945 431.278 211.502 463.344 226.807 469.884C242.112 476.425 281.656 472.68 286.121 484.673C287.321 487.827 287.966 491.166 288.026 494.543C288.021 495.852 287.719 497.144 287.142 498.319C286.564 499.494 285.727 500.523 284.694 501.325C283.661 502.128 282.46 502.684 281.181 502.95C279.902 503.217 278.58 503.188 277.314 502.865L181.843 479.061C181.843 479.061 176.093 477.627 181.835 470.904C181.835 470.904 97.1706 454.549 162.392 377.723Z" fill="#FF693D"/>
<path opacity="0.3" d="M194.323 399.252C171.589 393.583 163.546 386.618 157.426 383.814C154.334 382.251 151.575 380.102 149.3 377.485C146.514 383.457 144.039 389.569 141.886 395.798C147.759 399.893 147.821 397.767 147.821 397.767C163.373 409.329 217.058 404.92 194.323 399.252Z" fill="#292926"/>
<g opacity="0.1">
<path d="M180.31 462.443C170.733 459.529 145.824 454.841 138.202 434.695C143.019 463.387 181.835 470.904 181.835 470.904C181.835 470.904 189.882 465.375 180.31 462.443Z" fill="#292926"/>
</g>
<path d="M587.371 0H548.792C542.352 0 537.131 5.24051 537.131 11.705V31.1951C537.131 37.6596 542.352 42.9001 548.792 42.9001H587.371C593.811 42.9001 599.032 37.6596 599.032 31.1951V11.705C599.032 5.24051 593.811 0 587.371 0Z" fill="#292926"/>
<path d="M630.371 59H591.792C585.352 59 580.131 64.2405 580.131 70.705V90.1951C580.131 96.6596 585.352 101.9 591.792 101.9H630.371C636.811 101.9 642.032 96.6596 642.032 90.1951V70.705C642.032 64.2405 636.811 59 630.371 59Z" fill="#292926"/>
<path d="M604.371 118H565.792C559.352 118 554.131 123.241 554.131 129.705V149.195C554.131 155.66 559.352 160.9 565.792 160.9H604.371C610.811 160.9 616.032 155.66 616.032 149.195V129.705C616.032 123.241 610.811 118 604.371 118Z" fill="#292926"/>
<path d="M559.431 59H507.792C501.352 59 496.131 64.2405 496.131 70.705V90.1951C496.131 96.6596 501.352 101.9 507.792 101.9H559.431C565.871 101.9 571.092 96.6596 571.092 90.1951V70.705C571.092 64.2405 565.871 59 559.431 59Z" fill="#292926"/>
<path d="M535.287 190C553.701 190 571.26 204.969 574.514 223.438L580.585 258.079H513.929L507.839 223.438L535.287 190Z" fill="#1E293B"/>
<path d="M503.131 223.438C503.131 214.569 506.644 206.064 512.896 199.794C519.148 193.523 527.627 190 536.469 190C545.31 190 553.79 193.523 560.042 199.794C566.294 206.064 569.806 214.569 569.806 223.438V258.079H503.131V223.438Z" fill="#FF693D"/>
<path d="M503.131 223.438C503.131 214.569 506.644 206.064 512.896 199.794C519.148 193.523 527.627 190 536.469 190C545.31 190 553.79 193.523 560.042 199.794C566.294 206.064 569.806 214.569 569.806 223.438V258.079H503.131V223.438Z" fill="#292926"/>
<path d="M561.783 229.416C565.088 215.373 556.416 201.301 542.415 197.987C528.414 194.672 514.384 203.369 511.08 217.413C507.775 231.456 516.446 245.528 530.448 248.842C544.449 252.157 558.478 243.459 561.783 229.416Z" fill="#292926"/>
<path d="M561.783 229.416C565.088 215.373 556.416 201.301 542.415 197.987C528.414 194.672 514.384 203.369 511.08 217.413C507.775 231.456 516.446 245.528 530.448 248.842C544.449 252.157 558.478 243.459 561.783 229.416Z" fill="#FF693D"/>
<path opacity="0.2" d="M536.469 201.45C543.015 201.452 549.32 203.929 554.127 208.386C558.935 212.842 561.891 218.953 562.408 225.498C562.408 224.823 562.517 224.131 562.517 223.438C562.517 216.509 559.772 209.863 554.887 204.964C550.002 200.064 543.377 197.311 536.469 197.311C529.56 197.311 522.935 200.064 518.05 204.964C513.165 209.863 510.42 216.509 510.42 223.438C510.42 224.131 510.42 224.823 510.529 225.498C511.046 218.953 514.003 212.842 518.81 208.386C523.617 203.929 529.922 201.452 536.469 201.45Z" fill="#292926"/>
<path opacity="0.1" d="M552.919 223.42H539.232V209.692C539.126 209.043 538.793 208.453 538.294 208.028C537.794 207.602 537.16 207.368 536.505 207.368C535.85 207.368 535.216 207.602 534.716 208.028C534.217 208.453 533.884 209.043 533.778 209.692V226.192C533.778 226.927 534.069 227.632 534.588 228.151C535.106 228.671 535.809 228.963 536.541 228.963H552.992C553.639 228.857 554.227 228.523 554.651 228.022C555.075 227.521 555.308 226.885 555.308 226.228C555.308 225.571 555.075 224.935 554.651 224.434C554.227 223.933 553.639 223.6 552.992 223.493L552.919 223.42Z" fill="#292926"/>
<path d="M552.919 226.21C553.566 226.103 554.154 225.77 554.578 225.269C555.002 224.768 555.235 224.132 555.235 223.475C555.235 222.818 555.002 222.182 554.578 221.681C554.154 221.18 553.566 220.846 552.919 220.74H536.468C536.073 220.675 535.668 220.697 535.282 220.805C534.896 220.912 534.538 221.103 534.233 221.363C533.928 221.623 533.682 221.947 533.514 222.311C533.346 222.676 533.259 223.073 533.259 223.475C533.259 223.877 533.346 224.274 533.514 224.638C533.682 225.003 533.928 225.327 534.233 225.587C534.538 225.847 534.896 226.038 535.282 226.145C535.668 226.253 536.073 226.275 536.468 226.21H552.919Z" fill="#FF693D"/>
<path opacity="0.3" d="M552.919 226.21C553.566 226.103 554.154 225.77 554.578 225.269C555.002 224.768 555.235 224.132 555.235 223.475C555.235 222.818 555.002 222.182 554.578 221.681C554.154 221.18 553.566 220.846 552.919 220.74H536.468C536.073 220.675 535.668 220.697 535.282 220.805C534.896 220.912 534.538 221.103 534.233 221.363C533.928 221.623 533.682 221.947 533.514 222.311C533.346 222.676 533.259 223.073 533.259 223.475C533.259 223.877 533.346 224.274 533.514 224.638C533.682 225.003 533.928 225.327 534.233 225.587C534.538 225.847 534.896 226.038 535.282 226.145C535.668 226.253 536.073 226.275 536.468 226.21H552.919Z" fill="#292926"/>
<path d="M539.232 206.936C539.126 206.288 538.793 205.698 538.294 205.272C537.794 204.847 537.16 204.613 536.505 204.613C535.85 204.613 535.216 204.847 534.716 205.272C534.217 205.698 533.884 206.288 533.778 206.936V223.345C533.884 223.994 534.217 224.584 534.716 225.009C535.216 225.435 535.85 225.668 536.505 225.668C537.16 225.668 537.794 225.435 538.294 225.009C538.793 224.584 539.126 223.994 539.232 223.345V206.936Z" fill="#FF693D"/>
<path opacity="0.6" d="M539.232 206.936C539.126 206.288 538.793 205.698 538.294 205.272C537.794 204.847 537.16 204.613 536.505 204.613C535.85 204.613 535.216 204.847 534.716 205.272C534.217 205.698 533.884 206.288 533.778 206.936V223.345C533.884 223.994 534.217 224.584 534.716 225.009C535.216 225.435 535.85 225.668 536.505 225.668C537.16 225.668 537.794 225.435 538.294 225.009C538.793 224.584 539.126 223.994 539.232 223.345V206.936Z" fill="#292926"/>
<path d="M532.371 118H493.792C487.352 118 482.131 123.241 482.131 129.705V149.195C482.131 155.66 487.352 160.9 493.792 160.9H532.371C538.811 160.9 544.032 155.66 544.032 149.195V129.705C544.032 123.241 538.811 118 532.371 118Z" fill="#292926"/>
<path d="M611.234 256H364.131V486.836H611.234V256Z" fill="#292926"/>
<path opacity="0.2" d="M527.691 256H364.131V486.836H527.691V256Z" fill="#292926"/>
<path opacity="0.6" d="M611.234 256H364.131V486.836H611.234V256Z" fill="#292926"/>
<path d="M509.932 273.812H381.909V331.298H509.932V273.812Z" fill="#292926"/>
<path opacity="0.5" d="M509.932 273.812H381.909V331.298H509.932V273.812Z" fill="#292926"/>
<g opacity="0.4">
<path d="M497.044 325.317H394.815V323.95C394.817 323.206 394.673 322.469 394.391 321.782C394.109 321.094 393.694 320.469 393.171 319.942C392.647 319.415 392.025 318.997 391.34 318.712C390.655 318.427 389.921 318.28 389.18 318.28H387.816V286.775H389.18C389.921 286.775 390.655 286.628 391.34 286.343C392.025 286.058 392.647 285.64 393.171 285.113C393.694 284.586 394.109 283.961 394.391 283.273C394.673 282.585 394.817 281.848 394.815 281.105V279.737H497.044V281.105C497.044 282.609 497.64 284.051 498.7 285.114C499.76 286.177 501.198 286.775 502.697 286.775H504.061V318.353H502.697C501.198 318.353 499.76 318.95 498.7 320.014C497.64 321.077 497.044 322.519 497.044 324.023V325.317ZM397.469 322.583H494.427C494.716 320.851 495.537 319.252 496.776 318.011C498.014 316.769 499.607 315.945 501.334 315.655V289.4C499.607 289.11 498.014 288.286 496.776 287.044C495.537 285.802 494.716 284.204 494.427 282.472H397.432C397.146 284.203 396.328 285.8 395.093 287.042C393.858 288.285 392.268 289.109 390.543 289.4V315.727C392.268 316.019 393.858 316.843 395.093 318.085C396.328 319.327 397.146 320.925 397.432 322.656L397.469 322.583Z" fill="#292926"/>
</g>
<path d="M451.037 304.371H440.785C438.554 304.367 436.417 303.476 434.839 301.894C433.262 300.312 432.374 298.167 432.369 295.93V293.614H431.278C430.555 293.614 429.862 293.326 429.35 292.813C428.839 292.301 428.552 291.605 428.552 290.88C428.552 290.154 428.839 289.459 429.35 288.946C429.862 288.433 430.555 288.145 431.278 288.145H433.841C434.366 288.145 434.885 288.249 435.369 288.45C435.853 288.652 436.293 288.948 436.663 289.321C437.033 289.693 437.325 290.136 437.524 290.622C437.723 291.109 437.825 291.63 437.822 292.156V295.93C437.822 296.32 437.899 296.707 438.048 297.067C438.197 297.428 438.415 297.755 438.69 298.031C438.965 298.307 439.292 298.526 439.651 298.675C440.011 298.825 440.396 298.902 440.785 298.902H451.037C451.823 298.902 452.577 298.589 453.132 298.031C453.688 297.474 454 296.718 454 295.93V292.156C454 291.092 454.421 290.072 455.171 289.32C455.921 288.567 456.938 288.145 457.999 288.145H460.544C461.267 288.145 461.961 288.433 462.472 288.946C462.983 289.459 463.271 290.154 463.271 290.88C463.271 291.605 462.983 292.301 462.472 292.813C461.961 293.326 461.267 293.614 460.544 293.614H459.453V295.93C459.453 298.169 458.567 300.316 456.988 301.899C455.41 303.482 453.269 304.371 451.037 304.371Z" fill="#292926"/>
<path d="M509.932 341.562H381.909V399.048H509.932V341.562Z" fill="#292926"/>
<path opacity="0.5" d="M509.932 341.562H381.909V399.048H509.932V341.562Z" fill="#292926"/>
<g opacity="0.4">
<path d="M497.044 393.125H394.815V391.757C394.815 390.257 394.222 388.817 393.165 387.754C392.109 386.692 390.676 386.092 389.18 386.087H387.816V354.491H389.18C390.674 354.491 392.107 353.896 393.164 352.836C394.221 351.776 394.815 350.338 394.815 348.839V347.472H497.044V348.839C497.044 349.583 497.19 350.319 497.475 351.006C497.759 351.693 498.176 352.317 498.701 352.842C499.226 353.367 499.85 353.783 500.535 354.066C501.221 354.349 501.956 354.493 502.697 354.491H504.061V386.069H502.697C501.955 386.069 501.22 386.216 500.534 386.501C499.848 386.786 499.225 387.203 498.7 387.73C498.175 388.256 497.759 388.881 497.474 389.569C497.19 390.257 497.044 390.995 497.044 391.739V393.125ZM397.469 390.39H494.427C494.716 388.658 495.537 387.06 496.776 385.818C498.014 384.576 499.607 383.752 501.334 383.462V357.135C499.609 356.848 498.016 356.028 496.777 354.789C495.539 353.55 494.717 351.955 494.427 350.225H397.432C397.145 351.953 396.327 353.548 395.092 354.787C393.857 356.026 392.266 356.847 390.543 357.135V383.462C392.268 383.753 393.858 384.578 395.093 385.82C396.328 387.062 397.146 388.659 397.432 390.39H397.469Z" fill="#292926"/>
</g>
<path d="M451.037 372.101H440.785C438.553 372.101 436.412 371.211 434.834 369.628C433.256 368.045 432.369 365.898 432.369 363.659V361.344H431.278C430.555 361.344 429.862 361.055 429.35 360.543C428.839 360.03 428.552 359.334 428.552 358.609C428.552 357.884 428.839 357.188 429.35 356.675C429.862 356.162 430.555 355.874 431.278 355.874H433.841C434.899 355.879 435.911 356.304 436.657 357.055C437.403 357.807 437.822 358.824 437.822 359.885V363.604C437.822 364.393 438.134 365.148 438.69 365.706C439.246 366.263 439.999 366.576 440.785 366.576H451.037C451.823 366.576 452.577 366.263 453.132 365.706C453.688 365.148 454 364.393 454 363.604V359.958C454.005 358.896 454.428 357.878 455.177 357.127C455.926 356.376 456.94 355.952 457.999 355.947H460.544C461.267 355.947 461.961 356.235 462.472 356.748C462.983 357.261 463.271 357.956 463.271 358.682C463.271 359.407 462.983 360.103 462.472 360.616C461.961 361.128 461.267 361.417 460.544 361.417H459.453V363.604C459.46 364.718 459.248 365.821 458.828 366.852C458.409 367.882 457.79 368.819 457.008 369.609C456.225 370.398 455.295 371.025 454.27 371.453C453.246 371.88 452.147 372.101 451.037 372.101Z" fill="#292926"/>
<path d="M509.932 409.295H381.909V466.781H509.932V409.295Z" fill="#292926"/>
<path opacity="0.5" d="M509.932 409.295H381.909V466.781H509.932V409.295Z" fill="#292926"/>
<g opacity="0.4">
<path d="M497.044 460.857H394.815V459.489C394.815 457.99 394.221 456.553 393.164 455.493C392.107 454.433 390.674 453.837 389.18 453.837H387.816V422.259H389.18C390.676 422.254 392.109 421.655 393.165 420.592C394.222 419.529 394.815 418.09 394.815 416.589V415.222H497.044V416.589C497.044 418.093 497.64 419.535 498.7 420.598C499.76 421.662 501.198 422.259 502.697 422.259H504.061V453.837H502.697C501.956 453.835 501.221 453.979 500.535 454.262C499.85 454.545 499.226 454.961 498.701 455.486C498.176 456.011 497.759 456.635 497.475 457.322C497.19 458.009 497.044 458.745 497.044 459.489V460.857ZM397.469 458.122H494.427C494.717 456.392 495.539 454.796 496.777 453.558C498.016 452.319 499.609 451.499 501.334 451.212V424.885C499.607 424.594 498.014 423.77 496.776 422.529C495.537 421.287 494.716 419.689 494.427 417.956H397.432C397.146 419.687 396.328 421.285 395.093 422.527C393.858 423.769 392.268 424.593 390.543 424.885V451.212C392.266 451.5 393.857 452.32 395.092 453.559C396.327 454.798 397.145 456.393 397.432 458.122H397.469Z" fill="#292926"/>
</g>
<path d="M451.037 439.853H440.785C438.551 439.848 436.411 438.954 434.833 437.368C433.255 435.782 432.369 433.633 432.369 431.393V429.096H431.278C430.555 429.096 429.862 428.807 429.35 428.295C428.839 427.782 428.552 427.086 428.552 426.361C428.552 425.635 428.839 424.94 429.35 424.427C429.862 423.914 430.555 423.626 431.278 423.626H433.841C434.897 423.626 435.91 424.047 436.656 424.795C437.403 425.544 437.822 426.56 437.822 427.619V431.393C437.822 432.183 438.134 432.94 438.689 433.501C439.244 434.061 439.998 434.378 440.785 434.383H451.037C451.825 434.378 452.578 434.061 453.133 433.501C453.688 432.94 454 432.183 454 431.393V427.619C454.005 426.558 454.428 425.543 455.178 424.794C455.927 424.046 456.942 423.626 457.999 423.626H460.544C461.267 423.626 461.961 423.914 462.472 424.427C462.983 424.94 463.271 425.635 463.271 426.361C463.271 427.086 462.983 427.782 462.472 428.295C461.961 428.807 461.267 429.096 460.544 429.096H459.453V431.393C459.456 432.503 459.24 433.603 458.818 434.629C458.396 435.655 457.776 436.588 456.995 437.374C456.213 438.159 455.284 438.783 454.262 439.208C453.24 439.634 452.144 439.853 451.037 439.853Z" fill="#292926"/>
</svg>
