<?xml version="1.0" encoding="UTF-8"?>
<svg width="660" height="611" viewBox="0 0 660 611" fill="none" xmlns="http://www.w3.org/2000/svg">
<path d="M442.581 414.717C518.64 338.37 518.64 214.586 442.581 138.239C366.521 61.8916 243.204 61.8917 167.144 138.239C91.0846 214.586 91.0846 338.37 167.144 414.717C243.204 491.064 366.521 491.064 442.581 414.717Z" fill="#292926"/>
<path d="M247.781 122.112C249.307 122.112 250.814 122.112 252.322 122.221C227.462 123.356 203.994 134.068 186.801 152.129C169.609 170.19 160.014 194.208 160.014 219.189C160.014 244.169 169.609 268.188 186.801 286.248C203.994 304.309 227.462 315.021 252.322 316.156C250.814 316.156 249.307 316.284 247.781 316.284C222.129 316.284 197.528 306.055 179.39 287.848C161.251 269.641 151.061 244.947 151.061 219.198C151.061 193.449 161.251 168.755 179.39 150.548C197.528 132.34 222.129 122.112 247.781 122.112Z" fill="#292926"/>
<path d="M262.312 122.222H255.047V211.906H262.312V122.222Z" fill="#292926"/>
<path d="M262.312 226.491H255.047V316.175H262.312V226.491Z" fill="#292926"/>
<path d="M186.952 337.889H161.687C155.247 337.889 150.026 343.13 150.026 349.594V359.859C150.026 366.323 155.247 371.564 161.687 371.564H186.952C193.392 371.564 198.613 366.323 198.613 359.859V349.594C198.613 343.13 193.392 337.889 186.952 337.889Z" fill="#292926"/>
<path d="M52.4341 126.488H24.408C17.9678 126.488 12.7471 131.728 12.7471 138.193V157.683C12.7471 164.147 17.9678 169.388 24.408 169.388H52.4341C58.8742 169.388 64.095 164.147 64.095 157.683V138.193C64.095 131.728 58.8742 126.488 52.4341 126.488Z" fill="#292926"/>
<path d="M123.635 126.488H85.0559C78.6158 126.488 73.395 131.728 73.395 138.193V157.683C73.395 164.147 78.6158 169.388 85.0559 169.388H123.635C130.075 169.388 135.296 164.147 135.296 157.683V138.193C135.296 131.728 130.075 126.488 123.635 126.488Z" fill="#292926"/>
<path d="M104.182 176.299H65.6026C59.1624 176.299 53.9417 181.54 53.9417 188.004V207.494C53.9417 213.959 59.1624 219.199 65.6026 219.199H104.182C110.622 219.199 115.843 213.959 115.843 207.494V188.004C115.843 181.54 110.622 176.299 104.182 176.299Z" fill="#292926"/>
<path d="M577.156 223.282H525.518C519.078 223.282 513.857 228.523 513.857 234.987V254.477C513.857 260.942 519.078 266.182 525.518 266.182H577.156C583.597 266.182 588.817 260.942 588.817 254.477V234.987C588.817 228.523 583.597 223.282 577.156 223.282Z" fill="#292926"/>
<path d="M648.339 223.282H609.76C603.32 223.282 598.099 228.523 598.099 234.987V254.477C598.099 260.942 603.32 266.182 609.76 266.182H648.339C654.779 266.182 660 260.942 660 254.477V234.987C660 228.523 654.779 223.282 648.339 223.282Z" fill="#292926"/>
<path d="M612.539 273.076H573.96C567.52 273.076 562.299 278.317 562.299 284.781V304.271C562.299 310.736 567.52 315.976 573.96 315.976H612.539C618.979 315.976 624.2 310.736 624.2 304.271V284.781C624.2 278.317 618.979 273.076 612.539 273.076Z" fill="#292926"/>
<path d="M640.184 168.586H601.605C595.165 168.586 589.944 173.826 589.944 180.291V199.781C589.944 206.246 595.165 211.486 601.605 211.486H640.184C646.624 211.486 651.845 206.246 651.845 199.781V180.291C651.845 173.826 646.624 168.586 640.184 168.586Z" fill="#292926"/>
<path d="M649.374 375.923H402.461V606.759H649.374V375.923Z" fill="#292926"/>
<path opacity="0.2" d="M565.895 375.923H402.461V606.759H565.895V375.923Z" fill="#292926"/>
<path opacity="0.6" d="M649.374 375.923H402.461V606.759H649.374V375.923Z" fill="#292926"/>
<path d="M548.15 393.735H420.225V451.221H548.15V393.735Z" fill="#292926"/>
<path opacity="0.5" d="M548.15 393.735H420.225V451.221H548.15V393.735Z" fill="#292926"/>
<g opacity="0.4">
<path d="M535.272 445.24H433.121V443.873C433.123 443.129 432.979 442.392 432.697 441.704C432.416 441.017 432.001 440.391 431.478 439.865C430.955 439.338 430.333 438.92 429.649 438.635C428.965 438.35 428.231 438.203 427.49 438.203H426.128V406.698H427.49C428.231 406.698 428.965 406.551 429.649 406.266C430.333 405.981 430.955 405.563 431.478 405.036C432.001 404.509 432.416 403.884 432.697 403.196C432.979 402.508 433.123 401.771 433.121 401.028V399.66H535.272V401.028C535.272 402.531 535.867 403.974 536.926 405.037C537.986 406.1 539.422 406.698 540.921 406.698H542.283V438.276H540.921C539.422 438.276 537.986 438.873 536.926 439.937C535.867 441 535.272 442.442 535.272 443.946V445.24ZM435.773 442.506H532.656C532.946 440.774 533.766 439.175 535.003 437.933C536.241 436.692 537.833 435.868 539.558 435.577V409.323C537.833 409.033 536.241 408.209 535.003 406.967C533.766 405.725 532.946 404.127 532.656 402.395H435.736C435.451 404.126 434.633 405.723 433.399 406.965C432.165 408.207 430.576 409.032 428.852 409.323V435.65C430.576 435.942 432.165 436.766 433.399 438.008C434.633 439.25 435.451 440.848 435.736 442.579L435.773 442.506Z" fill="#292926"/>
</g>
<path d="M489.3 424.294H479.056C476.827 424.289 474.691 423.398 473.115 421.816C471.539 420.234 470.651 418.09 470.646 415.852V413.537H469.557C468.834 413.537 468.141 413.249 467.63 412.736C467.119 412.223 466.832 411.528 466.832 410.802C466.832 410.077 467.119 409.381 467.63 408.868C468.141 408.356 468.834 408.067 469.557 408.067H472.118C472.641 408.067 473.16 408.171 473.644 408.373C474.128 408.575 474.567 408.871 474.937 409.243C475.306 409.616 475.599 410.058 475.798 410.545C475.997 411.031 476.098 411.553 476.095 412.078V415.852C476.095 416.243 476.172 416.629 476.321 416.99C476.469 417.35 476.688 417.678 476.963 417.954C477.237 418.23 477.564 418.449 477.923 418.598C478.282 418.747 478.667 418.824 479.056 418.824H489.3C490.085 418.824 490.838 418.511 491.394 417.954C491.949 417.397 492.261 416.641 492.261 415.852V412.078C492.261 411.015 492.682 409.994 493.431 409.242C494.181 408.49 495.197 408.067 496.257 408.067H498.8C499.522 408.067 500.215 408.356 500.726 408.868C501.237 409.381 501.524 410.077 501.524 410.802C501.524 411.528 501.237 412.223 500.726 412.736C500.215 413.249 499.522 413.537 498.8 413.537H497.71V415.852C497.71 418.091 496.824 420.238 495.247 421.821C493.67 423.405 491.531 424.294 489.3 424.294Z" fill="#292926"/>
<path d="M548.15 461.485H420.225V518.971H548.15V461.485Z" fill="#292926"/>
<path opacity="0.5" d="M548.15 461.485H420.225V518.971H548.15V461.485Z" fill="#292926"/>
<g opacity="0.4">
<path d="M535.272 513.048H433.121V511.681C433.121 510.18 432.528 508.741 431.473 507.678C430.417 506.615 428.985 506.015 427.49 506.011H426.128V474.414H427.49C428.984 474.414 430.416 473.819 431.472 472.759C432.528 471.699 433.121 470.261 433.121 468.762V467.395H535.272V468.762C535.272 469.506 535.418 470.243 535.702 470.93C535.986 471.616 536.403 472.24 536.927 472.765C537.452 473.291 538.075 473.706 538.76 473.989C539.446 474.272 540.18 474.417 540.921 474.414H542.283V505.992H540.921C540.179 505.992 539.444 506.139 538.759 506.424C538.074 506.709 537.451 507.127 536.926 507.653C536.402 508.18 535.986 508.805 535.702 509.493C535.418 510.181 535.272 510.918 535.272 511.663V513.048ZM435.773 510.313H532.656C532.946 508.581 533.766 506.983 535.003 505.741C536.241 504.499 537.833 503.676 539.558 503.385V477.058C537.834 476.771 536.243 475.951 535.005 474.712C533.768 473.473 532.947 471.878 532.656 470.148H435.736C435.45 471.876 434.632 473.472 433.398 474.711C432.163 475.949 430.574 476.77 428.852 477.058V503.385C430.576 503.677 432.165 504.501 433.399 505.743C434.633 506.985 435.451 508.583 435.736 510.313H435.773Z" fill="#292926"/>
</g>
<path d="M489.3 492.023H479.056C476.826 492.023 474.687 491.134 473.109 489.551C471.532 487.968 470.646 485.821 470.646 483.582V481.267H469.557C468.834 481.267 468.141 480.978 467.63 480.465C467.119 479.953 466.832 479.257 466.832 478.532C466.832 477.806 467.119 477.111 467.63 476.598C468.141 476.085 468.834 475.797 469.557 475.797H472.118C473.174 475.802 474.186 476.226 474.931 476.978C475.677 477.73 476.095 478.747 476.095 479.808V483.527C476.095 484.315 476.407 485.071 476.963 485.629C477.518 486.186 478.271 486.499 479.056 486.499H489.3C490.085 486.499 490.838 486.186 491.394 485.629C491.949 485.071 492.261 484.315 492.261 483.527V479.881C492.266 478.819 492.688 477.801 493.436 477.05C494.185 476.299 495.198 475.875 496.257 475.87H498.8C499.522 475.87 500.215 476.158 500.726 476.671C501.237 477.184 501.524 477.879 501.524 478.605C501.524 479.33 501.237 480.026 500.726 480.538C500.215 481.051 499.522 481.339 498.8 481.339H497.71V483.527C497.717 484.64 497.505 485.744 497.085 486.774C496.666 487.805 496.048 488.742 495.266 489.532C494.484 490.321 493.555 490.948 492.531 491.376C491.507 491.803 490.409 492.023 489.3 492.023Z" fill="#292926"/>
<path d="M548.15 529.218H420.225V586.704H548.15V529.218Z" fill="#292926"/>
<path opacity="0.5" d="M548.15 529.218H420.225V586.704H548.15V529.218Z" fill="#292926"/>
<g opacity="0.4">
<path d="M535.272 580.779H433.121V579.412C433.121 577.913 432.528 576.476 431.472 575.416C430.416 574.356 428.984 573.76 427.49 573.76H426.128V542.182H427.49C428.985 542.177 430.418 541.578 431.473 540.515C432.528 539.452 433.121 538.013 433.121 536.512V535.145H535.272V536.512C535.272 538.016 535.867 539.458 536.927 540.521C537.986 541.585 539.423 542.182 540.921 542.182H542.283V573.76H540.921C540.18 573.758 539.446 573.902 538.761 574.185C538.075 574.468 537.452 574.884 536.928 575.409C536.403 575.934 535.987 576.558 535.702 577.245C535.418 577.932 535.272 578.668 535.272 579.412V580.779ZM435.773 578.045H532.657C532.947 576.315 533.768 574.719 535.005 573.481C536.243 572.242 537.835 571.422 539.559 571.135V544.808C537.833 544.517 536.241 543.693 535.004 542.452C533.767 541.21 532.946 539.611 532.657 537.879H435.737C435.451 539.61 434.634 541.208 433.4 542.45C432.166 543.692 430.576 544.516 428.853 544.808V571.135C430.574 571.423 432.164 572.243 433.398 573.482C434.632 574.721 435.45 576.316 435.737 578.045H435.773Z" fill="#292926"/>
</g>
<path d="M489.3 559.775H479.056C476.824 559.771 474.685 558.877 473.108 557.291C471.532 555.705 470.646 553.556 470.646 551.316V549.018H469.557C468.834 549.018 468.141 548.73 467.63 548.217C467.119 547.705 466.832 547.009 466.832 546.284C466.832 545.558 467.119 544.863 467.63 544.35C468.141 543.837 468.834 543.549 469.557 543.549H472.118C473.173 543.549 474.184 543.969 474.93 544.718C475.676 545.467 476.095 546.483 476.095 547.542V551.316C476.095 552.106 476.407 552.863 476.961 553.424C477.516 553.984 478.269 554.301 479.056 554.306H489.3C490.087 554.301 490.84 553.984 491.395 553.424C491.949 552.863 492.261 552.106 492.261 551.316V547.542C492.266 546.481 492.689 545.465 493.438 544.717C494.186 543.969 495.2 543.549 496.257 543.549H498.8C499.522 543.549 500.215 543.837 500.726 544.35C501.237 544.863 501.524 545.558 501.524 546.284C501.524 547.009 501.237 547.705 500.726 548.217C500.215 548.73 499.522 549.018 498.8 549.018H497.71V551.316C497.712 552.426 497.496 553.525 497.075 554.552C496.653 555.578 496.034 556.511 495.253 557.296C494.472 558.082 493.544 558.706 492.523 559.131C491.501 559.556 490.406 559.775 489.3 559.775Z" fill="#292926"/>
<path d="M572.398 307.734C590.797 307.734 608.343 322.702 611.594 341.172L617.661 375.813H551.056L544.971 341.172L572.398 307.734Z" fill="#1E293B"/>
<path d="M540.266 341.172C540.266 332.303 543.776 323.798 550.023 317.528C556.27 311.257 564.743 307.734 573.578 307.734C582.413 307.734 590.886 311.257 597.133 317.528C603.38 323.798 606.89 332.303 606.89 341.172V375.813H540.266V341.172Z" fill="#FF693D"/>
<path d="M540.266 341.172C540.266 332.303 543.776 323.798 550.023 317.528C556.27 311.257 564.743 307.734 573.578 307.734C582.413 307.734 590.886 311.257 597.133 317.528C603.38 323.798 606.89 332.303 606.89 341.172V375.813H540.266V341.172Z" fill="#292926"/>
<path d="M598.873 347.15C602.175 333.106 593.51 319.035 579.519 315.72C565.529 312.406 551.51 321.103 548.208 335.147C544.906 349.19 553.571 363.262 567.562 366.576C581.552 369.891 595.571 361.193 598.873 347.15Z" fill="#292926"/>
<path d="M598.873 347.15C602.175 333.106 593.51 319.035 579.519 315.72C565.529 312.406 551.51 321.103 548.208 335.147C544.906 349.19 553.571 363.262 567.562 366.576C581.552 369.891 595.571 361.193 598.873 347.15Z" fill="#FF693D"/>
<path opacity="0.2" d="M573.578 319.184C580.119 319.186 586.419 321.662 591.223 326.119C596.026 330.576 598.981 336.686 599.497 343.232C599.497 342.557 599.606 341.864 599.606 341.172C599.606 334.242 596.864 327.597 591.982 322.697C587.101 317.798 580.481 315.045 573.578 315.045C566.675 315.045 560.054 317.798 555.173 322.697C550.292 327.597 547.55 334.242 547.55 341.172C547.55 341.864 547.55 342.557 547.659 343.232C548.175 336.686 551.129 330.576 555.933 326.119C560.736 321.662 567.036 319.186 573.578 319.184Z" fill="#292926"/>
<path opacity="0.1" d="M590.016 341.155H576.339V327.426C576.233 326.777 575.901 326.187 575.402 325.762C574.903 325.336 574.269 325.103 573.614 325.103C572.959 325.103 572.326 325.336 571.827 325.762C571.328 326.187 570.996 326.777 570.89 327.426V343.926C570.89 344.661 571.181 345.366 571.698 345.885C572.216 346.405 572.918 346.697 573.651 346.697H590.088C590.735 346.591 591.322 346.257 591.746 345.756C592.17 345.255 592.403 344.62 592.403 343.962C592.403 343.305 592.17 342.669 591.746 342.168C591.322 341.667 590.735 341.334 590.088 341.227L590.016 341.155Z" fill="#292926"/>
<path d="M590.016 343.944C590.662 343.837 591.249 343.504 591.673 343.003C592.097 342.502 592.33 341.866 592.33 341.209C592.33 340.551 592.097 339.916 591.673 339.415C591.249 338.914 590.662 338.58 590.016 338.474H573.578C573.183 338.409 572.778 338.431 572.393 338.539C572.007 338.646 571.649 338.837 571.344 339.097C571.039 339.357 570.794 339.681 570.626 340.045C570.458 340.41 570.371 340.807 570.371 341.209C570.371 341.611 570.458 342.008 570.626 342.372C570.794 342.737 571.039 343.061 571.344 343.321C571.649 343.581 572.007 343.771 572.393 343.879C572.778 343.987 573.183 344.009 573.578 343.944H590.016Z" fill="#FF693D"/>
<path opacity="0.3" d="M590.016 343.944C590.662 343.837 591.249 343.504 591.673 343.003C592.097 342.502 592.33 341.866 592.33 341.209C592.33 340.551 592.097 339.916 591.673 339.415C591.249 338.914 590.662 338.58 590.016 338.474H573.578C573.183 338.409 572.778 338.431 572.393 338.539C572.007 338.646 571.649 338.837 571.344 339.097C571.039 339.357 570.794 339.681 570.626 340.045C570.458 340.41 570.371 340.807 570.371 341.209C570.371 341.611 570.458 342.008 570.626 342.372C570.794 342.737 571.039 343.061 571.344 343.321C571.649 343.581 572.007 343.771 572.393 343.879C572.778 343.987 573.183 344.009 573.578 343.944H590.016Z" fill="#292926"/>
<path d="M576.339 324.67C576.233 324.021 575.901 323.431 575.402 323.006C574.903 322.58 574.269 322.347 573.614 322.347C572.959 322.347 572.326 322.58 571.827 323.006C571.328 323.431 570.996 324.021 570.89 324.67V341.079C570.996 341.727 571.328 342.317 571.827 342.743C572.326 343.168 572.959 343.402 573.614 343.402C574.269 343.402 574.903 343.168 575.402 342.743C575.901 342.317 576.233 341.727 576.339 341.079V324.67Z" fill="#FF693D"/>
<path opacity="0.6" d="M576.339 324.67C576.233 324.021 575.901 323.431 575.402 323.006C574.903 322.58 574.269 322.347 573.614 322.347C572.959 322.347 572.326 322.58 571.827 323.006C571.328 323.431 570.996 324.021 570.89 324.67V341.079C570.996 341.727 571.328 342.317 571.827 342.743C572.326 343.168 572.959 343.402 573.614 343.402C574.269 343.402 574.903 343.168 575.402 342.743C575.901 342.317 576.233 341.727 576.339 341.079V324.67Z" fill="#292926"/>
<path d="M173.057 599.63V558.918C178.052 558.918 178.052 551.133 173.057 551.133C157.6 551.133 142.18 551.023 126.668 550.932V607.452H173.057C178.052 607.506 178.052 599.63 173.057 599.63Z" fill="#292926"/>
<path opacity="0.3" d="M173.057 599.63V558.918C178.052 558.918 178.052 551.133 173.057 551.133C157.6 551.133 142.18 551.023 126.668 550.932V607.452H173.057C178.052 607.506 178.052 599.63 173.057 599.63Z" fill="#292926"/>
<path d="M173.057 558.918H137.021V599.558H173.057V558.918Z" fill="#292926"/>
<path opacity="0.8" d="M173.057 558.918H137.021V599.558H173.057V558.918Z" fill="#292926"/>
<path d="M144.595 603.512H19.6853C11.094 603.512 4.13745 592.663 4.13745 579.263C4.13745 565.862 11.094 555.014 19.6853 555.014H144.595V603.512Z" fill="#292926"/>
<path opacity="0.9" d="M144.595 603.512H19.6853C11.094 603.512 4.13745 592.663 4.13745 579.263C4.13745 565.862 11.094 555.014 19.6853 555.014H144.595V603.512Z" fill="#292926"/>
<path d="M144.595 551.133C103.691 551.133 62.7326 550.386 21.8468 551.133C-6.16118 551.644 -7.66875 605.52 19.8125 607.416C38.9567 608.729 58.6458 607.416 77.9354 607.416H144.686C149.681 607.416 149.681 599.631 144.686 599.631H28.4401C19.4674 599.631 13.0557 599.522 9.58649 588.892C6.58953 579.776 7.53402 560.961 19.8125 558.919C21.2089 558.809 22.6118 558.809 24.0082 558.919H144.722C149.717 558.919 149.717 551.133 144.722 551.133H144.595Z" fill="#292926"/>
<path d="M164.865 545.371V512.9C165.646 512.84 166.375 512.486 166.907 511.91C167.438 511.334 167.734 510.577 167.734 509.791C167.734 509.006 167.438 508.249 166.907 507.673C166.375 507.096 165.646 506.743 164.865 506.683C152.551 506.683 140.199 506.591 127.866 506.519V551.588H164.865C165.646 551.528 166.375 551.175 166.907 550.598C167.438 550.022 167.734 549.265 167.734 548.48C167.734 547.694 167.438 546.937 166.907 546.361C166.375 545.785 165.646 545.431 164.865 545.371Z" fill="#292926"/>
<path opacity="0.3" d="M164.865 545.371V512.9C165.646 512.84 166.375 512.486 166.907 511.91C167.438 511.334 167.734 510.577 167.734 509.791C167.734 509.006 167.438 508.249 166.907 507.673C166.375 507.096 165.646 506.743 164.865 506.683C152.551 506.683 140.199 506.591 127.866 506.519V551.588H164.865C165.646 551.528 166.375 551.175 166.907 550.598C167.438 550.022 167.734 549.265 167.734 548.48C167.734 547.694 167.438 546.937 166.907 546.361C166.375 545.785 165.646 545.431 164.865 545.371Z" fill="#292926"/>
<path d="M164.884 512.901H136.131V545.336H164.884V512.901Z" fill="#292926"/>
<path opacity="0.8" d="M164.884 512.901H136.131V545.336H164.884V512.901Z" fill="#292926"/>
<path d="M142.161 548.471H42.4984C35.6508 548.471 30.0928 539.811 30.0928 529.127C30.0928 518.443 35.6508 509.783 42.4984 509.783H142.161V548.471Z" fill="#292926"/>
<path opacity="0.9" d="M142.161 548.471H42.4984C35.6508 548.471 30.0928 539.811 30.0928 529.127C30.0928 518.443 35.6508 509.783 42.4984 509.783H142.161V548.471Z" fill="#292926"/>
<path d="M142.161 506.683C109.467 506.683 76.7728 506.082 44.224 506.683C21.883 507.085 20.6115 550.076 42.6074 551.589C57.8828 552.628 73.5942 551.589 88.9059 551.589H142.161C142.941 551.529 143.67 551.175 144.202 550.599C144.734 550.023 145.03 549.266 145.03 548.48C145.03 547.695 144.734 546.938 144.202 546.362C143.67 545.785 142.941 545.432 142.161 545.372H49.3824C42.226 545.372 37.1039 545.281 34.3431 536.803C31.9455 529.51 32.7083 514.505 42.4984 512.901C43.6167 512.809 44.7404 512.809 45.8587 512.901H142.125C142.905 512.84 143.634 512.487 144.166 511.911C144.698 511.334 144.993 510.578 144.993 509.792C144.993 509.006 144.698 508.25 144.166 507.673C143.634 507.097 142.905 506.743 142.125 506.683H142.161Z" fill="#292926"/>
<path d="M151.134 456.181C151.086 453.75 150.092 451.434 148.364 449.73C146.635 448.026 144.311 447.069 141.888 447.065H86.7262C84.3051 447.074 81.9833 448.032 80.2562 449.735C78.529 451.438 77.5331 453.751 77.481 456.181V456.856C75.4997 456.198 73.4286 455.853 71.3418 455.835C62.2601 455.835 56.2117 462.927 56.2117 473.483C56.2117 483.566 66.7828 491.114 76.1914 491.114C77.1491 491.11 78.1042 491.012 79.0431 490.822C81.2395 497.603 85.2629 503.642 90.6676 508.27H137.892C142.138 504.671 145.549 500.184 147.886 495.123C150.224 490.062 151.431 484.549 151.424 478.971C151.424 475.288 151.315 466.701 151.134 456.181ZM76.2459 485.207C69.8342 485.207 62.0966 479.974 62.0966 473.483C62.0966 470.73 62.7687 461.742 71.3418 461.742C73.4254 461.783 75.4781 462.255 77.372 463.127C77.2631 470.42 77.1904 476.163 77.1904 478.971C77.2047 481.025 77.387 483.073 77.7353 485.097C77.2419 485.166 76.744 485.196 76.2459 485.188V485.207Z" fill="#FF693D"/>
<path opacity="0.2" d="M151.134 456.181C151.086 453.75 150.092 451.434 148.364 449.73C146.635 448.026 144.311 447.069 141.888 447.065H86.7262C84.3051 447.074 81.9833 448.032 80.2562 449.735C78.529 451.438 77.5331 453.751 77.481 456.181V456.856C75.4997 456.198 73.4286 455.853 71.3418 455.835C62.2601 455.835 56.2117 462.927 56.2117 473.483C56.2117 483.566 66.7828 491.114 76.1914 491.114C77.1491 491.11 78.1042 491.012 79.0431 490.822C81.2395 497.603 85.2629 503.642 90.6676 508.27H137.892C142.138 504.671 145.549 500.184 147.886 495.123C150.224 490.062 151.431 484.549 151.424 478.971C151.424 475.288 151.315 466.701 151.134 456.181ZM76.2459 485.207C69.8342 485.207 62.0966 479.974 62.0966 473.483C62.0966 470.73 62.7687 461.742 71.3418 461.742C73.4254 461.783 75.4781 462.255 77.372 463.127C77.2631 470.42 77.1904 476.163 77.1904 478.971C77.2047 481.025 77.387 483.073 77.7353 485.097C77.2419 485.166 76.744 485.196 76.2459 485.188V485.207Z" fill="#292926"/>
<path opacity="0.9" d="M128.629 471.279L121.709 455.873L117.35 465.627C115.777 465.409 114.182 465.409 112.609 465.627L108.232 455.873L101.311 471.279C99.1345 473.652 97.9114 476.75 97.8784 479.976C97.8784 487.98 105.543 494.47 114.97 494.47C124.397 494.47 132.062 487.98 132.062 479.976C132.029 476.75 130.806 473.652 128.629 471.279ZM107.378 477.314C107.378 476.129 108.068 475.181 108.94 475.181C109.812 475.181 110.52 476.129 110.52 477.314C110.52 478.499 109.812 479.465 108.94 479.465C108.068 479.465 107.378 478.499 107.378 477.314ZM117.386 485.664C116.492 485.657 115.632 485.32 114.97 484.716C114.319 485.325 113.462 485.664 112.573 485.664C111.609 485.664 110.685 485.28 110.004 484.596C109.323 483.913 108.94 482.985 108.94 482.018H110.447C110.44 482.476 110.584 482.924 110.857 483.291C111.129 483.659 111.515 483.926 111.954 484.05C112.393 484.175 112.861 484.151 113.285 483.981C113.709 483.811 114.065 483.506 114.298 483.112L114.934 482.073L115.588 483.112C115.825 483.497 116.18 483.794 116.6 483.957C117.02 484.121 117.482 484.143 117.916 484.019C118.35 483.895 118.731 483.633 119.002 483.272C119.274 482.911 119.421 482.47 119.42 482.018H120.946C120.946 482.973 120.573 483.889 119.908 484.571C119.242 485.253 118.337 485.645 117.386 485.664ZM121.019 479.465C120.147 479.465 119.457 478.499 119.457 477.314C119.457 476.129 120.147 475.181 121.019 475.181C121.89 475.181 122.599 476.129 122.599 477.314C122.599 478.499 121.872 479.465 121 479.465H121.019Z" fill="#292926"/>
<path d="M315.837 467.163C315.837 467.163 313.487 477.412 326.227 488.494C338.968 499.576 367.282 521.479 372.085 531.068C376.888 540.657 391.063 548.834 395.15 556.812C399.237 564.789 394.102 563.712 394.102 563.712C394.102 563.712 399.094 573.758 391.021 572.788C391.021 572.788 389.299 578.328 384.393 573.582C379.488 568.836 363.987 552.446 362.315 546.435C362.315 546.435 330.217 525.976 314.662 515.153C299.107 504.331 295.451 494.472 263.834 497.48C232.216 500.489 315.837 467.163 315.837 467.163Z" fill="#FF693D"/>
<path opacity="0.2" d="M317.07 476.151C315.848 473.316 315.421 470.203 315.836 467.144C315.836 467.144 232.218 500.488 263.835 497.479C288.054 495.245 295.875 500.433 305.203 507.872C292.854 494.291 310.779 480.398 317.07 476.151Z" fill="#292926"/>
<path d="M389.244 573.153C389.244 573.153 391.701 576.574 390.039 578.406C389.726 576.665 388.757 575.111 387.331 574.059L389.244 573.153Z" fill="#FF693D"/>
<path d="M394.275 568.147C395.717 568.886 396.856 570.103 397.497 571.587C398.139 573.072 398.242 574.733 397.79 576.286C397.568 574.909 396.895 573.645 395.876 572.69C394.858 571.735 393.55 571.143 392.158 571.005L394.275 568.147Z" fill="#FF693D"/>
<path d="M395.515 559.97C395.515 559.97 401.164 561.655 400.208 565.976C399.779 564.902 399.019 563.993 398.037 563.379C397.056 562.764 395.904 562.477 394.747 562.558L395.515 559.97Z" fill="#FF693D"/>
<g opacity="0.6">
<path d="M389.243 573.152C389.243 573.152 391.701 576.574 390.039 578.405C389.725 576.665 388.757 575.11 387.331 574.058L389.243 573.152Z" fill="#292926"/>
<path d="M394.274 568.147C395.716 568.886 396.856 570.103 397.497 571.587C398.138 573.072 398.242 574.733 397.79 576.286C397.567 574.909 396.895 573.645 395.876 572.69C394.857 571.735 393.55 571.143 392.158 571.005L394.274 568.147Z" fill="#292926"/>
<path d="M395.515 559.97C395.515 559.97 401.163 561.655 400.207 565.976C399.778 564.902 399.018 563.993 398.037 563.379C397.056 562.764 395.903 562.477 394.747 562.558L395.515 559.97Z" fill="#292926"/>
</g>
<path opacity="0.2" d="M388.969 567.013C388.969 567.013 387.539 559.849 382.545 556.917C382.553 557.007 391.086 556.822 388.969 567.013Z" fill="#292926"/>
<path d="M119.052 391.218C119.052 391.218 76.6031 397.89 70.7873 359.665C64.9714 321.441 50.8842 292.789 89.0746 285.015C132.944 276.079 105.213 258.902 76.4131 265.663C47.6136 272.425 39.4772 288.224 41.5369 325.427C43.5965 362.63 54.093 401.973 79.142 402.982L119.052 391.218Z" fill="#FF693D"/>
<path opacity="0.3" d="M94.328 283.801C125.19 275.973 110.388 263.586 88.2668 264.15C90.6017 266.819 92.3477 269.948 93.3918 273.333C94.4359 276.718 94.7548 280.284 94.328 283.801Z" fill="#292926"/>
<path opacity="0.3" d="M88.2848 285.198C87.277 279.436 84.5795 270.838 77.3097 265.471C76.9829 265.501 76.6743 265.53 76.3756 265.667C72.8041 266.48 69.2988 267.559 65.8893 268.896C71.2926 271.298 77.7929 276.462 80.1068 287.649C82.7608 286.61 85.4961 285.79 88.2848 285.198Z" fill="#292926"/>
<g opacity="0.3">
<path d="M64.8004 302.522C65.7704 299.396 67.4481 296.532 69.7042 294.153C65.728 289.358 58.2161 282.956 47.223 284.463C45.3932 287.86 44.0342 291.49 43.1833 295.251C51.0678 294.767 58.8271 297.377 64.8004 302.522Z" fill="#292926"/>
<path d="M41.9916 332.152C47.2123 330.393 56.4714 327.952 65.1002 328.998C64.4029 325.013 63.8709 321.231 63.5982 317.681C56.3014 315.515 48.516 315.597 41.2641 317.918C41.3045 320.341 41.3879 322.832 41.5375 325.445C41.647 327.623 41.8028 329.907 41.9916 332.152Z" fill="#292926"/>
<path d="M82.3203 382.076C79.0942 379.26 76.4627 375.832 74.5786 371.992C69.0805 375.309 63.0461 380.353 63.7951 386.485C64.781 395.186 73.7005 386.684 82.3203 382.076Z" fill="#292926"/>
<path d="M49.6147 355.417C50.3236 361.115 61.8435 358.174 70.2814 356.556C69.6087 352.441 68.857 348.461 68.0971 344.591C61.0967 346.113 48.8957 349.61 49.6147 355.417Z" fill="#292926"/>
</g>
<path opacity="0.1" d="M57.2914 388.599C62.8643 397.205 70.0285 402.618 79.127 403L119.037 391.237C110.808 392.26 102.456 391.5 94.5526 389.009C87.4856 389.858 80.5476 391.558 73.8905 394.072C66.888 396.761 61.2574 393.085 57.2914 388.599Z" fill="#292926"/>
<path d="M173.952 415.903C173.952 415.903 194.798 463.229 172.637 487.765C150.476 512.3 81.1001 482.13 79.9764 498.723C78.8526 515.316 94.6223 562.399 84.7748 570.567C82.1937 572.739 79.2538 574.449 76.0862 575.619C74.8487 576.047 73.5298 576.188 72.2298 576.031C70.9298 575.874 69.6831 575.424 68.5846 574.714C67.4861 574.005 66.5649 573.055 65.891 571.936C65.2172 570.818 64.8085 569.561 64.6962 568.261L55.6689 470.431C55.6689 470.431 55.1248 464.535 63.3662 467.732C63.3596 467.66 79.9086 379.727 173.952 415.903Z" fill="#FF693D"/>
<path opacity="0.2" d="M173.952 415.903C173.952 415.903 194.798 463.229 172.637 487.765C150.476 512.3 81.1001 482.13 79.9764 498.723C78.8526 515.316 94.6223 562.399 84.7748 570.567C82.1937 572.739 79.2538 574.449 76.0862 575.619C74.8487 576.047 73.5298 576.188 72.2298 576.031C70.9298 575.874 69.6831 575.424 68.5846 574.714C67.4861 574.005 66.5649 573.055 65.891 571.936C65.2172 570.818 64.8085 569.561 64.6962 568.261L55.6689 470.431C55.6689 470.431 55.1248 464.535 63.3662 467.732C63.3596 467.66 79.9086 379.727 173.952 415.903Z" fill="#292926"/>
<path d="M360.619 421.679C360.619 421.679 379.361 422.996 381.482 426.138C383.603 429.281 366.983 431.124 364.796 433.807L360.619 421.679Z" fill="#FF693D"/>
<path opacity="0.2" d="M360.619 421.679C360.619 421.679 379.361 422.996 381.482 426.138C383.603 429.281 366.983 431.124 364.796 433.807L360.619 421.679Z" fill="#292926"/>
<path d="M363.012 463.303C363.653 462.968 364.366 462.795 365.09 462.801C367.219 462.86 368.315 464.82 368.956 466.603C369.181 467.257 370.207 466.87 369.982 466.216C369.74 465.115 369.186 464.107 368.386 463.311C367.585 462.515 366.572 461.965 365.467 461.726C364.392 461.636 363.315 461.875 362.381 462.412C361.774 462.778 362.494 463.642 363.012 463.303Z" fill="#FF693D"/>
<path d="M360.13 466.378C363.669 466.835 364.957 470.875 365.087 473.873C365.151 474.56 366.204 474.463 366.177 473.772C366.02 470.285 364.345 465.824 360.323 465.302C359.62 465.221 359.426 466.297 360.13 466.378Z" fill="#FF693D"/>
<path d="M357.778 468.491C359.865 469.484 359.399 472.573 358.881 474.299C358.687 474.974 359.765 475.148 359.961 474.491C360.63 472.223 360.804 468.741 358.254 467.499C358.122 467.436 357.97 467.428 357.832 467.477C357.694 467.525 357.581 467.626 357.518 467.758C357.455 467.89 357.447 468.041 357.495 468.178C357.544 468.316 357.646 468.428 357.778 468.491Z" fill="#FF693D"/>
<g opacity="0.5">
<path d="M363.013 463.302C363.654 462.967 364.368 462.795 365.091 462.8C367.22 462.859 368.317 464.819 368.957 466.602C369.182 467.257 370.209 466.87 369.983 466.216C369.742 465.115 369.188 464.106 368.387 463.311C367.587 462.515 366.573 461.965 365.468 461.726C364.393 461.636 363.316 461.875 362.382 462.412C361.775 462.778 362.495 463.642 363.013 463.302Z" fill="#292926"/>
<path d="M360.131 466.378C363.67 466.835 364.959 470.875 365.089 473.873C365.152 474.56 366.205 474.463 366.178 473.772C366.021 470.285 364.346 465.824 360.325 465.302C359.621 465.221 359.428 466.297 360.131 466.378Z" fill="#292926"/>
<path d="M357.778 468.492C359.865 469.485 359.399 472.574 358.881 474.3C358.687 474.974 359.765 475.148 359.961 474.492C360.63 472.223 360.803 468.741 358.254 467.499C358.121 467.436 357.97 467.428 357.832 467.477C357.694 467.526 357.581 467.627 357.518 467.759C357.454 467.89 357.446 468.041 357.495 468.179C357.544 468.316 357.645 468.429 357.778 468.492Z" fill="#292926"/>
</g>
<path d="M330.708 467.578C321.068 462.321 315.036 476.321 286.428 491.51C257.82 506.699 213.965 492.961 162.995 496.187C112.026 499.413 102.304 477.783 102.304 477.783L59.4643 458.588C59.4643 458.588 48.19 402.481 88.2293 393.314C128.269 384.147 168.946 394.986 199.594 403.103C230.242 411.219 255.81 430.147 272.735 421.89C284.667 416.447 297.203 412.431 310.081 409.926C310.081 409.926 318.608 396.371 338.356 392.123C338.356 392.123 362.827 379.522 368.719 383.849C374.611 388.175 354.716 410.678 354.716 410.678C354.716 410.678 367.827 427.161 367.81 433.529C367.793 439.896 357.603 448.716 364.218 460.874C364.236 460.873 354.518 480.557 330.708 467.578Z" fill="#FF693D"/>
<path opacity="0.2" d="M162.993 496.187C213.962 492.961 257.859 506.75 286.426 491.51C314.992 476.27 321.051 462.359 330.706 467.578C354.515 480.557 364.213 460.838 364.213 460.838C363.836 460.125 363.515 459.425 363.232 458.74C361.48 456.621 359.408 454.806 357.59 455.138C353.48 455.846 350.17 458.468 339.512 451.9C325.049 442.983 305.014 459.406 291.755 471.683C278.497 483.96 281.815 487.977 257.419 491.268C229.086 495.141 192.465 478.255 169.301 473.862C149.755 470.194 111.891 465.625 88.8396 471.583L102.216 477.645C102.216 477.645 112.024 499.413 162.993 496.187Z" fill="#292926"/>
<path opacity="0.6" d="M362.33 461.049C362.33 461.049 360.934 457.037 359.557 458.186C358.18 459.334 356.817 468.179 362.33 461.049Z" fill="#292926"/>
<path opacity="0.2" d="M342.848 401.138L350.819 408.155C350.819 408.155 369.349 390.704 366.188 386.216C363.028 381.729 361.444 396.905 342.848 401.138Z" fill="#292926"/>
<path opacity="0.2" d="M359.655 432.859C361.519 433.216 364.033 428.314 359.629 425.236C355.225 422.159 357.773 432.503 359.655 432.859Z" fill="#292926"/>
<path opacity="0.2" d="M363.052 437.525C362.417 436.598 365.151 433.683 366.978 435.229C368.805 436.775 363.707 438.467 363.052 437.525Z" fill="#292926"/>
<g opacity="0.6">
<path d="M350.728 453.382C350.863 448.299 347.035 443.927 342.963 441.458C342.343 441.095 341.904 442.085 342.487 442.45C346.267 444.728 349.774 448.8 349.638 453.483C349.702 454.17 350.718 454.076 350.728 453.382Z" fill="#292926"/>
<path d="M347.662 454.285C345.507 448.793 339.099 446.21 333.656 445.764C332.973 445.699 332.761 446.777 333.462 446.84C338.517 447.249 344.689 449.452 346.634 454.654C346.688 454.782 346.79 454.884 346.918 454.94C347.046 454.996 347.191 455.001 347.323 454.954C347.454 454.907 347.563 454.811 347.626 454.687C347.689 454.562 347.702 454.419 347.662 454.285Z" fill="#292926"/>
<path d="M345.824 457.555C344.18 456.413 342.324 455.609 340.365 455.188C338.405 454.768 336.381 454.74 334.41 455.106C333.721 455.17 333.822 456.273 334.511 456.191C336.345 455.84 338.23 455.852 340.059 456.228C341.888 456.604 343.624 457.336 345.167 458.382C345.703 458.825 346.413 457.993 345.86 457.552L345.824 457.555Z" fill="#292926"/>
</g>
<path opacity="0.2" d="M149.796 422.601L140.639 418.813L131.911 426.604L118.09 448.856C118.09 448.856 104.617 462.776 97.6922 475.637L102.314 477.709C102.314 477.709 107.037 488.218 127.076 493.464C168.14 478.731 149.796 422.601 149.796 422.601Z" fill="#292926"/>
<path opacity="0.1" d="M223.414 497.744L236.345 463.864L248.558 450.57L239.313 449.599C239.313 449.599 196.371 453.306 194.614 481.085C194.181 487.509 196.091 492.13 197.098 496.105C206.22 496.54 215.013 497.188 223.414 497.744Z" fill="#292926"/>
<g opacity="0.3">
<path d="M295.948 413.327C297.669 427.615 316.461 448.116 312.167 432.534C310.126 425.246 309.038 417.726 308.93 410.159C306.808 410.574 301.979 411.622 295.948 413.327Z" fill="#292926"/>
<path d="M278.869 441.152C276.455 434.546 275.384 427.527 275.719 420.503C274.716 420.942 273.716 421.417 272.734 421.891C268.501 423.788 263.802 424.405 259.221 423.667C263.402 441.394 283.812 455.033 278.869 441.152Z" fill="#292926"/>
<path d="M177.177 431.2C174.376 414.933 179.949 404.295 183.912 399.022C178.288 397.608 172.302 396.227 166.198 394.966C159.933 429.453 181.07 453.952 177.177 431.2Z" fill="#292926"/>
<path d="M225.712 440.512C224.846 431.51 226.828 422.462 231.38 414.634C225.936 412.382 220.204 409.993 214.271 407.804C206.249 433.57 226.988 458.707 225.712 440.512Z" fill="#292926"/>
</g>
<path d="M356.188 441.35C354.633 442.351 352.817 442.318 352.203 441.225C351.59 440.133 352.275 438.629 353.867 437.624C355.459 436.62 357.258 436.673 357.871 437.766C358.485 438.858 357.8 440.362 356.188 441.35Z" fill="#292926"/>
<path d="M351.381 432.29C351.442 432.455 351.545 432.602 351.681 432.714C351.817 432.826 351.98 432.901 352.154 432.93C353.526 433.205 354.816 433.787 355.929 434.633C357.041 435.478 357.945 436.565 358.573 437.81C358.647 437.935 358.745 438.044 358.862 438.13C358.979 438.216 359.112 438.279 359.253 438.313C359.395 438.348 359.541 438.354 359.685 438.331C359.829 438.308 359.967 438.257 360.09 438.181C360.283 438.058 360.433 437.879 360.521 437.669C360.61 437.459 360.632 437.227 360.586 437.004C359.843 435.435 358.743 434.061 357.373 432.99C356.002 431.92 354.4 431.183 352.693 430.838C352.555 430.802 352.412 430.794 352.271 430.815C352.13 430.836 351.995 430.885 351.874 430.96C351.752 431.034 351.647 431.132 351.564 431.247C351.482 431.363 351.424 431.494 351.393 431.633C351.307 431.843 351.302 432.077 351.381 432.29Z" fill="#292926"/>
<path opacity="0.2" d="M244.567 498.802C250.522 493.492 276.365 486.237 276.365 486.237L280.994 483.621L270.096 479.61L243.892 486.132L233.872 498.384C237.516 498.577 241.083 498.74 244.567 498.802Z" fill="#292926"/>
<path d="M280.454 459.338C280.454 459.338 296.647 476.084 282.735 484.062C268.824 492.04 231.925 490.392 231.898 509.948C231.872 529.505 226.584 556.533 226.584 556.533C226.584 556.533 223.674 582.338 215.02 577.245C215.02 577.245 206.937 586.089 202.907 577.925C202.907 577.925 194.24 576.663 200.611 565.149C200.611 565.149 193.091 564.019 204.66 547.32C204.66 547.32 213.93 523.171 201.825 489.211C189.719 455.252 258.541 435.166 280.454 459.338Z" fill="#FF693D"/>
<path opacity="0.4" d="M215.092 577.238C223.753 582.403 226.657 556.526 226.657 556.526C228.871 544.721 230.473 532.81 231.457 520.842C230.218 517.144 228.012 513.079 224.111 511.871C217.592 509.882 212.522 519.817 208.093 521.63C208.479 537.518 204.732 547.313 204.732 547.313C193.162 563.994 200.683 565.142 200.683 565.142C194.314 576.675 202.979 577.918 202.979 577.918C207.01 586.082 215.092 577.238 215.092 577.238Z" fill="#292926"/>
<g opacity="0.2">
<path d="M209.703 565.66C209.703 565.66 208.575 573.28 204.574 575.947C204.567 575.875 212.281 574.743 209.703 565.66Z" fill="#292926"/>
<path d="M216.703 562.917C216.703 562.917 218.613 570.529 215.771 574.841C215.771 574.841 222.511 569.312 216.703 562.917Z" fill="#292926"/>
</g>
<path d="M143.484 403.209C143.484 403.209 164.163 448.727 142.002 473.262C119.841 497.798 78.8655 477.775 77.7417 494.368C76.618 510.961 93.2018 547.025 83.3544 555.193C80.7732 557.365 77.8333 559.075 74.6657 560.245C73.4283 560.673 72.1093 560.814 70.8093 560.657C69.5093 560.5 68.2626 560.05 67.1641 559.34C66.0656 558.631 65.1444 557.681 64.4705 556.562C63.7967 555.444 63.388 554.187 63.2757 552.887L54.2417 454.985C54.2417 454.985 53.6977 449.088 61.9391 452.286C61.9391 452.286 49.4402 367.034 143.484 403.209Z" fill="#FF693D"/>
<path opacity="0.3" d="M133.698 440.43C131.547 417.116 135.468 407.233 136.095 400.535C136.55 397.103 137.668 393.791 139.388 390.783C132.832 390.125 126.245 389.807 119.654 389.831C117.727 396.722 119.755 396.078 119.755 396.078C113.972 414.561 135.849 463.743 133.698 440.43Z" fill="#292926"/>
<g opacity="0.1">
<path d="M69.422 448.057C69.0125 438.062 65.2188 413.022 81.7207 399.187C56.2264 413.195 61.9391 452.286 61.9391 452.286C61.9391 452.286 69.8135 458.053 69.422 448.057Z" fill="#292926"/>
</g>
<path d="M574.295 497.505C574.295 497.505 567.1 508.289 564.013 500.896C560.926 493.504 573.138 493.224 573.138 493.224C573.138 493.224 560.174 488.137 563.492 481.552C566.81 474.967 577.343 488.878 577.343 488.878C577.343 488.878 572.752 475.345 580.488 475.345C588.224 475.345 583.073 491.644 583.073 491.644C583.073 491.644 591.735 477.699 593.953 483.725C596.172 489.751 583.922 497.752 583.922 497.752C583.922 497.752 596.789 499.398 593.143 506.741C589.497 514.084 580.797 501.802 580.797 501.802C580.797 501.802 583.941 514.66 577.864 515.664C571.787 516.668 574.295 497.505 574.295 497.505Z" fill="#FF693D"/>
<path d="M352.842 480.259C376.855 487.306 400.451 495.667 423.52 505.305C467.923 523.475 512.808 545.512 548.736 577.681C549.817 578.671 551.535 577.129 550.435 576.138C515.357 544.769 471.996 523.056 428.674 505.019C404.177 494.574 379.074 485.569 353.498 478.05C353.204 477.961 352.886 477.992 352.614 478.135C352.343 478.278 352.14 478.521 352.05 478.811C351.961 479.102 351.992 479.416 352.137 479.683C352.281 479.951 352.528 480.152 352.823 480.24L352.842 480.259Z" fill="#FF693D"/>
<path d="M557.198 577.962C557.198 577.962 558.259 565.582 550.871 570.274C543.482 574.966 553.436 580.975 553.436 580.975C553.436 580.975 539.354 579.033 537.83 586.095C536.305 593.158 554.131 586.606 554.131 586.606C554.131 586.606 541.495 595.644 547.9 599.332C554.305 603.02 560.69 587.017 560.69 587.017C560.69 587.017 558.761 602.723 564.548 598.772C570.336 594.821 565.359 582.309 565.359 582.309C565.359 582.309 577.107 587.067 578.863 579.214C580.618 571.361 565.359 577.436 565.359 577.436C565.359 577.436 576.355 568.249 571.976 564.528C567.596 560.807 557.198 577.962 557.198 577.962Z" fill="#FF693D"/>
<path d="M503.602 532C503.602 532 518.919 541.631 544.905 539.474C570.891 537.318 503.602 532 503.602 532Z" fill="#FF693D"/>
<path d="M588.94 545C588.94 545 605.589 558.862 596.811 566.402C588.033 573.943 596.657 554.878 588.94 545Z" fill="#FF693D"/>
<path opacity="0.6" d="M556.248 581.836C555.187 580.882 556.113 578.692 558.312 576.897C560.512 575.103 563.116 574.494 564.1 575.449C565.084 576.404 564.235 578.593 562.036 580.388C559.836 582.182 557.29 582.791 556.248 581.836Z" fill="#1C1003"/>
<path opacity="0.5" d="M573.18 497.505C573.18 497.505 565.984 508.289 562.897 500.896C559.811 493.504 572.022 493.224 572.022 493.224C572.022 493.224 559.058 488.137 562.376 481.552C565.694 474.967 576.228 488.878 576.228 488.878C576.228 488.878 571.636 475.345 579.372 475.345C587.108 475.345 581.957 491.644 581.957 491.644C581.957 491.644 590.619 477.699 592.838 483.725C595.056 489.751 582.806 497.752 582.806 497.752C582.806 497.752 595.674 499.398 592.028 506.741C588.381 514.084 579.681 501.802 579.681 501.802C579.681 501.802 582.825 514.66 576.749 515.664C570.672 516.668 573.18 497.505 573.18 497.505Z" fill="#1C1003"/>
<path d="M606.008 488.006C606.008 488.006 625.03 487.298 645.189 501.424C665.349 515.549 606.008 488.006 606.008 488.006Z" fill="#FF693D"/>
<path d="M618.056 541.083C618.056 541.083 640.916 537.477 638.601 526.99C636.286 516.503 631.039 536.621 618.056 541.083Z" fill="#FF693D"/>
<path d="M576.635 491.032C575.13 491.328 574.474 493.584 575.15 496.086C575.825 498.589 577.6 500.35 579.008 500.054C580.416 499.758 581.169 497.502 580.474 495.016C579.78 492.53 578.101 490.736 576.635 491.032Z" fill="#FF693D"/>
<path d="M564.744 538.581C569.727 534.114 574.175 528.893 577.967 523.055C578.124 522.796 578.356 522.612 578.621 522.535C578.885 522.458 579.164 522.493 579.408 522.635C579.652 522.777 579.844 523.015 579.949 523.307C580.055 523.599 580.067 523.925 579.984 524.227C578.529 529.434 574.909 536.409 566.017 541.059C565.742 541.164 565.445 541.157 565.174 541.039C564.904 540.921 564.676 540.7 564.528 540.412C564.379 540.123 564.32 539.785 564.359 539.452C564.399 539.119 564.534 538.812 564.744 538.581Z" fill="#FF693D"/>
<path d="M370.242 469.092C391.661 476.097 413.434 481.844 435.46 486.306C477.706 495.194 522.182 501.247 565.102 494.613C566.416 494.413 566.831 496.521 565.586 496.721C523.651 503.21 480.42 497.666 439.09 489.268C415.612 484.659 392.414 478.589 369.62 471.091C369.386 470.984 369.197 470.791 369.091 470.547C368.984 470.303 368.966 470.027 369.041 469.771C369.116 469.514 369.278 469.296 369.497 469.157C369.715 469.018 369.974 468.969 370.225 469.019L370.242 469.092Z" fill="#FF693D"/>
<path opacity="0.9" d="M331.957 589.341L315.994 599.999C312.752 599.999 310.127 589.486 310.127 576.499C310.127 563.512 312.752 552.999 315.994 552.999H363.127L331.957 589.341Z" fill="#BB4E2C"/>
<path opacity="0.9" d="M348.569 580.308L359.353 575.235C361.351 575.526 362.032 582.181 360.875 590.11C359.718 598.04 357.165 604.223 355.168 603.931L326.128 599.696L348.569 580.308Z" fill="#BB4E2C"/>
<path opacity="0.9" d="M363.765 593.736L361.699 587.233C362.015 586.121 365.843 586.236 370.257 587.49C374.67 588.745 377.987 590.66 377.671 591.772L373.078 607.935L363.765 593.736Z" fill="#BB4E2C"/>
<path opacity="0.9" d="M297.574 586.547L308.78 590.605C309.983 592.225 305.75 597.405 299.317 602.183C292.885 606.961 286.702 609.517 285.499 607.897L268 584.337L297.574 586.547Z" fill="#BB4E2C"/>
<path opacity="0.9" d="M301.975 574.556L306.891 576.336C307.42 577.047 305.562 579.32 302.74 581.416C299.918 583.512 297.205 584.634 296.677 583.923L289 573.587L301.975 574.556Z" fill="#BB4E2C"/>
<path opacity="0.9" d="M251.182 583.146L261.626 577.407C263.638 577.572 264.735 584.171 264.078 592.157C263.421 600.143 261.26 606.474 259.248 606.309L230 603.903L251.182 583.146Z" fill="#BB4E2C"/>
<path opacity="0.9" d="M414.321 571.408L434.294 577.732C436.523 580.492 429.452 589.894 418.489 598.748C407.526 607.602 396.846 612.535 394.617 609.775L362.21 569.648L414.321 571.408Z" fill="#BB4E2C"/>
</svg>
