<?xml version="1.0" encoding="UTF-8"?>
<svg width="662" height="608" viewBox="0 0 662 608" fill="none" xmlns="http://www.w3.org/2000/svg">
<path d="M442.58 414.717C518.64 338.37 518.64 214.586 442.58 138.239C366.521 61.8916 243.204 61.8917 167.144 138.239C91.0844 214.586 91.0844 338.37 167.144 414.717C243.204 491.064 366.521 491.064 442.58 414.717Z" fill="#292926"/>
<path d="M247.781 122.112C249.307 122.112 250.814 122.112 252.322 122.221C227.461 123.356 203.994 134.068 186.801 152.129C169.608 170.19 160.014 194.208 160.014 219.189C160.014 244.169 169.608 268.188 186.801 286.248C203.994 304.309 227.461 315.021 252.322 316.156C250.814 316.156 249.307 316.284 247.781 316.284C222.129 316.284 197.528 306.055 179.389 287.848C161.251 269.641 151.061 244.947 151.061 219.198C151.061 193.449 161.251 168.755 179.389 150.548C197.528 132.34 222.129 122.112 247.781 122.112Z" fill="#292926"/>
<path d="M262.312 122.222H255.047V211.906H262.312V122.222Z" fill="#292926"/>
<path d="M262.312 226.491H255.047V316.175H262.312V226.491Z" fill="#292926"/>
<path d="M186.952 337.889H161.687C155.247 337.889 150.026 343.13 150.026 349.594V359.859C150.026 366.323 155.247 371.564 161.687 371.564H186.952C193.392 371.564 198.613 366.323 198.613 359.859V349.594C198.613 343.13 193.392 337.889 186.952 337.889Z" fill="#292926"/>
<path d="M52.434 126.488H24.4079C17.9677 126.488 12.7469 131.728 12.7469 138.193V157.683C12.7469 164.147 17.9677 169.388 24.4079 169.388H52.434C58.8741 169.388 64.0949 164.147 64.0949 157.683V138.193C64.0949 131.728 58.8741 126.488 52.434 126.488Z" fill="#292926"/>
<path d="M123.635 126.488H85.0558C78.6157 126.488 73.3949 131.728 73.3949 138.193V157.683C73.3949 164.147 78.6157 169.388 85.0558 169.388H123.635C130.075 169.388 135.296 164.147 135.296 157.683V138.193C135.296 131.728 130.075 126.488 123.635 126.488Z" fill="#292926"/>
<path d="M104.182 176.299H65.6026C59.1624 176.299 53.9417 181.54 53.9417 188.004V207.494C53.9417 213.959 59.1624 219.199 65.6026 219.199H104.182C110.622 219.199 115.843 213.959 115.843 207.494V188.004C115.843 181.54 110.622 176.299 104.182 176.299Z" fill="#292926"/>
<path d="M577.156 223.282H525.518C519.078 223.282 513.857 228.523 513.857 234.987V254.477C513.857 260.942 519.078 266.182 525.518 266.182H577.156C583.597 266.182 588.817 260.942 588.817 254.477V234.987C588.817 228.523 583.597 223.282 577.156 223.282Z" fill="#292926"/>
<path d="M648.339 223.282H609.76C603.32 223.282 598.099 228.523 598.099 234.987V254.477C598.099 260.942 603.32 266.182 609.76 266.182H648.339C654.779 266.182 660 260.942 660 254.477V234.987C660 228.523 654.779 223.282 648.339 223.282Z" fill="#292926"/>
<path d="M612.539 273.076H573.96C567.52 273.076 562.299 278.317 562.299 284.781V304.271C562.299 310.736 567.52 315.976 573.96 315.976H612.539C618.979 315.976 624.2 310.736 624.2 304.271V284.781C624.2 278.317 618.979 273.076 612.539 273.076Z" fill="#292926"/>
<path d="M640.184 168.586H601.605C595.165 168.586 589.944 173.826 589.944 180.291V199.781C589.944 206.246 595.165 211.486 601.605 211.486H640.184C646.624 211.486 651.845 206.246 651.845 199.781V180.291C651.845 173.826 646.624 168.586 640.184 168.586Z" fill="#292926"/>
<path d="M649.374 375.923H402.461V606.759H649.374V375.923Z" fill="#292926"/>
<path opacity="0.2" d="M565.895 375.923H402.461V606.759H565.895V375.923Z" fill="#292926"/>
<path opacity="0.6" d="M649.374 375.923H402.461V606.759H649.374V375.923Z" fill="#292926"/>
<path d="M548.15 393.735H420.225V451.221H548.15V393.735Z" fill="#292926"/>
<path opacity="0.5" d="M548.15 393.735H420.225V451.221H548.15V393.735Z" fill="#292926"/>
<g opacity="0.4">
<path d="M535.272 445.24H433.121V443.873C433.123 443.129 432.979 442.392 432.697 441.704C432.416 441.017 432.001 440.391 431.478 439.865C430.955 439.338 430.333 438.92 429.649 438.635C428.965 438.35 428.231 438.203 427.49 438.203H426.128V406.698H427.49C428.231 406.698 428.965 406.551 429.649 406.266C430.333 405.981 430.955 405.563 431.478 405.036C432.001 404.509 432.416 403.884 432.697 403.196C432.979 402.508 433.123 401.771 433.121 401.028V399.66H535.272V401.028C535.272 402.531 535.867 403.974 536.926 405.037C537.986 406.1 539.422 406.698 540.921 406.698H542.283V438.276H540.921C539.422 438.276 537.986 438.873 536.926 439.937C535.867 441 535.272 442.442 535.272 443.946V445.24ZM435.773 442.506H532.656C532.946 440.774 533.766 439.175 535.003 437.933C536.241 436.692 537.833 435.868 539.558 435.577V409.323C537.833 409.033 536.241 408.209 535.003 406.967C533.766 405.725 532.946 404.127 532.656 402.395H435.736C435.451 404.126 434.633 405.723 433.399 406.965C432.165 408.207 430.576 409.032 428.852 409.323V435.65C430.576 435.942 432.165 436.766 433.399 438.008C434.633 439.25 435.451 440.848 435.736 442.579L435.773 442.506Z" fill="#292926"/>
</g>
<path d="M489.3 424.294H479.056C476.827 424.289 474.691 423.398 473.115 421.816C471.539 420.234 470.651 418.09 470.646 415.852V413.537H469.557C468.834 413.537 468.141 413.249 467.63 412.736C467.119 412.223 466.832 411.528 466.832 410.802C466.832 410.077 467.119 409.381 467.63 408.868C468.141 408.356 468.834 408.067 469.557 408.067H472.118C472.641 408.067 473.16 408.171 473.644 408.373C474.128 408.575 474.567 408.871 474.937 409.243C475.306 409.616 475.599 410.058 475.798 410.545C475.997 411.031 476.098 411.553 476.095 412.078V415.852C476.095 416.243 476.172 416.629 476.321 416.99C476.469 417.35 476.688 417.678 476.963 417.954C477.237 418.23 477.564 418.449 477.923 418.598C478.282 418.747 478.667 418.824 479.056 418.824H489.3C490.085 418.824 490.838 418.511 491.394 417.954C491.949 417.397 492.261 416.641 492.261 415.852V412.078C492.261 411.015 492.682 409.994 493.431 409.242C494.181 408.49 495.197 408.067 496.257 408.067H498.8C499.522 408.067 500.215 408.356 500.726 408.868C501.237 409.381 501.524 410.077 501.524 410.802C501.524 411.528 501.237 412.223 500.726 412.736C500.215 413.249 499.522 413.537 498.8 413.537H497.71V415.852C497.71 418.091 496.824 420.238 495.247 421.821C493.67 423.405 491.531 424.294 489.3 424.294Z" fill="#292926"/>
<path d="M548.15 461.485H420.225V518.971H548.15V461.485Z" fill="#292926"/>
<path opacity="0.5" d="M548.15 461.485H420.225V518.971H548.15V461.485Z" fill="#292926"/>
<g opacity="0.4">
<path d="M535.272 513.048H433.121V511.681C433.121 510.18 432.528 508.741 431.473 507.678C430.417 506.615 428.985 506.015 427.49 506.011H426.128V474.414H427.49C428.984 474.414 430.416 473.819 431.472 472.759C432.528 471.699 433.121 470.261 433.121 468.762V467.395H535.272V468.762C535.272 469.506 535.418 470.243 535.702 470.93C535.986 471.616 536.403 472.24 536.927 472.765C537.452 473.291 538.075 473.706 538.76 473.989C539.446 474.272 540.18 474.417 540.921 474.414H542.283V505.992H540.921C540.179 505.992 539.444 506.139 538.759 506.424C538.074 506.709 537.451 507.127 536.926 507.653C536.402 508.18 535.986 508.805 535.702 509.493C535.418 510.181 535.272 510.918 535.272 511.663V513.048ZM435.773 510.313H532.656C532.946 508.581 533.766 506.983 535.003 505.741C536.241 504.499 537.833 503.676 539.558 503.385V477.058C537.834 476.771 536.243 475.951 535.005 474.712C533.768 473.473 532.947 471.878 532.656 470.148H435.736C435.45 471.876 434.632 473.472 433.398 474.711C432.163 475.949 430.574 476.77 428.852 477.058V503.385C430.576 503.677 432.165 504.501 433.399 505.743C434.633 506.985 435.451 508.583 435.736 510.313H435.773Z" fill="#292926"/>
</g>
<path d="M489.3 492.023H479.056C476.826 492.023 474.687 491.134 473.109 489.551C471.532 487.968 470.646 485.821 470.646 483.582V481.267H469.557C468.834 481.267 468.141 480.978 467.63 480.465C467.119 479.953 466.832 479.257 466.832 478.532C466.832 477.806 467.119 477.111 467.63 476.598C468.141 476.085 468.834 475.797 469.557 475.797H472.118C473.174 475.802 474.186 476.226 474.931 476.978C475.677 477.73 476.095 478.747 476.095 479.808V483.527C476.095 484.315 476.407 485.071 476.963 485.629C477.518 486.186 478.271 486.499 479.056 486.499H489.3C490.085 486.499 490.838 486.186 491.394 485.629C491.949 485.071 492.261 484.315 492.261 483.527V479.881C492.266 478.819 492.688 477.801 493.436 477.05C494.185 476.299 495.198 475.875 496.257 475.87H498.8C499.522 475.87 500.215 476.158 500.726 476.671C501.237 477.184 501.524 477.879 501.524 478.605C501.524 479.33 501.237 480.026 500.726 480.538C500.215 481.051 499.522 481.339 498.8 481.339H497.71V483.527C497.717 484.64 497.505 485.744 497.085 486.774C496.666 487.805 496.048 488.742 495.266 489.532C494.484 490.321 493.555 490.948 492.531 491.376C491.507 491.803 490.409 492.023 489.3 492.023Z" fill="#292926"/>
<path d="M548.15 529.218H420.225V586.704H548.15V529.218Z" fill="#292926"/>
<path opacity="0.5" d="M548.15 529.218H420.225V586.704H548.15V529.218Z" fill="#292926"/>
<g opacity="0.4">
<path d="M535.272 580.779H433.121V579.412C433.121 577.913 432.528 576.476 431.472 575.416C430.416 574.356 428.984 573.76 427.49 573.76H426.128V542.182H427.49C428.985 542.177 430.418 541.578 431.473 540.515C432.528 539.452 433.121 538.013 433.121 536.512V535.145H535.272V536.512C535.272 538.016 535.867 539.458 536.927 540.521C537.986 541.585 539.423 542.182 540.921 542.182H542.283V573.76H540.921C540.18 573.758 539.446 573.902 538.761 574.185C538.075 574.468 537.452 574.884 536.928 575.409C536.403 575.934 535.987 576.558 535.702 577.245C535.418 577.932 535.272 578.668 535.272 579.412V580.779ZM435.773 578.045H532.657C532.947 576.315 533.768 574.719 535.005 573.481C536.243 572.242 537.835 571.422 539.559 571.135V544.808C537.833 544.517 536.241 543.693 535.004 542.452C533.767 541.21 532.946 539.611 532.657 537.879H435.737C435.451 539.61 434.634 541.208 433.4 542.45C432.166 543.692 430.576 544.516 428.853 544.808V571.135C430.574 571.423 432.164 572.243 433.398 573.482C434.632 574.721 435.45 576.316 435.737 578.045H435.773Z" fill="#292926"/>
</g>
<path d="M489.3 559.775H479.056C476.824 559.771 474.685 558.877 473.108 557.291C471.532 555.705 470.646 553.556 470.646 551.316V549.018H469.557C468.834 549.018 468.141 548.73 467.63 548.217C467.119 547.705 466.832 547.009 466.832 546.284C466.832 545.558 467.119 544.863 467.63 544.35C468.141 543.837 468.834 543.549 469.557 543.549H472.118C473.173 543.549 474.184 543.969 474.93 544.718C475.676 545.467 476.095 546.483 476.095 547.542V551.316C476.095 552.106 476.407 552.863 476.961 553.424C477.516 553.984 478.269 554.301 479.056 554.306H489.3C490.087 554.301 490.84 553.984 491.395 553.424C491.949 552.863 492.261 552.106 492.261 551.316V547.542C492.266 546.481 492.689 545.465 493.438 544.717C494.186 543.969 495.2 543.549 496.257 543.549H498.8C499.522 543.549 500.215 543.837 500.726 544.35C501.237 544.863 501.524 545.558 501.524 546.284C501.524 547.009 501.237 547.705 500.726 548.217C500.215 548.73 499.522 549.018 498.8 549.018H497.71V551.316C497.712 552.426 497.496 553.525 497.075 554.552C496.653 555.578 496.034 556.511 495.253 557.296C494.472 558.082 493.544 558.706 492.523 559.131C491.501 559.556 490.406 559.775 489.3 559.775Z" fill="#292926"/>
<path d="M572.398 307.734C590.797 307.734 608.343 322.702 611.594 341.172L617.661 375.813H551.056L544.971 341.172L572.398 307.734Z" fill="#1E293B"/>
<path d="M540.266 341.172C540.266 332.303 543.776 323.798 550.023 317.528C556.27 311.257 564.743 307.734 573.578 307.734C582.413 307.734 590.886 311.257 597.133 317.528C603.38 323.798 606.89 332.303 606.89 341.172V375.813H540.266V341.172Z" fill="#FF693D"/>
<path d="M540.266 341.172C540.266 332.303 543.776 323.798 550.023 317.528C556.27 311.257 564.743 307.734 573.578 307.734C582.413 307.734 590.886 311.257 597.133 317.528C603.38 323.798 606.89 332.303 606.89 341.172V375.813H540.266V341.172Z" fill="#292926"/>
<path d="M598.873 347.15C602.175 333.106 593.51 319.035 579.52 315.72C565.529 312.406 551.511 321.103 548.209 335.147C544.906 349.19 553.571 363.262 567.562 366.576C581.552 369.891 595.571 361.193 598.873 347.15Z" fill="#292926"/>
<path d="M598.873 347.15C602.175 333.106 593.51 319.035 579.52 315.72C565.529 312.406 551.511 321.103 548.209 335.147C544.906 349.19 553.571 363.262 567.562 366.576C581.552 369.891 595.571 361.193 598.873 347.15Z" fill="#FF693D"/>
<path opacity="0.2" d="M573.578 319.184C580.119 319.186 586.419 321.662 591.223 326.119C596.027 330.576 598.981 336.686 599.497 343.232C599.497 342.557 599.606 341.864 599.606 341.172C599.606 334.242 596.864 327.597 591.983 322.697C587.101 317.798 580.481 315.045 573.578 315.045C566.675 315.045 560.054 317.798 555.173 322.697C550.292 327.597 547.55 334.242 547.55 341.172C547.55 341.864 547.55 342.557 547.659 343.232C548.175 336.686 551.129 330.576 555.933 326.119C560.736 321.662 567.037 319.186 573.578 319.184Z" fill="#292926"/>
<path opacity="0.1" d="M590.016 341.155H576.339V327.426C576.233 326.777 575.901 326.187 575.402 325.762C574.903 325.336 574.269 325.103 573.614 325.103C572.959 325.103 572.326 325.336 571.827 325.762C571.328 326.187 570.996 326.777 570.89 327.426V343.926C570.89 344.661 571.181 345.366 571.698 345.885C572.216 346.405 572.918 346.697 573.651 346.697H590.088C590.735 346.591 591.322 346.257 591.746 345.756C592.17 345.255 592.403 344.62 592.403 343.962C592.403 343.305 592.17 342.669 591.746 342.168C591.322 341.667 590.735 341.334 590.088 341.227L590.016 341.155Z" fill="#292926"/>
<path d="M590.016 343.944C590.662 343.837 591.249 343.504 591.673 343.003C592.097 342.502 592.33 341.866 592.33 341.209C592.33 340.551 592.097 339.916 591.673 339.415C591.249 338.914 590.662 338.58 590.016 338.474H573.578C573.183 338.409 572.778 338.431 572.393 338.539C572.007 338.646 571.649 338.837 571.344 339.097C571.039 339.357 570.794 339.681 570.626 340.045C570.457 340.41 570.37 340.807 570.37 341.209C570.37 341.611 570.457 342.008 570.626 342.372C570.794 342.737 571.039 343.061 571.344 343.321C571.649 343.581 572.007 343.771 572.393 343.879C572.778 343.987 573.183 344.009 573.578 343.944H590.016Z" fill="#FF693D"/>
<path opacity="0.3" d="M590.016 343.944C590.662 343.837 591.249 343.504 591.673 343.003C592.097 342.502 592.33 341.866 592.33 341.209C592.33 340.551 592.097 339.916 591.673 339.415C591.249 338.914 590.662 338.58 590.016 338.474H573.578C573.183 338.409 572.778 338.431 572.393 338.539C572.007 338.646 571.649 338.837 571.344 339.097C571.039 339.357 570.794 339.681 570.626 340.045C570.457 340.41 570.37 340.807 570.37 341.209C570.37 341.611 570.457 342.008 570.626 342.372C570.794 342.737 571.039 343.061 571.344 343.321C571.649 343.581 572.007 343.771 572.393 343.879C572.778 343.987 573.183 344.009 573.578 343.944H590.016Z" fill="#292926"/>
<path d="M576.339 324.67C576.233 324.021 575.901 323.431 575.402 323.006C574.903 322.58 574.269 322.347 573.614 322.347C572.959 322.347 572.326 322.58 571.827 323.006C571.328 323.431 570.996 324.021 570.89 324.67V341.079C570.996 341.727 571.328 342.317 571.827 342.743C572.326 343.168 572.959 343.402 573.614 343.402C574.269 343.402 574.903 343.168 575.402 342.743C575.901 342.317 576.233 341.727 576.339 341.079V324.67Z" fill="#FF693D"/>
<path opacity="0.6" d="M576.339 324.67C576.233 324.021 575.901 323.431 575.402 323.006C574.903 322.58 574.269 322.347 573.614 322.347C572.959 322.347 572.326 322.58 571.827 323.006C571.328 323.431 570.996 324.021 570.89 324.67V341.079C570.996 341.727 571.328 342.317 571.827 342.743C572.326 343.168 572.959 343.402 573.614 343.402C574.269 343.402 574.903 343.168 575.402 342.743C575.901 342.317 576.233 341.727 576.339 341.079V324.67Z" fill="#292926"/>
<path d="M173.057 599.63V558.918C178.052 558.918 178.052 551.133 173.057 551.133C157.6 551.133 142.179 551.023 126.668 550.932V607.452H173.057C178.052 607.506 178.052 599.63 173.057 599.63Z" fill="#292926"/>
<path opacity="0.3" d="M173.057 599.63V558.918C178.052 558.918 178.052 551.133 173.057 551.133C157.6 551.133 142.179 551.023 126.668 550.932V607.452H173.057C178.052 607.506 178.052 599.63 173.057 599.63Z" fill="#292926"/>
<path d="M173.057 558.918H137.021V599.558H173.057V558.918Z" fill="#292926"/>
<path opacity="0.8" d="M173.057 558.918H137.021V599.558H173.057V558.918Z" fill="#292926"/>
<path d="M144.595 603.512H19.6854C11.0942 603.512 4.13757 592.663 4.13757 579.263C4.13757 565.862 11.0942 555.014 19.6854 555.014H144.595V603.512Z" fill="#292926"/>
<path opacity="0.9" d="M144.595 603.512H19.6854C11.0942 603.512 4.13757 592.663 4.13757 579.263C4.13757 565.862 11.0942 555.014 19.6854 555.014H144.595V603.512Z" fill="#292926"/>
<path d="M144.595 551.133C103.691 551.133 62.7326 550.386 21.8468 551.133C-6.16118 551.644 -7.66875 605.52 19.8125 607.416C38.9567 608.729 58.6458 607.416 77.9354 607.416H144.686C149.681 607.416 149.681 599.631 144.686 599.631H28.4401C19.4674 599.631 13.0557 599.522 9.58649 588.892C6.58953 579.776 7.53402 560.961 19.8125 558.919C21.2089 558.809 22.6118 558.809 24.0082 558.919H144.722C149.717 558.919 149.717 551.133 144.722 551.133H144.595Z" fill="#292926"/>
<path d="M164.865 545.371V512.9C165.646 512.84 166.375 512.486 166.907 511.91C167.439 511.334 167.734 510.577 167.734 509.791C167.734 509.006 167.439 508.249 166.907 507.673C166.375 507.096 165.646 506.743 164.865 506.683C152.551 506.683 140.2 506.591 127.867 506.519V551.588H164.865C165.646 551.528 166.375 551.175 166.907 550.598C167.439 550.022 167.734 549.265 167.734 548.48C167.734 547.694 167.439 546.937 166.907 546.361C166.375 545.785 165.646 545.431 164.865 545.371Z" fill="#292926"/>
<path opacity="0.3" d="M164.865 545.371V512.9C165.646 512.84 166.375 512.486 166.907 511.91C167.439 511.334 167.734 510.577 167.734 509.791C167.734 509.006 167.439 508.249 166.907 507.673C166.375 507.096 165.646 506.743 164.865 506.683C152.551 506.683 140.2 506.591 127.867 506.519V551.588H164.865C165.646 551.528 166.375 551.175 166.907 550.598C167.439 550.022 167.734 549.265 167.734 548.48C167.734 547.694 167.439 546.937 166.907 546.361C166.375 545.785 165.646 545.431 164.865 545.371Z" fill="#292926"/>
<path d="M164.884 512.901H136.131V545.336H164.884V512.901Z" fill="#292926"/>
<path opacity="0.8" d="M164.884 512.901H136.131V545.336H164.884V512.901Z" fill="#292926"/>
<path d="M142.161 548.471H42.4984C35.6508 548.471 30.0928 539.811 30.0928 529.127C30.0928 518.443 35.6508 509.783 42.4984 509.783H142.161V548.471Z" fill="#292926"/>
<path opacity="0.9" d="M142.161 548.471H42.4984C35.6508 548.471 30.0928 539.811 30.0928 529.127C30.0928 518.443 35.6508 509.783 42.4984 509.783H142.161V548.471Z" fill="#292926"/>
<path d="M142.161 506.683C109.467 506.683 76.7727 506.082 44.2238 506.683C21.8828 507.085 20.6114 550.076 42.6073 551.589C57.8827 552.628 73.5941 551.589 88.9058 551.589H142.161C142.941 551.529 143.67 551.175 144.202 550.599C144.734 550.023 145.029 549.266 145.029 548.48C145.029 547.695 144.734 546.938 144.202 546.362C143.67 545.785 142.941 545.432 142.161 545.372H49.3822C42.2258 545.372 37.1038 545.281 34.3429 536.803C31.9454 529.51 32.7082 514.505 42.4983 512.901C43.6165 512.809 44.7403 512.809 45.8585 512.901H142.125C142.905 512.84 143.634 512.487 144.166 511.911C144.698 511.334 144.993 510.578 144.993 509.792C144.993 509.006 144.698 508.25 144.166 507.673C143.634 507.097 142.905 506.743 142.125 506.683H142.161Z" fill="#292926"/>
<path d="M151.133 456.181C151.086 453.75 150.092 451.434 148.363 449.73C146.635 448.026 144.311 447.069 141.888 447.065H86.7261C84.305 447.074 81.9832 448.032 80.256 449.735C78.5289 451.438 77.533 453.751 77.4809 456.181V456.856C75.4996 456.198 73.4284 455.853 71.3417 455.835C62.26 455.835 56.2115 462.927 56.2115 473.483C56.2115 483.566 66.7826 491.114 76.1913 491.114C77.149 491.11 78.1041 491.012 79.0429 490.822C81.2394 497.603 85.2627 503.642 90.6675 508.27H137.892C142.138 504.671 145.549 500.184 147.886 495.123C150.224 490.062 151.431 484.549 151.424 478.971C151.424 475.288 151.315 466.701 151.133 456.181ZM76.2458 485.207C69.8341 485.207 62.0965 479.974 62.0965 473.483C62.0965 470.73 62.7685 461.742 71.3417 461.742C73.4252 461.783 75.478 462.255 77.3719 463.127C77.2629 470.42 77.1903 476.163 77.1903 478.971C77.2046 481.025 77.3868 483.073 77.7352 485.097C77.2418 485.166 76.7438 485.196 76.2458 485.188V485.207Z" fill="#FF693D"/>
<path opacity="0.2" d="M151.133 456.181C151.086 453.75 150.092 451.434 148.363 449.73C146.635 448.026 144.311 447.069 141.888 447.065H86.7261C84.305 447.074 81.9832 448.032 80.256 449.735C78.5289 451.438 77.533 453.751 77.4809 456.181V456.856C75.4996 456.198 73.4284 455.853 71.3417 455.835C62.26 455.835 56.2115 462.927 56.2115 473.483C56.2115 483.566 66.7826 491.114 76.1913 491.114C77.149 491.11 78.1041 491.012 79.0429 490.822C81.2394 497.603 85.2627 503.642 90.6675 508.27H137.892C142.138 504.671 145.549 500.184 147.886 495.123C150.224 490.062 151.431 484.549 151.424 478.971C151.424 475.288 151.315 466.701 151.133 456.181ZM76.2458 485.207C69.8341 485.207 62.0965 479.974 62.0965 473.483C62.0965 470.73 62.7685 461.742 71.3417 461.742C73.4252 461.783 75.478 462.255 77.3719 463.127C77.2629 470.42 77.1903 476.163 77.1903 478.971C77.2046 481.025 77.3868 483.073 77.7352 485.097C77.2418 485.166 76.7438 485.196 76.2458 485.188V485.207Z" fill="#292926"/>
<path opacity="0.9" d="M128.629 471.279L121.709 455.873L117.349 465.627C115.777 465.409 114.182 465.409 112.609 465.627L108.231 455.873L101.311 471.279C99.1344 473.652 97.9113 476.75 97.8783 479.976C97.8783 487.98 105.543 494.47 114.97 494.47C124.397 494.47 132.062 487.98 132.062 479.976C132.029 476.75 130.806 473.652 128.629 471.279ZM107.378 477.314C107.378 476.129 108.068 475.181 108.94 475.181C109.812 475.181 110.52 476.129 110.52 477.314C110.52 478.499 109.812 479.465 108.94 479.465C108.068 479.465 107.378 478.499 107.378 477.314ZM117.386 485.664C116.492 485.657 115.632 485.32 114.97 484.716C114.319 485.325 113.462 485.664 112.572 485.664C111.609 485.664 110.685 485.28 110.004 484.596C109.323 483.913 108.94 482.985 108.94 482.018H110.447C110.44 482.476 110.584 482.924 110.856 483.291C111.129 483.659 111.515 483.926 111.954 484.05C112.393 484.175 112.861 484.151 113.285 483.981C113.709 483.811 114.065 483.506 114.298 483.112L114.934 482.073L115.588 483.112C115.824 483.497 116.18 483.794 116.6 483.957C117.02 484.121 117.482 484.143 117.916 484.019C118.349 483.895 118.731 483.633 119.002 483.272C119.274 482.911 119.421 482.47 119.42 482.018H120.946C120.946 482.973 120.573 483.889 119.908 484.571C119.242 485.253 118.337 485.645 117.386 485.664ZM121.018 479.465C120.147 479.465 119.456 478.499 119.456 477.314C119.456 476.129 120.147 475.181 121.018 475.181C121.89 475.181 122.599 476.129 122.599 477.314C122.599 478.499 121.872 479.465 121 479.465H121.018Z" fill="#292926"/>
<path d="M295.783 325.493C295.783 325.493 304.426 331.483 319.448 323.772C334.471 316.061 365.326 297.913 376.013 297.017C386.7 296.12 399.559 285.998 408.483 285.168C417.408 284.338 414.5 288.705 414.5 288.705C414.5 288.705 425.682 287.803 421.782 294.937C421.782 294.937 426.285 298.595 420.057 301.386C413.828 304.176 392.851 312.478 386.649 311.796C386.649 311.796 355.728 333.995 339.901 344.415C324.074 354.835 313.562 354.566 304.608 385.038C295.653 415.51 295.783 325.493 295.783 325.493Z" fill="#FF693D"/>
<path opacity="0.2" d="M304.586 327.687C301.5 327.769 298.451 327.008 295.766 325.486C295.766 325.486 295.653 415.508 304.607 385.036C311.531 361.721 319.254 356.388 329.626 350.491C312.43 356.909 306.191 335.106 304.586 327.687Z" fill="#292926"/>
<path d="M421.46 296.723C421.46 296.723 425.55 295.712 426.632 297.936C424.9 297.58 423.097 297.902 421.591 298.835L421.46 296.723Z" fill="#FF693D"/>
<path d="M418.682 290.192C419.905 289.128 421.457 288.522 423.074 288.478C424.69 288.435 426.271 288.956 427.545 289.952C426.184 289.647 424.761 289.802 423.496 290.393C422.23 290.984 421.195 291.978 420.549 293.219L418.682 290.192Z" fill="#FF693D"/>
<path d="M411.551 286.002C411.551 286.002 415.215 281.384 418.871 283.877C417.715 283.876 416.589 284.244 415.654 284.927C414.719 285.61 414.024 286.573 413.669 287.677L411.551 286.002Z" fill="#FF693D"/>
<g opacity="0.6">
<path d="M421.46 296.723C421.46 296.723 425.549 295.713 426.632 297.936C424.9 297.581 423.097 297.902 421.59 298.835L421.46 296.723Z" fill="#292926"/>
<path d="M418.681 290.193C419.904 289.128 421.457 288.523 423.073 288.479C424.69 288.435 426.27 288.956 427.544 289.953C426.184 289.648 424.76 289.803 423.495 290.394C422.23 290.985 421.194 291.978 420.549 293.22L418.681 290.193Z" fill="#292926"/>
<path d="M411.551 286.002C411.551 286.002 415.215 281.385 418.87 283.878C417.715 283.877 416.588 284.245 415.653 284.928C414.718 285.61 414.023 286.573 413.668 287.677L411.551 286.002Z" fill="#292926"/>
</g>
<path opacity="0.2" d="M415.658 294.696C415.658 294.696 408.475 293.362 403.897 296.909C403.984 296.935 406.983 288.944 415.658 294.696Z" fill="#292926"/>
<path d="M152.157 479.971C152.157 479.971 142.579 521.859 104.93 513.056C67.2809 504.253 35.4467 506.686 42.4194 468.341C50.4228 424.292 24.1713 443.655 19.748 472.905C15.3247 502.156 26.9696 515.58 62.2746 527.491C97.5796 539.402 138.006 544.275 148.25 521.394L152.157 479.971Z" fill="#FF693D"/>
<path opacity="0.3" d="M43.244 463.013C47.444 431.452 30.4434 440.592 22.7475 461.338C26.0934 460.162 29.6467 459.704 33.1774 459.992C36.7081 460.281 40.1376 461.31 43.244 463.013Z" fill="#292926"/>
<path opacity="0.3" d="M42.2952 469.142C36.571 467.937 27.5865 467.246 19.9027 472.002C19.8093 472.316 19.721 472.613 19.7373 472.941C19.1652 476.559 18.865 480.215 18.8392 483.877C23.0766 479.753 30.2863 475.637 41.5321 477.645C41.5534 474.795 41.8087 471.951 42.2952 469.142Z" fill="#292926"/>
<g opacity="0.3">
<path d="M49.6535 497.382C47.1112 495.32 45.0763 492.699 43.7058 489.72C37.7765 491.63 29.0413 496.225 26.3556 506.991C28.8303 509.952 31.6947 512.562 34.8704 514.75C37.3507 507.25 42.657 501.016 49.6535 497.382Z" fill="#292926"/>
<path d="M68.6869 529.567C68.9941 524.067 70.1679 514.564 74.3452 506.941C70.3863 506.108 66.678 505.197 63.2808 504.131C58.5579 510.1 55.7418 517.359 55.2022 524.954C57.466 525.817 59.8099 526.665 62.2913 527.497C64.3547 528.205 66.533 528.909 68.6869 529.567Z" fill="#292926"/>
<path d="M130.022 510.676C126.208 512.624 122.048 513.794 117.783 514.116C118.819 520.453 121.26 527.93 127.232 529.513C135.676 531.831 131.097 520.391 130.022 510.676Z" fill="#292926"/>
<path d="M93.1188 531.134C98.6728 532.593 100.222 520.805 101.855 512.37C97.785 511.466 93.8106 510.685 89.9355 509.953C88.747 517.017 87.4603 529.644 93.1188 531.134Z" fill="#292926"/>
</g>
<path opacity="0.1" d="M126.778 536.336C136.839 534.36 144.526 529.72 148.262 521.415L152.17 479.992C150.062 488.011 146.253 495.483 141.004 501.895C139.166 508.772 138.166 515.845 138.026 522.959C137.921 530.459 132.416 534.321 126.778 536.336Z" fill="#292926"/>
<path d="M195.474 438.173C195.474 438.173 247.157 436.404 261.702 466.095C276.247 495.786 222.459 548.985 237.446 556.193C252.434 563.402 302.006 566.256 305.93 578.433C306.988 581.637 307.483 585.001 307.392 588.377C307.33 589.685 306.97 590.962 306.342 592.11C305.713 593.259 304.832 594.249 303.765 595.005C302.698 595.761 301.473 596.264 300.185 596.474C298.896 596.684 297.577 596.596 296.329 596.217L202.148 568.248C202.148 568.248 196.472 566.563 202.503 560.099C202.433 560.079 126.945 512.042 195.474 438.173Z" fill="#FF693D"/>
<path opacity="0.2" d="M195.474 438.173C195.474 438.173 247.157 436.404 261.702 466.095C276.247 495.786 222.459 548.985 237.446 556.193C252.434 563.402 302.006 566.256 305.93 578.433C306.988 581.637 307.483 585.001 307.392 588.377C307.33 589.685 306.97 590.962 306.342 592.11C305.713 593.259 304.832 594.249 303.765 595.005C302.698 595.761 301.473 596.264 300.185 596.474C298.896 596.684 297.577 596.596 296.329 596.217L202.148 568.248C202.148 568.248 196.472 566.563 202.503 560.099C202.433 560.079 126.945 512.042 195.474 438.173Z" fill="#292926"/>
<path d="M270.195 267.016C270.195 267.016 278.382 250.105 282.087 249.304C285.793 248.502 281.329 264.617 283.007 267.645L270.195 267.016Z" fill="#FF693D"/>
<path opacity="0.2" d="M270.195 267.016C270.195 267.016 278.382 250.105 282.087 249.304C285.793 248.502 281.329 264.617 283.007 267.645L270.195 267.016Z" fill="#292926"/>
<path d="M309.728 280.26C309.654 279.541 309.76 278.814 310.034 278.145C310.879 276.19 313.107 275.9 315 275.968C315.691 276.002 315.713 274.906 315.022 274.872C313.911 274.687 312.768 274.827 311.732 275.274C310.696 275.722 309.808 276.458 309.176 277.396C308.693 278.36 308.515 279.448 308.666 280.516C308.781 281.215 309.85 280.867 309.728 280.26Z" fill="#FF693D"/>
<path d="M311.511 284.079C313.252 280.963 317.481 281.268 320.312 282.261C320.974 282.457 321.275 281.444 320.624 281.212C317.327 280.062 312.564 279.96 310.585 283.499C310.248 284.122 311.175 284.702 311.511 284.079Z" fill="#FF693D"/>
<path d="M312.6 287.048C314.297 285.479 316.992 287.059 318.402 288.181C318.956 288.612 319.518 287.676 318.982 287.25C317.124 285.785 313.956 284.331 311.855 286.237C311.748 286.336 311.684 286.474 311.678 286.62C311.672 286.766 311.724 286.909 311.823 287.016C311.921 287.124 312.059 287.188 312.204 287.193C312.35 287.199 312.492 287.147 312.6 287.048Z" fill="#FF693D"/>
<g opacity="0.5">
<path d="M309.728 280.259C309.655 279.539 309.76 278.813 310.034 278.143C310.88 276.188 313.107 275.899 315 275.967C315.691 276.001 315.714 274.904 315.023 274.87C313.911 274.686 312.769 274.825 311.732 275.273C310.696 275.72 309.809 276.457 309.176 277.394C308.693 278.358 308.516 279.447 308.667 280.514C308.781 281.214 309.851 280.866 309.728 280.259Z" fill="#292926"/>
<path d="M311.512 284.077C313.252 280.961 317.481 281.267 320.313 282.26C320.974 282.456 321.276 281.442 320.624 281.211C317.328 280.061 312.565 279.958 310.585 283.498C310.249 284.121 311.175 284.7 311.512 284.077Z" fill="#292926"/>
<path d="M312.601 287.048C314.298 285.479 316.993 287.059 318.403 288.182C318.957 288.612 319.519 287.676 318.982 287.251C317.125 285.786 313.957 284.332 311.856 286.237C311.749 286.337 311.685 286.474 311.679 286.621C311.673 286.767 311.725 286.909 311.823 287.017C311.922 287.124 312.059 287.188 312.205 287.194C312.351 287.2 312.493 287.147 312.601 287.048Z" fill="#292926"/>
</g>
<path d="M301.694 311.841C293.231 318.837 303.988 329.639 307.46 361.842C310.932 394.046 281.883 429.657 265.939 478.176C249.996 526.695 226.302 527.684 226.302 527.684L192.564 560.325C192.564 560.325 136.285 549.945 142.651 509.366C149.018 468.787 174.195 435.049 193.118 409.611C212.041 384.172 239.113 367.468 237.737 348.687C237.117 335.587 238.046 322.456 240.505 309.569C240.505 309.569 231.089 296.616 234.482 276.703C234.482 276.703 231.877 249.303 238.083 245.44C244.289 241.577 257.788 268.409 257.788 268.409C257.788 268.409 277.963 262.361 283.868 264.743C289.774 267.124 294.176 279.862 307.922 278.238C307.927 278.221 322.591 294.558 301.694 311.841Z" fill="#FF693D"/>
<path opacity="0.2" d="M265.938 478.178C281.882 429.659 310.994 394.028 307.459 361.844C303.924 329.66 293.26 318.867 301.693 311.843C322.59 294.56 307.886 278.23 307.886 278.23C307.084 278.315 306.315 278.353 305.573 278.361C302.956 279.2 300.5 280.449 300.133 282.261C299.263 286.339 300.467 290.386 290.409 297.841C276.757 307.956 284.56 332.658 291.032 349.529C297.504 366.4 302.466 364.812 296.457 388.684C289.525 416.428 260.241 444.153 247.555 464.027C236.887 480.81 218.577 514.266 215.543 537.881L226.141 527.715C226.141 527.715 249.995 526.697 265.938 478.178Z" fill="#292926"/>
<path opacity="0.6" d="M307.382 280.057C307.382 280.057 303.138 279.862 303.693 281.567C304.248 283.272 311.953 287.824 307.382 280.057Z" fill="#292926"/>
<path opacity="0.2" d="M244.522 275.883L253.998 271.09C253.998 271.09 244.681 247.402 239.34 248.669C234 249.935 247.501 257.045 244.522 275.883Z" fill="#292926"/>
<path opacity="0.2" d="M280.216 272.065C281.24 270.467 277.623 266.312 273.13 269.257C268.636 272.202 279.187 273.68 280.216 272.065Z" fill="#292926"/>
<path opacity="0.2" d="M285.81 270.645C284.714 270.89 283.023 267.269 285.137 266.147C287.252 265.025 286.928 270.387 285.81 270.645Z" fill="#292926"/>
<g opacity="0.6">
<path d="M295.953 287.979C291.284 285.965 285.804 287.894 281.997 290.758C281.431 291.198 282.186 291.974 282.742 291.568C286.261 288.905 291.345 287.162 295.642 289.028C296.303 289.224 296.594 288.246 295.953 287.979Z" fill="#292926"/>
<path d="M295.652 291.161C289.753 291.121 284.974 296.111 282.537 300.998C282.223 301.608 283.145 302.205 283.464 301.577C285.722 297.037 290.061 292.125 295.613 292.252C295.752 292.249 295.885 292.193 295.984 292.095C296.084 291.997 296.142 291.864 296.147 291.724C296.152 291.585 296.104 291.448 296.012 291.344C295.92 291.239 295.791 291.173 295.652 291.161Z" fill="#292926"/>
<path d="M298.005 294.083C296.334 295.184 294.898 296.608 293.779 298.271C292.661 299.934 291.883 301.803 291.491 303.769C291.294 304.433 292.356 304.748 292.536 304.079C292.89 302.245 293.602 300.499 294.631 298.941C295.659 297.383 296.984 296.043 298.529 294.999C299.139 294.667 298.631 293.698 298.016 294.048L298.005 294.083Z" fill="#292926"/>
</g>
<path opacity="0.2" d="M192.717 463.088L185.798 470.182L189.788 481.181L205.312 502.28C205.312 502.28 213.229 519.961 222.596 531.168L226.237 527.647C226.237 527.647 237.749 527.167 250.065 510.512C251.644 466.914 192.717 463.088 192.717 463.088Z" fill="#292926"/>
<path opacity="0.1" d="M289.834 422.661L263.184 398.067L255.38 381.79L251.044 390.011C251.044 390.011 238.53 431.256 263.666 443.21C269.47 445.998 274.469 445.942 278.534 446.484C282.327 438.177 286.196 430.254 289.834 422.661Z" fill="#292926"/>
<g opacity="0.3">
<path d="M238.412 323.954C252.316 327.665 278.332 317.836 262.27 316.033C254.745 315.22 247.359 313.435 240.295 310.724C239.891 312.849 239.069 317.721 238.412 323.954Z" fill="#292926"/>
<path d="M257.899 350.148C250.869 349.936 243.954 348.322 237.557 345.401C237.592 346.495 237.662 347.6 237.737 348.687C237.925 353.323 236.753 357.915 234.365 361.893C252.376 364.598 272.623 350.717 257.899 350.148Z" fill="#292926"/>
<path d="M210.874 440.863C194.731 437.419 186.925 428.292 183.503 422.654C180.1 427.35 176.593 432.394 173.155 437.592C202.845 456.223 233.444 445.702 210.874 440.863Z" fill="#292926"/>
<path d="M237.553 399.263C228.874 396.721 221.21 391.519 215.634 384.385C211.521 388.603 207.172 393.036 202.936 397.731C223.877 414.753 254.92 404.839 237.553 399.263Z" fill="#292926"/>
</g>
<path d="M286.811 278.439C287.163 280.255 286.457 281.928 285.215 282.092C283.973 282.255 282.831 281.06 282.49 279.21C282.149 277.359 282.867 275.708 284.109 275.544C285.351 275.381 286.493 276.576 286.811 278.439Z" fill="#292926"/>
<path d="M276.614 279.536C276.79 279.541 276.964 279.499 277.119 279.415C277.274 279.33 277.403 279.207 277.495 279.056C278.26 277.884 279.28 276.902 280.478 276.184C281.677 275.466 283.021 275.03 284.411 274.909C284.554 274.887 284.692 274.836 284.815 274.76C284.939 274.683 285.046 274.583 285.131 274.465C285.215 274.346 285.276 274.212 285.308 274.07C285.34 273.929 285.344 273.782 285.319 273.638C285.276 273.414 285.166 273.208 285.004 273.048C284.842 272.888 284.635 272.781 284.411 272.741C282.678 272.848 280.993 273.359 279.49 274.233C277.987 275.107 276.707 276.321 275.753 277.778C275.669 277.892 275.608 278.023 275.575 278.161C275.542 278.3 275.538 278.443 275.561 278.584C275.585 278.724 275.637 278.858 275.714 278.978C275.79 279.097 275.891 279.2 276.008 279.28C276.171 279.438 276.387 279.529 276.614 279.536Z" fill="#292926"/>
<path opacity="0.2" d="M298.676 403.415C295.959 395.913 298.825 369.225 298.825 369.225L298.116 363.956L290.344 372.583L286.663 399.334L294.314 413.189C295.847 409.878 297.324 406.627 298.676 403.415Z" fill="#292926"/>
<path d="M275.371 355.434C275.371 355.434 296.935 346.623 299.173 362.503C301.411 378.383 286.171 412.028 304.317 419.319C322.464 426.61 345.592 441.561 345.592 441.561C345.592 441.561 368.469 453.852 360.524 459.994C360.524 459.994 365.733 470.784 356.655 471.493C356.655 471.493 352.263 479.07 343.941 468.877C343.941 468.877 340.098 475.438 328.892 458.493C328.892 458.493 309.917 440.914 273.891 439.534C237.864 438.155 244.788 366.797 275.371 355.434Z" fill="#FF693D"/>
<path opacity="0.4" d="M360.544 459.924C368.558 453.803 345.612 441.492 345.612 441.492C335.475 435.05 325.013 429.137 314.267 423.776C310.373 423.552 305.78 424.09 303.208 427.263C298.94 432.576 306.279 440.975 306.317 445.76C321.211 451.305 328.912 458.423 328.912 458.423C340.1 475.363 343.961 468.807 343.961 468.807C352.301 479.006 356.675 471.423 356.675 471.423C365.753 470.714 360.544 459.924 360.544 459.924Z" fill="#292926"/>
<g opacity="0.2">
<path d="M347.794 460.625C347.794 460.625 354.448 464.503 355.438 469.21C355.368 469.189 357.184 461.607 347.794 460.625Z" fill="#292926"/>
<path d="M347.847 453.108C347.847 453.108 355.625 454.162 358.571 458.404C358.571 458.404 355.943 450.092 347.847 453.108Z" fill="#292926"/>
</g>
<path d="M172.368 461.744C172.368 461.744 222.311 459.458 236.855 489.149C251.4 518.84 217.586 549.442 232.574 556.65C247.561 563.859 287.205 561.862 291.129 574.04C292.187 577.243 292.682 580.608 292.591 583.983C292.529 585.291 292.169 586.568 291.541 587.717C290.912 588.866 290.031 589.856 288.964 590.612C287.897 591.368 286.673 591.87 285.384 592.08C284.095 592.29 282.777 592.203 281.528 591.824L187.278 563.834C187.278 563.834 181.602 562.149 187.633 555.685C187.633 555.685 103.84 535.613 172.368 461.744Z" fill="#FF693D"/>
<path opacity="0.3" d="M203.288 484.659C180.844 477.993 173.125 470.68 167.14 467.609C164.123 465.912 161.464 463.643 159.309 460.929C156.262 466.771 153.52 472.769 151.094 478.896C156.774 483.246 156.931 481.124 156.931 481.124C171.941 493.361 225.731 491.324 203.288 484.659Z" fill="#292926"/>
<g opacity="0.1">
<path d="M186.486 547.166C177.055 543.833 152.398 538.051 145.684 517.59C149.217 546.464 187.632 555.685 187.632 555.685C187.632 555.685 195.912 550.517 186.486 547.166Z" fill="#292926"/>
</g>
<path d="M491.991 451.536C513.941 442.609 548.159 431.765 578.304 435.894L549.164 367.329C531.254 391.991 499.735 409.255 478.163 418.861C464.656 409.741 443.656 408.426 423.626 416.976C395.75 428.882 405.314 444.704 414.153 465.477C422.991 486.251 427.759 504.128 455.635 492.223C475.625 483.683 489.203 467.615 491.991 451.536Z" fill="#FF693D"/>
<path opacity="0.5" d="M491.991 451.536C513.941 442.609 548.159 431.765 578.304 435.894L549.164 367.329C531.254 391.991 499.735 409.255 478.163 418.861C464.656 409.741 443.656 408.426 423.626 416.976C395.75 428.882 405.314 444.704 414.153 465.477C422.991 486.251 427.759 504.128 455.635 492.223C475.625 483.683 489.203 467.615 491.991 451.536Z" fill="#292926"/>
<path opacity="0.4" d="M453.44 487.254C470.971 479.781 484.041 465.349 486.606 450.621L487.118 447.629L489.934 446.476C510.198 438.205 547.498 429.021 575.467 429.281L551.904 373.857C532.701 394.312 500.205 414.865 480.266 423.836L477.506 425.084L474.982 423.381C462.609 415.018 443.224 414.436 425.682 422.037C417.715 425.448 413.017 429.152 411.377 433.352C408.864 439.661 412.705 448.493 417.159 458.708C418.479 461.728 419.836 464.933 421.103 467.975C425.368 478.277 429.074 487.174 435.334 489.728C439.534 491.472 445.461 490.651 453.44 487.254Z" fill="#292926"/>
<path d="M486.606 450.621L487.118 447.629L489.935 446.476C498.405 443.141 507.071 440.33 515.885 438.061C512.554 436.275 507.948 432.856 507.335 426.964C506.657 420.2 499.783 416.999 496.208 415.774C490.44 419.025 485.022 421.815 480.3 423.903L477.539 425.151L475.016 423.448C462.643 415.085 443.258 414.503 425.716 422.104C417.749 425.515 413.051 429.219 411.41 433.42C408.898 439.728 412.738 448.56 417.192 458.775C418.513 461.796 419.869 465 421.136 468.042C425.402 478.344 429.107 487.242 435.367 489.795C439.584 491.502 445.628 490.678 453.49 487.284C471.027 479.734 484.042 465.349 486.606 450.621Z" fill="#FF693D"/>
<path opacity="0.3" d="M486.606 450.621L487.118 447.629L489.935 446.476C498.405 443.141 507.071 440.33 515.885 438.061C512.554 436.275 507.948 432.856 507.335 426.964C506.657 420.2 499.783 416.999 496.208 415.774C490.44 419.025 485.022 421.815 480.3 423.903L477.539 425.151L475.016 423.448C462.643 415.085 443.258 414.503 425.716 422.104C417.749 425.515 413.051 429.219 411.41 433.42C408.898 439.728 412.738 448.56 417.192 458.775C418.513 461.796 419.869 465 421.136 468.042C425.402 478.344 429.107 487.242 435.367 489.795C439.584 491.502 445.628 490.678 453.49 487.284C471.027 479.734 484.042 465.349 486.606 450.621Z" fill="#292926"/>
<path opacity="0.5" d="M490.836 423.13C506.474 416.247 521.087 407.228 534.253 396.332C554.646 379.054 538.785 417.136 490.836 423.13Z" fill="#292926"/>
<path opacity="0.5" d="M549.011 390.379C547.661 391.322 542.7 390.288 548.097 383.814C553.493 377.34 550.376 389.424 549.011 390.379Z" fill="#292926"/>
<g opacity="0.2">
<path d="M421.945 437.298C421.905 436.566 421.603 435.874 421.094 435.348C420.586 434.821 419.904 434.495 419.174 434.429C418.444 434.363 417.714 434.562 417.116 434.988C416.519 435.415 416.094 436.042 415.919 436.754C415.12 440.652 415.651 446.589 419.478 455.575C429.556 479.271 432.752 489.83 449.48 484.976C465.232 480.349 423.324 479.304 421.945 437.298Z" fill="#292926"/>
<path d="M423.96 429.604C423.244 426.907 424.837 424.976 433.426 423.583C442.015 422.19 425.557 435.62 423.96 429.604Z" fill="#292926"/>
</g>
<path d="M436.987 455.619C458.682 446.194 480.882 437.983 503.484 431.025C546.753 417.355 592.744 406.218 638.471 407.927C639.86 407.995 640.157 405.824 638.753 405.768C594.132 404.128 549.443 414.576 507.037 427.687C482.907 434.922 459.222 443.576 436.107 453.605C435.84 453.719 435.628 453.934 435.519 454.204C435.411 454.473 435.413 454.774 435.527 455.041C435.64 455.308 435.855 455.518 436.124 455.626C436.393 455.734 436.694 455.731 436.962 455.617L436.987 455.619Z" fill="#FF693D"/>
<g opacity="0.3">
<path d="M436.987 455.619C458.682 446.194 480.882 437.983 503.484 431.025C546.753 417.355 592.744 406.218 638.471 407.927C639.86 407.995 640.157 405.824 638.753 405.768C594.132 404.128 549.443 414.576 507.037 427.687C482.907 434.922 459.222 443.576 436.107 453.605C435.84 453.719 435.628 453.934 435.519 454.204C435.411 454.473 435.413 454.774 435.527 455.041C435.64 455.308 435.855 455.518 436.124 455.626C436.393 455.734 436.694 455.731 436.962 455.617L436.987 455.619Z" fill="#292926"/>
</g>
<path d="M641.556 404.911C641.556 404.911 633.538 393.795 631.519 402.252C629.5 410.709 640.971 409.744 640.971 409.744C640.971 409.744 629.397 416.656 633.306 423.556C637.215 430.455 645.47 414.084 645.47 414.084C645.47 414.084 642.736 429.405 649.991 428.633C657.245 427.862 650.511 410.448 650.511 410.448C650.511 410.448 660.261 424.904 661.647 418.046C663.032 411.188 650.549 403.629 650.549 403.629C650.549 403.629 662.431 400.517 658.129 392.808C653.827 385.099 647.09 399.508 647.09 399.508C647.09 399.508 648.532 385.058 642.721 384.571C636.91 384.084 641.556 404.911 641.556 404.911Z" fill="#FF693D"/>
<path d="M575.26 411.872C575.26 411.872 593.184 410.713 610.467 393.103C627.749 375.492 575.26 411.872 575.26 411.872Z" fill="#FF693D"/>
<path d="M598.176 408.494C598.176 408.494 620.067 410.105 619.064 421.815C618.061 433.525 610.773 412.161 598.176 408.494Z" fill="#FF693D"/>
<path opacity="0.6" d="M646.127 411.493C644.681 411.33 643.797 408.915 644.116 406.062C644.434 403.208 645.888 401.111 647.278 401.32C648.668 401.53 649.607 403.898 649.288 406.752C648.97 409.606 647.558 411.668 646.127 411.493Z" fill="#292926"/>
<path d="M451.538 450.694C473.347 441.539 494.634 431.18 515.299 419.664C555.146 397.831 594.973 372.314 625.388 338.132C626.32 337.088 628.011 338.422 627.134 339.419C597.422 372.822 558.928 397.885 520.136 419.473C498.203 431.86 475.558 442.938 452.32 452.648C452.063 452.725 451.786 452.704 451.543 452.59C451.3 452.475 451.108 452.276 451.004 452.029C450.9 451.781 450.89 451.504 450.978 451.25C451.065 450.996 451.243 450.782 451.477 450.65L451.538 450.694Z" fill="#FF693D"/>
<g opacity="0.3">
<path d="M451.538 450.694C473.348 441.539 494.634 431.18 515.299 419.664C555.147 397.831 594.974 372.314 625.388 338.132C626.321 337.088 628.012 338.422 627.134 339.419C597.423 372.822 558.929 397.885 520.137 419.473C498.204 431.86 475.558 442.938 452.321 452.648C452.063 452.725 451.786 452.704 451.544 452.59C451.301 452.475 451.109 452.276 451.005 452.029C450.9 451.781 450.891 451.504 450.978 451.25C451.065 450.996 451.243 450.782 451.478 450.65L451.538 450.694Z" fill="#292926"/>
</g>
<path d="M629.71 337.922C629.71 337.922 632.153 351.414 624.673 347.037C617.192 342.66 625.834 335.005 625.834 335.005C625.834 335.005 612.838 338.577 610.567 330.992C608.295 323.406 625.794 328.774 625.794 328.774C625.794 328.774 612.866 320.117 618.466 315.418C624.067 310.718 631.905 327.633 631.905 327.633C631.905 327.633 628.28 310.576 634.162 314.325C640.045 318.074 636.854 332.283 636.854 332.283C636.854 332.283 647.339 325.859 649.91 334.284C652.482 342.709 637.466 337.607 637.466 337.607C637.466 337.607 648.868 346.572 645.181 351.113C641.495 355.654 629.71 337.922 629.71 337.922Z" fill="#FF693D"/>
<path opacity="0.5" d="M629.71 337.922C629.71 337.922 632.153 351.414 624.673 347.037C617.192 342.66 625.834 335.005 625.834 335.005C625.834 335.005 612.838 338.577 610.567 330.992C608.295 323.406 625.794 328.774 625.794 328.774C625.794 328.774 612.866 320.117 618.466 315.418C624.067 310.718 631.905 327.633 631.905 327.633C631.905 327.633 628.28 310.576 634.162 314.325C640.045 318.074 636.854 332.283 636.854 332.283C636.854 332.283 647.339 325.859 649.91 334.284C652.482 342.709 637.466 337.607 637.466 337.607C637.466 337.607 648.868 346.572 645.181 351.113C641.495 355.654 629.71 337.922 629.71 337.922Z" fill="#292926"/>
<path d="M578.769 381.023C578.769 381.023 592.037 368.869 616.657 368.57C641.277 368.27 578.769 381.023 578.769 381.023Z" fill="#FF693D"/>
<path d="M597.042 366.806C597.042 366.806 611.033 349.869 601.914 342.405C592.796 334.941 603.275 355.145 597.042 366.806Z" fill="#FF693D"/>
<path d="M628.134 330.061C627.255 331.226 628.381 333.532 630.645 335.239C632.91 336.945 635.445 337.357 636.255 336.251C637.064 335.145 636.008 332.78 633.741 331.099C631.474 329.418 628.985 328.92 628.134 330.061Z" fill="#FF693D"/>
<path d="M592.079 443.461C592.302 443.218 592.604 443.064 592.931 443.026C593.257 442.988 593.586 443.069 593.857 443.254C594.129 443.439 594.323 443.716 594.406 444.033C594.489 444.351 594.455 444.688 594.309 444.983C593.263 447.127 591.72 448.99 589.807 450.417C587.895 451.844 585.67 452.794 583.318 453.185C579.496 453.945 575.626 454.432 571.737 454.645C571.503 454.651 571.275 454.57 571.097 454.417C570.92 454.265 570.805 454.052 570.776 453.819C570.747 453.587 570.805 453.351 570.939 453.159C571.074 452.966 571.275 452.83 571.503 452.777C578.77 451.283 586.962 448.538 592.079 443.461Z" fill="#FF693D"/>
<path d="M559.644 460.853C566.413 462.328 573.352 462.889 580.276 462.524C580.575 462.499 580.873 462.582 581.116 462.757C581.359 462.933 581.531 463.19 581.6 463.482C581.669 463.773 581.632 464.081 581.494 464.348C581.356 464.615 581.128 464.824 580.85 464.937C576.037 466.888 568.408 468.093 558.742 463.437C558.472 463.27 558.267 463.015 558.161 462.715C558.056 462.416 558.055 462.089 558.16 461.788C558.265 461.487 558.469 461.231 558.739 461.061C559.008 460.891 559.328 460.818 559.644 460.853Z" fill="#FF693D"/>
</svg>
