<?xml version="1.0" encoding="UTF-8"?>
<svg width="660" height="608" viewBox="0 0 660 608" fill="none" xmlns="http://www.w3.org/2000/svg">
<path d="M442.58 414.717C518.64 338.37 518.64 214.586 442.581 138.239C366.521 61.8916 243.204 61.8916 167.144 138.239C91.0845 214.586 91.0844 338.37 167.144 414.717C243.204 491.064 366.521 491.064 442.58 414.717Z" fill="#292926"/>
<path d="M247.781 122.112C249.307 122.112 250.814 122.112 252.322 122.221C227.461 123.356 203.994 134.068 186.801 152.129C169.609 170.19 160.014 194.208 160.014 219.189C160.014 244.169 169.609 268.188 186.801 286.248C203.994 304.309 227.461 315.021 252.322 316.156C250.814 316.156 249.307 316.284 247.781 316.284C222.129 316.284 197.528 306.055 179.39 287.848C161.251 269.641 151.061 244.947 151.061 219.198C151.061 193.449 161.251 168.755 179.39 150.548C197.528 132.34 222.129 122.112 247.781 122.112Z" fill="#292926"/>
<path d="M262.312 122.222H255.047V211.906H262.312V122.222Z" fill="#292926"/>
<path d="M262.312 226.491H255.047V316.175H262.312V226.491Z" fill="#292926"/>
<path d="M186.952 337.889H161.687C155.247 337.889 150.026 343.13 150.026 349.594V359.859C150.026 366.323 155.247 371.564 161.687 371.564H186.952C193.392 371.564 198.613 366.323 198.613 359.859V349.594C198.613 343.13 193.392 337.889 186.952 337.889Z" fill="#292926"/>
<path d="M52.434 126.488H24.4079C17.9677 126.488 12.747 131.728 12.747 138.193V157.683C12.747 164.147 17.9677 169.388 24.4079 169.388H52.434C58.8742 169.388 64.0949 164.147 64.0949 157.683V138.193C64.0949 131.728 58.8742 126.488 52.434 126.488Z" fill="#292926"/>
<path d="M123.635 126.488H85.0558C78.6157 126.488 73.3949 131.728 73.3949 138.193V157.683C73.3949 164.147 78.6157 169.388 85.0558 169.388H123.635C130.075 169.388 135.296 164.147 135.296 157.683V138.193C135.296 131.728 130.075 126.488 123.635 126.488Z" fill="#292926"/>
<path d="M104.182 176.299H65.6026C59.1624 176.299 53.9417 181.54 53.9417 188.004V207.494C53.9417 213.959 59.1624 219.199 65.6026 219.199H104.182C110.622 219.199 115.843 213.959 115.843 207.494V188.004C115.843 181.54 110.622 176.299 104.182 176.299Z" fill="#292926"/>
<path d="M577.156 223.282H525.518C519.078 223.282 513.857 228.523 513.857 234.987V254.477C513.857 260.942 519.078 266.182 525.518 266.182H577.156C583.597 266.182 588.817 260.942 588.817 254.477V234.987C588.817 228.523 583.597 223.282 577.156 223.282Z" fill="#292926"/>
<path d="M648.339 223.282H609.76C603.32 223.282 598.099 228.523 598.099 234.987V254.477C598.099 260.942 603.32 266.182 609.76 266.182H648.339C654.779 266.182 660 260.942 660 254.477V234.987C660 228.523 654.779 223.282 648.339 223.282Z" fill="#292926"/>
<path d="M612.539 273.076H573.96C567.52 273.076 562.299 278.317 562.299 284.781V304.271C562.299 310.736 567.52 315.976 573.96 315.976H612.539C618.979 315.976 624.2 310.736 624.2 304.271V284.781C624.2 278.317 618.979 273.076 612.539 273.076Z" fill="#292926"/>
<path d="M640.184 168.586H601.605C595.165 168.586 589.944 173.826 589.944 180.291V199.781C589.944 206.246 595.165 211.486 601.605 211.486H640.184C646.624 211.486 651.845 206.246 651.845 199.781V180.291C651.845 173.826 646.624 168.586 640.184 168.586Z" fill="#292926"/>
<path d="M649.374 375.923H402.461V606.759H649.374V375.923Z" fill="#292926"/>
<path opacity="0.2" d="M565.895 375.923H402.461V606.759H565.895V375.923Z" fill="#292926"/>
<path opacity="0.6" d="M649.374 375.923H402.461V606.759H649.374V375.923Z" fill="#292926"/>
<path d="M548.15 393.735H420.225V451.221H548.15V393.735Z" fill="#292926"/>
<path opacity="0.5" d="M548.15 393.735H420.225V451.221H548.15V393.735Z" fill="#292926"/>
<g opacity="0.4">
<path d="M535.272 445.24H433.121V443.873C433.123 443.129 432.979 442.392 432.697 441.704C432.416 441.017 432.001 440.391 431.478 439.865C430.955 439.338 430.333 438.92 429.649 438.635C428.965 438.35 428.231 438.203 427.49 438.203H426.128V406.698H427.49C428.231 406.698 428.965 406.551 429.649 406.266C430.333 405.981 430.955 405.563 431.478 405.036C432.001 404.509 432.416 403.884 432.697 403.196C432.979 402.508 433.123 401.771 433.121 401.028V399.66H535.272V401.028C535.272 402.531 535.867 403.974 536.926 405.037C537.986 406.1 539.422 406.698 540.921 406.698H542.283V438.276H540.921C539.422 438.276 537.986 438.873 536.926 439.937C535.867 441 535.272 442.442 535.272 443.946V445.24ZM435.773 442.506H532.656C532.946 440.774 533.766 439.175 535.003 437.933C536.241 436.692 537.833 435.868 539.558 435.577V409.323C537.833 409.033 536.241 408.209 535.003 406.967C533.766 405.725 532.946 404.127 532.656 402.395H435.736C435.451 404.126 434.633 405.723 433.399 406.965C432.165 408.207 430.576 409.032 428.852 409.323V435.65C430.576 435.942 432.165 436.766 433.399 438.008C434.633 439.25 435.451 440.848 435.736 442.579L435.773 442.506Z" fill="#292926"/>
</g>
<path d="M489.3 424.294H479.056C476.827 424.29 474.691 423.399 473.115 421.817C471.539 420.235 470.651 418.09 470.646 415.853V413.538H469.557C468.834 413.538 468.141 413.249 467.63 412.736C467.119 412.224 466.832 411.528 466.832 410.803C466.832 410.077 467.119 409.382 467.63 408.869C468.141 408.356 468.834 408.068 469.557 408.068H472.118C472.641 408.068 473.16 408.172 473.644 408.374C474.128 408.575 474.567 408.871 474.937 409.244C475.306 409.616 475.599 410.059 475.798 410.545C475.997 411.032 476.098 411.553 476.095 412.079V415.853C476.095 416.243 476.172 416.63 476.321 416.99C476.469 417.351 476.688 417.678 476.962 417.954C477.237 418.23 477.564 418.449 477.923 418.599C478.282 418.748 478.667 418.825 479.056 418.825H489.3C490.085 418.825 490.838 418.512 491.394 417.954C491.949 417.397 492.261 416.641 492.261 415.853V412.079C492.261 411.015 492.682 409.995 493.431 409.243C494.181 408.49 495.197 408.068 496.257 408.068H498.8C499.522 408.068 500.215 408.356 500.726 408.869C501.237 409.382 501.524 410.077 501.524 410.803C501.524 411.528 501.237 412.224 500.726 412.736C500.215 413.249 499.522 413.538 498.8 413.538H497.71V415.853C497.71 418.092 496.824 420.239 495.247 421.822C493.67 423.405 491.531 424.294 489.3 424.294Z" fill="#292926"/>
<path d="M548.15 461.485H420.225V518.971H548.15V461.485Z" fill="#292926"/>
<path opacity="0.5" d="M548.15 461.485H420.225V518.971H548.15V461.485Z" fill="#292926"/>
<g opacity="0.4">
<path d="M535.272 513.048H433.121V511.681C433.121 510.18 432.528 508.741 431.473 507.678C430.417 506.615 428.985 506.015 427.49 506.011H426.128V474.414H427.49C428.984 474.414 430.416 473.819 431.472 472.759C432.528 471.699 433.121 470.261 433.121 468.762V467.395H535.272V468.762C535.272 469.506 535.418 470.243 535.702 470.93C535.986 471.616 536.403 472.24 536.927 472.765C537.452 473.291 538.075 473.706 538.76 473.989C539.446 474.272 540.18 474.417 540.921 474.414H542.283V505.992H540.921C540.179 505.992 539.444 506.139 538.759 506.424C538.074 506.709 537.451 507.127 536.926 507.653C536.402 508.18 535.986 508.805 535.702 509.493C535.418 510.181 535.272 510.918 535.272 511.663V513.048ZM435.773 510.313H532.656C532.946 508.581 533.766 506.983 535.003 505.741C536.241 504.499 537.833 503.676 539.558 503.385V477.058C537.834 476.771 536.243 475.951 535.005 474.712C533.768 473.473 532.947 471.878 532.656 470.148H435.736C435.45 471.876 434.632 473.472 433.398 474.711C432.163 475.949 430.574 476.77 428.852 477.058V503.385C430.576 503.677 432.165 504.501 433.399 505.743C434.633 506.985 435.451 508.583 435.736 510.313H435.773Z" fill="#292926"/>
</g>
<path d="M489.3 492.023H479.056C476.826 492.023 474.687 491.134 473.109 489.551C471.532 487.968 470.646 485.821 470.646 483.582V481.267H469.557C468.834 481.267 468.141 480.978 467.63 480.465C467.119 479.953 466.832 479.257 466.832 478.532C466.832 477.806 467.119 477.111 467.63 476.598C468.141 476.085 468.834 475.797 469.557 475.797H472.118C473.174 475.802 474.186 476.226 474.931 476.978C475.677 477.73 476.095 478.747 476.095 479.808V483.527C476.095 484.315 476.407 485.071 476.962 485.629C477.518 486.186 478.271 486.499 479.056 486.499H489.3C490.085 486.499 490.838 486.186 491.394 485.629C491.949 485.071 492.261 484.315 492.261 483.527V479.881C492.266 478.819 492.688 477.801 493.436 477.05C494.185 476.299 495.198 475.875 496.257 475.87H498.8C499.522 475.87 500.215 476.158 500.726 476.671C501.237 477.184 501.524 477.879 501.524 478.605C501.524 479.33 501.237 480.026 500.726 480.538C500.215 481.051 499.522 481.339 498.8 481.339H497.71V483.527C497.717 484.64 497.505 485.744 497.085 486.774C496.666 487.805 496.048 488.742 495.266 489.532C494.484 490.321 493.555 490.948 492.531 491.376C491.507 491.803 490.409 492.023 489.3 492.023Z" fill="#292926"/>
<path d="M548.15 529.218H420.225V586.704H548.15V529.218Z" fill="#292926"/>
<path opacity="0.5" d="M548.15 529.218H420.225V586.704H548.15V529.218Z" fill="#292926"/>
<g opacity="0.4">
<path d="M535.272 580.779H433.121V579.412C433.121 577.913 432.528 576.476 431.472 575.416C430.416 574.356 428.984 573.76 427.49 573.76H426.128V542.182H427.49C428.985 542.177 430.418 541.578 431.473 540.515C432.528 539.452 433.121 538.013 433.121 536.512V535.145H535.272V536.512C535.272 538.016 535.867 539.458 536.927 540.521C537.986 541.585 539.423 542.182 540.921 542.182H542.283V573.76H540.921C540.18 573.758 539.446 573.902 538.761 574.185C538.075 574.468 537.452 574.884 536.928 575.409C536.403 575.934 535.986 576.558 535.702 577.245C535.418 577.932 535.272 578.668 535.272 579.412V580.779ZM435.773 578.045H532.656C532.947 576.315 533.768 574.719 535.005 573.481C536.243 572.242 537.835 571.422 539.559 571.135V544.808C537.833 544.517 536.241 543.693 535.004 542.452C533.767 541.21 532.946 539.611 532.656 537.879H435.737C435.451 539.61 434.634 541.208 433.4 542.45C432.165 543.692 430.576 544.516 428.853 544.808V571.135C430.574 571.423 432.164 572.243 433.398 573.482C434.632 574.721 435.45 576.316 435.737 578.045H435.773Z" fill="#292926"/>
</g>
<path d="M489.3 559.775H479.056C476.824 559.771 474.685 558.877 473.108 557.291C471.532 555.705 470.646 553.556 470.646 551.316V549.018H469.557C468.834 549.018 468.141 548.73 467.63 548.217C467.119 547.705 466.832 547.009 466.832 546.284C466.832 545.558 467.119 544.863 467.63 544.35C468.141 543.837 468.834 543.549 469.557 543.549H472.118C473.173 543.549 474.184 543.969 474.93 544.718C475.676 545.467 476.095 546.483 476.095 547.542V551.316C476.095 552.106 476.407 552.863 476.961 553.424C477.516 553.984 478.269 554.301 479.056 554.306H489.3C490.087 554.301 490.84 553.984 491.395 553.424C491.949 552.863 492.261 552.106 492.261 551.316V547.542C492.266 546.481 492.689 545.465 493.438 544.717C494.186 543.969 495.2 543.549 496.257 543.549H498.8C499.522 543.549 500.215 543.837 500.726 544.35C501.237 544.863 501.524 545.558 501.524 546.284C501.524 547.009 501.237 547.705 500.726 548.217C500.215 548.73 499.522 549.018 498.8 549.018H497.71V551.316C497.712 552.426 497.496 553.525 497.075 554.552C496.653 555.578 496.034 556.511 495.253 557.296C494.472 558.082 493.544 558.706 492.523 559.131C491.501 559.556 490.406 559.775 489.3 559.775Z" fill="#292926"/>
<path d="M572.398 307.734C590.797 307.734 608.343 322.702 611.594 341.172L617.661 375.813H551.056L544.971 341.172L572.398 307.734Z" fill="#1E293B"/>
<path d="M540.266 341.172C540.266 332.303 543.776 323.798 550.023 317.528C556.27 311.257 564.743 307.734 573.578 307.734C582.413 307.734 590.886 311.257 597.133 317.528C603.38 323.798 606.89 332.303 606.89 341.172V375.813H540.266V341.172Z" fill="#FF693D"/>
<path d="M540.266 341.172C540.266 332.303 543.776 323.798 550.023 317.528C556.27 311.257 564.743 307.734 573.578 307.734C582.413 307.734 590.886 311.257 597.133 317.528C603.38 323.798 606.89 332.303 606.89 341.172V375.813H540.266V341.172Z" fill="#292926"/>
<path d="M598.873 347.15C602.175 333.106 593.51 319.035 579.52 315.72C565.529 312.406 551.511 321.103 548.209 335.147C544.907 349.19 553.571 363.262 567.562 366.576C581.552 369.891 595.571 361.193 598.873 347.15Z" fill="#292926"/>
<path d="M598.873 347.15C602.175 333.106 593.51 319.035 579.52 315.72C565.529 312.406 551.511 321.103 548.209 335.147C544.907 349.19 553.571 363.262 567.562 366.576C581.552 369.891 595.571 361.193 598.873 347.15Z" fill="#FF693D"/>
<path opacity="0.2" d="M573.578 319.184C580.119 319.186 586.419 321.662 591.223 326.119C596.027 330.576 598.981 336.686 599.497 343.232C599.497 342.557 599.606 341.864 599.606 341.172C599.606 334.242 596.864 327.597 591.983 322.697C587.101 317.798 580.481 315.045 573.578 315.045C566.675 315.045 560.054 317.798 555.173 322.697C550.292 327.597 547.55 334.242 547.55 341.172C547.55 341.864 547.55 342.557 547.659 343.232C548.175 336.686 551.129 330.576 555.933 326.119C560.736 321.662 567.037 319.186 573.578 319.184Z" fill="#292926"/>
<path opacity="0.1" d="M590.016 341.155H576.339V327.426C576.233 326.777 575.901 326.187 575.402 325.762C574.903 325.336 574.269 325.103 573.614 325.103C572.959 325.103 572.326 325.336 571.827 325.762C571.328 326.187 570.996 326.777 570.89 327.426V343.926C570.89 344.661 571.181 345.366 571.698 345.885C572.216 346.405 572.918 346.697 573.651 346.697H590.089C590.735 346.591 591.322 346.257 591.746 345.756C592.17 345.255 592.403 344.62 592.403 343.962C592.403 343.305 592.17 342.669 591.746 342.168C591.322 341.667 590.735 341.334 590.089 341.227L590.016 341.155Z" fill="#292926"/>
<path d="M590.016 343.944C590.662 343.837 591.249 343.504 591.673 343.003C592.097 342.502 592.33 341.866 592.33 341.209C592.33 340.551 592.097 339.916 591.673 339.415C591.249 338.914 590.662 338.58 590.016 338.474H573.578C573.183 338.409 572.778 338.431 572.393 338.539C572.007 338.646 571.649 338.837 571.344 339.097C571.039 339.357 570.794 339.681 570.626 340.045C570.458 340.41 570.371 340.807 570.371 341.209C570.371 341.611 570.458 342.008 570.626 342.372C570.794 342.737 571.039 343.061 571.344 343.321C571.649 343.581 572.007 343.771 572.393 343.879C572.778 343.987 573.183 344.009 573.578 343.944H590.016Z" fill="#FF693D"/>
<path opacity="0.3" d="M590.016 343.944C590.662 343.837 591.249 343.504 591.673 343.003C592.097 342.502 592.33 341.866 592.33 341.209C592.33 340.551 592.097 339.916 591.673 339.415C591.249 338.914 590.662 338.58 590.016 338.474H573.578C573.183 338.409 572.778 338.431 572.393 338.539C572.007 338.646 571.649 338.837 571.344 339.097C571.039 339.357 570.794 339.681 570.626 340.045C570.458 340.41 570.371 340.807 570.371 341.209C570.371 341.611 570.458 342.008 570.626 342.372C570.794 342.737 571.039 343.061 571.344 343.321C571.649 343.581 572.007 343.771 572.393 343.879C572.778 343.987 573.183 344.009 573.578 343.944H590.016Z" fill="#292926"/>
<path d="M576.339 324.67C576.233 324.021 575.901 323.431 575.402 323.006C574.903 322.58 574.269 322.347 573.614 322.347C572.959 322.347 572.326 322.58 571.827 323.006C571.328 323.431 570.996 324.021 570.89 324.67V341.079C570.996 341.727 571.328 342.317 571.827 342.743C572.326 343.168 572.959 343.402 573.614 343.402C574.269 343.402 574.903 343.168 575.402 342.743C575.901 342.317 576.233 341.727 576.339 341.079V324.67Z" fill="#FF693D"/>
<path opacity="0.6" d="M576.339 324.67C576.233 324.021 575.901 323.431 575.402 323.006C574.903 322.58 574.269 322.347 573.614 322.347C572.959 322.347 572.326 322.58 571.827 323.006C571.328 323.431 570.996 324.021 570.89 324.67V341.079C570.996 341.727 571.328 342.317 571.827 342.743C572.326 343.168 572.959 343.402 573.614 343.402C574.269 343.402 574.903 343.168 575.402 342.743C575.901 342.317 576.233 341.727 576.339 341.079V324.67Z" fill="#292926"/>
<path d="M173.057 599.631V558.918C178.052 558.918 178.052 551.133 173.057 551.133C157.6 551.133 142.179 551.024 126.668 550.933V607.452H173.057C178.052 607.507 178.052 599.631 173.057 599.631Z" fill="#292926"/>
<path opacity="0.3" d="M173.057 599.631V558.918C178.052 558.918 178.052 551.133 173.057 551.133C157.6 551.133 142.179 551.024 126.668 550.933V607.452H173.057C178.052 607.507 178.052 599.631 173.057 599.631Z" fill="#292926"/>
<path d="M173.057 558.919H137.021V599.558H173.057V558.919Z" fill="#292926"/>
<path opacity="0.8" d="M173.057 558.919H137.021V599.558H173.057V558.919Z" fill="#292926"/>
<path d="M144.595 603.512H19.6854C11.0941 603.512 4.13754 592.664 4.13754 579.263C4.13754 565.863 11.0941 555.015 19.6854 555.015H144.595V603.512Z" fill="#292926"/>
<path opacity="0.9" d="M144.595 603.512H19.6854C11.0941 603.512 4.13754 592.664 4.13754 579.263C4.13754 565.863 11.0941 555.015 19.6854 555.015H144.595V603.512Z" fill="#292926"/>
<path d="M144.595 551.134C103.691 551.134 62.7326 550.386 21.8468 551.134C-6.16118 551.644 -7.66875 605.52 19.8125 607.417C38.9567 608.729 58.6458 607.417 77.9354 607.417H144.686C149.681 607.417 149.681 599.631 144.686 599.631H28.4401C19.4674 599.631 13.0557 599.522 9.58649 588.893C6.58953 579.777 7.53402 560.961 19.8125 558.919C21.2089 558.81 22.6118 558.81 24.0082 558.919H144.722C149.717 558.919 149.717 551.134 144.722 551.134H144.595Z" fill="#292926"/>
<path d="M164.865 545.372V512.9C165.646 512.84 166.375 512.487 166.907 511.91C167.439 511.334 167.734 510.577 167.734 509.792C167.734 509.006 167.439 508.249 166.907 507.673C166.375 507.097 165.646 506.743 164.865 506.683C152.551 506.683 140.2 506.592 127.867 506.519V551.589H164.865C165.646 551.529 166.375 551.175 166.907 550.599C167.439 550.023 167.734 549.266 167.734 548.48C167.734 547.695 167.439 546.938 166.907 546.362C166.375 545.785 165.646 545.432 164.865 545.372Z" fill="#292926"/>
<path opacity="0.3" d="M164.865 545.372V512.9C165.646 512.84 166.375 512.487 166.907 511.91C167.439 511.334 167.734 510.577 167.734 509.792C167.734 509.006 167.439 508.249 166.907 507.673C166.375 507.097 165.646 506.743 164.865 506.683C152.551 506.683 140.2 506.592 127.867 506.519V551.589H164.865C165.646 551.529 166.375 551.175 166.907 550.599C167.439 550.023 167.734 549.266 167.734 548.48C167.734 547.695 167.439 546.938 166.907 546.362C166.375 545.785 165.646 545.432 164.865 545.372Z" fill="#292926"/>
<path d="M164.884 512.902H136.131V545.337H164.884V512.902Z" fill="#292926"/>
<path opacity="0.8" d="M164.884 512.902H136.131V545.337H164.884V512.902Z" fill="#292926"/>
<path d="M142.161 548.472H42.4983C35.6507 548.472 30.0927 539.812 30.0927 529.127C30.0927 518.443 35.6507 509.783 42.4983 509.783H142.161V548.472Z" fill="#292926"/>
<path opacity="0.9" d="M142.161 548.472H42.4983C35.6507 548.472 30.0927 539.812 30.0927 529.127C30.0927 518.443 35.6507 509.783 42.4983 509.783H142.161V548.472Z" fill="#292926"/>
<path d="M142.161 506.684C109.467 506.684 76.7727 506.082 44.2239 506.684C21.8829 507.085 20.6114 550.076 42.6073 551.59C57.8827 552.629 73.5941 551.59 88.9058 551.59H142.161C142.941 551.529 143.67 551.176 144.202 550.6C144.734 550.023 145.03 549.267 145.03 548.481C145.03 547.695 144.734 546.939 144.202 546.362C143.67 545.786 142.941 545.432 142.161 545.372H49.3823C42.2259 545.372 37.1038 545.281 34.343 536.803C31.9454 529.51 32.7083 514.505 42.4983 512.901C43.6166 512.81 44.7403 512.81 45.8586 512.901H142.125C142.905 512.841 143.634 512.487 144.166 511.911C144.698 511.335 144.993 510.578 144.993 509.792C144.993 509.007 144.698 508.25 144.166 507.674C143.634 507.097 142.905 506.744 142.125 506.684H142.161Z" fill="#292926"/>
<path d="M151.134 456.181C151.086 453.75 150.092 451.434 148.363 449.73C146.635 448.026 144.311 447.069 141.888 447.065H86.7261C84.305 447.074 81.9832 448.032 80.2561 449.735C78.5289 451.438 77.533 453.751 77.4809 456.181V456.856C75.4996 456.198 73.4285 455.853 71.3417 455.835C62.26 455.835 56.2116 462.927 56.2116 473.483C56.2116 483.566 66.7827 491.114 76.1913 491.114C77.1491 491.11 78.1041 491.012 79.043 490.822C81.2394 497.603 85.2628 503.642 90.6676 508.27H137.892C142.138 504.671 145.549 500.184 147.886 495.123C150.224 490.062 151.431 484.549 151.424 478.971C151.424 475.288 151.315 466.701 151.134 456.181ZM76.2458 485.207C69.8341 485.207 62.0965 479.974 62.0965 473.483C62.0965 470.73 62.7686 461.742 71.3417 461.742C73.4253 461.783 75.4781 462.255 77.3719 463.127C77.263 470.42 77.1903 476.163 77.1903 478.971C77.2046 481.025 77.3869 483.073 77.7352 485.097C77.2418 485.166 76.7439 485.196 76.2458 485.188V485.207Z" fill="#FF693D"/>
<path opacity="0.2" d="M151.134 456.181C151.086 453.75 150.092 451.434 148.363 449.73C146.635 448.026 144.311 447.069 141.888 447.065H86.7261C84.305 447.074 81.9832 448.032 80.2561 449.735C78.5289 451.438 77.533 453.751 77.4809 456.181V456.856C75.4996 456.198 73.4285 455.853 71.3417 455.835C62.26 455.835 56.2116 462.927 56.2116 473.483C56.2116 483.566 66.7827 491.114 76.1913 491.114C77.1491 491.11 78.1041 491.012 79.043 490.822C81.2394 497.603 85.2628 503.642 90.6676 508.27H137.892C142.138 504.671 145.549 500.184 147.886 495.123C150.224 490.062 151.431 484.549 151.424 478.971C151.424 475.288 151.315 466.701 151.134 456.181ZM76.2458 485.207C69.8341 485.207 62.0965 479.974 62.0965 473.483C62.0965 470.73 62.7686 461.742 71.3417 461.742C73.4253 461.783 75.4781 462.255 77.3719 463.127C77.263 470.42 77.1903 476.163 77.1903 478.971C77.2046 481.025 77.3869 483.073 77.7352 485.097C77.2418 485.166 76.7439 485.196 76.2458 485.188V485.207Z" fill="#292926"/>
<path opacity="0.9" d="M128.629 471.279L121.709 455.873L117.35 465.627C115.777 465.409 114.182 465.409 112.609 465.627L108.232 455.873L101.311 471.279C99.1345 473.652 97.9114 476.751 97.8784 479.976C97.8784 487.98 105.543 494.47 114.97 494.47C124.397 494.47 132.062 487.98 132.062 479.976C132.029 476.751 130.806 473.652 128.629 471.279ZM107.378 477.314C107.378 476.129 108.068 475.181 108.94 475.181C109.812 475.181 110.52 476.129 110.52 477.314C110.52 478.499 109.812 479.465 108.94 479.465C108.068 479.465 107.378 478.499 107.378 477.314ZM117.386 485.664C116.492 485.657 115.632 485.32 114.97 484.716C114.319 485.325 113.462 485.664 112.573 485.664C111.609 485.664 110.685 485.28 110.004 484.596C109.323 483.913 108.94 482.985 108.94 482.018H110.447C110.44 482.476 110.584 482.924 110.857 483.291C111.129 483.659 111.515 483.926 111.954 484.05C112.393 484.175 112.861 484.151 113.285 483.981C113.709 483.811 114.065 483.506 114.298 483.112L114.934 482.073L115.588 483.112C115.824 483.497 116.18 483.794 116.6 483.957C117.02 484.121 117.482 484.143 117.916 484.019C118.349 483.895 118.731 483.633 119.002 483.272C119.274 482.911 119.421 482.47 119.42 482.018H120.946C120.946 482.973 120.573 483.889 119.908 484.571C119.242 485.253 118.337 485.645 117.386 485.664ZM121.019 479.465C120.147 479.465 119.457 478.499 119.457 477.314C119.457 476.129 120.147 475.181 121.019 475.181C121.89 475.181 122.599 476.129 122.599 477.314C122.599 478.499 121.872 479.465 121 479.465H121.019Z" fill="#292926"/>
<path d="M502.378 299.001C509.643 276.448 523.32 243.265 545.843 222.827L474.642 201.076C482.017 230.649 474.987 265.891 468.485 288.59C452.828 293.075 438.334 308.317 432.013 329.157C423.222 358.164 441.476 361.008 463.054 367.59C484.632 374.172 501.379 382.012 510.17 353.004C516.473 332.201 512.894 311.472 502.378 299.001Z" fill="#FF693D"/>
<path opacity="0.5" d="M502.378 299.001C509.643 276.448 523.32 243.265 545.843 222.827L474.642 201.076C482.017 230.649 474.987 265.891 468.485 288.59C452.828 293.075 438.334 308.317 432.013 329.157C423.222 358.164 441.476 361.008 463.054 367.59C484.632 374.172 501.379 382.012 510.17 353.004C516.473 332.201 512.894 311.472 502.378 299.001Z" fill="#292926"/>
<path opacity="0.4" d="M504.957 351.492C510.497 333.259 507.845 313.97 498.218 302.538L496.257 300.223L497.183 297.324C503.867 276.485 520.796 242.008 538.959 220.749L481.399 203.173C484.723 231.032 479.583 269.137 473.643 290.177L472.826 293.094L469.902 293.933C455.553 298.035 442.657 312.511 437.208 330.835C434.701 339.13 434.519 345.11 436.681 349.067C439.896 355.047 449.123 357.782 459.803 360.936C462.963 361.866 466.287 362.887 469.429 363.871C480.055 367.226 489.246 370.106 495.221 366.952C499.254 364.856 502.432 359.787 504.957 351.492Z" fill="#292926"/>
<path d="M498.219 302.538L496.257 300.222L497.183 297.323C500.071 288.691 503.486 280.246 507.409 272.035C503.904 273.439 498.328 274.77 493.423 271.452C487.811 267.623 480.945 270.832 477.712 272.783C476.495 279.292 475.151 285.235 473.716 290.194L472.899 293.112L469.974 293.95C455.625 298.053 442.729 312.529 437.28 330.852C434.774 339.148 434.592 345.128 436.754 349.084C439.969 355.064 449.196 357.799 459.876 360.953C463.036 361.883 466.36 362.904 469.502 363.889C480.128 367.243 489.318 370.124 495.294 366.97C499.308 364.837 502.56 359.677 505.012 351.473C510.497 333.186 507.845 313.969 498.219 302.538Z" fill="#FF693D"/>
<path opacity="0.3" d="M498.219 302.538L496.257 300.222L497.183 297.323C500.071 288.691 503.486 280.246 507.409 272.035C503.904 273.439 498.328 274.77 493.423 271.452C487.811 267.623 480.945 270.832 477.712 272.783C476.495 279.292 475.151 285.235 473.716 290.194L472.899 293.112L469.974 293.95C455.625 298.053 442.729 312.529 437.28 330.852C434.774 339.148 434.592 345.128 436.754 349.084C439.969 355.064 449.196 357.799 459.876 360.953C463.036 361.883 466.36 362.904 469.502 363.889C480.128 367.243 489.318 370.124 495.294 366.97C499.308 364.837 502.56 359.677 505.012 351.473C510.497 333.186 507.845 313.969 498.219 302.538Z" fill="#292926"/>
<path opacity="0.5" d="M479.892 281.627C484.668 265.223 487.15 248.232 487.266 231.142C487.139 204.414 506.101 241.042 479.892 281.627Z" fill="#292926"/>
<path opacity="0.5" d="M492.188 216.009C492.043 217.65 488.065 220.786 486.576 212.491C485.086 204.195 492.334 214.35 492.188 216.009Z" fill="#292926"/>
<g opacity="0.2">
<path d="M446.489 343.507C445.903 343.068 445.179 342.854 444.45 342.905C443.72 342.956 443.033 343.268 442.513 343.785C441.994 344.302 441.677 344.989 441.62 345.722C441.562 346.454 441.769 347.182 442.202 347.774C444.673 350.891 449.559 354.301 458.895 357.145C483.506 364.656 493.641 368.996 500.67 353.061C507.245 338.019 479.528 369.452 446.489 343.507Z" fill="#292926"/>
<path d="M441.894 337.018C439.369 335.833 438.915 333.371 443.365 325.896C447.815 318.421 447.524 339.661 441.894 337.018Z" fill="#292926"/>
</g>
<path d="M470.174 343.76C476.894 321.083 484.868 298.799 494.059 277.013C511.387 235.079 532.402 192.689 563.08 158.759C564.024 157.738 562.553 156.115 561.608 157.155C531.693 190.282 510.987 231.232 493.786 272.145C483.826 295.28 475.237 318.987 468.067 343.14C467.983 343.418 468.012 343.719 468.148 343.975C468.284 344.232 468.516 344.423 468.793 344.508C469.07 344.592 469.37 344.563 469.625 344.426C469.881 344.29 470.071 344.057 470.156 343.779L470.174 343.76Z" fill="#FF693D"/>
<g opacity="0.3">
<path d="M470.174 343.76C476.894 321.083 484.868 298.799 494.059 277.013C511.387 235.079 532.402 192.689 563.08 158.759C564.024 157.738 562.553 156.115 561.608 157.155C531.693 190.282 510.987 231.232 493.786 272.145C483.826 295.28 475.237 318.987 468.067 343.14C467.983 343.418 468.012 343.719 468.148 343.975C468.284 344.232 468.516 344.423 468.793 344.508C469.07 344.592 469.37 344.563 469.625 344.426C469.881 344.29 470.071 344.057 470.156 343.779L470.174 343.76Z" fill="#292926"/>
</g>
<path d="M562.753 154.457C562.753 154.457 549.094 153.454 554.271 160.437C559.447 167.42 566.077 158.012 566.077 158.012C566.077 158.012 563.934 171.321 571.726 172.762C579.518 174.202 572.289 157.356 572.289 157.356C572.289 157.356 582.26 169.298 586.329 163.245C590.398 157.192 572.743 151.157 572.743 151.157C572.743 151.157 590.071 152.98 585.711 147.51C581.352 142.041 567.548 146.745 567.548 146.745C567.548 146.745 572.797 135.641 564.133 133.982C555.469 132.323 562.172 146.745 562.172 146.745C562.172 146.745 552.037 136.352 547.932 140.491C543.827 144.63 562.753 154.457 562.753 154.457Z" fill="#FF693D"/>
<path d="M525.5 209.718C525.5 209.718 536.125 195.241 533.746 170.683C531.366 146.124 525.5 209.718 525.5 209.718Z" fill="#FF693D"/>
<path d="M537.633 189.991C537.633 189.991 552.927 174.257 561.245 182.553C569.564 190.848 548.531 182.698 537.633 189.991Z" fill="#FF693D"/>
<path opacity="0.6" d="M570.727 155.187C569.673 156.189 567.257 155.314 565.278 153.236C563.298 151.157 562.626 148.696 563.679 147.766C564.733 146.836 567.149 147.638 569.128 149.717C571.108 151.795 571.78 154.202 570.727 155.187Z" fill="#292926"/>
<path d="M475.75 329.449C482.751 306.857 488.493 283.892 492.951 260.659C501.833 216.1 507.881 169.189 501.252 123.918C501.052 122.533 503.159 122.095 503.359 123.408C509.843 167.639 504.303 213.238 495.912 256.83C491.306 281.594 485.241 306.062 477.748 330.105C477.642 330.352 477.448 330.551 477.205 330.663C476.961 330.776 476.685 330.794 476.429 330.715C476.173 330.636 475.954 330.465 475.816 330.235C475.677 330.005 475.628 329.732 475.678 329.467L475.75 329.449Z" fill="#FF693D"/>
<g opacity="0.3">
<path d="M475.751 329.448C482.751 306.857 488.493 283.891 492.951 260.659C501.833 216.099 507.882 169.188 501.252 123.918C501.052 122.532 503.159 122.095 503.359 123.407C509.843 167.639 504.303 213.237 495.912 256.83C491.306 281.594 485.241 306.062 477.748 330.105C477.642 330.352 477.448 330.55 477.205 330.663C476.961 330.775 476.685 330.794 476.429 330.715C476.173 330.636 475.955 330.465 475.816 330.235C475.677 330.004 475.628 329.731 475.678 329.467L475.751 329.448Z" fill="#292926"/>
</g>
<path d="M503.867 120.472C503.867 120.472 515.764 127.273 507.608 130.19C499.453 133.107 499.144 121.566 499.144 121.566C499.144 121.566 493.532 133.818 486.266 130.682C479.001 127.546 494.349 117.591 494.349 117.591C494.349 117.591 479.419 121.931 479.419 114.62C479.419 107.309 497.401 112.176 497.401 112.176C497.401 112.176 482.016 103.99 488.664 101.894C495.312 99.7969 504.139 111.374 504.139 111.374C504.139 111.374 505.956 99.2134 514.057 102.659C522.157 106.105 508.608 114.328 508.608 114.328C508.608 114.328 522.793 111.356 523.901 117.099C525.009 122.842 503.867 120.472 503.867 120.472Z" fill="#FF693D"/>
<path opacity="0.5" d="M503.867 120.472C503.867 120.472 515.764 127.273 507.608 130.19C499.453 133.107 499.144 121.566 499.144 121.566C499.144 121.566 493.532 133.818 486.266 130.682C479.001 127.546 494.349 117.591 494.349 117.591C494.349 117.591 479.419 121.931 479.419 114.62C479.419 107.309 497.401 112.176 497.401 112.176C497.401 112.176 482.016 103.99 488.664 101.894C495.312 99.7969 504.139 111.374 504.139 111.374C504.139 111.374 505.956 99.2134 514.057 102.659C522.157 106.105 508.608 114.328 508.608 114.328C508.608 114.328 522.793 111.356 523.901 117.099C525.009 122.842 503.867 120.472 503.867 120.472Z" fill="#292926"/>
<path d="M504.139 187.2C504.139 187.2 503.358 169.224 518.943 150.171C534.527 131.118 504.139 187.2 504.139 187.2Z" fill="#FF693D"/>
<path d="M504.993 164.064C504.993 164.064 501.016 142.458 489.446 144.646C477.875 146.834 500.071 151.793 504.993 164.064Z" fill="#FF693D"/>
<path d="M496.838 116.627C497.165 118.049 499.653 118.669 502.414 118.031C505.175 117.393 507.118 115.715 506.791 114.384C506.464 113.053 503.976 112.342 501.233 112.999C498.491 113.655 496.511 115.241 496.838 116.627Z" fill="#FF693D"/>
<path d="M560.482 217.138C560.44 216.812 560.516 216.481 560.696 216.206C560.877 215.931 561.15 215.731 561.466 215.643C561.782 215.554 562.119 215.583 562.415 215.723C562.712 215.864 562.948 216.107 563.08 216.409C564.049 218.588 564.484 220.968 564.348 223.35C564.212 225.732 563.509 228.047 562.299 230.101C560.425 233.516 558.313 236.794 555.978 239.91C555.832 240.093 555.623 240.216 555.393 240.254C555.162 240.292 554.925 240.243 554.728 240.116C554.532 239.989 554.389 239.793 554.328 239.566C554.267 239.339 554.292 239.098 554.398 238.889C557.921 232.362 561.082 224.321 560.482 217.138Z" fill="#FF693D"/>
<path d="M552.963 253.165C558.439 248.927 563.326 243.973 567.493 238.433C567.666 238.188 567.921 238.013 568.212 237.94C568.502 237.867 568.809 237.901 569.077 238.035C569.345 238.17 569.556 238.396 569.672 238.673C569.788 238.95 569.801 239.259 569.709 239.546C568.111 244.486 564.133 251.105 554.361 255.517C554.06 255.616 553.733 255.609 553.436 255.498C553.138 255.386 552.888 255.176 552.725 254.902C552.562 254.629 552.497 254.308 552.54 253.992C552.584 253.676 552.732 253.384 552.963 253.165Z" fill="#FF693D"/>
<path d="M321.616 346.332C321.616 346.332 331.606 349.614 343.812 337.946C356.018 326.277 380.429 300.096 390.419 296.194C400.409 292.292 409.854 278.928 418.173 275.592C426.492 272.255 424.948 277.269 424.948 277.269C424.948 277.269 435.41 273.222 433.703 281.171C433.703 281.171 439.061 283.395 433.884 287.844C428.708 292.292 410.962 306.222 404.823 307.334C404.823 307.334 381.501 337.417 369.295 351.911C357.089 366.406 346.936 369.141 347.027 400.901C347.118 432.661 321.616 346.332 321.616 346.332Z" fill="#FF693D"/>
<path opacity="0.2" d="M330.679 345.93C327.744 346.887 324.605 347.025 321.597 346.331C321.597 346.331 347.117 432.66 347.026 400.899C347.026 376.578 352.911 369.267 361.175 360.661C346.518 371.71 334.33 352.584 330.679 345.93Z" fill="#292926"/>
<path d="M433.902 282.975C433.902 282.975 437.535 280.842 439.206 282.665C437.444 282.817 435.807 283.639 434.629 284.962L433.902 282.975Z" fill="#FF693D"/>
<path d="M429.38 277.505C430.249 276.137 431.565 275.114 433.102 274.612C434.639 274.11 436.302 274.16 437.807 274.752C436.417 274.847 435.096 275.401 434.052 276.328C433.007 277.254 432.297 278.502 432.032 279.875L429.38 277.505Z" fill="#FF693D"/>
<path d="M421.351 275.518C421.351 275.518 423.549 270.048 427.763 271.398C426.655 271.726 425.68 272.399 424.978 273.32C424.276 274.241 423.884 275.362 423.858 276.521L421.351 275.518Z" fill="#FF693D"/>
<g opacity="0.6">
<path d="M433.902 282.975C433.902 282.975 437.535 280.842 439.206 282.665C437.444 282.818 435.807 283.639 434.628 284.963L433.902 282.975Z" fill="#292926"/>
<path d="M429.379 277.506C430.249 276.137 431.564 275.115 433.102 274.613C434.639 274.111 436.302 274.16 437.807 274.753C436.416 274.848 435.096 275.402 434.051 276.328C433.007 277.255 432.296 278.502 432.031 279.876L429.379 277.506Z" fill="#292926"/>
<path d="M421.351 275.519C421.351 275.519 423.549 270.049 427.763 271.398C426.655 271.726 425.68 272.4 424.978 273.32C424.276 274.241 423.884 275.362 423.858 276.521L421.351 275.519Z" fill="#292926"/>
</g>
<path opacity="0.2" d="M427.763 282.684C427.763 282.684 420.498 283.45 417.119 288.154C417.21 288.154 417.81 279.639 427.763 282.684Z" fill="#292926"/>
<path d="M227.911 535.307C227.911 535.307 230.654 578.189 192.056 580.468C153.459 582.747 123.635 594.142 119.403 555.399C114.535 510.894 94.8821 536.929 98.9689 566.228C103.056 595.527 118.04 605.081 155.275 606.448C192.51 607.816 232.652 600.979 235.957 576.128L227.911 535.307Z" fill="#FF693D"/>
<path opacity="0.3" d="M118.676 550.056C113.718 518.606 100.022 532.207 98.5512 554.286C101.424 552.206 104.7 550.755 108.166 550.026C111.633 549.298 115.214 549.308 118.676 550.056Z" fill="#292926"/>
<path opacity="0.3" d="M119.512 556.202C113.681 556.676 104.872 558.572 98.86 565.318C98.86 565.646 98.86 565.956 98.969 566.266C99.4505 569.897 100.203 573.487 101.221 577.004C104.109 571.845 109.849 565.846 121.201 564.57C120.41 561.832 119.845 559.033 119.512 556.202Z" fill="#292926"/>
<g opacity="0.3">
<path d="M134.605 581.179C131.581 579.926 128.884 577.992 126.722 575.527C121.582 579.046 114.516 585.937 115.007 597.023C118.222 599.157 121.711 600.843 125.378 602.036C125.621 594.141 128.933 586.654 134.605 581.179Z" fill="#292926"/>
<path d="M162.014 606.614C160.742 601.253 159.162 591.809 160.996 583.313C156.964 583.641 153.15 583.823 149.59 583.769C146.762 590.836 146.129 598.596 147.774 606.03C150.189 606.212 152.678 606.358 155.293 606.45C157.473 606.541 159.761 606.595 162.014 606.614Z" fill="#292926"/>
<path d="M215.432 571.043C212.331 573.997 208.676 576.302 204.68 577.825C207.477 583.605 211.945 590.077 218.12 589.895C226.875 589.713 219.228 580.05 215.432 571.043Z" fill="#292926"/>
<path d="M185.881 601.161C191.62 600.978 189.749 589.237 188.914 580.686C184.754 580.978 180.722 581.361 176.799 581.762C177.671 588.872 180.032 601.343 185.881 601.161Z" fill="#292926"/>
</g>
<path opacity="0.1" d="M219.628 596.565C228.71 591.806 234.758 585.17 235.975 576.145L227.929 535.323C228.191 543.611 226.667 551.858 223.46 559.499C223.656 566.614 224.711 573.679 226.603 580.539C228.637 587.759 224.459 593.028 219.628 596.565Z" fill="#292926"/>
<path d="M257.536 482.907C257.536 482.907 306.577 466.498 328.972 490.819C351.368 515.141 314.95 581.451 331.37 584.095C347.79 586.738 396.123 575.362 403.352 585.918C405.277 588.688 406.709 591.772 407.584 595.034C407.896 596.305 407.915 597.632 407.64 598.912C407.364 600.192 406.801 601.392 405.993 602.421C405.186 603.449 404.155 604.279 402.98 604.848C401.804 605.416 400.515 605.707 399.21 605.7H300.964C300.964 605.7 295.043 605.7 298.985 597.787C298.912 597.787 212.872 573.228 257.536 482.907Z" fill="#FF693D"/>
<path opacity="0.2" d="M257.536 482.907C257.536 482.907 306.577 466.498 328.972 490.819C351.368 515.141 314.95 581.451 331.37 584.095C347.79 586.738 396.123 575.362 403.352 585.918C405.277 588.688 406.709 591.772 407.584 595.034C407.896 596.305 407.915 597.632 407.64 598.912C407.364 600.192 406.801 601.392 405.993 602.421C405.186 603.449 404.155 604.279 402.98 604.848C401.804 605.416 400.515 605.707 399.21 605.7H300.964C300.964 605.7 295.043 605.7 298.985 597.787C298.912 597.787 212.872 573.228 257.536 482.907Z" fill="#292926"/>
<path d="M280.44 297.56C280.44 297.56 283.473 279.018 286.797 277.195C290.121 275.372 290.43 292.09 292.9 294.515L280.44 297.56Z" fill="#FF693D"/>
<path opacity="0.2" d="M280.44 297.56C280.44 297.56 283.473 279.018 286.797 277.195C290.121 275.372 290.43 292.09 292.9 294.515L280.44 297.56Z" fill="#292926"/>
<path d="M322.106 299.002C321.831 298.333 321.725 297.607 321.798 296.887C322.052 294.772 324.104 293.86 325.939 293.386C326.611 293.222 326.32 292.165 325.648 292.329C324.53 292.468 323.475 292.927 322.608 293.651C321.742 294.375 321.101 295.334 320.762 296.413C320.574 297.474 320.713 298.569 321.162 299.549C321.471 300.187 322.397 299.549 322.106 299.002Z" fill="#FF693D"/>
<path d="M324.904 302.154C325.685 298.672 329.826 297.76 332.823 297.906C333.513 297.906 333.513 296.849 332.823 296.812C329.335 296.648 324.74 297.906 323.85 301.863C323.705 302.555 324.758 302.847 324.904 302.154Z" fill="#FF693D"/>
<path d="M326.792 304.691C327.973 302.704 331.006 303.451 332.677 304.126C333.331 304.381 333.603 303.323 332.968 303.068C330.77 302.193 327.319 301.701 325.847 304.126C325.773 304.251 325.751 304.402 325.787 304.544C325.823 304.685 325.913 304.807 326.038 304.882C326.163 304.957 326.313 304.979 326.455 304.943C326.596 304.907 326.717 304.817 326.792 304.691Z" fill="#FF693D"/>
<g opacity="0.5">
<path d="M322.106 299C321.831 298.332 321.725 297.605 321.798 296.885C322.052 294.77 324.104 293.859 325.939 293.385C326.611 293.221 326.32 292.163 325.648 292.327C324.53 292.467 323.475 292.926 322.608 293.65C321.742 294.374 321.101 295.332 320.762 296.411C320.574 297.473 320.713 298.567 321.162 299.547C321.471 300.185 322.397 299.547 322.106 299Z" fill="#292926"/>
<path d="M324.904 302.153C325.685 298.671 329.826 297.759 332.823 297.905C333.513 297.905 333.513 296.847 332.823 296.811C329.335 296.647 324.74 297.905 323.85 301.861C323.705 302.554 324.758 302.846 324.904 302.153Z" fill="#292926"/>
<path d="M326.793 304.691C327.973 302.704 331.007 303.451 332.678 304.126C333.332 304.381 333.604 303.323 332.968 303.068C330.771 302.193 327.319 301.701 325.848 304.126C325.774 304.251 325.752 304.402 325.788 304.544C325.823 304.685 325.914 304.807 326.039 304.882C326.164 304.957 326.314 304.979 326.455 304.943C326.597 304.907 326.718 304.817 326.793 304.691Z" fill="#292926"/>
</g>
<path d="M323.396 331.562C317.275 340.678 330.661 347.971 343.158 377.854C355.654 407.736 337.945 450.144 336.473 501.194C335.002 552.244 312.57 559.938 312.57 559.938L289.521 600.832C289.521 600.832 232.615 606.903 227.166 566.191C221.717 525.479 236.248 485.97 247.146 456.197C258.044 426.424 279.241 402.704 272.575 385.092C268.251 372.71 265.404 359.858 264.092 346.804C264.092 346.804 251.378 337.068 248.962 317.013C248.962 317.013 238.663 291.488 243.513 286.018C248.363 280.549 268.942 302.427 268.942 302.427C268.942 302.427 286.56 290.886 292.899 291.488C299.238 292.09 307.085 303.047 319.799 297.578C319.799 297.559 338.508 309.046 323.396 331.562Z" fill="#FF693D"/>
<path opacity="0.2" d="M336.473 501.196C337.944 450.146 355.708 407.701 343.157 377.856C330.606 348.01 317.311 340.699 323.396 331.564C338.507 309.048 319.763 297.58 319.763 297.58C319.018 297.89 318.292 298.145 317.583 298.364C315.313 299.913 313.315 301.809 313.478 303.651C313.805 307.808 316.112 311.345 308.592 321.354C298.385 334.937 312.897 356.396 323.904 370.727C334.911 385.057 339.216 382.122 340.251 406.717C341.504 435.287 321.325 470.201 314.822 492.864C309.373 511.989 301.345 549.274 305.159 572.775L312.425 560.012C312.425 560.012 335.002 552.246 336.473 501.196Z" fill="#292926"/>
<path opacity="0.6" d="M319.799 299.475C319.799 299.475 315.676 300.496 316.694 301.972C317.711 303.449 326.393 305.619 319.799 299.475Z" fill="#292926"/>
<path opacity="0.2" d="M258.352 313.369L266.072 306.076C266.072 306.076 250.397 286.021 245.638 288.756C240.879 291.491 255.846 294.462 258.352 313.369Z" fill="#292926"/>
<path opacity="0.2" d="M291.483 299.548C292.01 297.724 287.36 294.771 283.891 298.873C280.421 302.975 290.956 301.389 291.483 299.548Z" fill="#292926"/>
<path opacity="0.2" d="M296.441 296.594C295.46 297.141 292.808 294.151 294.516 292.473C296.223 290.796 297.44 296.028 296.441 296.594Z" fill="#292926"/>
<g opacity="0.6">
<path d="M311.099 310.323C306.05 309.721 301.345 313.13 298.512 316.959C298.094 317.543 299.039 318.071 299.457 317.524C302.072 313.969 306.449 310.851 311.099 311.417C311.789 311.417 311.789 310.396 311.099 310.323Z" fill="#292926"/>
<path d="M311.717 313.458C306.05 315.099 302.889 321.244 301.945 326.622C301.818 327.297 302.871 327.607 302.998 326.914C303.87 321.918 306.631 315.974 311.989 314.516C312.122 314.473 312.233 314.382 312.301 314.259C312.368 314.137 312.386 313.993 312.351 313.858C312.317 313.722 312.231 313.606 312.113 313.531C311.995 313.457 311.853 313.431 311.717 313.458Z" fill="#292926"/>
<path d="M314.804 315.589C313.516 317.121 312.544 318.895 311.946 320.807C311.347 322.72 311.133 324.733 311.317 326.729C311.317 327.422 312.425 327.422 312.407 326.729C312.225 324.87 312.41 322.994 312.953 321.207C313.495 319.421 314.383 317.76 315.567 316.319C316.057 315.826 315.295 315.042 314.804 315.553V315.589Z" fill="#292926"/>
</g>
<path opacity="0.2" d="M261.986 507.576L257.372 516.346L264.329 525.754L285.217 541.561C285.217 541.561 297.84 556.256 310.01 564.333L312.498 559.921C312.498 559.921 323.396 556.183 330.462 536.711C319.564 494.467 261.986 507.576 261.986 507.576Z" fill="#292926"/>
<path opacity="0.1" d="M343.575 441.174L311.026 425.185L298.911 411.802L297.095 420.918C297.095 420.918 296.841 464.019 324.34 468.322C330.697 469.343 335.474 467.866 339.525 467.228C340.796 458.185 342.249 449.488 343.575 441.174Z" fill="#292926"/>
<g opacity="0.3">
<path d="M266.181 361.19C280.566 360.789 302.707 343.961 286.796 346.805C279.352 348.168 271.763 348.56 264.219 347.972C264.437 350.123 265.036 355.028 266.181 361.19Z" fill="#292926"/>
<path d="M292.318 380.753C285.519 382.551 278.43 382.972 271.467 381.993C271.812 383.032 272.193 384.071 272.575 385.092C274.075 389.483 274.258 394.218 273.101 398.712C291.138 396.178 306.595 377.107 292.318 380.753Z" fill="#292926"/>
<path d="M273.065 481.102C256.609 482.396 246.528 475.869 241.642 471.438C239.717 476.908 237.791 482.742 235.975 488.704C269.741 498.112 296.078 479.315 273.065 481.102Z" fill="#292926"/>
<path d="M286.796 433.627C277.753 433.662 268.925 430.857 261.549 425.605C258.806 430.819 255.9 436.307 253.176 442.014C278.096 452.37 305.032 434.028 286.796 433.627Z" fill="#292926"/>
</g>
<path d="M299.62 303.78C300.474 305.421 300.274 307.226 299.129 307.736C297.985 308.247 296.55 307.426 295.697 305.749C294.843 304.072 295.061 302.285 296.205 301.774C297.349 301.264 298.784 302.084 299.62 303.78Z" fill="#292926"/>
<path d="M290.157 307.735C290.327 307.689 290.482 307.599 290.606 307.475C290.731 307.35 290.82 307.194 290.865 307.023C291.265 305.683 291.963 304.451 292.907 303.421C293.851 302.391 295.016 301.591 296.314 301.08C296.445 301.018 296.562 300.93 296.659 300.821C296.756 300.713 296.83 300.586 296.877 300.449C296.925 300.311 296.944 300.166 296.935 300.02C296.926 299.875 296.887 299.733 296.823 299.603C296.718 299.4 296.554 299.234 296.353 299.127C296.152 299.019 295.923 298.976 295.697 299.001C294.066 299.597 292.596 300.566 291.404 301.832C290.212 303.098 289.331 304.626 288.831 306.294C288.783 306.428 288.762 306.57 288.77 306.713C288.778 306.855 288.814 306.994 288.877 307.122C288.94 307.249 289.027 307.363 289.135 307.456C289.242 307.549 289.368 307.619 289.503 307.662C289.704 307.767 289.937 307.793 290.157 307.735Z" fill="#292926"/>
<path opacity="0.2" d="M346.572 420.208C341.832 413.79 336.982 387.39 336.982 387.39L334.803 382.54L329.808 393.023L333.894 419.715L345.174 430.819C345.701 427.209 346.191 423.672 346.572 420.208Z" fill="#292926"/>
<path d="M310.573 380.846C310.573 380.846 328.736 366.261 335.402 380.846C342.068 395.432 337.037 432.024 356.508 433.847C375.979 435.67 402.407 443.419 402.407 443.419C402.407 443.419 427.836 448.688 421.969 456.838C421.969 456.838 430.033 465.699 421.533 468.962C421.533 468.962 419.48 477.476 408.601 470.074C408.601 470.074 406.784 477.458 391.218 464.404C391.218 464.404 368.024 452.954 333.095 461.888C298.167 470.822 284.49 400.446 310.573 380.846Z" fill="#FF693D"/>
<path opacity="0.4" d="M421.968 456.765C427.908 448.615 402.406 443.346 402.406 443.346C390.855 440.057 379.142 437.367 367.315 435.288C363.518 436.181 359.268 438.004 357.706 441.778C355.127 448.087 364.554 454.048 365.952 458.625C381.809 459.7 391.218 464.331 391.218 464.331C406.765 477.386 408.6 470.001 408.6 470.001C419.498 477.404 421.532 468.889 421.532 468.889C430.033 465.626 421.968 456.765 421.968 456.765Z" fill="#292926"/>
<g opacity="0.2">
<path d="M409.945 461.067C409.945 461.067 417.428 462.891 419.716 467.12C419.644 467.12 419.226 459.335 409.945 461.067Z" fill="#292926"/>
<path d="M407.856 453.845C407.856 453.845 415.612 452.642 419.644 455.869C419.644 455.869 414.758 448.649 407.856 453.845Z" fill="#292926"/>
</g>
<path d="M242.097 512.08C242.097 512.08 289.321 495.671 311.717 519.993C334.112 544.314 310.409 583.276 326.829 585.92C343.249 588.564 380.683 575.363 387.912 585.92C389.838 588.69 391.27 591.774 392.145 595.036C392.457 596.307 392.476 597.634 392.2 598.914C391.925 600.194 391.362 601.394 390.554 602.423C389.747 603.451 388.716 604.281 387.541 604.85C386.365 605.418 385.076 605.709 383.771 605.702H285.453C285.453 605.702 279.531 605.702 283.473 597.789C283.473 597.789 197.433 602.402 242.097 512.08Z" fill="#FF693D"/>
<path opacity="0.3" d="M278.26 525.244C254.847 525.244 245.366 520.431 238.754 519.191C235.379 518.423 232.184 517.005 229.346 515.016C228.088 521.485 227.166 528.014 226.585 534.579C233.269 537.132 232.815 535.053 232.815 535.053C250.688 542.51 301.673 525.244 278.26 525.244Z" fill="#292926"/>
<g opacity="0.1">
<path d="M279.949 589.949C269.959 589.438 244.676 590.915 232.415 573.212C244.022 599.885 283.473 597.789 283.473 597.789C283.473 597.789 289.939 590.478 279.949 589.949Z" fill="#292926"/>
</g>
</svg>
