<?xml version="1.0" encoding="UTF-8"?>
<svg width="664" height="609" viewBox="0 0 664 609" fill="none" xmlns="http://www.w3.org/2000/svg">
<path d="M445.209 415.091C521.748 338.675 521.748 214.78 445.209 138.364C368.669 61.9475 244.574 61.9476 168.035 138.364C91.4955 214.78 91.4954 338.675 168.035 415.091C244.574 491.508 368.669 491.507 445.209 415.091Z" fill="#292926"/>
<path d="M249.181 122.222C250.716 122.222 252.233 122.222 253.75 122.332C228.733 123.468 205.117 134.19 187.816 152.267C170.515 170.343 160.86 194.384 160.86 219.387C160.86 244.389 170.515 268.43 187.816 286.507C205.117 304.584 228.733 315.305 253.75 316.441C252.233 316.441 250.716 316.569 249.181 316.569C223.367 316.569 198.611 306.331 180.358 288.108C162.105 269.884 151.85 245.168 151.85 219.396C151.85 193.624 162.105 168.907 180.358 150.684C198.611 132.46 223.367 122.222 249.181 122.222Z" fill="#292926"/>
<path d="M263.803 122.333H256.492V212.097H263.803V122.333Z" fill="#292926"/>
<path d="M263.803 226.696H256.492V316.46H263.803V226.696Z" fill="#292926"/>
<path d="M187.968 338.194H162.543C156.063 338.194 150.809 343.439 150.809 349.909V360.183C150.809 366.654 156.063 371.899 162.543 371.899H187.968C194.449 371.899 199.702 366.654 199.702 360.183V349.909C199.702 343.439 194.449 338.194 187.968 338.194Z" fill="#292926"/>
<path d="M52.6012 126.602H24.3983C17.9175 126.602 12.6638 131.847 12.6638 138.318V157.825C12.6638 164.296 17.9175 169.541 24.3983 169.541H52.6012C59.082 169.541 64.3357 164.296 64.3357 157.825V138.318C64.3357 131.847 59.082 126.602 52.6012 126.602Z" fill="#292926"/>
<path d="M124.251 126.602H85.4288C78.948 126.602 73.6943 131.847 73.6943 138.318V157.825C73.6943 164.296 78.948 169.541 85.4288 169.541H124.251C130.732 169.541 135.986 164.296 135.986 157.825V138.318C135.986 131.847 130.732 126.602 124.251 126.602Z" fill="#292926"/>
<path d="M104.675 176.458H65.8529C59.3721 176.458 54.1184 181.704 54.1184 188.174V207.682C54.1184 214.152 59.3721 219.397 65.8529 219.397H104.675C111.156 219.397 116.41 214.152 116.41 207.682V188.174C116.41 181.704 111.156 176.458 104.675 176.458Z" fill="#292926"/>
<path d="M580.634 223.484H528.669C522.189 223.484 516.935 228.729 516.935 235.199V254.707C516.935 261.177 522.189 266.423 528.669 266.423H580.634C587.115 266.423 592.368 261.177 592.368 254.707V235.199C592.368 228.729 587.115 223.484 580.634 223.484Z" fill="#292926"/>
<path d="M652.266 223.484H613.443C606.962 223.484 601.709 228.729 601.709 235.199V254.707C601.709 261.177 606.962 266.423 613.443 266.423H652.266C658.746 266.423 664 261.177 664 254.707V235.199C664 228.729 658.746 223.484 652.266 223.484Z" fill="#292926"/>
<path d="M616.24 273.323H577.417C570.937 273.323 565.683 278.568 565.683 285.038V304.546C565.683 311.016 570.937 316.262 577.417 316.262H616.24C622.721 316.262 627.974 311.016 627.974 304.546V285.038C627.974 278.568 622.721 273.323 616.24 273.323Z" fill="#292926"/>
<path d="M644.059 168.738H605.237C598.756 168.738 593.502 173.984 593.502 180.454V199.962C593.502 206.432 598.756 211.677 605.237 211.677H644.059C650.54 211.677 655.794 206.432 655.794 199.962V180.454C655.794 173.984 650.54 168.738 644.059 168.738Z" fill="#292926"/>
<path d="M653.307 376.262H404.836V607.307H653.307V376.262Z" fill="#292926"/>
<path opacity="0.2" d="M569.302 376.262H404.836V607.307H569.302V376.262Z" fill="#292926"/>
<path opacity="0.6" d="M653.307 376.262H404.836V607.307H653.307V376.262Z" fill="#292926"/>
<path d="M551.444 394.091H422.712V451.628H551.444V394.091Z" fill="#292926"/>
<path opacity="0.5" d="M551.444 394.091H422.712V451.628H551.444V394.091Z" fill="#292926"/>
<g opacity="0.4">
<path d="M538.485 445.642H435.69V444.274C435.692 443.529 435.547 442.792 435.264 442.103C434.98 441.415 434.563 440.789 434.036 440.262C433.51 439.735 432.885 439.316 432.196 439.031C431.507 438.745 430.769 438.598 430.023 438.598H428.653V407.065H430.023C430.769 407.065 431.507 406.918 432.196 406.633C432.885 406.347 433.51 405.929 434.036 405.402C434.563 404.874 434.98 404.249 435.264 403.56C435.547 402.872 435.692 402.134 435.69 401.39V400.021H538.485V401.39C538.485 402.895 539.084 404.338 540.15 405.403C541.216 406.467 542.662 407.065 544.169 407.065H545.54V438.671H544.169C542.662 438.671 541.216 439.269 540.15 440.334C539.084 441.398 538.485 442.842 538.485 444.347V445.642ZM438.358 442.905H535.853C536.144 441.171 536.97 439.572 538.215 438.329C539.46 437.086 541.062 436.262 542.799 435.971V409.693C541.062 409.402 539.46 408.578 538.215 407.335C536.97 406.092 536.144 404.492 535.853 402.758H438.322C438.034 404.49 437.212 406.09 435.97 407.333C434.728 408.576 433.128 409.401 431.394 409.693V436.044C433.128 436.335 434.728 437.16 435.97 438.404C437.212 439.647 438.034 441.246 438.322 442.978L438.358 442.905Z" fill="#292926"/>
</g>
<path d="M492.223 424.677H481.915C479.672 424.672 477.522 423.78 475.936 422.197C474.35 420.613 473.457 418.467 473.452 416.228V413.91H472.355C471.628 413.91 470.931 413.622 470.416 413.108C469.902 412.595 469.613 411.899 469.613 411.173C469.613 410.447 469.902 409.751 470.416 409.237C470.931 408.724 471.628 408.436 472.355 408.436H474.932C475.46 408.436 475.982 408.54 476.468 408.741C476.955 408.943 477.397 409.239 477.769 409.613C478.141 409.986 478.436 410.428 478.636 410.915C478.836 411.402 478.938 411.924 478.935 412.45V416.228C478.935 416.618 479.012 417.005 479.162 417.366C479.312 417.727 479.531 418.055 479.808 418.331C480.085 418.607 480.413 418.826 480.774 418.976C481.136 419.125 481.523 419.202 481.915 419.202H492.223C493.013 419.202 493.771 418.889 494.33 418.331C494.889 417.773 495.203 417.017 495.203 416.228V412.45C495.203 411.385 495.626 410.364 496.38 409.611C497.134 408.859 498.157 408.436 499.224 408.436H501.783C502.51 408.436 503.207 408.724 503.721 409.237C504.236 409.751 504.524 410.447 504.524 411.173C504.524 411.899 504.236 412.595 503.721 413.108C503.207 413.622 502.51 413.91 501.783 413.91H500.686V416.228C500.686 418.469 499.794 420.618 498.207 422.202C496.62 423.787 494.468 424.677 492.223 424.677Z" fill="#292926"/>
<path d="M551.444 461.901H422.712V519.439H551.444V461.901Z" fill="#292926"/>
<path opacity="0.5" d="M551.444 461.901H422.712V519.439H551.444V461.901Z" fill="#292926"/>
<g opacity="0.4">
<path d="M538.485 513.511H435.69V512.143C435.69 510.641 435.093 509.2 434.031 508.136C432.969 507.072 431.528 506.472 430.023 506.467H428.653V474.843H430.023C431.526 474.843 432.967 474.247 434.03 473.186C435.093 472.125 435.69 470.686 435.69 469.186V467.817H538.485V469.186C538.485 469.93 538.632 470.667 538.918 471.355C539.204 472.042 539.623 472.667 540.151 473.192C540.679 473.718 541.306 474.134 541.995 474.417C542.685 474.7 543.424 474.845 544.169 474.843H545.54V506.449H544.169C543.423 506.449 542.684 506.596 541.994 506.881C541.304 507.166 540.678 507.584 540.15 508.111C539.622 508.638 539.203 509.264 538.918 509.953C538.632 510.641 538.485 511.379 538.485 512.124V513.511ZM438.358 510.774H535.853C536.144 509.04 536.97 507.441 538.215 506.198C539.46 504.955 541.062 504.13 542.799 503.84V477.489C541.064 477.201 539.462 476.381 538.217 475.141C536.972 473.901 536.145 472.304 535.853 470.572H438.322C438.033 472.302 437.21 473.899 435.968 475.139C434.726 476.379 433.127 477.201 431.394 477.489V503.84C433.128 504.131 434.728 504.956 435.97 506.199C437.212 507.443 438.034 509.042 438.322 510.774H438.358Z" fill="#292926"/>
</g>
<path d="M492.223 492.467H481.915C479.67 492.467 477.518 491.577 475.93 489.993C474.343 488.408 473.452 486.259 473.452 484.018V481.701H472.355C471.628 481.701 470.931 481.412 470.416 480.899C469.902 480.386 469.613 479.689 469.613 478.963C469.613 478.237 469.902 477.541 470.416 477.028C470.931 476.514 471.628 476.226 472.355 476.226H474.932C475.996 476.231 477.014 476.656 477.764 477.408C478.514 478.161 478.935 479.179 478.935 480.241V483.963C478.935 484.752 479.249 485.509 479.808 486.067C480.367 486.625 481.124 486.938 481.915 486.938H492.223C493.013 486.938 493.771 486.625 494.33 486.067C494.889 485.509 495.203 484.752 495.203 483.963V480.314C495.207 479.25 495.633 478.232 496.386 477.48C497.139 476.728 498.159 476.304 499.224 476.299H501.783C502.51 476.299 503.207 476.587 503.721 477.101C504.236 477.614 504.524 478.31 504.524 479.036C504.524 479.762 504.236 480.459 503.721 480.972C503.207 481.485 502.51 481.774 501.783 481.774H500.686V483.963C500.693 485.078 500.48 486.182 500.058 487.214C499.636 488.245 499.013 489.183 498.227 489.973C497.44 490.764 496.505 491.391 495.475 491.819C494.444 492.247 493.339 492.467 492.223 492.467Z" fill="#292926"/>
<path d="M551.444 529.695H422.712V587.233H551.444V529.695Z" fill="#292926"/>
<path opacity="0.5" d="M551.444 529.695H422.712V587.233H551.444V529.695Z" fill="#292926"/>
<g opacity="0.4">
<path d="M538.485 581.304H435.69V579.935C435.69 578.435 435.093 576.996 434.03 575.935C432.967 574.874 431.526 574.278 430.023 574.278H428.653V542.671H430.023C431.528 542.667 432.969 542.067 434.031 541.003C435.093 539.939 435.69 538.498 435.69 536.996V535.627H538.485V536.996C538.485 538.501 539.084 539.945 540.15 541.009C541.216 542.073 542.662 542.671 544.17 542.671H545.54V574.278H544.17C543.424 574.275 542.685 574.42 541.996 574.703C541.306 574.986 540.679 575.403 540.151 575.928C539.623 576.454 539.204 577.078 538.918 577.766C538.632 578.453 538.485 579.19 538.485 579.935V581.304ZM438.358 578.566H535.853C536.145 576.835 536.972 575.238 538.217 573.998C539.462 572.758 541.064 571.937 542.799 571.65V545.299C541.062 545.008 539.46 544.184 538.215 542.941C536.97 541.698 536.144 540.098 535.853 538.365H438.322C438.034 540.097 437.212 541.696 435.97 542.939C434.728 544.182 433.128 545.007 431.394 545.299V571.65C433.127 571.938 434.726 572.76 435.968 574C437.21 575.24 438.033 576.836 438.322 578.566H438.358Z" fill="#292926"/>
</g>
<path d="M492.223 560.28H481.915C479.668 560.275 477.516 559.381 475.929 557.794C474.343 556.206 473.452 554.055 473.452 551.813V549.514H472.355C471.628 549.514 470.931 549.225 470.416 548.712C469.902 548.199 469.613 547.502 469.613 546.776C469.613 546.05 469.902 545.354 470.416 544.841C470.931 544.327 471.628 544.039 472.355 544.039H474.932C475.994 544.039 477.012 544.46 477.763 545.21C478.513 545.959 478.935 546.976 478.935 548.035V551.813C478.935 552.603 479.248 553.362 479.807 553.923C480.365 554.483 481.123 554.801 481.915 554.806H492.223C493.015 554.801 493.773 554.483 494.331 553.923C494.889 553.362 495.203 552.603 495.203 551.813V548.035C495.207 546.974 495.633 545.957 496.387 545.208C497.14 544.459 498.16 544.039 499.224 544.039H501.783C502.51 544.039 503.207 544.327 503.721 544.841C504.236 545.354 504.524 546.05 504.524 546.776C504.524 547.502 504.236 548.199 503.721 548.712C503.207 549.225 502.51 549.514 501.783 549.514H500.686V551.813C500.688 552.924 500.471 554.025 500.047 555.052C499.623 556.079 499 557.013 498.214 557.799C497.428 558.586 496.494 559.21 495.466 559.635C494.438 560.061 493.336 560.28 492.223 560.28Z" fill="#292926"/>
<path d="M575.845 308.012C594.361 308.012 612.017 322.994 615.289 341.48L621.394 376.152H554.368L548.245 341.48L575.845 308.012Z" fill="#1E293B"/>
<path d="M543.511 341.48C543.511 332.603 547.043 324.091 553.329 317.814C559.616 311.538 568.142 308.012 577.033 308.012C585.923 308.012 594.45 311.538 600.736 317.814C607.023 324.091 610.555 332.603 610.555 341.48V376.152H543.511V341.48Z" fill="#FF693D"/>
<path d="M543.511 341.48C543.511 332.603 547.043 324.091 553.329 317.814C559.616 311.538 568.142 308.012 577.033 308.012C585.923 308.012 594.45 311.538 600.736 317.814C607.023 324.091 610.555 332.603 610.555 341.48V376.152H543.511V341.48Z" fill="#292926"/>
<path d="M602.487 347.463C605.81 333.407 597.091 319.323 583.012 316.005C568.933 312.688 554.826 321.393 551.503 335.449C548.18 349.505 556.9 363.589 570.979 366.907C585.058 370.224 599.164 361.519 602.487 347.463Z" fill="#292926"/>
<path d="M602.487 347.463C605.81 333.407 597.091 319.323 583.012 316.005C568.933 312.688 554.826 321.393 551.503 335.449C548.18 349.505 556.9 363.589 570.979 366.907C585.058 370.224 599.164 361.519 602.487 347.463Z" fill="#FF693D"/>
<path opacity="0.2" d="M577.033 319.472C583.615 319.474 589.955 321.953 594.789 326.413C599.623 330.874 602.596 336.99 603.115 343.541C603.115 342.866 603.225 342.173 603.225 341.479C603.225 334.544 600.466 327.892 595.554 322.988C590.642 318.084 583.979 315.329 577.033 315.329C570.086 315.329 563.424 318.084 558.512 322.988C553.6 327.892 550.84 334.544 550.84 341.479C550.84 342.173 550.84 342.866 550.95 343.541C551.469 336.99 554.442 330.874 559.276 326.413C564.11 321.953 570.45 319.474 577.033 319.472Z" fill="#292926"/>
<path opacity="0.1" d="M593.574 341.462H579.811V327.721C579.704 327.072 579.37 326.482 578.868 326.056C578.366 325.63 577.728 325.396 577.069 325.396C576.41 325.396 575.773 325.63 575.271 326.056C574.768 326.482 574.434 327.072 574.328 327.721V344.236C574.328 344.972 574.62 345.677 575.141 346.198C575.662 346.718 576.369 347.01 577.106 347.01H593.647C594.298 346.904 594.889 346.57 595.316 346.069C595.742 345.567 595.976 344.931 595.976 344.273C595.976 343.615 595.742 342.978 595.316 342.477C594.889 341.976 594.298 341.642 593.647 341.535L593.574 341.462Z" fill="#292926"/>
<path d="M593.574 344.254C594.224 344.147 594.816 343.814 595.242 343.312C595.669 342.811 595.903 342.174 595.903 341.516C595.903 340.859 595.669 340.222 595.242 339.721C594.816 339.219 594.224 338.886 593.574 338.779H577.033C576.635 338.714 576.228 338.736 575.84 338.844C575.452 338.951 575.092 339.142 574.785 339.402C574.478 339.663 574.231 339.987 574.062 340.352C573.893 340.717 573.805 341.114 573.805 341.516C573.805 341.919 573.893 342.316 574.062 342.681C574.231 343.046 574.478 343.37 574.785 343.63C575.092 343.891 575.452 344.081 575.84 344.189C576.228 344.297 576.635 344.319 577.033 344.254H593.574Z" fill="#FF693D"/>
<path opacity="0.3" d="M593.574 344.254C594.224 344.147 594.816 343.814 595.242 343.312C595.669 342.811 595.903 342.174 595.903 341.516C595.903 340.859 595.669 340.222 595.242 339.721C594.816 339.219 594.224 338.886 593.574 338.779H577.033C576.635 338.714 576.228 338.736 575.84 338.844C575.452 338.951 575.092 339.142 574.785 339.402C574.478 339.663 574.231 339.987 574.062 340.352C573.893 340.717 573.805 341.114 573.805 341.516C573.805 341.919 573.893 342.316 574.062 342.681C574.231 343.046 574.478 343.37 574.785 343.63C575.092 343.891 575.452 344.081 575.84 344.189C576.228 344.297 576.635 344.319 577.033 344.254H593.574Z" fill="#292926"/>
<path d="M579.811 324.963C579.704 324.314 579.37 323.723 578.868 323.297C578.366 322.872 577.728 322.638 577.069 322.638C576.41 322.638 575.773 322.872 575.271 323.297C574.768 323.723 574.434 324.314 574.328 324.963V341.387C574.434 342.036 574.768 342.626 575.271 343.052C575.773 343.478 576.41 343.712 577.069 343.712C577.728 343.712 578.366 343.478 578.868 343.052C579.37 342.626 579.704 342.036 579.811 341.387V324.963Z" fill="#FF693D"/>
<path opacity="0.6" d="M579.811 324.963C579.704 324.314 579.37 323.723 578.868 323.297C578.366 322.872 577.728 322.638 577.069 322.638C576.41 322.638 575.773 322.872 575.271 323.297C574.768 323.723 574.434 324.314 574.328 324.963V341.387C574.434 342.036 574.768 342.626 575.271 343.052C575.773 343.478 576.41 343.712 577.069 343.712C577.728 343.712 578.366 343.478 578.868 343.052C579.37 342.626 579.704 342.036 579.811 341.387V324.963Z" fill="#292926"/>
<path d="M173.985 600.171V559.422C179.012 559.422 179.012 551.63 173.985 551.63C158.431 551.63 142.913 551.52 127.303 551.429V608H173.985C179.012 608.054 179.012 600.171 173.985 600.171Z" fill="#292926"/>
<path opacity="0.3" d="M173.985 600.171V559.422C179.012 559.422 179.012 551.63 173.985 551.63C158.431 551.63 142.913 551.52 127.303 551.429V608H173.985C179.012 608.054 179.012 600.171 173.985 600.171Z" fill="#292926"/>
<path d="M173.985 559.423H137.722V600.099H173.985V559.423Z" fill="#292926"/>
<path opacity="0.8" d="M173.985 559.423H137.722V600.099H173.985V559.423Z" fill="#292926"/>
<path d="M145.344 604.056H19.646C11.0005 604.056 4 593.198 4 579.786C4 566.373 11.0005 555.515 19.646 555.515H145.344V604.056Z" fill="#292926"/>
<path opacity="0.9" d="M147.344 553.515V606.056H19.6455C14.4153 606.056 9.95577 602.774 6.90039 598.035C3.83185 593.275 2 586.818 2 579.786C2.00002 572.753 3.83186 566.296 6.90039 561.537C9.95576 556.797 14.4153 553.515 19.6455 553.515H147.344Z" fill="#292926" stroke="#292926" stroke-width="4"/>
<path d="M165.742 545.863V513.363C166.527 513.302 167.261 512.949 167.796 512.372C168.331 511.795 168.629 511.038 168.629 510.251C168.629 509.465 168.331 508.708 167.796 508.131C167.261 507.554 166.527 507.2 165.742 507.14C153.349 507.14 140.92 507.049 128.51 506.976V552.086H165.742C166.527 552.026 167.261 551.672 167.796 551.095C168.331 550.518 168.629 549.761 168.629 548.975C168.629 548.188 168.331 547.431 167.796 546.854C167.261 546.277 166.527 545.923 165.742 545.863Z" fill="#292926"/>
<path opacity="0.3" d="M165.742 545.863V513.363C166.527 513.302 167.261 512.949 167.796 512.372C168.331 511.795 168.629 511.038 168.629 510.251C168.629 509.465 168.331 508.708 167.796 508.131C167.261 507.554 166.527 507.2 165.742 507.14C153.349 507.14 140.92 507.049 128.51 506.976V552.086H165.742C166.527 552.026 167.261 551.672 167.796 551.095C168.331 550.518 168.629 549.761 168.629 548.975C168.629 548.188 168.331 547.431 167.796 546.854C167.261 546.277 166.527 545.923 165.742 545.863Z" fill="#292926"/>
<path d="M165.76 513.364H136.826V545.828H165.76V513.364Z" fill="#292926"/>
<path opacity="0.8" d="M165.76 513.364H136.826V545.828H165.76V513.364Z" fill="#292926"/>
<path d="M142.894 548.966H42.6028C35.712 548.966 30.119 540.298 30.119 529.604C30.119 518.911 35.712 510.243 42.6028 510.243H142.894V548.966Z" fill="#292926"/>
<path opacity="0.9" d="M142.894 548.966H42.6028C35.712 548.966 30.119 540.298 30.119 529.604C30.119 518.911 35.712 510.243 42.6028 510.243H142.894V548.966Z" fill="#292926"/>
<path d="M142.894 507.141C109.994 507.141 77.0933 506.538 44.3392 507.141C21.8572 507.542 20.5778 550.572 42.7124 552.087C58.0842 553.127 73.8947 552.087 89.303 552.087H142.894C143.679 552.027 144.413 551.673 144.948 551.096C145.483 550.519 145.781 549.762 145.781 548.975C145.781 548.189 145.483 547.432 144.948 546.855C144.413 546.278 143.679 545.924 142.894 545.864H49.5301C42.3286 545.864 37.1742 545.773 34.3959 537.287C31.9833 529.988 32.7509 514.969 42.6028 513.363C43.7281 513.272 44.8589 513.272 45.9842 513.363H142.858C143.643 513.303 144.376 512.949 144.912 512.373C145.447 511.796 145.744 511.038 145.744 510.252C145.744 509.466 145.447 508.708 144.912 508.131C144.376 507.555 143.643 507.201 142.858 507.141H142.894Z" fill="#292926"/>
<path d="M151.923 456.593C151.876 454.159 150.875 451.841 149.136 450.136C147.397 448.43 145.058 447.473 142.62 447.468H87.1096C84.6733 447.477 82.3368 448.436 80.5988 450.141C78.8607 451.845 77.8585 454.161 77.8061 456.593V457.268C75.8123 456.609 73.7281 456.265 71.6282 456.246C62.4892 456.246 56.4026 463.344 56.4026 473.91C56.4026 484.002 67.0404 491.557 76.5084 491.557C77.4721 491.553 78.4332 491.455 79.378 491.265C81.5883 498.052 85.6371 504.097 91.0759 508.729H138.599C142.871 505.126 146.304 500.635 148.656 495.569C151.008 490.504 152.223 484.987 152.216 479.403C152.216 475.717 152.106 467.122 151.923 456.593ZM76.5632 485.644C70.1111 485.644 62.3247 480.407 62.3247 473.91C62.3247 471.155 63.0009 462.158 71.6282 462.158C73.7249 462.199 75.7906 462.672 77.6964 463.545C77.5868 470.845 77.5137 476.593 77.5137 479.403C77.5281 481.459 77.7115 483.509 78.062 485.535C77.5655 485.603 77.0644 485.634 76.5632 485.626V485.644Z" fill="#FF693D"/>
<path opacity="0.2" d="M151.923 456.593C151.876 454.159 150.875 451.841 149.136 450.136C147.397 448.43 145.058 447.473 142.62 447.468H87.1096C84.6733 447.477 82.3368 448.436 80.5988 450.141C78.8607 451.845 77.8585 454.161 77.8061 456.593V457.268C75.8123 456.609 73.7281 456.265 71.6282 456.246C62.4892 456.246 56.4026 463.344 56.4026 473.91C56.4026 484.002 67.0404 491.557 76.5084 491.557C77.4721 491.553 78.4332 491.455 79.378 491.265C81.5883 498.052 85.6371 504.097 91.0759 508.729H138.599C142.871 505.126 146.304 500.635 148.656 495.569C151.008 490.504 152.223 484.987 152.216 479.403C152.216 475.717 152.106 467.122 151.923 456.593ZM76.5632 485.644C70.1111 485.644 62.3247 480.407 62.3247 473.91C62.3247 471.155 63.0009 462.158 71.6282 462.158C73.7249 462.199 75.7906 462.672 77.6964 463.545C77.5868 470.845 77.5137 476.593 77.5137 479.403C77.5281 481.459 77.7115 483.509 78.062 485.535C77.5655 485.603 77.0644 485.634 76.5632 485.626V485.644Z" fill="#292926"/>
<path opacity="0.9" d="M129.277 471.704L122.313 456.284L117.926 466.047C116.344 465.828 114.738 465.828 113.156 466.047L108.751 456.284L101.787 471.704C99.5963 474.079 98.3655 477.18 98.3323 480.409C98.3323 488.42 106.046 494.916 115.532 494.916C125.018 494.916 132.731 488.42 132.731 480.409C132.698 477.18 131.467 474.079 129.277 471.704ZM107.892 477.744C107.892 476.558 108.586 475.609 109.464 475.609C110.341 475.609 111.054 476.558 111.054 477.744C111.054 478.931 110.341 479.898 109.464 479.898C108.586 479.898 107.892 478.931 107.892 477.744ZM117.963 486.102C117.063 486.095 116.198 485.758 115.532 485.153C114.876 485.762 114.015 486.102 113.119 486.102C112.15 486.102 111.22 485.718 110.534 485.033C109.849 484.349 109.464 483.421 109.464 482.453H110.981C110.973 482.911 111.118 483.359 111.392 483.727C111.667 484.095 112.055 484.362 112.497 484.487C112.939 484.612 113.409 484.587 113.836 484.417C114.263 484.248 114.621 483.942 114.856 483.548L115.495 482.507L116.153 483.548C116.392 483.933 116.749 484.23 117.172 484.394C117.595 484.558 118.06 484.579 118.496 484.456C118.933 484.332 119.316 484.069 119.59 483.708C119.863 483.346 120.01 482.906 120.01 482.453H121.545C121.546 483.408 121.17 484.325 120.501 485.008C119.831 485.69 118.92 486.083 117.963 486.102ZM121.618 479.898C120.741 479.898 120.047 478.931 120.047 477.744C120.047 476.558 120.741 475.609 121.618 475.609C122.496 475.609 123.209 476.558 123.209 477.744C123.209 478.931 122.477 479.898 121.6 479.898H121.618Z" fill="#292926"/>
<path d="M503.101 308.202C518.509 287.36 544.007 257.718 573.059 244.298L513.884 197.367C509.679 230.495 489.695 264.548 474.954 285.804C458.436 285.073 438.949 295.872 425.084 315.265C405.79 342.263 421.994 351.468 439.932 365.681C457.869 379.893 470.757 393.75 490.051 366.752C503.886 347.39 508.339 324.714 503.101 308.202Z" fill="#FF693D"/>
<path opacity="0.5" d="M503.101 308.202C518.509 287.36 544.007 257.718 573.059 244.298L513.884 197.367C509.679 230.495 489.695 264.548 474.954 285.804C458.436 285.073 438.949 295.872 425.084 315.265C405.79 342.263 421.994 351.468 439.932 365.681C457.869 379.893 470.757 393.75 490.051 366.752C503.886 347.39 508.339 324.714 503.101 308.202Z" fill="#292926"/>
<path opacity="0.4" d="M485.689 363.399C497.829 346.435 502.615 325.567 497.826 310.436L496.844 307.367L498.818 304.686C513.028 285.416 542.094 255.551 567.329 239.786L519.487 201.854C512.097 231.819 492.818 269.483 479.237 289.215L477.36 291.953L474.274 291.818C459.139 291.14 441.455 301.694 429.366 318.784C423.856 326.507 421.422 332.633 421.972 337.468C422.753 344.758 430.454 350.753 439.371 357.681C442.011 359.727 444.771 361.924 447.374 364.02C456.164 371.137 463.774 377.27 470.624 376.057C475.235 375.27 480.161 371.116 485.689 363.399Z" fill="#292926"/>
<path d="M497.824 310.441L496.843 307.372L498.816 304.691C504.815 296.75 511.242 289.183 518.061 282.034C514.212 282.284 508.43 281.748 505.042 276.632C501.178 270.745 493.464 271.71 489.666 272.62C486.052 278.937 482.532 284.625 479.298 289.264L477.421 292.002L474.335 291.867C459.2 291.189 441.517 301.743 429.428 318.832C423.918 326.556 421.484 332.681 422.034 337.516C422.815 344.806 430.515 350.801 439.432 357.729C442.072 359.775 444.833 361.972 447.435 364.068C456.225 371.184 463.835 377.318 470.685 376.104C475.292 375.274 480.321 371.051 485.746 363.403C497.855 346.364 502.613 325.571 497.824 310.441Z" fill="#FF693D"/>
<path opacity="0.3" d="M497.824 310.441L496.843 307.372L498.816 304.691C504.815 296.75 511.242 289.183 518.061 282.034C514.212 282.284 508.43 281.748 505.042 276.632C501.178 270.745 493.464 271.71 489.666 272.62C486.052 278.937 482.532 284.625 479.298 289.264L477.421 292.002L474.335 291.867C459.2 291.189 441.517 301.743 429.428 318.832C423.918 326.556 421.484 332.681 422.034 337.516C422.815 344.806 430.515 350.801 439.432 357.729C442.072 359.775 444.833 361.972 447.435 364.068C456.225 371.184 463.835 377.318 470.685 376.104C475.292 375.274 480.321 371.051 485.746 363.403C497.855 346.364 502.613 325.571 497.824 310.441Z" fill="#292926"/>
<path opacity="0.5" d="M488.388 282.51C499.116 267.174 507.894 250.444 514.468 232.8C524.459 205.1 528.556 249.506 488.388 282.51Z" fill="#292926"/>
<path opacity="0.5" d="M524.855 218.829C524.097 220.477 519.145 222.357 520.873 213.262C522.601 204.168 525.62 217.162 524.855 218.829Z" fill="#292926"/>
<g opacity="0.2">
<path d="M433.356 335.093C432.967 334.438 432.363 333.968 431.653 333.771C430.943 333.573 430.175 333.661 429.487 334.017C428.8 334.374 428.24 334.976 427.909 335.713C427.579 336.451 427.499 337.275 427.685 338.036C428.844 342.108 432.18 347.311 439.941 353.456C460.397 369.668 468.349 377.633 481.028 363.561C492.939 350.258 454.818 373.263 433.356 335.093Z" fill="#292926"/>
<path d="M431.467 326.801C429.525 324.708 430.026 322.006 437.066 315.798C444.107 309.591 435.798 331.468 431.467 326.801Z" fill="#292926"/>
</g>
<path d="M455.682 343.46C470.621 322.301 486.599 301.979 503.541 282.589C535.806 245.145 571.735 208.493 613.612 183.91C614.892 183.178 614.113 180.994 612.826 181.745C571.975 205.76 536.883 241.027 505.124 277.459C486.943 297.98 469.846 319.564 453.922 342.096C453.737 342.354 453.651 342.675 453.683 342.987C453.715 343.299 453.862 343.577 454.092 343.76C454.322 343.942 454.617 344.015 454.91 343.961C455.204 343.907 455.473 343.731 455.658 343.473L455.682 343.46Z" fill="#FF693D"/>
<g opacity="0.3">
<path d="M455.682 343.455C470.621 322.297 486.598 301.976 503.54 282.588C535.805 245.145 571.734 208.496 613.612 183.915C614.892 183.183 614.113 180.999 612.825 181.75C571.974 205.763 536.882 241.027 505.123 277.457C486.943 297.977 469.845 319.559 453.921 342.09C453.736 342.349 453.65 342.67 453.682 342.982C453.714 343.294 453.862 343.572 454.092 343.755C454.322 343.937 454.617 344.01 454.91 343.956C455.204 343.902 455.473 343.726 455.658 343.467L455.682 343.455Z" fill="#292926"/>
</g>
<path d="M614.929 179.329C614.929 179.329 602.379 173.606 604.638 182.606C606.897 191.607 616.731 184.147 616.731 184.147C616.731 184.147 609.668 197.183 616.5 201.346C623.331 205.509 622.86 185.599 622.86 185.599C622.86 185.599 627.782 201.376 633.923 196.509C640.063 191.642 625.634 179.341 625.634 179.341C625.634 179.341 641.347 187.172 639.289 180.017C637.231 172.863 622.385 172.994 622.385 172.994C622.385 172.994 631.554 163.307 623.98 158.618C616.406 153.93 617.296 171.15 617.296 171.15C617.296 171.15 611.633 156.921 606.182 159.795C600.731 162.669 614.929 179.329 614.929 179.329Z" fill="#FF693D"/>
<path d="M558.762 223.738C558.762 223.738 574.299 212.404 581.336 186.175C588.374 159.947 558.762 223.738 558.762 223.738Z" fill="#FF693D"/>
<path d="M577.71 207.485C577.71 207.485 598.136 196.454 602.873 207.889C607.609 219.324 590.783 203.679 577.71 207.485Z" fill="#FF693D"/>
<path opacity="0.6" d="M622.201 182.819C620.825 183.495 618.869 181.761 617.781 178.931C616.693 176.102 616.988 173.325 618.337 172.724C619.686 172.123 621.669 173.782 622.757 176.612C623.845 179.441 623.571 182.162 622.201 182.819Z" fill="#292926"/>
<path d="M466.374 330.573C481.549 309.597 495.675 287.804 508.685 265.293C533.952 222.232 557.427 175.765 568.276 126.646C568.611 125.144 570.772 125.414 570.464 126.84C559.87 174.834 537.374 220.117 512.937 262.347C499.207 286.392 484.208 309.63 468.018 331.938C467.823 332.157 467.565 332.296 467.292 332.329C467.019 332.362 466.75 332.286 466.537 332.116C466.325 331.947 466.183 331.695 466.139 331.409C466.095 331.123 466.151 330.824 466.298 330.567L466.374 330.573Z" fill="#FF693D"/>
<g opacity="0.3">
<path d="M466.375 330.572C481.55 309.596 495.676 287.803 508.686 265.292C533.954 222.232 557.428 175.765 568.276 126.646C568.611 125.144 570.772 125.414 570.464 126.841C559.872 174.834 537.375 220.117 512.938 262.346C499.208 286.391 484.209 309.628 468.018 331.936C467.824 332.155 467.565 332.294 467.292 332.327C467.019 332.36 466.751 332.285 466.538 332.115C466.325 331.945 466.183 331.694 466.139 331.408C466.095 331.122 466.152 330.822 466.299 330.566L466.375 330.572Z" fill="#292926"/>
</g>
<path d="M572.058 123.971C572.058 123.971 580.747 135.087 571.925 135.308C563.102 135.529 567.174 123.483 567.174 123.483C567.174 123.483 557.228 134.233 551.537 128.497C545.846 122.76 564.139 117.726 564.139 117.726C564.139 117.726 548.365 117.094 551.13 109.53C553.895 101.966 569.075 113.17 569.075 113.17C569.075 113.17 557.609 99.4235 564.694 99.5346C571.78 99.6457 575.757 114.652 575.757 114.652C575.757 114.652 582.075 102.693 588.44 109.037C594.805 115.381 578.869 119.24 578.869 119.24C578.869 119.24 593.421 121.031 592.297 127.353C591.174 133.675 572.058 123.971 572.058 123.971Z" fill="#FF693D"/>
<path opacity="0.5" d="M572.058 123.971C572.058 123.971 580.747 135.087 571.925 135.308C563.102 135.529 567.174 123.483 567.174 123.483C567.174 123.483 557.228 134.233 551.537 128.497C545.846 122.76 564.139 117.726 564.139 117.726C564.139 117.726 548.365 117.094 551.13 109.53C553.895 101.966 569.075 113.17 569.075 113.17C569.075 113.17 557.609 99.4235 564.694 99.5346C571.78 99.6457 575.757 114.652 575.757 114.652C575.757 114.652 582.075 102.693 588.44 109.037C594.805 115.381 578.869 119.24 578.869 119.24C578.869 119.24 593.421 121.031 592.297 127.353C591.174 133.675 572.058 123.971 572.058 123.971Z" fill="#292926"/>
<path d="M547.066 193.111C547.066 193.111 553.126 174.243 575.087 159.875C597.047 145.507 547.066 193.111 547.066 193.111Z" fill="#FF693D"/>
<path d="M556.632 169.466C556.632 169.466 561.038 145.748 549.259 144.042C537.479 142.337 556.614 155.082 556.632 169.466Z" fill="#FF693D"/>
<path d="M566.858 117.581C566.63 119.164 568.751 120.659 571.605 120.946C574.46 121.233 576.934 120.164 577.128 118.675C577.322 117.186 575.235 115.597 572.391 115.335C569.547 115.073 567.073 116.035 566.858 117.581Z" fill="#FF693D"/>
<path d="M589.063 243.414C589.146 243.062 589.343 242.746 589.618 242.524C589.893 242.301 590.227 242.188 590.56 242.205C590.892 242.221 591.2 242.367 591.428 242.614C591.655 242.861 591.787 243.194 591.798 243.551C591.891 246.138 591.402 248.75 590.373 251.168C589.343 253.587 587.802 255.741 585.879 257.451C582.813 260.342 579.574 263.009 576.185 265.432C575.977 265.571 575.733 265.627 575.5 265.587C575.267 265.547 575.062 265.415 574.924 265.216C574.786 265.017 574.724 264.765 574.752 264.51C574.78 264.254 574.895 264.013 575.075 263.833C580.88 258.288 586.913 251.053 589.063 243.414Z" fill="#FF693D"/>
<path d="M568.315 278.114C575.102 275.607 581.601 272.158 587.641 267.856C587.898 267.662 588.205 267.568 588.508 267.592C588.81 267.616 589.088 267.756 589.291 267.987C589.493 268.218 589.608 268.525 589.613 268.851C589.618 269.178 589.513 269.503 589.318 269.767C585.936 274.331 579.668 279.814 568.749 281.027C568.426 281.026 568.119 280.907 567.88 280.689C567.641 280.472 567.483 280.169 567.433 279.83C567.382 279.491 567.442 279.136 567.602 278.824C567.762 278.512 568.014 278.262 568.315 278.114Z" fill="#FF693D"/>
<path d="M323.482 346.645C323.482 346.645 333.534 349.929 345.817 338.25C358.1 326.571 382.666 300.366 392.719 296.461C402.771 292.556 412.276 279.18 420.647 275.84C429.019 272.501 427.465 277.519 427.465 277.519C427.465 277.519 437.993 273.468 436.275 281.424C436.275 281.424 441.667 283.651 436.458 288.103C431.249 292.556 413.391 306.498 407.213 307.611C407.213 307.611 383.744 337.721 371.461 352.229C359.178 366.736 348.961 369.474 349.052 401.263C349.144 433.052 323.482 346.645 323.482 346.645Z" fill="#FF693D"/>
<path opacity="0.2" d="M332.602 346.242C329.648 347.199 326.489 347.338 323.463 346.643C323.463 346.643 349.143 433.05 349.052 401.261C349.052 376.917 354.974 369.6 363.29 360.987C348.54 372.045 336.275 352.902 332.602 346.242Z" fill="#292926"/>
<path d="M436.476 283.23C436.476 283.23 440.131 281.095 441.813 282.92C440.04 283.072 438.393 283.895 437.207 285.219L436.476 283.23Z" fill="#FF693D"/>
<path d="M431.925 277.756C432.799 276.386 434.124 275.363 435.67 274.86C437.217 274.357 438.891 274.407 440.406 275C439.006 275.095 437.677 275.65 436.626 276.577C435.575 277.505 434.86 278.753 434.593 280.128L431.925 277.756Z" fill="#FF693D"/>
<path d="M423.846 275.767C423.846 275.767 426.058 270.292 430.298 271.642C429.183 271.971 428.202 272.645 427.495 273.566C426.789 274.488 426.394 275.61 426.368 276.77L423.846 275.767Z" fill="#FF693D"/>
<g opacity="0.6">
<path d="M436.476 283.231C436.476 283.231 440.131 281.096 441.813 282.92C440.04 283.073 438.392 283.895 437.207 285.22L436.476 283.231Z" fill="#292926"/>
<path d="M431.925 277.756C432.799 276.387 434.123 275.363 435.67 274.861C437.217 274.358 438.891 274.407 440.406 275.001C439.006 275.096 437.677 275.65 436.626 276.578C435.575 277.505 434.86 278.753 434.593 280.128L431.925 277.756Z" fill="#292926"/>
<path d="M423.846 275.767C423.846 275.767 426.057 270.293 430.298 271.643C429.183 271.971 428.201 272.645 427.495 273.567C426.789 274.489 426.394 275.611 426.368 276.771L423.846 275.767Z" fill="#292926"/>
</g>
<path opacity="0.2" d="M430.298 282.939C430.298 282.939 422.987 283.706 419.587 288.414C419.679 288.414 420.282 279.892 430.298 282.939Z" fill="#292926"/>
<path d="M229.185 535.79C229.185 535.79 231.945 578.71 193.104 580.991C154.264 583.272 124.251 594.678 119.992 555.9C115.094 511.355 95.3171 537.414 99.4296 566.739C103.542 596.065 118.622 605.627 156.091 606.996C193.561 608.364 233.956 601.521 237.282 576.648L229.185 535.79Z" fill="#FF693D"/>
<path opacity="0.3" d="M119.261 550.552C114.271 519.073 100.49 532.687 99.0093 554.786C101.9 552.704 105.197 551.252 108.685 550.523C112.174 549.793 115.777 549.803 119.261 550.552Z" fill="#292926"/>
<path opacity="0.3" d="M120.102 556.704C114.235 557.178 105.37 559.076 99.3201 565.828C99.3201 566.156 99.3201 566.467 99.4297 566.777C99.9143 570.411 100.672 574.004 101.696 577.525C104.602 572.361 110.378 566.357 121.802 565.08C121.006 562.339 120.438 559.537 120.102 556.704Z" fill="#292926"/>
<g opacity="0.3">
<path d="M135.291 581.704C132.247 580.45 129.533 578.514 127.358 576.047C122.185 579.569 115.075 586.467 115.569 597.562C118.804 599.698 122.315 601.386 126.005 602.58C126.25 594.678 129.582 587.184 135.291 581.704Z" fill="#292926"/>
<path d="M162.872 607.161C161.593 601.796 160.002 592.344 161.849 583.84C157.791 584.168 153.952 584.351 150.37 584.296C147.524 591.369 146.887 599.136 148.542 606.578C150.973 606.76 153.477 606.906 156.109 606.997C158.303 607.089 160.606 607.143 162.872 607.161Z" fill="#292926"/>
<path d="M216.628 571.558C213.507 574.514 209.829 576.822 205.807 578.347C208.622 584.131 213.118 590.61 219.333 590.427C228.143 590.245 220.448 580.573 216.628 571.558Z" fill="#292926"/>
<path d="M186.89 601.703C192.665 601.521 190.783 589.769 189.942 581.21C185.756 581.502 181.699 581.885 177.751 582.287C178.628 589.404 181.004 601.886 186.89 601.703Z" fill="#292926"/>
</g>
<path opacity="0.1" d="M220.85 597.103C229.989 592.34 236.075 585.698 237.3 576.665L229.203 535.806C229.467 544.101 227.934 552.355 224.707 560.004C224.904 567.125 225.965 574.196 227.869 581.063C229.916 588.289 225.712 593.563 220.85 597.103Z" fill="#292926"/>
<path d="M258.997 483.342C258.997 483.342 308.347 466.918 330.884 491.262C353.421 515.605 316.774 581.975 333.297 584.622C349.82 587.268 398.458 575.88 405.733 586.446C407.67 589.219 409.112 592.306 409.991 595.571C410.306 596.843 410.325 598.171 410.048 599.452C409.77 600.733 409.204 601.935 408.391 602.964C407.578 603.994 406.541 604.824 405.358 605.393C404.175 605.962 402.878 606.254 401.565 606.246H302.699C302.699 606.246 296.741 606.246 300.707 598.326C300.634 598.326 214.051 573.745 258.997 483.342Z" fill="#FF693D"/>
<path opacity="0.2" d="M258.997 483.342C258.997 483.342 308.347 466.918 330.884 491.262C353.421 515.605 316.774 581.975 333.297 584.622C349.82 587.268 398.458 575.88 405.733 586.446C407.67 589.219 409.112 592.306 409.991 595.571C410.306 596.843 410.325 598.171 410.048 599.452C409.77 600.733 409.204 601.935 408.391 602.964C407.578 603.994 406.541 604.824 405.358 605.393C404.175 605.962 402.878 606.254 401.565 606.246H302.699C302.699 606.246 296.741 606.246 300.707 598.326C300.634 598.326 214.051 573.745 258.997 483.342Z" fill="#292926"/>
<path d="M282.045 297.829C282.045 297.829 285.098 279.27 288.443 277.445C291.788 275.62 292.098 292.354 294.584 294.781L282.045 297.829Z" fill="#FF693D"/>
<path opacity="0.2" d="M282.045 297.829C282.045 297.829 285.098 279.27 288.443 277.445C291.788 275.62 292.098 292.354 294.584 294.781L282.045 297.829Z" fill="#292926"/>
<path d="M323.975 299.271C323.698 298.602 323.591 297.875 323.664 297.155C323.92 295.038 325.985 294.125 327.831 293.651C328.508 293.487 328.215 292.428 327.539 292.592C326.413 292.732 325.352 293.192 324.48 293.916C323.608 294.641 322.964 295.6 322.622 296.68C322.432 297.743 322.573 298.838 323.024 299.819C323.335 300.458 324.267 299.819 323.975 299.271Z" fill="#FF693D"/>
<path d="M326.79 302.427C327.576 298.941 331.743 298.029 334.759 298.175C335.453 298.175 335.453 297.116 334.759 297.08C331.249 296.916 326.625 298.175 325.73 302.135C325.583 302.828 326.643 303.12 326.79 302.427Z" fill="#FF693D"/>
<path d="M328.69 304.966C329.878 302.977 332.931 303.725 334.612 304.4C335.27 304.656 335.544 303.597 334.905 303.342C332.693 302.466 329.22 301.973 327.74 304.4C327.664 304.526 327.642 304.676 327.678 304.818C327.714 304.961 327.805 305.082 327.931 305.157C328.057 305.232 328.208 305.254 328.35 305.219C328.493 305.183 328.615 305.092 328.69 304.966Z" fill="#FF693D"/>
<g opacity="0.5">
<path d="M323.975 299.27C323.698 298.601 323.591 297.874 323.664 297.153C323.92 295.036 325.985 294.124 327.831 293.649C328.508 293.485 328.215 292.427 327.539 292.591C326.413 292.731 325.352 293.19 324.48 293.915C323.608 294.639 322.964 295.599 322.622 296.679C322.432 297.741 322.573 298.837 323.024 299.817C323.335 300.456 324.267 299.817 323.975 299.27Z" fill="#292926"/>
<path d="M326.79 302.425C327.576 298.94 331.743 298.027 334.759 298.173C335.453 298.173 335.453 297.115 334.759 297.078C331.249 296.914 326.625 298.173 325.73 302.133C325.583 302.827 326.643 303.119 326.79 302.425Z" fill="#292926"/>
<path d="M328.691 304.966C329.879 302.977 332.931 303.725 334.613 304.4C335.271 304.656 335.545 303.597 334.905 303.342C332.694 302.466 329.221 301.973 327.74 304.4C327.665 304.526 327.643 304.676 327.679 304.818C327.715 304.961 327.806 305.082 327.932 305.157C328.058 305.232 328.209 305.254 328.351 305.219C328.493 305.183 328.616 305.092 328.691 304.966Z" fill="#292926"/>
</g>
<path d="M325.272 331.861C319.113 340.986 332.584 348.285 345.159 378.195C357.734 408.104 339.913 450.55 338.433 501.646C336.952 552.742 314.379 560.443 314.379 560.443L291.184 601.374C291.184 601.374 233.919 607.451 228.436 566.702C222.952 525.953 237.575 486.408 248.541 456.609C259.508 426.809 280.839 403.067 274.131 385.439C269.78 373.047 266.914 360.183 265.595 347.117C265.595 347.117 252.8 337.373 250.369 317.299C250.369 317.299 240.006 291.751 244.886 286.277C249.766 280.802 270.475 302.7 270.475 302.7C270.475 302.7 288.205 291.149 294.584 291.751C300.963 292.353 308.859 303.321 321.653 297.846C321.653 297.828 340.48 309.324 325.272 331.861Z" fill="#FF693D"/>
<path opacity="0.2" d="M338.432 501.648C339.913 450.552 357.789 408.069 345.159 378.197C332.528 348.324 319.149 341.006 325.272 331.863C340.479 309.326 321.616 297.848 321.616 297.848C320.867 298.158 320.136 298.414 319.423 298.633C317.138 300.184 315.128 302.082 315.292 303.925C315.621 308.086 317.943 311.626 310.376 321.644C300.103 335.239 314.707 356.718 325.784 371.061C336.86 385.405 341.192 382.467 342.234 407.084C343.495 435.679 323.188 470.625 316.645 493.308C311.161 512.451 303.083 549.769 306.921 573.292L314.232 560.518C314.232 560.518 336.952 552.744 338.432 501.648Z" fill="#292926"/>
<path opacity="0.6" d="M321.653 299.745C321.653 299.745 317.504 300.767 318.528 302.245C319.551 303.723 328.288 305.894 321.653 299.745Z" fill="#292926"/>
<path opacity="0.2" d="M259.819 313.652L267.587 306.352C267.587 306.352 251.813 286.279 247.024 289.016C242.235 291.754 257.296 294.728 259.819 313.652Z" fill="#292926"/>
<path opacity="0.2" d="M293.158 299.818C293.688 297.993 289.009 295.037 285.518 299.142C282.027 303.248 292.628 301.661 293.158 299.818Z" fill="#292926"/>
<path opacity="0.2" d="M298.148 296.861C297.161 297.409 294.492 294.416 296.21 292.737C297.928 291.058 299.153 296.296 298.148 296.861Z" fill="#292926"/>
<g opacity="0.6">
<path d="M312.898 310.603C307.817 310 303.083 313.413 300.232 317.245C299.811 317.829 300.762 318.358 301.182 317.811C303.814 314.252 308.219 311.132 312.898 311.697C313.593 311.697 313.593 310.676 312.898 310.603Z" fill="#292926"/>
<path d="M313.52 313.741C307.817 315.384 304.637 321.533 303.686 326.917C303.558 327.592 304.618 327.902 304.746 327.209C305.624 322.208 308.402 316.259 313.794 314.8C313.927 314.757 314.04 314.665 314.107 314.543C314.175 314.42 314.193 314.276 314.158 314.141C314.123 314.005 314.037 313.888 313.919 313.814C313.8 313.74 313.657 313.714 313.52 313.741Z" fill="#292926"/>
<path d="M316.627 315.874C315.33 317.407 314.352 319.183 313.75 321.097C313.147 323.011 312.932 325.026 313.117 327.024C313.117 327.717 314.232 327.717 314.214 327.024C314.031 325.164 314.218 323.286 314.763 321.497C315.309 319.709 316.203 318.046 317.394 316.604C317.888 316.111 317.12 315.327 316.627 315.838V315.874Z" fill="#292926"/>
</g>
<path opacity="0.2" d="M263.475 508.034L258.832 516.812L265.833 526.228L286.852 542.049C286.852 542.049 299.556 556.758 311.802 564.842L314.306 560.426C314.306 560.426 325.273 556.685 332.383 537.195C321.416 494.913 263.475 508.034 263.475 508.034Z" fill="#292926"/>
<path opacity="0.1" d="M345.579 441.572L312.825 425.568L300.634 412.174L298.806 421.298C298.806 421.298 298.55 464.438 326.223 468.744C332.62 469.766 337.427 468.288 341.503 467.649C342.783 458.598 344.245 449.894 345.579 441.572Z" fill="#292926"/>
<g opacity="0.3">
<path d="M267.696 361.516C282.173 361.114 304.453 344.271 288.442 347.118C280.951 348.482 273.314 348.874 265.722 348.286C265.942 350.439 266.545 355.348 267.696 361.516Z" fill="#292926"/>
<path d="M293.999 381.097C287.156 382.896 280.023 383.318 273.016 382.338C273.363 383.378 273.747 384.418 274.131 385.44C275.64 389.834 275.825 394.574 274.661 399.072C292.811 396.535 308.365 377.447 293.999 381.097Z" fill="#292926"/>
<path d="M274.624 481.536C258.064 482.831 247.92 476.298 243.003 471.864C241.065 477.338 239.128 483.178 237.3 489.145C271.279 498.561 297.782 479.747 274.624 481.536Z" fill="#292926"/>
<path d="M288.442 434.018C279.342 434.053 270.458 431.245 263.036 425.989C260.276 431.208 257.351 436.701 254.609 442.412C279.687 452.778 306.793 434.42 288.442 434.018Z" fill="#292926"/>
</g>
<path d="M301.346 304.054C302.206 305.696 302.004 307.503 300.853 308.014C299.701 308.525 298.258 307.703 297.398 306.025C296.539 304.346 296.759 302.557 297.91 302.046C299.062 301.535 300.506 302.357 301.346 304.054Z" fill="#292926"/>
<path d="M291.824 308.012C291.995 307.967 292.151 307.877 292.276 307.752C292.401 307.627 292.491 307.472 292.536 307.301C292.939 305.959 293.641 304.726 294.591 303.695C295.541 302.665 296.714 301.863 298.02 301.352C298.152 301.289 298.27 301.201 298.367 301.093C298.464 300.984 298.539 300.858 298.587 300.72C298.634 300.582 298.654 300.437 298.645 300.291C298.635 300.146 298.597 300.004 298.532 299.874C298.426 299.671 298.261 299.504 298.059 299.397C297.856 299.289 297.626 299.246 297.398 299.271C295.757 299.868 294.278 300.838 293.079 302.105C291.879 303.372 290.993 304.901 290.489 306.571C290.441 306.705 290.42 306.847 290.428 306.99C290.436 307.132 290.472 307.271 290.536 307.399C290.599 307.527 290.687 307.64 290.795 307.733C290.904 307.826 291.03 307.896 291.166 307.939C291.368 308.045 291.603 308.071 291.824 308.012Z" fill="#292926"/>
<path opacity="0.2" d="M348.595 420.587C343.825 414.163 338.945 387.739 338.945 387.739L336.751 382.885L331.725 393.378L335.837 420.094L347.188 431.207C347.718 427.594 348.211 424.054 348.595 420.587Z" fill="#292926"/>
<path d="M312.368 381.19C312.368 381.19 330.646 366.591 337.354 381.19C344.062 395.789 338.999 432.414 358.593 434.239C378.187 436.063 404.782 443.819 404.782 443.819C404.782 443.819 430.371 449.093 424.467 457.25C424.467 457.25 432.583 466.119 424.029 469.385C424.029 469.385 421.963 477.907 411.015 470.498C411.015 470.498 409.187 477.889 393.523 464.823C393.523 464.823 370.182 453.363 335.033 462.305C299.884 471.247 286.121 400.807 312.368 381.19Z" fill="#FF693D"/>
<path opacity="0.4" d="M424.467 457.177C430.444 449.02 404.781 443.746 404.781 443.746C393.157 440.454 381.37 437.762 369.468 435.68C365.648 436.574 361.371 438.399 359.799 442.177C357.204 448.491 366.69 454.458 368.097 459.038C384.054 460.115 393.522 464.75 393.522 464.75C409.168 477.816 411.014 470.425 411.014 470.425C421.981 477.834 424.028 469.312 424.028 469.312C432.582 466.046 424.467 457.177 424.467 457.177Z" fill="#292926"/>
<g opacity="0.2">
<path d="M412.367 461.484C412.367 461.484 419.898 463.308 422.201 467.542C422.127 467.542 421.707 459.75 412.367 461.484Z" fill="#292926"/>
<path d="M410.265 454.255C410.265 454.255 418.07 453.05 422.128 456.28C422.128 456.28 417.211 449.054 410.265 454.255Z" fill="#292926"/>
</g>
<path d="M243.46 512.542C243.46 512.542 290.983 496.118 313.52 520.462C336.057 544.805 312.204 583.802 328.727 586.448C345.25 589.094 382.921 575.882 390.196 586.448C392.134 589.221 393.575 592.308 394.455 595.573C394.769 596.845 394.788 598.173 394.511 599.454C394.234 600.735 393.667 601.937 392.855 602.966C392.042 603.996 391.005 604.826 389.822 605.395C388.639 605.964 387.342 606.256 386.029 606.248H287.09C287.09 606.248 281.131 606.248 285.098 598.328C285.098 598.328 198.515 602.945 243.46 512.542Z" fill="#FF693D"/>
<path opacity="0.3" d="M279.852 525.718C256.291 525.718 246.75 520.901 240.097 519.66C236.7 518.891 233.485 517.472 230.629 515.481C229.363 521.955 228.436 528.491 227.851 535.062C234.577 537.616 234.12 535.536 234.12 535.536C252.106 543 303.412 525.718 279.852 525.718Z" fill="#292926"/>
<g opacity="0.1">
<path d="M281.551 590.481C271.498 589.97 246.056 591.448 233.718 573.729C245.398 600.427 285.097 598.328 285.097 598.328C285.097 598.328 291.604 591.01 281.551 590.481Z" fill="#292926"/>
</g>
</svg>
