<?xml version="1.0" encoding="UTF-8"?>
<svg width="663" height="613" viewBox="0 0 663 613" fill="none" xmlns="http://www.w3.org/2000/svg">
<path d="M444.926 414.717C520.985 338.37 520.985 214.586 444.926 138.239C368.866 61.8916 245.549 61.8917 169.489 138.239C93.4298 214.586 93.4298 338.37 169.489 414.717C245.549 491.064 368.866 491.064 444.926 414.717Z" fill="#292926"/>
<path d="M250.126 122.112C251.652 122.112 253.16 122.112 254.667 122.221C229.807 123.356 206.339 134.068 189.147 152.129C171.954 170.19 162.36 194.208 162.36 219.189C162.36 244.169 171.954 268.188 189.147 286.248C206.339 304.309 229.807 315.021 254.667 316.156C253.16 316.156 251.652 316.284 250.126 316.284C224.475 316.284 199.873 306.055 181.735 287.848C163.596 269.641 153.406 244.947 153.406 219.198C153.406 193.449 163.596 168.755 181.735 150.548C199.873 132.34 224.475 122.112 250.126 122.112Z" fill="#292926"/>
<path d="M264.657 122.222H257.392V211.906H264.657V122.222Z" fill="#292926"/>
<path d="M264.657 226.491H257.392V316.175H264.657V226.491Z" fill="#292926"/>
<path d="M189.298 337.889H164.032C157.592 337.889 152.371 343.13 152.371 349.594V359.859C152.371 366.323 157.592 371.564 164.032 371.564H189.298C195.738 371.564 200.958 366.323 200.958 359.859V349.594C200.958 343.13 195.738 337.889 189.298 337.889Z" fill="#292926"/>
<path d="M54.7793 126.488H26.7532C20.313 126.488 15.0923 131.728 15.0923 138.193V157.683C15.0923 164.147 20.313 169.388 26.7532 169.388H54.7793C61.2195 169.388 66.4402 164.147 66.4402 157.683V138.193C66.4402 131.728 61.2195 126.488 54.7793 126.488Z" fill="#292926"/>
<path d="M125.98 126.488H87.4011C80.961 126.488 75.7402 131.728 75.7402 138.193V157.683C75.7402 164.147 80.961 169.388 87.4011 169.388H125.98C132.42 169.388 137.641 164.147 137.641 157.683V138.193C137.641 131.728 132.42 126.488 125.98 126.488Z" fill="#292926"/>
<path d="M106.527 176.299H67.9478C61.5076 176.299 56.2869 181.54 56.2869 188.004V207.494C56.2869 213.959 61.5076 219.199 67.9478 219.199H106.527C112.967 219.199 118.188 213.959 118.188 207.494V188.004C118.188 181.54 112.967 176.299 106.527 176.299Z" fill="#292926"/>
<path d="M579.502 223.282H527.863C521.423 223.282 516.202 228.523 516.202 234.987V254.477C516.202 260.942 521.423 266.182 527.863 266.182H579.502C585.942 266.182 591.163 260.942 591.163 254.477V234.987C591.163 228.523 585.942 223.282 579.502 223.282Z" fill="#292926"/>
<path d="M650.684 223.282H612.105C605.665 223.282 600.444 228.523 600.444 234.987V254.477C600.444 260.942 605.665 266.182 612.105 266.182H650.684C657.124 266.182 662.345 260.942 662.345 254.477V234.987C662.345 228.523 657.124 223.282 650.684 223.282Z" fill="#292926"/>
<path d="M614.885 273.076H576.305C569.865 273.076 564.645 278.317 564.645 284.781V304.271C564.645 310.736 569.865 315.976 576.305 315.976H614.885C621.325 315.976 626.545 310.736 626.545 304.271V284.781C626.545 278.317 621.325 273.076 614.885 273.076Z" fill="#292926"/>
<path d="M642.529 168.586H603.95C597.51 168.586 592.289 173.826 592.289 180.291V199.781C592.289 206.246 597.51 211.486 603.95 211.486H642.529C648.969 211.486 654.19 206.246 654.19 199.781V180.291C654.19 173.826 648.969 168.586 642.529 168.586Z" fill="#292926"/>
<path d="M651.719 375.923H404.806V606.759H651.719V375.923Z" fill="#292926"/>
<path opacity="0.2" d="M568.24 375.923H404.806V606.759H568.24V375.923Z" fill="#292926"/>
<path opacity="0.6" d="M651.719 375.923H404.806V606.759H651.719V375.923Z" fill="#292926"/>
<path d="M550.495 393.735H422.57V451.221H550.495V393.735Z" fill="#292926"/>
<path opacity="0.5" d="M550.495 393.735H422.57V451.221H550.495V393.735Z" fill="#292926"/>
<g opacity="0.4">
<path d="M537.617 445.24H435.466V443.873C435.468 443.129 435.325 442.392 435.043 441.704C434.761 441.017 434.346 440.391 433.823 439.865C433.3 439.338 432.679 438.92 431.994 438.635C431.31 438.35 430.576 438.203 429.835 438.203H428.473V406.698H429.835C430.576 406.698 431.31 406.551 431.994 406.266C432.679 405.981 433.3 405.563 433.823 405.036C434.346 404.509 434.761 403.884 435.043 403.196C435.325 402.508 435.468 401.771 435.466 401.028V399.66H537.617V401.028C537.617 402.531 538.212 403.974 539.272 405.037C540.331 406.1 541.768 406.698 543.266 406.698H544.628V438.276H543.266C541.768 438.276 540.331 438.873 539.272 439.937C538.212 441 537.617 442.442 537.617 443.946V445.24ZM438.118 442.506H535.001C535.291 440.774 536.112 439.175 537.349 437.933C538.586 436.692 540.178 435.868 541.904 435.577V409.323C540.178 409.033 538.586 408.209 537.349 406.967C536.112 405.725 535.291 404.127 535.001 402.395H438.082C437.796 404.126 436.979 405.723 435.745 406.965C434.511 408.207 432.921 409.032 431.198 409.323V435.65C432.921 435.942 434.511 436.766 435.745 438.008C436.979 439.25 437.796 440.848 438.082 442.579L438.118 442.506Z" fill="#292926"/>
</g>
<path d="M491.645 424.294H481.401C479.172 424.289 477.036 423.398 475.46 421.816C473.884 420.234 472.996 418.09 472.992 415.852V413.537H471.902C471.179 413.537 470.486 413.249 469.975 412.736C469.464 412.223 469.177 411.528 469.177 410.802C469.177 410.077 469.464 409.381 469.975 408.868C470.486 408.356 471.179 408.067 471.902 408.067H474.463C474.987 408.067 475.505 408.171 475.989 408.373C476.473 408.575 476.912 408.871 477.282 409.243C477.652 409.616 477.944 410.058 478.143 410.545C478.342 411.031 478.443 411.553 478.441 412.078V415.852C478.441 416.243 478.517 416.629 478.666 416.99C478.815 417.35 479.033 417.678 479.308 417.954C479.583 418.23 479.909 418.449 480.268 418.598C480.627 418.747 481.012 418.824 481.401 418.824H491.645C492.431 418.824 493.184 418.511 493.739 417.954C494.294 417.397 494.606 416.641 494.606 415.852V412.078C494.606 411.015 495.027 409.994 495.776 409.242C496.526 408.49 497.542 408.067 498.602 408.067H501.145C501.867 408.067 502.56 408.356 503.071 408.868C503.582 409.381 503.869 410.077 503.869 410.802C503.869 411.528 503.582 412.223 503.071 412.736C502.56 413.249 501.867 413.537 501.145 413.537H500.055V415.852C500.055 418.091 499.169 420.238 497.592 421.821C496.015 423.405 493.876 424.294 491.645 424.294Z" fill="#292926"/>
<path d="M550.495 461.485H422.57V518.971H550.495V461.485Z" fill="#292926"/>
<path opacity="0.5" d="M550.495 461.485H422.57V518.971H550.495V461.485Z" fill="#292926"/>
<g opacity="0.4">
<path d="M537.617 513.048H435.466V511.681C435.466 510.18 434.873 508.741 433.818 507.678C432.763 506.615 431.33 506.015 429.835 506.011H428.473V474.414H429.835C431.329 474.414 432.761 473.819 433.817 472.759C434.873 471.699 435.466 470.261 435.466 468.762V467.395H537.617V468.762C537.617 469.506 537.763 470.243 538.047 470.93C538.331 471.616 538.748 472.24 539.273 472.765C539.797 473.291 540.42 473.706 541.106 473.989C541.791 474.272 542.525 474.417 543.266 474.414H544.628V505.992H543.266C542.524 505.992 541.789 506.139 541.104 506.424C540.419 506.709 539.796 507.127 539.272 507.653C538.747 508.18 538.331 508.805 538.047 509.493C537.763 510.181 537.617 510.918 537.617 511.663V513.048ZM438.118 510.313H535.001C535.291 508.581 536.112 506.983 537.349 505.741C538.586 504.499 540.178 503.676 541.904 503.385V477.058C540.18 476.771 538.588 475.951 537.35 474.712C536.113 473.473 535.292 471.878 535.001 470.148H438.082C437.795 471.876 436.977 473.472 435.743 474.711C434.509 475.949 432.919 476.77 431.198 477.058V503.385C432.921 503.677 434.511 504.501 435.745 505.743C436.979 506.985 437.796 508.583 438.082 510.313H438.118Z" fill="#292926"/>
</g>
<path d="M491.645 492.023H481.401C479.171 492.023 477.032 491.134 475.455 489.551C473.878 487.968 472.992 485.821 472.992 483.582V481.267H471.902C471.179 481.267 470.486 480.978 469.975 480.465C469.464 479.953 469.177 479.257 469.177 478.532C469.177 477.806 469.464 477.111 469.975 476.598C470.486 476.085 471.179 475.797 471.902 475.797H474.463C475.519 475.802 476.531 476.226 477.277 476.978C478.022 477.73 478.441 478.747 478.441 479.808V483.527C478.441 484.315 478.753 485.071 479.308 485.629C479.863 486.186 480.616 486.499 481.401 486.499H491.645C492.431 486.499 493.184 486.186 493.739 485.629C494.294 485.071 494.606 484.315 494.606 483.527V479.881C494.611 478.819 495.033 477.801 495.782 477.05C496.53 476.299 497.544 475.875 498.602 475.87H501.145C501.867 475.87 502.56 476.158 503.071 476.671C503.582 477.184 503.869 477.879 503.869 478.605C503.869 479.33 503.582 480.026 503.071 480.538C502.56 481.051 501.867 481.339 501.145 481.339H500.055V483.527C500.062 484.64 499.85 485.744 499.431 486.774C499.011 487.805 498.393 488.742 497.611 489.532C496.83 490.321 495.9 490.948 494.876 491.376C493.852 491.803 492.754 492.023 491.645 492.023Z" fill="#292926"/>
<path d="M550.495 529.218H422.57V586.704H550.495V529.218Z" fill="#292926"/>
<path opacity="0.5" d="M550.495 529.218H422.57V586.704H550.495V529.218Z" fill="#292926"/>
<g opacity="0.4">
<path d="M537.617 580.779H435.466V579.412C435.466 577.913 434.873 576.476 433.817 575.416C432.761 574.356 431.329 573.76 429.836 573.76H428.473V542.182H429.836C431.331 542.177 432.763 541.578 433.818 540.515C434.874 539.452 435.466 538.013 435.466 536.512V535.145H537.617V536.512C537.617 538.016 538.212 539.458 539.272 540.521C540.331 541.585 541.768 542.182 543.266 542.182H544.628V573.76H543.266C542.525 573.758 541.791 573.902 541.106 574.185C540.421 574.468 539.798 574.884 539.273 575.409C538.748 575.934 538.332 576.558 538.048 577.245C537.764 577.932 537.617 578.668 537.617 579.412V580.779ZM438.118 578.045H535.002C535.292 576.315 536.113 574.719 537.351 573.481C538.588 572.242 540.18 571.422 541.904 571.135V544.808C540.178 544.517 538.586 543.693 537.349 542.452C536.112 541.21 535.291 539.611 535.002 537.879H438.082C437.796 539.61 436.979 541.208 435.745 542.45C434.511 543.692 432.921 544.516 431.198 544.808V571.135C432.92 571.423 434.509 572.243 435.743 573.482C436.977 574.721 437.795 576.316 438.082 578.045H438.118Z" fill="#292926"/>
</g>
<path d="M491.645 559.775H481.401C479.169 559.771 477.03 558.877 475.454 557.291C473.877 555.705 472.992 553.556 472.992 551.316V549.018H471.902C471.179 549.018 470.486 548.73 469.975 548.217C469.464 547.705 469.177 547.009 469.177 546.284C469.177 545.558 469.464 544.863 469.975 544.35C470.486 543.837 471.179 543.549 471.902 543.549H474.463C475.518 543.549 476.53 543.969 477.276 544.718C478.021 545.467 478.441 546.483 478.441 547.542V551.316C478.441 552.106 478.752 552.863 479.307 553.424C479.861 553.984 480.614 554.301 481.401 554.306H491.645C492.432 554.301 493.185 553.984 493.74 553.424C494.295 552.863 494.606 552.106 494.606 551.316V547.542C494.611 546.481 495.034 545.465 495.783 544.717C496.532 543.969 497.545 543.549 498.602 543.549H501.145C501.867 543.549 502.56 543.837 503.071 544.35C503.582 544.863 503.869 545.558 503.869 546.284C503.869 547.009 503.582 547.705 503.071 548.217C502.56 548.73 501.867 549.018 501.145 549.018H500.055V551.316C500.057 552.426 499.842 553.525 499.42 554.552C498.999 555.578 498.379 556.511 497.598 557.296C496.817 558.082 495.889 558.706 494.868 559.131C493.846 559.556 492.751 559.775 491.645 559.775Z" fill="#292926"/>
<path d="M574.743 307.734C593.142 307.734 610.688 322.702 613.94 341.172L620.006 375.813H553.401L547.316 341.172L574.743 307.734Z" fill="#1E293B"/>
<path d="M542.612 341.172C542.612 332.303 546.121 323.798 552.368 317.528C558.616 311.257 567.088 307.734 575.923 307.734C584.758 307.734 593.231 311.257 599.478 317.528C605.725 323.798 609.235 332.303 609.235 341.172V375.813H542.612V341.172Z" fill="#FF693D"/>
<path d="M542.612 341.172C542.612 332.303 546.121 323.798 552.368 317.528C558.616 311.257 567.088 307.734 575.923 307.734C584.758 307.734 593.231 311.257 599.478 317.528C605.725 323.798 609.235 332.303 609.235 341.172V375.813H542.612V341.172Z" fill="#292926"/>
<path d="M601.218 347.15C604.52 333.106 595.855 319.035 581.865 315.72C567.874 312.406 553.856 321.103 550.554 335.147C547.252 349.19 555.916 363.262 569.907 366.576C583.897 369.891 597.916 361.193 601.218 347.15Z" fill="#292926"/>
<path d="M601.218 347.15C604.52 333.106 595.855 319.035 581.865 315.72C567.874 312.406 553.856 321.103 550.554 335.147C547.252 349.19 555.916 363.262 569.907 366.576C583.897 369.891 597.916 361.193 601.218 347.15Z" fill="#FF693D"/>
<path opacity="0.2" d="M575.923 319.184C582.464 319.186 588.764 321.662 593.568 326.119C598.372 330.576 601.326 336.686 601.842 343.232C601.842 342.557 601.951 341.864 601.951 341.172C601.951 334.242 599.209 327.597 594.328 322.697C589.446 317.798 582.826 315.045 575.923 315.045C569.02 315.045 562.399 317.798 557.518 322.697C552.637 327.597 549.895 334.242 549.895 341.172C549.895 341.864 549.895 342.557 550.004 343.232C550.52 336.686 553.474 330.576 558.278 326.119C563.081 321.662 569.382 319.186 575.923 319.184Z" fill="#292926"/>
<path opacity="0.1" d="M592.361 341.155H578.684V327.426C578.578 326.777 578.246 326.187 577.747 325.762C577.248 325.336 576.614 325.103 575.959 325.103C575.305 325.103 574.671 325.336 574.172 325.762C573.673 326.187 573.341 326.777 573.235 327.426V343.926C573.235 344.661 573.526 345.366 574.044 345.885C574.561 346.405 575.264 346.697 575.996 346.697H592.434C593.08 346.591 593.667 346.257 594.091 345.756C594.515 345.255 594.748 344.62 594.748 343.962C594.748 343.305 594.515 342.669 594.091 342.168C593.667 341.667 593.08 341.334 592.434 341.227L592.361 341.155Z" fill="#292926"/>
<path d="M592.361 343.944C593.007 343.837 593.595 343.504 594.019 343.003C594.443 342.502 594.675 341.866 594.675 341.209C594.675 340.551 594.443 339.916 594.019 339.415C593.595 338.914 593.007 338.58 592.361 338.474H575.923C575.528 338.409 575.124 338.431 574.738 338.539C574.352 338.646 573.994 338.837 573.689 339.097C573.384 339.357 573.139 339.681 572.971 340.045C572.803 340.41 572.716 340.807 572.716 341.209C572.716 341.611 572.803 342.008 572.971 342.372C573.139 342.737 573.384 343.061 573.689 343.321C573.994 343.581 574.352 343.771 574.738 343.879C575.124 343.987 575.528 344.009 575.923 343.944H592.361Z" fill="#FF693D"/>
<path opacity="0.3" d="M592.361 343.944C593.007 343.837 593.595 343.504 594.019 343.003C594.443 342.502 594.675 341.866 594.675 341.209C594.675 340.551 594.443 339.916 594.019 339.415C593.595 338.914 593.007 338.58 592.361 338.474H575.923C575.528 338.409 575.124 338.431 574.738 338.539C574.352 338.646 573.994 338.837 573.689 339.097C573.384 339.357 573.139 339.681 572.971 340.045C572.803 340.41 572.716 340.807 572.716 341.209C572.716 341.611 572.803 342.008 572.971 342.372C573.139 342.737 573.384 343.061 573.689 343.321C573.994 343.581 574.352 343.771 574.738 343.879C575.124 343.987 575.528 344.009 575.923 343.944H592.361Z" fill="#292926"/>
<path d="M578.684 324.67C578.578 324.021 578.246 323.431 577.747 323.006C577.248 322.58 576.614 322.347 575.959 322.347C575.305 322.347 574.671 322.58 574.172 323.006C573.673 323.431 573.341 324.021 573.235 324.67V341.079C573.341 341.727 573.673 342.317 574.172 342.743C574.671 343.168 575.305 343.402 575.959 343.402C576.614 343.402 577.248 343.168 577.747 342.743C578.246 342.317 578.578 341.727 578.684 341.079V324.67Z" fill="#FF693D"/>
<path opacity="0.6" d="M578.684 324.67C578.578 324.021 578.246 323.431 577.747 323.006C577.248 322.58 576.614 322.347 575.959 322.347C575.305 322.347 574.671 322.58 574.172 323.006C573.673 323.431 573.341 324.021 573.235 324.67V341.079C573.341 341.727 573.673 342.317 574.172 342.743C574.671 343.168 575.305 343.402 575.959 343.402C576.614 343.402 577.248 343.168 577.747 342.743C578.246 342.317 578.578 341.727 578.684 341.079V324.67Z" fill="#292926"/>
<path d="M175.403 599.63V558.918C180.397 558.918 180.397 551.133 175.403 551.133C159.945 551.133 144.525 551.023 129.013 550.932V607.452H175.403C180.397 607.506 180.397 599.63 175.403 599.63Z" fill="#292926"/>
<path opacity="0.3" d="M175.403 599.63V558.918C180.397 558.918 180.397 551.133 175.403 551.133C159.945 551.133 144.525 551.023 129.013 550.932V607.452H175.403C180.397 607.506 180.397 599.63 175.403 599.63Z" fill="#292926"/>
<path d="M175.402 558.918H139.366V599.558H175.402V558.918Z" fill="#292926"/>
<path opacity="0.8" d="M175.402 558.918H139.366V599.558H175.402V558.918Z" fill="#292926"/>
<path d="M146.94 603.512H22.0305C13.4392 603.512 6.48267 592.663 6.48267 579.263C6.48267 565.862 13.4392 555.014 22.0305 555.014H146.94V603.512Z" fill="#292926"/>
<path opacity="0.9" d="M146.94 603.512H22.0305C13.4392 603.512 6.48267 592.663 6.48267 579.263C6.48267 565.862 13.4392 555.014 22.0305 555.014H146.94V603.512Z" fill="#292926"/>
<path d="M146.94 551.133C106.036 551.133 65.0778 550.386 24.192 551.133C-3.81597 551.644 -5.32353 605.52 22.1577 607.416C41.3019 608.729 60.9911 607.416 80.2806 607.416H147.031C152.026 607.416 152.026 599.631 147.031 599.631H30.7853C21.8126 599.631 15.4009 599.522 11.9317 588.892C8.93474 579.776 9.87923 560.961 22.1577 558.919C23.5542 558.809 24.957 558.809 26.3534 558.919H147.067C152.062 558.919 152.062 551.133 147.067 551.133H146.94Z" fill="#292926"/>
<path d="M167.211 545.371V512.9C167.991 512.84 168.72 512.486 169.252 511.91C169.784 511.334 170.079 510.577 170.079 509.791C170.079 509.006 169.784 508.249 169.252 507.673C168.72 507.096 167.991 506.743 167.211 506.683C154.896 506.683 142.545 506.591 130.212 506.519V551.588H167.211C167.991 551.528 168.72 551.175 169.252 550.598C169.784 550.022 170.079 549.265 170.079 548.48C170.079 547.694 169.784 546.937 169.252 546.361C168.72 545.785 167.991 545.431 167.211 545.371Z" fill="#292926"/>
<path opacity="0.3" d="M167.211 545.371V512.9C167.991 512.84 168.72 512.486 169.252 511.91C169.784 511.334 170.079 510.577 170.079 509.791C170.079 509.006 169.784 508.249 169.252 507.673C168.72 507.096 167.991 506.743 167.211 506.683C154.896 506.683 142.545 506.591 130.212 506.519V551.588H167.211C167.991 551.528 168.72 551.175 169.252 550.598C169.784 550.022 170.079 549.265 170.079 548.48C170.079 547.694 169.784 546.937 169.252 546.361C168.72 545.785 167.991 545.431 167.211 545.371Z" fill="#292926"/>
<path d="M167.229 512.901H138.476V545.336H167.229V512.901Z" fill="#292926"/>
<path opacity="0.8" d="M167.229 512.901H138.476V545.336H167.229V512.901Z" fill="#292926"/>
<path d="M144.506 548.471H44.8436C37.996 548.471 32.438 539.811 32.438 529.127C32.438 518.443 37.996 509.783 44.8436 509.783H144.506V548.471Z" fill="#292926"/>
<path opacity="0.9" d="M144.506 548.471H44.8436C37.996 548.471 32.438 539.811 32.438 529.127C32.438 518.443 37.996 509.783 44.8436 509.783H144.506V548.471Z" fill="#292926"/>
<path d="M144.506 506.683C111.812 506.683 79.118 506.082 46.5692 506.683C24.2282 507.085 22.9567 550.076 44.9526 551.589C60.228 552.628 75.9394 551.589 91.2511 551.589H144.506C145.287 551.529 146.016 551.175 146.548 550.599C147.079 550.023 147.375 549.266 147.375 548.48C147.375 547.695 147.079 546.938 146.548 546.362C146.016 545.785 145.287 545.432 144.506 545.372H51.7276C44.5712 545.372 39.4491 545.281 36.6883 536.803C34.2907 529.51 35.0536 514.505 44.8436 512.901C45.9619 512.809 47.0856 512.809 48.2039 512.901H144.47C145.25 512.84 145.979 512.487 146.511 511.911C147.043 511.334 147.339 510.578 147.339 509.792C147.339 509.006 147.043 508.25 146.511 507.673C145.979 507.097 145.25 506.743 144.47 506.683H144.506Z" fill="#292926"/>
<path d="M153.479 456.181C153.431 453.75 152.437 451.434 150.709 449.73C148.981 448.026 146.656 447.069 144.234 447.065H89.0714C86.6503 447.074 84.3286 448.032 82.6014 449.735C80.8742 451.438 79.8783 453.751 79.8262 456.181V456.856C77.8449 456.198 75.7738 455.853 73.687 455.835C64.6053 455.835 58.5569 462.927 58.5569 473.483C58.5569 483.566 69.128 491.114 78.5366 491.114C79.4944 491.11 80.4494 491.012 81.3883 490.822C83.5847 497.603 87.6081 503.642 93.0129 508.27H140.238C144.483 504.671 147.894 500.184 150.232 495.123C152.569 490.062 153.776 484.549 153.769 478.971C153.769 475.288 153.66 466.701 153.479 456.181ZM78.5911 485.207C72.1794 485.207 64.4418 479.974 64.4418 473.483C64.4418 470.73 65.1139 461.742 73.687 461.742C75.7706 461.783 77.8234 462.255 79.7173 463.127C79.6083 470.42 79.5356 476.163 79.5356 478.971C79.5499 481.025 79.7322 483.073 80.0805 485.097C79.5871 485.166 79.0892 485.196 78.5911 485.188V485.207Z" fill="#FF693D"/>
<path opacity="0.2" d="M153.479 456.181C153.431 453.75 152.437 451.434 150.709 449.73C148.981 448.026 146.656 447.069 144.234 447.065H89.0714C86.6503 447.074 84.3286 448.032 82.6014 449.735C80.8742 451.438 79.8783 453.751 79.8262 456.181V456.856C77.8449 456.198 75.7738 455.853 73.687 455.835C64.6053 455.835 58.5569 462.927 58.5569 473.483C58.5569 483.566 69.128 491.114 78.5366 491.114C79.4944 491.11 80.4494 491.012 81.3883 490.822C83.5847 497.603 87.6081 503.642 93.0129 508.27H140.238C144.483 504.671 147.894 500.184 150.232 495.123C152.569 490.062 153.776 484.549 153.769 478.971C153.769 475.288 153.66 466.701 153.479 456.181ZM78.5911 485.207C72.1794 485.207 64.4418 479.974 64.4418 473.483C64.4418 470.73 65.1139 461.742 73.687 461.742C75.7706 461.783 77.8234 462.255 79.7173 463.127C79.6083 470.42 79.5356 476.163 79.5356 478.971C79.5499 481.025 79.7322 483.073 80.0805 485.097C79.5871 485.166 79.0892 485.196 78.5911 485.188V485.207Z" fill="#292926"/>
<path opacity="0.9" d="M130.974 471.279L124.054 455.873L119.695 465.627C118.122 465.409 116.527 465.409 114.954 465.627L110.577 455.873L103.657 471.279C101.48 473.652 100.257 476.75 100.224 479.976C100.224 487.98 107.889 494.47 117.315 494.47C126.742 494.47 134.407 487.98 134.407 479.976C134.374 476.75 133.151 473.652 130.974 471.279ZM109.723 477.314C109.723 476.129 110.413 475.181 111.285 475.181C112.157 475.181 112.865 476.129 112.865 477.314C112.865 478.499 112.157 479.465 111.285 479.465C110.413 479.465 109.723 478.499 109.723 477.314ZM119.731 485.664C118.837 485.657 117.977 485.32 117.315 484.716C116.664 485.325 115.808 485.664 114.918 485.664C113.954 485.664 113.03 485.28 112.349 484.596C111.668 483.913 111.285 482.985 111.285 482.018H112.793C112.786 482.476 112.929 482.924 113.202 483.291C113.474 483.659 113.86 483.926 114.299 484.05C114.738 484.175 115.206 484.151 115.63 483.981C116.054 483.811 116.41 483.506 116.643 483.112L117.279 482.073L117.933 483.112C118.17 483.497 118.525 483.794 118.945 483.957C119.366 484.121 119.828 484.143 120.261 484.019C120.695 483.895 121.076 483.633 121.348 483.272C121.619 482.911 121.766 482.47 121.765 482.018H123.291C123.291 482.973 122.919 483.889 122.253 484.571C121.587 485.253 120.682 485.645 119.731 485.664ZM123.364 479.465C122.492 479.465 121.802 478.499 121.802 477.314C121.802 476.129 122.492 475.181 123.364 475.181C124.236 475.181 124.944 476.129 124.944 477.314C124.944 478.499 124.217 479.465 123.346 479.465H123.364Z" fill="#292926"/>
<path d="M323.188 368.434C323.188 368.434 328.173 377.693 345.058 377.637C361.944 377.581 397.675 375.405 407.605 379.455C417.536 383.505 433.588 380.318 441.917 383.627C450.247 386.936 445.675 389.509 445.675 389.509C445.675 389.509 456.049 393.778 449.337 398.366C449.337 398.366 451.691 403.669 444.874 403.33C438.057 402.991 415.597 400.872 410.379 397.451C410.379 397.451 372.752 403.206 353.92 405.312C335.089 407.417 325.843 402.409 304.038 425.502C282.234 448.595 323.188 368.434 323.188 368.434Z" fill="#FF693D"/>
<path opacity="0.2" d="M330.037 374.383C327.25 373.056 324.878 370.995 323.176 368.42C323.176 368.42 282.235 448.594 304.039 425.5C320.787 407.864 330.089 406.615 342.007 406.065C323.77 403.984 328.102 381.723 330.037 374.383Z" fill="#292926"/>
<path d="M448.239 399.811C448.239 399.811 452.343 400.766 452.299 403.239C450.916 402.136 449.163 401.605 447.398 401.753L448.239 399.811Z" fill="#FF693D"/>
<path d="M448.727 392.731C450.299 392.338 451.957 392.502 453.418 393.197C454.878 393.891 456.05 395.072 456.734 396.538C455.66 395.65 454.321 395.142 452.925 395.095C451.53 395.047 450.156 395.462 449.017 396.276L448.727 392.731Z" fill="#FF693D"/>
<path d="M444.273 385.762C444.273 385.762 449.633 383.309 451.76 387.189C450.73 386.664 449.56 386.481 448.417 386.665C447.273 386.849 446.217 387.392 445.4 388.215L444.273 385.762Z" fill="#FF693D"/>
<g opacity="0.6">
<path d="M448.239 399.812C448.239 399.812 452.342 400.767 452.298 403.239C450.916 402.137 449.163 401.605 447.397 401.753L448.239 399.812Z" fill="#292926"/>
<path d="M448.726 392.731C450.299 392.338 451.957 392.502 453.417 393.197C454.878 393.891 456.05 395.072 456.733 396.538C455.659 395.65 454.32 395.142 452.925 395.095C451.529 395.047 450.155 395.462 449.017 396.276L448.726 392.731Z" fill="#292926"/>
<path d="M444.273 385.762C444.273 385.762 449.633 383.309 451.759 387.189C450.73 386.665 449.559 386.481 448.416 386.666C447.273 386.85 446.217 387.393 445.4 388.215L444.273 385.762Z" fill="#292926"/>
</g>
<path opacity="0.2" d="M443.988 395.374C443.988 395.374 438.193 390.926 432.504 392.011C432.569 392.073 438.867 386.312 443.988 395.374Z" fill="#292926"/>
<path d="M125.111 440.941C125.111 440.941 97.571 473.925 68.0133 449C38.4556 424.074 8.98219 411.8 32.592 380.792C59.7082 345.168 27.5291 350.514 10.3172 374.574C-6.89465 398.634 -2.60728 415.88 23.4517 442.512C49.5106 469.144 83.3265 491.827 102.836 476.084L125.111 440.941Z" fill="#FF693D"/>
<path opacity="0.3" d="M35.7443 376.417C53.8054 350.197 34.5087 350.629 18.2382 365.626C21.7534 366.096 25.128 367.3 28.1436 369.159C31.1592 371.017 33.7486 373.49 35.7443 376.417Z" fill="#292926"/>
<path opacity="0.3" d="M32.118 381.449C27.5637 377.778 19.8701 373.087 10.8652 373.839C10.6393 374.077 10.4258 374.302 10.2914 374.601C8.14015 377.566 6.21424 380.688 4.52992 383.939C10.1771 382.187 18.4696 381.789 27.5803 388.681C28.8923 386.151 30.41 383.732 32.118 381.449Z" fill="#292926"/>
<g opacity="0.3">
<path d="M25.8637 409.954C24.5337 406.963 23.9095 403.704 24.0395 400.428C17.889 399.44 8.01982 399.572 0.742197 407.948C1.60411 411.71 2.97263 415.335 4.81031 418.725C10.4231 413.167 17.9801 410.019 25.8637 409.954Z" fill="#292926"/>
<path d="M28.2242 447.272C30.9933 442.509 36.3508 434.573 43.5315 429.675C40.3816 427.136 37.4901 424.642 34.9463 422.151C28.0293 425.328 22.2265 430.519 18.2999 437.043C19.9261 438.839 21.6301 440.658 23.4639 442.525C24.9817 444.092 26.6036 445.708 28.2242 447.272Z" fill="#292926"/>
<path d="M91.4542 458.262C87.1716 458.268 82.9336 457.423 78.9866 455.776C77.0351 461.893 75.8183 469.663 80.422 473.783C86.8959 479.68 88.0049 467.407 91.4542 458.262Z" fill="#292926"/>
<path d="M49.2862 459.752C53.5738 463.572 60.3023 453.77 65.5846 446.994C62.3676 444.341 59.18 441.842 56.0588 439.431C51.7947 445.188 44.9196 455.857 49.2862 459.752Z" fill="#292926"/>
</g>
<path opacity="0.1" d="M76.9219 479.658C86.7841 482.461 95.74 481.814 102.837 476.108L125.112 440.965C119.596 447.156 112.812 452.086 105.225 455.419C100.467 460.714 96.3673 466.563 93.0151 472.84C89.5186 479.476 82.861 480.42 76.9219 479.658Z" fill="#292926"/>
<path d="M182.676 423.344C182.676 423.344 229.537 445.215 229.029 478.273C228.521 511.331 156.451 534.338 166.538 547.562C176.624 560.785 219.506 585.818 217.479 598.45C216.968 601.785 215.882 605.008 214.27 607.975C213.621 609.112 212.722 610.087 211.64 610.826C210.559 611.564 209.324 612.047 208.031 612.236C206.737 612.426 205.418 612.318 204.174 611.921C202.93 611.524 201.795 610.847 200.854 609.943L129.612 542.291C129.612 542.291 125.318 538.214 133.625 535.19C133.572 535.14 88.0926 458.084 182.676 423.344Z" fill="#FF693D"/>
<path opacity="0.2" d="M182.676 423.344C182.676 423.344 229.537 445.215 229.029 478.273C228.521 511.331 156.451 534.338 166.538 547.562C176.624 560.785 219.506 585.818 217.479 598.45C216.968 601.785 215.882 605.008 214.27 607.975C213.621 609.112 212.722 610.087 211.64 610.826C210.559 611.564 209.324 612.047 208.031 612.236C206.737 612.426 205.418 612.318 204.174 611.921C202.93 611.524 201.795 610.847 200.854 609.943L129.612 542.291C129.612 542.291 125.318 538.214 133.625 535.19C133.572 535.14 88.0926 458.084 182.676 423.344Z" fill="#292926"/>
<path d="M326.914 304.713C326.914 304.713 341.882 293.357 345.548 294.323C349.214 295.29 337.925 307.626 338.046 311.086L326.914 304.713Z" fill="#FF693D"/>
<path opacity="0.2" d="M326.914 304.713C326.914 304.713 341.882 293.357 345.548 294.323C349.214 295.29 337.925 307.626 338.046 311.086L326.914 304.713Z" fill="#292926"/>
<path d="M356.136 334.45C356.397 333.776 356.82 333.176 357.368 332.704C359.009 331.346 361.125 332.098 362.782 333.017C363.382 333.361 363.899 332.394 363.299 332.05C362.392 331.381 361.311 330.988 360.184 330.916C359.058 330.845 357.933 331.099 356.944 331.647C356.076 332.288 355.424 333.177 355.074 334.197C354.859 334.872 355.97 335.047 356.136 334.45Z" fill="#FF693D"/>
<path d="M355.993 338.663C358.957 336.675 362.588 338.866 364.661 341.035C365.161 341.511 365.89 340.744 365.414 340.242C362.998 337.722 358.8 335.47 355.43 337.726C354.848 338.128 355.411 339.065 355.993 338.663Z" fill="#FF693D"/>
<path d="M355.616 341.802C357.841 341.174 359.526 343.805 360.273 345.445C360.571 346.08 361.497 345.501 361.212 344.878C360.221 342.73 358.057 339.997 355.32 340.742C355.18 340.782 355.06 340.876 354.989 341.003C354.917 341.131 354.898 341.282 354.938 341.422C354.977 341.563 355.07 341.682 355.198 341.753C355.325 341.825 355.475 341.842 355.616 341.802Z" fill="#FF693D"/>
<g opacity="0.5">
<path d="M356.137 334.449C356.398 333.775 356.821 333.175 357.369 332.703C359.01 331.345 361.126 332.097 362.783 333.016C363.383 333.36 363.9 332.393 363.3 332.049C362.393 331.38 361.312 330.987 360.185 330.915C359.059 330.844 357.934 331.098 356.945 331.646C356.077 332.287 355.425 333.176 355.075 334.196C354.86 334.871 355.971 335.046 356.137 334.449Z" fill="#292926"/>
<path d="M355.994 338.662C358.958 336.674 362.589 338.865 364.662 341.034C365.162 341.51 365.891 340.743 365.415 340.241C362.999 337.721 358.801 335.469 355.431 337.725C354.849 338.127 355.412 339.064 355.994 338.662Z" fill="#292926"/>
<path d="M355.617 341.803C357.841 341.175 359.526 343.806 360.273 345.446C360.572 346.081 361.497 345.502 361.212 344.879C360.221 342.731 358.058 339.997 355.321 340.743C355.18 340.783 355.061 340.876 354.989 341.004C354.917 341.132 354.899 341.282 354.938 341.423C354.977 341.563 355.071 341.682 355.198 341.754C355.325 341.825 355.476 341.843 355.617 341.803Z" fill="#292926"/>
</g>
<path d="M334.65 358.949C323.934 361.345 328.619 375.851 317.103 406.125C305.588 436.399 263.544 454.956 227.324 490.961C191.104 526.966 169.54 517.099 169.54 517.099L124.666 530.881C124.666 530.881 79.2204 496.098 103.304 462.824C127.387 429.55 165.13 410.906 193.534 396.821C221.938 382.736 253.643 380.132 260.937 362.77C266.327 350.814 273.113 339.534 281.151 329.165C281.151 329.165 278.635 313.35 290.693 297.144C290.693 297.144 300.802 271.543 308.085 270.916C315.368 270.29 315.225 300.325 315.225 300.325C315.225 300.325 335.948 304.089 340.131 308.89C344.313 313.692 342.458 327.04 355.444 331.829C355.456 331.816 361.113 353.028 334.65 358.949Z" fill="#FF693D"/>
<path opacity="0.2" d="M227.322 490.962C263.542 454.957 305.651 436.411 317.102 406.126C328.552 375.841 323.946 361.384 334.648 358.951C361.111 353.029 355.416 331.805 355.416 331.805C354.662 331.517 353.96 331.202 353.295 330.873C350.582 330.433 347.827 330.433 346.678 331.88C344.052 335.12 343.289 339.273 330.944 341.353C314.189 344.174 309.936 369.728 308.049 387.699C306.163 405.67 311.306 406.506 295.12 425.054C276.356 446.634 237.681 458.056 217.36 470.012C200.239 480.128 168.743 501.636 155.326 521.304L169.383 517.053C169.383 517.053 191.102 526.967 227.322 490.962Z" fill="#292926"/>
<path opacity="0.6" d="M354.138 333.204C354.138 333.204 350.445 331.106 350.165 332.877C349.886 334.648 354.688 342.2 354.138 333.204Z" fill="#292926"/>
<path opacity="0.2" d="M300.012 300.968L310.632 300.995C310.632 300.995 313.075 275.658 307.741 274.364C302.407 273.071 311.214 285.532 300.012 300.968Z" fill="#292926"/>
<path opacity="0.2" d="M333.554 313.759C335.191 312.799 333.854 307.456 328.513 308.042C323.173 308.627 331.904 314.731 333.554 313.759Z" fill="#292926"/>
<path opacity="0.2" d="M339.183 315.031C338.096 314.752 338.232 310.758 340.625 310.718C343.018 310.677 340.297 315.309 339.183 315.031Z" fill="#292926"/>
<g opacity="0.6">
<path d="M340.358 335.08C337.111 331.167 331.352 330.4 326.661 331.225C325.956 331.36 326.277 332.394 326.957 332.285C331.301 331.508 336.622 332.262 339.605 335.873C340.106 336.349 340.809 335.608 340.358 335.08Z" fill="#292926"/>
<path d="M338.647 337.779C333.408 335.067 326.885 337.346 322.496 340.596C321.94 340.997 322.49 341.947 323.059 341.533C327.132 338.51 333.226 336.102 338.116 338.734C338.242 338.794 338.386 338.804 338.519 338.762C338.652 338.72 338.764 338.628 338.832 338.506C338.9 338.384 338.919 338.24 338.884 338.105C338.85 337.97 338.765 337.853 338.647 337.779Z" fill="#292926"/>
<path d="M339.418 341.451C337.429 341.674 335.503 342.292 333.752 343.266C332.001 344.241 330.46 345.553 329.219 347.127C328.741 347.63 329.545 348.393 330.009 347.878C331.157 346.405 332.583 345.172 334.207 344.25C335.83 343.328 337.619 342.735 339.469 342.505C340.164 342.486 340.151 341.392 339.443 341.424L339.418 341.451Z" fill="#292926"/>
</g>
<path opacity="0.2" d="M168.915 444.297L159.531 447.479L158.097 459.091L162.359 484.937C162.359 484.937 161.394 504.286 164.657 518.522L169.499 517.036C169.499 517.036 179.976 521.831 198.507 512.576C219.694 474.439 168.915 444.297 168.915 444.297Z" fill="#292926"/>
<path opacity="0.1" d="M273.804 452.329L261.212 418.321L261.642 400.274L254.047 405.634C254.047 405.634 224.184 436.713 241.162 458.769C245.068 463.887 249.549 466.106 252.926 468.432C260.075 462.75 267.117 457.444 273.804 452.329Z" fill="#292926"/>
<g opacity="0.3">
<path d="M272.759 341.035C283.467 350.65 311.11 353.694 297.614 344.8C291.277 340.662 285.505 335.721 280.439 330.099C279.115 331.809 276.173 335.779 272.759 341.035Z" fill="#292926"/>
<path d="M278.241 373.22C272.073 369.841 266.643 365.265 262.267 359.76C261.802 360.751 261.363 361.768 260.936 362.771C259.001 366.987 255.873 370.547 251.94 373.009C266.764 383.591 291.105 380.406 278.241 373.22Z" fill="#292926"/>
<path d="M195.18 432.728C182.355 422.335 179.54 410.661 179.048 404.083C173.885 406.724 168.472 409.629 163.049 412.701C181.056 442.774 213.098 447.279 195.18 432.728Z" fill="#292926"/>
<path d="M237.828 407.758C231.246 401.556 226.777 393.443 225.044 384.556C219.465 386.448 213.578 388.427 207.673 390.689C218.613 415.358 250.775 420.607 237.828 407.758Z" fill="#292926"/>
</g>
<path d="M336.54 322.431C336.029 324.209 334.641 325.38 333.46 324.962C332.279 324.545 331.803 322.962 332.339 321.157C332.875 319.353 334.264 318.208 335.445 318.626C336.626 319.043 337.102 320.626 336.54 322.431Z" fill="#292926"/>
<path d="M326.955 318.783C327.109 318.867 327.283 318.908 327.46 318.903C327.636 318.899 327.808 318.847 327.958 318.755C329.171 318.058 330.526 317.645 331.919 317.549C333.313 317.452 334.709 317.674 336.002 318.197C336.14 318.242 336.286 318.259 336.43 318.247C336.575 318.235 336.716 318.194 336.845 318.127C336.974 318.06 337.089 317.968 337.182 317.856C337.275 317.744 337.345 317.615 337.388 317.476C337.451 317.257 337.447 317.024 337.375 316.807C337.303 316.591 337.167 316.402 336.985 316.265C335.393 315.573 333.659 315.264 331.923 315.362C330.187 315.459 328.496 315.96 326.985 316.825C326.858 316.889 326.745 316.978 326.653 317.086C326.56 317.195 326.491 317.321 326.449 317.457C326.406 317.592 326.392 317.735 326.406 317.877C326.42 318.018 326.462 318.155 326.531 318.279C326.604 318.494 326.755 318.674 326.955 318.783Z" fill="#292926"/>
<path opacity="0.2" d="M290.415 439.189C291.396 431.271 306.059 408.788 306.059 408.788L307.818 403.77L296.977 407.933L281.56 430.102L282.094 445.92C284.961 443.665 287.753 441.438 290.415 439.189Z" fill="#292926"/>
<path d="M291.414 385.857C291.414 385.857 314.629 387.788 309.419 402.954C304.209 418.121 275.363 441.191 288.227 455.921C301.091 470.651 314.919 494.468 314.919 494.468C314.919 494.468 329.73 515.799 319.864 517.669C319.864 517.669 319.61 529.648 311.199 526.161C311.199 526.161 303.848 530.921 301.055 518.062C301.055 518.062 294.654 522.166 292.355 501.981C292.355 501.981 283.42 477.706 251.941 460.133C220.461 442.559 259.004 382.109 291.414 385.857Z" fill="#FF693D"/>
<path opacity="0.4" d="M319.913 517.616C329.832 515.796 314.969 494.415 314.969 494.415C308.857 484.076 302.216 474.06 295.071 464.407C291.703 462.441 287.366 460.836 283.634 462.498C277.42 465.296 280.151 476.11 278.013 480.392C288.771 492.091 292.405 501.928 292.405 501.928C294.69 522.1 301.105 518.009 301.105 518.009C303.91 530.881 311.248 526.108 311.248 526.108C319.66 529.595 319.913 517.616 319.913 517.616Z" fill="#292926"/>
<g opacity="0.2">
<path d="M308.232 512.456C308.232 512.456 312.403 518.931 311.15 523.575C311.097 523.524 316.155 517.592 308.232 512.456Z" fill="#292926"/>
<path d="M311.69 505.781C311.69 505.781 318.143 510.249 318.845 515.366C318.845 515.366 320.273 506.766 311.69 505.781Z" fill="#292926"/>
</g>
<path d="M151.391 433.867C151.391 433.867 196.935 454.487 196.427 487.546C195.919 520.604 151.902 532.535 161.988 545.758C172.074 558.982 208.309 575.188 206.282 587.82C205.771 591.155 204.685 594.378 203.073 597.345C202.424 598.482 201.525 599.457 200.443 600.196C199.362 600.934 198.128 601.417 196.834 601.607C195.54 601.796 194.221 601.688 192.977 601.291C191.733 600.894 190.598 600.217 189.657 599.313L118.362 531.611C118.362 531.611 114.069 527.534 122.375 524.51C122.375 524.51 56.8081 468.607 151.391 433.867Z" fill="#FF693D"/>
<path opacity="0.3" d="M168.55 468.315C151.572 452.193 148.012 442.174 144.071 436.722C142.152 433.841 140.812 430.612 140.124 427.216C134.757 431.04 129.593 435.14 124.65 439.5C127.74 445.954 128.842 444.134 128.842 444.134C136.667 461.849 185.527 484.437 168.55 468.315Z" fill="#292926"/>
<g opacity="0.1">
<path d="M125.219 516.398C118.326 509.149 98.9755 492.809 102.276 471.529C92.3244 498.864 122.376 524.509 122.376 524.509C122.376 524.509 132.099 523.66 125.219 516.398Z" fill="#292926"/>
</g>
<path d="M454.112 491.679C476.665 498.95 509.847 512.637 530.285 535.177L552.036 463.922C522.464 471.302 487.221 464.267 464.522 457.76C460.037 442.091 444.795 427.585 423.956 421.259C394.949 412.462 392.104 430.73 385.523 452.325C378.941 473.919 371.101 490.679 400.108 499.477C420.911 505.784 441.641 502.203 454.112 491.679Z" fill="#FF693D"/>
<path opacity="0.5" d="M454.112 491.679C476.665 498.95 509.847 512.637 530.285 535.177L552.036 463.922C522.464 471.302 487.221 464.267 464.522 457.76C460.037 442.091 444.795 427.585 423.956 421.259C394.949 412.462 392.104 430.73 385.523 452.325C378.941 473.919 371.101 490.679 400.108 499.477C420.911 505.784 441.641 502.203 454.112 491.679Z" fill="#1C1003"/>
<path opacity="0.4" d="M401.621 494.26C419.853 499.804 439.143 497.15 450.574 487.516L452.89 485.553L455.789 486.48C476.628 493.169 511.105 510.11 532.363 528.288L549.939 470.684C522.081 474.01 483.976 468.866 462.936 462.922L460.019 462.104L459.18 459.177C455.078 444.817 440.601 431.911 422.278 426.458C413.983 423.95 408.003 423.768 404.046 425.931C398.066 429.148 395.331 438.382 392.177 449.071C391.247 452.234 390.226 455.56 389.242 458.705C385.887 469.338 383.006 478.536 386.16 484.517C388.257 488.552 393.326 491.733 401.621 494.26Z" fill="#1C1003"/>
<path d="M450.575 487.516L452.891 485.553L455.79 486.48C464.422 489.37 472.867 492.787 481.077 496.714C479.674 493.205 478.343 487.625 481.661 482.717C485.49 477.1 482.281 470.229 480.33 466.994C473.821 465.776 467.877 464.431 462.918 462.995L460.001 462.177L459.163 459.25C455.06 444.89 440.584 431.984 422.261 426.531C413.965 424.022 407.985 423.841 404.029 426.004C398.049 429.221 395.314 438.455 392.16 449.143C391.23 452.306 390.209 455.633 389.224 458.778C385.87 469.411 382.989 478.609 386.143 484.589C388.276 488.607 393.436 491.86 401.64 494.314C419.927 499.804 439.144 497.15 450.575 487.516Z" fill="#FF693D"/>
<path opacity="0.3" d="M450.575 487.516L452.891 485.553L455.79 486.48C464.422 489.37 472.867 492.787 481.077 496.714C479.674 493.205 478.343 487.625 481.661 482.717C485.49 477.1 482.281 470.229 480.33 466.994C473.821 465.776 467.877 464.431 462.918 462.995L460.001 462.177L459.163 459.25C455.06 444.89 440.584 431.984 422.261 426.531C413.965 424.022 407.985 423.841 404.029 426.004C398.049 429.221 395.314 438.455 392.16 449.143C391.23 452.306 390.209 455.633 389.224 458.778C385.87 469.411 382.989 478.609 386.143 484.589C388.276 488.607 393.436 491.86 401.64 494.314C419.927 499.804 439.144 497.15 450.575 487.516Z" fill="#1C1003"/>
<path opacity="0.5" d="M471.486 469.175C487.89 473.955 504.881 476.439 521.971 476.555C548.699 476.428 512.071 495.405 471.486 469.175Z" fill="#1C1003"/>
<path opacity="0.5" d="M537.103 481.481C535.462 481.335 532.326 477.355 540.622 475.864C548.918 474.374 538.762 481.626 537.103 481.481Z" fill="#1C1003"/>
<g opacity="0.2">
<path d="M409.605 435.747C410.045 435.16 410.259 434.436 410.208 433.706C410.157 432.976 409.844 432.288 409.327 431.768C408.81 431.248 408.123 430.931 407.391 430.874C406.659 430.816 405.931 431.023 405.339 431.457C402.221 433.929 398.812 438.819 395.968 448.162C388.456 472.792 384.117 482.935 400.052 489.97C415.093 496.55 383.661 468.811 409.605 435.747Z" fill="#1C1003"/>
<path d="M416.095 431.148C417.28 428.621 419.741 428.167 427.216 432.62C434.692 437.074 413.451 436.783 416.095 431.148Z" fill="#1C1003"/>
</g>
<path d="M409.352 459.45C432.03 466.175 454.314 474.155 476.1 483.353C518.034 500.694 560.423 521.725 594.353 552.427C595.374 553.372 596.997 551.9 595.958 550.955C562.83 521.017 521.881 500.294 480.968 483.08C457.833 473.112 434.126 464.517 409.972 457.341C409.694 457.257 409.394 457.286 409.137 457.422C408.881 457.559 408.689 457.791 408.605 458.068C408.52 458.346 408.549 458.645 408.686 458.901C408.823 459.156 409.056 459.347 409.334 459.432L409.352 459.45Z" fill="#FF693D"/>
<g opacity="0.3">
<path d="M409.352 459.45C432.03 466.175 454.314 474.155 476.1 483.353C518.034 500.694 560.423 521.725 594.353 552.427C595.374 553.372 596.997 551.9 595.958 550.955C562.83 521.017 521.881 500.294 480.968 483.08C457.833 473.112 434.126 464.517 409.972 457.341C409.694 457.257 409.394 457.286 409.137 457.422C408.881 457.559 408.689 457.791 408.605 458.068C408.52 458.346 408.549 458.645 408.686 458.901C408.823 459.156 409.056 459.347 409.334 459.432L409.352 459.45Z" fill="#1C1003"/>
</g>
<path d="M598.656 552.1C598.656 552.1 599.658 538.431 592.676 543.611C585.693 548.792 595.1 555.426 595.1 555.426C595.1 555.426 581.791 553.282 580.351 561.08C578.91 568.878 595.757 561.643 595.757 561.643C595.757 561.643 583.815 571.622 589.868 575.694C595.921 579.766 601.956 562.098 601.956 562.098C601.956 562.098 600.132 579.439 605.602 575.076C611.072 570.714 606.368 556.899 606.368 556.899C606.368 556.899 617.471 562.152 619.13 553.482C620.789 544.811 606.368 551.518 606.368 551.518C606.368 551.518 616.76 541.375 612.621 537.267C608.483 533.159 598.656 552.1 598.656 552.1Z" fill="#FF693D"/>
<path d="M543.395 514.818C543.395 514.818 557.871 525.452 582.43 523.07C606.988 520.689 543.395 514.818 543.395 514.818Z" fill="#FF693D"/>
<path d="M563.121 526.961C563.121 526.961 578.856 542.266 570.56 550.591C562.264 558.917 570.414 537.867 563.121 526.961Z" fill="#FF693D"/>
<path opacity="0.6" d="M597.926 560.08C596.923 559.026 597.798 556.608 599.877 554.627C601.955 552.645 604.416 551.973 605.346 553.027C606.276 554.081 605.474 556.499 603.395 558.48C601.317 560.462 598.91 561.134 597.926 560.08Z" fill="#1C1003"/>
<path d="M423.664 465.031C446.256 472.036 469.221 477.783 492.454 482.244C537.013 491.133 583.924 497.186 629.194 490.552C630.58 490.352 631.017 492.46 629.705 492.66C585.474 499.149 539.875 493.605 496.282 485.207C471.518 480.598 447.051 474.528 423.008 467.03C422.761 466.923 422.562 466.73 422.45 466.486C422.337 466.242 422.319 465.966 422.398 465.71C422.476 465.453 422.647 465.235 422.878 465.096C423.108 464.957 423.381 464.908 423.646 464.958L423.664 465.031Z" fill="#FF693D"/>
<g opacity="0.3">
<path d="M423.664 465.031C446.256 472.037 469.221 477.784 492.454 482.245C537.013 491.134 583.924 497.187 629.194 490.552C630.58 490.352 631.018 492.461 629.705 492.661C585.474 499.15 539.875 493.606 496.283 485.208C471.519 480.599 447.051 474.529 423.008 467.03C422.761 466.924 422.562 466.73 422.45 466.486C422.337 466.243 422.319 465.966 422.398 465.71C422.477 465.454 422.648 465.235 422.878 465.097C423.108 464.958 423.382 464.909 423.646 464.958L423.664 465.031Z" fill="#1C1003"/>
</g>
<path d="M632.64 493.169C632.64 493.169 625.84 505.075 622.923 496.913C620.005 488.752 631.546 488.443 631.546 488.443C631.546 488.443 619.294 482.826 622.43 475.555C625.566 468.284 635.521 483.644 635.521 483.644C635.521 483.644 631.182 468.702 638.493 468.702C645.804 468.702 640.936 486.698 640.936 486.698C640.936 486.698 649.122 471.302 651.219 477.954C653.315 484.607 641.738 493.441 641.738 493.441C641.738 493.441 653.899 495.259 650.453 503.366C647.007 511.473 638.784 497.913 638.784 497.913C638.784 497.913 641.756 512.11 636.013 513.218C630.27 514.327 632.64 493.169 632.64 493.169Z" fill="#FF693D"/>
<path opacity="0.5" d="M632.64 493.169C632.64 493.169 625.84 505.075 622.923 496.913C620.005 488.752 631.546 488.443 631.546 488.443C631.546 488.443 619.294 482.826 622.43 475.555C625.566 468.284 635.521 483.644 635.521 483.644C635.521 483.644 631.182 468.702 638.493 468.702C645.804 468.702 640.936 486.698 640.936 486.698C640.936 486.698 649.122 471.302 651.219 477.954C653.315 484.607 641.738 493.441 641.738 493.441C641.738 493.441 653.899 495.259 650.453 503.366C647.007 511.473 638.784 497.913 638.784 497.913C638.784 497.913 641.756 512.11 636.013 513.218C630.27 514.327 632.64 493.169 632.64 493.169Z" fill="#1C1003"/>
<path d="M565.912 493.442C565.912 493.442 583.889 492.66 602.942 508.256C621.994 523.852 565.912 493.442 565.912 493.442Z" fill="#FF693D"/>
<path d="M589.049 494.296C589.049 494.296 610.654 490.315 608.466 478.736C606.278 467.157 601.319 489.37 589.049 494.296Z" fill="#FF693D"/>
<path d="M636.486 486.134C635.063 486.461 634.444 488.951 635.082 491.714C635.72 494.477 637.397 496.422 638.728 496.095C640.059 495.768 640.77 493.278 640.114 490.533C639.457 487.788 637.871 485.807 636.486 486.134Z" fill="#FF693D"/>
<path d="M535.975 549.828C536.301 549.785 536.632 549.861 536.907 550.042C537.181 550.223 537.381 550.496 537.47 550.812C537.559 551.128 537.53 551.466 537.389 551.762C537.249 552.059 537.005 552.295 536.704 552.427C534.525 553.397 532.145 553.832 529.763 553.696C527.38 553.56 525.065 552.857 523.012 551.646C519.596 549.771 516.319 547.657 513.203 545.32C513.019 545.174 512.897 544.965 512.859 544.734C512.821 544.503 512.87 544.266 512.997 544.069C513.124 543.873 513.32 543.73 513.547 543.669C513.773 543.607 514.015 543.632 514.224 543.738C520.751 547.265 528.791 550.428 535.975 549.828Z" fill="#FF693D"/>
<path d="M499.948 542.302C504.186 547.783 509.14 552.674 514.679 556.844C514.925 557.017 515.1 557.272 515.173 557.563C515.246 557.854 515.212 558.161 515.078 558.429C514.943 558.697 514.717 558.908 514.44 559.024C514.163 559.14 513.853 559.154 513.567 559.062C508.626 557.462 502.008 553.481 497.596 543.702C497.497 543.4 497.503 543.073 497.615 542.776C497.727 542.478 497.937 542.227 498.21 542.064C498.484 541.902 498.805 541.836 499.121 541.88C499.437 541.923 499.728 542.072 499.948 542.302Z" fill="#FF693D"/>
</svg>
