<svg width="2008" height="2008" viewBox="0 0 2008 2008" fill="none" xmlns="http://www.w3.org/2000/svg">
<g clip-path="url(#clip0_4212_1729)" filter="url(#filter0_d_4212_1729)">
<rect width="2000" height="2000" transform="translate(4)" fill="black" fill-opacity="0"/>
<mask id="mask0_4212_1729" style="mask-type:luminance" maskUnits="userSpaceOnUse" x="4" y="0" width="2000" height="2000">
<path d="M2004 0H4V2000H2004V0Z" fill="white"/>
</mask>
<g mask="url(#mask0_4212_1729)">
<path d="M444.421 1802.8C444.421 1802.8 448.421 1792.68 448.821 1792C450.941 1784 450.461 1768 442.861 1762.88C441.574 1762.1 440.138 1761.59 438.643 1761.4C437.149 1761.2 435.631 1761.32 434.186 1761.75C432.742 1762.18 431.404 1762.91 430.259 1763.89C429.115 1764.87 428.188 1766.08 427.541 1767.44C424.621 1773.12 426.421 1780.8 429.021 1786.24C432.101 1792.72 444.381 1802.8 444.421 1802.8Z" fill="#292926"/>
<path d="M285.14 1778.88C291.22 1782.52 307.06 1784.2 307.06 1784.2C307.06 1784.2 304.98 1773.44 304.78 1772.76C302.26 1765.08 292.78 1751.68 283.74 1751.76C282.235 1751.81 280.758 1752.18 279.406 1752.84C278.053 1753.5 276.855 1754.44 275.889 1755.6C274.923 1756.75 274.211 1758.1 273.799 1759.55C273.387 1760.99 273.285 1762.51 273.5 1764C274.18 1770.36 279.94 1775.76 285.14 1778.88Z" fill="#292926"/>
<path d="M284.738 1824.32C291.298 1826.16 305.898 1823.88 307.058 1823.68C308.356 1832.05 310.2 1840.32 312.578 1848.44C313.938 1853.16 315.458 1857.88 317.058 1862.6C316.018 1860.56 315.058 1858.6 314.898 1858.6C310.418 1851.84 297.818 1841.44 289.058 1843.88C287.619 1844.33 286.292 1845.08 285.161 1846.07C284.03 1847.07 283.122 1848.29 282.495 1849.66C281.869 1851.03 281.538 1852.52 281.525 1854.02C281.511 1855.53 281.816 1857.02 282.418 1858.4C284.778 1864.36 291.738 1868.04 297.578 1869.68C303.418 1871.32 315.978 1869.68 319.298 1869.12C319.898 1870.96 320.498 1872.76 321.138 1874.56C324.178 1883.2 327.258 1891.84 330.018 1900.36C330.978 1903.36 331.858 1906.36 332.698 1909.36C331.778 1907.56 330.978 1906.04 330.818 1905.8C326.338 1899.08 313.738 1888.64 304.978 1891.12C303.539 1891.57 302.212 1892.32 301.081 1893.31C299.95 1894.31 299.042 1895.53 298.415 1896.9C297.789 1898.27 297.458 1899.76 297.445 1901.26C297.431 1902.77 297.736 1904.26 298.338 1905.64C300.698 1911.6 307.658 1915.28 313.498 1916.92C320.52 1917.86 327.646 1917.7 334.618 1916.44C335.378 1919.56 336.178 1922.64 336.818 1925.68C337.178 1927.76 337.698 1929.68 337.938 1931.88C338.178 1934.08 338.578 1935.88 338.858 1938.08C339.298 1942.08 339.778 1946.08 340.098 1950.08C340.338 1952.76 340.498 1955.32 340.698 1958.08C339.778 1955.08 337.818 1949.24 337.618 1948.76C334.178 1941.4 323.298 1929.2 314.298 1930.32C312.809 1930.55 311.385 1931.09 310.118 1931.91C308.85 1932.72 307.767 1933.79 306.939 1935.05C306.11 1936.31 305.553 1937.73 305.305 1939.21C305.057 1940.7 305.123 1942.22 305.498 1943.68C306.938 1949.92 313.258 1954.6 318.778 1957.08C324.298 1959.56 339.058 1959.88 340.858 1959.84C341.138 1964.16 341.418 1968.32 341.578 1972.24C342.098 1983.08 342.218 1992.44 342.178 1999.84H348.178C348.178 1992.36 347.698 1982.88 346.938 1971.84C346.658 1967.48 346.258 1962.84 345.818 1958.04C350.238 1956.96 354.592 1955.63 358.858 1954.04C363.663 1959.33 369.167 1963.93 375.218 1967.72C373.098 1971.44 371.218 1975.08 368.978 1978.44C364.058 1986.72 359.498 1993.88 355.658 1999.72H362.618C365.938 1994.4 369.658 1988.16 373.618 1981.16C375.778 1977.36 378.018 1973.16 380.258 1969.16C381.938 1969.72 395.418 1974.32 402.058 1973.68C408.058 1973.12 415.578 1970.72 418.938 1965.24C419.769 1963.99 420.327 1962.57 420.576 1961.09C420.824 1959.61 420.758 1958.09 420.38 1956.63C420.003 1955.17 419.324 1953.81 418.386 1952.64C417.448 1951.46 416.273 1950.49 414.938 1949.8C406.938 1945.8 392.538 1953.8 386.938 1959.72C386.618 1960.04 383.458 1964.2 381.498 1966.84C382.418 1965.12 383.298 1963.44 384.218 1961.64C386.058 1958.12 387.778 1954.52 389.658 1950.68C390.498 1948.8 391.338 1946.68 392.218 1944.96C393.098 1943.24 393.778 1940.96 394.618 1938.92C396.378 1934.2 397.978 1929.36 399.458 1924.4C402.538 1926 413.618 1931.52 419.698 1931.88C425.778 1932.24 433.538 1930.96 437.658 1926.08C438.699 1924.97 439.49 1923.65 439.978 1922.21C440.467 1920.76 440.641 1919.23 440.49 1917.72C440.338 1916.2 439.864 1914.74 439.1 1913.42C438.336 1912.1 437.298 1910.97 436.058 1910.08C428.618 1904.92 413.298 1910.72 406.858 1915.64C406.458 1915.96 402.258 1920 400.018 1922.28C400.858 1919.32 401.738 1916.36 402.538 1913.32C404.778 1904.52 406.778 1895.56 408.818 1886.64C409.418 1883.92 410.098 1881.2 410.738 1878.64C411.818 1879.2 424.858 1886.04 431.658 1886.44C437.698 1886.8 445.498 1885.56 449.658 1880.68C450.687 1879.56 451.467 1878.24 451.948 1876.8C452.429 1875.36 452.6 1873.83 452.449 1872.32C452.298 1870.81 451.828 1869.35 451.071 1868.03C450.315 1866.72 449.288 1865.57 448.058 1864.68C440.578 1859.52 425.258 1865.28 418.858 1870.24C418.378 1870.6 412.298 1876.44 410.858 1878C412.258 1872 413.738 1866 415.418 1860.24C417.651 1852.37 420.404 1844.66 423.658 1837.16C424.178 1837.4 437.738 1844.64 444.698 1845.16C450.738 1845.48 458.538 1844.24 462.698 1839.36C463.731 1838.24 464.514 1836.92 464.995 1835.48C465.477 1834.03 465.646 1832.5 465.49 1830.99C465.335 1829.48 464.86 1828.01 464.096 1826.7C463.331 1825.38 462.296 1824.25 461.058 1823.36C453.618 1818.2 438.298 1823.96 431.898 1828.92C431.458 1829.24 426.858 1833.68 424.698 1835.88L424.298 1835.56C427.749 1828.08 431.873 1820.93 436.618 1814.2C439.178 1810.48 441.818 1807.04 444.618 1803.76C447.018 1805.36 458.018 1812.56 464.258 1813.6C470.498 1814.64 478.098 1814.24 482.778 1809.84C483.905 1808.84 484.807 1807.6 485.425 1806.22C486.043 1804.85 486.362 1803.35 486.362 1801.84C486.362 1800.33 486.043 1798.84 485.425 1797.46C484.807 1796.08 483.905 1794.85 482.778 1793.84C475.938 1787.92 460.098 1791.96 453.178 1796.16C452.778 1796.4 449.178 1799.12 446.658 1801.16C447.858 1799.72 449.098 1798.16 450.298 1796.8C454.778 1791.6 459.218 1787.12 463.178 1783.2C465.458 1781 467.538 1779.2 469.498 1777.24C472.698 1777.56 485.498 1778.8 491.378 1776.92C497.258 1775.04 503.938 1771.08 506.058 1764.92C506.597 1763.52 506.835 1762.01 506.757 1760.51C506.678 1759.01 506.285 1757.53 505.603 1756.19C504.92 1754.85 503.964 1753.67 502.795 1752.72C501.626 1751.77 500.271 1751.07 498.818 1750.68C490.018 1748.56 477.818 1759.48 473.578 1766.4C473.218 1767 468.618 1777 468.778 1777C466.818 1778.72 464.778 1780.56 462.578 1782.64C458.578 1786.64 453.978 1790.88 449.378 1795.96C444.337 1801.42 439.61 1807.17 435.218 1813.16C430.301 1819.86 425.99 1826.98 422.338 1834.44V1834.72C422.698 1832.08 423.538 1824.68 423.538 1824.12C423.538 1816.12 418.738 1800.36 410.098 1797.6C408.651 1797.19 407.133 1797.08 405.642 1797.29C404.151 1797.49 402.721 1798.01 401.443 1798.81C400.165 1799.6 399.068 1800.66 398.223 1801.9C397.378 1803.15 396.804 1804.56 396.538 1806.04C395.218 1812.32 398.978 1819.24 402.978 1823.8C407.418 1828.96 420.898 1835.12 421.938 1835.6C418.406 1843.29 415.386 1851.2 412.898 1859.28C411.418 1864 410.098 1868.76 408.898 1873.6C409.138 1871.32 409.378 1869.28 409.378 1868.96C409.378 1860.96 404.578 1845.24 395.938 1842.48C394.491 1842.05 392.969 1841.94 391.474 1842.14C389.978 1842.34 388.543 1842.86 387.261 1843.65C385.98 1844.45 384.883 1845.51 384.041 1846.76C383.199 1848.02 382.632 1849.43 382.378 1850.92C381.018 1857.16 384.818 1864.08 388.778 1868.68C392.738 1873.28 404.178 1878.8 407.178 1880.2L405.738 1885.72C403.538 1894.64 401.338 1903.52 398.898 1912.16C398.058 1915.2 397.098 1918.16 396.178 1921.16C396.418 1919.12 396.578 1917.4 396.578 1917.16C396.578 1909.16 391.778 1893.4 383.138 1890.64C381.691 1890.23 380.173 1890.12 378.682 1890.33C377.191 1890.53 375.761 1891.05 374.483 1891.85C373.205 1892.64 372.108 1893.7 371.263 1894.94C370.418 1896.19 369.844 1897.6 369.578 1899.08C368.258 1905.36 372.018 1912.28 375.978 1916.84C381.321 1921.5 387.352 1925.31 393.858 1928.12C392.818 1931.12 391.778 1934.16 390.618 1937.04C389.778 1938.96 389.098 1941.04 388.138 1942.8L385.498 1948.48C383.658 1952.04 381.818 1955.68 379.938 1959.08C378.658 1961.48 377.378 1963.72 375.938 1966C376.818 1962.96 378.418 1957 378.498 1956.52C379.329 1949.44 378.309 1942.26 375.538 1935.68C375.617 1934.9 375.617 1934.11 375.538 1933.32C375.542 1931.8 375.225 1930.3 374.605 1928.91C373.986 1927.52 373.08 1926.28 371.946 1925.27C370.813 1924.25 369.477 1923.49 368.028 1923.03C366.578 1922.57 365.048 1922.43 363.538 1922.6C354.578 1923.8 347.098 1938.36 345.658 1946.32C345.658 1946.8 345.218 1952 345.058 1955.28C345.058 1953.36 344.698 1951.28 344.458 1949.44C344.058 1945.44 343.498 1941.44 342.938 1937.44C342.618 1935.4 342.258 1933.44 341.898 1931.24C341.538 1929.04 341.018 1927.24 340.578 1924.92C339.458 1920 338.098 1915.04 336.578 1910.12C340.058 1909.72 352.338 1908.24 357.578 1905.16C362.818 1902.08 368.618 1896.8 369.578 1890.44C369.816 1888.95 369.737 1887.43 369.346 1885.98C368.955 1884.52 368.261 1883.17 367.309 1882C366.357 1880.83 365.169 1879.88 363.823 1879.21C362.477 1878.53 361.003 1878.15 359.498 1878.08C350.418 1877.88 340.818 1891.16 338.218 1898.8C338.218 1899.28 336.778 1905 336.138 1908.16C335.218 1905.16 334.298 1902.2 333.298 1899.24C330.338 1890.68 327.058 1882.12 323.818 1873.56C322.818 1870.92 321.898 1868.28 320.898 1865.56C322.138 1865.56 336.898 1863.96 342.698 1860.52C347.898 1857.48 353.738 1852.16 354.698 1845.8C354.93 1844.31 354.845 1842.79 354.449 1841.34C354.053 1839.88 353.355 1838.53 352.4 1837.36C351.445 1836.19 350.255 1835.24 348.907 1834.57C347.559 1833.89 346.084 1833.51 344.578 1833.44C335.538 1833.24 325.938 1846.52 323.298 1854.16C323.298 1854.76 321.298 1862.96 320.938 1865.08C318.818 1859.28 316.938 1853.52 314.938 1847.72C312.517 1839.85 310.593 1831.83 309.178 1823.72C309.778 1823.72 325.178 1822.2 331.098 1818.68C336.338 1815.64 342.138 1810.32 343.098 1803.96C343.306 1802.47 343.198 1800.95 342.782 1799.5C342.366 1798.05 341.65 1796.71 340.681 1795.55C339.711 1794.4 338.511 1793.46 337.156 1792.8C335.802 1792.14 334.324 1791.77 332.818 1791.72C323.738 1791.72 314.138 1804.84 311.498 1812.48C311.498 1813 309.938 1819.24 309.378 1822.24H308.858C307.613 1814.09 307.105 1805.84 307.338 1797.6C307.338 1793.08 307.738 1788.76 308.138 1784.56C311.018 1784.56 324.138 1784.56 329.938 1781.96C335.738 1779.36 341.938 1774.84 343.298 1768.6C343.693 1767.15 343.777 1765.63 343.545 1764.14C343.312 1762.65 342.769 1761.23 341.95 1759.96C341.131 1758.7 340.055 1757.62 338.791 1756.8C337.528 1755.98 336.106 1755.44 334.618 1755.2C325.618 1754.04 314.618 1766.16 311.178 1773.48C311.178 1773.88 309.538 1778.12 308.498 1781.24C308.738 1779.36 308.898 1777.24 309.138 1775.6C310.018 1768.8 311.258 1762.6 312.378 1757.16C313.058 1754.04 313.738 1751.28 314.378 1748.64C317.218 1747.2 328.538 1741.2 332.418 1736.36C336.298 1731.52 339.698 1724.36 338.138 1718.36C337.825 1716.88 337.205 1715.49 336.317 1714.26C335.429 1713.04 334.293 1712.02 332.983 1711.26C331.674 1710.51 330.22 1710.04 328.717 1709.88C327.213 1709.73 325.694 1709.89 324.258 1710.36C315.738 1713.48 311.578 1729.32 311.858 1737.4C311.858 1738.08 313.578 1749 313.738 1748.92C313.058 1751.4 312.378 1754.08 311.658 1756.92C310.418 1762.36 309.058 1768.52 308.018 1775.32C306.813 1782.64 306.038 1790.03 305.698 1797.44C305.305 1805.75 305.64 1814.07 306.698 1822.32C306.698 1822.32 306.698 1822.52 306.698 1822.6C305.578 1820.2 302.178 1813.6 301.858 1813.12C297.378 1806.36 284.778 1795.96 276.018 1798.4C274.579 1798.85 273.252 1799.6 272.121 1800.59C270.99 1801.59 270.082 1802.81 269.455 1804.18C268.829 1805.55 268.498 1807.04 268.485 1808.54C268.471 1810.05 268.776 1811.54 269.378 1812.92C271.938 1819 278.898 1822.68 284.738 1824.32Z" fill="#292926"/>
<path d="M211.218 1885.72C211.218 1885.72 213.618 1879.92 213.738 1879.56C214.938 1875.08 214.658 1865.76 210.338 1862.92C209.601 1862.48 208.78 1862.2 207.928 1862.09C207.075 1861.98 206.21 1862.05 205.386 1862.3C204.563 1862.54 203.799 1862.95 203.143 1863.51C202.487 1864.06 201.954 1864.75 201.578 1865.52C200.926 1867.27 200.668 1869.14 200.82 1871C200.972 1872.86 201.531 1874.66 202.458 1876.28C204.893 1879.85 207.845 1883.03 211.218 1885.72Z" fill="#292926"/>
<path d="M120.218 1874.08C124.219 1875.7 128.439 1876.71 132.738 1877.08C132.738 1877.08 131.578 1870.96 131.418 1870.56C129.978 1866.2 124.618 1858.56 119.418 1858.56C118.56 1858.6 117.72 1858.81 116.95 1859.19C116.181 1859.57 115.499 1860.11 114.949 1860.77C114.4 1861.43 113.994 1862.2 113.757 1863.02C113.521 1863.85 113.46 1864.71 113.578 1865.56C114.007 1867.38 114.822 1869.08 115.968 1870.55C117.114 1872.02 118.563 1873.22 120.218 1874.08Z" fill="#292926"/>
<path d="M119.98 1900.72C124.227 1901.25 128.529 1901.13 132.74 1900.36C133.472 1905.13 134.528 1909.85 135.9 1914.48C136.66 1917.16 137.54 1919.88 138.46 1922.48L137.22 1920.16C134.66 1916.16 127.46 1910.36 122.46 1911.76C121.642 1912.02 120.889 1912.45 120.247 1913.02C119.606 1913.59 119.092 1914.28 118.737 1915.06C118.383 1915.85 118.196 1916.69 118.19 1917.55C118.183 1918.41 118.357 1919.26 118.7 1920.04C119.575 1921.66 120.79 1923.06 122.261 1924.16C123.732 1925.26 125.424 1926.02 127.22 1926.4C131.332 1926.92 135.499 1926.81 139.58 1926.08L140.66 1929.16C142.38 1934.12 144.14 1939.04 145.7 1943.88C146.26 1945.6 146.74 1947.32 147.26 1949.04L146.18 1947C143.62 1943 136.42 1937.24 131.42 1938.64C130.602 1938.9 129.849 1939.33 129.207 1939.9C128.566 1940.47 128.052 1941.16 127.697 1941.94C127.343 1942.73 127.156 1943.57 127.15 1944.43C127.143 1945.29 127.317 1946.14 127.66 1946.92C128.538 1948.56 129.769 1949.98 131.263 1951.09C132.756 1952.2 134.476 1952.96 136.3 1953.32C140.288 1953.87 144.337 1953.79 148.3 1953.08C148.74 1954.84 149.18 1956.6 149.54 1958.36C149.78 1959.52 150.06 1960.68 150.22 1961.88C150.38 1963.08 150.54 1964.24 150.74 1965.4C150.98 1967.68 151.22 1970 151.42 1972.2C151.42 1973.76 151.66 1975.2 151.78 1976.68C151.22 1974.96 150.14 1971.64 150.02 1971.36C148.06 1967.16 142.02 1960.2 136.7 1960.84C135.85 1960.98 135.038 1961.29 134.316 1961.75C133.593 1962.22 132.977 1962.83 132.506 1963.55C132.035 1964.27 131.72 1965.08 131.581 1965.93C131.442 1966.78 131.482 1967.65 131.7 1968.48C132.321 1970.23 133.32 1971.82 134.627 1973.15C135.934 1974.47 137.515 1975.48 139.26 1976.12C143.356 1977.28 147.603 1977.82 151.86 1977.72C151.86 1980.16 152.18 1982.52 152.26 1984.76C152.58 1990.96 152.62 1996.28 152.62 2000.52H156.02C156.02 1996.24 155.78 1990.84 155.34 1984.52C155.34 1982.04 154.94 1979.4 154.7 1976.52C157.22 1975.85 159.704 1975.05 162.14 1974.12C164.874 1977.21 168.024 1979.9 171.5 1982.12C170.3 1984.28 169.1 1986.32 167.94 1988.28C165.14 1993 162.54 1997.08 160.34 2000.28H164.34C166.22 1997.24 168.34 1993.68 170.62 1989.68C171.82 1987.52 173.1 1985.2 174.38 1982.76C178.372 1984.25 182.566 1985.12 186.82 1985.36C188.678 1985.3 190.501 1984.85 192.165 1984.02C193.829 1983.19 195.294 1982.01 196.46 1980.56C196.939 1979.85 197.261 1979.04 197.406 1978.19C197.55 1977.34 197.513 1976.47 197.298 1975.63C197.083 1974.8 196.694 1974.02 196.156 1973.34C195.619 1972.67 194.945 1972.12 194.18 1971.72C189.54 1969.48 181.38 1974.04 178.18 1977.36L175.1 1981.36C175.62 1980.4 176.14 1979.44 176.66 1978.4C177.7 1976.4 178.66 1974.4 179.74 1972.16L181.18 1968.88C181.7 1967.8 182.1 1966.6 182.58 1965.44C183.58 1962.76 184.5 1959.96 185.34 1957.16C188.951 1959.16 192.85 1960.59 196.9 1961.4C198.742 1961.64 200.615 1961.47 202.384 1960.9C204.154 1960.33 205.777 1959.39 207.14 1958.12C207.721 1957.49 208.161 1956.73 208.432 1955.92C208.703 1955.1 208.798 1954.23 208.711 1953.38C208.624 1952.52 208.357 1951.69 207.928 1950.94C207.499 1950.2 206.917 1949.55 206.22 1949.04C201.98 1946.12 193.22 1949.4 189.58 1952.24C189.34 1952.24 186.94 1954.72 185.58 1956C186.06 1954.32 186.58 1952.64 187.02 1950.88C188.3 1945.88 189.42 1940.76 190.58 1935.68C190.94 1934.12 191.34 1932.56 191.7 1931C195.444 1933.11 199.492 1934.62 203.7 1935.48C205.548 1935.71 207.424 1935.53 209.198 1934.97C210.973 1934.4 212.604 1933.46 213.98 1932.2C214.561 1931.57 215.001 1930.81 215.272 1930C215.543 1929.18 215.638 1928.31 215.551 1927.46C215.464 1926.6 215.197 1925.77 214.768 1925.02C214.339 1924.28 213.757 1923.63 213.06 1923.12C208.78 1920.2 200.06 1923.48 196.38 1926.28C196.14 1926.52 192.66 1929.84 191.82 1930.72C192.66 1927.32 193.5 1923.92 194.46 1920.6C195.742 1916.11 197.305 1911.7 199.14 1907.4C202.893 1909.5 206.937 1911.02 211.14 1911.92C212.988 1912.15 214.864 1911.97 216.638 1911.41C218.413 1910.84 220.044 1909.9 221.42 1908.64C222.001 1908.01 222.441 1907.25 222.712 1906.44C222.983 1905.62 223.078 1904.75 222.991 1903.9C222.904 1903.04 222.637 1902.21 222.208 1901.46C221.779 1900.72 221.197 1900.07 220.5 1899.56C216.22 1896.6 207.5 1899.92 203.82 1902.72L199.82 1906.72H199.58C201.572 1902.52 203.928 1898.51 206.62 1894.72C208.06 1892.6 209.58 1890.72 211.1 1888.76C214.52 1891.21 218.298 1893.11 222.3 1894.4C224.111 1894.83 225.994 1894.86 227.817 1894.48C229.641 1894.11 231.361 1893.35 232.86 1892.24C233.495 1891.66 234.003 1890.96 234.351 1890.18C234.699 1889.39 234.878 1888.54 234.878 1887.68C234.878 1886.82 234.699 1885.97 234.351 1885.19C234.003 1884.4 233.495 1883.7 232.86 1883.12C228.86 1879.76 219.9 1882.08 215.94 1884.44L212.22 1887.32C212.94 1886.48 213.62 1885.6 214.34 1884.84C216.9 1881.88 219.42 1879.32 221.66 1877.08C222.98 1875.8 224.14 1874.68 225.3 1873.64C229.422 1874.28 233.617 1874.28 237.74 1873.64C239.547 1873.19 241.235 1872.36 242.686 1871.19C244.137 1870.02 245.315 1868.55 246.14 1866.88C246.432 1866.1 246.559 1865.26 246.514 1864.42C246.469 1863.58 246.252 1862.76 245.877 1862.01C245.502 1861.26 244.976 1860.6 244.333 1860.06C243.691 1859.52 242.944 1859.12 242.14 1858.88C237.1 1857.68 230.14 1863.88 227.74 1867.84C227.74 1868.16 224.9 1873.88 224.98 1873.88C223.86 1874.84 222.7 1875.88 221.42 1877.08C219.14 1879.28 216.54 1881.76 213.9 1884.68C211.047 1887.79 208.376 1891.06 205.9 1894.48C203.092 1898.26 200.617 1902.28 198.5 1906.48C198.5 1904.96 199.18 1900.76 199.18 1900.44C199.18 1895.8 196.46 1886.88 191.5 1885.32C190.676 1885.08 189.81 1885.01 188.959 1885.13C188.108 1885.24 187.291 1885.53 186.561 1885.99C185.832 1886.44 185.207 1887.04 184.728 1887.76C184.248 1888.47 183.925 1889.28 183.78 1890.12C183.619 1891.97 183.861 1893.83 184.489 1895.58C185.117 1897.33 186.117 1898.92 187.42 1900.24C190.663 1903.03 194.32 1905.3 198.26 1906.96C196.248 1911.35 194.524 1915.87 193.1 1920.48C192.26 1923.16 191.5 1925.92 190.78 1928.48C190.78 1927.2 191.06 1926 191.06 1925.84C191.06 1921.24 188.3 1912.32 183.38 1910.72C182.553 1910.48 181.686 1910.42 180.835 1910.54C179.984 1910.66 179.168 1910.96 178.439 1911.42C177.711 1911.88 177.087 1912.48 176.608 1913.19C176.129 1913.91 175.806 1914.71 175.66 1915.56C175.499 1917.41 175.741 1919.27 176.369 1921.02C176.997 1922.77 177.997 1924.36 179.3 1925.68C182.444 1928.4 185.993 1930.62 189.82 1932.24L188.98 1935.4C187.7 1940.48 186.46 1945.56 184.98 1950.48C184.5 1952.24 183.94 1953.92 183.42 1955.64C183.42 1954.48 183.42 1953.48 183.42 1953.32C183.42 1948.72 180.7 1939.8 175.78 1938.2C174.951 1937.96 174.082 1937.9 173.228 1938.02C172.374 1938.14 171.555 1938.44 170.824 1938.9C170.092 1939.35 169.465 1939.96 168.982 1940.67C168.499 1941.39 168.171 1942.19 168.02 1943.04C167.856 1944.89 168.1 1946.76 168.736 1948.51C169.372 1950.26 170.383 1951.85 171.7 1953.16C174.743 1955.83 178.184 1958 181.9 1959.6C181.3 1961.32 180.7 1963.04 180.02 1964.68C179.34 1966.32 179.18 1966.88 178.62 1967.96C178.06 1969.04 177.62 1970.16 177.1 1971.2C176.06 1973.24 175.02 1975.2 173.94 1977.28C173.22 1978.64 172.5 1979.92 171.74 1981.28C172.26 1979.56 173.18 1976.16 173.22 1975.88C173.683 1971.8 173.105 1967.68 171.54 1963.88C171.54 1963.44 171.54 1962.96 171.54 1962.52C171.447 1960.93 170.741 1959.44 169.569 1958.35C168.398 1957.27 166.853 1956.69 165.26 1956.72C160.1 1957.44 155.86 1965.72 155.02 1970.28C155.02 1970.52 154.78 1973.52 154.7 1975.4C154.7 1974.28 154.7 1973.2 154.34 1972.04C154.1 1969.8 153.82 1967.56 153.5 1965.12L152.9 1961.6C152.9 1960.4 152.38 1959.2 152.14 1957.96C151.5 1955.16 150.74 1952.36 149.86 1949.52C153.979 1949.21 158.026 1948.26 161.86 1946.72C163.525 1945.9 164.99 1944.72 166.151 1943.27C167.312 1941.82 168.141 1940.13 168.58 1938.32C168.716 1937.47 168.671 1936.6 168.447 1935.77C168.224 1934.94 167.827 1934.16 167.284 1933.49C166.74 1932.82 166.061 1932.28 165.292 1931.89C164.523 1931.5 163.68 1931.28 162.82 1931.24C157.66 1931.24 152.18 1938.72 150.82 1943.24C150.82 1943.52 149.98 1946.76 149.62 1948.56C149.1 1946.88 148.58 1945.2 148.02 1943.48C146.3 1938.6 144.46 1933.72 142.62 1928.84L140.94 1924.36C145.207 1924.03 149.4 1923.06 153.38 1921.48C155.036 1920.64 156.493 1919.46 157.652 1918.01C158.812 1916.56 159.646 1914.88 160.1 1913.08C160.236 1912.23 160.191 1911.36 159.967 1910.53C159.744 1909.7 159.347 1908.92 158.804 1908.25C158.26 1907.58 157.581 1907.04 156.812 1906.65C156.043 1906.26 155.2 1906.04 154.34 1906C149.18 1906 143.7 1913.48 142.34 1918C142.34 1918.32 141.22 1923.04 141.02 1924.24C139.78 1920.92 138.62 1917.64 137.58 1914.32C136.187 1909.87 135.065 1905.35 134.22 1900.76C138.512 1900.43 142.732 1899.46 146.74 1897.88C148.396 1897.04 149.853 1895.86 151.012 1894.41C152.172 1892.96 153.006 1891.28 153.46 1889.48C153.596 1888.63 153.551 1887.76 153.327 1886.93C153.104 1886.1 152.707 1885.32 152.164 1884.65C151.62 1883.98 150.941 1883.44 150.172 1883.05C149.403 1882.66 148.56 1882.44 147.7 1882.4C142.54 1882.4 137.06 1889.88 135.7 1894.4C135.7 1894.68 134.78 1898.4 134.46 1899.96H134.14C133.451 1895.32 133.17 1890.62 133.3 1885.92C133.3 1883.32 133.54 1880.88 133.74 1878.48C137.937 1878.61 142.13 1878.11 146.18 1877C147.923 1876.24 149.476 1875.1 150.728 1873.67C151.98 1872.24 152.899 1870.55 153.42 1868.72C153.637 1867.89 153.679 1867.03 153.542 1866.18C153.406 1865.33 153.094 1864.53 152.627 1863.81C152.161 1863.09 151.549 1862.47 150.831 1862C150.113 1861.53 149.306 1861.22 148.46 1861.08C143.34 1860.4 137.06 1867.32 135.1 1871.52C135.1 1871.72 134.14 1874.16 133.58 1875.96C133.58 1874.88 133.58 1873.76 133.94 1872.72C134.42 1868.72 135.14 1865.32 135.78 1862.2C136.18 1860.44 136.54 1858.84 136.9 1857.36C140.678 1855.57 144.158 1853.21 147.22 1850.36C148.478 1849 149.421 1847.37 149.981 1845.6C150.541 1843.83 150.705 1841.96 150.46 1840.12C150.281 1839.27 149.922 1838.47 149.409 1837.77C148.895 1837.07 148.238 1836.48 147.481 1836.05C146.724 1835.63 145.885 1835.36 145.019 1835.29C144.153 1835.21 143.281 1835.32 142.46 1835.6C137.62 1837.36 135.22 1846.4 135.42 1851C135.42 1851.4 136.38 1857.64 136.46 1857.6C136.1 1859.04 135.7 1860.56 135.3 1862.24C134.58 1865.36 133.78 1868.88 133.22 1872.76C132.531 1876.93 132.09 1881.14 131.9 1885.36C131.674 1890.1 131.861 1894.85 132.46 1899.56L129.7 1894.16C127.14 1890.16 119.94 1884.36 114.94 1885.76C114.122 1886.02 113.369 1886.45 112.726 1887.02C112.084 1887.59 111.568 1888.28 111.21 1889.06C110.852 1889.84 110.661 1890.69 110.649 1891.54C110.637 1892.4 110.804 1893.25 111.14 1894.04C112.021 1895.74 113.272 1897.23 114.802 1898.38C116.332 1899.54 118.101 1900.34 119.98 1900.72Z" fill="#292926"/>
<g opacity="0.3">
<path d="M1383.18 311.48H1379.18V358.6H1383.18V311.48Z" fill="#EC4E20"/>
<path d="M1383.18 455.48H1379.18V502.6H1383.18V455.48Z" fill="#EC4E20"/>
<path d="M1595.26 455.48H1591.26V502.6H1595.26V455.48Z" fill="#EC4E20"/>
<path d="M1480.06 424.08H1476.06V371.08H1292.14V367.08H1480.06V424.08Z" fill="#EC4E20"/>
<path d="M1480.06 573.319H1476.06V520.359H1292.14V516.359H1480.06V573.319Z" fill="#EC4E20"/>
<path d="M1412.62 436.561H1290.14V410.961H1294.14V432.561H1412.62V436.561Z" fill="#EC4E20"/>
<path d="M1684.94 435.16H1504.26V439.16H1684.94V435.16Z" fill="#EC4E20"/>
<path d="M1689.54 570.721H1685.54V525.561H1517.34V521.561H1689.54V570.721Z" fill="#EC4E20"/>
<path d="M1569.74 587.041H1407.38V591.041H1569.74V587.041Z" fill="#EC4E20"/>
<path d="M964.219 238.439H960.219V285.559H964.219V238.439Z" fill="#EC4E20"/>
<path d="M964.219 366.48H960.219V413.6H964.219V366.48Z" fill="#EC4E20"/>
<path d="M1176.3 366.48H1172.3V413.6H1176.3V366.48Z" fill="#EC4E20"/>
<path d="M1061.1 351.041H1057.1V298.041H873.18V294.041H1061.1V351.041Z" fill="#EC4E20"/>
<path d="M1061.1 484.32H1057.1V431.32H873.18V427.32H1061.1V484.32Z" fill="#EC4E20"/>
<path d="M993.66 363.521H871.18V337.961H875.18V359.521H993.66V363.521Z" fill="#EC4E20"/>
<path d="M1265.98 362.121H1085.3V366.121H1265.98V362.121Z" fill="#EC4E20"/>
<path d="M1270.58 481.681H1266.58V436.561H1098.38V432.561H1270.58V481.681Z" fill="#EC4E20"/>
<path d="M1150.78 498H988.422V502H1150.78V498Z" fill="#EC4E20"/>
<path d="M964.219 1272.72H960.219V1319.84H964.219V1272.72Z" fill="#EC4E20"/>
<path d="M964.219 1400.72H960.219V1447.84H964.219V1400.72Z" fill="#EC4E20"/>
<path d="M1176.3 1400.72H1172.3V1447.84H1176.3V1400.72Z" fill="#EC4E20"/>
<path d="M1061.1 1385.32H1057.1V1332.32H873.18V1328.32H1061.1V1385.32Z" fill="#EC4E20"/>
<path d="M1061.1 1518.56H1057.1V1465.56H873.18V1461.56H1061.1V1518.56Z" fill="#EC4E20"/>
<path d="M993.66 1397.8H871.18V1372.24H875.18V1393.8H993.66V1397.8Z" fill="#EC4E20"/>
<path d="M1265.98 1396.4H1085.3V1400.4H1265.98V1396.4Z" fill="#EC4E20"/>
<path d="M1270.58 1515.96H1266.58V1470.8H1098.38V1466.8H1270.58V1515.96Z" fill="#EC4E20"/>
<path d="M1150.78 1532.28H988.422V1536.28H1150.78V1532.28Z" fill="#EC4E20"/>
<path d="M555.859 1272.72H551.859V1319.84H555.859V1272.72Z" fill="#EC4E20"/>
<path d="M555.859 1400.72H551.859V1447.84H555.859V1400.72Z" fill="#EC4E20"/>
<path d="M767.98 1400.72H763.98V1447.84H767.98V1400.72Z" fill="#EC4E20"/>
<path d="M652.74 1385.32H648.74V1332.32H464.82V1328.32H652.74V1385.32Z" fill="#EC4E20"/>
<path d="M652.74 1518.56H648.74V1465.56H464.82V1461.56H652.74V1518.56Z" fill="#EC4E20"/>
<path d="M585.3 1397.8H462.82V1372.24H466.82V1393.8H585.3V1397.8Z" fill="#EC4E20"/>
<path d="M857.621 1396.4H676.941V1400.4H857.621V1396.4Z" fill="#EC4E20"/>
<path d="M862.219 1515.96H858.219V1470.8H690.02V1466.8H862.219V1515.96Z" fill="#EC4E20"/>
<path d="M742.422 1532.28H580.062V1536.28H742.422V1532.28Z" fill="#EC4E20"/>
<path d="M1526.1 1272.72H1522.1V1319.84H1526.1V1272.72Z" fill="#EC4E20"/>
<path d="M1526.1 1400.72H1522.1V1447.84H1526.1V1400.72Z" fill="#EC4E20"/>
<path d="M1738.18 1400.72H1734.18V1447.84H1738.18V1400.72Z" fill="#EC4E20"/>
<path d="M1622.98 1385.32H1618.98V1332.32H1435.06V1328.32H1622.98V1385.32Z" fill="#EC4E20"/>
<path d="M1622.98 1518.56H1618.98V1465.56H1435.06V1461.56H1622.98V1518.56Z" fill="#EC4E20"/>
<path d="M1555.5 1397.8H1433.06V1372.24H1437.06V1393.8H1555.5V1397.8Z" fill="#EC4E20"/>
<path d="M1827.86 1396.4H1647.18V1400.4H1827.86V1396.4Z" fill="#EC4E20"/>
<path d="M1832.46 1515.96H1828.46V1470.8H1660.26V1466.8H1832.46V1515.96Z" fill="#EC4E20"/>
<path d="M1712.62 1532.28H1550.26V1536.28H1712.62V1532.28Z" fill="#EC4E20"/>
<path d="M1526.1 1546.24H1522.1V1593.36H1526.1V1546.24Z" fill="#EC4E20"/>
<path d="M1526.1 1674.28H1522.1V1721.4H1526.1V1674.28Z" fill="#EC4E20"/>
<path d="M1738.18 1674.28H1734.18V1721.4H1738.18V1674.28Z" fill="#EC4E20"/>
<path d="M1622.98 1658.84H1618.98V1605.84H1435.06V1601.84H1622.98V1658.84Z" fill="#EC4E20"/>
<path d="M1622.98 1792.08H1618.98V1739.12H1435.06V1735.12H1622.98V1792.08Z" fill="#EC4E20"/>
<path d="M1555.5 1671.32H1433.06V1645.76H1437.06V1667.32H1555.5V1671.32Z" fill="#EC4E20"/>
<path d="M1827.86 1669.92H1647.18V1673.92H1827.86V1669.92Z" fill="#EC4E20"/>
<path d="M1832.46 1789.48H1828.46V1744.36H1660.26V1740.36H1832.46V1789.48Z" fill="#EC4E20"/>
<path d="M1712.62 1805.8H1550.26V1809.8H1712.62V1805.8Z" fill="#EC4E20"/>
<path d="M164.18 942.199H160.18V989.319H164.18V942.199Z" fill="#EC4E20"/>
<path d="M164.18 1070.24H160.18V1117.36H164.18V1070.24Z" fill="#EC4E20"/>
<path d="M376.262 1070.24H372.262V1117.36H376.262V1070.24Z" fill="#EC4E20"/>
<path d="M261.061 1054.8H257.061V1001.8H73.1406V997.801H261.061V1054.8Z" fill="#EC4E20"/>
<path d="M261.061 1188.04H257.061V1135.08H73.1406V1131.08H261.061V1188.04Z" fill="#EC4E20"/>
<path d="M193.581 1067.28H71.1406V1041.72H75.1406V1063.28H193.581V1067.28Z" fill="#EC4E20"/>
<path d="M465.899 1065.88H285.219V1069.88H465.899V1065.88Z" fill="#EC4E20"/>
<path d="M470.54 1185.44H466.54V1140.32H298.34V1136.32H470.54V1185.44Z" fill="#EC4E20"/>
<path d="M350.7 1201.76H188.34V1205.76H350.7V1201.76Z" fill="#EC4E20"/>
<path d="M1530.1 801.76H1526.1V848.88H1530.1V801.76Z" fill="#EC4E20"/>
<path d="M1530.1 929.801H1526.1V976.921H1530.1V929.801Z" fill="#EC4E20"/>
<path d="M1742.22 929.801H1738.22V976.921H1742.22V929.801Z" fill="#EC4E20"/>
<path d="M1626.98 914.359H1622.98V861.359H1439.06V857.359H1626.98V914.359Z" fill="#EC4E20"/>
<path d="M1626.98 1047.64H1622.98V994.641H1439.06V990.641H1626.98V1047.64Z" fill="#EC4E20"/>
<path d="M1559.5 926.839H1437.06V901.279H1441.06V922.839H1559.5V926.839Z" fill="#EC4E20"/>
<path d="M1831.86 925.48H1651.18V929.48H1831.86V925.48Z" fill="#EC4E20"/>
<path d="M1836.46 1045H1832.46V999.881H1664.26V995.881H1836.46V1045Z" fill="#EC4E20"/>
<path d="M1716.66 1061.32H1554.3V1065.32H1716.66V1061.32Z" fill="#EC4E20"/>
<path d="M164.18 55.1602H160.18V102.28H164.18V55.1602Z" fill="#EC4E20"/>
<path d="M164.18 183.199H160.18V230.319H164.18V183.199Z" fill="#EC4E20"/>
<path d="M376.262 183.199H372.262V230.319H376.262V183.199Z" fill="#EC4E20"/>
<path d="M261.061 167.76H257.061V114.76H73.1406V110.76H261.061V167.76Z" fill="#EC4E20"/>
<path d="M261.061 301.001H257.061V248.041H73.1406V244.041H261.061V301.001Z" fill="#EC4E20"/>
<path d="M193.581 180.24H71.1406V154.68H75.1406V176.24H193.581V180.24Z" fill="#EC4E20"/>
<path d="M465.899 178.84H285.219V182.84H465.899V178.84Z" fill="#EC4E20"/>
<path d="M470.54 298.399H466.54V253.279H298.34V249.279H470.54V298.399Z" fill="#EC4E20"/>
<path d="M350.7 314.721H188.34V318.721H350.7V314.721Z" fill="#EC4E20"/>
<path d="M681.422 864H677.422V911.12H681.422V864Z" fill="#EC4E20"/>
<path d="M681.422 1008H677.422V1055.12H681.422V1008Z" fill="#EC4E20"/>
<path d="M893.5 1008H889.5V1055.12H893.5V1008Z" fill="#EC4E20"/>
<path d="M778.299 976.6H774.299V923.6H590.379V919.6H778.299V976.6Z" fill="#EC4E20"/>
<path d="M778.299 1125.84H774.299V1072.84H590.379V1068.84H778.299V1125.84Z" fill="#EC4E20"/>
<path d="M710.819 989.04H588.379V963.48H592.379V985.04H710.819V989.04Z" fill="#EC4E20"/>
<path d="M983.18 987.68H802.5V991.68H983.18V987.68Z" fill="#EC4E20"/>
<path d="M987.782 1123.2H983.782V1078.08H815.582V1074.08H987.782V1123.2Z" fill="#EC4E20"/>
<path d="M867.981 1139.56H705.621V1143.56H867.981V1139.56Z" fill="#EC4E20"/>
</g>
<path d="M1862.62 318.24L1731.42 208.88L1678.02 176.88C1682.02 172.88 1684.58 169.76 1684.58 169.76C1679.94 165.032 1674.19 161.54 1667.86 159.6L1828.62 88.76V15.36L1653.26 115.88C1652.46 109.6 1651.74 105.04 1651.74 105.04C1643.63 110.148 1636.37 116.491 1630.22 123.84C1628.65 126.042 1627.46 128.489 1626.7 131.08L1618.14 136L1603.78 134.44L1533.54 94.72C1531.64 84.1114 1525.63 74.6809 1516.82 68.48C1497.86 53.68 1453.86 73.16 1453.86 73.16C1465.01 81.898 1476.82 89.7614 1489.18 96.68C1508.66 107.4 1533.74 99.68 1533.74 99.68C1533.76 99.4136 1533.76 99.1464 1533.74 98.88L1579.98 131.96L1492.54 122.32L1462.62 116.56L1400.9 77.96C1400.35 73.6796 1398.85 69.5775 1396.5 65.96C1396.5 65.96 1387.78 49.08 1379.58 34.76C1371.38 20.44 1320.7 0 1320.7 0C1318.17 6.29668 1317.66 13.2191 1319.22 19.8206C1320.78 26.4221 1324.34 32.3802 1329.42 36.88C1339.92 46.4717 1351.05 55.3452 1362.74 63.44C1362.74 63.44 1335.58 47.44 1317.66 44.56C1299.74 41.68 1254.74 55.88 1254.74 55.88C1269.29 65.3522 1284.72 73.3899 1300.82 79.88C1323.86 88.56 1371.46 80.32 1371.46 80.32L1363.46 108.32L1345.58 106.4L1245.58 111.12C1247.26 102.4 1247.98 95.8 1247.98 95.8C1247.98 95.8 1217.14 88.6 1203.22 106.32C1201.18 108.96 1199.22 111.48 1197.54 113.96L1188.18 114.6C1189.22 108.417 1189.22 102.103 1188.18 95.92C1184.58 79.12 1146.54 38.36 1146.54 38.36C1140.25 52.4171 1136.2 67.3713 1134.54 82.68C1133.82 92.08 1139.14 105.44 1145.42 117.68L979.18 129.68C972.74 122.4 958.98 111.4 933.46 109.44C894.94 106.48 853.46 171.68 853.46 171.68C876.16 173.427 898.961 173.427 921.66 171.68C957.22 168.72 983.9 136.12 983.9 136.12L983.22 134.72L1102.46 138.72L903.74 221.96L786.86 225.2C782.324 220.011 776.678 215.91 770.34 213.2C770.34 213.2 743.66 198.4 719.94 186.52C696.22 174.64 610.26 192.48 610.26 192.48C612.498 203.134 617.972 212.836 625.934 220.261C633.896 227.686 643.956 232.47 654.74 233.96C677.311 237.493 700.098 239.471 722.94 239.88C722.94 239.88 672.54 242.72 645.86 254.72C619.18 266.72 571.74 325.88 571.74 325.88C599.631 325.611 627.429 322.624 654.74 316.96C693.26 307.92 749.58 254.72 749.58 254.72L764.42 302.16C764.42 302.16 799.98 275.48 797.02 248.8C796.59 244.92 795.649 241.113 794.22 237.48L885.94 245.84L711.22 337.56L824.22 295.32C804.22 305.96 765.54 333.64 776.9 386.68C792.14 457.56 827.74 488 827.74 488C827.74 488 888.54 373.8 836.02 290.72L980.82 236.6L1146.82 177.32L1095.74 252.92C1087.18 254.85 1079.51 259.58 1073.94 266.36L1067.58 273.2C1055.58 278.08 997.26 305.2 1010.94 368.88C1026.14 439.76 1061.74 470.2 1061.74 470.2C1061.74 470.2 1101.74 395.2 1089.02 322.64C1091.97 312.667 1094.05 302.454 1095.22 292.12C1095.22 292.12 1095.5 320.12 1104.62 334.48C1113.74 348.84 1163.54 374.24 1163.54 374.24C1164.59 358.871 1163.24 343.432 1159.54 328.48C1153.54 307.32 1109.38 277.12 1109.38 277.12L1151.62 268.12C1151.62 268.12 1130.14 249.12 1106.78 251L1221.22 156.04L1225.74 153.56L1345.46 138.96L1351.5 140.44C1347.95 143.948 1344.98 147.999 1342.7 152.44C1338.7 148 1336.14 145.16 1336.14 145.16C1329.87 159.224 1325.82 174.175 1324.14 189.48C1324.25 197.585 1326.12 205.569 1329.62 212.88C1329.68 218.066 1330.31 223.23 1331.5 228.28C1331.5 228.28 1333.1 227.44 1335.74 225.8C1338.3 230.6 1340.94 235.2 1343.38 239.28C1336.78 235.96 1328.1 231.72 1320.02 228C1304.02 220.64 1261.9 244.92 1261.9 244.92C1261.9 244.92 1274.34 274.04 1296.86 274.8C1308.6 275.219 1320.35 274.59 1331.98 272.92L1332.54 273.28C1325.3 275.76 1306.54 282.92 1297.42 293.28C1285.98 306.12 1275.58 360.92 1275.58 360.92C1290.63 357.681 1305.08 352.121 1318.42 344.44C1336.9 332.88 1353.54 282.96 1353.86 282.04L1374.18 320.08C1374.18 320.08 1384.06 299.2 1380.1 279.08C1381.14 278.607 1382.15 278.045 1383.1 277.4C1383.1 277.4 1401.62 268.2 1416.98 259.64C1419.18 258.286 1421.07 256.488 1422.54 254.36L1458.1 245.92L1442.1 319.32C1435.1 321.32 1426.1 324 1418.1 326.64C1401.42 332.12 1386.9 378.64 1386.9 378.64C1386.9 378.64 1415.82 391.56 1432.86 376.88C1442.71 368.498 1451.67 359.114 1459.58 348.88C1459.58 348.88 1445.42 372.88 1445.74 390C1446.06 407.12 1475.58 454.48 1475.58 454.48C1484.44 441.883 1491.28 427.983 1495.86 413.28C1501.66 392.08 1479.5 343.36 1479.5 343.36L1520.3 357.52C1520.3 357.52 1511.66 329.84 1490.42 319.48C1469.18 309.12 1454.78 315.84 1454.78 315.84L1451.5 316.76L1499.5 234.2L1618.06 181.96L1653.02 192.48L1720.1 226.16L1803.66 317.16L1732.58 304.48C1737.38 300.278 1741.87 295.732 1746.02 290.88C1746.02 290.88 1732.46 276.56 1719.18 280.92C1711.5 283.398 1704.1 286.669 1697.1 290.68C1697.1 290.68 1710.98 280.28 1714.9 270.32C1718.82 260.36 1713.18 226.32 1713.18 226.32C1705.07 231.45 1697.81 237.805 1691.66 245.16C1686.5 251.8 1684.94 266.92 1684.46 277.6C1682.18 273.6 1679.14 268.4 1676.26 263.72C1670.5 254.4 1640.26 252.44 1640.26 252.44C1640.26 252.44 1636.7 271.84 1648.26 280C1654.25 284.128 1660.59 287.715 1667.22 290.72C1667.24 290.852 1667.24 290.988 1667.22 291.12C1662.62 289.88 1650.46 287.12 1642.18 289.28C1631.82 292 1607.54 316.8 1607.54 316.8C1616.49 320.319 1625.94 322.425 1635.54 323.04C1649.1 323.44 1674.94 303.28 1675.54 303.04L1672.98 329.76C1680.38 325.082 1686.34 318.433 1690.18 310.56C1690.88 310.598 1691.59 310.598 1692.3 310.56C1692.3 310.56 1705.06 312.16 1715.98 313C1717.59 313.068 1719.2 312.795 1720.7 312.2L1742.06 320.2L1708.42 352.72C1704.1 351.36 1698.58 349.68 1693.46 348.24C1682.9 345.32 1659.42 364.24 1659.42 364.24C1659.42 364.24 1669.94 380.92 1683.86 379.16C1691.85 378.202 1699.72 376.42 1707.34 373.84C1707.34 373.84 1691.78 381.36 1685.98 390.36C1680.18 399.36 1679.22 433.96 1679.22 433.96C1688.14 430.479 1696.46 425.635 1703.9 419.6C1714.02 410.72 1719.22 377.72 1719.22 377.72L1735.5 399.12C1735.5 399.12 1740.54 381.8 1733.14 369.12C1725.74 356.44 1715.86 354.92 1715.86 354.92L1713.86 354.28L1767.3 328.08L1987.86 366.32L2013.18 328.24L1862.62 318.24ZM1398.1 93.6C1399.2 91.4345 1400.02 89.1355 1400.54 86.76L1437.26 116.32L1370.26 109.04C1379.22 107.48 1392.98 103.48 1398.1 93.6ZM1431.74 232.6C1434.41 222.795 1436.38 212.809 1437.62 202.72C1437.62 202.72 1406.78 195.56 1392.86 213.24C1384.79 223.362 1377.81 234.302 1372.02 245.88C1372.02 245.88 1381.34 219.68 1377.74 202.88C1376.97 199.883 1375.8 197.003 1374.26 194.32C1385.64 182.376 1394.32 168.119 1399.7 152.52L1538.1 186.56L1431.74 232.6Z" fill="#292926"/>
</g>
</g>
<defs>
<filter id="filter0_d_4212_1729" x="0" y="0" width="2008" height="2008" filterUnits="userSpaceOnUse" color-interpolation-filters="sRGB">
<feFlood flood-opacity="0" result="BackgroundImageFix"/>
<feColorMatrix in="SourceAlpha" type="matrix" values="0 0 0 0 0 0 0 0 0 0 0 0 0 0 0 0 0 0 127 0" result="hardAlpha"/>
<feOffset dy="4"/>
<feGaussianBlur stdDeviation="2"/>
<feComposite in2="hardAlpha" operator="out"/>
<feColorMatrix type="matrix" values="0 0 0 0 0 0 0 0 0 0 0 0 0 0 0 0 0 0 0.25 0"/>
<feBlend mode="normal" in2="BackgroundImageFix" result="effect1_dropShadow_4212_1729"/>
<feBlend mode="normal" in="SourceGraphic" in2="effect1_dropShadow_4212_1729" result="shape"/>
</filter>
<clipPath id="clip0_4212_1729">
<rect width="2000" height="2000" fill="white" transform="translate(4)"/>
</clipPath>
</defs>
</svg>
