<svg width="1898" height="1859" viewBox="0 0 1898 1859" fill="none" xmlns="http://www.w3.org/2000/svg">
<path d="M1772.18 925.32C1752.5 1091.72 1676.5 1285.32 1524.74 1374.16C1295.42 1508.48 1314.62 1715.12 867.22 1804.96C801.932 1818.36 735.382 1824.64 668.74 1823.68C636.136 1823.09 603.603 1820.42 571.34 1815.68C286.66 1774.2 95.2197 1576.44 25.0197 1337.76C-67.4203 1023.84 117.14 818.321 239.46 694.481C361.78 570.641 451.22 184.841 890.7 93.0805C957.731 78.8126 1026.18 72.3031 1094.7 73.6805C1251.02 77.6805 1421.54 128.84 1539.5 236.001C1548.33 244.001 1556.95 252.32 1565.38 260.96C1729.3 429.281 1798.98 698.4 1772.18 925.32Z" fill="#292926"/>
<path opacity="0.7" d="M1772.18 925.32C1752.5 1091.72 1676.5 1285.32 1524.74 1374.16C1295.42 1508.48 1314.62 1715.12 867.22 1804.96C801.932 1818.36 735.382 1824.64 668.74 1823.68C636.136 1823.09 603.603 1820.42 571.34 1815.68C286.66 1774.2 95.2197 1576.44 25.0197 1337.76C-67.4203 1023.84 117.14 818.321 239.46 694.481C361.78 570.641 451.22 184.841 890.7 93.0805C957.731 78.8126 1026.18 72.3031 1094.7 73.6805C1251.02 77.6805 1421.54 128.84 1539.5 236.001C1548.33 244.001 1556.95 252.32 1565.38 260.96C1729.3 429.281 1798.98 698.4 1772.18 925.32Z" fill="white"/>
<path d="M440.421 1660.8C440.421 1660.8 444.421 1650.68 444.821 1650C446.941 1642 446.461 1626 438.861 1620.88C437.574 1620.1 436.138 1619.59 434.643 1619.4C433.149 1619.2 431.631 1619.32 430.186 1619.75C428.742 1620.18 427.404 1620.91 426.259 1621.89C425.115 1622.87 424.188 1624.08 423.541 1625.44C420.621 1631.12 422.421 1638.8 425.021 1644.24C428.101 1650.72 440.381 1660.8 440.421 1660.8Z" fill="#292926"/>
<path d="M281.14 1636.88C287.22 1640.52 303.06 1642.2 303.06 1642.2C303.06 1642.2 300.98 1631.44 300.78 1630.76C298.26 1623.08 288.78 1609.68 279.74 1609.76C278.235 1609.81 276.758 1610.18 275.406 1610.84C274.053 1611.5 272.855 1612.44 271.889 1613.6C270.923 1614.75 270.211 1616.1 269.799 1617.55C269.387 1618.99 269.285 1620.51 269.5 1622C270.18 1628.36 275.94 1633.76 281.14 1636.88Z" fill="#292926"/>
<path d="M280.738 1683.32C287.298 1685.16 301.898 1682.88 303.058 1682.68C304.356 1691.05 306.2 1699.32 308.578 1707.44C309.938 1712.16 311.458 1716.88 313.058 1721.6C312.018 1719.56 311.058 1717.6 310.898 1717.6C306.418 1710.84 293.818 1700.44 285.058 1702.88C283.619 1703.33 282.292 1704.08 281.161 1705.07C280.03 1706.07 279.122 1707.29 278.495 1708.66C277.869 1710.03 277.538 1711.52 277.525 1713.02C277.511 1714.53 277.816 1716.02 278.418 1717.4C280.778 1723.36 287.738 1727.04 293.578 1728.68C299.418 1730.32 311.978 1728.68 315.298 1728.12C315.898 1729.96 316.498 1731.76 317.138 1733.56C320.178 1742.2 323.258 1750.84 326.018 1759.36C326.978 1762.36 327.858 1765.36 328.698 1768.36C327.778 1766.56 326.978 1765.04 326.818 1764.8C322.338 1758.08 309.738 1747.64 300.978 1750.12C299.539 1750.57 298.212 1751.32 297.081 1752.31C295.95 1753.31 295.042 1754.53 294.415 1755.9C293.789 1757.27 293.458 1758.76 293.445 1760.26C293.431 1761.77 293.736 1763.26 294.338 1764.64C296.698 1770.6 303.658 1774.28 309.498 1775.92C316.52 1776.86 323.646 1776.7 330.618 1775.44C331.378 1778.56 332.178 1781.64 332.818 1784.68C333.178 1786.76 333.698 1788.68 333.938 1790.88C334.178 1793.08 334.578 1794.88 334.858 1797.08C335.298 1801.08 335.778 1805.08 336.098 1809.08C336.338 1811.76 336.498 1814.32 336.698 1817.08C335.778 1814.08 333.818 1808.24 333.618 1807.76C330.178 1800.4 319.298 1788.2 310.298 1789.32C308.809 1789.55 307.385 1790.09 306.118 1790.91C304.85 1791.72 303.767 1792.79 302.939 1794.05C302.11 1795.31 301.553 1796.73 301.305 1798.21C301.057 1799.7 301.123 1801.22 301.498 1802.68C302.938 1808.92 309.258 1813.6 314.778 1816.08C320.298 1818.56 335.058 1818.88 336.858 1818.84C337.138 1823.16 337.418 1827.32 337.578 1831.24C338.098 1842.08 338.218 1851.44 338.178 1858.84H344.178C344.178 1851.36 343.698 1841.88 342.938 1830.84C342.658 1826.48 342.258 1821.84 341.818 1817.04C346.238 1815.96 350.592 1814.63 354.858 1813.04C359.663 1818.33 365.167 1822.93 371.218 1826.72C369.098 1830.44 367.218 1834.08 364.978 1837.44C360.058 1845.72 355.498 1852.88 351.658 1858.72H358.618C361.938 1853.4 365.658 1847.16 369.618 1840.16C371.778 1836.36 374.018 1832.16 376.258 1828.16C377.938 1828.72 391.418 1833.32 398.058 1832.68C404.058 1832.12 411.578 1829.72 414.938 1824.24C415.769 1822.99 416.327 1821.57 416.576 1820.09C416.824 1818.61 416.758 1817.09 416.38 1815.63C416.003 1814.17 415.324 1812.81 414.386 1811.64C413.448 1810.46 412.273 1809.49 410.938 1808.8C402.938 1804.8 388.538 1812.8 382.938 1818.72C382.618 1819.04 379.458 1823.2 377.498 1825.84C378.418 1824.12 379.298 1822.44 380.218 1820.64C382.058 1817.12 383.778 1813.52 385.658 1809.68C386.498 1807.8 387.338 1805.68 388.218 1803.96C389.098 1802.24 389.778 1799.96 390.618 1797.92C392.378 1793.2 393.978 1788.36 395.458 1783.4C398.538 1785 409.618 1790.52 415.698 1790.88C421.778 1791.24 429.538 1789.96 433.658 1785.08C434.699 1783.97 435.49 1782.65 435.978 1781.21C436.467 1779.76 436.641 1778.23 436.49 1776.72C436.338 1775.2 435.864 1773.74 435.1 1772.42C434.336 1771.1 433.298 1769.97 432.058 1769.08C424.618 1763.92 409.298 1769.72 402.858 1774.64C402.458 1774.96 398.258 1779 396.018 1781.28C396.858 1778.32 397.738 1775.36 398.538 1772.32C400.778 1763.52 402.778 1754.56 404.818 1745.64C405.418 1742.92 406.098 1740.2 406.738 1737.64C407.818 1738.2 420.858 1745.04 427.658 1745.44C433.698 1745.8 441.498 1744.56 445.658 1739.68C446.687 1738.56 447.467 1737.24 447.948 1735.8C448.429 1734.36 448.6 1732.83 448.449 1731.32C448.298 1729.81 447.828 1728.35 447.071 1727.03C446.315 1725.72 445.288 1724.57 444.058 1723.68C436.578 1718.52 421.258 1724.28 414.858 1729.24C414.378 1729.6 408.298 1735.44 406.858 1737C408.258 1731 409.738 1725 411.418 1719.24C413.651 1711.37 416.404 1703.66 419.658 1696.16C420.178 1696.4 433.738 1703.64 440.698 1704.16C446.738 1704.48 454.538 1703.24 458.698 1698.36C459.731 1697.24 460.514 1695.92 460.995 1694.48C461.477 1693.03 461.646 1691.5 461.49 1689.99C461.335 1688.48 460.86 1687.01 460.096 1685.7C459.331 1684.38 458.296 1683.25 457.058 1682.36C449.618 1677.2 434.298 1682.96 427.898 1687.92C427.458 1688.24 422.858 1692.68 420.698 1694.88L420.298 1694.56C423.749 1687.08 427.873 1679.93 432.618 1673.2C435.178 1669.48 437.818 1666.04 440.618 1662.76C443.018 1664.36 454.018 1671.56 460.258 1672.6C466.498 1673.64 474.098 1673.24 478.778 1668.84C479.905 1667.84 480.807 1666.6 481.425 1665.22C482.043 1663.85 482.362 1662.35 482.362 1660.84C482.362 1659.33 482.043 1657.84 481.425 1656.46C480.807 1655.08 479.905 1653.85 478.778 1652.84C471.938 1646.92 456.098 1650.96 449.178 1655.16C448.778 1655.4 445.178 1658.12 442.658 1660.16C443.858 1658.72 445.098 1657.16 446.298 1655.8C450.778 1650.6 455.218 1646.12 459.178 1642.2C461.458 1640 463.538 1638.2 465.498 1636.24C468.698 1636.56 481.498 1637.8 487.378 1635.92C493.258 1634.04 499.938 1630.08 502.058 1623.92C502.597 1622.52 502.835 1621.01 502.757 1619.51C502.678 1618.01 502.285 1616.53 501.603 1615.19C500.92 1613.85 499.964 1612.67 498.795 1611.72C497.626 1610.77 496.271 1610.07 494.818 1609.68C486.018 1607.56 473.818 1618.48 469.578 1625.4C469.218 1626 464.618 1636 464.778 1636C462.818 1637.72 460.778 1639.56 458.578 1641.64C454.578 1645.64 449.978 1649.88 445.378 1654.96C440.337 1660.42 435.61 1666.17 431.218 1672.16C426.301 1678.86 421.99 1685.98 418.338 1693.44V1693.72C418.698 1691.08 419.538 1683.68 419.538 1683.12C419.538 1675.12 414.738 1659.36 406.098 1656.6C404.651 1656.19 403.133 1656.08 401.642 1656.29C400.151 1656.49 398.721 1657.01 397.443 1657.81C396.165 1658.6 395.068 1659.66 394.223 1660.9C393.378 1662.15 392.804 1663.56 392.538 1665.04C391.218 1671.32 394.978 1678.24 398.978 1682.8C403.418 1687.96 416.898 1694.12 417.938 1694.6C414.406 1702.29 411.386 1710.2 408.898 1718.28C407.418 1723 406.098 1727.76 404.898 1732.6C405.138 1730.32 405.378 1728.28 405.378 1727.96C405.378 1719.96 400.578 1704.24 391.938 1701.48C390.491 1701.05 388.969 1700.94 387.474 1701.14C385.978 1701.34 384.543 1701.86 383.261 1702.65C381.98 1703.45 380.883 1704.51 380.041 1705.76C379.199 1707.02 378.632 1708.43 378.378 1709.92C377.018 1716.16 380.818 1723.08 384.778 1727.68C388.738 1732.28 400.178 1737.8 403.178 1739.2L401.738 1744.72C399.538 1753.64 397.338 1762.52 394.898 1771.16C394.058 1774.2 393.098 1777.16 392.178 1780.16C392.418 1778.12 392.578 1776.4 392.578 1776.16C392.578 1768.16 387.778 1752.4 379.138 1749.64C377.691 1749.23 376.173 1749.12 374.682 1749.33C373.191 1749.53 371.761 1750.05 370.483 1750.85C369.205 1751.64 368.108 1752.7 367.263 1753.94C366.418 1755.19 365.844 1756.6 365.578 1758.08C364.258 1764.36 368.018 1771.28 371.978 1775.84C377.321 1780.5 383.352 1784.31 389.858 1787.12C388.818 1790.12 387.778 1793.16 386.618 1796.04C385.778 1797.96 385.098 1800.04 384.138 1801.8L381.498 1807.48C379.658 1811.04 377.818 1814.68 375.938 1818.08C374.658 1820.48 373.378 1822.72 371.938 1825C372.818 1821.96 374.418 1816 374.498 1815.52C375.329 1808.44 374.309 1801.26 371.538 1794.68C371.617 1793.9 371.617 1793.11 371.538 1792.32C371.542 1790.8 371.225 1789.3 370.605 1787.91C369.986 1786.52 369.08 1785.28 367.946 1784.27C366.813 1783.25 365.477 1782.49 364.028 1782.03C362.578 1781.57 361.048 1781.43 359.538 1781.6C350.578 1782.8 343.098 1797.36 341.658 1805.32C341.658 1805.8 341.218 1811 341.058 1814.28C341.058 1812.36 340.698 1810.28 340.458 1808.44C340.058 1804.44 339.498 1800.44 338.938 1796.44C338.618 1794.4 338.258 1792.44 337.898 1790.24C337.538 1788.04 337.018 1786.24 336.578 1783.92C335.458 1779 334.098 1774.04 332.578 1769.12C336.058 1768.72 348.338 1767.24 353.578 1764.16C358.818 1761.08 364.618 1755.8 365.578 1749.44C365.816 1747.95 365.737 1746.43 365.346 1744.98C364.955 1743.52 364.261 1742.17 363.309 1741C362.357 1739.83 361.169 1738.88 359.823 1738.21C358.477 1737.53 357.003 1737.15 355.498 1737.08C346.418 1736.88 336.818 1750.16 334.218 1757.8C334.218 1758.28 332.778 1764 332.138 1767.16C331.218 1764.16 330.298 1761.2 329.298 1758.24C326.338 1749.68 323.058 1741.12 319.818 1732.56C318.818 1729.92 317.898 1727.28 316.898 1724.56C318.138 1724.56 332.898 1722.96 338.698 1719.52C343.898 1716.48 349.738 1711.16 350.698 1704.8C350.93 1703.31 350.845 1701.79 350.449 1700.34C350.053 1698.88 349.355 1697.53 348.4 1696.36C347.445 1695.19 346.255 1694.24 344.907 1693.57C343.559 1692.89 342.084 1692.51 340.578 1692.44C331.538 1692.24 321.938 1705.52 319.298 1713.16C319.298 1713.76 317.298 1721.96 316.938 1724.08C314.818 1718.28 312.938 1712.52 310.938 1706.72C308.517 1698.85 306.593 1690.83 305.178 1682.72C305.778 1682.72 321.178 1681.2 327.098 1677.68C332.338 1674.64 338.138 1669.32 339.098 1662.96C339.306 1661.47 339.198 1659.95 338.782 1658.5C338.366 1657.05 337.65 1655.71 336.681 1654.55C335.711 1653.4 334.511 1652.46 333.156 1651.8C331.802 1651.14 330.324 1650.77 328.818 1650.72C319.738 1650.72 310.138 1663.84 307.498 1671.48C307.498 1672 305.938 1678.24 305.378 1681.24H304.858C303.613 1673.09 303.105 1664.84 303.338 1656.6C303.338 1652.08 303.738 1647.76 304.138 1643.56C307.018 1643.56 320.138 1643.56 325.938 1640.96C331.738 1638.36 337.938 1633.84 339.298 1627.6C339.693 1626.15 339.777 1624.63 339.545 1623.14C339.312 1621.65 338.769 1620.23 337.95 1618.96C337.131 1617.7 336.055 1616.62 334.791 1615.8C333.528 1614.98 332.106 1614.44 330.618 1614.2C321.618 1613.04 310.618 1625.16 307.178 1632.48C307.178 1632.88 305.538 1637.12 304.498 1640.24C304.738 1638.36 304.898 1636.24 305.138 1634.6C306.018 1627.8 307.258 1621.6 308.378 1616.16C309.058 1613.04 309.738 1610.28 310.378 1607.64C313.218 1606.2 324.538 1600.2 328.418 1595.36C332.298 1590.52 335.698 1583.36 334.138 1577.36C333.825 1575.88 333.205 1574.49 332.317 1573.26C331.429 1572.04 330.293 1571.02 328.983 1570.26C327.674 1569.51 326.22 1569.04 324.717 1568.88C323.213 1568.73 321.694 1568.89 320.258 1569.36C311.738 1572.48 307.578 1588.32 307.858 1596.4C307.858 1597.08 309.578 1608 309.738 1607.92C309.058 1610.4 308.378 1613.08 307.658 1615.92C306.418 1621.36 305.058 1627.52 304.018 1634.32C302.813 1641.64 302.038 1649.03 301.698 1656.44C301.305 1664.75 301.64 1673.07 302.698 1681.32C302.698 1681.32 302.698 1681.52 302.698 1681.6C301.578 1679.2 298.178 1672.6 297.858 1672.12C293.378 1665.36 280.778 1654.96 272.018 1657.4C270.579 1657.85 269.252 1658.6 268.121 1659.59C266.99 1660.59 266.082 1661.81 265.455 1663.18C264.829 1664.55 264.498 1666.04 264.485 1667.54C264.471 1669.05 264.776 1670.54 265.378 1671.92C267.938 1678 274.898 1681.68 280.738 1683.32Z" fill="#292926"/>
<path opacity="0.3" d="M281.14 1636.88C287.22 1640.52 303.06 1642.2 303.06 1642.2C303.06 1642.2 300.98 1631.44 300.78 1630.76C298.26 1623.08 288.78 1609.68 279.74 1609.76C278.235 1609.81 276.758 1610.18 275.406 1610.84C274.053 1611.5 272.855 1612.44 271.889 1613.6C270.923 1614.75 270.211 1616.1 269.799 1617.55C269.387 1618.99 269.285 1620.51 269.5 1622C270.18 1628.36 275.94 1633.76 281.14 1636.88Z" fill="#292926"/>
<path opacity="0.3" d="M440.421 1660.8C440.421 1660.8 444.421 1650.68 444.821 1650C446.941 1642 446.461 1626 438.861 1620.88C437.574 1620.1 436.138 1619.59 434.643 1619.4C433.149 1619.2 431.631 1619.32 430.186 1619.75C428.742 1620.18 427.404 1620.91 426.259 1621.89C425.115 1622.87 424.188 1624.08 423.541 1625.44C420.621 1631.12 422.421 1638.8 425.021 1644.24C428.101 1650.72 440.381 1660.8 440.421 1660.8Z" fill="#292926"/>
<path opacity="0.3" d="M280.738 1683.32C287.298 1685.16 301.898 1682.88 303.058 1682.68C304.356 1691.05 306.2 1699.32 308.578 1707.44C309.938 1712.16 311.458 1716.88 313.058 1721.6C312.018 1719.56 311.058 1717.6 310.898 1717.6C306.418 1710.84 293.818 1700.44 285.058 1702.88C283.619 1703.33 282.292 1704.08 281.161 1705.07C280.03 1706.07 279.122 1707.29 278.495 1708.66C277.869 1710.03 277.538 1711.52 277.525 1713.02C277.511 1714.53 277.816 1716.02 278.418 1717.4C280.778 1723.36 287.738 1727.04 293.578 1728.68C299.418 1730.32 311.978 1728.68 315.298 1728.12C315.898 1729.96 316.498 1731.76 317.138 1733.56C320.178 1742.2 323.258 1750.84 326.018 1759.36C326.978 1762.36 327.858 1765.36 328.698 1768.36C327.778 1766.56 326.978 1765.04 326.818 1764.8C322.338 1758.08 309.738 1747.64 300.978 1750.12C299.539 1750.57 298.212 1751.32 297.081 1752.31C295.95 1753.31 295.042 1754.53 294.415 1755.9C293.789 1757.27 293.458 1758.76 293.445 1760.26C293.431 1761.77 293.736 1763.26 294.338 1764.64C296.698 1770.6 303.658 1774.28 309.498 1775.92C316.52 1776.86 323.646 1776.7 330.618 1775.44C331.378 1778.56 332.178 1781.64 332.818 1784.68C333.178 1786.76 333.698 1788.68 333.938 1790.88C334.178 1793.08 334.578 1794.88 334.858 1797.08C335.298 1801.08 335.778 1805.08 336.098 1809.08C336.338 1811.76 336.498 1814.32 336.698 1817.08C335.778 1814.08 333.818 1808.24 333.618 1807.76C330.178 1800.4 319.298 1788.2 310.298 1789.32C308.809 1789.55 307.385 1790.09 306.118 1790.91C304.85 1791.72 303.767 1792.79 302.939 1794.05C302.11 1795.31 301.553 1796.73 301.305 1798.21C301.057 1799.7 301.123 1801.22 301.498 1802.68C302.938 1808.92 309.258 1813.6 314.778 1816.08C320.298 1818.56 335.058 1818.88 336.858 1818.84C337.138 1823.16 337.418 1827.32 337.578 1831.24C338.098 1842.08 338.218 1851.44 338.178 1858.84H344.178C344.178 1851.36 343.698 1841.88 342.938 1830.84C342.658 1826.48 342.258 1821.84 341.818 1817.04C346.238 1815.96 350.592 1814.63 354.858 1813.04C359.663 1818.33 365.167 1822.93 371.218 1826.72C369.098 1830.44 367.218 1834.08 364.978 1837.44C360.058 1845.72 355.498 1852.88 351.658 1858.72H358.618C361.938 1853.4 365.658 1847.16 369.618 1840.16C371.778 1836.36 374.018 1832.16 376.258 1828.16C377.938 1828.72 391.418 1833.32 398.058 1832.68C404.058 1832.12 411.578 1829.72 414.938 1824.24C415.769 1822.99 416.327 1821.57 416.576 1820.09C416.824 1818.61 416.758 1817.09 416.38 1815.63C416.003 1814.17 415.324 1812.81 414.386 1811.64C413.448 1810.46 412.273 1809.49 410.938 1808.8C402.938 1804.8 388.538 1812.8 382.938 1818.72C382.618 1819.04 379.458 1823.2 377.498 1825.84C378.418 1824.12 379.298 1822.44 380.218 1820.64C382.058 1817.12 383.778 1813.52 385.658 1809.68C386.498 1807.8 387.338 1805.68 388.218 1803.96C389.098 1802.24 389.778 1799.96 390.618 1797.92C392.378 1793.2 393.978 1788.36 395.458 1783.4C398.538 1785 409.618 1790.52 415.698 1790.88C421.778 1791.24 429.538 1789.96 433.658 1785.08C434.699 1783.97 435.49 1782.65 435.978 1781.21C436.467 1779.76 436.641 1778.23 436.49 1776.72C436.338 1775.2 435.864 1773.74 435.1 1772.42C434.336 1771.1 433.298 1769.97 432.058 1769.08C424.618 1763.92 409.298 1769.72 402.858 1774.64C402.458 1774.96 398.258 1779 396.018 1781.28C396.858 1778.32 397.738 1775.36 398.538 1772.32C400.778 1763.52 402.778 1754.56 404.818 1745.64C405.418 1742.92 406.098 1740.2 406.738 1737.64C407.818 1738.2 420.858 1745.04 427.658 1745.44C433.698 1745.8 441.498 1744.56 445.658 1739.68C446.687 1738.56 447.467 1737.24 447.948 1735.8C448.429 1734.36 448.6 1732.83 448.449 1731.32C448.298 1729.81 447.828 1728.35 447.071 1727.03C446.315 1725.72 445.288 1724.57 444.058 1723.68C436.578 1718.52 421.258 1724.28 414.858 1729.24C414.378 1729.6 408.298 1735.44 406.858 1737C408.258 1731 409.738 1725 411.418 1719.24C413.651 1711.37 416.404 1703.66 419.658 1696.16C420.178 1696.4 433.738 1703.64 440.698 1704.16C446.738 1704.48 454.538 1703.24 458.698 1698.36C459.731 1697.24 460.514 1695.92 460.995 1694.48C461.477 1693.03 461.646 1691.5 461.49 1689.99C461.335 1688.48 460.86 1687.01 460.096 1685.7C459.331 1684.38 458.296 1683.25 457.058 1682.36C449.618 1677.2 434.298 1682.96 427.898 1687.92C427.458 1688.24 422.858 1692.68 420.698 1694.88L420.298 1694.56C423.749 1687.08 427.873 1679.93 432.618 1673.2C435.178 1669.48 437.818 1666.04 440.618 1662.76C443.018 1664.36 454.018 1671.56 460.258 1672.6C466.498 1673.64 474.098 1673.24 478.778 1668.84C479.905 1667.84 480.807 1666.6 481.425 1665.22C482.043 1663.85 482.362 1662.35 482.362 1660.84C482.362 1659.33 482.043 1657.84 481.425 1656.46C480.807 1655.08 479.905 1653.85 478.778 1652.84C471.938 1646.92 456.098 1650.96 449.178 1655.16C448.778 1655.4 445.178 1658.12 442.658 1660.16C443.858 1658.72 445.098 1657.16 446.298 1655.8C450.778 1650.6 455.218 1646.12 459.178 1642.2C461.458 1640 463.538 1638.2 465.498 1636.24C468.698 1636.56 481.498 1637.8 487.378 1635.92C493.258 1634.04 499.938 1630.08 502.058 1623.92C502.597 1622.52 502.835 1621.01 502.757 1619.51C502.678 1618.01 502.285 1616.53 501.603 1615.19C500.92 1613.85 499.964 1612.67 498.795 1611.72C497.626 1610.77 496.271 1610.07 494.818 1609.68C486.018 1607.56 473.818 1618.48 469.578 1625.4C469.218 1626 464.618 1636 464.778 1636C462.818 1637.72 460.778 1639.56 458.578 1641.64C454.578 1645.64 449.978 1649.88 445.378 1654.96C440.337 1660.42 435.61 1666.17 431.218 1672.16C426.301 1678.86 421.99 1685.98 418.338 1693.44V1693.72C418.698 1691.08 419.538 1683.68 419.538 1683.12C419.538 1675.12 414.738 1659.36 406.098 1656.6C404.651 1656.19 403.133 1656.08 401.642 1656.29C400.151 1656.49 398.721 1657.01 397.443 1657.81C396.165 1658.6 395.068 1659.66 394.223 1660.9C393.378 1662.15 392.804 1663.56 392.538 1665.04C391.218 1671.32 394.978 1678.24 398.978 1682.8C403.418 1687.96 416.898 1694.12 417.938 1694.6C414.406 1702.29 411.386 1710.2 408.898 1718.28C407.418 1723 406.098 1727.76 404.898 1732.6C405.138 1730.32 405.378 1728.28 405.378 1727.96C405.378 1719.96 400.578 1704.24 391.938 1701.48C390.491 1701.05 388.969 1700.94 387.474 1701.14C385.978 1701.34 384.543 1701.86 383.261 1702.65C381.98 1703.45 380.883 1704.51 380.041 1705.76C379.199 1707.02 378.632 1708.43 378.378 1709.92C377.018 1716.16 380.818 1723.08 384.778 1727.68C388.738 1732.28 400.178 1737.8 403.178 1739.2L401.738 1744.72C399.538 1753.64 397.338 1762.52 394.898 1771.16C394.058 1774.2 393.098 1777.16 392.178 1780.16C392.418 1778.12 392.578 1776.4 392.578 1776.16C392.578 1768.16 387.778 1752.4 379.138 1749.64C377.691 1749.23 376.173 1749.12 374.682 1749.33C373.191 1749.53 371.761 1750.05 370.483 1750.85C369.205 1751.64 368.108 1752.7 367.263 1753.94C366.418 1755.19 365.844 1756.6 365.578 1758.08C364.258 1764.36 368.018 1771.28 371.978 1775.84C377.321 1780.5 383.352 1784.31 389.858 1787.12C388.818 1790.12 387.778 1793.16 386.618 1796.04C385.778 1797.96 385.098 1800.04 384.138 1801.8L381.498 1807.48C379.658 1811.04 377.818 1814.68 375.938 1818.08C374.658 1820.48 373.378 1822.72 371.938 1825C372.818 1821.96 374.418 1816 374.498 1815.52C375.329 1808.44 374.309 1801.26 371.538 1794.68C371.617 1793.9 371.617 1793.11 371.538 1792.32C371.542 1790.8 371.225 1789.3 370.605 1787.91C369.986 1786.52 369.08 1785.28 367.946 1784.27C366.813 1783.25 365.477 1782.49 364.028 1782.03C362.578 1781.57 361.048 1781.43 359.538 1781.6C350.578 1782.8 343.098 1797.36 341.658 1805.32C341.658 1805.8 341.218 1811 341.058 1814.28C341.058 1812.36 340.698 1810.28 340.458 1808.44C340.058 1804.44 339.498 1800.44 338.938 1796.44C338.618 1794.4 338.258 1792.44 337.898 1790.24C337.538 1788.04 337.018 1786.24 336.578 1783.92C335.458 1779 334.098 1774.04 332.578 1769.12C336.058 1768.72 348.338 1767.24 353.578 1764.16C358.818 1761.08 364.618 1755.8 365.578 1749.44C365.816 1747.95 365.737 1746.43 365.346 1744.98C364.955 1743.52 364.261 1742.17 363.309 1741C362.357 1739.83 361.169 1738.88 359.823 1738.21C358.477 1737.53 357.003 1737.15 355.498 1737.08C346.418 1736.88 336.818 1750.16 334.218 1757.8C334.218 1758.28 332.778 1764 332.138 1767.16C331.218 1764.16 330.298 1761.2 329.298 1758.24C326.338 1749.68 323.058 1741.12 319.818 1732.56C318.818 1729.92 317.898 1727.28 316.898 1724.56C318.138 1724.56 332.898 1722.96 338.698 1719.52C343.898 1716.48 349.738 1711.16 350.698 1704.8C350.93 1703.31 350.845 1701.79 350.449 1700.34C350.053 1698.88 349.355 1697.53 348.4 1696.36C347.445 1695.19 346.255 1694.24 344.907 1693.57C343.559 1692.89 342.084 1692.51 340.578 1692.44C331.538 1692.24 321.938 1705.52 319.298 1713.16C319.298 1713.76 317.298 1721.96 316.938 1724.08C314.818 1718.28 312.938 1712.52 310.938 1706.72C308.517 1698.85 306.593 1690.83 305.178 1682.72C305.778 1682.72 321.178 1681.2 327.098 1677.68C332.338 1674.64 338.138 1669.32 339.098 1662.96C339.306 1661.47 339.198 1659.95 338.782 1658.5C338.366 1657.05 337.65 1655.71 336.681 1654.55C335.711 1653.4 334.511 1652.46 333.156 1651.8C331.802 1651.14 330.324 1650.77 328.818 1650.72C319.738 1650.72 310.138 1663.84 307.498 1671.48C307.498 1672 305.938 1678.24 305.378 1681.24H304.858C303.613 1673.09 303.105 1664.84 303.338 1656.6C303.338 1652.08 303.738 1647.76 304.138 1643.56C307.018 1643.56 320.138 1643.56 325.938 1640.96C331.738 1638.36 337.938 1633.84 339.298 1627.6C339.693 1626.15 339.777 1624.63 339.545 1623.14C339.312 1621.65 338.769 1620.23 337.95 1618.96C337.131 1617.7 336.055 1616.62 334.791 1615.8C333.528 1614.98 332.106 1614.44 330.618 1614.2C321.618 1613.04 310.618 1625.16 307.178 1632.48C307.178 1632.88 305.538 1637.12 304.498 1640.24C304.738 1638.36 304.898 1636.24 305.138 1634.6C306.018 1627.8 307.258 1621.6 308.378 1616.16C309.058 1613.04 309.738 1610.28 310.378 1607.64C313.218 1606.2 324.538 1600.2 328.418 1595.36C332.298 1590.52 335.698 1583.36 334.138 1577.36C333.825 1575.88 333.205 1574.49 332.317 1573.26C331.429 1572.04 330.293 1571.02 328.983 1570.26C327.674 1569.51 326.22 1569.04 324.717 1568.88C323.213 1568.73 321.694 1568.89 320.258 1569.36C311.738 1572.48 307.578 1588.32 307.858 1596.4C307.858 1597.08 309.578 1608 309.738 1607.92C309.058 1610.4 308.378 1613.08 307.658 1615.92C306.418 1621.36 305.058 1627.52 304.018 1634.32C302.813 1641.64 302.038 1649.03 301.698 1656.44C301.305 1664.75 301.64 1673.07 302.698 1681.32C302.698 1681.32 302.698 1681.52 302.698 1681.6C301.578 1679.2 298.178 1672.6 297.858 1672.12C293.378 1665.36 280.778 1654.96 272.018 1657.4C270.579 1657.85 269.252 1658.6 268.121 1659.59C266.99 1660.59 266.082 1661.81 265.455 1663.18C264.829 1664.55 264.498 1666.04 264.485 1667.54C264.471 1669.05 264.776 1670.54 265.378 1671.92C267.938 1678 274.898 1681.68 280.738 1683.32Z" fill="#292926"/>
<path d="M207.218 1745.72C207.218 1745.72 209.618 1739.92 209.738 1739.56C210.938 1735.08 210.658 1725.76 206.338 1722.92C205.601 1722.48 204.78 1722.2 203.928 1722.09C203.075 1721.98 202.21 1722.05 201.386 1722.3C200.563 1722.54 199.799 1722.95 199.143 1723.51C198.487 1724.06 197.954 1724.75 197.578 1725.52C196.926 1727.27 196.668 1729.14 196.82 1731C196.972 1732.86 197.531 1734.66 198.458 1736.28C200.893 1739.85 203.845 1743.03 207.218 1745.72Z" fill="#292926"/>
<path d="M116.218 1732.08C120.219 1733.7 124.439 1734.71 128.738 1735.08C128.738 1735.08 127.578 1728.96 127.418 1728.56C125.978 1724.2 120.618 1716.56 115.418 1716.56C114.56 1716.6 113.72 1716.81 112.95 1717.19C112.181 1717.57 111.499 1718.11 110.949 1718.77C110.4 1719.43 109.994 1720.2 109.757 1721.02C109.521 1721.85 109.46 1722.71 109.578 1723.56C110.007 1725.38 110.822 1727.08 111.968 1728.55C113.114 1730.02 114.563 1731.22 116.218 1732.08Z" fill="#292926"/>
<path d="M115.98 1758.72C120.227 1759.25 124.529 1759.13 128.74 1758.36C129.472 1763.13 130.528 1767.85 131.9 1772.48C132.66 1775.16 133.54 1777.88 134.46 1780.48L133.22 1778.16C130.66 1774.16 123.46 1768.36 118.46 1769.76C117.642 1770.02 116.889 1770.45 116.247 1771.02C115.606 1771.59 115.092 1772.28 114.737 1773.06C114.383 1773.85 114.196 1774.69 114.19 1775.55C114.183 1776.41 114.357 1777.26 114.7 1778.04C115.575 1779.66 116.79 1781.06 118.261 1782.16C119.732 1783.26 121.424 1784.02 123.22 1784.4C127.332 1784.92 131.499 1784.81 135.58 1784.08L136.66 1787.16C138.38 1792.12 140.14 1797.04 141.7 1801.88C142.26 1803.6 142.74 1805.32 143.26 1807.04L142.18 1805C139.62 1801 132.42 1795.24 127.42 1796.64C126.602 1796.9 125.849 1797.33 125.207 1797.9C124.566 1798.47 124.052 1799.16 123.697 1799.94C123.343 1800.73 123.156 1801.57 123.15 1802.43C123.143 1803.29 123.317 1804.14 123.66 1804.92C124.538 1806.56 125.769 1807.98 127.263 1809.09C128.756 1810.2 130.476 1810.96 132.3 1811.32C136.288 1811.87 140.337 1811.79 144.3 1811.08C144.74 1812.84 145.18 1814.6 145.54 1816.36C145.78 1817.52 146.06 1818.68 146.22 1819.88C146.38 1821.08 146.54 1822.24 146.74 1823.4C146.98 1825.68 147.22 1828 147.42 1830.2C147.42 1831.76 147.66 1833.2 147.78 1834.68C147.22 1832.96 146.14 1829.64 146.02 1829.36C144.06 1825.16 138.02 1818.2 132.7 1818.84C131.85 1818.98 131.038 1819.29 130.316 1819.75C129.593 1820.22 128.977 1820.83 128.506 1821.55C128.035 1822.27 127.72 1823.08 127.581 1823.93C127.442 1824.78 127.482 1825.65 127.7 1826.48C128.321 1828.23 129.32 1829.82 130.627 1831.15C131.934 1832.47 133.515 1833.48 135.26 1834.12C139.356 1835.28 143.603 1835.82 147.86 1835.72C147.86 1838.16 148.18 1840.52 148.26 1842.76C148.58 1848.96 148.62 1854.28 148.62 1858.52H152.02C152.02 1854.24 151.78 1848.84 151.34 1842.52C151.34 1840.04 150.94 1837.4 150.7 1834.52C153.22 1833.85 155.704 1833.05 158.14 1832.12C160.874 1835.21 164.024 1837.9 167.5 1840.12C166.3 1842.28 165.1 1844.32 163.94 1846.28C161.14 1851 158.54 1855.08 156.34 1858.28H160.34C162.22 1855.24 164.34 1851.68 166.62 1847.68C167.82 1845.52 169.1 1843.2 170.38 1840.76C174.372 1842.25 178.566 1843.12 182.82 1843.36C184.678 1843.3 186.501 1842.85 188.165 1842.02C189.829 1841.19 191.294 1840.01 192.46 1838.56C192.939 1837.85 193.261 1837.04 193.406 1836.19C193.55 1835.34 193.513 1834.47 193.298 1833.63C193.083 1832.8 192.694 1832.02 192.156 1831.34C191.619 1830.67 190.945 1830.12 190.18 1829.72C185.54 1827.48 177.38 1832.04 174.18 1835.36L171.1 1839.36C171.62 1838.4 172.14 1837.44 172.66 1836.4C173.7 1834.4 174.66 1832.4 175.74 1830.16L177.18 1826.88C177.7 1825.8 178.1 1824.6 178.58 1823.44C179.58 1820.76 180.5 1817.96 181.34 1815.16C184.951 1817.16 188.85 1818.59 192.9 1819.4C194.742 1819.64 196.615 1819.47 198.384 1818.9C200.154 1818.33 201.777 1817.39 203.14 1816.12C203.721 1815.49 204.161 1814.73 204.432 1813.92C204.703 1813.1 204.798 1812.23 204.711 1811.38C204.624 1810.52 204.357 1809.69 203.928 1808.94C203.499 1808.2 202.917 1807.55 202.22 1807.04C197.98 1804.12 189.22 1807.4 185.58 1810.24C185.34 1810.24 182.94 1812.72 181.58 1814C182.06 1812.32 182.58 1810.64 183.02 1808.88C184.3 1803.88 185.42 1798.76 186.58 1793.68C186.94 1792.12 187.34 1790.56 187.7 1789C191.444 1791.11 195.492 1792.62 199.7 1793.48C201.548 1793.71 203.424 1793.53 205.198 1792.97C206.973 1792.4 208.604 1791.46 209.98 1790.2C210.561 1789.57 211.001 1788.81 211.272 1788C211.543 1787.18 211.638 1786.31 211.551 1785.46C211.464 1784.6 211.197 1783.77 210.768 1783.02C210.339 1782.28 209.757 1781.63 209.06 1781.12C204.78 1778.2 196.06 1781.48 192.38 1784.28C192.14 1784.52 188.66 1787.84 187.82 1788.72C188.66 1785.32 189.5 1781.92 190.46 1778.6C191.742 1774.11 193.305 1769.7 195.14 1765.4C198.893 1767.5 202.937 1769.02 207.14 1769.92C208.988 1770.15 210.864 1769.97 212.638 1769.41C214.413 1768.84 216.044 1767.9 217.42 1766.64C218.001 1766.01 218.441 1765.25 218.712 1764.44C218.983 1763.62 219.078 1762.75 218.991 1761.9C218.904 1761.04 218.637 1760.21 218.208 1759.46C217.779 1758.72 217.197 1758.07 216.5 1757.56C212.22 1754.6 203.5 1757.92 199.82 1760.72L195.82 1764.72H195.58C197.572 1760.52 199.928 1756.51 202.62 1752.72C204.06 1750.6 205.58 1748.72 207.1 1746.76C210.52 1749.21 214.298 1751.11 218.3 1752.4C220.111 1752.83 221.994 1752.86 223.817 1752.48C225.641 1752.11 227.361 1751.35 228.86 1750.24C229.495 1749.66 230.003 1748.96 230.351 1748.18C230.699 1747.39 230.878 1746.54 230.878 1745.68C230.878 1744.82 230.699 1743.97 230.351 1743.19C230.003 1742.4 229.495 1741.7 228.86 1741.12C224.86 1737.76 215.9 1740.08 211.94 1742.44L208.22 1745.32C208.94 1744.48 209.62 1743.6 210.34 1742.84C212.9 1739.88 215.42 1737.32 217.66 1735.08C218.98 1733.8 220.14 1732.68 221.3 1731.64C225.422 1732.28 229.617 1732.28 233.74 1731.64C235.547 1731.19 237.235 1730.36 238.686 1729.19C240.137 1728.02 241.315 1726.55 242.14 1724.88C242.432 1724.1 242.559 1723.26 242.514 1722.42C242.469 1721.58 242.252 1720.76 241.877 1720.01C241.502 1719.26 240.976 1718.6 240.333 1718.06C239.691 1717.52 238.944 1717.12 238.14 1716.88C233.1 1715.68 226.14 1721.88 223.74 1725.84C223.74 1726.16 220.9 1731.88 220.98 1731.88C219.86 1732.84 218.7 1733.88 217.42 1735.08C215.14 1737.28 212.54 1739.76 209.9 1742.68C207.047 1745.79 204.376 1749.06 201.9 1752.48C199.092 1756.26 196.617 1760.28 194.5 1764.48C194.5 1762.96 195.18 1758.76 195.18 1758.44C195.18 1753.8 192.46 1744.88 187.5 1743.32C186.676 1743.08 185.81 1743.01 184.959 1743.13C184.108 1743.24 183.291 1743.53 182.561 1743.99C181.832 1744.44 181.207 1745.04 180.728 1745.76C180.248 1746.47 179.925 1747.28 179.78 1748.12C179.619 1749.97 179.861 1751.83 180.489 1753.58C181.117 1755.33 182.117 1756.92 183.42 1758.24C186.663 1761.03 190.32 1763.3 194.26 1764.96C192.248 1769.35 190.524 1773.87 189.1 1778.48C188.26 1781.16 187.5 1783.92 186.78 1786.48C186.78 1785.2 187.06 1784 187.06 1783.84C187.06 1779.24 184.3 1770.32 179.38 1768.72C178.553 1768.48 177.686 1768.42 176.835 1768.54C175.984 1768.66 175.168 1768.96 174.439 1769.42C173.711 1769.88 173.087 1770.48 172.608 1771.19C172.129 1771.91 171.806 1772.71 171.66 1773.56C171.499 1775.41 171.741 1777.27 172.369 1779.02C172.997 1780.77 173.997 1782.36 175.3 1783.68C178.444 1786.4 181.993 1788.62 185.82 1790.24L184.98 1793.4C183.7 1798.48 182.46 1803.56 180.98 1808.48C180.5 1810.24 179.94 1811.92 179.42 1813.64C179.42 1812.48 179.42 1811.48 179.42 1811.32C179.42 1806.72 176.7 1797.8 171.78 1796.2C170.951 1795.96 170.082 1795.9 169.228 1796.02C168.374 1796.14 167.555 1796.44 166.824 1796.9C166.092 1797.35 165.465 1797.96 164.982 1798.67C164.499 1799.39 164.171 1800.19 164.02 1801.04C163.856 1802.89 164.1 1804.76 164.736 1806.51C165.372 1808.26 166.383 1809.85 167.7 1811.16C170.743 1813.83 174.184 1816 177.9 1817.6C177.3 1819.32 176.7 1821.04 176.02 1822.68C175.34 1824.32 175.18 1824.88 174.62 1825.96C174.06 1827.04 173.62 1828.16 173.1 1829.2C172.06 1831.24 171.02 1833.2 169.94 1835.28C169.22 1836.64 168.5 1837.92 167.74 1839.28C168.26 1837.56 169.18 1834.16 169.22 1833.88C169.683 1829.8 169.105 1825.68 167.54 1821.88C167.54 1821.44 167.54 1820.96 167.54 1820.52C167.447 1818.93 166.741 1817.44 165.569 1816.35C164.398 1815.27 162.853 1814.69 161.26 1814.72C156.1 1815.44 151.86 1823.72 151.02 1828.28C151.02 1828.52 150.78 1831.52 150.7 1833.4C150.7 1832.28 150.7 1831.2 150.34 1830.04C150.1 1827.8 149.82 1825.56 149.5 1823.12L148.9 1819.6C148.9 1818.4 148.38 1817.2 148.14 1815.96C147.5 1813.16 146.74 1810.36 145.86 1807.52C149.979 1807.21 154.026 1806.26 157.86 1804.72C159.525 1803.9 160.99 1802.72 162.151 1801.27C163.312 1799.82 164.141 1798.13 164.58 1796.32C164.716 1795.47 164.671 1794.6 164.447 1793.77C164.224 1792.94 163.827 1792.16 163.284 1791.49C162.74 1790.82 162.061 1790.28 161.292 1789.89C160.523 1789.5 159.68 1789.28 158.82 1789.24C153.66 1789.24 148.18 1796.72 146.82 1801.24C146.82 1801.52 145.98 1804.76 145.62 1806.56C145.1 1804.88 144.58 1803.2 144.02 1801.48C142.3 1796.6 140.46 1791.72 138.62 1786.84L136.94 1782.36C141.207 1782.03 145.4 1781.06 149.38 1779.48C151.036 1778.64 152.493 1777.46 153.652 1776.01C154.812 1774.56 155.646 1772.88 156.1 1771.08C156.236 1770.23 156.191 1769.36 155.967 1768.53C155.744 1767.7 155.347 1766.92 154.804 1766.25C154.26 1765.58 153.581 1765.04 152.812 1764.65C152.043 1764.26 151.2 1764.04 150.34 1764C145.18 1764 139.7 1771.48 138.34 1776C138.34 1776.32 137.22 1781.04 137.02 1782.24C135.78 1778.92 134.62 1775.64 133.58 1772.32C132.187 1767.87 131.065 1763.35 130.22 1758.76C134.512 1758.43 138.732 1757.46 142.74 1755.88C144.396 1755.04 145.853 1753.86 147.012 1752.41C148.172 1750.96 149.006 1749.28 149.46 1747.48C149.596 1746.63 149.551 1745.76 149.327 1744.93C149.104 1744.1 148.707 1743.32 148.164 1742.65C147.62 1741.98 146.941 1741.44 146.172 1741.05C145.403 1740.66 144.56 1740.44 143.7 1740.4C138.54 1740.4 133.06 1747.88 131.7 1752.4C131.7 1752.68 130.78 1756.4 130.46 1757.96H130.14C129.451 1753.32 129.17 1748.62 129.3 1743.92C129.3 1741.32 129.54 1738.88 129.74 1736.48C133.937 1736.61 138.13 1736.11 142.18 1735C143.923 1734.24 145.476 1733.1 146.728 1731.67C147.98 1730.24 148.899 1728.55 149.42 1726.72C149.637 1725.89 149.679 1725.03 149.542 1724.18C149.406 1723.33 149.094 1722.53 148.627 1721.81C148.161 1721.09 147.549 1720.47 146.831 1720C146.113 1719.53 145.306 1719.22 144.46 1719.08C139.34 1718.4 133.06 1725.32 131.1 1729.52C131.1 1729.72 130.14 1732.16 129.58 1733.96C129.58 1732.88 129.58 1731.76 129.94 1730.72C130.42 1726.72 131.14 1723.32 131.78 1720.2C132.18 1718.44 132.54 1716.84 132.9 1715.36C136.678 1713.57 140.158 1711.21 143.22 1708.36C144.478 1707 145.421 1705.37 145.981 1703.6C146.541 1701.83 146.705 1699.96 146.46 1698.12C146.281 1697.27 145.922 1696.47 145.409 1695.77C144.895 1695.07 144.238 1694.48 143.481 1694.05C142.724 1693.63 141.885 1693.36 141.019 1693.29C140.153 1693.21 139.281 1693.32 138.46 1693.6C133.62 1695.36 131.22 1704.4 131.42 1709C131.42 1709.4 132.38 1715.64 132.46 1715.6C132.1 1717.04 131.7 1718.56 131.3 1720.24C130.58 1723.36 129.78 1726.88 129.22 1730.76C128.531 1734.93 128.09 1739.14 127.9 1743.36C127.674 1748.1 127.861 1752.85 128.46 1757.56L125.7 1752.16C123.14 1748.16 115.94 1742.36 110.94 1743.76C110.122 1744.02 109.369 1744.45 108.726 1745.02C108.084 1745.59 107.568 1746.28 107.21 1747.06C106.852 1747.84 106.661 1748.69 106.649 1749.54C106.637 1750.4 106.804 1751.25 107.14 1752.04C108.021 1753.74 109.272 1755.23 110.802 1756.38C112.332 1757.54 114.101 1758.34 115.98 1758.72Z" fill="#292926"/>
<path opacity="0.3" d="M116.218 1732.08C120.219 1733.7 124.439 1734.71 128.738 1735.08C128.738 1735.08 127.578 1728.96 127.418 1728.56C125.978 1724.2 120.618 1716.56 115.418 1716.56C114.56 1716.6 113.72 1716.81 112.95 1717.19C112.181 1717.57 111.499 1718.11 110.949 1718.77C110.4 1719.43 109.994 1720.2 109.757 1721.02C109.521 1721.85 109.46 1722.71 109.578 1723.56C110.007 1725.38 110.822 1727.08 111.968 1728.55C113.114 1730.02 114.563 1731.22 116.218 1732.08Z" fill="#292926"/>
<path opacity="0.3" d="M207.218 1745.72C207.218 1745.72 209.618 1739.92 209.738 1739.56C210.938 1735.08 210.658 1725.76 206.338 1722.92C205.601 1722.48 204.78 1722.2 203.928 1722.09C203.075 1721.98 202.21 1722.05 201.386 1722.3C200.563 1722.54 199.799 1722.95 199.143 1723.51C198.487 1724.06 197.954 1724.75 197.578 1725.52C196.926 1727.27 196.668 1729.14 196.82 1731C196.972 1732.86 197.531 1734.66 198.458 1736.28C200.893 1739.85 203.845 1743.03 207.218 1745.72Z" fill="#292926"/>
<path opacity="0.3" d="M115.98 1758.72C120.227 1759.25 124.529 1759.13 128.74 1758.36C129.472 1763.13 130.528 1767.85 131.9 1772.48C132.66 1775.16 133.54 1777.88 134.46 1780.48L133.22 1778.16C130.66 1774.16 123.46 1768.36 118.46 1769.76C117.642 1770.02 116.889 1770.45 116.247 1771.02C115.606 1771.59 115.092 1772.28 114.737 1773.06C114.383 1773.85 114.196 1774.69 114.19 1775.55C114.183 1776.41 114.357 1777.26 114.7 1778.04C115.575 1779.66 116.79 1781.06 118.261 1782.16C119.732 1783.26 121.424 1784.02 123.22 1784.4C127.332 1784.92 131.499 1784.81 135.58 1784.08L136.66 1787.16C138.38 1792.12 140.14 1797.04 141.7 1801.88C142.26 1803.6 142.74 1805.32 143.26 1807.04L142.18 1805C139.62 1801 132.42 1795.24 127.42 1796.64C126.602 1796.9 125.849 1797.33 125.207 1797.9C124.566 1798.47 124.052 1799.16 123.697 1799.94C123.343 1800.73 123.156 1801.57 123.15 1802.43C123.143 1803.29 123.317 1804.14 123.66 1804.92C124.538 1806.56 125.769 1807.98 127.263 1809.09C128.756 1810.2 130.476 1810.96 132.3 1811.32C136.288 1811.87 140.337 1811.79 144.3 1811.08C144.74 1812.84 145.18 1814.6 145.54 1816.36C145.78 1817.52 146.06 1818.68 146.22 1819.88C146.38 1821.08 146.54 1822.24 146.74 1823.4C146.98 1825.68 147.22 1828 147.42 1830.2C147.42 1831.76 147.66 1833.2 147.78 1834.68C147.22 1832.96 146.14 1829.64 146.02 1829.36C144.06 1825.16 138.02 1818.2 132.7 1818.84C131.85 1818.98 131.038 1819.29 130.316 1819.75C129.593 1820.22 128.977 1820.83 128.506 1821.55C128.035 1822.27 127.72 1823.08 127.581 1823.93C127.442 1824.78 127.482 1825.65 127.7 1826.48C128.321 1828.23 129.32 1829.82 130.627 1831.15C131.934 1832.47 133.515 1833.48 135.26 1834.12C139.356 1835.28 143.603 1835.82 147.86 1835.72C147.86 1838.16 148.18 1840.52 148.26 1842.76C148.58 1848.96 148.62 1854.28 148.62 1858.52H152.02C152.02 1854.24 151.78 1848.84 151.34 1842.52C151.34 1840.04 150.94 1837.4 150.7 1834.52C153.22 1833.85 155.704 1833.05 158.14 1832.12C160.874 1835.21 164.024 1837.9 167.5 1840.12C166.3 1842.28 165.1 1844.32 163.94 1846.28C161.14 1851 158.54 1855.08 156.34 1858.28H160.34C162.22 1855.24 164.34 1851.68 166.62 1847.68C167.82 1845.52 169.1 1843.2 170.38 1840.76C174.372 1842.25 178.566 1843.12 182.82 1843.36C184.678 1843.3 186.501 1842.85 188.165 1842.02C189.829 1841.19 191.294 1840.01 192.46 1838.56C192.939 1837.85 193.261 1837.04 193.406 1836.19C193.55 1835.34 193.513 1834.47 193.298 1833.63C193.083 1832.8 192.694 1832.02 192.156 1831.34C191.619 1830.67 190.945 1830.12 190.18 1829.72C185.54 1827.48 177.38 1832.04 174.18 1835.36L171.1 1839.36C171.62 1838.4 172.14 1837.44 172.66 1836.4C173.7 1834.4 174.66 1832.4 175.74 1830.16L177.18 1826.88C177.7 1825.8 178.1 1824.6 178.58 1823.44C179.58 1820.76 180.5 1817.96 181.34 1815.16C184.951 1817.16 188.85 1818.59 192.9 1819.4C194.742 1819.64 196.615 1819.47 198.384 1818.9C200.154 1818.33 201.777 1817.39 203.14 1816.12C203.721 1815.49 204.161 1814.73 204.432 1813.92C204.703 1813.1 204.798 1812.23 204.711 1811.38C204.624 1810.52 204.357 1809.69 203.928 1808.94C203.499 1808.2 202.917 1807.55 202.22 1807.04C197.98 1804.12 189.22 1807.4 185.58 1810.24C185.34 1810.24 182.94 1812.72 181.58 1814C182.06 1812.32 182.58 1810.64 183.02 1808.88C184.3 1803.88 185.42 1798.76 186.58 1793.68C186.94 1792.12 187.34 1790.56 187.7 1789C191.444 1791.11 195.492 1792.62 199.7 1793.48C201.548 1793.71 203.424 1793.53 205.198 1792.97C206.973 1792.4 208.604 1791.46 209.98 1790.2C210.561 1789.57 211.001 1788.81 211.272 1788C211.543 1787.18 211.638 1786.31 211.551 1785.46C211.464 1784.6 211.197 1783.77 210.768 1783.02C210.339 1782.28 209.757 1781.63 209.06 1781.12C204.78 1778.2 196.06 1781.48 192.38 1784.28C192.14 1784.52 188.66 1787.84 187.82 1788.72C188.66 1785.32 189.5 1781.92 190.46 1778.6C191.742 1774.11 193.305 1769.7 195.14 1765.4C198.893 1767.5 202.937 1769.02 207.14 1769.92C208.988 1770.15 210.864 1769.97 212.638 1769.41C214.413 1768.84 216.044 1767.9 217.42 1766.64C218.001 1766.01 218.441 1765.25 218.712 1764.44C218.983 1763.62 219.078 1762.75 218.991 1761.9C218.904 1761.04 218.637 1760.21 218.208 1759.46C217.779 1758.72 217.197 1758.07 216.5 1757.56C212.22 1754.6 203.5 1757.92 199.82 1760.72L195.82 1764.72H195.58C197.572 1760.52 199.928 1756.51 202.62 1752.72C204.06 1750.6 205.58 1748.72 207.1 1746.76C210.52 1749.21 214.298 1751.11 218.3 1752.4C220.111 1752.83 221.994 1752.86 223.817 1752.48C225.641 1752.11 227.361 1751.35 228.86 1750.24C229.495 1749.66 230.003 1748.96 230.351 1748.18C230.699 1747.39 230.878 1746.54 230.878 1745.68C230.878 1744.82 230.699 1743.97 230.351 1743.19C230.003 1742.4 229.495 1741.7 228.86 1741.12C224.86 1737.76 215.9 1740.08 211.94 1742.44L208.22 1745.32C208.94 1744.48 209.62 1743.6 210.34 1742.84C212.9 1739.88 215.42 1737.32 217.66 1735.08C218.98 1733.8 220.14 1732.68 221.3 1731.64C225.422 1732.28 229.617 1732.28 233.74 1731.64C235.547 1731.19 237.235 1730.36 238.686 1729.19C240.137 1728.02 241.315 1726.55 242.14 1724.88C242.432 1724.1 242.559 1723.26 242.514 1722.42C242.469 1721.58 242.252 1720.76 241.877 1720.01C241.502 1719.26 240.976 1718.6 240.333 1718.06C239.691 1717.52 238.944 1717.12 238.14 1716.88C233.1 1715.68 226.14 1721.88 223.74 1725.84C223.74 1726.16 220.9 1731.88 220.98 1731.88C219.86 1732.84 218.7 1733.88 217.42 1735.08C215.14 1737.28 212.54 1739.76 209.9 1742.68C207.047 1745.79 204.376 1749.06 201.9 1752.48C199.092 1756.26 196.617 1760.28 194.5 1764.48C194.5 1762.96 195.18 1758.76 195.18 1758.44C195.18 1753.8 192.46 1744.88 187.5 1743.32C186.676 1743.08 185.81 1743.01 184.959 1743.13C184.108 1743.24 183.291 1743.53 182.561 1743.99C181.832 1744.44 181.207 1745.04 180.728 1745.76C180.248 1746.47 179.925 1747.28 179.78 1748.12C179.619 1749.97 179.861 1751.83 180.489 1753.58C181.117 1755.33 182.117 1756.92 183.42 1758.24C186.663 1761.03 190.32 1763.3 194.26 1764.96C192.248 1769.35 190.524 1773.87 189.1 1778.48C188.26 1781.16 187.5 1783.92 186.78 1786.48C186.78 1785.2 187.06 1784 187.06 1783.84C187.06 1779.24 184.3 1770.32 179.38 1768.72C178.553 1768.48 177.686 1768.42 176.835 1768.54C175.984 1768.66 175.168 1768.96 174.439 1769.42C173.711 1769.88 173.087 1770.48 172.608 1771.19C172.129 1771.91 171.806 1772.71 171.66 1773.56C171.499 1775.41 171.741 1777.27 172.369 1779.02C172.997 1780.77 173.997 1782.36 175.3 1783.68C178.444 1786.4 181.993 1788.62 185.82 1790.24L184.98 1793.4C183.7 1798.48 182.46 1803.56 180.98 1808.48C180.5 1810.24 179.94 1811.92 179.42 1813.64C179.42 1812.48 179.42 1811.48 179.42 1811.32C179.42 1806.72 176.7 1797.8 171.78 1796.2C170.951 1795.96 170.082 1795.9 169.228 1796.02C168.374 1796.14 167.555 1796.44 166.824 1796.9C166.092 1797.35 165.465 1797.96 164.982 1798.67C164.499 1799.39 164.171 1800.19 164.02 1801.04C163.856 1802.89 164.1 1804.76 164.736 1806.51C165.372 1808.26 166.383 1809.85 167.7 1811.16C170.743 1813.83 174.184 1816 177.9 1817.6C177.3 1819.32 176.7 1821.04 176.02 1822.68C175.34 1824.32 175.18 1824.88 174.62 1825.96C174.06 1827.04 173.62 1828.16 173.1 1829.2C172.06 1831.24 171.02 1833.2 169.94 1835.28C169.22 1836.64 168.5 1837.92 167.74 1839.28C168.26 1837.56 169.18 1834.16 169.22 1833.88C169.683 1829.8 169.105 1825.68 167.54 1821.88C167.54 1821.44 167.54 1820.96 167.54 1820.52C167.447 1818.93 166.741 1817.44 165.569 1816.35C164.398 1815.27 162.853 1814.69 161.26 1814.72C156.1 1815.44 151.86 1823.72 151.02 1828.28C151.02 1828.52 150.78 1831.52 150.7 1833.4C150.7 1832.28 150.7 1831.2 150.34 1830.04C150.1 1827.8 149.82 1825.56 149.5 1823.12L148.9 1819.6C148.9 1818.4 148.38 1817.2 148.14 1815.96C147.5 1813.16 146.74 1810.36 145.86 1807.52C149.979 1807.21 154.026 1806.26 157.86 1804.72C159.525 1803.9 160.99 1802.72 162.151 1801.27C163.312 1799.82 164.141 1798.13 164.58 1796.32C164.716 1795.47 164.671 1794.6 164.447 1793.77C164.224 1792.94 163.827 1792.16 163.284 1791.49C162.74 1790.82 162.061 1790.28 161.292 1789.89C160.523 1789.5 159.68 1789.28 158.82 1789.24C153.66 1789.24 148.18 1796.72 146.82 1801.24C146.82 1801.52 145.98 1804.76 145.62 1806.56C145.1 1804.88 144.58 1803.2 144.02 1801.48C142.3 1796.6 140.46 1791.72 138.62 1786.84L136.94 1782.36C141.207 1782.03 145.4 1781.06 149.38 1779.48C151.036 1778.64 152.493 1777.46 153.652 1776.01C154.812 1774.56 155.646 1772.88 156.1 1771.08C156.236 1770.23 156.191 1769.36 155.967 1768.53C155.744 1767.7 155.347 1766.92 154.804 1766.25C154.26 1765.58 153.581 1765.04 152.812 1764.65C152.043 1764.26 151.2 1764.04 150.34 1764C145.18 1764 139.7 1771.48 138.34 1776C138.34 1776.32 137.22 1781.04 137.02 1782.24C135.78 1778.92 134.62 1775.64 133.58 1772.32C132.187 1767.87 131.065 1763.35 130.22 1758.76C134.512 1758.43 138.732 1757.46 142.74 1755.88C144.396 1755.04 145.853 1753.86 147.012 1752.41C148.172 1750.96 149.006 1749.28 149.46 1747.48C149.596 1746.63 149.551 1745.76 149.327 1744.93C149.104 1744.1 148.707 1743.32 148.164 1742.65C147.62 1741.98 146.941 1741.44 146.172 1741.05C145.403 1740.66 144.56 1740.44 143.7 1740.4C138.54 1740.4 133.06 1747.88 131.7 1752.4C131.7 1752.68 130.78 1756.4 130.46 1757.96H130.14C129.451 1753.32 129.17 1748.62 129.3 1743.92C129.3 1741.32 129.54 1738.88 129.74 1736.48C133.937 1736.61 138.13 1736.11 142.18 1735C143.923 1734.24 145.476 1733.1 146.728 1731.67C147.98 1730.24 148.899 1728.55 149.42 1726.72C149.637 1725.89 149.679 1725.03 149.542 1724.18C149.406 1723.33 149.094 1722.53 148.627 1721.81C148.161 1721.09 147.549 1720.47 146.831 1720C146.113 1719.53 145.306 1719.22 144.46 1719.08C139.34 1718.4 133.06 1725.32 131.1 1729.52C131.1 1729.72 130.14 1732.16 129.58 1733.96C129.58 1732.88 129.58 1731.76 129.94 1730.72C130.42 1726.72 131.14 1723.32 131.78 1720.2C132.18 1718.44 132.54 1716.84 132.9 1715.36C136.678 1713.57 140.158 1711.21 143.22 1708.36C144.478 1707 145.421 1705.37 145.981 1703.6C146.541 1701.83 146.705 1699.96 146.46 1698.12C146.281 1697.27 145.922 1696.47 145.409 1695.77C144.895 1695.07 144.238 1694.48 143.481 1694.05C142.724 1693.63 141.885 1693.36 141.019 1693.29C140.153 1693.21 139.281 1693.32 138.46 1693.6C133.62 1695.36 131.22 1704.4 131.42 1709C131.42 1709.4 132.38 1715.64 132.46 1715.6C132.1 1717.04 131.7 1718.56 131.3 1720.24C130.58 1723.36 129.78 1726.88 129.22 1730.76C128.531 1734.93 128.09 1739.14 127.9 1743.36C127.674 1748.1 127.861 1752.85 128.46 1757.56L125.7 1752.16C123.14 1748.16 115.94 1742.36 110.94 1743.76C110.122 1744.02 109.369 1744.45 108.726 1745.02C108.084 1745.59 107.568 1746.28 107.21 1747.06C106.852 1747.84 106.661 1748.69 106.649 1749.54C106.637 1750.4 106.804 1751.25 107.14 1752.04C108.021 1753.74 109.272 1755.23 110.802 1756.38C112.332 1757.54 114.101 1758.34 115.98 1758.72Z" fill="#292926"/>
<g opacity="0.3">
<path d="M1379.18 311.48H1375.18V358.6H1379.18V311.48Z" fill="#EC4E20"/>
<path d="M1379.18 455.48H1375.18V502.6H1379.18V455.48Z" fill="#EC4E20"/>
<path d="M1591.26 455.48H1587.26V502.6H1591.26V455.48Z" fill="#EC4E20"/>
<path d="M1476.06 424.08H1472.06V371.08H1288.14V367.08H1476.06V424.08Z" fill="#EC4E20"/>
<path d="M1476.06 573.319H1472.06V520.359H1288.14V516.359H1476.06V573.319Z" fill="#EC4E20"/>
<path d="M1408.62 436.561H1286.14V410.961H1290.14V432.561H1408.62V436.561Z" fill="#EC4E20"/>
<path d="M1680.94 435.16H1500.26V439.16H1680.94V435.16Z" fill="#EC4E20"/>
<path d="M1685.54 570.721H1681.54V525.561H1513.34V521.561H1685.54V570.721Z" fill="#EC4E20"/>
<path d="M1565.74 587.041H1403.38V591.041H1565.74V587.041Z" fill="#EC4E20"/>
<path d="M960.219 238.439H956.219V285.559H960.219V238.439Z" fill="#EC4E20"/>
<path d="M960.219 366.48H956.219V413.6H960.219V366.48Z" fill="#EC4E20"/>
<path d="M1172.3 366.48H1168.3V413.6H1172.3V366.48Z" fill="#EC4E20"/>
<path d="M1057.1 351.041H1053.1V298.041H869.18V294.041H1057.1V351.041Z" fill="#EC4E20"/>
<path d="M1057.1 484.32H1053.1V431.32H869.18V427.32H1057.1V484.32Z" fill="#EC4E20"/>
<path d="M989.66 363.521H867.18V337.961H871.18V359.521H989.66V363.521Z" fill="#EC4E20"/>
<path d="M1261.98 362.121H1081.3V366.121H1261.98V362.121Z" fill="#EC4E20"/>
<path d="M1266.58 481.681H1262.58V436.561H1094.38V432.561H1266.58V481.681Z" fill="#EC4E20"/>
<path d="M1146.78 498H984.422V502H1146.78V498Z" fill="#EC4E20"/>
<path d="M960.219 1272.72H956.219V1319.84H960.219V1272.72Z" fill="#EC4E20"/>
<path d="M960.219 1400.72H956.219V1447.84H960.219V1400.72Z" fill="#EC4E20"/>
<path d="M1172.3 1400.72H1168.3V1447.84H1172.3V1400.72Z" fill="#EC4E20"/>
<path d="M1057.1 1385.32H1053.1V1332.32H869.18V1328.32H1057.1V1385.32Z" fill="#EC4E20"/>
<path d="M1057.1 1518.56H1053.1V1465.56H869.18V1461.56H1057.1V1518.56Z" fill="#EC4E20"/>
<path d="M989.66 1397.8H867.18V1372.24H871.18V1393.8H989.66V1397.8Z" fill="#EC4E20"/>
<path d="M1261.98 1396.4H1081.3V1400.4H1261.98V1396.4Z" fill="#EC4E20"/>
<path d="M1266.58 1515.96H1262.58V1470.8H1094.38V1466.8H1266.58V1515.96Z" fill="#EC4E20"/>
<path d="M1146.78 1532.28H984.422V1536.28H1146.78V1532.28Z" fill="#EC4E20"/>
<path d="M551.859 1272.72H547.859V1319.84H551.859V1272.72Z" fill="#EC4E20"/>
<path d="M551.859 1400.72H547.859V1447.84H551.859V1400.72Z" fill="#EC4E20"/>
<path d="M763.98 1400.72H759.98V1447.84H763.98V1400.72Z" fill="#EC4E20"/>
<path d="M648.74 1385.32H644.74V1332.32H460.82V1328.32H648.74V1385.32Z" fill="#EC4E20"/>
<path d="M648.74 1518.56H644.74V1465.56H460.82V1461.56H648.74V1518.56Z" fill="#EC4E20"/>
<path d="M581.3 1397.8H458.82V1372.24H462.82V1393.8H581.3V1397.8Z" fill="#EC4E20"/>
<path d="M853.621 1396.4H672.941V1400.4H853.621V1396.4Z" fill="#EC4E20"/>
<path d="M858.22 1515.96H854.22V1470.8H686.02V1466.8H858.22V1515.96Z" fill="#EC4E20"/>
<path d="M738.422 1532.28H576.062V1536.28H738.422V1532.28Z" fill="#EC4E20"/>
<path d="M1522.1 1272.72H1518.1V1319.84H1522.1V1272.72Z" fill="#EC4E20"/>
<path d="M1522.1 1400.72H1518.1V1447.84H1522.1V1400.72Z" fill="#EC4E20"/>
<path d="M1734.18 1400.72H1730.18V1447.84H1734.18V1400.72Z" fill="#EC4E20"/>
<path d="M1618.98 1385.32H1614.98V1332.32H1431.06V1328.32H1618.98V1385.32Z" fill="#EC4E20"/>
<path d="M1618.98 1518.56H1614.98V1465.56H1431.06V1461.56H1618.98V1518.56Z" fill="#EC4E20"/>
<path d="M1551.5 1397.8H1429.06V1372.24H1433.06V1393.8H1551.5V1397.8Z" fill="#EC4E20"/>
<path d="M1823.86 1396.4H1643.18V1400.4H1823.86V1396.4Z" fill="#EC4E20"/>
<path d="M1828.46 1515.96H1824.46V1470.8H1656.26V1466.8H1828.46V1515.96Z" fill="#EC4E20"/>
<path d="M1708.62 1532.28H1546.26V1536.28H1708.62V1532.28Z" fill="#EC4E20"/>
<path d="M1522.1 1546.24H1518.1V1593.36H1522.1V1546.24Z" fill="#EC4E20"/>
<path d="M1522.1 1674.28H1518.1V1721.4H1522.1V1674.28Z" fill="#EC4E20"/>
<path d="M1734.18 1674.28H1730.18V1721.4H1734.18V1674.28Z" fill="#EC4E20"/>
<path d="M1618.98 1658.84H1614.98V1605.84H1431.06V1601.84H1618.98V1658.84Z" fill="#EC4E20"/>
<path d="M1618.98 1792.08H1614.98V1739.12H1431.06V1735.12H1618.98V1792.08Z" fill="#EC4E20"/>
<path d="M1551.5 1671.32H1429.06V1645.76H1433.06V1667.32H1551.5V1671.32Z" fill="#EC4E20"/>
<path d="M1823.86 1669.92H1643.18V1673.92H1823.86V1669.92Z" fill="#EC4E20"/>
<path d="M1828.46 1789.48H1824.46V1744.36H1656.26V1740.36H1828.46V1789.48Z" fill="#EC4E20"/>
<path d="M1708.62 1805.8H1546.26V1809.8H1708.62V1805.8Z" fill="#EC4E20"/>
<path d="M160.18 942.199H156.18V989.319H160.18V942.199Z" fill="#EC4E20"/>
<path d="M160.18 1070.24H156.18V1117.36H160.18V1070.24Z" fill="#EC4E20"/>
<path d="M372.262 1070.24H368.262V1117.36H372.262V1070.24Z" fill="#EC4E20"/>
<path d="M257.061 1054.8H253.061V1001.8H69.1406V997.801H257.061V1054.8Z" fill="#EC4E20"/>
<path d="M257.061 1188.04H253.061V1135.08H69.1406V1131.08H257.061V1188.04Z" fill="#EC4E20"/>
<path d="M189.581 1067.28H67.1406V1041.72H71.1406V1063.28H189.581V1067.28Z" fill="#EC4E20"/>
<path d="M461.899 1065.88H281.219V1069.88H461.899V1065.88Z" fill="#EC4E20"/>
<path d="M466.54 1185.44H462.54V1140.32H294.34V1136.32H466.54V1185.44Z" fill="#EC4E20"/>
<path d="M346.7 1201.76H184.34V1205.76H346.7V1201.76Z" fill="#EC4E20"/>
<path d="M1526.1 801.76H1522.1V848.88H1526.1V801.76Z" fill="#EC4E20"/>
<path d="M1526.1 929.801H1522.1V976.921H1526.1V929.801Z" fill="#EC4E20"/>
<path d="M1738.22 929.801H1734.22V976.921H1738.22V929.801Z" fill="#EC4E20"/>
<path d="M1622.98 914.359H1618.98V861.359H1435.06V857.359H1622.98V914.359Z" fill="#EC4E20"/>
<path d="M1622.98 1047.64H1618.98V994.641H1435.06V990.641H1622.98V1047.64Z" fill="#EC4E20"/>
<path d="M1555.5 926.839H1433.06V901.279H1437.06V922.839H1555.5V926.839Z" fill="#EC4E20"/>
<path d="M1827.86 925.48H1647.18V929.48H1827.86V925.48Z" fill="#EC4E20"/>
<path d="M1832.46 1045H1828.46V999.881H1660.26V995.881H1832.46V1045Z" fill="#EC4E20"/>
<path d="M1712.66 1061.32H1550.3V1065.32H1712.66V1061.32Z" fill="#EC4E20"/>
<path d="M160.18 55.1602H156.18V102.28H160.18V55.1602Z" fill="#EC4E20"/>
<path d="M160.18 183.199H156.18V230.319H160.18V183.199Z" fill="#EC4E20"/>
<path d="M372.262 183.199H368.262V230.319H372.262V183.199Z" fill="#EC4E20"/>
<path d="M257.061 167.76H253.061V114.76H69.1406V110.76H257.061V167.76Z" fill="#EC4E20"/>
<path d="M257.061 301.001H253.061V248.041H69.1406V244.041H257.061V301.001Z" fill="#EC4E20"/>
<path d="M189.581 180.24H67.1406V154.68H71.1406V176.24H189.581V180.24Z" fill="#EC4E20"/>
<path d="M461.899 178.84H281.219V182.84H461.899V178.84Z" fill="#EC4E20"/>
<path d="M466.54 298.399H462.54V253.279H294.34V249.279H466.54V298.399Z" fill="#EC4E20"/>
<path d="M346.7 314.721H184.34V318.721H346.7V314.721Z" fill="#EC4E20"/>
<path d="M677.422 864H673.422V911.12H677.422V864Z" fill="#EC4E20"/>
<path d="M677.422 1008H673.422V1055.12H677.422V1008Z" fill="#EC4E20"/>
<path d="M889.5 1008H885.5V1055.12H889.5V1008Z" fill="#EC4E20"/>
<path d="M774.299 976.6H770.299V923.6H586.379V919.6H774.299V976.6Z" fill="#EC4E20"/>
<path d="M774.299 1125.84H770.299V1072.84H586.379V1068.84H774.299V1125.84Z" fill="#EC4E20"/>
<path d="M706.819 989.04H584.379V963.48H588.379V985.04H706.819V989.04Z" fill="#EC4E20"/>
<path d="M979.18 987.68H798.5V991.68H979.18V987.68Z" fill="#EC4E20"/>
<path d="M983.782 1123.2H979.782V1078.08H811.582V1074.08H983.782V1123.2Z" fill="#EC4E20"/>
<path d="M863.981 1139.56H701.621V1143.56H863.981V1139.56Z" fill="#EC4E20"/>
</g>
<path d="M1746.62 318.24L1615.42 208.88L1562.02 176.88C1566.02 172.88 1568.58 169.76 1568.58 169.76C1563.94 165.032 1558.19 161.54 1551.86 159.6L1712.62 88.76V15.36L1537.26 115.88C1536.46 109.6 1535.74 105.04 1535.74 105.04C1527.63 110.148 1520.37 116.491 1514.22 123.84C1512.65 126.042 1511.46 128.489 1510.7 131.08L1502.14 136L1487.78 134.44L1417.54 94.72C1415.64 84.1114 1409.63 74.6809 1400.82 68.48C1381.86 53.68 1337.86 73.16 1337.86 73.16C1349.01 81.898 1360.82 89.7614 1373.18 96.68C1392.66 107.4 1417.74 99.68 1417.74 99.68C1417.76 99.4136 1417.76 99.1464 1417.74 98.88L1463.98 131.96L1376.54 122.32L1346.62 116.56L1284.9 77.96C1284.35 73.6796 1282.85 69.5775 1280.5 65.96C1280.5 65.96 1271.78 49.08 1263.58 34.76C1255.38 20.44 1204.7 0 1204.7 0C1202.17 6.29668 1201.66 13.2191 1203.22 19.8206C1204.78 26.4221 1208.34 32.3802 1213.42 36.88C1223.92 46.4717 1235.05 55.3452 1246.74 63.44C1246.74 63.44 1219.58 47.44 1201.66 44.56C1183.74 41.68 1138.74 55.88 1138.74 55.88C1153.29 65.3522 1168.72 73.3899 1184.82 79.88C1207.86 88.56 1255.46 80.32 1255.46 80.32L1247.46 108.32L1229.58 106.4L1129.58 111.12C1131.26 102.4 1131.98 95.8 1131.98 95.8C1131.98 95.8 1101.14 88.6 1087.22 106.32C1085.18 108.96 1083.22 111.48 1081.54 113.96L1072.18 114.6C1073.22 108.417 1073.22 102.103 1072.18 95.92C1068.58 79.12 1030.54 38.36 1030.54 38.36C1024.25 52.4171 1020.2 67.3713 1018.54 82.68C1017.82 92.08 1023.14 105.44 1029.42 117.68L863.178 129.68C856.738 122.4 842.978 111.4 817.458 109.44C778.938 106.48 737.458 171.68 737.458 171.68C760.158 173.427 782.959 173.427 805.658 171.68C841.218 168.72 867.898 136.12 867.898 136.12L867.218 134.72L986.458 138.72L787.738 221.96L670.858 225.2C666.322 220.011 660.676 215.91 654.338 213.2C654.338 213.2 627.658 198.4 603.938 186.52C580.218 174.64 494.258 192.48 494.258 192.48C496.496 203.134 501.97 212.836 509.932 220.261C517.894 227.686 527.954 232.47 538.738 233.96C561.309 237.493 584.096 239.471 606.938 239.88C606.938 239.88 556.538 242.72 529.858 254.72C503.178 266.72 455.738 325.88 455.738 325.88C483.629 325.611 511.427 322.624 538.738 316.96C577.258 307.92 633.578 254.72 633.578 254.72L648.418 302.16C648.418 302.16 683.978 275.48 681.018 248.8C680.588 244.92 679.647 241.113 678.218 237.48L769.938 245.84L595.218 337.56L708.218 295.32C688.218 305.96 649.538 333.64 660.898 386.68C676.138 457.56 711.738 488 711.738 488C711.738 488 772.538 373.8 720.018 290.72L864.818 236.6L1030.82 177.32L979.738 252.92C971.179 254.85 963.508 259.58 957.938 266.36L951.578 273.2C939.578 278.08 881.258 305.2 894.938 368.88C910.138 439.76 945.738 470.2 945.738 470.2C945.738 470.2 985.738 395.2 973.018 322.64C975.97 312.667 978.044 302.454 979.218 292.12C979.218 292.12 979.498 320.12 988.618 334.48C997.738 348.84 1047.54 374.24 1047.54 374.24C1048.59 358.871 1047.24 343.432 1043.54 328.48C1037.54 307.32 993.378 277.12 993.378 277.12L1035.62 268.12C1035.62 268.12 1014.14 249.12 990.778 251L1105.22 156.04L1109.74 153.56L1229.46 138.96L1235.5 140.44C1231.95 143.948 1228.98 147.999 1226.7 152.44C1222.7 148 1220.14 145.16 1220.14 145.16C1213.87 159.224 1209.82 174.175 1208.14 189.48C1208.25 197.585 1210.12 205.569 1213.62 212.88C1213.68 218.066 1214.31 223.23 1215.5 228.28C1215.5 228.28 1217.1 227.44 1219.74 225.8C1222.3 230.6 1224.94 235.2 1227.38 239.28C1220.78 235.96 1212.1 231.72 1204.02 228C1188.02 220.64 1145.9 244.92 1145.9 244.92C1145.9 244.92 1158.34 274.04 1180.86 274.8C1192.6 275.219 1204.35 274.59 1215.98 272.92L1216.54 273.28C1209.3 275.76 1190.54 282.92 1181.42 293.28C1169.98 306.12 1159.58 360.92 1159.58 360.92C1174.63 357.681 1189.08 352.121 1202.42 344.44C1220.9 332.88 1237.54 282.96 1237.86 282.04L1258.18 320.08C1258.18 320.08 1268.06 299.2 1264.1 279.08C1265.14 278.607 1266.15 278.045 1267.1 277.4C1267.1 277.4 1285.62 268.2 1300.98 259.64C1303.18 258.286 1305.07 256.488 1306.54 254.36L1342.1 245.92L1326.1 319.32C1319.1 321.32 1310.1 324 1302.1 326.64C1285.42 332.12 1270.9 378.64 1270.9 378.64C1270.9 378.64 1299.82 391.56 1316.86 376.88C1326.71 368.498 1335.67 359.114 1343.58 348.88C1343.58 348.88 1329.42 372.88 1329.74 390C1330.06 407.12 1359.58 454.48 1359.58 454.48C1368.44 441.883 1375.28 427.983 1379.86 413.28C1385.66 392.08 1363.5 343.36 1363.5 343.36L1404.3 357.52C1404.3 357.52 1395.66 329.84 1374.42 319.48C1353.18 309.12 1338.78 315.84 1338.78 315.84L1335.5 316.76L1383.5 234.2L1502.06 181.96L1537.02 192.48L1604.1 226.16L1687.66 317.16L1616.58 304.48C1621.38 300.278 1625.87 295.732 1630.02 290.88C1630.02 290.88 1616.46 276.56 1603.18 280.92C1595.5 283.398 1588.1 286.669 1581.1 290.68C1581.1 290.68 1594.98 280.28 1598.9 270.32C1602.82 260.36 1597.18 226.32 1597.18 226.32C1589.07 231.45 1581.81 237.805 1575.66 245.16C1570.5 251.8 1568.94 266.92 1568.46 277.6C1566.18 273.6 1563.14 268.4 1560.26 263.72C1554.5 254.4 1524.26 252.44 1524.26 252.44C1524.26 252.44 1520.7 271.84 1532.26 280C1538.25 284.128 1544.59 287.715 1551.22 290.72C1551.24 290.852 1551.24 290.988 1551.22 291.12C1546.62 289.88 1534.46 287.12 1526.18 289.28C1515.82 292 1491.54 316.8 1491.54 316.8C1500.49 320.319 1509.94 322.425 1519.54 323.04C1533.1 323.44 1558.94 303.28 1559.54 303.04L1556.98 329.76C1564.38 325.082 1570.34 318.433 1574.18 310.56C1574.88 310.598 1575.59 310.598 1576.3 310.56C1576.3 310.56 1589.06 312.16 1599.98 313C1601.59 313.068 1603.2 312.795 1604.7 312.2L1626.06 320.2L1592.42 352.72C1588.1 351.36 1582.58 349.68 1577.46 348.24C1566.9 345.32 1543.42 364.24 1543.42 364.24C1543.42 364.24 1553.94 380.92 1567.86 379.16C1575.85 378.202 1583.72 376.42 1591.34 373.84C1591.34 373.84 1575.78 381.36 1569.98 390.36C1564.18 399.36 1563.22 433.96 1563.22 433.96C1572.14 430.479 1580.46 425.635 1587.9 419.6C1598.02 410.72 1603.22 377.72 1603.22 377.72L1619.5 399.12C1619.5 399.12 1624.54 381.8 1617.14 369.12C1609.74 356.44 1599.86 354.92 1599.86 354.92L1597.86 354.28L1651.3 328.08L1871.86 366.32L1897.18 328.24L1746.62 318.24ZM1282.1 93.6C1283.2 91.4345 1284.02 89.1355 1284.54 86.76L1321.26 116.32L1254.26 109.04C1263.22 107.48 1276.98 103.48 1282.1 93.6ZM1315.74 232.6C1318.41 222.795 1320.38 212.809 1321.62 202.72C1321.62 202.72 1290.78 195.56 1276.86 213.24C1268.79 223.362 1261.81 234.302 1256.02 245.88C1256.02 245.88 1265.34 219.68 1261.74 202.88C1260.97 199.883 1259.8 197.003 1258.26 194.32C1269.64 182.376 1278.32 168.119 1283.7 152.52L1422.1 186.56L1315.74 232.6Z" fill="#292926"/>
</svg>
